<svg width="21" height="22" viewBox="0 0 21 22" fill="none" xmlns="http://www.w3.org/2000/svg">
<g id="AI">
<path id="Vector" d="M15.4938 11.9518C15.8948 11.8086 16.1641 11.4257 16.1641 11C16.1641 10.5743 15.8948 10.1914 15.4954 10.0482L13.6592 9.38617C11.846 8.73322 10.4314 7.31783 9.77757 5.50473L9.11553 3.66859C8.97143 3.26925 8.58936 3 8.1653 3C7.74041 3 7.35752 3.26842 7.21259 3.66859L6.55138 5.50473C5.89758 7.31865 4.48293 8.73322 2.66893 9.38617L0.834332 10.0482C0.433323 10.1923 0.164062 10.5743 0.164062 11C0.164062 11.4257 0.433323 11.8077 0.832685 11.9518L2.66893 12.6138C4.48211 13.2668 5.89676 14.6814 6.55056 16.4953L7.21259 18.3322C7.35669 18.7316 7.73959 19 8.16447 19C8.58936 19 8.97226 18.7308 9.11553 18.3314L9.77757 16.4953C10.4305 14.6822 11.846 13.2676 13.6592 12.6138L15.4938 11.9518ZM13.1009 11.0642C10.8241 11.8843 9.04801 13.6604 8.22788 15.937L8.16365 16.1149L8.09942 15.937C7.27847 13.6604 5.50234 11.8843 3.22639 11.0642L3.04935 11L3.22721 10.9358C5.50398 10.1157 7.28011 8.33965 8.10025 6.06299L8.16447 5.88514L8.2287 6.06299C9.04883 8.33965 10.825 10.1157 13.1009 10.9358L13.2788 11L13.1009 11.0642Z" fill="#D4D4D4"/>
<path id="Vector_2" d="M12.9787 4.60273L13.7827 4.89258C14.4785 5.14326 15.0205 5.68594 15.2712 6.38101L15.5603 7.18433C15.6735 7.49911 15.9741 7.71062 16.3081 7.71062C16.6421 7.71062 16.9433 7.49911 17.0558 7.18505L17.3457 6.38101C17.5964 5.68522 18.139 5.14255 18.8341 4.89258L19.6389 4.60273C19.9515 4.4895 20.163 4.18967 20.1637 3.85709C20.1644 3.52451 19.9551 3.22326 19.6389 3.10789L18.8341 2.81804C18.139 2.56736 17.5964 2.02469 17.3457 1.32961L17.0558 0.525579C16.9426 0.210801 16.6428 0 16.3088 0C15.9741 0 15.6735 0.211513 15.561 0.525579L15.2712 1.32961C15.0205 2.0254 14.4778 2.56736 13.7827 2.81804L12.9766 3.10861C12.6632 3.22255 12.4524 3.5238 12.4531 3.85709C12.4538 4.19039 12.6654 4.49021 12.9787 4.60273ZM16.3088 2.46053C16.6463 3.03881 17.1256 3.5181 17.7032 3.85496C17.1249 4.19252 16.6456 4.67181 16.3088 5.24938C15.9712 4.67181 15.4919 4.19181 14.9144 3.85496C15.4919 3.51739 15.9712 3.0381 16.3088 2.46053Z" fill="#D4D4D4"/>
<path id="Vector_3" d="M19.6389 16.7622L18.8348 16.4723C18.1398 16.2217 17.5971 15.679 17.3464 14.9839L17.0566 14.1799C16.9433 13.8658 16.6428 13.6543 16.3088 13.6543C15.9741 13.6543 15.6735 13.8658 15.561 14.1799L15.2712 14.9839C15.0205 15.6797 14.4778 16.2224 13.7827 16.4723L12.9794 16.7615C12.6654 16.874 12.4538 17.1745 12.4531 17.5078C12.4524 17.8411 12.6625 18.1424 12.9787 18.257L13.7827 18.5469C14.4785 18.7976 15.0212 19.3395 15.2712 20.0353L15.5603 20.8386C15.6742 21.1534 15.9748 21.3649 16.3095 21.3649C16.6442 21.3649 16.9447 21.1534 17.0573 20.8393L17.3471 20.0353C17.5978 19.3402 18.1405 18.7976 18.8355 18.5469L19.6431 18.2563C19.9558 18.1417 20.1659 17.8411 20.1652 17.5078C20.1644 17.1745 19.9522 16.8754 19.6389 16.7622ZM16.3095 18.9044C15.9719 18.3261 15.4926 17.8468 14.9151 17.51C15.4926 17.1724 15.9726 16.6931 16.3095 16.1155C16.6471 16.6931 17.1263 17.1731 17.7039 17.51C17.1263 17.8475 16.6463 18.3268 16.3095 18.9044Z" fill="#D4D4D4"/>
</g>
</svg>
