<svg width="20" height="20" viewBox="0 0 20 20" fill="none" xmlns="http://www.w3.org/2000/svg">
<path d="M7.5 14.166V5.83268M7.5 14.166C7.5 15.0865 6.75381 15.8327 5.83333 15.8327H4.16667C3.24619 15.8327 2.5 15.0865 2.5 14.166V5.83268C2.5 4.91221 3.24619 4.16602 4.16667 4.16602H5.83333C6.75381 4.16602 7.5 4.91221 7.5 5.83268M7.5 14.166C7.5 15.0865 8.24619 15.8327 9.16667 15.8327H10.8333C11.7538 15.8327 12.5 15.0865 12.5 14.166M7.5 5.83268C7.5 4.91221 8.24619 4.16602 9.16667 4.16602H10.8333C11.7538 4.16602 12.5 4.91221 12.5 5.83268M12.5 14.166V5.83268M12.5 14.166C12.5 15.0865 13.2462 15.8327 14.1667 15.8327H15.8333C16.7538 15.8327 17.5 15.0865 17.5 14.166V5.83268C17.5 4.91221 16.7538 4.16602 15.8333 4.16602H14.1667C13.2462 4.16602 12.5 4.91221 12.5 5.83268" stroke="#737373" stroke-width="1.5" stroke-linecap="round" stroke-linejoin="round"/>
</svg>
