<svg xmlns="http://www.w3.org/2000/svg" width="24" height="15.855" viewBox="0 0 24 15.855">
  <g id="Broken_Image" data-name="Broken Image" transform="translate(-469.132 -618.349)">
    <path id="Path_4620" data-name="Path 4620" d="M484.7,618.506l-4.054,3.437c.482.406.873.726,1.253,1.057.434.378.859.765,1.286,1.15.573.517.576.877.008,1.385-.8.711-1.594,1.421-2.429,2.164.119.118.216.222.323.318.712.641,1.429,1.278,2.14,1.92.528.478.526.848-.008,1.328-1,.9-1.991,1.8-3.01,2.674a1.217,1.217,0,0,1-.714.27c-3.043.012-6.086,0-9.129-.005-.976,0-1.231-.227-1.231-1.1q0-6.821,0-13.642c0-.877.251-1.1,1.223-1.1h14.223Zm-13.918,13.2c.169-.143.275-.227.375-.317q1.835-1.644,3.669-3.287a.936.936,0,0,1,1.5.007c1.141,1.023,2.286,2.043,3.418,3.074a4.483,4.483,0,0,1,.459.549l1.349-1.19c.006.009,0-.016-.024-.034q-1.175-1.057-2.351-2.113c-.542-.488-.54-.861.01-1.356.712-.641,1.421-1.284,2.144-1.914a1.373,1.373,0,0,1,.406-.158c-.828-.791-1.5-1.428-2.226-2.019-1.034-.845-.917-1.2.008-1.965.416-.344.8-.715,1.278-1.141H470.781Z" transform="translate(0 -0.011)" fill="#949494"/>
    <path id="Path_4621" data-name="Path 4621" d="M621.809,627.922c.587-.549,1.064-1.033,1.589-1.473a.851.851,0,0,1,1.184.133q1.885,1.682,3.761,3.372c.618.557,1.224,1.125,1.835,1.689l.122-.045c.011-.131.031-.261.031-.391,0-3.656,0-7.312.01-10.968,0-.364-.121-.45-.513-.446-1.687.019-3.375.008-5.063.008h-.508l-.062-.1c.492-.436.98-.876,1.483-1.3.068-.057.218-.048.33-.048q2.445,0,4.89,0c.734,0,1.028.255,1.029.914q.007,7.015,0,14.03c0,.606-.275.888-.923.891-3.26.011-6.52.005-9.78,0a1.641,1.641,0,0,1-.265-.055c.131-.129.22-.224.317-.311.61-.55,1.229-1.092,1.83-1.649a1.98,1.98,0,0,0,0-3.167C622.689,628.621,622.229,628.27,621.809,627.922Z" transform="translate(-138.801)" fill="#949494"/>
  </g>
</svg>
