<svg width="20" height="20" viewBox="0 0 20 20" fill="none" xmlns="http://www.w3.org/2000/svg">
<path d="M14.2 1H5.8C4.11984 1 3.27976 1 2.63803 1.32698C2.07354 1.6146 1.6146 2.07354 1.32698 2.63803C1 3.27976 1 4.11984 1 5.8V14.2C1 15.8802 1 16.7202 1.32698 17.362C1.6146 17.9265 2.07354 18.3854 2.63803 18.673C3.27976 19 4.11984 19 5.8 19H14.2C15.8802 19 16.7202 19 17.362 18.673C17.9265 18.3854 18.3854 17.9265 18.673 17.362C19 16.7202 19 15.8802 19 14.2V5.8M14.2 1C15.8802 1 16.7202 1 17.362 1.32698C17.9265 1.6146 18.3854 2.07354 18.673 2.63803C19 3.27976 19 4.11984 19 5.8M14.2 1H13.2C12.0799 1 11.5198 1 11.092 1.21799C10.7157 1.40973 10.4097 1.71569 10.218 2.09202C10 2.51984 10 3.07989 10 4.2V6.8C10 7.9201 10 8.48016 10.218 8.90798C10.4097 9.28431 10.7157 9.59027 11.092 9.78201C11.5198 10 12.0799 10 13.2 10H15.8C16.9201 10 17.4802 10 17.908 9.78201C18.2843 9.59027 18.5903 9.28431 18.782 8.90798C19 8.48016 19 7.92011 19 6.8V5.8M10.5 9.5L5 15M5 15H10M5 15L5 10" stroke="white" stroke-width="1.5" stroke-linecap="round" stroke-linejoin="round"/>
</svg>
