<svg viewBox="0 0 24 24" xml:space="preserve" xmlns="http://www.w3.org/2000/svg" enable-background="new 0 0 24 24"><g id="_icons"><path d="M13.6 10.9c.1.1.3.1.4.1h3c.6 0 1-.4 1-1s-.4-1-1-1h-.6l3.3-3.3c.4-.4.4-1 0-1.4s-1-.4-1.4 0L15 7.6V7c0-.6-.4-1-1-1s-1 .4-1 1v3c0 .1 0 .3.1.4.1.2.3.4.5.5zM5 20c.3 0 .5-.1.7-.3L9 16.4v.6c0 .6.4 1 1 1s1-.4 1-1v-3c0-.1 0-.3-.1-.4-.1-.2-.3-.4-.5-.5-.1-.1-.3-.1-.4-.1H7c-.6 0-1 .4-1 1s.4 1 1 1h.6l-3.3 3.3c-.4.4-.4 1 0 1.4.2.2.4.3.7.3zM15.3 16.7c.2.2.5.3.7.3s.5-.1.7-.3c.4-.4.4-1 0-1.4l-8-8c-.4-.4-1-.4-1.4 0s-.4 1 0 1.4l8 8z" fill="#78716c" class="fill-000000"></path></g></svg>