<svg width="20" height="20" viewBox="0 0 20 20" fill="none" xmlns="http://www.w3.org/2000/svg">
<path d="M11.8389 8.11199C10.8195 7.09288 9.16675 7.09288 8.14736 8.11199C7.12796 9.13098 7.12796 10.7832 8.14736 11.8023C9.16675 12.8213 10.8195 12.8213 11.8389 11.8023C12.8583 10.7832 12.8583 9.13098 11.8389 8.11199Z" fill="#737373"/>
<path d="M3.01805 5.04045C3.37387 5.04045 3.70799 4.94802 3.99816 4.78652C4.01368 4.80699 4.03016 4.82704 4.04898 4.84571L6.97092 7.7667C7.08559 7.60946 7.21303 7.45991 7.35325 7.31969C7.48083 7.19225 7.61596 7.07539 7.75768 6.96909L4.84095 4.05346C4.82241 4.03479 4.80236 4.01831 4.78204 4.00293C4.94367 3.71275 5.03596 3.37877 5.03596 3.02308C5.03596 1.90893 4.13247 1.00586 3.01805 1.00586C1.90349 1.00586 1 1.90893 1 3.02308C1 4.13723 1.90349 5.04045 3.01805 5.04045Z" fill="#737373"/>
<path d="M16.9504 14.9318C16.5946 14.9318 16.2605 15.0242 15.9702 15.1857C15.9546 15.1652 15.9382 15.1452 15.9195 15.1265L12.9815 12.1895C12.875 12.3313 12.7579 12.4667 12.6302 12.5943C12.4901 12.7344 12.3407 12.8617 12.1836 12.9761L15.1274 15.9188C15.1461 15.9374 15.1658 15.9539 15.1863 15.9693C15.0248 16.2595 14.9324 16.5935 14.9324 16.9491C14.9324 18.0633 15.8359 18.9664 16.9504 18.9664C18.0648 18.9664 18.9683 18.0633 18.9683 16.9491C18.9683 15.835 18.0648 14.9318 16.9504 14.9318Z" fill="#737373"/>
<path d="M9.42855 3.47745C9.41509 3.52551 9.4074 3.57591 9.4074 3.62823V6.27291C9.59925 6.24298 9.79466 6.22732 9.99256 6.22732C10.1733 6.22732 10.3519 6.24037 10.5277 6.26536V3.62823C10.5277 3.58566 10.5225 3.54433 10.5136 3.50436C10.6624 3.44092 10.8018 3.34877 10.9234 3.22737C11.433 2.71774 11.433 1.89171 10.9234 1.38222C10.4136 0.872593 9.5873 0.872593 9.07753 1.38222C8.56791 1.89171 8.56791 2.71774 9.07753 3.22737C9.18286 3.33257 9.30179 3.41579 9.42855 3.47745Z" fill="#737373"/>
<path d="M10.5573 16.474C10.5704 16.4263 10.5781 16.3762 10.5781 16.3242V13.6406C10.3861 13.6707 10.1906 13.6862 9.99256 13.6862C9.81197 13.6862 9.63344 13.6733 9.4578 13.6482V16.3242C9.4578 16.3711 9.46411 16.4165 9.47496 16.46C9.33077 16.5233 9.19564 16.6137 9.07753 16.7318C8.56791 17.2413 8.56791 18.0673 9.07753 18.5768C9.5873 19.0864 10.4136 19.0864 10.9234 18.5768C11.433 18.0673 11.433 17.2413 10.9234 16.7318C10.8139 16.6223 10.6896 16.5365 10.5573 16.474Z" fill="#737373"/>
<path d="M12.1953 6.94712C12.3482 7.05945 12.4936 7.18387 12.6301 7.32052C12.7612 7.45153 12.8814 7.59064 12.9902 7.73676L15.9035 4.82443C15.9195 4.80836 15.9342 4.79133 15.948 4.77375C16.2434 4.94322 16.5853 5.04058 16.9503 5.04058C18.0647 5.04058 18.9682 4.13737 18.9682 3.02322C18.9682 1.90907 18.0647 1.00586 16.9503 1.00586C15.8358 1.00586 14.9323 1.90907 14.9323 3.02322C14.9323 3.36929 15.0195 3.6949 15.1732 3.97958C15.1517 3.99551 15.1309 4.01254 15.1114 4.03204L12.1953 6.94712Z" fill="#737373"/>
<path d="M7.81041 12.9831C7.64947 12.8666 7.49648 12.7367 7.35325 12.5936C7.22869 12.4692 7.11429 12.3372 7.00992 12.1992L4.04898 15.1592C4.03016 15.1779 4.01368 15.1979 3.99816 15.2184C3.70799 15.0569 3.37387 14.9645 3.01805 14.9645C1.90349 14.9645 1 15.8677 1 16.9818C1 18.096 1.90349 18.9991 3.01805 18.9991C4.13247 18.9991 5.0361 18.096 5.0361 16.9818C5.0361 16.6262 4.94367 16.2922 4.78204 16.002C4.8025 15.9866 4.82241 15.9701 4.84109 15.9515L7.81041 12.9831Z" fill="#737373"/>
<path d="M16.4002 10.5562C16.4416 10.5562 16.482 10.5514 16.5208 10.5428C16.5829 10.6716 16.6669 10.7924 16.7738 10.8991C17.2834 11.4086 18.1099 11.4086 18.6195 10.8991C19.1292 10.3897 19.1292 9.56348 18.6195 9.05399C18.1099 8.5445 17.2834 8.5445 16.7738 9.05399C16.6572 9.17058 16.5677 9.30379 16.5043 9.44593C16.4706 9.43961 16.4358 9.4359 16.4002 9.4359H13.6875C13.7112 9.60715 13.7236 9.78115 13.7236 9.9572C13.7236 10.1599 13.7072 10.36 13.6758 10.5562H16.4002Z" fill="#737373"/>
<path d="M3.59964 9.4359C3.56462 9.4359 3.53056 9.43947 3.49733 9.44565C3.43402 9.30366 3.34448 9.17045 3.22802 9.05399C2.7184 8.5445 1.89195 8.5445 1.38232 9.05399C0.872559 9.56348 0.872559 10.3897 1.38232 10.8991C1.89195 11.4086 2.7184 11.4086 3.22802 10.8991C3.33473 10.7924 3.41877 10.6719 3.48071 10.5433C3.51902 10.5516 3.55871 10.5562 3.5995 10.5562H6.30831C6.27686 10.36 6.26052 10.1598 6.26052 9.9572C6.26052 9.78115 6.27288 9.60715 6.29664 9.4359H3.59964Z" fill="#737373"/>
</svg>
