<svg width="16" height="16" viewBox="0 0 16 16" fill="none" xmlns="http://www.w3.org/2000/svg">
<path d="M14.6654 8.83398V3.00065C14.6654 2.08018 13.9192 1.33398 12.9987 1.33398H2.9987C2.07822 1.33398 1.33203 2.08018 1.33203 3.00065V8.83398M14.6654 8.83398V13.0007C14.6654 13.9211 13.9192 14.6673 12.9987 14.6673H2.9987C2.07822 14.6673 1.33203 13.9211 1.33203 13.0007V8.83398M14.6654 8.83398H12.5105C12.2895 8.83398 12.0776 8.92178 11.9213 9.07806L9.90944 11.0899C9.75316 11.2462 9.5412 11.334 9.32019 11.334H6.67721C6.4562 11.334 6.24423 11.2462 6.08795 11.0899L4.07611 9.07806C3.91983 8.92178 3.70787 8.83398 3.48685 8.83398H1.33203" stroke="#737373" stroke-width="2" stroke-linecap="round" stroke-linejoin="round"/>
</svg>
