<svg width="16" height="16" viewBox="0 0 16 16" fill="none" xmlns="http://www.w3.org/2000/svg">
<g id="Icon/Outline/document-duplicate">
<path id="Icon" d="M5.33464 4.66667V10C5.33464 10.7364 5.93159 11.3333 6.66797 11.3333H10.668M5.33464 4.66667V3.33333C5.33464 2.59695 5.93159 2 6.66797 2H9.72516C9.90197 2 10.0715 2.07024 10.1966 2.19526L13.1394 5.13807C13.2644 5.2631 13.3346 5.43266 13.3346 5.60948V10C13.3346 10.7364 12.7377 11.3333 12.0013 11.3333H10.668M5.33464 4.66667H4.66797C3.5634 4.66667 2.66797 5.5621 2.66797 6.66667V12.6667C2.66797 13.403 3.26492 14 4.0013 14H8.66797C9.77254 14 10.668 13.1046 10.668 12V11.3333" stroke="#57534E" stroke-width="2" stroke-linecap="round" stroke-linejoin="round"/>
</g>
</svg>
