<svg xmlns="http://www.w3.org/2000/svg" fill="grey" fill-rule="evenodd" stroke-linejoin="round" stroke-miterlimit="1" clip-rule="evenodd" viewBox="0 0 27 29" id="number"><path d="M21.127,1.307l0,10c0,0.551 0.448,1 1,1c0.552,-0 1,-0.449 1,-1l0,-10c0,-0.552 -0.448,-1 -1,-1c-0.552,-0 -1,0.448 -1,1Z"></path><path d="M18.795 4.807l.833 0c1.933 0 3.499-1.567 3.499-3.5 0-.552-.448-1-1-1-.552 0-1 .448-1 1 0 .828-.671 1.5-1.499 1.5 0 0-.833 0-.833 0-.552 0-1 .448-1 1 0 .552.448 1 1 1zM25.461 10.307l-6.666 0c-.552 0-1 .448-1 1 0 .551.448 1 1 1l6.666 0c.552 0 1-.449 1-1 0-.552-.448-1-1-1zM20.638 23.494l1.313 0c2.122 0 3.843-1.721 3.843-3.844 0-2.123-1.721-3.844-3.843-3.844l-1.313 0c-2.122 0-3.843 1.721-3.843 3.844 0 2.123 1.721 3.844 3.843 3.844zm0-2c-1.018 0-1.843-.826-1.843-1.844 0-1.018.825-1.844 1.843-1.844l1.313 0c1.018 0 1.843.826 1.843 1.844 0 1.018-.825 1.844-1.843 1.844l-1.313 0z"></path><path d="M23.794 19.431l0 5.25c0 .897-.727 1.625-1.625 1.625 0 0-1.75 0-1.75 0-.707 0-1.309-.452-1.532-1.083-.184-.521-.756-.794-1.276-.61-.52.184-.794.756-.61 1.276.498 1.408 1.84 2.417 3.418 2.417l1.75 0c2.002 0 3.625-1.623 3.625-3.625l0-5.25c0-.552-.448-1-1-1-.552 0-1 .448-1 1zM5.796 1.308l0 25.999c0 .552.448 1 1 1 .552 0 1-.448 1-1l0-25.999c0-.552-.448-1-1-1-.552 0-1 .448-1 1z"></path><path d="M11.088,21.6l-4.292,4.293c-0,-0 -4.293,-4.293 -4.293,-4.293c-0.39,-0.39 -1.024,-0.39 -1.414,-0c-0.39,0.39 -0.39,1.024 0,1.414l5,5c0.187,0.188 0.441,0.293 0.707,0.293c0.265,-0 0.519,-0.105 0.707,-0.293l4.999,-5c0.391,-0.39 0.39,-1.024 0,-1.414c-0.39,-0.39 -1.024,-0.39 -1.414,0Z"></path></svg>