<svg data-name="Layer 12" viewBox="0 0 32 32" xmlns="http://www.w3.org/2000/svg"><path d="M20.69 24H3.53a1 1 0 0 1-1-1V11.34h24.23v7.05a.5.5 0 0 0 1 0V8a2 2 0 0 0-2-2h-1.69V4.5a.5.5 0 0 0-1 0v1.43h-5V4.62a.5.5 0 1 0-1 0v1.31h-5V4.62a.5.5 0 1 0-1 0v1.31h-5V4.62a.5.5 0 1 0-1 0v1.31H3.53a2 2 0 0 0-2 2v15a2 2 0 0 0 2 2h17.16a.5.5 0 0 0 0-.93ZM3.53 6.93h1.65v1.31a.5.5 0 0 0 1 0V6.93h5v1.31a.5.5 0 0 0 1 0V6.93h5v1.31a.5.5 0 0 0 1 0V6.93h5v1.19a.5.5 0 1 0 1 0V6.93h1.65a1 1 0 0 1 1 1v2.38H2.5V8a1 1 0 0 1 1.03-1.07Z" fill="#231d49" class="fill-000000"></path><path d="M9.21 13.03h1.92v1.92H9.21zM13.71 13.03h1.92v1.92h-1.92zM18.21 13.02h1.92v1.92h-1.92zM4.71 16.7h1.92v1.92H4.71zM9.21 16.7h1.92v1.92H9.21zM13.71 16.7h1.92v1.92h-1.92zM4.71 20.41h1.92v1.92H4.71zM9.21 20.41h1.92v1.92H9.21zM13.71 20.39h1.92v1.92h-1.92zM18.21 20.39h1.92v1.92h-1.92zM18.21 16.69h1.92v1.92h-1.92zM22.63 13h1.92v1.92h-1.92zM22.63 16.67h1.92v1.92h-1.92zM26.32 19.65a4.18 4.18 0 1 0 4.17 4.17 4.18 4.18 0 0 0-4.17-4.17Zm0 7.35a3.18 3.18 0 1 1 3.17-3.18A3.18 3.18 0 0 1 26.32 27Z" fill="#231d49" class="fill-000000"></path><path d="m27.5 22.42-1.73 1.78-.67-.54a.5.5 0 1 0-.63.77l1 .83a.5.5 0 0 0 .67 0l2.05-2.11a.5.5 0 0 0-.69-.73Z" fill="#231d49" class="fill-000000"></path></svg>