<svg data-name="Layer 13" viewBox="0 0 32 32" xmlns="http://www.w3.org/2000/svg"><path d="M28.55 6.57h-2.13V4.93a.5.5 0 1 0-1 0v1.64h-5.61V5.06a.5.5 0 0 0-1 0v1.51h-5.62V5.06a.5.5 0 0 0-1 0v1.51H6.58V5.06a.5.5 0 1 0-1 0v1.51H3.45A2 2 0 0 0 1.5 8.52v17.1a2 2 0 0 0 1.95 2h25.1a2 2 0 0 0 1.95-2V8.52a2 2 0 0 0-1.95-1.95Zm-25.1 1h2.13v1.51a.5.5 0 0 0 1 0V7.57h5.61v1.51a.5.5 0 0 0 1 0V7.57h5.61v1.51a.5.5 0 0 0 1 0V7.57h5.61v1.37a.5.5 0 1 0 1 0V7.57h2.13a1 1 0 0 1 .95.95v2.94H2.5V8.52a1 1 0 0 1 .95-.95Zm25.1 19H3.45a1 1 0 0 1-.95-1V12.46h27v13.16a1 1 0 0 1-.95.95Z" fill="#231d49" class="fill-000000"></path><path d="M9.99 14.39h2.13v2.13H9.99zM14.98 14.39h2.13v2.13h-2.13zM19.98 14.37h2.13v2.13h-2.13zM5 18.45h2.13v2.13H5zM9.99 18.45h2.13v2.13H9.99zM14.98 18.45h2.13v2.13h-2.13zM5 22.56h2.13v2.13H5zM9.99 22.56h2.13v2.13H9.99zM14.98 22.55h2.13v2.13h-2.13zM19.98 22.55h2.13v2.13h-2.13zM19.98 18.44h2.13v2.13h-2.13zM24.87 14.36H27v2.13h-2.13zM24.87 18.42H27v2.13h-2.13z" fill="#231d49" class="fill-000000"></path></svg>