<svg width="15" height="15" viewBox="0 0 15 15" fill="none" xmlns="http://www.w3.org/2000/svg">
<path d="M7.15566 3.70067L12.9814 1.42721C13.3305 1.29096 13.5051 1.22283 13.6167 1.2601C13.7135 1.29246 13.7896 1.36849 13.8219 1.46536C13.8592 1.57691 13.7911 1.75148 13.6548 2.10062L11.3741 7.945M10.437 10.3462L9.3714 13.0769C9.22047 13.4637 9.145 13.657 9.03652 13.7134C8.94248 13.7623 8.83052 13.7622 8.73654 13.7132C8.62813 13.6567 8.55289 13.4633 8.40241 13.0763L6.69425 8.68393C6.66371 8.60538 6.64843 8.56611 6.62485 8.53304C6.60394 8.50373 6.5783 8.47809 6.54899 8.45719C6.51592 8.4336 6.47665 8.41832 6.3981 8.38778L2.00571 6.67962C1.61876 6.52915 1.42529 6.4539 1.3688 6.34549C1.31984 6.25151 1.31977 6.13955 1.36863 6.04551C1.42498 5.93703 1.61837 5.86157 2.00514 5.71063L4.73814 4.6441M13.4359 13.3454L1.73667 1.64618" stroke="#737373" stroke-width="1.5" stroke-linecap="round" stroke-linejoin="round"/>
</svg>
