<svg width="24" height="24" viewBox="0 0 24 24" fill="none" xmlns="http://www.w3.org/2000/svg">
<g id="UNX-icons" clip-path="url(#clip0_3173_2566)">
<path id="Vector" d="M2.85713 5.71425C1.2816 5.71425 0 4.43265 0 2.85713C0 1.2816 1.2816 0 2.85713 0C4.43265 0 5.71425 1.2816 5.71425 2.85713C5.71425 4.43265 4.43265 5.71425 2.85713 5.71425ZM2.85713 1.14285C1.91182 1.14285 1.14285 1.91182 1.14285 2.85713C1.14285 3.80242 1.91182 4.5714 2.85713 4.5714C3.80242 4.5714 4.5714 3.80242 4.5714 2.85713C4.5714 1.91182 3.80242 1.14285 2.85713 1.14285Z" fill="#D4D4D4"/>
<path id="Vector_2" d="M21.1423 5.71425C19.5668 5.71425 18.2852 4.43265 18.2852 2.85713C18.2852 1.2816 19.5668 0 21.1423 0C22.7178 0 23.9994 1.2816 23.9994 2.85713C23.9994 4.43265 22.7178 5.71425 21.1423 5.71425ZM21.1423 1.14285C20.197 1.14285 19.428 1.91182 19.428 2.85713C19.428 3.80242 20.197 4.5714 21.1423 4.5714C22.0876 4.5714 22.8566 3.80242 22.8566 2.85713C22.8566 1.91182 22.0876 1.14285 21.1423 1.14285Z" fill="#D4D4D4"/>
<path id="Vector_3" d="M11.2399 14.8568C9.66441 14.8568 8.38281 13.5752 8.38281 11.9997C8.38281 10.4242 9.66441 9.14258 11.2399 9.14258C12.8155 9.14258 14.0971 10.4242 14.0971 11.9997C14.0971 13.5752 12.8155 14.8568 11.2399 14.8568ZM11.2399 10.2854C10.2946 10.2854 9.52566 11.0544 9.52566 11.9997C9.52566 12.945 10.2946 13.714 11.2399 13.714C12.1852 13.714 12.9542 12.945 12.9542 11.9997C12.9542 11.0544 12.1852 10.2854 11.2399 10.2854Z" fill="#D4D4D4"/>
<path id="Vector_4" d="M2.85713 23.9994C1.2816 23.9994 0 22.7178 0 21.1423C0 19.5668 1.2816 18.2852 2.85713 18.2852C4.43265 18.2852 5.71425 19.5668 5.71425 21.1423C5.71425 22.7178 4.43265 23.9994 2.85713 23.9994ZM2.85713 19.428C1.91182 19.428 1.14285 20.197 1.14285 21.1423C1.14285 22.0876 1.91182 22.8566 2.85713 22.8566C3.80242 22.8566 4.5714 22.0876 4.5714 21.1423C4.5714 20.197 3.80242 19.428 2.85713 19.428Z" fill="#D4D4D4"/>
<path id="Vector_5" d="M21.1423 23.9994C19.5668 23.9994 18.2852 22.7178 18.2852 21.1423C18.2852 19.5668 19.5668 18.2852 21.1423 18.2852C22.7178 18.2852 23.9994 19.5668 23.9994 21.1423C23.9994 22.7178 22.7178 23.9994 21.1423 23.9994ZM21.1423 19.428C20.197 19.428 19.428 20.197 19.428 21.1423C19.428 22.0876 20.197 22.8566 21.1423 22.8566C22.0876 22.8566 22.8566 22.0876 22.8566 21.1423C22.8566 20.197 22.0876 19.428 21.1423 19.428Z" fill="#D4D4D4"/>
<path id="Vector_6" d="M18.8561 3.42801H5.14174C4.82629 3.42801 4.57031 3.17203 4.57031 2.85658C4.57031 2.54113 4.82629 2.28516 5.14174 2.28516H18.856C19.1715 2.28516 19.4274 2.54113 19.4274 2.85658C19.4274 3.17203 19.1715 3.42801 18.8561 3.42801Z" fill="#D4D4D4"/>
<path id="Vector_7" d="M19.6196 12.5722H14.2863C13.9708 12.5722 13.7148 12.3162 13.7148 12.0008C13.7148 11.6853 13.9708 11.4294 14.2863 11.4294H19.6196C20.1449 11.4294 20.5719 11.0023 20.5719 10.477V5.14369C20.5719 4.82824 20.8279 4.57227 21.1434 4.57227C21.4588 4.57227 21.7148 4.82824 21.7148 5.14369V10.477C21.7148 11.6325 20.7751 12.5722 19.6196 12.5722Z" fill="#D4D4D4"/>
<path id="Vector_8" d="M2.85658 19.4278C2.54113 19.4278 2.28516 19.1718 2.28516 18.8563V13.523C2.28516 12.3675 3.22491 11.4277 4.38043 11.4277H8.95183C9.26728 11.4277 9.52326 11.6837 9.52326 11.9992C9.52326 12.3146 9.26728 12.5706 8.95183 12.5706H4.38043C3.85513 12.5706 3.42808 12.9976 3.42808 13.5229V18.8563C3.42808 19.1717 3.17203 19.4278 2.85658 19.4278Z" fill="#D4D4D4"/>
<path id="Vector_9" d="M18.8561 21.7151H5.14174C4.82629 21.7151 4.57031 21.4591 4.57031 21.1437C4.57031 20.8282 4.82629 20.5723 5.14174 20.5723H18.856C19.1715 20.5723 19.4274 20.8282 19.4274 21.1437C19.4274 21.4591 19.1715 21.7151 18.8561 21.7151Z" fill="#D4D4D4"/>
<path id="Vector_10" d="M11.2394 4.95227C11.0932 4.95227 10.947 4.89647 10.8354 4.78487C10.6122 4.56167 10.6122 4.20002 10.8354 3.97682L11.9552 2.85699L10.8354 1.73717C10.6122 1.51397 10.6122 1.15232 10.8354 0.929119C11.0586 0.705919 11.4202 0.705919 11.6434 0.929119L13.1672 2.45289C13.3904 2.67609 13.3904 3.03774 13.1672 3.26094L11.6434 4.78472C11.5318 4.89632 11.3856 4.95227 11.2394 4.95227Z" fill="#D4D4D4"/>
<path id="Vector_11" d="M11.2394 23.2374C11.0932 23.2374 10.947 23.1816 10.8354 23.07C10.6122 22.8468 10.6122 22.4852 10.8354 22.262L11.9552 21.1421L10.8354 20.0223C10.6122 19.7991 10.6122 19.4375 10.8354 19.2143C11.0586 18.9911 11.4202 18.9911 11.6434 19.2143L13.1672 20.7381C13.3904 20.9613 13.3904 21.3229 13.1672 21.5461L11.6434 23.0699C11.5318 23.1815 11.3856 23.2374 11.2394 23.2374Z" fill="#D4D4D4"/>
<path id="Vector_12" d="M18.8569 14.0947C18.7107 14.0947 18.5645 14.0389 18.4529 13.9273L16.9291 12.4035C16.7059 12.1803 16.7059 11.8187 16.9291 11.5955L18.4529 10.0717C18.6761 9.8485 19.0377 9.8485 19.2609 10.0717C19.4841 10.2949 19.4841 10.6565 19.2609 10.8797L18.1411 11.9996L19.2609 13.1194C19.4841 13.3426 19.4841 13.7042 19.2609 13.9274C19.1493 14.039 19.0031 14.0947 18.8569 14.0947Z" fill="#D4D4D4"/>
<path id="Vector_13" d="M2.85692 17.1432C2.71074 17.1432 2.56449 17.0874 2.45289 16.9758L0.929119 15.452C0.705919 15.2288 0.705919 14.8672 0.929119 14.644C1.15232 14.4208 1.51397 14.4208 1.73717 14.644L2.85699 15.7638L3.97682 14.644C4.20002 14.4208 4.56167 14.4208 4.78487 14.644C5.00807 14.8672 5.00807 15.2288 4.78487 15.452L3.26109 16.9758C3.14949 17.0874 3.00309 17.1432 2.85692 17.1432Z" fill="#D4D4D4"/>
</g>
<defs>
<clipPath id="clip0_3173_2566">
<rect width="24" height="24" fill="white"/>
</clipPath>
</defs>
</svg>
