<svg width="16" height="16" viewBox="0 0 16 16" fill="none" xmlns="http://www.w3.org/2000/svg">
<g id="dots-vertical">
<g id="Icon">
<path d="M7.99492 8.66714C8.36318 8.66714 8.66171 8.3686 8.66171 8.00035C8.66171 7.63209 8.36318 7.33355 7.99492 7.33355C7.62666 7.33355 7.32812 7.63209 7.32812 8.00035C7.32812 8.3686 7.62666 8.66714 7.99492 8.66714Z" stroke="#737373" stroke-width="1.00019" stroke-linecap="round" stroke-linejoin="round"/>
<path d="M7.99492 3.9996C8.36318 3.9996 8.66171 3.70107 8.66171 3.33281C8.66171 2.96455 8.36318 2.66602 7.99492 2.66602C7.62666 2.66602 7.32812 2.96455 7.32812 3.33281C7.32812 3.70107 7.62666 3.9996 7.99492 3.9996Z" stroke="#737373" stroke-width="1.00019" stroke-linecap="round" stroke-linejoin="round"/>
<path d="M7.99492 13.3347C8.36318 13.3347 8.66171 13.0361 8.66171 12.6679C8.66171 12.2996 8.36318 12.0011 7.99492 12.0011C7.62666 12.0011 7.32812 12.2996 7.32812 12.6679C7.32812 13.0361 7.62666 13.3347 7.99492 13.3347Z" stroke="#737373" stroke-width="1.00019" stroke-linecap="round" stroke-linejoin="round"/>
</g>
</g>
</svg>
