<svg width="4" height="12" viewBox="0 0 4 12" fill="none" xmlns="http://www.w3.org/2000/svg">
<path d="M1.99935 1.33268L1.99935 1.33935M1.99935 5.99935L1.99935 6.00602M1.99935 10.666L1.99935 10.6727M1.99935 1.99935C1.63116 1.99935 1.33268 1.70087 1.33268 1.33268C1.33268 0.964492 1.63116 0.666016 1.99935 0.666016C2.36754 0.666016 2.66602 0.964492 2.66602 1.33268C2.66602 1.70087 2.36754 1.99935 1.99935 1.99935ZM1.99935 6.66602C1.63116 6.66602 1.33268 6.36754 1.33268 5.99935C1.33268 5.63116 1.63116 5.33268 1.99935 5.33268C2.36754 5.33268 2.66602 5.63116 2.66602 5.99935C2.66602 6.36754 2.36754 6.66602 1.99935 6.66602ZM1.99935 11.3327C1.63116 11.3327 1.33268 11.0342 1.33268 10.666C1.33268 10.2978 1.63116 9.99935 1.99935 9.99935C2.36754 9.99935 2.66602 10.2978 2.66602 10.666C2.66602 11.0342 2.36754 11.3327 1.99935 11.3327Z" stroke="#FAFAF9" stroke-linecap="round" stroke-linejoin="round"/>
</svg>
