<svg width="28" height="29" viewBox="0 0 28 29" fill="none" xmlns="http://www.w3.org/2000/svg">
<path d="M27.6719 14.13C27.6719 21.7761 21.4779 27.9769 13.8355 27.9769C6.19482 27.9769 0 21.7761 0 14.13C0 6.4813 6.19482 0.282227 13.8355 0.282227C21.4779 0.282227 27.6719 6.4813 27.6719 14.13Z" fill="white"/>
<path d="M2.03516 14.2637C2.03516 20.8546 7.37525 26.1974 13.959 26.1974C20.5444 26.1974 25.8837 20.8546 25.8837 14.2637C25.8837 7.67371 20.5444 2.33008 13.959 2.33008C7.37525 2.33008 2.03516 7.67371 2.03516 14.2637Z" fill="url(#paint0_radial_3448_53711)"/>
<path d="M8.9279 4.87388C8.00835 4.91193 7.1277 5.03476 6.24964 5.16536C3.76238 7.27929 2.1549 10.3931 2.04688 13.8883C2.7495 14.6287 3.67768 16.305 4.74847 17.2737C4.8902 17.2106 5.04403 17.157 5.20824 17.1068C4.68279 16.4962 3.94819 15.6866 3.83757 15.3138C3.29655 13.4879 3.92312 11.7787 5.27651 11.6438C6.4899 11.5219 7.53129 9.71498 8.38689 8.53C10.1465 6.09345 12.8507 6.49998 12.715 5.2804C12.5594 4.56769 12.1377 4.35059 11.601 4.35059C10.7938 4.34992 9.72904 4.84274 8.9279 4.87388Z" fill="url(#paint1_radial_3448_53711)"/>
<path d="M5.71657 16.9612C5.54027 17.0114 5.36915 17.0581 5.20581 17.1065C5.05889 17.1463 4.94481 17.2042 4.74604 17.2734C4.30874 17.4689 3.99156 17.7682 3.91724 18.4074C3.78415 19.5673 4.88604 20.4772 5.81423 20.7436C6.99218 21.0809 7.0907 20.6865 7.70863 21.522C8.13988 22.1059 8.22371 23.1897 8.44409 23.9024C8.56768 24.3011 8.73447 24.6973 8.93411 25.0856C9.77587 25.4774 10.6686 25.7758 11.6029 25.9627C11.8345 24.5883 11.7299 22.733 12.0367 21.9312C12.6667 20.2895 13.0219 19.5655 12.1724 17.8711C10.2987 17.3418 9.73093 17.174 7.84345 16.7865C7.45886 16.7078 7.21861 16.668 7.00255 16.668C6.66723 16.668 6.39067 16.764 5.71657 16.9612Z" fill="url(#paint2_radial_3448_53711)"/>
<path d="M17.314 7.44665C16.7618 8.23634 14.8242 8.45258 14.2028 9.34088C13.7188 10.0346 14.2192 11.3977 13.7975 12.184C13.603 12.5464 13.6929 13.5981 13.9297 13.9415C14.6755 15.0279 15.9157 14.4242 16.8482 14.8151C17.9864 15.2908 18.1169 16.6116 19.0606 17.5786C20.0061 18.5465 17.8542 20.0377 19.6112 23.5563C19.7987 23.9342 20.0173 24.211 20.2516 24.4005C21.4399 23.6609 22.4856 22.7181 23.3455 21.6205C23.6117 19.8431 23.0119 19.2748 23.7621 17.6478C24.2244 16.6445 25.0169 14.9077 25.8717 13.7296C25.7265 10.4342 24.2478 7.48643 21.961 5.41402C21.7467 5.47367 21.4736 5.48408 21.1011 5.41679C20.7813 5.35708 20.4935 5.33203 20.2325 5.33203C18.4686 5.33203 17.9432 6.54728 17.314 7.44682" fill="url(#paint3_radial_3448_53711)"/>
<path d="M12.5976 26.928C12.2026 26.7014 11.7074 26.3502 11.2451 26.044C11.0532 26.2136 10.8985 26.4627 10.7455 26.6625C11.2753 26.8441 11.9892 26.8597 12.5976 26.928ZM10.5122 25.5104C9.66611 24.8789 7.57294 22.8922 6.70524 21.6942C6.38634 21.8819 6.03114 22.3931 5.56964 22.4813C5.38815 22.5151 4.98024 22.5652 4.85924 22.5151C4.73911 22.4649 4.8869 22.2098 5.0174 22.0394C5.24296 21.7444 5.57224 21.3612 6.05448 20.9876C5.02258 19.4739 4.53256 18.3685 3.83081 16.5435C3.42548 16.7969 3.13078 17.0227 2.77731 17.3046C2.65804 17.3981 2.3305 17.4577 2.17148 17.315C1.88282 17.0555 1.8785 16.5997 2.28383 16.3108C2.45063 16.1915 3.2751 15.6215 3.46783 15.4606C2.96052 13.9971 2.53618 12.0734 2.42383 11.0762C2.08592 11.3702 1.61059 11.705 1.47663 11.7958C1.28478 11.8503 1.15601 11.7889 1.10069 11.7793C0.907969 13.8491 1.13008 16.1283 1.74541 18.186C2.80237 21.7245 5.76669 25.0986 9.76722 26.3537C9.86056 26.2144 10.3203 25.6816 10.5122 25.5104ZM2.30025 10.001C2.25012 9.23553 2.18876 8.18721 2.18876 8.18721C1.62701 9.41025 1.29083 10.1472 1.1344 11.5752C1.52763 10.8781 2.30025 10.001 2.30025 10.001ZM8.30321 1.24602C10.6271 0.283337 12.8888 -0.245145 15.5005 0.112078C15.7909 0.151866 15.7667 0.398376 15.4582 0.400969L15.0901 0.410516C12.9865 0.443384 9.89256 1.11199 8.292 2.01932C8.25833 3.08753 8.46053 4.78542 8.67486 6.12349C10.1294 5.51111 12.3781 4.88229 14.0858 4.6946C13.1162 3.66358 11.7973 2.68792 11.64 2.57461C11.4819 2.4613 11.4032 2.26842 11.4032 2.01932C11.4257 1.55398 11.825 1.49603 12.0393 1.55138C12.7497 1.41213 13.4567 1.25816 14.6605 1.29363C19.7483 1.07133 24.397 3.9516 26.1713 7.23581C30.6661 14.35 26.1726 24.1645 20.2876 26.7784C17.7709 27.8968 15.6121 28.3785 11.6331 27.8233C7.64642 27.2662 4.3874 25.3158 1.85606 21.2159C-1.26209 16.1638 0.493166 10.2778 0.931332 9.04354C2.80845 4.61329 5.88509 2.26579 8.30321 1.24602ZM3.04352 6.62948C2.97528 7.16229 3.04629 8.14573 3.18007 9.32033C4.26208 8.35159 6.35266 7.0879 8.10014 6.31637C7.89791 4.98349 7.68272 2.85745 7.70519 2.29178C6.08907 3.17921 4.31481 4.96359 3.015 6.79296M3.28118 10.392C3.43415 11.4481 3.94059 13.7255 4.39691 14.8811C5.47979 14.0654 7.93076 12.5518 9.31784 11.9394C8.83301 10.1706 8.50633 9.05392 8.23496 7.26868C6.27402 8.14141 4.20073 9.49764 3.28118 10.392ZM4.81952 15.9026C5.46251 17.738 6.08389 19.1383 6.8954 20.2939C7.84433 19.4679 9.79058 18.1635 11.2788 17.45C10.7888 16.3956 10.081 14.4244 9.58835 12.9479C7.67148 13.8898 6.24032 14.8075 4.81952 15.9026ZM7.5021 21.0957C8.51066 22.3905 10.0905 24.0339 11.1898 24.9421C12.2303 24.1049 13.4091 23.3229 14.39 22.8464C13.544 21.5334 12.2934 19.6262 11.7697 18.4533C9.89256 19.2862 8.82697 19.9842 7.5021 21.0957ZM11.8371 25.5138C12.2372 25.9186 13.8231 26.9695 13.8231 26.9695C14.8783 27.0154 16.211 26.8908 17.1625 26.7248C16.6379 26.1254 15.3277 24.2692 14.9302 23.6447C13.9156 24.0702 12.6313 24.8539 11.8371 25.5138ZM18.2739 26.454C18.8089 26.2819 20.1709 25.6635 20.4544 25.4767C20.5218 24.3773 20.5106 23.1292 20.4656 22.3819C19.0336 22.3819 17.0165 22.8014 15.861 23.2857C16.5316 24.3661 17.4563 25.5562 18.2739 26.454ZM21.2097 25.0693C22.2848 24.3981 23.2951 23.6265 24.028 22.6984C23.3971 22.5402 21.9875 22.3481 21.2884 22.3931C21.2884 22.3931 21.2659 24.0703 21.2097 25.0693ZM24.3659 22.2677C24.569 22.0644 24.8732 21.6337 24.9916 21.3829C25.11 20.3631 25.1135 18.2725 25.0703 17.6627C23.8413 17.1637 21.9426 16.7692 20.5555 16.6672C21.0066 18.3236 21.2322 20.7601 21.2659 21.5541C21.9314 21.6216 23.6106 21.9624 24.3659 22.2677ZM26.1696 17.5399C26.1134 17.7328 25.7746 17.9265 25.6165 17.8781C25.6398 18.2206 25.5602 19.9228 25.4704 20.5793C25.7063 20.0941 26.1575 18.8892 26.2931 18.3798L26.4841 17.6316C26.6743 16.995 27.2905 14.7972 26.7322 11.9057C26.1134 8.69324 24.9519 7.54632 24.5457 7.036C23.5138 6.47465 21.953 5.9652 21.953 5.9652C23.3677 7.88192 23.8577 8.78406 24.7038 11.0667C25.1947 11.3218 26.0849 11.8157 26.1955 11.9515C26.2854 12.0579 26.2862 12.2499 26.0071 12.2456C25.7746 12.2442 25.3235 12.0216 24.9743 11.9281C25.3459 13.1719 25.6337 15.4943 25.6121 17.0504C25.6121 17.0504 26.2257 17.3479 26.1696 17.5399ZM23.8024 5.9652C21.8406 3.56065 17.4002 1.51505 12.4568 1.82298C13.5613 2.55212 14.4808 3.65234 15.2863 4.5588C16.5204 4.44549 19.1131 4.64962 20.088 4.91948C19.922 4.72314 19.7181 4.52853 19.6653 4.41262C19.5271 4.11508 19.8598 4.05107 20.1268 4.22147C20.4656 4.43771 20.8554 4.69633 21.1648 5.01203C21.7378 5.14091 23.1482 5.62441 23.8024 5.9652ZM25.059 16.8073C24.9743 15.2565 24.7375 13.1849 24.1628 11.743C22.6409 11.1315 20.5616 10.7492 18.7354 10.7319C19.2989 12.0466 19.954 14.2445 20.2738 15.6587C21.5926 15.8169 23.6555 16.1906 25.059 16.8073ZM20.7811 5.71523C19.4061 5.46613 17.4002 5.30698 15.912 5.39693C16.9266 6.80333 17.6707 8.0281 18.369 9.77356C20.2513 9.82026 22.8094 10.3825 23.8586 10.7951C23.2329 9.12485 22.0437 7.004 20.7811 5.71523ZM12.1578 17.0417C14.4013 16.0098 16.8644 15.5453 19.3438 15.6128C18.6672 13.2662 18.2791 12.1772 17.7035 10.7492C14.9484 10.8686 12.5976 11.5484 10.4561 12.5639C10.4561 12.5639 11.2451 15.1025 12.1578 17.0417ZM19.5979 16.5997C16.7909 16.566 14.3408 17.238 12.6659 18.0623C13.3755 19.5924 14.779 21.6181 15.3036 22.4528C16.2162 22.1129 17.1971 21.8577 17.9576 21.7384C18.719 21.6199 19.7328 21.5083 20.4207 21.5204C20.2962 19.7395 20.088 18.5381 19.5979 16.5997ZM10.138 11.5986C12.1673 10.7362 14.3667 10.046 17.3319 9.79691C16.5766 7.98312 15.7426 6.70214 14.7617 5.52841C12.576 5.70399 10.5805 6.29388 8.85552 7.00746C9.10874 8.35159 9.58839 9.97769 10.138 11.5986Z" fill="black"/>
<defs>
<radialGradient id="paint0_radial_3448_53711" cx="0" cy="0" r="1" gradientUnits="userSpaceOnUse" gradientTransform="translate(10.1429 12.05) scale(8.45608 8.46305)">
<stop stop-color="#B9E0F7"/>
<stop offset="1" stop-color="#007AC2"/>
</radialGradient>
<radialGradient id="paint1_radial_3448_53711" cx="0" cy="0" r="1" gradientUnits="userSpaceOnUse" gradientTransform="translate(9.67455 12.1679) scale(10.3742 10.3827)">
<stop stop-color="#B2D234"/>
<stop offset="0.960678" stop-color="#009E46"/>
<stop offset="1" stop-color="#009E46"/>
</radialGradient>
<radialGradient id="paint2_radial_3448_53711" cx="0" cy="0" r="1" gradientUnits="userSpaceOnUse" gradientTransform="translate(12.2944 11.4897) scale(13.1855 13.1964)">
<stop stop-color="#B2D234"/>
<stop offset="0.960678" stop-color="#009E46"/>
<stop offset="1" stop-color="#009E46"/>
</radialGradient>
<radialGradient id="paint3_radial_3448_53711" cx="0" cy="0" r="1" gradientUnits="userSpaceOnUse" gradientTransform="translate(13.2632 5.85854) scale(17.4287 17.4431)">
<stop stop-color="#B2D234"/>
<stop offset="0.960678" stop-color="#009E46"/>
<stop offset="1" stop-color="#009E46"/>
</radialGradient>
</defs>
</svg>
