<?xml version="1.0" encoding="utf-8"?>
<!-- Generator: Adobe Illustrator 26.5.0, SVG Export Plug-In . SVG Version: 6.00 Build 0)  -->
<svg version="1.1" id="Layer_1" xmlns="http://www.w3.org/2000/svg" xmlns:xlink="http://www.w3.org/1999/xlink" x="0px" y="0px"
	 viewBox="0 0 530 530" style="enable-background:new 0 0 530 530;" xml:space="preserve">
<style type="text/css">
	.st0{fill:#FF0000;}
	.st1{fill:#FFDDCC;}
	.st2{fill:#FFB399;}
	.st3{fill:#FF503F;}
</style>
<g id="Group_165975" transform="translate(-681.419 -2079.232)">
	<path class="st0" d="M1091.7,2239.9c-3.1,0-6.1-1.2-8.5-3.5c-4.7-4.7-4.7-12.3,0-17l63.3-63.3c4.7-4.7,12.3-4.7,17,0
		c4.7,4.7,4.7,12.3,0,17l-63.3,63.3C1097.8,2238.7,1094.8,2239.9,1091.7,2239.9z"/>
	<path class="st0" d="M1194,2325.4h-84.6c-6.6,0-12-5.4-12-12s5.4-12,12-12h84.6c6.6,0,12,5.4,12,12S1200.6,2325.4,1194,2325.4z"/>
	<path class="st0" d="M993.5,2193.3c-6.6,0-12-5.4-12-12v-84.6c0-6.6,5.4-12,12-12s12,5.4,12,12v84.6
		C1005.5,2187.9,1000.1,2193.3,993.5,2193.3z"/>
</g>
<circle class="st1" cx="208.4" cy="318.6" r="205"/>
<circle class="st2" cx="208.4" cy="318.6" r="173"/>
<circle class="st3" cx="208.4" cy="318.6" r="141"/>
<circle class="st0" cx="208.4" cy="318.6" r="93"/>
</svg>
