<?xml version="1.0" encoding="utf-8"?>
<!-- Generator: Adobe Illustrator 26.5.0, SVG Export Plug-In . SVG Version: 6.00 Build 0)  -->
<svg version="1.1" id="Layer_1" xmlns="http://www.w3.org/2000/svg" xmlns:xlink="http://www.w3.org/1999/xlink" x="0px" y="0px"
	 viewBox="0 0 530 530" style="enable-background:new 0 0 530 530;" xml:space="preserve">
<style type="text/css">
	.st0{fill:#A224B9;}
	.st1{fill:#FBD2F5;}
	.st2{fill:#F8A8F1;}
	.st3{fill:#CB54D5;}
</style>
<g id="Group_165975" transform="translate(-681.419 -2079.232)">
	<path class="st0" d="M1097.1,2234.5c-3.1,0-6.1-1.2-8.5-3.5c-4.7-4.7-4.7-12.3,0-17l63.3-63.3c4.7-4.7,12.3-4.7,17,0
		c4.7,4.7,4.7,12.3,0,17l-63.3,63.3C1103.3,2233.3,1100.2,2234.5,1097.1,2234.5z"/>
	<path class="st0" d="M1199.4,2320h-84.6c-6.6,0-12-5.4-12-12s5.4-12,12-12h84.6c6.6,0,12,5.4,12,12S1206,2320,1199.4,2320z"/>
	<path class="st0" d="M998.9,2187.8c-6.6,0-12-5.4-12-12v-84.6c0-6.6,5.4-12,12-12s12,5.4,12,12v84.6
		C1010.9,2182.5,1005.5,2187.8,998.9,2187.8z"/>
</g>
<circle class="st1" cx="213.9" cy="313.1" r="205"/>
<circle class="st2" cx="213.9" cy="313.1" r="173"/>
<circle class="st3" cx="213.9" cy="313.1" r="141"/>
<circle class="st0" cx="213.9" cy="313.1" r="93"/>
</svg>
