<svg width="25" height="24" viewBox="0 0 25 24" fill="none" xmlns="http://www.w3.org/2000/svg">
<g id="grid-01">
<g id="Icon">
<path d="M8.56406 3H4.76406C4.20401 3 3.92398 3 3.71007 3.10899C3.52191 3.20487 3.36893 3.35785 3.27306 3.54601C3.16406 3.75992 3.16406 4.03995 3.16406 4.6V8.4C3.16406 8.96005 3.16406 9.24008 3.27306 9.45399C3.36893 9.64215 3.52191 9.79513 3.71007 9.89101C3.92398 10 4.20401 10 4.76406 10H8.56406C9.12411 10 9.40414 10 9.61805 9.89101C9.80622 9.79513 9.9592 9.64215 10.0551 9.45399C10.1641 9.24008 10.1641 8.96005 10.1641 8.4V4.6C10.1641 4.03995 10.1641 3.75992 10.0551 3.54601C9.9592 3.35785 9.80622 3.20487 9.61805 3.10899C9.40414 3 9.12411 3 8.56406 3Z" stroke="#D4D4D4" stroke-width="1.5" stroke-linecap="round" stroke-linejoin="round"/>
<path d="M19.5641 3H15.7641C15.204 3 14.924 3 14.7101 3.10899C14.5219 3.20487 14.3689 3.35785 14.2731 3.54601C14.1641 3.75992 14.1641 4.03995 14.1641 4.6V8.4C14.1641 8.96005 14.1641 9.24008 14.2731 9.45399C14.3689 9.64215 14.5219 9.79513 14.7101 9.89101C14.924 10 15.204 10 15.7641 10H19.5641C20.1241 10 20.4041 10 20.6181 9.89101C20.8062 9.79513 20.9592 9.64215 21.0551 9.45399C21.1641 9.24008 21.1641 8.96005 21.1641 8.4V4.6C21.1641 4.03995 21.1641 3.75992 21.0551 3.54601C20.9592 3.35785 20.8062 3.20487 20.6181 3.10899C20.4041 3 20.1241 3 19.5641 3Z" stroke="#D4D4D4" stroke-width="1.5" stroke-linecap="round" stroke-linejoin="round"/>
<path d="M19.5641 14H15.7641C15.204 14 14.924 14 14.7101 14.109C14.5219 14.2049 14.3689 14.3578 14.2731 14.546C14.1641 14.7599 14.1641 15.0399 14.1641 15.6V19.4C14.1641 19.9601 14.1641 20.2401 14.2731 20.454C14.3689 20.6422 14.5219 20.7951 14.7101 20.891C14.924 21 15.204 21 15.7641 21H19.5641C20.1241 21 20.4041 21 20.6181 20.891C20.8062 20.7951 20.9592 20.6422 21.0551 20.454C21.1641 20.2401 21.1641 19.9601 21.1641 19.4V15.6C21.1641 15.0399 21.1641 14.7599 21.0551 14.546C20.9592 14.3578 20.8062 14.2049 20.6181 14.109C20.4041 14 20.1241 14 19.5641 14Z" stroke="#D4D4D4" stroke-width="1.5" stroke-linecap="round" stroke-linejoin="round"/>
<path d="M8.56406 14H4.76406C4.20401 14 3.92398 14 3.71007 14.109C3.52191 14.2049 3.36893 14.3578 3.27306 14.546C3.16406 14.7599 3.16406 15.0399 3.16406 15.6V19.4C3.16406 19.9601 3.16406 20.2401 3.27306 20.454C3.36893 20.6422 3.52191 20.7951 3.71007 20.891C3.92398 21 4.20401 21 4.76406 21H8.56406C9.12411 21 9.40414 21 9.61805 20.891C9.80622 20.7951 9.9592 20.6422 10.0551 20.454C10.1641 20.2401 10.1641 19.9601 10.1641 19.4V15.6C10.1641 15.0399 10.1641 14.7599 10.0551 14.546C9.9592 14.3578 9.80622 14.2049 9.61805 14.109C9.40414 14 9.12411 14 8.56406 14Z" stroke="#D4D4D4" stroke-width="1.5" stroke-linecap="round" stroke-linejoin="round"/>
</g>
</g>
</svg>
