<svg width="25" height="24" viewBox="0 0 25 24" fill="none" xmlns="http://www.w3.org/2000/svg">
<g id="hand">
<path id="Icon" d="M7.06406 11.4444V14.2222M7.06406 11.4444V4.77778C7.06406 3.8573 7.82518 3.11111 8.76406 3.11111C9.70295 3.11111 10.4641 3.8573 10.4641 4.77778M7.06406 11.4444C7.06406 10.524 6.30295 9.77778 5.36406 9.77778C4.42518 9.77778 3.66406 10.524 3.66406 11.4444V13.6667C3.66406 18.269 7.46964 22 12.1641 22C16.8585 22 20.6641 18.269 20.6641 13.6667V8.11111C20.6641 7.19064 19.9029 6.44444 18.9641 6.44444C18.0252 6.44444 17.2641 7.19064 17.2641 8.11111M10.4641 4.77778V10.8889M10.4641 4.77778V3.66667C10.4641 2.74619 11.2252 2 12.1641 2C13.1029 2 13.8641 2.74619 13.8641 3.66667V4.77778M13.8641 4.77778V10.8889M13.8641 4.77778C13.8641 3.8573 14.6252 3.11111 15.5641 3.11111C16.5029 3.11111 17.2641 3.8573 17.2641 4.77778V8.11111M17.2641 8.11111V10.8889" stroke="#D4D4D4" stroke-width="1.5" stroke-linecap="round" stroke-linejoin="round"/>
</g>
</svg>
