<svg width="13" height="20" viewBox="0 0 13 20" fill="none" xmlns="http://www.w3.org/2000/svg">
<g id="Icon">
<g id="_18">
<path id="&#216;&#185;" d="M7.44031 19.8798C6.54698 19.8798 5.67365 19.7732 4.82031 19.5598C3.98031 19.3465 3.22031 19.0065 2.54031 18.5398C1.86031 18.0865 1.32031 17.4998 0.920313 16.7798C0.520312 16.0598 0.320312 15.1932 0.320312 14.1798C0.320312 13.0865 0.540312 12.0865 0.980312 11.1798C1.42031 10.2598 2.04031 9.44651 2.84031 8.73984C3.64031 8.03318 4.58698 7.44651 5.68031 6.97984C6.78698 6.49984 7.99365 6.15984 9.30031 5.95984L9.96031 8.59984C8.78698 8.81318 7.76698 9.09318 6.90031 9.43985C6.04698 9.78651 5.34031 10.1932 4.78031 10.6598C4.22031 11.1265 3.80031 11.6265 3.52031 12.1598C3.25365 12.7065 3.12031 13.2798 3.12031 13.8798C3.12031 14.3598 3.20698 14.7798 3.38031 15.1398C3.56698 15.4998 3.81365 15.7998 4.12031 16.0398C4.42698 16.2932 4.76698 16.4932 5.14031 16.6398C5.51365 16.7998 5.90031 16.9132 6.30031 16.9798C6.70031 17.0465 7.08031 17.0798 7.44031 17.0798C8.36031 17.0798 9.21365 16.9932 10.0003 16.8198C10.8003 16.6465 11.5003 16.4332 12.1003 16.1798L12.9003 18.7598C12.5803 18.9198 12.127 19.0865 11.5403 19.2598C10.967 19.4332 10.3203 19.5798 9.60031 19.6998C8.89365 19.8198 8.17365 19.8798 7.44031 19.8798ZM3.46031 8.79984C2.99365 8.61318 2.56031 8.34651 2.16031 7.99984C1.77365 7.65318 1.46031 7.22651 1.22031 6.71984C0.993646 6.19984 0.880313 5.60651 0.880313 4.93984C0.880313 4.09984 1.10031 3.37318 1.54031 2.75984C1.98031 2.14651 2.56698 1.67318 3.30031 1.33984C4.03365 1.00651 4.83365 0.839844 5.70031 0.839844C6.12698 0.839844 6.52031 0.866511 6.88031 0.919844C7.25365 0.973178 7.63365 1.05318 8.02031 1.15984L7.58031 3.81984C7.30031 3.75318 7.01365 3.69984 6.72031 3.65984C6.42698 3.61984 6.16698 3.59984 5.94031 3.59984C5.47365 3.59984 5.06698 3.66651 4.72031 3.79984C4.38698 3.93318 4.12698 4.12651 3.94031 4.37984C3.76698 4.61984 3.68031 4.90651 3.68031 5.23984C3.68031 5.50651 3.76031 5.75984 3.92031 5.99984C4.09365 6.23984 4.31365 6.45318 4.58031 6.63984C4.84698 6.81318 5.14031 6.95984 5.46031 7.07984C5.78031 7.18651 6.09365 7.24651 6.40031 7.25984L3.46031 8.79984Z" fill="#4A5382"/>
</g>
</g>
</svg>
