<svg width="20" height="16" viewBox="0 0 20 16" fill="none" xmlns="http://www.w3.org/2000/svg">
<path d="M1.66797 10.083L9.70316 14.1006C9.81248 14.1552 9.86714 14.1826 9.92447 14.1933C9.97525 14.2028 10.0274 14.2028 10.0781 14.1933C10.1355 14.1826 10.1901 14.1552 10.2994 14.1006L18.3346 10.083M1.66797 5.91631L9.70316 1.89872C9.81248 1.84406 9.86714 1.81673 9.92447 1.80597C9.97525 1.79645 10.0274 1.79645 10.0781 1.80597C10.1355 1.81673 10.1901 1.84406 10.2994 1.89872L18.3346 5.91631L10.2994 9.93391C10.1901 9.98857 10.1355 10.0159 10.0781 10.0267C10.0274 10.0362 9.97525 10.0362 9.92447 10.0267C9.86714 10.0159 9.81248 9.98857 9.70316 9.93391L1.66797 5.91631Z" stroke="#DDDAF1" stroke-width="1.67" stroke-linecap="round" stroke-linejoin="round"/>
</svg>
