<svg width="20" height="20" viewBox="0 0 20 20" fill="none" xmlns="http://www.w3.org/2000/svg">
<g id="layers-two-01">
<path id="Icon" d="M1.66797 12.083L9.70316 16.1006C9.81248 16.1552 9.86714 16.1826 9.92447 16.1933C9.97525 16.2028 10.0274 16.2028 10.0781 16.1933C10.1355 16.1826 10.1901 16.1552 10.2994 16.1006L18.3346 12.083M1.66797 7.91631L9.70316 3.89872C9.81248 3.84406 9.86714 3.81673 9.92447 3.80597C9.97525 3.79645 10.0274 3.79645 10.0781 3.80597C10.1355 3.81673 10.1901 3.84406 10.2994 3.89872L18.3346 7.91631L10.2994 11.9339C10.1901 11.9886 10.1355 12.0159 10.0781 12.0267C10.0274 12.0362 9.97525 12.0362 9.92447 12.0267C9.86714 12.0159 9.81248 11.9886 9.70316 11.9339L1.66797 7.91631Z" stroke="#78716C" stroke-width="1.67" stroke-linecap="round" stroke-linejoin="round"/>
</g>
</svg>
