<svg width="25" height="24" viewBox="0 0 25 24" fill="none" xmlns="http://www.w3.org/2000/svg">
<g id="layers-three-01">
<path id="Icon" d="M2.16406 11.9996L11.8063 16.8207C11.9375 16.8863 12.0031 16.9191 12.0719 16.932C12.1328 16.9434 12.1953 16.9434 12.2563 16.932C12.3251 16.9191 12.3907 16.8863 12.5218 16.8207L22.1641 11.9996M2.16406 16.9996L11.8063 21.8207C11.9375 21.8863 12.0031 21.9191 12.0719 21.932C12.1328 21.9434 12.1953 21.9434 12.2563 21.932C12.3251 21.9191 12.3907 21.8863 12.5218 21.8207L22.1641 16.9996M2.16406 6.99958L11.8063 2.17846C11.9375 2.11287 12.0031 2.08008 12.0719 2.06717C12.1328 2.05574 12.1953 2.05574 12.2563 2.06717C12.3251 2.08008 12.3907 2.11287 12.5218 2.17846L22.1641 6.99958L12.5218 11.8207C12.3907 11.8863 12.3251 11.9191 12.2563 11.932C12.1953 11.9434 12.1328 11.9434 12.0719 11.932C12.0031 11.9191 11.9375 11.8863 11.8063 11.8207L2.16406 6.99958Z" stroke="#D4D4D4" stroke-width="1.5" stroke-linecap="round" stroke-linejoin="round"/>
</g>
</svg>
