<svg width="259" height="43" viewBox="0 0 259 43" fill="none" xmlns="http://www.w3.org/2000/svg">
<g clip-path="url(#clip0_4821_10463)">
<path d="M19 0L0 10.7519V32.2519L19 43L38 32.2519V10.7519L19 0Z" fill="#73390F"/>
<path opacity="0.05" d="M19 0V21.6761L0 32.2519V10.7519L19 0Z" fill="url(#paint0_linear_4821_10463)"/>
<path d="M27.7053 14.7211L27.7046 14.7189C27.6795 14.6161 27.575 14.541 27.4709 14.5014C27.3639 14.4518 24.4376 13.5355 24.1336 13.4362C23.8322 13.3226 23.8322 13.2784 23.5115 13.3996C23.3506 13.4384 23.2185 13.5409 23.0725 13.6164C22.9626 13.6631 22.853 13.6897 22.7482 13.7537C21.5647 14.2411 20.3951 14.7757 19.2121 15.274C19.1487 15.2941 19.0526 15.3512 18.9977 15.339C17.6799 14.7768 15.3943 13.7526 14.2742 13.291C13.9753 13.3838 11.3435 14.2541 10.3792 14.5672C10.3577 14.5748 10.3483 14.5952 10.3421 14.6168C10.3097 14.738 10.2369 30.5361 10.3705 30.6446C10.444 30.7007 10.4935 30.7133 10.5656 30.6791C10.6377 30.6536 14.3546 29.3372 14.3623 29.34C14.3747 29.3451 14.4009 29.3569 14.4413 29.3746C15.5563 29.8656 19.1302 31.2906 19.2336 31.2727C19.7097 31.1235 23.7317 29.3246 23.7758 29.3429C24.079 29.4457 27.0388 30.5817 27.421 30.7068C27.5099 30.7259 27.6293 30.7104 27.6788 30.6231C27.6984 30.5932 27.7097 21.798 27.7108 17.3906C27.7046 15.8405 27.7217 14.903 27.7046 14.7211H27.7053ZM19.3013 15.7952C19.3162 15.7046 19.3661 15.6989 19.4472 15.6626C20.3908 15.2391 22.3656 14.3616 23.4445 13.8788C23.4864 13.8727 23.5424 13.941 23.5497 13.9838C23.5505 14.2447 23.5497 16.8485 23.5497 17.9482C23.5403 18.0273 23.5461 18.1139 23.5497 18.1973C23.5497 18.261 23.5497 18.3131 23.5497 18.3523C23.5468 18.3907 23.5508 18.4112 23.5217 18.4105C22.5239 18.2383 19.6769 17.7419 19.3093 17.6786C19.2652 17.6746 19.2918 17.6027 19.2867 17.5697C19.2987 17.0833 19.2252 16.0954 19.3016 15.7952H19.3013ZM14.4966 13.8673V13.8662C14.4977 13.85 14.4999 13.8414 14.5039 13.8385C14.5061 13.8367 14.509 13.8371 14.5123 13.8382C15.5523 14.3123 18.578 15.6306 18.8128 15.7661C18.8175 17.0772 18.8237 20.8072 18.8255 21.2163C18.8255 21.2203 18.8251 21.2239 18.823 21.2271C18.8182 21.2346 18.8037 21.2418 18.7742 21.2523C18.5226 21.3281 18.2933 21.4489 18.0825 21.6038C18.0541 21.6225 18.0392 21.6355 18.0134 21.6463C17.993 21.6542 17.9857 21.6448 17.9686 21.633C17.2133 21.0934 15.6906 20.0056 14.8814 19.4271C14.8541 19.4048 14.8821 19.3466 14.8868 19.3103C14.9436 19.0885 14.9615 18.848 14.9068 18.647C14.8603 18.4677 14.7616 18.3052 14.6 18.1657C14.5443 18.1168 14.4904 18.0607 14.4689 17.9895C14.3455 16.6256 14.5297 15.2384 14.4959 13.8676L14.4966 13.8673ZM14.4999 18.8699C14.5268 19.1769 14.3259 19.435 14.0044 19.4613H14.0019C13.2145 19.5321 13.1512 18.3613 13.9564 18.3386C14.2618 18.3249 14.4817 18.5859 14.5002 18.8699H14.4999ZM10.7305 14.9634C10.7276 14.9274 10.7574 14.9342 10.7913 14.9191C11.6285 14.6438 13.1577 14.1218 14.0347 13.8382C14.0256 14.697 14.0682 17.662 14.0197 17.886C13.8173 17.9087 13.5665 17.9586 13.3991 18.0762C13.2389 18.1747 13.0995 18.3397 13.011 18.4993C12.9808 18.5464 12.9688 18.5712 12.9211 18.5636C12.6394 18.5277 11.3093 18.3587 10.7643 18.2894C10.7538 18.2879 10.7421 18.2876 10.7367 18.2789C10.7348 18.2739 10.7345 18.2678 10.7345 18.2613C10.7356 17.7699 10.7316 16.9639 10.7323 16.4002C10.7308 16.0203 10.7312 15.0755 10.7305 14.963V14.9634ZM14.1515 28.781C14.1515 28.8418 14.1515 28.8702 14.145 28.8831C13.8789 28.9993 11.0646 30.0331 10.7363 30.1496C10.7283 29.655 10.7363 24.9834 10.7345 24.6218C10.7338 24.6128 10.7436 24.6074 10.752 24.6034C10.7709 24.5948 10.8142 24.5761 10.8786 24.5477C11.4439 24.323 13.2771 23.4498 13.6171 23.3715C13.6437 23.3873 13.7118 23.4653 13.7544 23.5066C13.8712 23.6253 14.0139 23.7126 14.149 23.7525C14.7383 23.9337 15.3724 23.406 15.4005 22.8283C15.4198 22.5533 15.2683 22.2779 15.0441 22.105C14.4012 21.5496 13.449 22.0424 13.4042 22.8531C13.3947 22.9113 13.3765 22.9606 13.3405 22.9961C13.3092 23.0278 13.2713 23.0458 13.2284 23.0626C12.4475 23.3466 11.7042 23.7475 10.9234 24.0142C10.8575 24.0326 10.7498 24.0829 10.7356 24.0559C10.7312 23.8445 10.7367 22.509 10.7345 21.207C10.7294 20.429 10.7381 19.3081 10.7345 18.7499C10.7312 18.7215 10.7654 18.7362 10.7862 18.7366C11.0588 18.775 12.3005 18.9271 12.8163 18.9954C12.86 19.0011 12.8862 19.0011 12.9055 19.0238C12.9397 19.0687 12.9554 19.1478 12.9816 19.2086C13.2036 19.7963 13.8665 20.062 14.4358 19.7737C14.4962 19.7492 14.5359 19.7136 14.577 19.7323C15.3448 20.2802 17.4211 21.7476 17.7851 22.0223C17.795 22.0327 17.7804 22.078 17.772 22.1039C17.7564 22.1499 17.7302 22.2171 17.7138 22.2815C17.6501 22.5223 17.7407 22.8222 17.7094 23.0468C17.697 23.1144 17.6949 23.1353 17.6574 23.164C17.3418 23.3668 15.6323 24.4639 14.9076 24.9291C14.8544 24.9611 14.8289 24.9848 14.7794 25.0068C14.6418 25.038 14.541 24.9385 14.4071 24.8957C14.1515 24.804 13.8141 24.8224 13.6077 24.9309C13.0398 25.2045 12.904 26.0482 13.3256 26.494C13.5301 26.7158 13.8468 26.7963 14.145 26.7794C14.1475 26.7794 14.1497 26.7794 14.1522 26.7794C14.1515 27.3186 14.153 28.6218 14.1522 28.7818L14.1515 28.781ZM14.3663 22.288H14.3688C14.5206 22.2711 14.691 22.3264 14.7893 22.4325C15.075 22.729 14.968 23.2827 14.5192 23.3431C13.7471 23.4818 13.6437 22.3753 14.3666 22.288H14.3663ZM14.1198 26.3825H14.1173C13.8039 26.4192 13.5574 26.1848 13.5225 25.8922C13.4814 25.6129 13.6397 25.3375 13.9309 25.2757C14.7176 25.0866 14.9065 26.3031 14.1198 26.3822V26.3825ZM18.8193 30.7701C18.5783 30.6662 14.8901 29.0758 14.6135 28.9414C14.6076 28.9306 14.6073 28.9065 14.6073 28.8501C14.6073 28.6905 14.6073 26.9678 14.6073 26.6478C14.9604 26.4365 15.1242 25.9975 15.0343 25.5374C15.0299 25.4648 15.0248 25.404 15.0608 25.3458C15.0867 25.3138 15.1293 25.2954 15.1642 25.2706C15.834 24.8425 17.5835 23.6943 17.9471 23.4739C18.0844 23.4592 18.1921 23.6048 18.3039 23.6709C18.4498 23.7637 18.6428 23.8223 18.7818 23.9125C18.812 23.9348 18.8215 23.9391 18.8222 23.9596C18.8259 24.2939 18.8233 29.2376 18.8193 30.7701ZM18.9227 21.6696H18.9252C19.4396 21.5851 19.8579 21.9249 19.9372 22.4044C20.0235 22.8649 19.7719 23.3402 19.2823 23.4365C17.9864 23.7281 17.6763 21.8695 18.9227 21.6696ZM23.4613 28.9716C23.1697 29.0809 19.5528 30.6971 19.2845 30.7629C19.2791 30.7457 19.286 30.6561 19.2831 30.6134C19.2787 30.4196 19.2321 28.822 19.2456 28.7408C19.259 28.6725 19.3286 28.6096 19.3897 28.5869C19.7275 28.4931 22.363 27.7766 23.3532 27.5059C23.4143 27.4858 23.4722 27.4617 23.5333 27.4373C23.4332 27.9686 23.4835 28.9576 23.4616 28.9712L23.4613 28.9716ZM23.5486 27.0005C22.5064 27.2852 19.4731 28.1404 19.274 28.1829C19.2696 27.7691 19.274 27.4074 19.2725 26.8409C19.2725 25.6808 19.2725 24.1591 19.2725 23.9592C19.2732 23.9344 19.2838 23.9276 19.3129 23.9046C19.5244 23.7716 19.6547 23.8197 19.8655 23.6166C19.9146 23.576 20.0486 23.448 20.0937 23.4937C20.3533 23.681 22.8938 25.4788 23.7674 26.1093C23.8104 26.1744 23.5727 26.9933 23.5486 27.0001V27.0005ZM27.2503 30.1219C27.2474 30.1439 27.242 30.1521 27.2321 30.1511C26.9293 30.0454 24.2752 29.0801 23.9854 28.9766C23.9541 28.9629 23.9643 27.6947 23.9403 27.4053C23.949 27.4125 23.9578 27.42 23.9669 27.4286C24.0455 27.5009 24.1402 27.571 24.241 27.6141C24.5926 27.7907 24.9727 27.7493 25.2875 27.5146C25.4066 27.4322 25.4888 27.3014 25.6122 27.2406C25.6476 27.2266 25.6858 27.2572 25.7313 27.2769C26.1109 27.465 26.9926 27.8902 27.2096 28.0013C27.2594 28.0373 27.2507 30.1216 27.2507 30.1216L27.2503 30.1219ZM24.5773 26.1668C24.9188 26.1039 25.202 26.3394 25.2446 26.6687C25.2883 26.9743 25.0946 27.2428 24.7685 27.2809H24.7659C24.0058 27.4024 23.8792 26.293 24.5773 26.1668ZM27.2394 27.5577C26.9369 27.3237 26.1859 27.0659 25.8281 26.8919C25.6603 26.8333 25.7335 26.6367 25.6825 26.503C25.6031 26.2312 25.4211 25.9842 25.1838 25.8465C24.771 25.6143 24.5329 25.7531 24.1442 25.848C23.4747 25.3925 20.8873 23.6137 20.3435 23.1292C20.2787 23.031 20.3784 22.8002 20.3926 22.6672C20.4334 22.5475 20.3788 22.3505 20.4607 22.2617C21.319 21.8638 22.8737 21.345 23.5028 21.0603C23.6611 21.0729 23.7692 21.2735 23.9498 21.326C25.6173 21.9342 25.9155 19.3502 24.2606 19.5163C23.842 19.5839 23.4806 19.925 23.4296 20.3496C23.4023 20.4625 23.466 20.6293 23.3277 20.6598C22.7391 20.8151 20.6328 21.8163 20.2554 21.8738C20.1978 21.8864 20.1807 21.8296 20.1454 21.7857C20.1054 21.7282 20.0552 21.6664 20.002 21.6182C19.8338 21.4669 19.6646 21.3651 19.4549 21.2882C19.3504 21.2569 19.2689 21.1782 19.2765 21.0635C19.2791 20.1501 19.2754 19.2366 19.2707 18.3239C19.2685 18.2512 19.2783 18.1452 19.3362 18.1139H19.3369C19.7701 18.1556 22.414 18.6452 23.5155 18.825C23.8442 18.8901 26.3137 19.4724 27.0792 19.6482C27.1681 19.6748 27.2511 19.6727 27.2518 19.7029C27.2572 19.9754 27.2492 25.6661 27.2536 27.4222C27.2514 27.511 27.2638 27.5778 27.2398 27.5581L27.2394 27.5577ZM24.043 20.0915C24.2563 19.9002 24.5733 19.8898 24.7819 20.1026L24.7837 20.1044C25.3036 20.6253 24.3982 21.3741 23.9469 20.7803C23.7725 20.5624 23.8413 20.2644 24.043 20.0915ZM27.3108 18.9584V18.9605C27.2925 19.0608 27.3006 19.2593 27.1695 19.2416C26.5536 19.0676 24.3739 18.7308 24.0138 18.5115C23.9905 18.3756 24.0142 18.106 23.9793 17.9119C24.0437 16.7346 23.9221 14.8037 23.9916 13.9963C23.9942 13.9449 24.0051 13.8712 24.0521 13.8551C24.0866 13.8403 24.1456 13.8558 24.1857 13.8698C24.3029 13.909 24.4197 13.9496 24.5369 13.9881C25.024 14.1498 25.5063 14.331 25.9981 14.4637C26.3738 14.5348 26.9445 14.7728 27.2561 14.8753C27.3231 14.9044 27.3035 14.9989 27.3082 15.0705C27.2725 16.3485 27.3981 17.6991 27.3108 18.9587V18.9584Z" fill="white"/>
<path d="M14.4132 23.474C14.7795 23.474 15.0765 23.1808 15.0765 22.8191C15.0765 22.4573 14.7795 22.1641 14.4132 22.1641C14.0469 22.1641 13.75 22.4573 13.75 22.8191C13.75 23.1808 14.0469 23.474 14.4132 23.474Z" fill="white"/>
<path d="M19 0L0 10.7519V32.2519L19 43.0037L38 32.2519V10.7519L19 0ZM33.3666 29.6295L19 42.4043L4.63722 29.6295V13.3743L19 5.24482L33.3666 13.3705V29.6257V29.6295Z" fill="#D97706"/>
</g>
<g clip-path="url(#clip1_4821_10463)">
<path d="M61.4668 8.63477V24.5078C61.4668 27.7598 63.3828 29.8867 66.793 29.8867C70.1855 29.8867 72.1016 27.7598 72.1016 24.5078V8.63477H77.4102V25.0352C77.4102 30.625 73.2793 34.4395 66.793 34.4395C60.2891 34.4395 56.1582 30.625 56.1582 25.0352V8.63477H61.4668ZM86.7266 34H81.6465V8.63477H86.0762L97.9238 25.1582H98.0645V8.63477H103.145V34H98.75L86.8848 17.3887H86.7266V34ZM106.027 34L114.078 21.291V21.1504L106.08 8.63477H112.32L117.699 17.7754H117.84L123.271 8.63477H129.195L120.898 21.2559V21.3789L129.09 34H123.043L117.488 25.123H117.348L111.758 34H106.027Z" fill="#110E25"/>
<path d="M145.915 9.31818H147.148V16.0597C147.148 16.7557 146.984 17.3771 146.656 17.924C146.331 18.4676 145.872 18.8968 145.278 19.2116C144.685 19.5232 143.989 19.679 143.19 19.679C142.392 19.679 141.696 19.5232 141.102 19.2116C140.509 18.8968 140.048 18.4676 139.72 17.924C139.395 17.3771 139.233 16.7557 139.233 16.0597V9.31818H140.466V15.9602C140.466 16.4574 140.575 16.8999 140.794 17.2876C141.013 17.6721 141.324 17.9754 141.729 18.1974C142.136 18.4162 142.624 18.5256 143.19 18.5256C143.757 18.5256 144.244 18.4162 144.652 18.1974C145.06 17.9754 145.371 17.6721 145.587 17.2876C145.805 16.8999 145.915 16.4574 145.915 15.9602V9.31818ZM152.772 11.8636V12.858H148.814V11.8636H152.772ZM149.968 10.0341H151.141V17.3125C151.141 17.6439 151.189 17.8925 151.285 18.0582C151.385 18.2206 151.511 18.33 151.663 18.3864C151.819 18.4394 151.983 18.4659 152.155 18.4659C152.285 18.4659 152.391 18.4593 152.474 18.446C152.556 18.4295 152.623 18.4162 152.672 18.4062L152.911 19.4602C152.831 19.4901 152.72 19.5199 152.578 19.5497C152.435 19.5829 152.255 19.5994 152.036 19.5994C151.705 19.5994 151.38 19.5282 151.062 19.3857C150.747 19.2431 150.485 19.026 150.276 18.7344C150.071 18.4427 149.968 18.0748 149.968 17.6307V10.0341ZM154.537 19.5V11.8636H155.71V19.5H154.537ZM155.133 10.5909C154.905 10.5909 154.707 10.513 154.542 10.3572C154.379 10.2015 154.298 10.0142 154.298 9.79545C154.298 9.5767 154.379 9.38944 154.542 9.23366C154.707 9.07789 154.905 9 155.133 9C155.362 9 155.558 9.07789 155.72 9.23366C155.886 9.38944 155.969 9.5767 155.969 9.79545C155.969 10.0142 155.886 10.2015 155.72 10.3572C155.558 10.513 155.362 10.5909 155.133 10.5909ZM159.032 9.31818V19.5H157.859V9.31818H159.032ZM161.181 19.5V11.8636H162.355V19.5H161.181ZM161.778 10.5909C161.549 10.5909 161.352 10.513 161.186 10.3572C161.024 10.2015 160.943 10.0142 160.943 9.79545C160.943 9.5767 161.024 9.38944 161.186 9.23366C161.352 9.07789 161.549 9 161.778 9C162.007 9 162.202 9.07789 162.365 9.23366C162.53 9.38944 162.613 9.5767 162.613 9.79545C162.613 10.0142 162.53 10.2015 162.365 10.3572C162.202 10.513 162.007 10.5909 161.778 10.5909ZM167.825 11.8636V12.858H163.867V11.8636H167.825ZM165.021 10.0341H166.194V17.3125C166.194 17.6439 166.242 17.8925 166.338 18.0582C166.438 18.2206 166.563 18.33 166.716 18.3864C166.872 18.4394 167.036 18.4659 167.208 18.4659C167.337 18.4659 167.443 18.4593 167.526 18.446C167.609 18.4295 167.675 18.4162 167.725 18.4062L167.964 19.4602C167.884 19.4901 167.773 19.5199 167.631 19.5497C167.488 19.5829 167.308 19.5994 167.089 19.5994C166.757 19.5994 166.433 19.5282 166.114 19.3857C165.799 19.2431 165.538 19.026 165.329 18.7344C165.123 18.4427 165.021 18.0748 165.021 17.6307V10.0341ZM170.345 22.3636C170.146 22.3636 169.969 22.3471 169.813 22.3139C169.657 22.2841 169.55 22.2543 169.49 22.2244L169.788 21.1903C170.073 21.2633 170.325 21.2898 170.544 21.2699C170.763 21.25 170.957 21.1522 171.126 20.9766C171.298 20.8042 171.455 20.5241 171.598 20.1364L171.817 19.5398L168.993 11.8636H170.266L172.374 17.9489H172.453L174.561 11.8636H175.834L172.592 20.6136C172.446 21.008 172.266 21.3345 172.05 21.593C171.835 21.8549 171.585 22.0488 171.3 22.1747C171.018 22.3007 170.7 22.3636 170.345 22.3636ZM189.553 9.31818V19.5H188.36L182.811 11.5057H182.712V19.5H181.479V9.31818H182.672L188.24 17.3324H188.34V9.31818H189.553ZM195.063 19.6591C194.327 19.6591 193.692 19.4967 193.159 19.1719C192.628 18.8438 192.219 18.3864 191.931 17.7997C191.646 17.2098 191.503 16.5237 191.503 15.7415C191.503 14.9593 191.646 14.2699 191.931 13.6733C192.219 13.0734 192.62 12.6061 193.134 12.2713C193.651 11.9332 194.254 11.7642 194.943 11.7642C195.341 11.7642 195.734 11.8305 196.122 11.9631C196.509 12.0956 196.862 12.3111 197.181 12.6094C197.499 12.9044 197.752 13.2955 197.941 13.7827C198.13 14.2699 198.225 14.8698 198.225 15.5824V16.0795H192.338V15.0653H197.031C197.031 14.6345 196.945 14.25 196.773 13.9119C196.604 13.5739 196.362 13.3071 196.047 13.1115C195.735 12.916 195.368 12.8182 194.943 12.8182C194.476 12.8182 194.072 12.9342 193.73 13.1662C193.392 13.3949 193.132 13.6932 192.95 14.0611C192.767 14.429 192.676 14.8234 192.676 15.2443V15.9205C192.676 16.4972 192.776 16.986 192.975 17.3871C193.177 17.7848 193.457 18.0881 193.815 18.2969C194.173 18.5024 194.589 18.6051 195.063 18.6051C195.371 18.6051 195.649 18.562 195.898 18.4759C196.15 18.3864 196.367 18.2538 196.549 18.0781C196.731 17.8991 196.872 17.6771 196.972 17.4119L198.105 17.7301C197.986 18.1146 197.785 18.4527 197.504 18.7443C197.222 19.0327 196.874 19.258 196.46 19.4205C196.045 19.5795 195.58 19.6591 195.063 19.6591ZM203.33 11.8636V12.858H199.373V11.8636H203.33ZM200.526 10.0341H201.7V17.3125C201.7 17.6439 201.748 17.8925 201.844 18.0582C201.943 18.2206 202.069 18.33 202.222 18.3864C202.378 18.4394 202.542 18.4659 202.714 18.4659C202.843 18.4659 202.949 18.4593 203.032 18.446C203.115 18.4295 203.181 18.4162 203.231 18.4062L203.47 19.4602C203.39 19.4901 203.279 19.5199 203.137 19.5497C202.994 19.5829 202.813 19.5994 202.595 19.5994C202.263 19.5994 201.938 19.5282 201.62 19.3857C201.305 19.2431 201.044 19.026 200.835 18.7344C200.629 18.4427 200.526 18.0748 200.526 17.6307V10.0341ZM206.825 19.5L204.499 11.8636H205.732L207.382 17.7102H207.462L209.093 11.8636H210.345L211.956 17.6903H212.036L213.686 11.8636H214.919L212.593 19.5H211.439L209.769 13.6335H209.649L207.979 19.5H206.825ZM219.313 19.6591C218.623 19.6591 218.019 19.495 217.498 19.1669C216.981 18.8388 216.577 18.3797 216.285 17.7898C215.997 17.1998 215.853 16.5104 215.853 15.7216C215.853 14.9261 215.997 14.2318 216.285 13.6385C216.577 13.0452 216.981 12.5845 217.498 12.2564C218.019 11.9283 218.623 11.7642 219.313 11.7642C220.002 11.7642 220.605 11.9283 221.123 12.2564C221.643 12.5845 222.047 13.0452 222.336 13.6385C222.627 14.2318 222.773 14.9261 222.773 15.7216C222.773 16.5104 222.627 17.1998 222.336 17.7898C222.047 18.3797 221.643 18.8388 221.123 19.1669C220.605 19.495 220.002 19.6591 219.313 19.6591ZM219.313 18.6051C219.837 18.6051 220.267 18.4709 220.605 18.2024C220.944 17.9339 221.194 17.581 221.356 17.1435C221.519 16.706 221.6 16.232 221.6 15.7216C221.6 15.2112 221.519 14.7356 221.356 14.2947C221.194 13.8539 220.944 13.4976 220.605 13.2259C220.267 12.9541 219.837 12.8182 219.313 12.8182C218.789 12.8182 218.358 12.9541 218.02 13.2259C217.682 13.4976 217.432 13.8539 217.27 14.2947C217.107 14.7356 217.026 15.2112 217.026 15.7216C217.026 16.232 217.107 16.706 217.27 17.1435C217.432 17.581 217.682 17.9339 218.02 18.2024C218.358 18.4709 218.789 18.6051 219.313 18.6051ZM224.564 19.5V11.8636H225.698V13.017H225.777C225.916 12.6392 226.168 12.3326 226.533 12.0973C226.897 11.862 227.308 11.7443 227.766 11.7443C227.852 11.7443 227.96 11.746 228.089 11.7493C228.218 11.7526 228.316 11.7576 228.382 11.7642V12.9574C228.343 12.9474 228.251 12.9325 228.109 12.9126C227.97 12.8894 227.822 12.8778 227.666 12.8778C227.295 12.8778 226.964 12.9557 226.672 13.1115C226.384 13.264 226.155 13.4761 225.986 13.7479C225.82 14.0163 225.737 14.3229 225.737 14.6676V19.5H224.564ZM230.867 16.7159L230.847 15.2642H231.086L234.426 11.8636H235.878L232.319 15.4631H232.219L230.867 16.7159ZM229.773 19.5V9.31818H230.946V19.5H229.773ZM234.625 19.5L231.642 15.7216L232.478 14.9062L236.117 19.5H234.625ZM139.233 33.5V23.3182H145.378V24.4119H140.466V27.8523H145.06V28.946H140.466V32.4062H145.457V33.5H139.233ZM148.316 25.8636L150.146 28.9858L151.975 25.8636H153.327L150.862 29.6818L153.327 33.5H151.975L150.146 30.5369L148.316 33.5H146.964L149.39 29.6818L146.964 25.8636H148.316ZM155.002 36.3636V25.8636H156.135V27.0767H156.274C156.36 26.9441 156.48 26.7751 156.632 26.5696C156.788 26.3608 157.01 26.1752 157.298 26.0128C157.59 25.8471 157.985 25.7642 158.482 25.7642C159.125 25.7642 159.691 25.925 160.182 26.2464C160.673 26.5679 161.055 27.0237 161.33 27.6136C161.606 28.2036 161.743 28.8996 161.743 29.7017C161.743 30.5104 161.606 31.2114 161.33 31.8047C161.055 32.3946 160.674 32.852 160.187 33.1768C159.7 33.4983 159.138 33.6591 158.502 33.6591C158.011 33.6591 157.618 33.5779 157.323 33.4155C157.028 33.2498 156.801 33.0625 156.642 32.8537C156.483 32.6416 156.36 32.4659 156.274 32.3267H156.175V36.3636H155.002ZM156.155 29.6818C156.155 30.2585 156.24 30.7673 156.409 31.2081C156.578 31.6456 156.825 31.9886 157.149 32.2372C157.474 32.4825 157.872 32.6051 158.343 32.6051C158.833 32.6051 159.242 32.4759 159.57 32.2173C159.902 31.9555 160.151 31.6042 160.316 31.1634C160.485 30.7192 160.57 30.2254 160.57 29.6818C160.57 29.1449 160.487 28.661 160.321 28.2301C160.159 27.7959 159.912 27.4529 159.58 27.201C159.252 26.9458 158.84 26.8182 158.343 26.8182C157.865 26.8182 157.464 26.9392 157.139 27.1811C156.815 27.4197 156.569 27.7545 156.404 28.1854C156.238 28.6129 156.155 29.1117 156.155 29.6818ZM164.706 23.3182V33.5H163.533V23.3182H164.706ZM169.957 33.6591C169.268 33.6591 168.663 33.495 168.143 33.1669C167.626 32.8388 167.221 32.3797 166.93 31.7898C166.641 31.1998 166.497 30.5104 166.497 29.7216C166.497 28.9261 166.641 28.2318 166.93 27.6385C167.221 27.0452 167.626 26.5845 168.143 26.2564C168.663 25.9283 169.268 25.7642 169.957 25.7642C170.647 25.7642 171.25 25.9283 171.767 26.2564C172.287 26.5845 172.692 27.0452 172.98 27.6385C173.272 28.2318 173.418 28.9261 173.418 29.7216C173.418 30.5104 173.272 31.1998 172.98 31.7898C172.692 32.3797 172.287 32.8388 171.767 33.1669C171.25 33.495 170.647 33.6591 169.957 33.6591ZM169.957 32.6051C170.481 32.6051 170.912 32.4709 171.25 32.2024C171.588 31.9339 171.838 31.581 172.001 31.1435C172.163 30.706 172.244 30.232 172.244 29.7216C172.244 29.2112 172.163 28.7356 172.001 28.2947C171.838 27.8539 171.588 27.4976 171.25 27.2259C170.912 26.9541 170.481 26.8182 169.957 26.8182C169.434 26.8182 169.003 26.9541 168.665 27.2259C168.327 27.4976 168.076 27.8539 167.914 28.2947C167.752 28.7356 167.67 29.2112 167.67 29.7216C167.67 30.232 167.752 30.706 167.914 31.1435C168.076 31.581 168.327 31.9339 168.665 32.2024C169.003 32.4709 169.434 32.6051 169.957 32.6051ZM175.209 33.5V25.8636H176.342V27.017H176.422C176.561 26.6392 176.813 26.3326 177.177 26.0973C177.542 25.862 177.953 25.7443 178.41 25.7443C178.497 25.7443 178.604 25.746 178.733 25.7493C178.863 25.7526 178.961 25.7576 179.027 25.7642V26.9574C178.987 26.9474 178.896 26.9325 178.753 26.9126C178.614 26.8894 178.467 26.8778 178.311 26.8778C177.94 26.8778 177.608 26.9557 177.317 27.1115C177.028 27.264 176.8 27.4761 176.631 27.7479C176.465 28.0163 176.382 28.3229 176.382 28.6676V33.5H175.209ZM183.387 33.6591C182.651 33.6591 182.016 33.4967 181.483 33.1719C180.952 32.8438 180.543 32.3864 180.255 31.7997C179.97 31.2098 179.827 30.5237 179.827 29.7415C179.827 28.9593 179.97 28.2699 180.255 27.6733C180.543 27.0734 180.944 26.6061 181.458 26.2713C181.975 25.9332 182.578 25.7642 183.268 25.7642C183.665 25.7642 184.058 25.8305 184.446 25.9631C184.834 26.0956 185.187 26.3111 185.505 26.6094C185.823 26.9044 186.077 27.2955 186.265 27.7827C186.454 28.2699 186.549 28.8698 186.549 29.5824V30.0795H180.662V29.0653H185.356C185.356 28.6345 185.269 28.25 185.097 27.9119C184.928 27.5739 184.686 27.3071 184.371 27.1115C184.06 26.916 183.692 26.8182 183.268 26.8182C182.8 26.8182 182.396 26.9342 182.055 27.1662C181.716 27.3949 181.456 27.6932 181.274 28.0611C181.092 28.429 181.001 28.8234 181.001 29.2443V29.9205C181.001 30.4972 181.1 30.986 181.299 31.3871C181.501 31.7848 181.781 32.0881 182.139 32.2969C182.497 32.5024 182.913 32.6051 183.387 32.6051C183.695 32.6051 183.974 32.562 184.222 32.4759C184.474 32.3864 184.691 32.2538 184.873 32.0781C185.056 31.8991 185.197 31.6771 185.296 31.4119L186.43 31.7301C186.31 32.1146 186.11 32.4527 185.828 32.7443C185.546 33.0327 185.198 33.258 184.784 33.4205C184.37 33.5795 183.904 33.6591 183.387 33.6591ZM188.334 33.5V25.8636H189.467V27.017H189.547C189.686 26.6392 189.938 26.3326 190.302 26.0973C190.667 25.862 191.078 25.7443 191.535 25.7443C191.622 25.7443 191.729 25.746 191.858 25.7493C191.988 25.7526 192.086 25.7576 192.152 25.7642V26.9574C192.112 26.9474 192.021 26.9325 191.878 26.9126C191.739 26.8894 191.592 26.8778 191.436 26.8778C191.065 26.8778 190.733 26.9557 190.442 27.1115C190.153 27.264 189.925 27.4761 189.756 27.7479C189.59 28.0163 189.507 28.3229 189.507 28.6676V33.5H188.334Z" fill="#525252"/>
</g>
<defs>
<linearGradient id="paint0_linear_4821_10463" x1="-0.0344062" y1="10.5646" x2="18.9023" y2="22.0656" gradientUnits="userSpaceOnUse">
<stop stop-color="white" stop-opacity="0"/>
<stop offset="1" stop-color="white"/>
</linearGradient>
<clipPath id="clip0_4821_10463">
<rect width="38" height="43" fill="white"/>
</clipPath>
<clipPath id="clip1_4821_10463">
<rect width="186" height="43" fill="white" transform="translate(54)"/>
</clipPath>
</defs>
</svg>
