<svg width="207" height="207" viewBox="0 0 207 207" fill="none" xmlns="http://www.w3.org/2000/svg">
<g clip-path="url(#clip0_4807_12933)">
<path d="M103.501 -0.0664062L13.8086 51.7162V155.285L103.501 207.068L193.193 155.285V51.7162L103.501 -0.0664062Z" fill="#73390F"/>
<path opacity="0.05" d="M103.501 -0.0664062V104.35L13.8086 155.285V51.7162L103.501 -0.0664062Z" fill="url(#paint0_linear_4807_12933)"/>
<path d="M103.501 -0.0664062L13.8086 51.7162V155.283L103.501 207.068L193.193 155.283V51.7162L103.501 -0.0664062ZM171.311 142.65L103.501 204.189L35.6912 142.65V64.3489L103.501 25.1991L171.311 64.3489V142.65Z" fill="#FF8D3D"/>
<path d="M149.318 66.3784L149.314 66.3669C149.182 65.8187 148.632 65.4182 148.084 65.2073C147.52 64.9428 132.112 60.0572 130.512 59.5282C128.925 58.9226 128.925 58.6868 127.236 59.3327C126.389 59.5397 125.693 60.086 124.925 60.4885C124.346 60.7377 123.769 60.8795 123.217 61.2207C116.986 63.8197 110.828 66.6697 104.599 69.3262C104.265 69.4336 103.759 69.7383 103.47 69.6732C96.5314 66.6755 84.4967 61.2149 78.5991 58.7539C77.0255 59.2484 63.168 63.8887 58.0907 65.5581C57.9777 65.5983 57.9278 65.7076 57.8952 65.8226C57.7247 66.4685 57.3413 150.698 58.0447 151.277C58.4319 151.576 58.6926 151.643 59.0721 151.461C59.4516 151.325 79.0227 144.306 79.0629 144.322C79.1281 144.348 79.2661 144.412 79.4788 144.506C85.3496 147.124 104.167 154.721 104.712 154.626C107.219 153.83 128.396 144.239 128.628 144.337C130.224 144.885 145.809 150.942 147.821 151.609C148.289 151.71 148.918 151.628 149.178 151.162C149.282 151.003 149.341 104.11 149.347 80.6116C149.314 72.3469 149.405 67.3482 149.314 66.3784H149.318ZM105.068 72.1054C105.147 71.6224 105.409 71.5917 105.837 71.3982C110.805 69.1403 121.203 64.4617 126.884 61.8877C127.104 61.8551 127.399 62.2192 127.438 62.4473C127.441 63.8388 127.438 77.7212 127.438 83.5843C127.388 84.006 127.419 84.4679 127.438 84.9126C127.438 85.2518 127.438 85.5297 127.438 85.7387C127.422 85.9437 127.443 86.053 127.29 86.0492C122.036 85.1311 107.046 82.4842 105.11 82.1468C104.878 82.1257 105.018 81.7424 104.992 81.5661C105.055 78.9728 104.668 73.7058 105.07 72.1054H105.068ZM79.7702 61.8263V61.8206C79.7759 61.7343 79.7874 61.6883 79.8085 61.673C79.82 61.6634 79.8353 61.6653 79.8526 61.6711C85.3285 64.1992 101.26 71.2276 102.496 71.9502C102.521 78.9402 102.554 98.8276 102.563 101.009C102.563 101.03 102.561 101.049 102.55 101.066C102.525 101.106 102.448 101.145 102.293 101.2C100.968 101.605 99.761 102.249 98.6512 103.075C98.5018 103.175 98.4232 103.244 98.2871 103.301C98.1797 103.343 98.1414 103.293 98.0513 103.23C94.0742 100.353 86.0568 94.5534 81.7961 91.4695C81.6523 91.3507 81.7999 91.0402 81.8248 90.8466C82.1238 89.664 82.2177 88.3817 81.9302 87.3103C81.6849 86.3539 81.1655 85.4876 80.3145 84.7439C80.0212 84.4832 79.7376 84.1842 79.6245 83.8047C78.9747 76.5329 79.9446 69.1365 79.7663 61.8282L79.7702 61.8263ZM79.7874 88.4987C79.9292 90.1355 78.8712 91.5117 77.1788 91.6516H77.1654C73.0197 92.0292 72.6862 85.7866 76.9258 85.6658C78.5339 85.593 79.6916 86.9845 79.7893 88.4987H79.7874ZM59.9403 67.6702C59.925 67.4786 60.0822 67.515 60.2604 67.4345C64.6687 65.9663 72.7207 63.1833 77.3379 61.6711C77.29 66.25 77.5142 82.0587 77.2593 83.2527C76.1937 83.3735 74.8731 83.6399 73.9914 84.2667C73.1481 84.7918 72.414 85.6716 71.9482 86.5226C71.7892 86.7737 71.7259 86.9059 71.4748 86.8657C69.9913 86.674 62.9878 85.7732 60.1186 85.4032C60.063 85.3956 60.0017 85.3937 59.9729 85.3477C59.9633 85.3208 59.9614 85.2882 59.9614 85.2537C59.9672 82.6337 59.9461 78.3365 59.9499 75.3312C59.9422 73.3052 59.9442 68.2682 59.9403 67.6683V67.6702ZM77.9532 141.341C77.9532 141.665 77.9532 141.816 77.9187 141.885C76.5176 142.505 61.6998 148.017 59.971 148.638C59.9288 146.001 59.971 121.093 59.9614 119.165C59.9576 119.117 60.0093 119.089 60.0534 119.068C60.1531 119.022 60.3812 118.922 60.7204 118.77C63.697 117.573 73.3493 112.917 75.1395 112.499C75.2794 112.583 75.6378 112.999 75.8621 113.22C76.4773 113.852 77.2287 114.318 77.9397 114.531C81.0428 115.497 84.3817 112.683 84.5292 109.603C84.6308 108.137 83.8335 106.669 82.6528 105.747C79.268 102.785 74.254 105.413 74.0182 109.735C73.9684 110.046 73.8726 110.308 73.6828 110.498C73.518 110.667 73.3187 110.763 73.0925 110.853C68.9812 112.367 65.0674 114.504 60.9562 115.926C60.6092 116.024 60.0419 116.292 59.9672 116.148C59.9442 115.021 59.9729 107.901 59.9614 100.959C59.9346 96.8112 59.9806 90.8351 59.9614 87.8585C59.9442 87.7071 60.1243 87.7857 60.2336 87.7876C61.6692 87.9927 68.2069 88.8034 70.9228 89.1676C71.1528 89.1982 71.2908 89.1982 71.3924 89.319C71.5726 89.5586 71.655 89.9802 71.793 90.3042C72.9622 93.4379 76.4524 94.8543 79.4501 93.3172C79.7682 93.1868 79.9772 92.9971 80.1937 93.0967C84.236 96.0177 95.1687 103.842 97.0853 105.306C97.1371 105.361 97.0604 105.603 97.0163 105.741C96.9339 105.986 96.7959 106.345 96.7097 106.688C96.3742 107.972 96.8515 109.57 96.6867 110.768C96.6215 111.129 96.61 111.24 96.4126 111.393C94.7508 112.474 85.7502 118.324 81.9341 120.804C81.6542 120.975 81.5201 121.101 81.2594 121.218C80.5349 121.385 80.004 120.854 79.2987 120.626C77.9532 120.137 76.1764 120.235 75.0897 120.814C72.0997 122.272 71.3847 126.771 73.6042 129.147C74.6814 130.33 76.3489 130.759 77.9187 130.669C77.9321 130.669 77.9436 130.669 77.957 130.669C77.9532 133.544 77.9608 140.492 77.957 141.345L77.9532 141.341ZM79.084 106.722H79.0974C79.8967 106.632 80.7937 106.927 81.3112 107.493C82.8157 109.074 82.2522 112.026 79.889 112.348C75.8237 113.088 75.2794 107.188 79.0859 106.722H79.084ZM77.7864 128.553H77.773C76.1227 128.749 74.8252 127.499 74.6412 125.939C74.4246 124.45 75.2583 122.981 76.7917 122.652C80.9336 121.644 81.9283 128.13 77.7864 128.551V128.553ZM102.531 151.946C101.262 151.392 81.8421 142.913 80.3854 142.196C80.3547 142.138 80.3528 142.01 80.3528 141.709C80.3528 140.858 80.3528 131.674 80.3528 129.968C82.212 128.841 83.0745 126.5 82.6011 124.047C82.5781 123.66 82.5512 123.336 82.741 123.025C82.8771 122.855 83.1013 122.757 83.2853 122.625C86.812 120.342 96.0235 114.22 97.9382 113.045C98.6608 112.967 99.2282 113.743 99.8166 114.096C100.585 114.59 101.601 114.903 102.333 115.384C102.492 115.503 102.542 115.526 102.546 115.635C102.565 117.417 102.552 143.775 102.531 151.946ZM103.075 103.426H103.088C105.797 102.975 107.999 104.786 108.417 107.343C108.871 109.799 107.546 112.332 104.969 112.846C98.1452 114.4 96.5122 104.491 103.075 103.426ZM126.972 142.357C125.437 142.94 106.393 151.557 104.98 151.908C104.951 151.816 104.988 151.339 104.972 151.11C104.949 150.077 104.704 141.56 104.775 141.126C104.846 140.762 105.212 140.427 105.534 140.306C107.313 139.806 121.189 135.986 126.403 134.543C126.725 134.435 127.029 134.307 127.351 134.177C126.824 137.009 127.089 142.282 126.974 142.355L126.972 142.357ZM127.432 131.848C121.944 133.366 105.973 137.926 104.924 138.152C104.901 135.946 104.924 134.018 104.917 130.997C104.917 124.812 104.917 116.699 104.917 115.633C104.921 115.501 104.976 115.464 105.13 115.342C106.243 114.632 106.929 114.889 108.039 113.806C108.298 113.59 109.003 112.907 109.241 113.151C110.607 114.149 123.984 123.735 128.584 127.096C128.81 127.443 127.558 131.81 127.432 131.846V131.848ZM146.922 148.49C146.907 148.607 146.878 148.651 146.827 148.646C145.232 148.082 131.258 142.936 129.732 142.384C129.567 142.311 129.621 135.549 129.494 134.006C129.54 134.044 129.586 134.085 129.634 134.131C130.048 134.516 130.547 134.89 131.077 135.12C132.929 136.061 134.93 135.84 136.588 134.589C137.215 134.15 137.648 133.452 138.297 133.128C138.483 133.053 138.685 133.216 138.924 133.322C140.923 134.324 145.565 136.592 146.708 137.184C146.97 137.376 146.924 148.488 146.924 148.488L146.922 148.49ZM132.848 127.403C134.646 127.068 136.137 128.323 136.362 130.079C136.592 131.708 135.572 133.14 133.855 133.343H133.841C129.839 133.991 129.172 128.076 132.848 127.403ZM146.865 134.819C145.272 133.571 141.318 132.197 139.434 131.269C138.55 130.957 138.936 129.908 138.667 129.195C138.25 127.746 137.291 126.429 136.042 125.695C133.868 124.457 132.615 125.197 130.568 125.703C127.043 123.275 113.419 113.791 110.556 111.207C110.214 110.684 110.74 109.454 110.814 108.744C111.029 108.106 110.742 107.056 111.173 106.582C115.692 104.461 123.878 101.695 127.19 100.177C128.024 100.244 128.593 101.313 129.544 101.593C138.324 104.836 139.894 91.0593 131.181 91.9448C128.977 92.3052 127.073 94.1241 126.805 96.3877C126.661 96.9895 126.997 97.8788 126.268 98.0417C123.169 98.8697 112.079 104.208 110.092 104.514C109.789 104.581 109.699 104.279 109.513 104.045C109.302 103.738 109.038 103.408 108.758 103.152C107.872 102.345 106.981 101.802 105.877 101.392C105.327 101.225 104.898 100.806 104.938 100.194C104.951 95.3239 104.932 90.4537 104.907 85.5872C104.896 85.2001 104.948 84.6347 105.252 84.4679H105.256C107.537 84.6902 121.458 87.3007 127.257 88.2591C128.988 88.606 141.991 91.711 146.022 92.6482C146.489 92.7901 146.926 92.7786 146.93 92.9396C146.959 94.3924 146.917 124.733 146.94 134.096C146.928 134.57 146.993 134.926 146.867 134.821L146.865 134.819ZM130.035 95.0115C131.158 93.9918 132.827 93.9362 133.926 95.0709L133.935 95.0805C136.672 97.8577 131.905 101.85 129.529 98.6838C128.611 97.5223 128.973 95.9334 130.035 95.0115ZM147.241 88.9702V88.9817C147.145 89.5164 147.187 90.5744 146.497 90.4805C143.254 89.5528 131.777 87.7569 129.881 86.5877C129.759 85.8632 129.883 84.4257 129.699 83.3907C130.039 77.1137 129.398 66.8192 129.764 62.5144C129.778 62.2403 129.835 61.8474 130.083 61.7612C130.265 61.6826 130.575 61.765 130.786 61.8397C131.403 62.0487 132.019 62.2652 132.636 62.4703C135.2 63.3328 137.74 64.2988 140.329 65.0061C142.307 65.3856 145.312 66.6544 146.953 67.2007C147.306 67.3559 147.202 67.86 147.227 68.2414C147.039 75.0552 147.701 82.2561 147.241 88.9721V88.9702Z" fill="white"/>
<path d="M79.3281 113.049C81.2568 113.049 82.8203 111.485 82.8203 109.557C82.8203 107.628 81.2568 106.064 79.3281 106.064C77.3994 106.064 75.8359 107.628 75.8359 109.557C75.8359 111.485 77.3994 113.049 79.3281 113.049Z" fill="white"/>
</g>
<defs>
<linearGradient id="paint0_linear_4807_12933" x1="13.6553" y1="50.8288" x2="104.001" y2="104.595" gradientUnits="userSpaceOnUse">
<stop stop-color="white" stop-opacity="0"/>
<stop offset="1" stop-color="white"/>
</linearGradient>
<clipPath id="clip0_4807_12933">
<rect width="207" height="207" fill="white"/>
</clipPath>
</defs>
</svg>
