<svg width="186" height="43" viewBox="0 0 186 43" fill="none" xmlns="http://www.w3.org/2000/svg">
<path d="M7.4668 8.63477V24.5078C7.4668 27.7598 9.38281 29.8867 12.793 29.8867C16.1855 29.8867 18.1016 27.7598 18.1016 24.5078V8.63477H23.4102V25.0352C23.4102 30.625 19.2793 34.4395 12.793 34.4395C6.28906 34.4395 2.1582 30.625 2.1582 25.0352V8.63477H7.4668ZM32.7266 34H27.6465V8.63477H32.0762L43.9238 25.1582H44.0645V8.63477H49.1445V34H44.75L32.8848 17.3887H32.7266V34ZM52.0273 34L60.0781 21.291V21.1504L52.0801 8.63477H58.3203L63.6992 17.7754H63.8398L69.2715 8.63477H75.1953L66.8984 21.2559V21.3789L75.0898 34H69.043L63.4883 25.123H63.3477L57.7578 34H52.0273Z" fill="#110E25"/>
<path d="M91.9148 9.31818H93.1477V16.0597C93.1477 16.7557 92.9837 17.3771 92.6555 17.924C92.3307 18.4676 91.8717 18.8968 91.2784 19.2116C90.6851 19.5232 89.9891 19.679 89.1903 19.679C88.3916 19.679 87.6955 19.5232 87.1023 19.2116C86.509 18.8968 86.0483 18.4676 85.7202 17.924C85.3954 17.3771 85.233 16.7557 85.233 16.0597V9.31818H86.4659V15.9602C86.4659 16.4574 86.5753 16.8999 86.794 17.2876C87.0128 17.6721 87.3243 17.9754 87.7287 18.1974C88.1364 18.4162 88.6236 18.5256 89.1903 18.5256C89.7571 18.5256 90.2443 18.4162 90.652 18.1974C91.0597 17.9754 91.3712 17.6721 91.5866 17.2876C91.8054 16.8999 91.9148 16.4574 91.9148 15.9602V9.31818ZM98.7718 11.8636V12.858H94.8145V11.8636H98.7718ZM95.9679 10.0341H97.1412V17.3125C97.1412 17.6439 97.1892 17.8925 97.2853 18.0582C97.3848 18.2206 97.5107 18.33 97.6632 18.3864C97.819 18.4394 97.983 18.4659 98.1554 18.4659C98.2846 18.4659 98.3907 18.4593 98.4735 18.446C98.5564 18.4295 98.6227 18.4162 98.6724 18.4062L98.911 19.4602C98.8315 19.4901 98.7205 19.5199 98.5779 19.5497C98.4354 19.5829 98.2548 19.5994 98.036 19.5994C97.7046 19.5994 97.3798 19.5282 97.0616 19.3857C96.7467 19.2431 96.4849 19.026 96.2761 18.7344C96.0706 18.4427 95.9679 18.0748 95.9679 17.6307V10.0341ZM100.537 19.5V11.8636H101.71V19.5H100.537ZM101.133 10.5909C100.905 10.5909 100.707 10.513 100.542 10.3572C100.379 10.2015 100.298 10.0142 100.298 9.79545C100.298 9.5767 100.379 9.38944 100.542 9.23366C100.707 9.07789 100.905 9 101.133 9C101.362 9 101.558 9.07789 101.72 9.23366C101.886 9.38944 101.969 9.5767 101.969 9.79545C101.969 10.0142 101.886 10.2015 101.72 10.3572C101.558 10.513 101.362 10.5909 101.133 10.5909ZM105.032 9.31818V19.5H103.859V9.31818H105.032ZM107.181 19.5V11.8636H108.355V19.5H107.181ZM107.778 10.5909C107.549 10.5909 107.352 10.513 107.186 10.3572C107.024 10.2015 106.943 10.0142 106.943 9.79545C106.943 9.5767 107.024 9.38944 107.186 9.23366C107.352 9.07789 107.549 9 107.778 9C108.007 9 108.202 9.07789 108.365 9.23366C108.53 9.38944 108.613 9.5767 108.613 9.79545C108.613 10.0142 108.53 10.2015 108.365 10.3572C108.202 10.513 108.007 10.5909 107.778 10.5909ZM113.825 11.8636V12.858H109.867V11.8636H113.825ZM111.021 10.0341H112.194V17.3125C112.194 17.6439 112.242 17.8925 112.338 18.0582C112.438 18.2206 112.563 18.33 112.716 18.3864C112.872 18.4394 113.036 18.4659 113.208 18.4659C113.337 18.4659 113.443 18.4593 113.526 18.446C113.609 18.4295 113.675 18.4162 113.725 18.4062L113.964 19.4602C113.884 19.4901 113.773 19.5199 113.631 19.5497C113.488 19.5829 113.308 19.5994 113.089 19.5994C112.757 19.5994 112.433 19.5282 112.114 19.3857C111.799 19.2431 111.538 19.026 111.329 18.7344C111.123 18.4427 111.021 18.0748 111.021 17.6307V10.0341ZM116.345 22.3636C116.146 22.3636 115.969 22.3471 115.813 22.3139C115.657 22.2841 115.55 22.2543 115.49 22.2244L115.788 21.1903C116.073 21.2633 116.325 21.2898 116.544 21.2699C116.763 21.25 116.957 21.1522 117.126 20.9766C117.298 20.8042 117.455 20.5241 117.598 20.1364L117.817 19.5398L114.993 11.8636H116.266L118.374 17.9489H118.453L120.561 11.8636H121.834L118.592 20.6136C118.446 21.008 118.266 21.3345 118.05 21.593C117.835 21.8549 117.585 22.0488 117.3 22.1747C117.018 22.3007 116.7 22.3636 116.345 22.3636ZM135.553 9.31818V19.5H134.36L128.811 11.5057H128.712V19.5H127.479V9.31818H128.672L134.24 17.3324H134.34V9.31818H135.553ZM141.063 19.6591C140.327 19.6591 139.692 19.4967 139.159 19.1719C138.628 18.8438 138.219 18.3864 137.931 17.7997C137.646 17.2098 137.503 16.5237 137.503 15.7415C137.503 14.9593 137.646 14.2699 137.931 13.6733C138.219 13.0734 138.62 12.6061 139.134 12.2713C139.651 11.9332 140.254 11.7642 140.943 11.7642C141.341 11.7642 141.734 11.8305 142.122 11.9631C142.509 12.0956 142.862 12.3111 143.181 12.6094C143.499 12.9044 143.752 13.2955 143.941 13.7827C144.13 14.2699 144.225 14.8698 144.225 15.5824V16.0795H138.338V15.0653H143.031C143.031 14.6345 142.945 14.25 142.773 13.9119C142.604 13.5739 142.362 13.3071 142.047 13.1115C141.735 12.916 141.368 12.8182 140.943 12.8182C140.476 12.8182 140.072 12.9342 139.73 13.1662C139.392 13.3949 139.132 13.6932 138.95 14.0611C138.767 14.429 138.676 14.8234 138.676 15.2443V15.9205C138.676 16.4972 138.776 16.986 138.975 17.3871C139.177 17.7848 139.457 18.0881 139.815 18.2969C140.173 18.5024 140.589 18.6051 141.063 18.6051C141.371 18.6051 141.649 18.562 141.898 18.4759C142.15 18.3864 142.367 18.2538 142.549 18.0781C142.731 17.8991 142.872 17.6771 142.972 17.4119L144.105 17.7301C143.986 18.1146 143.785 18.4527 143.504 18.7443C143.222 19.0327 142.874 19.258 142.46 19.4205C142.045 19.5795 141.58 19.6591 141.063 19.6591ZM149.33 11.8636V12.858H145.373V11.8636H149.33ZM146.526 10.0341H147.7V17.3125C147.7 17.6439 147.748 17.8925 147.844 18.0582C147.943 18.2206 148.069 18.33 148.222 18.3864C148.378 18.4394 148.542 18.4659 148.714 18.4659C148.843 18.4659 148.949 18.4593 149.032 18.446C149.115 18.4295 149.181 18.4162 149.231 18.4062L149.47 19.4602C149.39 19.4901 149.279 19.5199 149.137 19.5497C148.994 19.5829 148.813 19.5994 148.595 19.5994C148.263 19.5994 147.938 19.5282 147.62 19.3857C147.305 19.2431 147.044 19.026 146.835 18.7344C146.629 18.4427 146.526 18.0748 146.526 17.6307V10.0341ZM152.825 19.5L150.499 11.8636H151.732L153.382 17.7102H153.462L155.093 11.8636H156.345L157.956 17.6903H158.036L159.686 11.8636H160.919L158.593 19.5H157.439L155.769 13.6335H155.649L153.979 19.5H152.825ZM165.313 19.6591C164.623 19.6591 164.019 19.495 163.498 19.1669C162.981 18.8388 162.577 18.3797 162.285 17.7898C161.997 17.1998 161.853 16.5104 161.853 15.7216C161.853 14.9261 161.997 14.2318 162.285 13.6385C162.577 13.0452 162.981 12.5845 163.498 12.2564C164.019 11.9283 164.623 11.7642 165.313 11.7642C166.002 11.7642 166.605 11.9283 167.123 12.2564C167.643 12.5845 168.047 13.0452 168.336 13.6385C168.627 14.2318 168.773 14.9261 168.773 15.7216C168.773 16.5104 168.627 17.1998 168.336 17.7898C168.047 18.3797 167.643 18.8388 167.123 19.1669C166.605 19.495 166.002 19.6591 165.313 19.6591ZM165.313 18.6051C165.837 18.6051 166.267 18.4709 166.605 18.2024C166.944 17.9339 167.194 17.581 167.356 17.1435C167.519 16.706 167.6 16.232 167.6 15.7216C167.6 15.2112 167.519 14.7356 167.356 14.2947C167.194 13.8539 166.944 13.4976 166.605 13.2259C166.267 12.9541 165.837 12.8182 165.313 12.8182C164.789 12.8182 164.358 12.9541 164.02 13.2259C163.682 13.4976 163.432 13.8539 163.27 14.2947C163.107 14.7356 163.026 15.2112 163.026 15.7216C163.026 16.232 163.107 16.706 163.27 17.1435C163.432 17.581 163.682 17.9339 164.02 18.2024C164.358 18.4709 164.789 18.6051 165.313 18.6051ZM170.564 19.5V11.8636H171.698V13.017H171.777C171.916 12.6392 172.168 12.3326 172.533 12.0973C172.897 11.862 173.308 11.7443 173.766 11.7443C173.852 11.7443 173.96 11.746 174.089 11.7493C174.218 11.7526 174.316 11.7576 174.382 11.7642V12.9574C174.343 12.9474 174.251 12.9325 174.109 12.9126C173.97 12.8894 173.822 12.8778 173.666 12.8778C173.295 12.8778 172.964 12.9557 172.672 13.1115C172.384 13.264 172.155 13.4761 171.986 13.7479C171.82 14.0163 171.737 14.3229 171.737 14.6676V19.5H170.564ZM176.867 16.7159L176.847 15.2642H177.086L180.426 11.8636H181.878L178.319 15.4631H178.219L176.867 16.7159ZM175.773 19.5V9.31818H176.946V19.5H175.773ZM180.625 19.5L177.642 15.7216L178.478 14.9062L182.117 19.5H180.625ZM85.233 33.5V23.3182H91.3778V24.4119H86.4659V27.8523H91.0597V28.946H86.4659V32.4062H91.4574V33.5H85.233ZM94.3161 25.8636L96.1456 28.9858L97.9751 25.8636H99.3274L96.8615 29.6818L99.3274 33.5H97.9751L96.1456 30.5369L94.3161 33.5H92.9638L95.3899 29.6818L92.9638 25.8636H94.3161ZM101.002 36.3636V25.8636H102.135V27.0767H102.274C102.36 26.9441 102.48 26.7751 102.632 26.5696C102.788 26.3608 103.01 26.1752 103.298 26.0128C103.59 25.8471 103.985 25.7642 104.482 25.7642C105.125 25.7642 105.691 25.925 106.182 26.2464C106.673 26.5679 107.055 27.0237 107.33 27.6136C107.606 28.2036 107.743 28.8996 107.743 29.7017C107.743 30.5104 107.606 31.2114 107.33 31.8047C107.055 32.3946 106.674 32.852 106.187 33.1768C105.7 33.4983 105.138 33.6591 104.502 33.6591C104.011 33.6591 103.618 33.5779 103.323 33.4155C103.028 33.2498 102.801 33.0625 102.642 32.8537C102.483 32.6416 102.36 32.4659 102.274 32.3267H102.175V36.3636H101.002ZM102.155 29.6818C102.155 30.2585 102.24 30.7673 102.409 31.2081C102.578 31.6456 102.825 31.9886 103.149 32.2372C103.474 32.4825 103.872 32.6051 104.343 32.6051C104.833 32.6051 105.242 32.4759 105.57 32.2173C105.902 31.9555 106.151 31.6042 106.316 31.1634C106.485 30.7192 106.57 30.2254 106.57 29.6818C106.57 29.1449 106.487 28.661 106.321 28.2301C106.159 27.7959 105.912 27.4529 105.58 27.201C105.252 26.9458 104.84 26.8182 104.343 26.8182C103.865 26.8182 103.464 26.9392 103.139 27.1811C102.815 27.4197 102.569 27.7545 102.404 28.1854C102.238 28.6129 102.155 29.1117 102.155 29.6818ZM110.706 23.3182V33.5H109.533V23.3182H110.706ZM115.957 33.6591C115.268 33.6591 114.663 33.495 114.143 33.1669C113.626 32.8388 113.221 32.3797 112.93 31.7898C112.641 31.1998 112.497 30.5104 112.497 29.7216C112.497 28.9261 112.641 28.2318 112.93 27.6385C113.221 27.0452 113.626 26.5845 114.143 26.2564C114.663 25.9283 115.268 25.7642 115.957 25.7642C116.647 25.7642 117.25 25.9283 117.767 26.2564C118.287 26.5845 118.692 27.0452 118.98 27.6385C119.272 28.2318 119.418 28.9261 119.418 29.7216C119.418 30.5104 119.272 31.1998 118.98 31.7898C118.692 32.3797 118.287 32.8388 117.767 33.1669C117.25 33.495 116.647 33.6591 115.957 33.6591ZM115.957 32.6051C116.481 32.6051 116.912 32.4709 117.25 32.2024C117.588 31.9339 117.838 31.581 118.001 31.1435C118.163 30.706 118.244 30.232 118.244 29.7216C118.244 29.2112 118.163 28.7356 118.001 28.2947C117.838 27.8539 117.588 27.4976 117.25 27.2259C116.912 26.9541 116.481 26.8182 115.957 26.8182C115.434 26.8182 115.003 26.9541 114.665 27.2259C114.327 27.4976 114.076 27.8539 113.914 28.2947C113.752 28.7356 113.67 29.2112 113.67 29.7216C113.67 30.232 113.752 30.706 113.914 31.1435C114.076 31.581 114.327 31.9339 114.665 32.2024C115.003 32.4709 115.434 32.6051 115.957 32.6051ZM121.209 33.5V25.8636H122.342V27.017H122.422C122.561 26.6392 122.813 26.3326 123.177 26.0973C123.542 25.862 123.953 25.7443 124.41 25.7443C124.497 25.7443 124.604 25.746 124.733 25.7493C124.863 25.7526 124.961 25.7576 125.027 25.7642V26.9574C124.987 26.9474 124.896 26.9325 124.753 26.9126C124.614 26.8894 124.467 26.8778 124.311 26.8778C123.94 26.8778 123.608 26.9557 123.317 27.1115C123.028 27.264 122.8 27.4761 122.631 27.7479C122.465 28.0163 122.382 28.3229 122.382 28.6676V33.5H121.209ZM129.387 33.6591C128.651 33.6591 128.016 33.4967 127.483 33.1719C126.952 32.8438 126.543 32.3864 126.255 31.7997C125.97 31.2098 125.827 30.5237 125.827 29.7415C125.827 28.9593 125.97 28.2699 126.255 27.6733C126.543 27.0734 126.944 26.6061 127.458 26.2713C127.975 25.9332 128.578 25.7642 129.268 25.7642C129.665 25.7642 130.058 25.8305 130.446 25.9631C130.834 26.0956 131.187 26.3111 131.505 26.6094C131.823 26.9044 132.077 27.2955 132.265 27.7827C132.454 28.2699 132.549 28.8698 132.549 29.5824V30.0795H126.662V29.0653H131.356C131.356 28.6345 131.269 28.25 131.097 27.9119C130.928 27.5739 130.686 27.3071 130.371 27.1115C130.06 26.916 129.692 26.8182 129.268 26.8182C128.8 26.8182 128.396 26.9342 128.055 27.1662C127.716 27.3949 127.456 27.6932 127.274 28.0611C127.092 28.429 127.001 28.8234 127.001 29.2443V29.9205C127.001 30.4972 127.1 30.986 127.299 31.3871C127.501 31.7848 127.781 32.0881 128.139 32.2969C128.497 32.5024 128.913 32.6051 129.387 32.6051C129.695 32.6051 129.974 32.562 130.222 32.4759C130.474 32.3864 130.691 32.2538 130.873 32.0781C131.056 31.8991 131.197 31.6771 131.296 31.4119L132.43 31.7301C132.31 32.1146 132.11 32.4527 131.828 32.7443C131.546 33.0327 131.198 33.258 130.784 33.4205C130.37 33.5795 129.904 33.6591 129.387 33.6591ZM134.334 33.5V25.8636H135.467V27.017H135.547C135.686 26.6392 135.938 26.3326 136.302 26.0973C136.667 25.862 137.078 25.7443 137.535 25.7443C137.622 25.7443 137.729 25.746 137.858 25.7493C137.988 25.7526 138.086 25.7576 138.152 25.7642V26.9574C138.112 26.9474 138.021 26.9325 137.878 26.9126C137.739 26.8894 137.592 26.8778 137.436 26.8778C137.065 26.8778 136.733 26.9557 136.442 27.1115C136.153 27.264 135.925 27.4761 135.756 27.7479C135.59 28.0163 135.507 28.3229 135.507 28.6676V33.5H134.334Z" fill="#373E62"/>
</svg>
