<svg width="179" height="38" viewBox="0 0 179 38" fill="none" xmlns="http://www.w3.org/2000/svg">
<path d="M12.6003 2.81818H13.8333V9.55966C13.8333 10.2557 13.6692 10.8771 13.3411 11.424C13.0163 11.9676 12.5572 12.3968 11.964 12.7116C11.3707 13.0232 10.6747 13.179 9.87589 13.179C9.07712 13.179 8.3811 13.0232 7.78782 12.7116C7.19454 12.3968 6.73384 11.9676 6.40572 11.424C6.08091 10.8771 5.9185 10.2557 5.9185 9.55966V2.81818H7.15146V9.46023C7.15146 9.95739 7.26083 10.3999 7.47958 10.7876C7.69833 11.1721 8.00988 11.4754 8.41424 11.6974C8.82191 11.9162 9.30913 12.0256 9.87589 12.0256C10.4426 12.0256 10.9299 11.9162 11.3375 11.6974C11.7452 11.4754 12.0568 11.1721 12.2722 10.7876C12.4909 10.3999 12.6003 9.95739 12.6003 9.46023V2.81818ZM19.4574 5.36364V6.35795H15.5V5.36364H19.4574ZM16.6534 3.53409H17.8267V10.8125C17.8267 11.1439 17.8748 11.3925 17.9709 11.5582C18.0703 11.7206 18.1963 11.83 18.3487 11.8864C18.5045 11.9394 18.6686 11.9659 18.8409 11.9659C18.9702 11.9659 19.0762 11.9593 19.1591 11.946C19.242 11.9295 19.3082 11.9162 19.358 11.9062L19.5966 12.9602C19.517 12.9901 19.406 13.0199 19.2635 13.0497C19.121 13.0829 18.9403 13.0994 18.7216 13.0994C18.3902 13.0994 18.0653 13.0282 17.7472 12.8857C17.4323 12.7431 17.1705 12.526 16.9616 12.2344C16.7562 11.9427 16.6534 11.5748 16.6534 11.1307V3.53409ZM21.2223 13V5.36364H22.3956V13H21.2223ZM21.8189 4.09091C21.5902 4.09091 21.393 4.01302 21.2273 3.85724C21.0649 3.70147 20.9837 3.5142 20.9837 3.29545C20.9837 3.0767 21.0649 2.88944 21.2273 2.73366C21.393 2.57789 21.5902 2.5 21.8189 2.5C22.0476 2.5 22.2431 2.57789 22.4055 2.73366C22.5713 2.88944 22.6541 3.0767 22.6541 3.29545C22.6541 3.5142 22.5713 3.70147 22.4055 3.85724C22.2431 4.01302 22.0476 4.09091 21.8189 4.09091ZM25.7179 2.81818V13H24.5446V2.81818H25.7179ZM27.8668 13V5.36364H29.0401V13H27.8668ZM28.4634 4.09091C28.2347 4.09091 28.0375 4.01302 27.8718 3.85724C27.7094 3.70147 27.6282 3.5142 27.6282 3.29545C27.6282 3.0767 27.7094 2.88944 27.8718 2.73366C28.0375 2.57789 28.2347 2.5 28.4634 2.5C28.6921 2.5 28.8877 2.57789 29.0501 2.73366C29.2158 2.88944 29.2987 3.0767 29.2987 3.29545C29.2987 3.5142 29.2158 3.70147 29.0501 3.85724C28.8877 4.01302 28.6921 4.09091 28.4634 4.09091ZM34.5101 5.36364V6.35795H30.5527V5.36364H34.5101ZM31.7061 3.53409H32.8794V10.8125C32.8794 11.1439 32.9275 11.3925 33.0236 11.5582C33.123 11.7206 33.249 11.83 33.4015 11.8864C33.5572 11.9394 33.7213 11.9659 33.8936 11.9659C34.0229 11.9659 34.129 11.9593 34.2118 11.946C34.2947 11.9295 34.361 11.9162 34.4107 11.9062L34.6493 12.9602C34.5698 12.9901 34.4587 13.0199 34.3162 13.0497C34.1737 13.0829 33.9931 13.0994 33.7743 13.0994C33.4429 13.0994 33.1181 13.0282 32.7999 12.8857C32.485 12.7431 32.2232 12.526 32.0144 12.2344C31.8089 11.9427 31.7061 11.5748 31.7061 11.1307V3.53409ZM37.0307 15.8636C36.8319 15.8636 36.6545 15.8471 36.4988 15.8139C36.343 15.7841 36.2353 15.7543 36.1756 15.7244L36.4739 14.6903C36.7589 14.7633 37.0108 14.7898 37.2296 14.7699C37.4483 14.75 37.6422 14.6522 37.8113 14.4766C37.9836 14.3042 38.141 14.0241 38.2836 13.6364L38.5023 13.0398L35.6784 5.36364H36.9512L39.0591 11.4489H39.1387L41.2466 5.36364H42.5194L39.2779 14.1136C39.132 14.508 38.9514 14.8345 38.736 15.093C38.5205 15.3549 38.2703 15.5488 37.9853 15.6747C37.7035 15.8007 37.3854 15.8636 37.0307 15.8636ZM56.2385 2.81818V13H55.0453L49.497 5.00568H49.3975V13H48.1646V2.81818H49.3578L54.926 10.8324H55.0254V2.81818H56.2385ZM61.7482 13.1591C61.0124 13.1591 60.3777 12.9967 59.8441 12.6719C59.3138 12.3438 58.9045 11.8864 58.6161 11.2997C58.3311 10.7098 58.1886 10.0237 58.1886 9.24148C58.1886 8.45928 58.3311 7.76989 58.6161 7.1733C58.9045 6.57339 59.3055 6.10606 59.8192 5.77131C60.3363 5.43324 60.9395 5.2642 61.6289 5.2642C62.0266 5.2642 62.4194 5.33049 62.8072 5.46307C63.195 5.59564 63.5479 5.81108 63.8661 6.10938C64.1843 6.40436 64.4379 6.79545 64.6268 7.28267C64.8157 7.76989 64.9102 8.36979 64.9102 9.08239V9.57955H59.0238V8.56534H63.717C63.717 8.13447 63.6308 7.75 63.4585 7.41193C63.2894 7.07386 63.0475 6.80705 62.7326 6.61151C62.421 6.41596 62.0531 6.31818 61.6289 6.31818C61.1616 6.31818 60.7572 6.43419 60.4158 6.66619C60.0778 6.89489 59.8176 7.19318 59.6353 7.56108C59.453 7.92898 59.3619 8.32339 59.3619 8.74432V9.42045C59.3619 9.99716 59.4613 10.486 59.6602 10.8871C59.8623 11.2848 60.1424 11.5881 60.5004 11.7969C60.8583 12.0024 61.2743 12.1051 61.7482 12.1051C62.0565 12.1051 62.3349 12.062 62.5835 11.9759C62.8353 11.8864 63.0524 11.7538 63.2347 11.5781C63.417 11.3991 63.5579 11.1771 63.6573 10.9119L64.7908 11.2301C64.6715 11.6146 64.471 11.9527 64.1893 12.2443C63.9076 12.5327 63.5595 12.758 63.1452 12.9205C62.7309 13.0795 62.2653 13.1591 61.7482 13.1591ZM70.016 5.36364V6.35795H66.0586V5.36364H70.016ZM67.212 3.53409H68.3853V10.8125C68.3853 11.1439 68.4334 11.3925 68.5295 11.5582C68.6289 11.7206 68.7549 11.83 68.9073 11.8864C69.0631 11.9394 69.2272 11.9659 69.3995 11.9659C69.5288 11.9659 69.6348 11.9593 69.7177 11.946C69.8005 11.9295 69.8668 11.9162 69.9165 11.9062L70.1552 12.9602C70.0756 12.9901 69.9646 13.0199 69.8221 13.0497C69.6796 13.0829 69.4989 13.0994 69.2802 13.0994C68.9487 13.0994 68.6239 13.0282 68.3058 12.8857C67.9909 12.7431 67.729 12.526 67.5202 12.2344C67.3147 11.9427 67.212 11.5748 67.212 11.1307V3.53409ZM73.511 13L71.1843 5.36364H72.4173L74.0678 11.2102H74.1474L75.7781 5.36364H77.0309L78.6417 11.1903H78.7212L80.3718 5.36364H81.6048L79.2781 13H78.1246L76.4542 7.13352H76.3349L74.6644 13H73.511ZM85.9984 13.1591C85.309 13.1591 84.7041 12.995 84.1838 12.6669C83.6667 12.3388 83.2624 11.8797 82.9707 11.2898C82.6824 10.6998 82.5382 10.0104 82.5382 9.22159C82.5382 8.42614 82.6824 7.73177 82.9707 7.13849C83.2624 6.54522 83.6667 6.08452 84.1838 5.75639C84.7041 5.42827 85.309 5.2642 85.9984 5.2642C86.6878 5.2642 87.291 5.42827 87.8081 5.75639C88.3284 6.08452 88.7328 6.54522 89.0211 7.13849C89.3128 7.73177 89.4586 8.42614 89.4586 9.22159C89.4586 10.0104 89.3128 10.6998 89.0211 11.2898C88.7328 11.8797 88.3284 12.3388 87.8081 12.6669C87.291 12.995 86.6878 13.1591 85.9984 13.1591ZM85.9984 12.1051C86.5221 12.1051 86.9529 11.9709 87.291 11.7024C87.6291 11.4339 87.8793 11.081 88.0417 10.6435C88.2041 10.206 88.2853 9.73201 88.2853 9.22159C88.2853 8.71117 88.2041 8.23556 88.0417 7.79474C87.8793 7.35393 87.6291 6.99763 87.291 6.72585C86.9529 6.45407 86.5221 6.31818 85.9984 6.31818C85.4747 6.31818 85.0439 6.45407 84.7058 6.72585C84.3677 6.99763 84.1175 7.35393 83.9551 7.79474C83.7927 8.23556 83.7115 8.71117 83.7115 9.22159C83.7115 9.73201 83.7927 10.206 83.9551 10.6435C84.1175 11.081 84.3677 11.4339 84.7058 11.7024C85.0439 11.9709 85.4747 12.1051 85.9984 12.1051ZM91.2496 13V5.36364H92.3832V6.51705H92.4627C92.6019 6.1392 92.8538 5.83262 93.2184 5.5973C93.583 5.36198 93.994 5.24432 94.4513 5.24432C94.5375 5.24432 94.6452 5.24597 94.7745 5.24929C94.9038 5.2526 95.0015 5.25758 95.0678 5.2642V6.45739C95.0281 6.44744 94.9369 6.43253 94.7944 6.41264C94.6552 6.38944 94.5077 6.37784 94.3519 6.37784C93.9807 6.37784 93.6493 6.45573 93.3576 6.61151C93.0692 6.76397 92.8406 6.97609 92.6715 7.24787C92.5058 7.51634 92.4229 7.82292 92.4229 8.16761V13H91.2496ZM97.5524 10.2159L97.5325 8.7642H97.7711L101.112 5.36364H102.564L99.0041 8.96307H98.9047L97.5524 10.2159ZM96.4586 13V2.81818H97.6319V13H96.4586ZM101.311 13L98.3279 9.22159L99.1632 8.40625L102.802 13H101.311ZM49.7642 29V18.8182H55.9091V19.9119H50.9972V23.3523H55.5909V24.446H50.9972V27.9062H55.9886V29H49.7642ZM58.8473 21.3636L60.6768 24.4858L62.5064 21.3636H63.8587L61.3928 25.1818L63.8587 29H62.5064L60.6768 26.0369L58.8473 29H57.495L59.9212 25.1818L57.495 21.3636H58.8473ZM65.5328 31.8636V21.3636H66.6664V22.5767H66.8056C66.8917 22.4441 67.0111 22.2751 67.1635 22.0696C67.3193 21.8608 67.5414 21.6752 67.8297 21.5128C68.1214 21.3471 68.5158 21.2642 69.013 21.2642C69.656 21.2642 70.2227 21.425 70.7132 21.7464C71.2038 22.0679 71.5866 22.5237 71.8617 23.1136C72.1368 23.7036 72.2743 24.3996 72.2743 25.2017C72.2743 26.0104 72.1368 26.7114 71.8617 27.3047C71.5866 27.8946 71.2054 28.352 70.7182 28.6768C70.231 28.9983 69.6692 29.1591 69.0328 29.1591C68.5423 29.1591 68.1496 29.0779 67.8546 28.9155C67.5596 28.7498 67.3326 28.5625 67.1735 28.3537C67.0144 28.1416 66.8917 27.9659 66.8056 27.8267H66.7061V31.8636H65.5328ZM66.6863 25.1818C66.6863 25.7585 66.7708 26.2673 66.9398 26.7081C67.1088 27.1456 67.3558 27.4886 67.6806 27.7372C68.0054 27.9825 68.4031 28.1051 68.8738 28.1051C69.3643 28.1051 69.7736 27.9759 70.1017 27.7173C70.4332 27.4555 70.6818 27.1042 70.8475 26.6634C71.0165 26.2192 71.101 25.7254 71.101 25.1818C71.101 24.6449 71.0182 24.161 70.8525 23.7301C70.69 23.2959 70.4431 22.9529 70.1117 22.701C69.7836 22.4458 69.3709 22.3182 68.8738 22.3182C68.3965 22.3182 67.9954 22.4392 67.6706 22.6811C67.3458 22.9197 67.1006 23.2545 66.9348 23.6854C66.7691 24.1129 66.6863 24.6117 66.6863 25.1818ZM75.2374 18.8182V29H74.0641V18.8182H75.2374ZM80.4886 29.1591C79.7992 29.1591 79.1944 28.995 78.674 28.6669C78.157 28.3388 77.7526 27.8797 77.4609 27.2898C77.1726 26.6998 77.0284 26.0104 77.0284 25.2216C77.0284 24.4261 77.1726 23.7318 77.4609 23.1385C77.7526 22.5452 78.157 22.0845 78.674 21.7564C79.1944 21.4283 79.7992 21.2642 80.4886 21.2642C81.178 21.2642 81.7813 21.4283 82.2983 21.7564C82.8187 22.0845 83.223 22.5452 83.5114 23.1385C83.803 23.7318 83.9489 24.4261 83.9489 25.2216C83.9489 26.0104 83.803 26.6998 83.5114 27.2898C83.223 27.8797 82.8187 28.3388 82.2983 28.6669C81.7813 28.995 81.178 29.1591 80.4886 29.1591ZM80.4886 28.1051C81.0123 28.1051 81.4432 27.9709 81.7812 27.7024C82.1193 27.4339 82.3696 27.081 82.532 26.6435C82.6944 26.206 82.7756 25.732 82.7756 25.2216C82.7756 24.7112 82.6944 24.2356 82.532 23.7947C82.3696 23.3539 82.1193 22.9976 81.7812 22.7259C81.4432 22.4541 81.0123 22.3182 80.4886 22.3182C79.965 22.3182 79.5341 22.4541 79.196 22.7259C78.858 22.9976 78.6077 23.3539 78.4453 23.7947C78.2829 24.2356 78.2017 24.7112 78.2017 25.2216C78.2017 25.732 78.2829 26.206 78.4453 26.6435C78.6077 27.081 78.858 27.4339 79.196 27.7024C79.5341 27.9709 79.965 28.1051 80.4886 28.1051ZM85.7399 29V21.3636H86.8734V22.517H86.9529C87.0922 22.1392 87.344 21.8326 87.7086 21.5973C88.0732 21.362 88.4842 21.2443 88.9416 21.2443C89.0278 21.2443 89.1355 21.246 89.2647 21.2493C89.394 21.2526 89.4918 21.2576 89.5581 21.2642V22.4574C89.5183 22.4474 89.4271 22.4325 89.2846 22.4126C89.1454 22.3894 88.9979 22.3778 88.8422 22.3778C88.4709 22.3778 88.1395 22.4557 87.8478 22.6115C87.5595 22.764 87.3308 22.9761 87.1618 23.2479C86.996 23.5163 86.9132 23.8229 86.9132 24.1676V29H85.7399ZM93.9181 29.1591C93.1824 29.1591 92.5476 28.9967 92.014 28.6719C91.4837 28.3438 91.0744 27.8864 90.786 27.2997C90.501 26.7098 90.3585 26.0237 90.3585 25.2415C90.3585 24.4593 90.501 23.7699 90.786 23.1733C91.0744 22.5734 91.4754 22.1061 91.9892 21.7713C92.5062 21.4332 93.1094 21.2642 93.7988 21.2642C94.1966 21.2642 94.5893 21.3305 94.9771 21.4631C95.3649 21.5956 95.7179 21.8111 96.036 22.1094C96.3542 22.4044 96.6078 22.7955 96.7967 23.2827C96.9856 23.7699 97.0801 24.3698 97.0801 25.0824V25.5795H91.1937V24.5653H95.8869C95.8869 24.1345 95.8007 23.75 95.6284 23.4119C95.4593 23.0739 95.2174 22.8071 94.9025 22.6115C94.591 22.416 94.2231 22.3182 93.7988 22.3182C93.3315 22.3182 92.9271 22.4342 92.5858 22.6662C92.2477 22.8949 91.9875 23.1932 91.8052 23.5611C91.6229 23.929 91.5318 24.3234 91.5318 24.7443V25.4205C91.5318 25.9972 91.6312 26.486 91.8301 26.8871C92.0323 27.2848 92.3123 27.5881 92.6703 27.7969C93.0282 28.0024 93.4442 28.1051 93.9181 28.1051C94.2264 28.1051 94.5048 28.062 94.7534 27.9759C95.0053 27.8864 95.2224 27.7538 95.4047 27.5781C95.5869 27.3991 95.7278 27.1771 95.8272 26.9119L96.9608 27.2301C96.8414 27.6146 96.6409 27.9527 96.3592 28.2443C96.0775 28.5327 95.7295 28.758 95.3152 28.9205C94.9009 29.0795 94.4352 29.1591 93.9181 29.1591ZM98.8649 29V21.3636H99.9984V22.517H100.078C100.217 22.1392 100.469 21.8326 100.834 21.5973C101.198 21.362 101.609 21.2443 102.067 21.2443C102.153 21.2443 102.26 21.246 102.39 21.2493C102.519 21.2526 102.617 21.2576 102.683 21.2642V22.4574C102.643 22.4474 102.552 22.4325 102.41 22.4126C102.27 22.3894 102.123 22.3778 101.967 22.3778C101.596 22.3778 101.265 22.4557 100.973 22.6115C100.684 22.764 100.456 22.9761 100.287 23.2479C100.121 23.5163 100.038 23.8229 100.038 24.1676V29H98.8649Z" fill="#F8FAFC"/>
<path d="M118.125 7.45312V21.5625C118.125 24.4531 119.828 26.3438 122.859 26.3438C125.875 26.3438 127.578 24.4531 127.578 21.5625V7.45312H132.297V22.0312C132.297 27 128.625 30.3906 122.859 30.3906C117.078 30.3906 113.406 27 113.406 22.0312V7.45312H118.125ZM140.578 30H136.062V7.45312H140L150.531 22.1406H150.656V7.45312H155.172V30H151.266L140.719 15.2344H140.578V30ZM157.734 30L164.891 18.7031V18.5781L157.781 7.45312H163.328L168.109 15.5781H168.234L173.062 7.45312H178.328L170.953 18.6719V18.7812L178.234 30H172.859L167.922 22.1094H167.797L162.828 30H157.734Z" fill="white"/>
</svg>
