<svg width="20" height="18" viewBox="0 0 20 18" fill="none" xmlns="http://www.w3.org/2000/svg">
<g id="Group">
<g id="setting-map">
<g id="Group_2">
<path id="Vector" fill-rule="evenodd" clip-rule="evenodd" d="M14.5382 12.5402C14.746 12.3625 14.9867 12.2215 15.25 12.1285V11.2502H16.75V12.1285C17.0133 12.2215 17.254 12.3625 17.4618 12.5402L18.223 12.1007L18.973 13.3997L18.2125 13.8392C18.2372 13.972 18.25 14.11 18.25 14.2502C18.25 14.3905 18.2372 14.5285 18.2125 14.6612L18.973 15.1007L18.223 16.3997L17.4618 15.9602C17.254 16.138 17.0133 16.279 16.75 16.372V17.2502H15.25V16.372C14.9867 16.279 14.746 16.138 14.5382 15.9602L13.777 16.3997L13.027 15.1007L13.7875 14.6612C13.7628 14.5285 13.75 14.3905 13.75 14.2502C13.75 14.11 13.7628 13.972 13.7875 13.8392L13.027 13.3997L13.777 12.1007L14.5382 12.5402ZM16 13.5002C15.586 13.5002 15.25 13.8362 15.25 14.2502C15.25 14.6642 15.586 15.0002 16 15.0002C16.414 15.0002 16.75 14.6642 16.75 14.2502C16.75 13.8362 16.414 13.5002 16 13.5002ZM11.689 15.5432L7.75 17.02V2.66797L12.25 0.980469V11.7632C11.776 12.4757 11.5 13.3307 11.5 14.2502C11.5 14.6995 11.566 15.1337 11.689 15.5432ZM13.75 10.3532V0.980469L19.75 3.23047V11.7632C18.9438 10.5505 17.5645 9.75022 16 9.75022C15.1803 9.75022 14.4122 9.96997 13.75 10.3532ZM6.25 17.02L0.25 14.77V0.417969L6.25 2.66797V17.02Z" fill="#D4D4D4"/>
</g>
</g>
</g>
</svg>
