<svg width="32" height="32" viewBox="0 0 32 32" fill="none" xmlns="http://www.w3.org/2000/svg">
<g id="Icon/Solid/map">
<g id="Icon">
<path fill-rule="evenodd" clip-rule="evenodd" d="M19.1992 2.53711L12.7992 8.93711V29.4626L19.1992 23.0626V2.53711Z" fill="#231D49"/>
<path fill-rule="evenodd" clip-rule="evenodd" d="M5.93059 5.26848C5.47299 4.81088 4.7848 4.67399 4.18693 4.92164C3.58905 5.16929 3.19922 5.75271 3.19922 6.39985V22.3999C3.19922 22.8242 3.36779 23.2312 3.66785 23.5312L9.59922 29.4626V8.93711L5.93059 5.26848Z" fill="#231D49"/>
<path fill-rule="evenodd" clip-rule="evenodd" d="M28.3306 8.46848L22.3992 2.53711V23.0626L26.0678 26.7312C26.5254 27.1888 27.2136 27.3257 27.8115 27.0781C28.4094 26.8304 28.7992 26.247 28.7992 25.5999V9.59985C28.7992 9.17551 28.6306 8.76854 28.3306 8.46848Z" fill="#231D49"/>
</g>
</g>
</svg>
