<svg
  xmlns="http://www.w3.org/2000/svg"
  width="32"
  height="32"
  viewBox="0 0 32 32"
>
  <path
    d="M24.608 24.607c-0.175 0.173-0.415 0.28-0.681 0.28s-0.506-0.107-0.681-0.28l-5.543-5.543c-0.174-0.174-0.282-0.415-0.282-0.681 0-0.532 0.431-0.963 0.963-0.963 0.266 0 0.507 0.108 0.681 0.282v0l5.543 5.543c0.173 0.175 0.28 0.415 0.28 0.681s-0.107 0.506-0.28 0.681l0-0z"
    fill="currentColor"
  ></path>
  <path
    d="M24.62 8.267c-0.168-0.165-0.398-0.268-0.652-0.268s-0.485 0.102-0.653 0.268l-6.867 6.872-6.872-6.872c-0.167-0.167-0.398-0.27-0.653-0.27-0.51 0-0.924 0.414-0.924 0.924 0 0.255 0.103 0.486 0.271 0.653l6.871 6.871-6.871 6.869c-0.168 0.167-0.271 0.399-0.271 0.654 0 0.51 0.414 0.924 0.924 0.924 0.255 0 0.486-0.103 0.653-0.27v0l15.044-15.049c0.166-0.167 0.269-0.398 0.269-0.652s-0.103-0.485-0.269-0.652l0 0z"
    fill="currentColor"
  ></path>
</svg>
