<svg id="Group_17804" data-name="Group 17804" xmlns="http://www.w3.org/2000/svg" width="28" height="28" viewBox="0 0 28 28">
  <g id="Group_16943" data-name="Group 16943">
    <path id="Path_6570" data-name="Path 6570" d="M14,0A14,14,0,1,1,0,14,14,14,0,0,1,14,0Z" fill="#2680eb" opacity="0"/>
    <g id="Icon_material-close" data-name="Icon material-close" transform="translate(-0.5 -0.5)" fill="#fff">
      <path d="M 20.09000015258789 20.79290008544922 L 14.85354995727539 15.55644989013672 L 14.5 15.20289039611816 L 14.14645004272461 15.55644989013672 L 8.909999847412109 20.79290008544922 L 8.207099914550781 20.09000015258789 L 13.44355010986328 14.85354995727539 L 13.79710960388184 14.5 L 13.44355010986328 14.14645004272461 L 8.207099914550781 8.909999847412109 L 8.909999847412109 8.207099914550781 L 14.14645004272461 13.44355010986328 L 14.5 13.79710960388184 L 14.85354995727539 13.44355010986328 L 20.09000015258789 8.207099914550781 L 20.79290008544922 8.909999847412109 L 15.55644989013672 14.14645004272461 L 15.20289039611816 14.5 L 15.55644989013672 14.85354995727539 L 20.79290008544922 20.09000015258789 L 20.09000015258789 20.79290008544922 Z" stroke="none"/>
      <path d="M 8.909999847412109 7.5 L 14.5 13.09000015258789 L 20.09000015258789 7.5 L 21.5 8.909999847412109 L 15.90999984741211 14.5 L 21.5 20.09000015258789 L 20.09000015258789 21.5 L 14.5 15.90999984741211 L 8.909999847412109 21.5 L 7.5 20.09000015258789 L 13.09000015258789 14.5 L 7.5 8.909999847412109 L 8.909999847412109 7.5 Z" stroke="none" fill="#fff"/>
    </g>
  </g>
</svg>
