<svg xmlns="http://www.w3.org/2000/svg" xmlns:xlink="http://www.w3.org/1999/xlink" width="66" height="23.126" viewBox="0 0 66 23.126">
  <defs>
    <clipPath id="clip-path">
      <path id="Path_6636" data-name="Path 6636" d="M12.2,11.608a19.921,19.921,0,0,0-2.137.23A9.5,9.5,0,0,0,6.714,18.8c.562.59,1.3,1.925,2.156,2.7l.367-.134a7.17,7.17,0,0,1-1.093-1.429c-.432-1.456.068-2.819,1.147-2.927.969-.1,1.8-1.537,2.483-2.482,1.4-1.944,3.561-1.617,3.453-2.591a.823.823,0,0,0-.887-.743c-.646,0-1.5.394-2.135.419" transform="translate(-6.714 -11.189)" fill="#e4e4da"/>
    </clipPath>
    <clipPath id="clip-path-2">
      <path id="Path_6637" data-name="Path 6637" d="M10.9,29.513l-.407.115a3.074,3.074,0,0,0-.367.134,1.021,1.021,0,0,0-.661.906,1.939,1.939,0,0,0,1.512,1.86c.941.269,1.018-.046,1.512.621a6.942,6.942,0,0,1,.586,1.9,5.841,5.841,0,0,0,.392.943,9.32,9.32,0,0,0,2.13.7,31.08,31.08,0,0,1,.346-3.214c.5-1.309.786-1.886.108-3.239-1.5-.421-1.949-.555-3.454-.861a3.43,3.43,0,0,0-.672-.1,3.811,3.811,0,0,0-1.026.234" transform="translate(-9.452 -29.279)" fill="#e4e4da"/>
    </clipPath>
    <clipPath id="clip-path-3">
      <path id="Path_6638" data-name="Path 6638" d="M26.718,14.317c-.44.629-1.986.8-2.484,1.511-.386.553.014,1.639-.323,2.268a1.964,1.964,0,0,0,.105,1.4c.6.867,1.586.385,2.33.7.906.377,1.011,1.432,1.765,2.2s-.963,1.96.439,4.767a1.977,1.977,0,0,0,.512.672,9.554,9.554,0,0,0,2.469-2.217c.212-1.415-.267-1.871.333-3.167a20.034,20.034,0,0,1,1.682-3.125A9.483,9.483,0,0,0,30.425,12.7a1.51,1.51,0,0,1-.686,0,3.984,3.984,0,0,0-.7-.069c-1.4,0-1.826.971-2.327,1.686" transform="translate(-23.826 -12.631)" fill="#e4e4da"/>
    </clipPath>
  </defs>
  <g id="Group_17424" data-name="Group 17424" transform="translate(-318.596 18.654)">
    <g id="Group_17425" data-name="Group 17425" transform="translate(318.596 -18.654)">
      <rect id="Rectangle_5172" data-name="Rectangle 5172" width="3.073" height="12.288" transform="translate(59.547 6.198)" fill="#e4e4da"/>
      <path id="Path_6629" data-name="Path 6629" d="M59.851,23.4a3.924,3.924,0,0,1-2.984,1.3,3.186,3.186,0,0,1-3.3-2.919h9.37v-.843c0-4.276-2.328-6.681-5.762-6.681A6.452,6.452,0,1,0,61.79,25.337L59.851,23.4M56.738,16.56a2.829,2.829,0,0,1,3.125,2.919h-6.3a3.057,3.057,0,0,1,3.176-2.919" transform="translate(-25.121 -8.366)" fill="#e4e4da"/>
      <path id="Path_6630" data-name="Path 6630" d="M78.445,18.022c0-.923.973-1.308,1.794-1.308a2.785,2.785,0,0,1,2.4,1.246l1.954-1.953a5.39,5.39,0,0,0-4.276-1.75c-2.482,0-4.94,1.228-4.94,3.97,0,4.685,6.631,2.687,6.631,5.22,0,.974-1.152,1.407-2.049,1.407a3.744,3.744,0,0,1-2.91-1.5L75.06,25.336a6.031,6.031,0,0,0,4.716,1.825c2.508,0,5.3-1.025,5.3-3.942,0-4.787-6.632-3-6.632-5.2" transform="translate(-36.349 -8.366)" fill="#e4e4da"/>
      <path id="Path_6631" data-name="Path 6631" d="M103.959,14.435a3.941,3.941,0,0,0-4.73,2.072h-.048V14.564H96.11V26.852h3.071v-6.58a3.091,3.091,0,0,1,3.3-3.1,5.814,5.814,0,0,1,1.355.2l.121-2.94" transform="translate(-45.968 -8.366)" fill="#e4e4da"/>
      <path id="Path_6632" data-name="Path 6632" d="M122.644,14.709a.994.994,0,1,1-.993.995,1,1,0,0,1,.993-.995m0,1.814a.819.819,0,1,0-.816-.819.819.819,0,0,0,.816.819m-.382-1.394h.439c.274,0,.4.124.4.344a.288.288,0,0,1-.274.312l.3.482h-.218l-.286-.465h-.149v.465h-.21Zm.21.495h.149c.131,0,.274-.008.274-.16s-.143-.162-.274-.159h-.149Z" transform="translate(-57.64 -8.572)" fill="#e4e4da"/>
      <path id="Path_6633" data-name="Path 6633" d="M114.518,3.408A1.966,1.966,0,1,1,112.5,5.372a1.982,1.982,0,0,1,2.015-1.964" transform="translate(-53.459 -3.408)" fill="#e4e4da"/>
      <g id="Group_17419" data-name="Group 17419" transform="translate(1.598 4.225)">
        <g id="Group_17418" data-name="Group 17418" transform="translate(0 0)" clip-path="url(#clip-path)">
          <rect id="Rectangle_5174" data-name="Rectangle 5174" width="8.62" height="10.305" transform="translate(0 0)" fill="#e4e4da"/>
        </g>
      </g>
      <g id="Group_17421" data-name="Group 17421" transform="translate(3.085 14.049)">
        <g id="Group_17420" data-name="Group 17420" transform="translate(0 0)" clip-path="url(#clip-path-2)">
          <rect id="Rectangle_5175" data-name="Rectangle 5175" width="7.371" height="7.409" transform="translate(-0.097 0)" fill="#e4e4da"/>
        </g>
      </g>
      <g id="Group_17423" data-name="Group 17423" transform="translate(10.89 5.008)">
        <g id="Group_17422" data-name="Group 17422" transform="translate(0 0)" clip-path="url(#clip-path-3)">
          <rect id="Rectangle_5176" data-name="Rectangle 5176" width="9.79" height="15.205" transform="translate(-0.07 0)" fill="#e4e4da"/>
        </g>
      </g>
      <path id="Path_6639" data-name="Path 6639" d="M11.826,14.051a17.823,17.823,0,0,1,5.741-1.436,12.592,12.592,0,0,0-2.05-3.4A15.642,15.642,0,0,0,10.8,10.39a28.5,28.5,0,0,0,1.022,3.661m7.55,3.987a12.48,12.48,0,0,0-5.532,1.167,35.208,35.208,0,0,0,2.1,3.5,11.493,11.493,0,0,1,2.121-.569,13.075,13.075,0,0,1,1.965-.175,19.838,19.838,0,0,0-.658-3.923m-5.936.353a12.869,12.869,0,0,1,5.735-1.139,34.975,34.975,0,0,0-1.31-3.878,14.721,14.721,0,0,0-5.784,1.448,33,33,0,0,0,1.359,3.57m6.881-9.03a18.273,18.273,0,0,0-3.885-.255A15.269,15.269,0,0,1,18.394,12.6a16.142,16.142,0,0,1,4.381.815A12.71,12.71,0,0,0,20.32,9.361M23.733,18.2a14.049,14.049,0,0,0-.715-4.037,12.737,12.737,0,0,0-4.331-.805,27.019,27.019,0,0,1,1.226,3.927,15.29,15.29,0,0,1,3.819.916m-1-8.643c-1.565-1.92-5.11-3.55-9.054-3.3a12.333,12.333,0,0,1,2.258,2.183,15.427,15.427,0,0,1,3.832.286,3.069,3.069,0,0,1-.337-.4c-.11-.236.154-.287.368-.153a4.794,4.794,0,0,1,.828.63,12.151,12.151,0,0,1,2.106.762m1.889,9.229a.471.471,0,0,1-.442.268,20.249,20.249,0,0,1-.116,2.155,14.722,14.722,0,0,0,.657-1.755l.152-.6a9.612,9.612,0,0,0,.2-4.567,7.423,7.423,0,0,0-1.744-3.882,15.123,15.123,0,0,0-2.069-.853,13.342,13.342,0,0,1,2.194,4.067,8.362,8.362,0,0,1,1.19.706c.072.084.072.237-.15.234a5.93,5.93,0,0,1-.823-.253,16.58,16.58,0,0,1,.509,4.084s.49.237.444.392m-1.439,3.768a3.225,3.225,0,0,0,.5-.7,23.986,23.986,0,0,0,.064-2.968,13.605,13.605,0,0,0-3.6-.793,21.927,21.927,0,0,1,.566,3.9,12.6,12.6,0,0,1,2.475.567m-2.518,2.233a8.719,8.719,0,0,0,2.248-1.89,9.511,9.511,0,0,0-2.186-.243s-.018,1.336-.061,2.132M18.32,25.9a13.185,13.185,0,0,0,1.74-.778,22.63,22.63,0,0,0,.008-2.469,11.13,11.13,0,0,0-3.674.721A18.363,18.363,0,0,0,18.32,25.9m-5.136-.749a17.237,17.237,0,0,0,1.586,1.159,13.419,13.419,0,0,0,2.664-.195c-.419-.477-1.465-1.956-1.781-2.454a11.01,11.01,0,0,0-2.468,1.491m-3.46-3.525a22.445,22.445,0,0,0,2.942,3.068A14.576,14.576,0,0,1,15.22,23.02a34.35,34.35,0,0,1-2.091-3.5,12.814,12.814,0,0,0-3.4,2.106M7.583,17.483a14.062,14.062,0,0,0,1.658,3.5,18.8,18.8,0,0,1,3.5-2.268c-.392-.84-.957-2.412-1.349-3.587a21.241,21.241,0,0,0-3.806,2.355m-1.228-4.4a21.308,21.308,0,0,0,.891,3.581,26.461,26.461,0,0,1,3.926-2.346,28.894,28.894,0,0,1-.863-3.724,15.814,15.814,0,0,0-3.954,2.489m-.188-3a10.95,10.95,0,0,0,.109,2.145A17.147,17.147,0,0,1,10.2,9.841a28.384,28.384,0,0,1-.315-3.211,12.658,12.658,0,0,0-3.744,3.589M10.364,5.8a10.7,10.7,0,0,1,5.743-.9c.231.031.211.228-.035.229l-.294.008a13.646,13.646,0,0,0-5.424,1.283,20.3,20.3,0,0,0,.3,3.272,17.716,17.716,0,0,1,4.319-1.137,15.572,15.572,0,0,0-1.952-1.689.52.52,0,0,1-.188-.445.388.388,0,0,1,.507-.373,8.176,8.176,0,0,1,2.091-.2c4.062-.178,7.771,2.117,9.187,4.737,3.588,5.672,0,13.5-4.7,15.582a11.154,11.154,0,0,1-6.905.831,10.412,10.412,0,0,1-7.8-5.267C2.73,17.689,4.131,13,4.48,12.013A11.373,11.373,0,0,1,10.364,5.8M5.573,12.776c-.041-.609-.09-1.446-.09-1.446a7.556,7.556,0,0,0-.841,2.7,9.475,9.475,0,0,1,.931-1.256m6.552,12.367A20.082,20.082,0,0,1,9.087,22.1c-.253.152-.539.559-.907.63l-.564.026.125-.38a4.592,4.592,0,0,1,.827-.838,15.168,15.168,0,0,1-1.773-3.543,8.351,8.351,0,0,0-.842.608l-.483.008a.5.5,0,0,1,.089-.8c.133-.094.792-.55.945-.679a19.5,19.5,0,0,1-.834-3.495,9.373,9.373,0,0,1-.755.574.536.536,0,0,1-.3-.012A13.843,13.843,0,0,0,5.129,19.3a9.965,9.965,0,0,0,6.4,6.512,6.4,6.4,0,0,1,.594-.672m1.665,1.131c-.316-.18-.711-.46-1.08-.706a3.537,3.537,0,0,0-.4.5,7.567,7.567,0,0,0,1.479.211" transform="translate(-3.771 -4.045)" fill="#e4e4da"/>
    </g>
  </g>
</svg>
