<svg xmlns="http://www.w3.org/2000/svg" width="38" height="38" viewBox="0 0 38 38">
  <path id="Googlemap" d="M662.087,106a9.536,9.536,0,0,0-1.058.052c-.094.009-.191.038-.284.051-.252.032-.5.078-.748.129-.094.02-.164.029-.259.052-.242.058-.487.129-.723.207-.078.026-.154.048-.232.078-.249.09-.51.2-.748.31-.059.026-.1.051-.155.077-.254.123-.506.245-.748.387-.039.022-.09.055-.129.078-.259.154-.507.313-.749.491-.019.016-.032.035-.051.051-.259.193-.51.4-.748.62-.007.007-.02-.007-.026,0a9.751,9.751,0,0,0-.7.723,9.878,9.878,0,0,0-2.556,6.609c0,3.427,1.765,5.776,3.64,8.261.681.9,1.407,1.855,2.091,2.917a18.242,18.242,0,0,1,3.589,6.918c.116.449.113.8.31.956a1.336,1.336,0,0,0,.284.026,1.593,1.593,0,0,0,.284-.026c.2-.155.193-.507.31-.956a18.253,18.253,0,0,1,3.588-6.918c.685-1.062,1.411-2.016,2.092-2.917.116-.152.222-.313.335-.464.178-.236.345-.462.516-.7.081-.11.152-.226.232-.335.129-.184.262-.359.387-.543.09-.135.171-.278.258-.413.11-.168.236-.319.336-.49.09-.152.174-.31.258-.465s.178-.326.259-.491.158-.345.232-.516.145-.329.207-.49c.074-.191.12-.372.181-.568.048-.154.112-.306.154-.464.059-.233.088-.482.129-.723.023-.136.062-.249.078-.387a9.776,9.776,0,0,0,.078-1.214A9.924,9.924,0,0,0,662.087,106Zm-24.5,3.3A3.6,3.6,0,0,0,634,112.893v27.519a3.372,3.372,0,0,0,.051.543A3.6,3.6,0,0,0,637.589,144h27.519a3.356,3.356,0,0,0,.542-.051,3.584,3.584,0,0,0,3.021-3.253h.026V126.471c-.345.474-.694.971-1.033,1.5l-.1.154a16.425,16.425,0,0,0-3.279,6.3c-.026.1-.036.174-.051.259a2.755,2.755,0,0,1-.568,1.317l3.382,3.381v1.033a1.947,1.947,0,0,1-1.936,1.936h-1.033l-11.616-11.591,2.968-3.02,2.943,2.968a19.693,19.693,0,0,0-1.755-2.582l-.1-.154c-.481-.746-.968-1.4-1.446-2.04l-16.444,16.418h-1.033a1.947,1.947,0,0,1-1.936-1.936v-1.033l16.909-16.935a11.826,11.826,0,0,1-2.04-6.531,11.484,11.484,0,0,1,2.091-6.609Zm4.776,3.3a4.988,4.988,0,0,1,3.382,1.317l-1.42,1.42a2.985,2.985,0,0,0-1.962-.723,3.046,3.046,0,1,0,0,6.092A2.747,2.747,0,0,0,645.1,118.7h-2.736v-1.936h4.75c.416,1.969-.335,5.938-4.75,5.938a5.047,5.047,0,1,1,0-10.094Zm19.723.826a2.478,2.478,0,1,1-2.478,2.478A2.479,2.479,0,0,1,662.087,113.435Z" transform="translate(-634 -106)" fill="#e4e4da"/>
</svg>
