<svg xmlns="http://www.w3.org/2000/svg" width="803.241" height="787.616" viewBox="0 0 803.241 787.616">
  <g id="BG" transform="translate(-127.033 -43.744)" style="mix-blend-mode: overlay;isolation: isolate">
    <path id="Path_3108" data-name="Path 3108" d="M242.3,43.849c-242.806,0-53.632,155.734,132.759,201.176s357.7,456.375,80.194,447.353-155.236,321.005,3.1-6.213,61.014-307.625,162.682-101.25,282.731,7.194-16.907-101.968,92.507-155.574-58.9-87.95S373.236,43.849,242.3,43.849Z" transform="translate(0)" fill="none" stroke="#f9c20a" stroke-miterlimit="10" stroke-width="0.209"/>
    <path id="Path_3109" data-name="Path 3109" d="M606.606,476.592c-292.835-107.6,87.05-154.7-63.882-84.745S372.179,46.43,242.009,44.849C1.482,41.938,186.957,197.94,372.34,243.9c186.4,46.717,354.75,451.636,82.488,442.068S303.146,1005,460.639,682.206c158.608-322.8,63.587-305.7,162.028-102.558S899.442,584.189,606.606,476.592Z" transform="translate(1.298 4.184)" fill="none" stroke="#f9c20a" stroke-miterlimit="10" stroke-width="0.208"/>
    <path id="Path_3110" data-name="Path 3110" d="M609.052,470.3C323.019,364.27,690.645,316.47,540.19,388.757S371.114,49.07,241.684,45.913C3.461,40.1,185.328,195.885,369.6,242.838c186.531,47.532,351.785,446.9,84.777,436.782S305.351,996.235,462.9,678.3c157.981-318.813,66.155-303.76,161.374-103.866S895.09,576.333,609.052,470.3Z" transform="translate(2.62 8.309)" fill="none" stroke="#f9c20a" stroke-miterlimit="10" stroke-width="0.207"/>
    <path id="Path_3111" data-name="Path 3111" d="M611.507,464.07c-279.23-104.466,76.136-152.958-73.841-78.339s-167.592-333.946-296.3-338.7c-235.907-8.695-57.712,147.1,125.49,194.8C553.463,290.42,715.689,684,453.928,673.334s-145.914,314.417,11.23,1.131C622.967,359.845,533.881,372.64,625.884,569.292S890.742,568.541,611.507,464.07Z" transform="translate(3.934 12.37)" fill="none" stroke="#f9c20a" stroke-miterlimit="10" stroke-width="0.207"/>
    <path id="Path_3112" data-name="Path 3112" d="M613.962,457.9c-272.433-102.9,70.673-152.089-78.827-75.139s-166.1-328.2-294.09-334.54C7.475,36.648,181.977,192.452,364.112,240.89,550.8,290.534,709.985,678.31,453.478,667.1s-142.794,312.225,13.938,3.586c157.648-310.434,71.3-299.9,160.071-106.482S886.39,560.8,613.962,457.9Z" transform="translate(5.253 16.378)" fill="none" stroke="#f9c20a" stroke-miterlimit="10" stroke-width="0.206"/>
    <path id="Path_3113" data-name="Path 3113" d="M616.408,451.773C350.777,350.438,681.629,300.558,532.6,379.84S368.011,57.388,240.725,49.449C9.5,35.034,180.29,190.828,361.369,240c186.761,50.711,342.908,432.681,91.66,420.92s-139.68,310.022,16.644,6.031C627.156,360.7,543.536,368.99,629.091,559.166S882.033,553.114,616.408,451.773Z" transform="translate(6.575 20.329)" fill="none" stroke="#f9c20a" stroke-miterlimit="10" stroke-width="0.205"/>
    <path id="Path_3114" data-name="Path 3114" d="M618.849,445.7c-258.828-99.776,59.765-150.347-88.787-68.733S367,60.274,240.4,50.733C11.549,33.488,178.6,189.265,358.617,239.156,545.458,290.938,698.571,667.1,452.571,654.79s-136.549,307.819,19.351,8.48C629.249,361.2,548.353,367.24,630.685,554.178S877.678,545.473,618.849,445.7Z" transform="translate(7.902 24.234)" fill="none" stroke="#f9c20a" stroke-miterlimit="10" stroke-width="0.204"/>
    <path id="Path_3115" data-name="Path 3115" d="M621.291,439.677C369.265,341.472,675.6,290.2,527.525,374.15S365.99,63.218,240.066,52.062c-226.461-20.054-63.153,135.691,115.8,186.3,186.917,52.86,336.99,423.2,96.243,410.344s-133.419,305.615,22.064,10.93c157.166-297.891,79-294.1,158.109-110.395S873.317,537.888,621.291,439.677Z" transform="translate(9.229 28.088)" fill="none" stroke="#f9c20a" stroke-miterlimit="10" stroke-width="0.204"/>
    <path id="Path_3116" data-name="Path 3116" d="M623.726,433.7c-245.223-96.645,48.851-148.6-98.746-62.327S364.995,66.207,239.735,53.438C15.675,30.591,175.221,186.294,353.11,237.61c187,53.938,334.037,418.465,98.537,405.058s-130.277,303.406,24.771,13.38c157.021-293.72,81.566-292.16,157.455-111.7S868.95,530.343,623.726,433.7Z" transform="translate(10.562 31.902)" fill="none" stroke="#f9c20a" stroke-miterlimit="10" stroke-width="0.203"/>
    <path id="Path_3117" data-name="Path 3117" d="M626.161,427.758c-238.421-95.08,43.4-147.731-103.727-59.121S364.009,69.251,239.4,54.853C17.762,29.245,173.523,184.889,350.351,236.9c187.083,55.026,331.078,413.726,100.832,399.773s-127.136,301.2,27.478,15.83C635.542,362.95,562.8,362.274,635.467,539.493S864.582,522.838,626.161,427.758Z" transform="translate(11.896 35.671)" fill="none" stroke="#f9c20a" stroke-miterlimit="10" stroke-width="0.202"/>
    <path id="Path_3118" data-name="Path 3118" d="M628.595,421.859C396.976,328.345,666.536,275,519.888,365.938S363.033,72.342,239.06,56.308C19.857,27.956,171.828,183.525,347.6,236.229c187.158,56.12,328.119,408.993,103.121,394.487S326.732,929.7,480.906,648.991C637.648,363.6,567.613,360.7,637.053,534.677S860.218,515.374,628.595,421.859Z" transform="translate(13.231 39.404)" fill="none" stroke="#f9c20a" stroke-miterlimit="10" stroke-width="0.201"/>
    <path id="Path_3119" data-name="Path 3119" d="M631.025,415.994c-224.816-91.949,32.485-145.989-113.686-52.716S362.07,75.477,238.719,57.8C21.971,26.733,170.126,182.205,344.831,235.6c187.244,57.224,325.16,404.254,105.421,389.2s-120.832,296.77,32.892,20.729c156.614-281.235,89.274-286.365,155.5-115.627S855.846,507.944,631.025,415.994Z" transform="translate(14.569 43.098)" fill="none" stroke="#f9c20a" stroke-miterlimit="10" stroke-width="0.201"/>
    <path id="Path_3120" data-name="Path 3120" d="M633.454,410.165c-218.018-90.389,27.033-145.121-118.666-49.515s-153.671-282-276.405-301.327c-214.288-33.755-69.96,121.6,103.684,175.67C529.4,293.321,664.266,634.509,449.78,618.9s-117.664,294.551,35.6,23.174C641.87,365,577.227,357.648,640.224,525.148S851.472,500.549,633.454,410.165Z" transform="translate(15.909 46.762)" fill="none" stroke="#f9c20a" stroke-miterlimit="10" stroke-width="0.2"/>
    <path id="Path_3121" data-name="Path 3121" d="M635.882,404.364c-211.216-88.819,21.576-144.247-123.646-46.31S360.173,81.874,238.039,60.877C26.233,24.463,166.717,179.688,339.3,234.425c187.41,59.438,319.242,394.777,110,378.626s-114.49,292.332,38.312,25.623c156.367-272.932,94.415-282.5,154.19-118.237S847.1,493.189,635.882,404.364Z" transform="translate(17.249 50.391)" fill="none" stroke="#f9c20a" stroke-miterlimit="10" stroke-width="0.199"/>
    <path id="Path_3122" data-name="Path 3122" d="M638.307,398.6c-204.413-87.259,16.119-143.378-128.626-43.109S359.238,85.138,237.693,62.463C28.385,23.411,165.015,178.481,336.536,233.882c187.5,60.553,316.283,390.038,112.3,373.335S337.522,897.335,489.853,635.29C646.107,366.5,586.841,354.73,643.389,515.75S842.726,485.849,638.307,398.6Z" transform="translate(18.592 53.995)" fill="none" stroke="#f9c20a" stroke-miterlimit="10" stroke-width="0.198"/>
    <path id="Path_3123" data-name="Path 3123" d="M640.736,392.852c-197.611-85.694,10.662-142.5-133.606-39.909S358.321,88.438,237.355,64.074c-206.81-41.657-74.05,113.241,96.42,169.3C521.351,295.049,647.1,618.67,448.362,601.42S340.24,889.313,492.093,631.943c156.147-264.655,99.551-278.63,152.883-120.848S838.352,478.545,640.736,392.852Z" transform="translate(19.932 57.567)" fill="none" stroke="#f9c20a" stroke-miterlimit="10" stroke-width="0.198"/>
    <path id="Path_3124" data-name="Path 3124" d="M643.169,387.134c-190.814-84.128,5.2-141.636-138.591-36.709S357.409,91.773,237.011,65.71c-204.29-44.23-75.412,110.47,94,167.168C518.67,295.688,641.373,613.44,447.89,595.642s-104.927,285.663,46.438,32.973c156.051-260.528,102.124-276.7,152.228-122.156S833.977,471.262,643.169,387.134Z" transform="translate(21.273 61.12)" fill="none" stroke="#f9c20a" stroke-miterlimit="10" stroke-width="0.197"/>
    <path id="Path_3125" data-name="Path 3125" d="M645.6,381.437c-184.011-82.563-.252-140.762-143.571-33.5S356.509,95.152,236.669,67.368C34.909,20.6,159.89,175.072,328.243,232.414c187.747,63.941,307.411,375.822,119.181,357.473S345.7,873.331,496.564,625.309c155.965-256.395,104.691-274.765,151.58-123.458S829.6,464,645.6,381.437Z" transform="translate(22.612 64.646)" fill="none" stroke="#f9c20a" stroke-miterlimit="10" stroke-width="0.196"/>
    <path id="Path_3126" data-name="Path 3126" d="M648.028,375.763c-177.209-81-5.709-139.9-148.551-30.3S355.621,98.559,236.333,69.049C37.1,19.765,158.187,174,325.484,231.967c187.828,65.088,304.446,371.083,121.47,352.187s-98.505,281.214,51.852,37.872C654.685,369.749,606.065,349.2,649.727,497.26S825.237,456.761,648.028,375.763Z" transform="translate(23.951 68.153)" fill="none" stroke="#f9c20a" stroke-miterlimit="10" stroke-width="0.195"/>
    <path id="Path_3127" data-name="Path 3127" d="M650.46,370.107c-170.406-79.433-11.166-139.026-153.537-27.1S354.74,102,235.993,70.747c-196.678-51.761-79.513,102.2,86.728,160.795,187.914,66.235,301.487,366.345,123.764,346.9S351.2,857.423,501.045,618.761C656.849,370.6,610.877,347.866,651.317,492.686S820.866,449.539,650.46,370.107Z" transform="translate(25.287 71.639)" fill="none" stroke="#f9c20a" stroke-miterlimit="10" stroke-width="0.195"/>
    <path id="Path_3128" data-name="Path 3128" d="M652.9,364.471c-163.6-77.873-16.623-138.157-158.511-23.9s-140.51-235.1-258.726-268.107c-194.127-54.211-80.88,99.454,84.311,158.667C507.963,298.52,618.5,592.738,446.022,572.749S353.977,849.5,503.289,615.515C659.034,371.466,615.694,346.55,652.907,488.133S816.5,442.338,652.9,364.471Z" transform="translate(26.619 75.11)" fill="none" stroke="#f9c20a" stroke-miterlimit="10" stroke-width="0.194"/>
    <path id="Path_3129" data-name="Path 3129" d="M655.336,358.847c-156.8-76.307-22.075-137.283-163.5-20.692S353.018,108.981,235.327,74.2c-191.564-56.618-82.252,96.72,81.888,156.544,188.074,68.551,295.569,356.872,128.347,336.326s-88.8,274.518,59.979,45.221C661.227,372.339,620.509,345.253,654.505,483.6S812.137,435.154,655.336,358.847Z" transform="translate(27.948 78.562)" fill="none" stroke="#f9c20a" stroke-miterlimit="10" stroke-width="0.193"/>
    <path id="Path_3130" data-name="Path 3130" d="M657.777,353.237c-150-74.737-27.532-136.4-168.476-17.486S352.173,112.516,235,75.942c-189-58.987-83.624,93.992,79.459,154.421C502.622,300.076,607.078,582.5,445.1,561.4S359.56,833.681,507.79,609.069C663.433,373.226,625.33,343.968,656.1,479.076S807.776,427.979,657.777,353.237Z" transform="translate(29.275 82.001)" fill="none" stroke="#f9c20a" stroke-miterlimit="10" stroke-width="0.192"/>
    <path id="Path_3131" data-name="Path 3131" d="M660.227,347.645c-143.2-73.177-32.989-135.541-173.456-14.286S351.337,116.08,234.681,77.7c-186.434-61.335-85,91.269,77.042,152.293,188.235,70.888,289.651,347.4,132.936,325.754s-82.279,270.043,65.393,50.116C665.657,374.115,630.16,342.7,657.708,474.566S803.428,420.821,660.227,347.645Z" transform="translate(30.594 85.428)" fill="none" stroke="#f9c20a" stroke-miterlimit="10" stroke-width="0.192"/>
    <path id="Path_3132" data-name="Path 3132" d="M662.682,342.06c-136.4-71.606-38.446-134.668-178.436-11.08S350.517,119.678,234.365,79.474C50.5,15.839,147.99,168.03,308.984,229.644,497.3,301.716,595.681,572.3,444.214,550.108s-79,267.813,68.1,52.565c155.579-227.657,122.676-261.23,147-132.6S799.081,413.671,662.682,342.06Z" transform="translate(31.907 88.842)" fill="none" stroke="#f9c20a" stroke-miterlimit="10" stroke-width="0.191"/>
    <path id="Path_3133" data-name="Path 3133" d="M665.144,336.489c-129.6-70.046-43.9-133.8-183.416-7.88S349.7,123.3,234.054,81.258C52.766,15.35,146.308,167.1,306.25,229.3c188.4,73.257,283.739,337.918,137.525,315.178s-75.7,265.572,70.807,55.015c155.574-223.577,125.249-259.3,146.353-133.912S794.74,406.535,665.144,336.489Z" transform="translate(33.214 92.247)" fill="none" stroke="#f9c20a" stroke-miterlimit="10" stroke-width="0.19"/>
    <path id="Path_3134" data-name="Path 3134" d="M667.61,330.93c-122.794-68.486-49.355-132.931-188.4-4.68S348.9,126.951,233.755,83.048C55.04,14.91,144.625,166.2,303.527,228.967,491.993,303.42,584.307,562.146,443.341,538.86s-72.394,263.331,73.52,57.46C672.429,376.827,644.672,338.955,662.555,461.105S790.4,399.411,667.61,330.93Z" transform="translate(34.516 95.64)" fill="none" stroke="#f9c20a" stroke-miterlimit="10" stroke-width="0.189"/>
    <path id="Path_3135" data-name="Path 3135" d="M670.088,325.373C554.1,258.457,615.277,193.316,476.712,323.9S348.1,130.63,233.462,84.851C57.315,14.51,142.955,165.3,300.812,228.642,489.358,304.3,578.632,557.082,442.92,533.249s-69.071,261.09,76.227,59.909C674.725,377.74,649.531,337.729,664.192,456.631S786.085,392.288,670.088,325.373Z" transform="translate(35.806 99.026)" fill="none" stroke="#f9c20a" stroke-miterlimit="10" stroke-width="0.189"/>
    <path id="Path_3136" data-name="Path 3136" d="M672.574,319.825c-109.189-65.35-60.269-131.183-198.356,1.732S347.323,134.34,233.176,86.658c-173.574-72.5-91.89,77.765,64.932,141.668,188.616,76.859,274.862,323.7,144.4,299.316s-65.736,258.86,78.934,62.365C677.045,378.657,654.4,336.507,665.83,452.171S781.768,385.181,672.574,319.825Z" transform="translate(37.089 102.403)" fill="none" stroke="#f9c20a" stroke-miterlimit="10" stroke-width="0.188"/>
    <path id="Path_3137" data-name="Path 3137" d="M675.076,314.287c-102.392-63.79-65.726-130.315-203.341,4.926S346.55,138.065,232.907,88.474c-171.017-74.629-93.279,75.08,62.5,139.54,188.686,78.076,271.9,318.968,146.7,294.031s-62.386,256.62,81.641,64.809c155.643-207.282,135.52-251.565,143.738-139.138S777.462,378.077,675.076,314.287Z" transform="translate(38.361 105.775)" fill="none" stroke="#f9c20a" stroke-miterlimit="10" stroke-width="0.187"/>
    <path id="Path_3138" data-name="Path 3138" d="M677.577,308.752c-95.584-62.22-71.177-129.441-208.316,8.137s-123.475-175.065-236.62-226.6C64.187,13.574,137.98,162.7,292.723,227.712c188.755,79.3,268.944,314.229,148.991,288.745s-59.02,254.384,84.348,67.259c155.7-203.223,138.093-249.635,143.084-140.446S773.166,370.978,677.577,308.752Z" transform="translate(39.623 109.139)" fill="none" stroke="#f9c20a" stroke-miterlimit="10" stroke-width="0.186"/>
    <path id="Path_3139" data-name="Path 3139" d="M680.1,303.228c-88.787-60.66-76.64-128.573-213.3,11.332S345.031,145.612,232.39,92.125c-165.9-78.784-96.05,69.735,57.663,135.289C478.873,307.94,556.038,536.9,441.333,510.868s-55.632,252.154,87.06,69.708c155.767-199.16,140.661-247.7,142.43-141.749S768.889,363.888,680.1,303.228Z" transform="translate(40.871 112.498)" fill="none" stroke="#f9c20a" stroke-miterlimit="10" stroke-width="0.186"/>
    <path id="Path_3140" data-name="Path 3140" d="M682.634,297.7c-81.984-59.095-82.1-127.7-218.281,14.538S344.282,149.421,232.151,93.955c-163.357-80.8-97.439,67.076,55.24,133.166C476.28,308.886,550.417,531.874,440.965,505.291s-52.228,249.919,89.768,72.158C686.585,382.341,673.961,331.684,672.508,434.392S764.618,356.8,682.634,297.7Z" transform="translate(42.108 115.851)" fill="none" stroke="#f9c20a" stroke-miterlimit="10" stroke-width="0.185"/>
    <path id="Path_3141" data-name="Path 3141" d="M685.18,292.187c-75.187-57.529-87.548-126.83-223.261,17.738S343.548,153.252,231.93,95.792C71.1,13,133.1,160.21,284.748,226.831,473.7,309.839,544.815,526.844,440.611,499.714S391.8,747.4,533.086,574.322c155.954-191.055,145.8-243.835,141.127-144.365S760.362,349.716,685.18,292.187Z" transform="translate(43.331 119.203)" fill="none" stroke="#f9c20a" stroke-miterlimit="10" stroke-width="0.184"/>
    <path id="Path_3142" data-name="Path 3142" d="M687.741,286.672c-68.384-55.964-93.005-125.957-228.241,20.944S342.817,157.113,231.72,97.633C73.412,12.883,131.494,159.4,282.114,226.548c189.007,84.257,257.107,295.275,158.157,267.593s-45.366,245.47,95.187,77.058c156.072-187,148.369-241.9,140.468-145.667S756.12,342.642,687.741,286.672Z" transform="translate(44.538 122.546)" fill="none" stroke="#f9c20a" stroke-miterlimit="10" stroke-width="0.183"/>
    <path id="Path_3143" data-name="Path 3143" d="M690.316,281.164c-61.582-54.4-98.462-125.088-233.221,24.144S342.1,160.992,231.524,99.48C75.731,12.8,129.9,158.606,279.5,226.267,468.562,311.784,533.649,516.8,439.952,488.574s-41.914,243.245,97.889,79.508C694.053,385.121,688.778,328.112,677.66,421.107S751.9,335.563,690.316,281.164Z" transform="translate(45.731 125.888)" fill="none" stroke="#f9c20a" stroke-miterlimit="10" stroke-width="0.183"/>
    <path id="Path_3144" data-name="Path 3144" d="M692.911,275.657c-54.779-52.833-103.919-124.214-238.2,27.35S341.388,164.9,231.352,101.327C78.046,12.755,128.328,157.817,276.9,225.992c189.115,86.782,251.19,285.8,162.746,257.022s-38.43,241.026,100.6,81.952c156.372-178.908,153.51-238.035,139.165-148.283S747.69,328.5,692.911,275.657Z" transform="translate(46.905 129.224)" fill="none" stroke="#f9c20a" stroke-miterlimit="10" stroke-width="0.182"/>
    <path id="Path_3145" data-name="Path 3145" d="M695.522,270.156c-47.977-51.274-109.371-123.346-243.181,30.55S340.681,168.831,231.192,103.181C80.373,12.743,126.763,157.038,274.317,225.717c189.168,88.052,248.236,281.058,165.04,251.736s-34.929,238.812,103.308,84.4c156.544-174.861,156.078-236.1,138.511-149.591S743.5,321.424,695.522,270.156Z" transform="translate(48.063 132.56)" fill="none" stroke="#f9c20a" stroke-miterlimit="10" stroke-width="0.181"/>
    <path id="Path_3146" data-name="Path 3146" d="M698.153,264.656c-41.174-49.7-114.828-122.472-248.161,33.755S339.983,172.787,231.051,105.035C82.7,12.764,125.218,156.266,271.754,225.449c189.216,89.333,245.277,276.32,167.335,246.445S407.686,708.5,545.1,558.751c156.748-170.819,158.645-234.17,137.857-150.9S739.327,314.364,698.153,264.656Z" transform="translate(49.2 135.889)" fill="none" stroke="#f9c20a" stroke-miterlimit="10" stroke-width="0.18"/>
    <path id="Path_3147" data-name="Path 3147" d="M700.8,259.163c-34.372-48.143-120.285-121.6-253.141,36.955S339.291,176.766,230.934,106.9c-145.909-94.083-107.243,48.609,38.28,118.286,189.254,90.62,242.313,271.581,169.624,241.16s-27.853,234.411,108.728,89.3c156.962-166.766,161.213-232.235,137.2-152.2S735.178,307.306,700.8,259.163Z" transform="translate(50.321 139.216)" fill="none" stroke="#f9c20a" stroke-miterlimit="10" stroke-width="0.18"/>
    <path id="Path_3148" data-name="Path 3148" d="M703.473,253.669C675.9,207.092,577.731,132.939,445.352,293.83S338.613,180.771,230.834,108.758c-143.48-95.862-108.653,46,35.857,116.163C455.988,316.833,506.05,491.768,438.609,460.8s-24.283,232.219,111.435,91.751c157.208-162.714,163.786-230.3,136.549-153.51S731.047,300.247,703.473,253.669Z" transform="translate(51.417 142.539)" fill="none" stroke="#f9c20a" stroke-miterlimit="10" stroke-width="0.179"/>
    <path id="Path_3149" data-name="Path 3149" d="M706.164,248.186c-20.767-45.012-131.194-119.862-263.1,43.361S337.938,184.8,230.754,110.624C89.686,13,120.692,154.018,264.193,224.664c189.329,93.214,236.395,262.109,174.212,230.584s-20.692,230.042,114.137,94.2c157.482-158.656,166.353-228.37,135.9-154.812S726.936,293.2,706.164,248.186Z" transform="translate(52.494 145.856)" fill="none" stroke="#f9c20a" stroke-miterlimit="10" stroke-width="0.178"/>
    <path id="Path_3150" data-name="Path 3150" d="M708.883,242.7c-13.97-43.447-136.656-118.988-268.086,46.567S337.264,188.847,230.7,112.5C92.025,13.139,119.219,153.285,261.712,224.408c189.361,94.522,233.441,257.37,176.507,225.3s-17.073,227.871,116.849,96.65c157.771-154.593,168.921-226.435,135.241-156.12S722.847,286.151,708.883,242.7Z" transform="translate(53.549 149.173)" fill="none" stroke="#f9c20a" stroke-miterlimit="10" stroke-width="0.177"/>
    <path id="Path_3151" data-name="Path 3151" d="M711.621,237.223C704.448,195.336,569.507,119.1,438.55,286.99S336.6,192.923,230.668,114.37C94.36,13.3,117.769,152.559,259.256,224.159,448.649,320,489.737,476.791,438.056,444.172s-13.423,225.711,119.556,99.095C715.705,392.743,729.107,318.767,692.2,385.844S718.782,279.1,711.621,237.223Z" transform="translate(54.58 152.483)" fill="none" stroke="#f9c20a" stroke-miterlimit="10" stroke-width="0.177"/>
    <path id="Path_3152" data-name="Path 3152" d="M714.384,231.743c-.37-40.317-147.57-117.246-278.046,52.973s-100.392-87.7-205.679-168.466C96.7,13.489,116.34,151.845,256.829,223.912,446.244,321.077,484.347,471.8,437.919,438.633s-9.751,223.572,122.263,101.55c158.441-146.445,174.062-222.57,133.938-158.736S714.748,272.065,714.384,231.743Z" transform="translate(55.586 155.791)" fill="none" stroke="#f9c20a" stroke-miterlimit="10" stroke-width="0.176"/>
    <path id="Path_3153" data-name="Path 3153" d="M717.172,226.273c6.433-38.757-153.022-116.377-283.031,56.173s-98.848-81.319-203.465-164.311C99.043,13.7,114.932,151.14,254.424,223.668,443.86,322.168,478.988,466.822,437.808,433.1s-6.052,221.444,124.976,104C721.6,394.744,739.413,316.464,696.068,377.06S710.734,265.024,717.172,226.273Z" transform="translate(56.565 159.096)" fill="none" stroke="#f9c20a" stroke-miterlimit="10" stroke-width="0.175"/>
    <path id="Path_3154" data-name="Path 3154" d="M719.985,220.8c13.235-37.191-158.479-115.5-288.011,59.373s-97.331-74.908-201.251-160.157c-129.334-106.085-117.176,30.426,21.324,103.41,189.447,99.835,221.6,238.415,185.673,204.151S435.4,646.913,565.4,534.026c159.224-138.248,179.2-218.7,132.63-161.347S706.744,258,719.985,220.8Z" transform="translate(57.521 162.394)" fill="none" stroke="#f9c20a" stroke-miterlimit="10" stroke-width="0.174"/>
    <path id="Path_3155" data-name="Path 3155" d="M722.827,215.348c20.038-35.626-163.936-114.635-292.991,62.574s-95.83-68.492-199.042-156.008C103.738,14.189,112.186,149.762,249.695,223.2,439.153,324.387,468.341,456.878,437.668,422.067s1.426,217.236,130.39,108.894C727.71,396.829,749.823,314.191,700.034,368.306S702.784,250.974,722.827,215.348Z" transform="translate(66.187 164.394)" fill="none" stroke="#f9c20a" stroke-miterlimit="10" stroke-width="0.174"/>
    <path id="Path_3156" data-name="Path 3156" d="M725.7,209.89c26.84-34.061-169.393-113.761-297.971,65.779S333.369,213.61,230.892,123.815C106.093,14.46,110.848,149.09,247.37,222.975,436.833,325.511,463.057,451.913,437.637,416.549s5.21,215.167,133.1,111.344C730.853,397.905,755.072,313.059,702.056,363.935S698.856,243.95,725.7,209.89Z" transform="translate(59.347 168.972)" fill="none" stroke="#f9c20a" stroke-miterlimit="10" stroke-width="0.173"/>
    <path id="Path_3157" data-name="Path 3157" d="M728.592,204.443c33.643-32.5-174.845-112.893-302.951,68.979s-92.9-55.61-194.625-147.7c-122.563-110.963-121.481,22.707,14.061,97.036,189.457,103.9,212.728,224.2,192.556,188.289s9.022,213.114,135.8,113.794c160.618-125.828,186.911-212.9,130.674-165.266S694.949,236.939,728.592,204.443Z" transform="translate(60.219 172.252)" fill="none" stroke="#f9c20a" stroke-miterlimit="10" stroke-width="0.172"/>
    <path id="Path_3158" data-name="Path 3158" d="M731.519,199c40.445-30.93-180.3-112.019-307.931,72.185s-91.472-49.145-192.411-143.55c-120.366-112.566-122.923,20.145,11.632,94.908,189.452,105.27,209.769,219.466,194.85,183S450.524,616.63,576.175,521.786C737.324,400.139,765.649,310.811,706.19,355.212S691.073,229.926,731.519,199Z" transform="translate(61.061 175.529)" fill="none" stroke="#f9c20a" stroke-miterlimit="10" stroke-width="0.171"/>
    <path id="Path_3159" data-name="Path 3159" d="M734.476,193.563c47.248-29.37-185.759-111.151-312.911,75.385s-90.068-42.67-190.2-139.4c-118.184-114.158-124.37,17.588,9.209,92.786C430.014,328.981,447.387,437.06,437.717,400.046s16.73,209.093,141.223,118.693C740.652,401.316,770.987,309.7,708.306,350.863S687.234,222.928,734.476,193.563Z" transform="translate(61.872 178.796)" fill="none" stroke="#f9c20a" stroke-miterlimit="10" stroke-width="0.171"/>
    <path id="Path_3160" data-name="Path 3160" d="M737.464,188.13c54.05-27.8-191.216-110.277-317.891,78.591s-88.685-36.184-187.994-135.246C115.55,15.73,105.762,146.506,238.371,222.132,427.791,330.169,442.221,432.121,437.8,394.559S458.432,601.68,581.735,515.7c162.306-113.177,194.62-207.1,128.712-169.184S683.419,215.935,737.464,188.13Z" transform="translate(62.653 182.058)" fill="none" stroke="#f9c20a" stroke-miterlimit="10" stroke-width="0.17"/>
    <path id="Path_3161" data-name="Path 3161" d="M740.48,182.713C801.333,156.473,543.807,73.3,417.609,264.5s-87.328-29.681-185.78-131.1c-113.9-117.321-127.27,12.479,4.364,88.535,189.4,109.43,200.892,205.25,201.733,167.142s24.546,205.18,146.637,123.587C747.5,403.787,781.745,307.5,712.621,342.183S679.633,208.947,740.48,182.713Z" transform="translate(63.405 185.31)" fill="none" stroke="#f9c20a" stroke-miterlimit="10" stroke-width="0.169"/>
    <path id="Path_3162" data-name="Path 3162" d="M743.532,177.3c67.655-24.675-202.124-108.535-327.851,85s-86-23.174-183.572-126.943c-111.8-118.9-128.728,9.933,1.946,86.406C423.422,332.586,431.988,422.268,438.078,383.613S466.569,586.885,587.423,509.65c163.593-104.552,199.755-203.24,127.4-171.8S675.882,201.972,743.532,177.3Z" transform="translate(64.121 188.554)" fill="none" stroke="#f9c20a" stroke-miterlimit="10" stroke-width="0.168"/>
    <path id="Path_3163" data-name="Path 3163" d="M746.615,171.9c74.453-23.109-207.582-107.666-332.831,88.2s-84.7-16.655-181.363-122.794c-109.72-120.473-130.186,7.392-.477,84.284C421.279,333.822,426.918,417.356,438.261,378.149S470.724,579.56,590.318,506.635c164.284-100.172,202.323-201.3,126.75-173.1S672.163,195.006,746.615,171.9Z" transform="translate(64.807 191.789)" fill="none" stroke="#f9c20a" stroke-miterlimit="10" stroke-width="0.168"/>
    <path id="Path_3164" data-name="Path 3164" d="M749.732,166.5C830.987,144.952,536.693,59.7,411.921,257.9S328.5,247.768,232.767,139.259c-107.666-122.043-131.649,4.851-2.9,82.156,189.291,113.66,192.02,191.034,208.611,151.28s36.457,199.578,154.764,130.937c165.014-95.739,204.891-199.369,126.1-174.411S668.482,188.04,749.732,166.5Z" transform="translate(65.459 195.018)" fill="none" stroke="#f9c20a" stroke-miterlimit="10" stroke-width="0.167"/>
    <path id="Path_3165" data-name="Path 3165" d="M752.883,161.109c88.052-19.979-218.5-105.919-342.8,94.608s-82.172-3.6-176.941-114.49c-105.64-123.614-133.118,2.321-5.323,80.033,189.243,115.08,189.055,186.295,210.9,145.994S479.19,565.042,596.195,500.64C761.959,409.393,803.658,303.2,721.642,324.921S664.826,181.093,752.883,161.109Z" transform="translate(66.081 198.235)" fill="none" stroke="#f9c20a" stroke-miterlimit="10" stroke-width="0.166"/>
    <path id="Path_3166" data-name="Path 3166" d="M756.067,155.732c94.855-18.413-223.953-105.05-347.776,97.808S327.342,256.483,233.559,143.2C129.924,18.02,98.967,143,225.813,221.109c189.19,116.517,186.1,181.556,213.194,140.7s44.5,196.046,160.184,135.836c166.547-86.68,210.031-195.5,124.788-177.021S661.207,174.145,756.067,155.732Z" transform="translate(66.666 201.446)" fill="none" stroke="#f9c20a" stroke-miterlimit="10" stroke-width="0.165"/>
    <path id="Path_3167" data-name="Path 3167" d="M759.282,150.37C860.94,133.517,529.872,46.188,406.526,251.379S326.772,260.867,234,145.192c-101.657-126.761-136.061-2.734-10.169,75.782C412.959,338.927,406.977,397.791,439.328,356.392s48.54,194.346,162.885,138.286c167.351-82.048,212.6-193.574,124.14-178.329S657.62,167.219,759.282,150.37Z" transform="translate(67.219 204.642)" fill="none" stroke="#f9c20a" stroke-miterlimit="10" stroke-width="0.165"/>
    <path id="Path_3168" data-name="Path 3168" d="M762.533,145.011C870.992,129.722,527.666,41.7,404.8,249.225s-78.585,16.033-170.31-102.032C134.776,18.85,96.941,141.934,221.9,220.846c189.055,119.4,180.184,172.084,217.783,130.133s52.6,192.69,165.592,140.73C773.452,414.378,820.443,300.07,728.756,312.077S654.073,160.3,762.533,145.011Z" transform="translate(67.737 207.831)" fill="none" stroke="#f9c20a" stroke-miterlimit="10" stroke-width="0.164"/>
    <path id="Path_3169" data-name="Path 3169" d="M765.819,139.664C881.081,125.946,525.495,37.229,403.1,247.078S325.665,269.668,235,149.2c-97.782-129.923-139.031-7.778-15.015,71.531C408.967,341.59,397.212,388.077,440.064,345.573s56.661,191.092,168.3,143.185c169.023-72.534,217.74-189.7,122.831-180.94S650.556,153.387,765.819,139.664Z" transform="translate(68.22 211.006)" fill="none" stroke="#f9c20a" stroke-miterlimit="10" stroke-width="0.163"/>
    <path id="Path_3170" data-name="Path 3170" d="M769.136,134.331C891.2,122.174,523.361,32.765,401.44,244.946s-76.323,29.145-165.893-93.724c-95.873-131.515-140.516-10.3-17.432,69.4C407,342.947,392.376,383.232,440.481,340.181s60.724,189.543,171.012,145.635C781.379,418.172,831.8,298.042,733.671,303.564S647.071,146.489,769.136,134.331Z" transform="translate(68.671 214.173)" fill="none" stroke="#f9c20a" stroke-miterlimit="10" stroke-width="0.162"/>
    <path id="Path_3171" data-name="Path 3171" d="M772.488,129.007c128.867-10.592-251.232-100.692-372.675,113.82s-75.23,35.7-163.684-89.575c-93.986-133.113-142.006-12.806-19.855,67.28C405.071,344.324,387.58,378.4,440.933,334.8s64.787,188.048,173.724,148.08C785.407,420.24,837.533,297.044,736.181,299.328S643.621,139.6,772.488,129.007Z" transform="translate(69.087 217.326)" fill="none" stroke="#f9c20a" stroke-miterlimit="10" stroke-width="0.162"/>
    <path id="Path_3172" data-name="Path 3172" d="M775.876,123.7c135.67-9.027-256.689-99.824-377.655,117.021S324.057,282.974,236.75,155.3c-92.132-134.721-143.507-15.315-22.284,65.163,188.7,125.265,168.348,153.124,226.954,108.98s68.84,186.606,176.431,150.529C789.47,422.423,843.3,296.059,738.722,295.1S640.211,132.728,775.876,123.7Z" transform="translate(69.468 220.467)" fill="none" stroke="#f9c20a" stroke-miterlimit="10" stroke-width="0.161"/>
    <path id="Path_3173" data-name="Path 3173" d="M779.3,119.993c142.472-7.462-262.146-98.95-382.635,120.226s-73.123,48.8-159.262-81.271c-90.293-136.34-145-17.824-24.7,63.035C401.287,348.738,378.086,370.367,441.946,325.671S514.823,510.894,621.079,478.65C793.56,426.321,849.1,296.676,741.3,292.484S636.829,127.46,779.3,119.993Z" transform="translate(69.817 222.004)" fill="none" stroke="#f9c20a" stroke-miterlimit="10" stroke-width="0.16"/>
    <path id="Path_3174" data-name="Path 3174" d="M782.751,118.575c149.269-5.9-267.6-98.082-387.621,123.426s-72.1,55.353-157.048-77.122c-88.47-137.964-146.509-20.327-27.124,60.912,188.477,128.246,162.43,143.646,231.543,98.4s76.892,183.888,181.846,155.429c173.317-47,230.584-180.039,119.561-187.474S633.482,124.472,782.751,118.575Z" transform="translate(70.129 221.256)" fill="none" stroke="#f9c20a" stroke-miterlimit="10" stroke-width="0.159"/>
    <path id="Path_3175" data-name="Path 3175" d="M786.24,117.156c156.072-4.331-273.055-97.208-392.6,126.632s-71.108,61.9-154.839-72.968C152.126,31.211,90.785,147.99,209.253,229.6c188.353,129.752,159.476,138.908,233.837,93.118S523.976,505.334,627.643,480.6C801.78,439.051,860.8,302.492,746.556,291.819S630.168,121.493,786.24,117.156Z" transform="translate(70.409 220.504)" fill="none" stroke="#f9c20a" stroke-miterlimit="10" stroke-width="0.159"/>
    <path id="Path_3176" data-name="Path 3176" d="M789.761,115.75C952.636,112.978,511.249,19.4,392.186,245.582s-70.137,68.438-152.631-68.819c-84.9-141.261-149.532-25.329-31.97,56.661C395.8,364.682,364.1,367.593,443.712,321.257s84.841,181.384,187.26,160.323C805.9,445.605,866.7,305.405,749.23,291.495S626.892,118.516,789.761,115.75Z" transform="translate(70.656 219.745)" fill="none" stroke="#f9c20a" stroke-miterlimit="10" stroke-width="0.158"/>
    <path id="Path_3177" data-name="Path 3177" d="M793.323,114.338c169.672-1.2-283.974-95.466-402.566,133.038s-69.183,74.978-150.417-64.664C157.2,39.784,89.291,154.885,205.947,237.245,394.022,370.02,359.505,366.68,444.368,319.786S533.122,500.008,634.34,482.564c175.654-30.271,238.292-174.244,117.6-191.393S623.646,115.544,793.323,114.338Z" transform="translate(70.869 218.985)" fill="none" stroke="#f9c20a" stroke-miterlimit="10" stroke-width="0.157"/>
    <path id="Path_3178" data-name="Path 3178" d="M796.91,112.941c176.474.359-289.426-94.6-407.546,136.238s-68.256,81.507-148.208-60.515c-81.405-144.606-152.566-30.319-36.811,52.41,187.919,134.3,150.594,124.7,240.709,77.256s92.614,179.1,192.679,165.223c176.33-24.444,240.865-172.3,116.951-192.7S620.43,112.581,796.91,112.941Z" transform="translate(71.05 218.217)" fill="none" stroke="#f9c20a" stroke-miterlimit="10" stroke-width="0.156"/>
    <path id="Path_3179" data-name="Path 3179" d="M800.531,111.54c183.277,1.924-294.883-93.724-412.526,139.444-31.292,62.023-50.7,97.278-63.8,112.882C288,406.991,299.736,300.607,242.011,194.623c-79.684-146.3-154.1-32.812-39.239,50.276C390.53,380.736,350.406,364.863,445.781,316.876S542.2,494.894,641.167,484.548c176.935-18.5,243.427-170.374,116.3-194.009S617.249,109.616,800.531,111.54Z" transform="translate(71.197 217.447)" fill="none" stroke="#f9c20a" stroke-miterlimit="10" stroke-width="0.156"/>
    <path id="Path_3180" data-name="Path 3180" d="M804.183,110.149c190.079,3.49-300.34-92.855-417.506,142.644s-66.465,94.549-143.786-52.212c-77.98-148-155.627-35.3-41.662,48.159,187.592,137.369,144.681,115.219,245.3,66.68S546.69,492.409,644.627,485.542c177.455-12.436,246-168.439,115.643-195.311S614.1,106.659,804.183,110.149Z" transform="translate(71.313 216.672)" fill="none" stroke="#f9c20a" stroke-miterlimit="10" stroke-width="0.155"/>
    <path id="Path_3181" data-name="Path 3181" d="M807.911,108.761c196.882,5.055-305.8-91.987-422.486,145.85s-65.6,101.062-141.577-48.057c-76.291-149.731-157.284-37.631-44.08,46.031C386.98,391.771,341.485,363.065,447.361,313.979s103.823,175.986,200.8,172.572c177.89-6.266,248.574-166.509,114.994-196.619S611.029,103.711,807.911,108.761Z" transform="translate(71.354 215.889)" fill="none" stroke="#f9c20a" stroke-miterlimit="10" stroke-width="0.154"/>
    <path id="Path_3182" data-name="Path 3182" d="M651.645,487.556c178.211,0,251.136-164.574,114.335-197.922S607.9,100.761,811.582,107.381,500.333,16.263,384.117,256.431,319.372,364,244.753,212.523s-158.7-40.274-46.508,43.908C385.467,396.9,337.008,362.173,448.132,312.54S555.547,487.556,651.645,487.556Z" transform="translate(71.452 215.103)" fill="none" stroke="#f9c20a" stroke-miterlimit="10" stroke-width="0.153"/>
  </g>
</svg>
