<svg
  id="Search"
  xmlns="http://www.w3.org/2000/svg"
  width="30"
  height="30"
  viewBox="0 0 40 40"
>
  <rect
    id="Rectangle_3551"
    data-name="Rectangle 3551"
    width="30"
    height="30"
    fill="#212830"
    opacity="0"
  />
  <g id="Group_17391" data-name="Group 17391" transform="translate(0 0)">
    <path
      id="Icon_metro-search"
      data-name="Icon metro-search"
      d="M26.935,23.325l-5.956-5.065a2.658,2.658,0,0,0-1.806-.784,9.43,9.43,0,1,0-1.055,1.055,2.658,2.658,0,0,0,.784,1.806l5.065,5.956a2.112,2.112,0,1,0,2.968-2.968ZM12,17.643a6.286,6.286,0,1,1,6.286-6.286A6.286,6.286,0,0,1,12,17.643Z"
      transform="translate(4.429 5.072)"
      fill="#fff"
    />
    <circle
      id="Ellipse_721"
      data-name="Ellipse 721"
      cx="5.5"
      cy="5.5"
      r="5.5"
      transform="translate(11 11)"
      fill="rgba(236,236,236,0.25)"
    />
  </g>
</svg>
