<svg
  xmlns="http://www.w3.org/2000/svg"
  width="48"
  height="48"
  viewBox="0 -5 24 35"
>
  <path
    d="M24,24H13.5V13.5H24V24Zm-3-6v4.5h1.5V18Zm-6,0v4.5h4.5V21H18V19.5h1.5V18Zm0-3v1.5h7.5V15Zm-4.5,9H0V13.5H10.5V24ZM4.508,17.81a5.621,5.621,0,0,0-2.843,2.318l-.165.224V22.5H9V21.157a3.078,3.078,0,0,0-.352.076,1.217,1.217,0,0,1-.369.061c-.717,0-1.037-.759-1.208-1.166a3.315,3.315,0,0,0-.659-1.117c-1.2-1.2-1.308-1.2-1.9-1.2Zm0-1.5h0c1.194,0,1.656.332,2.966,1.64a4.643,4.643,0,0,1,.979,1.589c.024.061.05.122.077.181l.045-.01c.121-.023.273-.052.426-.077V15H1.5v3.036A4.958,4.958,0,0,1,4.508,16.31ZM24,10.5H13.5V0H24V10.5Zm-9-3V9h7.5V4.5H21v3Zm0-6V6h4.5V4.5h-3v-3Zm3,0V3h4.5V1.5Zm-7.5,9H0V0H10.5V10.5Zm-9-9V6h.841A2.163,2.163,0,0,1,4.5,8.158V9H9V7.5H8.5A5.524,5.524,0,0,1,3,2V1.5Zm0,6V9H3V8.158A.659.659,0,0,0,2.341,7.5Zm3-6V2A4.018,4.018,0,0,0,8.5,6H9V1.5Z"
    transform="translate(0 0)"
    fill="currentColor"
  />
</svg>
