<svg
  xmlns="http://www.w3.org/2000/svg"
  width="48"
  height="48"
  viewBox="0 0 48 48"
>
  <g
    data-name="Rectangle 5167"
    class="default-main-color"
    fill="currentColor"
    stroke="currentColor"
    stroke-width="3"
    opacity="0"
  >
    <rect width="48" height="48" stroke="none" />
    <rect x="1.5" y="1.5" width="45" height="45" fill="none" />
  </g>
  <g data-name="Group 17307" transform="translate(-330.226 -3420.501)">
    <g
      data-name="Ruler Icon"
      transform="translate(-106.327 2043.107) rotate(45)"
    >
      <g transform="translate(1189.507 557.844) rotate(-45)">
        <g data-name="Group 15376" transform="translate(0.4 160.903)">
          <path
            data-name="Path 6154"
            d="M33.226,177.385H8.281a.8.8,0,0,1-.8-.8v-7.8a.8.8,0,0,1,.8-.8H33.226a.8.8,0,0,1,.8.8v7.8A.8.8,0,0,1,33.226,177.385Z"
            transform="translate(-7.48 -167.983)"
            fill="#e4e4da"
          />
        </g>
        <g data-name="Group 15377" transform="translate(0.4 160.903)">
          <path
            data-name="Path 6155"
            d="M33.228,167.983h-.16v7.644a.8.8,0,0,1-.8.8H7.48v.16a.8.8,0,0,0,.8.8H33.228a.8.8,0,0,0,.8-.8v-7.8A.8.8,0,0,0,33.228,167.983Z"
            transform="translate(-7.48 -167.983)"
            fill="currentColor"
            class="default-sec-color"
          />
        </g>
        <g data-name="Group 15378" transform="translate(2.021 164.042)">
          <circle
            data-name="Ellipse 642"
            cx="1.175"
            cy="1.175"
            r="1.175"
            transform="translate(0 0)"
            fill="#fff"
          />
        </g>
      </g>
      <g
        data-name="Group 15379"
        transform="translate(1303 671.337) rotate(-45)"
      >
        <path
          data-name="Path 6156"
          d="M122.7,160.5H102.4a.4.4,0,1,0,0,.8h.062v4.328a.4.4,0,0,0,.8,0V161.3h1.815v1.5a.4.4,0,1,0,.8,0v-1.5h1.815v4.328a.4.4,0,0,0,.8,0V161.3h1.815v1.5a.4.4,0,1,0,.8,0v-1.5h1.815v4.328a.4.4,0,0,0,.8,0V161.3h1.815v1.5a.4.4,0,1,0,.8,0v-1.5h1.815v4.328a.4.4,0,0,0,.8,0V161.3h1.815v1.5a.4.4,0,1,0,.8,0v-1.5H122.7a.4.4,0,0,1,.4.4v7.8a.4.4,0,0,1-.4.4h-5.17a.4.4,0,0,0,0,.8h5.17a1.2,1.2,0,0,0,1.2-1.2v-7.8a1.2,1.2,0,0,0-1.2-1.2Z"
          transform="translate(-96.554 -160.503)"
          fill="#33363a"
        />
        <path
          data-name="Path 6157"
          d="M18.993,169.905H1.2a.4.4,0,0,1-.4-.4v-7.8a.4.4,0,0,1,.4-.4H3.945a.4.4,0,1,0,0-.8H1.2A1.2,1.2,0,0,0,0,161.7v7.8a1.2,1.2,0,0,0,1.2,1.2H18.993a.4.4,0,0,0,0-.8Z"
          transform="translate(0 -160.503)"
          fill="#33363a"
        />
        <path
          data-name="Path 6158"
          d="M148.762,247.125a.4.4,0,0,0,.4-.4V243.54a.4.4,0,0,0-.4-.4h-.681a.4.4,0,0,0,0,.8h.281v2.786A.4.4,0,0,0,148.762,247.125Z"
          transform="translate(-139.794 -238.726)"
          fill="#33363a"
        />
        <path
          data-name="Path 6159"
          d="M431.807,241.986a.626.626,0,0,0-.417-.563.6.6,0,0,0-.651.234c-.183.225-1.022,1.736-1.274,2.194a.4.4,0,0,0,.35.593h1.191c0,.19,0,.372,0,.537a.4.4,0,0,0,.4.4h0a.4.4,0,0,0,.4-.4c0-.131,0-.321,0-.544h.011a.4.4,0,1,0,0-.8h-.005C431.815,242.882,431.817,242.1,431.807,241.986Zm-.8,1.658h-.517c.188-.336.371-.658.521-.917C431.015,242.993,431.013,243.313,431.011,243.644Z"
          transform="translate(-406.48 -237.078)"
          fill="#33363a"
        />
        <path
          data-name="Path 6160"
          d="M244.073,243.7a1.788,1.788,0,0,0,.026-.214,1.215,1.215,0,0,0-2.407-.235.4.4,0,0,0,.784.154.416.416,0,0,1,.823.06,1.394,1.394,0,0,1-.282.607c-.5.72-.805,1.114-.967,1.326-.2.264-.3.4-.235.615a.414.414,0,0,0,.269.273c.053.018,1.3.031,1.755.025a.4.4,0,0,0,0-.8h-.005c-.293,0-.6.006-.869.007.173-.233.406-.552.712-.989A2.459,2.459,0,0,0,244.073,243.7Z"
          transform="translate(-228.776 -237.9)"
          fill="#33363a"
        />
        <path
          data-name="Path 6161"
          d="M341.952,245.048a1.214,1.214,0,1,0-2.092-1.05.4.4,0,1,0,.784.154.416.416,0,1,1,.408.5.4.4,0,0,0,0,.8.416.416,0,1,1-.416.416.4.4,0,0,0-.8,0,1.215,1.215,0,1,0,2.115-.815Z"
          transform="translate(-321.687 -238.611)"
          fill="#33363a"
        />
        <path
          data-name="Path 6162"
          d="M31.93,219.291a1.574,1.574,0,1,0,1.574,1.574A1.576,1.576,0,0,0,31.93,219.291Zm0,2.35a.775.775,0,1,1,.775-.775A.776.776,0,0,1,31.93,221.641Z"
          transform="translate(-28.735 -216.151)"
          fill="#33363a"
        />
      </g>
    </g>
    <g data-name="Group 17305" transform="translate(1.833 8)">
      <g
        data-name="Rectangle 5126"
        transform="translate(343.167 3421)"
        fill="#e4e4da"
        stroke="currentColor"
        class="default-sec-stroke-color"
        stroke-width="1"
      >
        <rect width="3" height="3" stroke="none" />
        <rect x="0.5" y="0.5" width="2" height="2" fill="none" />
      </g>
      <g
        data-name="Rectangle 5127"
        transform="translate(359.167 3427)"
        fill="#e4e4da"
        stroke="currentColor"
        class="default-sec-stroke-color"
        stroke-width="1"
      >
        <rect width="3" height="3" stroke="none" />
        <rect x="0.5" y="0.5" width="2" height="2" fill="none" />
      </g>
      <line
        data-name="Line 1075"
        x2="16"
        y2="6"
        transform="translate(344.667 3422.5)"
        fill="none"
        stroke="currentColor"
        class="default-sec-stroke-color"
        stroke-width="1"
      />
      <line
        data-name="Line 1076"
        y2="7"
        transform="translate(344.667 3423.5)"
        fill="none"
        stroke="currentColor"
        class="default-sec-stroke-color"
        stroke-width="1"
      />
      <line
        data-name="Line 1077"
        y2="5"
        transform="translate(344.667 3441.5)"
        fill="none"
        stroke="currentColor"
        class="default-sec-stroke-color"
        stroke-width="1"
      />
      <line
        data-name="Line 1078"
        y2="5"
        transform="translate(360.667 3441.5)"
        fill="none"
        stroke="currentColor"
        class="default-sec-stroke-color"
        stroke-width="1"
      />
      <line
        data-name="Line 1079"
        y2="1.5"
        transform="translate(360.667 3430)"
        fill="none"
        stroke="currentColor"
        class="default-sec-stroke-color"
        stroke-width="1"
      />
    </g>
    <g data-name="Group 17318" transform="translate(3.893 27.501)">
      <g
        data-name="Rectangle 5126"
        transform="translate(341.333 3427)"
        fill="#e4e4da"
        stroke="currentColor"
        class="default-sec-stroke-color"
        stroke-width="1"
      >
        <rect width="3" height="3" stroke="none" />
        <rect x="0.5" y="0.5" width="2" height="2" fill="none" />
      </g>
      <g
        data-name="Rectangle 5127"
        transform="translate(357.333 3427)"
        fill="#e4e4da"
        stroke="currentColor"
        class="default-sec-stroke-color"
        stroke-width="1"
      >
        <rect width="3" height="3" stroke="none" />
        <rect x="0.5" y="0.5" width="2" height="2" fill="none" />
      </g>
      <line
        data-name="Line 1075"
        x2="15.833"
        transform="translate(342.5 3428.5)"
        fill="none"
        stroke="currentColor"
        class="default-sec-stroke-color"
        stroke-width="1"
      />
    </g>
  </g>
</svg>
