<svg xmlns="http://www.w3.org/2000/svg" width="18.333" height="14.667" viewBox="0 0 18.333 14.667">
  <path class="eye-white" data-name="Icon awesome-eye-slash" d="M9.167,11.458A4.11,4.11,0,0,1,5.073,7.645l-3-2.322A9.547,9.547,0,0,0,1.016,6.915a.927.927,0,0,0,0,.836,9.188,9.188,0,0,0,8.15,5.082,8.9,8.9,0,0,0,2.231-.3l-1.486-1.15A4.129,4.129,0,0,1,9.167,11.458Zm8.99,1.664-3.167-2.447a9.489,9.489,0,0,0,2.327-2.924.927.927,0,0,0,0-.836,9.188,9.188,0,0,0-8.15-5.082,8.827,8.827,0,0,0-4.22,1.08L1.3.1a.458.458,0,0,0-.643.08L.1.9a.458.458,0,0,0,.08.643L17.031,14.57a.458.458,0,0,0,.643-.08l.563-.724a.458.458,0,0,0-.081-.643ZM12.893,9.055l-1.126-.87A2.714,2.714,0,0,0,8.442,4.692a1.365,1.365,0,0,1,.267.808,1.336,1.336,0,0,1-.044.286L6.556,4.157a4.077,4.077,0,0,1,2.611-.948,4.123,4.123,0,0,1,4.125,4.125,4.027,4.027,0,0,1-.4,1.722Z" transform="translate(0 0)" fill="currentColor"/>
</svg>
