<svg
  width="124"
  height="122"
  xmlns="http://www.w3.org/2000/svg"
  data-name="Layer 1"
>
  <defs>
    <style>
      .gray-color {
        fill: currentColor;
      }
      .blue-color {
        fill: none;
        stroke: currentColor;
        stroke-miterlimit: 10;
        stroke-width: 6px;
      }
    </style>
  </defs>
  <g>
    <title>Layer 1</title>
    <path
      d="m62.59,113.31l-50.13,0c-4.49,0 -7.73,-2.53 -8.54,-6.65a8.74,8.74 0 0 1 -0.14,-1.7c0,-9.21 0,-18.42 0,-27.63a8.94,8.94 0 0 1 0.95,-3.9q4.26,-8.07 8.78,-16c1.69,-3 3.65,-5.78 5.44,-8.7a7.91,7.91 0 0 1 7.32,-4q36.24,0.07 72.5,0a7.83,7.83 0 0 1 6.67,3.27a40,40 0 0 1 2.68,4q5.65,9.65 11.24,19.31a15.93,15.93 0 0 1 2,8.43c-0.13,8.2 0,16.4 0,24.6c0,5.59 -3.34,8.93 -8.92,8.94l-49.85,0.03zm52,-38.85c-0.28,-0.56 -0.46,-1 -0.67,-1.32q-5.44,-9.9 -10.91,-19.8c-0.44,-0.8 -1,-1.56 -1.42,-2.36a3.91,3.91 0 0 0 -3.7,-2q-34.87,0 -69.75,0a4.68,4.68 0 0 0 -3.56,1.43a14.13,14.13 0 0 0 -2.15,2.79c-3.68,6.67 -7.3,13.38 -10.94,20.08c-0.18,0.34 -0.33,0.69 -0.59,1.21l1.57,0q16.13,0 32.24,0a7.19,7.19 0 0 1 2.68,0.48a3,3 0 0 1 2,2.94a13.16,13.16 0 0 0 26.32,0.12a3.36,3.36 0 0 1 2.72,-3.38a8.52,8.52 0 0 1 2,-0.18l34.21,0l-0.05,-0.01z"
      class="gray-color"
    />
    <line y2="35.6" x2="44.17" y1="18.72" x1="27.29" class="blue-color" />
    <line y2="30.66" x2="62.6" y1="6.79" x1="62.6" class="blue-color" />
    <line y2="35.6" x2="81.03" y1="18.72" x1="97.9" class="blue-color" />
  </g>
</svg>
