<svg xmlns="http://www.w3.org/2000/svg" xmlns:xlink="http://www.w3.org/1999/xlink" width="840.914" height="504.411" viewBox="0 0 840.914 504.411">
  <defs>
    <clipPath id="clip-path">
      <rect id="Rectangle_5137" data-name="Rectangle 5137" width="840.914" height="504.411" fill="none"/>
    </clipPath>
    <clipPath id="clip-path-2">
      <rect id="Rectangle_5139" data-name="Rectangle 5139" width="404.579" height="241.548" fill="none"/>
    </clipPath>
    <linearGradient id="linear-gradient" x1="-0.542" y1="1.388" x2="-0.541" y2="1.388" gradientUnits="objectBoundingBox">
      <stop offset="0" stop-color="#d1d7ed"/>
      <stop offset="1" stop-color="#d1d7ed"/>
    </linearGradient>
    <clipPath id="clip-path-4">
      <path id="Path_6853" data-name="Path 6853" d="M375.311,1775.959c-16.923,3.385-28.3,14.212-40.343,25.659-19.173,18.237-40.91,38.913-92.543,38.934h-.063c-51.832,0-78.583-15.747-104.462-30.967-16.482-9.7-32.06-18.867-53.083-23.471-40.08-8.767-71.089-4.636-84.817-1.808v6.486c12.383-2.639,43.549-7.243,83.471,1.493,20.045,4.382,35.192,13.3,51.233,22.735,25.364,14.926,54.1,31.84,107.658,31.84h.074c54.144-.021,77.837-22.557,96.884-40.669,11.857-11.279,22.1-21.013,37.232-24.05a3.152,3.152,0,1,0-1.24-6.181" transform="translate(0 -1775.896)" fill="none"/>
    </clipPath>
    <linearGradient id="linear-gradient-2" y1="1.095" x2="0.001" y2="1.095" gradientUnits="objectBoundingBox">
      <stop offset="0" stop-color="#babdd6"/>
      <stop offset="1" stop-color="#111214"/>
    </linearGradient>
    <clipPath id="clip-path-5">
      <path id="Path_6854" data-name="Path 6854" d="M1567.533,1628.021a31.243,31.243,0,0,0-26.949,34.852l1.4,10.971a31.152,31.152,0,0,0,61.8-7.9l-1.4-10.971a31.152,31.152,0,0,0-34.852-26.95" transform="translate(-1540.331 -1627.769)" fill="none"/>
    </clipPath>
    <linearGradient id="linear-gradient-3" x1="-4.65" y1="1.397" x2="-4.646" y2="1.397" gradientUnits="objectBoundingBox">
      <stop offset="0" stop-color="#111214"/>
      <stop offset="1" stop-color="#444752"/>
    </linearGradient>
    <clipPath id="clip-path-7">
      <path id="Path_6857" data-name="Path 6857" d="M1753.095,1599.358c-6.406.819-9.334,19.21-6.537,41.077s10.256,38.931,16.662,38.111,9.334-19.21,6.538-41.077c-2.731-21.363-9.914-38.14-16.217-38.14a3.612,3.612,0,0,0-.446.028" transform="translate(-1745.497 -1599.33)" fill="none"/>
    </clipPath>
    <linearGradient id="linear-gradient-4" x1="-12.945" y1="1.487" x2="-12.937" y2="1.487" xlink:href="#linear-gradient-3"/>
    <clipPath id="clip-path-9">
      <path id="Path_6864" data-name="Path 6864" d="M2185.6,1660.408c-4.664,7.329-8.45,20.453-9.748,35.629s.209,28.753,3.561,36.767a37.181,37.181,0,0,0,5.035.786l5.513.471a36.118,36.118,0,0,0,5.233.071,36.7,36.7,0,0,0,6.183-72.355,36.075,36.075,0,0,0-5.169-.818l-5.511-.471c-1.047-.09-2.082-.132-3.11-.132q-1,0-1.986.052" transform="translate(-2175.393 -1660.356)" fill="none"/>
    </clipPath>
    <linearGradient id="linear-gradient-5" x1="-6.675" y1="1.65" x2="-6.672" y2="1.65" xlink:href="#linear-gradient-3"/>
    <clipPath id="clip-path-10">
      <path id="Path_6865" data-name="Path 6865" d="M2347.408,1818.124a3.152,3.152,0,0,0,2.849,3.437c.178.01,17.806,1.819,25.658,18.406,6.559,13.875,25.216,43.57,64.4,43.57a86.251,86.251,0,0,0,14.065-1.2c23.124-3.836,39.638-12.939,57.129-22.589,16.029-8.84,32.595-17.975,55.374-23.283a190.435,190.435,0,0,1,57.434-4.646v-6.328a196.82,196.82,0,0,0-58.864,4.825c-23.63,5.508-40.6,14.863-56.993,23.914-17,9.376-33.059,18.227-55.123,21.885-44.631,7.411-65.033-24.7-71.729-38.85-9.376-19.8-29.905-21.906-30.777-21.99-.1-.009-.193-.013-.289-.013a3.155,3.155,0,0,0-3.137,2.862" transform="translate(-2347.395 -1815.262)" fill="none"/>
    </clipPath>
    <linearGradient id="linear-gradient-6" x1="-8.604" y1="0.622" x2="-8.601" y2="0.622" xlink:href="#linear-gradient-2"/>
    <clipPath id="clip-path-11">
      <path id="Path_6875" data-name="Path 6875" d="M1309.016,457.128c5.458,6.938,15.464,6.984,15.464,6.984l6.367-10.268-7.277-9.54,5.458-8.673-10.989-9.469s-14.482,24.028-9.023,30.966" transform="translate(-1307.786 -426.162)" fill="none"/>
    </clipPath>
    <linearGradient id="linear-gradient-7" x1="-6.871" y1="10.992" x2="-6.866" y2="10.992" gradientUnits="objectBoundingBox">
      <stop offset="0" stop-color="#ffb03b"/>
      <stop offset="1" stop-color="#ffce3b"/>
    </linearGradient>
    <clipPath id="clip-path-12">
      <path id="Path_6876" data-name="Path 6876" d="M1485.105,434.145l5.459,8.673-7.278,9.54,6.368,11.089s9.1-1.688,15.465-8.626-8.188-29.122-9.622-30.5a.447.447,0,0,0-.322-.117c-2.12,0-10.07,9.939-10.07,9.939" transform="translate(-1483.286 -424.206)" fill="none"/>
    </clipPath>
    <linearGradient id="linear-gradient-8" x1="-9.893" y1="9.164" x2="-9.886" y2="9.164" xlink:href="#linear-gradient-7"/>
    <clipPath id="clip-path-14">
      <path id="Path_6881" data-name="Path 6881" d="M1444.9,570.194l-33.918,14.93,1.25,7.917s15.074-.22,25.781-3.347,19.908-7.248,24.708-12.119c3.8-3.855-4.583-8.431-12.2-8.431a14.065,14.065,0,0,0-5.623,1.05" transform="translate(-1410.986 -569.144)" fill="none"/>
    </clipPath>
    <linearGradient id="linear-gradient-9" x1="-5.573" y1="8.978" x2="-5.569" y2="8.978" gradientUnits="objectBoundingBox">
      <stop offset="0" stop-color="#111214"/>
      <stop offset="1" stop-color="#454852"/>
    </linearGradient>
    <clipPath id="clip-path-16">
      <path id="Path_6886" data-name="Path 6886" d="M1258.234,587.851c4.835,4.835,12.073,8.865,25.05,11.93a131.928,131.928,0,0,0,27.244,2.941l1.045-6.953s-25.8-11.473-34.026-14.681a17.174,17.174,0,0,0-6.135-1c-8.011,0-16.966,3.973-13.178,7.762" transform="translate(-1257.338 -580.089)" fill="none"/>
    </clipPath>
    <linearGradient id="linear-gradient-10" x1="-8.27" y1="6.283" x2="-8.264" y2="6.283" xlink:href="#linear-gradient-9"/>
    <clipPath id="clip-path-18">
      <path id="Path_6895" data-name="Path 6895" d="M2650.5,1742.387c-1.921.46-2.087,5.614-2.087,7.663,0,7.241,2.767,12.355,14.149,15.458s33.393,1.675,41.671.641,12.472-1.617,12.472-8.858-10.348-8.276-22.763-9.31-12.407-2.02-16.724-2.887c-3.631-.728-16.612-2.972-23.542-2.971a14.6,14.6,0,0,0-3.175.265" transform="translate(-2648.414 -1742.122)" fill="none"/>
    </clipPath>
    <linearGradient id="linear-gradient-11" x1="-9.317" y1="3.241" x2="-9.314" y2="3.241" xlink:href="#linear-gradient-9"/>
    <clipPath id="clip-path-19">
      <path id="Path_6896" data-name="Path 6896" d="M2705.059,1541.3c-7.117.906,5.709,32.134,10.278,38.093s31.482,8.77,31.482,8.77l-1.55-6.712-20.26-9.465s-8.328-18.573-10.529-24.668c-1.771-4.9-3.616-6.217-6.825-6.217a20.846,20.846,0,0,0-2.6.2" transform="translate(-2702.952 -1541.104)" fill="none"/>
    </clipPath>
    <linearGradient id="linear-gradient-12" x1="-9.668" y1="2.167" x2="-9.665" y2="2.167" xlink:href="#linear-gradient-7"/>
    <clipPath id="clip-path-21">
      <path id="Path_6898" data-name="Path 6898" d="M2628.872,1528.824c-1.98,6.635-2.25,15.423-1.7,25.935s2.525,18.2,4.912,19.491,28.36,2.435,29.693-4.213-.293-27.951-2.352-36.12-3-13.813-13.487-16.865a11.382,11.382,0,0,0-3.2-.467c-6.848,0-12.149,6.473-13.87,12.24" transform="translate(-2626.923 -1516.584)" fill="none"/>
    </clipPath>
    <linearGradient id="linear-gradient-13" x1="-10.056" y1="3.333" x2="-10.052" y2="3.333" xlink:href="#linear-gradient-7"/>
    <clipPath id="clip-path-22">
      <path id="Path_6899" data-name="Path 6899" d="M2652.585,1546.113c-7.117.907,1.288,34.494,5.859,40.454s36.51,7.428,36.51,7.428l-.453-7.092-28.572-9.9s-.65-15.064-2.85-21.158c-2.057-5.7-5.148-9.789-9.552-9.789a7.458,7.458,0,0,0-.943.061" transform="translate(-2649.832 -1546.052)" fill="none"/>
    </clipPath>
    <linearGradient id="linear-gradient-14" x1="-9.624" y1="2.161" x2="-9.62" y2="2.161" xlink:href="#linear-gradient-7"/>
  </defs>
  <g id="Group_17961" data-name="Group 17961" transform="translate(0 -0.002)">
    <g id="Group_17914" data-name="Group 17914" transform="translate(0 0.002)">
      <g id="Group_17913" data-name="Group 17913" transform="translate(0 0)" clip-path="url(#clip-path)">
        <path id="Path_6800" data-name="Path 6800" d="M537.438,1316.807a48.142,48.142,0,0,1-14.958-2.315c-6.142-2.006-11.219-5.276-17.1-9.063a144.693,144.693,0,0,0-22.355-12.366c-2.68-1.158-5.517-2.293-8.52-3.495-8.872-3.549-18.928-7.572-26.241-12.985-8.482-6.28-12.091-13.524-11.031-22.145a13.178,13.178,0,0,1,7.513-10.7c13.31-6.736,40.545,1.222,49.237,6.1l.361.2c8.4,4.715,17.922,10.058,27.373,11.583,5.414.873,10.173.356,15.211-.19a69.684,69.684,0,0,1,12.92-.566c7.57.548,13.934,2.823,18.405,6.577,5.509,4.627,8.153,11.363,7.858,20.021-.6,17.719-15.886,24.666-22.428,26.83a53.535,53.535,0,0,1-16.249,2.507m-79.255-74.481c-4.662,0-9.255.647-12.891,2.487a12.04,12.04,0,0,0-6.863,9.771c-2.256,18.354,18.347,26.6,36.526,33.868,3.011,1.2,5.855,2.342,8.55,3.507a145.841,145.841,0,0,1,22.529,12.458c5.808,3.742,10.825,6.974,16.82,8.932,13.953,4.557,26.84,1.007,30.457-.19,6.3-2.085,21.026-8.767,21.6-25.73.7-20.43-15.458-24.657-25.15-25.36a68.775,68.775,0,0,0-12.7.562c-4.9.532-9.957,1.081-15.531.182-9.662-1.558-19.282-6.958-27.77-11.721l-.361-.2c-3.976-2.231-12.684-5.454-22.409-7.261a71.759,71.759,0,0,0-12.807-1.3" transform="translate(-332.049 -942.95)" fill="#36383d"/>
        <path id="Path_6801" data-name="Path 6801" d="M590.487,1338.946q-1.657-.38-3.312-.776c-26.441-6.333-83.28-32.731-83.85-33a1.068,1.068,0,1,1,.9-1.936c.569.264,57.215,26.573,83.446,32.855a523.129,523.129,0,0,0,53.249,9.482,1.069,1.069,0,1,1-.248,2.123c-.257-.03-24.905-2.945-50.187-8.751" transform="translate(-381.926 -990.042)" fill="#36383d"/>
        <path id="Path_6802" data-name="Path 6802" d="M622.056,1302.764a1.066,1.066,0,0,1-.737-.605l-9.426-21.044a1.068,1.068,0,0,1,1.95-.874l9.426,21.045a1.069,1.069,0,0,1-1.213,1.478" transform="translate(-464.808 -972.169)" fill="#36383d"/>
        <path id="Path_6803" data-name="Path 6803" d="M725.844,1353.3a1.064,1.064,0,0,1-.711-.552l-9.639-18.7a1.068,1.068,0,0,1,1.9-.979l9.639,18.7a1.068,1.068,0,0,1-1.188,1.531" transform="translate(-543.498 -1012.346)" fill="#36383d"/>
        <path id="Path_6804" data-name="Path 6804" d="M812.988,1468.035a1.069,1.069,0,0,1-.289-1.971l24.561-13.945a1.069,1.069,0,0,1,1.055,1.859l-24.561,13.945a1.064,1.064,0,0,1-.766.112" transform="translate(-617.028 -1103.127)" fill="#36383d"/>
        <path id="Path_6805" data-name="Path 6805" d="M603.749,1394.689a1.068,1.068,0,0,1-.186-2.022l19.357-8.376a1.068,1.068,0,1,1,.848,1.961l-19.357,8.375a1.065,1.065,0,0,1-.662.061" transform="translate(-458.061 -1051.634)" fill="#36383d"/>
        <path id="Path_6806" data-name="Path 6806" d="M880.977,1367.276a1.067,1.067,0,0,1-.754-.644L869.174,1339.1a1.068,1.068,0,1,1,1.984-.795l11.049,27.527a1.068,1.068,0,0,1-1.229,1.439" transform="translate(-660.287 -1016.256)" fill="#36383d"/>
        <path id="Path_6807" data-name="Path 6807" d="M538.331,1013.763a23.786,23.786,0,0,1-6.833-1.012c-6.334-1.891-12.448-6.5-17.683-13.317-3.3-4.3-5.463-9.387-7.555-14.307-2.375-5.585-4.831-11.36-8.934-15.835-5.182-5.651-12.511-8.757-19.6-11.76-3.083-1.306-6.27-2.656-9.264-4.2a64.2,64.2,0,0,1-29.171-31.054c-3.09-7.019-4.155-13.125-3.254-18.667,1.128-6.936,5.816-12.716,11.666-14.383,7.974-2.272,15.977,2.85,21.3,6.9,1.858,1.413,3.735,2.907,5.55,4.352,8.462,6.735,17.212,13.7,27.737,15.538,2.332.408,4.44.758,6.3,1.067,8.5,1.413,13.624,2.266,23.719,5.715,8.716,2.979,16.047,10.758,20.112,21.344,1.3,3.391,3.878,7.3,6.606,11.446,3.219,4.889,6.548,9.944,7.7,14.211a43.961,43.961,0,0,1,1.372,16.325,29.707,29.707,0,0,1-12.781,21.6c-5.683,4.024-11.371,6.045-16.984,6.045m-86.57-123.9a13.531,13.531,0,0,0-3.727.511c-5.411,1.542-9.755,6.935-10.81,13.421-.862,5.305.174,11.19,3.168,17.99a62.989,62.989,0,0,0,28.623,30.471c2.952,1.527,6.119,2.868,9.18,4.165,7.207,3.053,14.659,6.21,20.017,12.054,4.243,4.627,6.74,10.5,9.154,16.177,2.063,4.851,4.2,9.867,7.4,14.046,6.732,8.773,20.862,21.484,39.853,8.035,15.764-11.165,12.9-29.336,10.944-36.63-1.1-4.081-4.372-9.054-7.539-13.863-2.764-4.2-5.375-8.163-6.724-11.676-3.937-10.253-11-17.775-19.379-20.638-10-3.417-15.092-4.263-23.527-5.666-1.862-.309-3.971-.66-6.309-1.068-10.826-1.891-19.7-8.952-28.278-15.78-1.81-1.441-3.682-2.931-5.529-4.335-4.268-3.246-10.308-7.212-16.519-7.212" transform="translate(-331.04 -675.153)" fill="#36383d"/>
        <path id="Path_6808" data-name="Path 6808" d="M623.447,1073.187a1.068,1.068,0,0,1-.821-.383,597.644,597.644,0,0,0-42.365-44.716c-22.407-21.024-82.9-58.432-83.508-58.808a1.071,1.071,0,1,1,1.125-1.823c.61.376,61.285,37.9,83.849,59.068a599.907,599.907,0,0,1,42.54,44.9,1.072,1.072,0,0,1-.82,1.761" transform="translate(-377.015 -734.893)" fill="#36383d"/>
        <path id="Path_6809" data-name="Path 6809" d="M532.779,1077.812a1.072,1.072,0,0,1-.27-2.109l28.425-7.41a1.072,1.072,0,1,1,.541,2.074l-28.426,7.41a1.108,1.108,0,0,1-.271.035" transform="translate(-403.959 -811.598)" fill="#36383d"/>
        <path id="Path_6810" data-name="Path 6810" d="M695.593,1189.892a1.071,1.071,0,0,1-.112-2.137l28.374-3.023a1.071,1.071,0,0,1,.227,2.13l-28.374,3.024a1.064,1.064,0,0,1-.115.006" transform="translate(-527.656 -900.083)" fill="#36383d"/>
        <path id="Path_6811" data-name="Path 6811" d="M855.7,1102.247a1.135,1.135,0,0,1-1.124-.979l-6.325-45.362a1.136,1.136,0,1,1,2.25-.313l6.326,45.362a1.136,1.136,0,0,1-.968,1.282,1.124,1.124,0,0,1-.159.011" transform="translate(-644.438 -801.229)" fill="#36383d"/>
        <path id="Path_6812" data-name="Path 6812" d="M709.946,1052.64a1.071,1.071,0,0,1-1.054-.886l-3.576-20.373a1.071,1.071,0,1,1,2.111-.37L711,1051.383a1.072,1.072,0,0,1-.87,1.241,1.186,1.186,0,0,1-.187.015" transform="translate(-535.844 -782.626)" fill="#36383d"/>
        <path id="Path_6813" data-name="Path 6813" d="M772.987,1285.609a1.071,1.071,0,0,1-.212-2.121l33.1-6.726a1.071,1.071,0,1,1,.427,2.1l-33.1,6.726a1.071,1.071,0,0,1-.215.022" transform="translate(-586.454 -969.989)" fill="#36383d"/>
        <path id="Path_6814" data-name="Path 6814" d="M914.55,487.889s.224-15.462-2.644-19.951-7.759-9.507-13.737-5.687-2.861,10.456-.213,14.6,16.595,11.038,16.595,11.038" transform="translate(-679.769 -350.161)" fill="#d1d7ed"/>
        <path id="Path_6815" data-name="Path 6815" d="M904.06,576.986s-8.9-9.909-13.433-11.41-10.713-2.387-12.444,2.841,4.222,7.973,8.4,9.358,17.473-.789,17.473-.789" transform="translate(-666.956 -428.81)" fill="#717687"/>
        <path id="Path_6816" data-name="Path 6816" d="M990.377,549.267a.6.6,0,0,1-.6-.661c.055-.553,1.389-13.589,3.864-17.35,4.2-6.386,8.256-8.358,12.049-5.862a6.149,6.149,0,0,1,2.73,6.614,18.478,18.478,0,0,1-3.042,6.973c-2.681,4.073-14.241,9.972-14.732,10.221a.6.6,0,0,1-.272.065m12.11-23.682c-2.441,0-5.068,2.117-7.841,6.332-1.914,2.909-3.166,12.423-3.548,15.694,2.889-1.536,11.207-6.142,13.279-9.29a17.577,17.577,0,0,0,2.859-6.5,4.976,4.976,0,0,0-2.2-5.422,4.575,4.575,0,0,0-2.544-.812" transform="translate(-751.972 -398.368)" fill="#36383d"/>
        <path id="Path_6817" data-name="Path 6817" d="M943.441,539.278a.928.928,0,0,1-.671-.8c-2.686-27.675-10.713-40.065-18.025-49.506a.928.928,0,1,1,1.467-1.136c7.471,9.646,15.672,22.3,18.4,50.463a.93.93,0,0,1-1.176.983" transform="translate(-702.417 -370.352)" fill="#2b2d33"/>
        <path id="Path_6818" data-name="Path 6818" d="M989.092,573.633a.887.887,0,0,1-.172-.068.927.927,0,0,1-.4-1.249,83.308,83.308,0,0,1,10.442-15.969.928.928,0,0,1,1.389,1.231,83.18,83.18,0,0,0-10.18,15.586.928.928,0,0,1-1.076.469" transform="translate(-750.937 -422.441)" fill="#2b2d33"/>
        <path id="Path_6819" data-name="Path 6819" d="M1868.25,531.513s-.526-14.247,2.025-18.445,6.954-8.924,12.544-5.526,2.854,9.579.5,13.453-15.067,10.518-15.067,10.518" transform="translate(-1419.348 -384.717)" fill="#717687"/>
        <path id="Path_6820" data-name="Path 6820" d="M1869.755,612.931a96.6,96.6,0,0,1-11.355-.893.6.6,0,0,1-.372-.986c.331-.385,8.152-9.457,12.4-10.97a17.07,17.07,0,0,1,6.931-1.2,5.779,5.779,0,0,1,5.366,3.925c1.415,3.972-1.248,7.191-7.917,9.567a16.832,16.832,0,0,1-5.051.557m-10.074-1.939c3.091.381,11.736,1.314,14.723.25,5.918-2.109,8.336-4.811,7.188-8.033a4.544,4.544,0,0,0-4.332-3.131,16.168,16.168,0,0,0-6.43,1.135c-3.232,1.152-9.087,7.472-11.149,9.779" transform="translate(-1411.506 -454.969)" fill="#36383d"/>
        <path id="Path_6821" data-name="Path 6821" d="M1803.208,591.244s-11.074-5.31-13.575-8.931-4.887-8.861-.709-11.747,8.149,1.671,10.457,5.013,3.827,15.665,3.827,15.665" transform="translate(-1357.386 -432.786)" fill="#d1d7ed"/>
        <path id="Path_6822" data-name="Path 6822" d="M1843.636,579.041a.857.857,0,0,0,.6-.755c1.9-25.565,9.043-37.151,15.588-46a.856.856,0,0,0-1.377-1.017c-6.687,9.046-13.982,20.875-15.918,46.895a.857.857,0,0,0,1.1.882" transform="translate(-1399.841 -403.359)" fill="#2b2d33"/>
        <path id="Path_6823" data-name="Path 6823" d="M1822.033,612.33a.808.808,0,0,0,.157-.066.855.855,0,0,0,.345-1.159,76.865,76.865,0,0,0-9.956-14.5.855.855,0,0,0-1.254,1.163,76.673,76.673,0,0,1,9.706,14.154.855.855,0,0,0,1,.411" transform="translate(-1375.96 -453.053)" fill="#2b2d33"/>
        <path id="Path_6824" data-name="Path 6824" d="M704.413,824.211s-4.583-16.711-9.071-20.647-11.316-7.811-16.558-1.835.183,12.146,4.326,15.78,21.3,6.7,21.3,6.7" transform="translate(-514.056 -606.762)" fill="#d1d7ed"/>
        <path id="Path_6825" data-name="Path 6825" d="M731.072,937.771s-14.556-7.263-20.375-6.935-13.239,2.094-12.86,8.809,8.372,7.163,13.743,6.86,19.492-8.733,19.492-8.733" transform="translate(-530.163 -707.185)" fill="#717687"/>
        <path id="Path_6826" data-name="Path 6826" d="M825.837,857.8a.594.594,0,0,1-.147-.018.6.6,0,0,1-.435-.432c-.16-.619-3.907-15.2-2.738-20.229,1.981-8.511,5.536-12.233,10.566-11.061,3.011.7,4.866,2.714,5.514,5.983a21.165,21.165,0,0,1-.507,8.7c-1.266,5.443-11.385,16.4-11.815,16.862a.6.6,0,0,1-.44.192m5.585-30.737c-3.539,0-6.136,3.465-7.734,10.33-.927,3.983,1.606,15.05,2.46,18.568,2.4-2.68,9.77-11.177,10.774-15.488a20.3,20.3,0,0,0,.5-8.2c-.556-2.8-2.063-4.454-4.608-5.047a6.144,6.144,0,0,0-1.39-.166" transform="translate(-624.727 -627.433)" fill="#36383d"/>
        <path id="Path_6827" data-name="Path 6827" d="M781.689,1006.88s-15.169-6.995-21.132-6.474-13.522,2.567-12.921,9.447,8.819,7.087,14.323,6.606,19.73-9.579,19.73-9.579" transform="translate(-567.983 -760.027)" fill="#d1d7ed"/>
        <path id="Path_6828" data-name="Path 6828" d="M879.007,929.567s9.7-10.776,10.8-15.853,1.348-11.869-4.51-13.14-8.142,5.489-9.159,10.175,2.869,18.818,2.869,18.818" transform="translate(-665.507 -684.083)" fill="#717687"/>
        <path id="Path_6829" data-name="Path 6829" d="M754.654,885.175a.836.836,0,0,1-.681-.433c-12.956-23.6-23.121-33.95-30.543-41.505-1.309-1.332-2.545-2.59-3.681-3.806-7.522-8.05-12.176-12.6-16.743-15.105a.838.838,0,1,1,.807-1.469c4.765,2.617,9.517,7.249,17.16,15.43,1.122,1.2,2.351,2.452,3.652,3.776,7.491,7.625,17.75,18.067,30.817,41.873a.838.838,0,0,1-.788,1.24" transform="translate(-533.771 -625.078)" fill="#2b2d33"/>
        <path id="Path_6830" data-name="Path 6830" d="M839.911,885.462a.839.839,0,0,1-.782-.813,60.833,60.833,0,0,1,4.509-23.9.838.838,0,0,1,1.532.679A60.294,60.294,0,0,0,840.8,884.6a.838.838,0,0,1-.814.861c-.027,0-.053,0-.079,0" transform="translate(-637.504 -653.566)" fill="#2b2d33"/>
        <path id="Path_6831" data-name="Path 6831" d="M725.672,953.773a.838.838,0,0,1-.166-1.645c.744-.2,18.3-4.895,27.349-.4a.838.838,0,1,1-.746,1.5c-8.481-4.214-25.988.469-26.163.517a.831.831,0,0,1-.274.027" transform="translate(-550.726 -721.591)" fill="#2b2d33"/>
        <path id="Path_6832" data-name="Path 6832" d="M785.844,1023.7a.838.838,0,0,1-.116-1.657c.746-.155,18.34-3.768,24.8-.681a.838.838,0,0,1-.723,1.512c-5.954-2.849-23.56.773-23.737.81a.855.855,0,0,1-.226.015" transform="translate(-596.441 -775.027)" fill="#2b2d33"/>
        <path id="Path_6833" data-name="Path 6833" d="M2714.343,622.517a.6.6,0,0,1-.377-1.069l17.592-14.14-6.347-5.228a.6.6,0,0,1-.019-.912l24.458-21.831a.6.6,0,0,1,.778-.019l12.833,10.383a.6.6,0,0,1-.052.973l-17.261,11.078,7.919,6.522a.6.6,0,0,1-.19,1.033l-39.143,13.179a.6.6,0,0,1-.191.031m12.173-20.919,6.376,5.252a.6.6,0,0,1-.006.932L2717.35,620.27l34.918-11.757-7.719-6.358a.6.6,0,0,1,.058-.969l17.253-11.074-11.791-9.539Z" transform="translate(-2061.736 -440.03)" fill="#111214"/>
        <path id="Path_6834" data-name="Path 6834" d="M2778.109,784.554a1.291,1.291,0,0,1-.6-.1l-11.742-5.1a1.3,1.3,0,0,1,1.036-2.381l11.741,5.1a1.3,1.3,0,0,1-.438,2.485" transform="translate(-2100.67 -590.211)" fill="#111214"/>
        <path id="Path_6835" data-name="Path 6835" d="M2816.474,756.673a1.313,1.313,0,0,1-.216,0l-19.244-2.008a1.3,1.3,0,1,1,.267-2.582l19.245,2.008a1.3,1.3,0,0,1-.052,2.586" transform="translate(-2124.115 -571.378)" fill="#111214"/>
        <path id="Path_6836" data-name="Path 6836" d="M2727.564,616.406a1.3,1.3,0,0,1-1.35-1.572l4.815-22.187a1.3,1.3,0,1,1,2.536.551l-4.814,22.187a1.3,1.3,0,0,1-1.186,1.021" transform="translate(-2071.188 -449.482)" fill="#111214"/>
        <path id="Path_6837" data-name="Path 6837" d="M2499.324,942.123a.6.6,0,0,1-.19-.031l-13.295-4.434a.6.6,0,0,1-.411-.558l-.254-13.125a47.947,47.947,0,0,1-9.336-8.1l-13.28,1.587a.6.6,0,0,1-.609-.328l-6.17-12.375a.6.6,0,0,1,.1-.684l9.24-9.62c-.347-2.491-.851-9.916-.839-12.365l-10.39-8.149a.6.6,0,0,1-.2-.663l4.428-13.232a.6.6,0,0,1,.558-.41l13.19-.259a48.86,48.86,0,0,1,8.125-9.342l-1.594-13.255a.6.6,0,0,1,.329-.609l12.387-6.177a.6.6,0,0,1,.683.1l9.6,9.219c2.456-.309,9.822-.856,12.372-.83l8.1-10.321a.6.6,0,0,1,.661-.2l13.288,4.381a.6.6,0,0,1,.413.558l.258,13.188a47.914,47.914,0,0,1,9.339,8.1l13.278-1.588a.6.6,0,0,1,.608.329l6.171,12.374a.6.6,0,0,1-.1.684l-9.252,9.632a48.933,48.933,0,0,1,.845,12.35l10.406,8.163a.6.6,0,0,1,.2.663l-4.427,13.221a.6.6,0,0,1-.558.409l-13.217.26a47.873,47.873,0,0,1-8.11,9.347l1.594,13.251a.6.6,0,0,1-.328.61l-12.387,6.177a.6.6,0,0,1-.683-.1l-9.616-9.234a48.1,48.1,0,0,1-12.347.829l-8.1,10.33a.6.6,0,0,1-.473.23m-12.7-5.471,12.491,4.166,8.039-10.247a.592.592,0,0,1,.516-.229,47,47,0,0,0,12.655-.848.6.6,0,0,1,.532.156l9.535,9.157,11.629-5.8-1.58-13.144a.6.6,0,0,1,.2-.524,46.747,46.747,0,0,0,8.311-9.578.6.6,0,0,1,.49-.27l13.109-.258,4.159-12.418-10.322-8.1a.6.6,0,0,1-.229-.512,47.129,47.129,0,0,0-.865-12.658.6.6,0,0,1,.155-.536l9.177-9.553-5.793-11.617-13.171,1.575a.6.6,0,0,1-.523-.2,46.823,46.823,0,0,0-9.571-8.3.6.6,0,0,1-.27-.49l-.255-13.076-12.484-4.115-8.021,10.225a.6.6,0,0,1-.492.23c-2.2-.073-10.665.552-12.763.852a.6.6,0,0,1-.5-.161l-9.5-9.126-11.629,5.8,1.581,13.149a.6.6,0,0,1-.2.525,47.731,47.731,0,0,0-8.331,9.576.6.6,0,0,1-.487.266l-13.079.257-4.159,12.429,10.292,8.071a.6.6,0,0,1,.23.491c-.065,2.105.508,10.56.864,12.741a.6.6,0,0,1-.159.513l-9.152,9.528,5.793,11.618,13.172-1.574a.6.6,0,0,1,.524.2,46.775,46.775,0,0,0,9.566,8.306.6.6,0,0,1,.271.489Zm24.324-28a23.908,23.908,0,0,1-7.709-1.287,23.6,23.6,0,1,1,15.353-44.633,23.6,23.6,0,0,1,14.635,29.786,23.518,23.518,0,0,1-22.279,16.133m-.2-46.048a22.487,22.487,0,0,0-20.041,32.349,22.489,22.489,0,0,0,20.172,12.512,22.364,22.364,0,0,0,21.207-15.328,21.971,21.971,0,0,0-1.147-17.012l0-.009a21.99,21.99,0,0,0-12.736-11.248,22.784,22.784,0,0,0-7.45-1.264" transform="translate(-1864.143 -629.011)" fill="#a0a7bf"/>
        <path id="Path_6838" data-name="Path 6838" d="M2119.413,380.276a.6.6,0,0,1-.208-.037l-17.426-6.441a.6.6,0,0,1-.393-.57l.2-18a64.457,64.457,0,0,1-12.276-11.426l-17.662,1.574a.606.606,0,0,1-.6-.347l-7.879-17.081a.6.6,0,0,1,.125-.681l12.682-12.387a64.214,64.214,0,0,1-.658-16.741l-13.84-11.6a.6.6,0,0,1-.177-.669l6.436-17.411a.61.61,0,0,1,.569-.392l18,.2c2.057-2.578,9.088-10.142,11.441-12.31l-1.586-17.754a.6.6,0,0,1,.348-.6l17.013-7.83a.6.6,0,0,1,.681.126l12.45,12.742a65.383,65.383,0,0,1,16.768-.644L2155,228.176a.6.6,0,0,1,.668-.178l17.427,6.441a.6.6,0,0,1,.392.57l-.2,17.963c2.463,2.028,10.076,9.029,12.308,11.459l17.639-1.574a.6.6,0,0,1,.6.345l7.927,17.025a.6.6,0,0,1-.125.683l-12.741,12.447a64.206,64.206,0,0,1,.663,16.743l13.839,11.6a.6.6,0,0,1,.177.669l-6.436,17.409a.6.6,0,0,1-.563.392h-.006l-18.033-.2a65.483,65.483,0,0,1-11.414,12.294l1.587,17.79a.6.6,0,0,1-.347.6l-17,7.82a.6.6,0,0,1-.68-.126L2148.2,365.579a64.138,64.138,0,0,1-16.756.663l-11.57,13.819a.6.6,0,0,1-.46.215m-16.821-7.459,16.633,6.148,11.5-13.737a.6.6,0,0,1,.519-.212,63.019,63.019,0,0,0,17.064-.674.6.6,0,0,1,.532.172l12.4,12.69,16.234-7.466-1.578-17.682a.6.6,0,0,1,.216-.517,63.333,63.333,0,0,0,11.625-12.52.619.619,0,0,1,.5-.254l17.925.2,6.142-16.615-13.758-11.531a.6.6,0,0,1-.211-.518,63.062,63.062,0,0,0-.674-17.049.6.6,0,0,1,.172-.532l12.662-12.369-7.57-16.257-17.519,1.563a.6.6,0,0,1-.5-.2c-1.954-2.223-10.365-9.949-12.589-11.728a.605.605,0,0,1-.226-.476l.2-17.83-16.633-6.148-11.5,13.742a.6.6,0,0,1-.521.212,64.247,64.247,0,0,0-17.078.653.6.6,0,0,1-.528-.173l-12.373-12.662-16.244,7.475,1.575,17.63a.6.6,0,0,1-.2.5c-2.124,1.875-9.885,10.226-11.7,12.585a.6.6,0,0,1-.478.235h-.006l-17.876-.2-6.142,16.617,13.758,11.533a.6.6,0,0,1,.212.518,63.025,63.025,0,0,0,.67,17.048.6.6,0,0,1-.173.532l-12.6,12.31,7.524,16.312,17.558-1.565a.6.6,0,0,1,.519.22,63.33,63.33,0,0,0,12.5,11.638.6.6,0,0,1,.251.495Zm34.778-37.179a31.534,31.534,0,1,1,28.821-44.341A31.468,31.468,0,0,1,2150.6,332.72a31.7,31.7,0,0,1-13.232,2.919m.178-61.831a30.471,30.471,0,0,0-12.6,2.751,30.271,30.271,0,1,0,25.153,55.069,29.692,29.692,0,0,0,15.695-16.873l0-.009a29.713,29.713,0,0,0-.706-22.955,30.169,30.169,0,0,0-27.547-17.982" transform="translate(-1566.022 -173.191)" fill="#a0a7bf"/>
        <path id="Path_6839" data-name="Path 6839" d="M1282.057,938.494H876.984a10.953,10.953,0,0,1-10.921-10.921V665.352a10.953,10.953,0,0,1,10.921-10.921h405.073a10.953,10.953,0,0,1,10.921,10.921V927.573a10.953,10.953,0,0,1-10.921,10.921" transform="translate(-657.982 -497.197)" fill="#a0a7bf"/>
        <path id="Path_6840" data-name="Path 6840" d="M1294.912,925.6H889.838a11.534,11.534,0,0,1-11.521-11.521V651.859a11.535,11.535,0,0,1,11.521-11.521h405.074a11.534,11.534,0,0,1,11.521,11.521V914.08a11.534,11.534,0,0,1-11.521,11.521M889.838,641.539a10.332,10.332,0,0,0-10.32,10.32V914.08a10.332,10.332,0,0,0,10.32,10.32h405.074a10.332,10.332,0,0,0,10.32-10.32V651.859a10.332,10.332,0,0,0-10.32-10.32Z" transform="translate(-667.291 -486.49)" fill="#36383d"/>
      </g>
    </g>
    <g id="Group_17916" data-name="Group 17916" transform="translate(219.249 169.058)">
      <g id="Group_17915" data-name="Group 17915" clip-path="url(#clip-path-2)">
        <rect id="Rectangle_5138" data-name="Rectangle 5138" width="404.579" height="241.548" transform="translate(0)" fill="url(#linear-gradient)"/>
      </g>
    </g>
    <g id="Group_17918" data-name="Group 17918" transform="translate(0 0.002)">
      <g id="Group_17917" data-name="Group 17917" transform="translate(0 0)" clip-path="url(#clip-path)">
        <path id="Path_6841" data-name="Path 6841" d="M1726.271,1760.8h-12.329a4.713,4.713,0,0,1,0-9.426h12.329a4.713,4.713,0,1,1,0,9.426" transform="translate(-1298.568 -1330.59)" fill="#a0a7bf"/>
        <rect id="Rectangle_5140" data-name="Rectangle 5140" width="404.579" height="13.405" transform="translate(219.249 169.056)" fill="#fff"/>
        <path id="Path_6842" data-name="Path 6842" d="M1329.98,933.345H925.4a.6.6,0,0,1-.6-.6V691.2a.6.6,0,0,1,.6-.6H1329.98a.6.6,0,0,1,.6.6V932.744a.6.6,0,0,1-.6.6M926,932.144H1329.38V691.8H926Z" transform="translate(-702.607 -524.672)" fill="#36383d"/>
        <path id="Path_6843" data-name="Path 6843" d="M2546.659,720.376a3.4,3.4,0,1,1-3.4-3.4,3.4,3.4,0,0,1,3.4,3.4" transform="translate(-1929.63 -544.715)" fill="#42454f"/>
        <path id="Path_6844" data-name="Path 6844" d="M2497.13,720.376a3.4,3.4,0,1,1-3.4-3.4,3.4,3.4,0,0,1,3.4,3.4" transform="translate(-1892.001 -544.715)" fill="#717687"/>
        <path id="Path_6845" data-name="Path 6845" d="M2447.6,720.376a3.4,3.4,0,1,1-3.4-3.4,3.4,3.4,0,0,1,3.4,3.4" transform="translate(-1854.373 -544.715)" fill="#a0a7bf"/>
        <path id="Path_6846" data-name="Path 6846" d="M2898.33,266.88a15.5,15.5,0,0,1,15.809-15.809,15.742,15.742,0,0,1,7.267,1.77,15.808,15.808,0,0,1,28.542,5.151,12.775,12.775,0,0,1,7.338-2.31c7.094,0,12.844,4.611,12.844,13.834s-4.97,12.49-11.045,12.49c0,0-48.1.444-49.555,0-5.673-.26-11.2-5.9-11.2-15.125" transform="translate(-2201.974 -186.745)" fill="#ebf0fa" opacity="0.34"/>
        <path id="Path_6847" data-name="Path 6847" d="M1711.958,25.545a18.788,18.788,0,0,1,19.158-19.157,19.075,19.075,0,0,1,8.806,2.145,19.156,19.156,0,0,1,34.588,6.242,15.48,15.48,0,0,1,8.891-2.8c8.6,0,15.566,5.588,15.566,16.763s-6.024,15.135-13.386,15.135c0,0-58.282.538-60.05,0-6.876-.315-13.573-7.153-13.573-18.329" transform="translate(-1300.641 -0.001)" fill="#ebf0fa" opacity="0.34"/>
        <path id="Path_6848" data-name="Path 6848" d="M752.582,147.249a16.6,16.6,0,0,1,16.925-16.924,16.846,16.846,0,0,1,7.779,1.895,16.924,16.924,0,0,1,30.556,5.514,13.678,13.678,0,0,1,7.855-2.473c7.595,0,13.751,4.936,13.751,14.809s-5.321,13.371-11.825,13.371c0,0-51.489.475-53.05,0-6.074-.278-11.991-6.32-11.991-16.192" transform="translate(-571.766 -94.727)" fill="#ebf0fa" opacity="0.34"/>
        <path id="Path_6849" data-name="Path 6849" d="M506.4,290.357A14.37,14.37,0,0,0,491.751,275.7a14.585,14.585,0,0,0-6.735,1.64,14.652,14.652,0,0,0-26.454,4.774,11.838,11.838,0,0,0-6.8-2.141c-6.575,0-11.905,4.274-11.905,12.821s4.607,11.576,10.238,11.576c0,0,44.576.411,45.928,0,5.259-.241,10.381-5.471,10.381-14.018" transform="translate(-334.176 -205.753)" fill="#ebf0fa" opacity="0.34"/>
        <path id="Path_6850" data-name="Path 6850" d="M2930.475,1426.661a3.214,3.214,0,0,1,3.364-3.2,3.167,3.167,0,0,1,3.281,3.2,3.2,3.2,0,0,1-3.281,3.239,3.246,3.246,0,0,1-3.364-3.239m.291-25.629h6.146l-1.038,19.436h-4.111Z" transform="translate(-2226.396 -1064.419)" fill="#111214"/>
        <path id="Path_6851" data-name="Path 6851" d="M1198.242,1559.173a3.215,3.215,0,0,1,3.364-3.2,3.167,3.167,0,0,1,3.28,3.2,3.2,3.2,0,0,1-3.28,3.238,3.247,3.247,0,0,1-3.364-3.238m.291-25.629h6.146l-1.038,19.435h-4.111Z" transform="translate(-910.351 -1165.094)" fill="#111214"/>
        <path id="Path_6852" data-name="Path 6852" d="M1434.985,57.353a3.214,3.214,0,0,1,3.364-3.2,3.167,3.167,0,0,1,3.281,3.2,3.2,3.2,0,0,1-3.281,3.239,3.247,3.247,0,0,1-3.364-3.239m.291-25.629h6.146l-1.038,19.435h-4.112Z" transform="translate(-1090.214 -24.102)" fill="#ffce3b"/>
      </g>
    </g>
    <g id="Group_17920" data-name="Group 17920" transform="translate(0 426.68)">
      <g id="Group_17919" data-name="Group 17919" clip-path="url(#clip-path-4)">
        <rect id="Rectangle_5142" data-name="Rectangle 5142" width="379.368" height="70.964" transform="translate(0 0)" fill="url(#linear-gradient-2)"/>
      </g>
    </g>
    <g id="Group_17922" data-name="Group 17922" transform="translate(370.082 391.091)">
      <g id="Group_17921" data-name="Group 17921" clip-path="url(#clip-path-5)">
        <rect id="Rectangle_5143" data-name="Rectangle 5143" width="78.053" height="84.469" transform="translate(-13.059 1.687) rotate(-8.616)" fill="url(#linear-gradient-3)"/>
      </g>
    </g>
    <g id="Group_17924" data-name="Group 17924" transform="translate(0 0.002)">
      <g id="Group_17923" data-name="Group 17923" transform="translate(0 0)" clip-path="url(#clip-path)">
        <path id="Path_6855" data-name="Path 6855" d="M1767.052,1626.22c3.029,23.687-.994,43.717-8.985,44.739s-16.924-17.353-19.952-41.04.994-43.717,8.984-44.738,16.924,17.352,19.952,41.038" transform="translate(-1319.748 -1204.294)" fill="#444752"/>
        <path id="Path_6856" data-name="Path 6856" d="M1672.422,1638.319c3.029,23.687-.994,43.717-8.985,44.738s-16.923-17.352-19.952-41.038.994-43.717,8.985-44.739,16.923,17.352,19.952,41.039" transform="translate(-1247.853 -1213.485)" fill="#444752"/>
        <rect id="Rectangle_5144" data-name="Rectangle 5144" width="22.921" height="86.475" transform="translate(404.617 383.795) rotate(-7.286)" fill="#444752"/>
      </g>
    </g>
    <g id="Group_17926" data-name="Group 17926" transform="translate(419.375 384.258)">
      <g id="Group_17925" data-name="Group 17925" clip-path="url(#clip-path-7)">
        <rect id="Rectangle_5146" data-name="Rectangle 5146" width="32.134" height="81.177" transform="matrix(0.999, -0.042, 0.042, 0.999, -5.1, 0.141)" fill="url(#linear-gradient-4)"/>
      </g>
    </g>
    <g id="Group_17928" data-name="Group 17928" transform="translate(0 0.002)">
      <g id="Group_17927" data-name="Group 17927" transform="translate(0 0)" clip-path="url(#clip-path)">
        <path id="Path_6858" data-name="Path 6858" d="M1784.656,1683.389c.426,3.34-.326,6.19-1.682,6.364s-2.8-2.395-3.227-5.736.326-6.191,1.682-6.364,2.8,2.394,3.228,5.736" transform="translate(-1352.052 -1274.572)" fill="#111214"/>
        <path id="Path_6859" data-name="Path 6859" d="M1800.353,1806.159c.427,3.341-.326,6.19-1.682,6.364s-2.8-2.394-3.228-5.736.325-6.19,1.681-6.363,2.8,2.394,3.229,5.736" transform="translate(-1363.977 -1367.845)" fill="#111214"/>
        <path id="Path_6860" data-name="Path 6860" d="M2011.889,1728.151c-.09,0-.181,0-.272-.011l-29.473-2.52a3.154,3.154,0,1,1,.538-6.284l29.473,2.519a3.154,3.154,0,0,1-.266,6.3" transform="translate(-1503.72 -1306.24)" fill="#111214"/>
        <path id="Path_6861" data-name="Path 6861" d="M2001.349,1851.469c-.089,0-.18,0-.272-.012l-29.473-2.519a3.154,3.154,0,0,1,.538-6.284l29.473,2.519a3.154,3.154,0,0,1-.266,6.3" transform="translate(-1495.712 -1399.928)" fill="#111214"/>
        <path id="Path_6862" data-name="Path 6862" d="M2063.314,1668.386c-2.033,23.793,2.825,43.638,10.852,44.323s16.182-18.046,18.216-41.838-2.825-43.636-10.851-44.322-16.182,18.045-18.216,41.838" transform="translate(-1567.228 -1235.739)" fill="#444752"/>
        <path id="Path_6863" data-name="Path 6863" d="M2158.37,1676.51c-2.034,23.792,2.825,43.636,10.851,44.322s16.182-18.046,18.215-41.838-2.825-43.636-10.851-44.323-16.182,18.045-18.216,41.838" transform="translate(-1639.446 -1241.91)" fill="#444752"/>
        <rect id="Rectangle_5147" data-name="Rectangle 5147" width="86.475" height="22.921" transform="matrix(0.085, -0.996, 0.996, 0.085, 506.937, 476.971)" fill="#444752"/>
      </g>
    </g>
    <g id="Group_17930" data-name="Group 17930" transform="translate(522.662 398.921)">
      <g id="Group_17929" data-name="Group 17929" clip-path="url(#clip-path-9)">
        <rect id="Rectangle_5149" data-name="Rectangle 5149" width="76.624" height="59.608" transform="matrix(0.051, -0.999, 0.999, 0.051, -4.581, 73.689)" fill="url(#linear-gradient-5)"/>
      </g>
    </g>
    <g id="Group_17932" data-name="Group 17932" transform="translate(563.988 436.138)">
      <g id="Group_17931" data-name="Group 17931" clip-path="url(#clip-path-10)">
        <rect id="Rectangle_5150" data-name="Rectangle 5150" width="77.149" height="279.123" transform="translate(-2.339 68.204) rotate(-88.157)" fill="url(#linear-gradient-6)"/>
      </g>
    </g>
    <g id="Group_17934" data-name="Group 17934" transform="translate(269.634 61.753)">
      <g id="Group_17962" data-name="Group 17962">
        <path id="Path_6866" data-name="Path 6866" d="M1212.912,1090.137h-15.924v20.533h-22.071v-20.533h-52.662v-15.226l46.1-62.021H1192.1l-42.744,58.808h26.261v-18.3h21.372v18.3h15.924Z" transform="translate(-1122.255 -831.283)" fill="#fff"/>
        <path id="Path_6867" data-name="Path 6867" d="M1573.4,1056.481c0-32.267,17.88-50.566,41.906-50.566,24.166,0,41.906,18.3,41.906,50.566s-17.74,50.568-41.906,50.568c-24.026,0-41.906-18.3-41.906-50.568m61.042,0c0-22.21-7.821-31.429-19.137-31.429-11.175,0-19,9.219-19,31.429s7.821,31.429,19,31.429c11.316,0,19.137-9.219,19.137-31.429" transform="translate(-1465.007 -825.984)" fill="#fff"/>
        <path id="Path_6868" data-name="Path 6868" d="M2100.082,1090.137h-15.924v20.533h-22.071v-20.533h-52.662v-15.226l46.1-62.021h23.746l-42.743,58.808h26.261v-18.3h21.372v18.3h15.924Z" transform="translate(-1796.273 -831.283)" fill="#fff"/>
        <path id="Path_6869" data-name="Path 6869" d="M1207.735,1101.994h-22.071a.6.6,0,0,1-.6-.6V1081.46H1133a.6.6,0,0,1-.6-.6v-15.226a.6.6,0,0,1,.119-.359l46.1-62.021a.6.6,0,0,1,.483-.242h23.747a.6.6,0,0,1,.486.954l-42.05,57.855h24.481v-17.7a.6.6,0,0,1,.6-.6h21.372a.6.6,0,0,1,.6.6v17.7h15.324a.6.6,0,0,1,.6.6v18.439a.6.6,0,0,1-.6.6h-15.324v19.932a.6.6,0,0,1-.6.6m-21.47-1.2h20.869v-19.933a.6.6,0,0,1,.6-.6h15.324v-17.238h-15.324a.6.6,0,0,1-.6-.6v-17.7h-20.171v17.7a.6.6,0,0,1-.6.6H1160.1a.6.6,0,0,1-.486-.954l42.051-57.855H1179.4l-45.8,61.62v14.427h52.061a.6.6,0,0,1,.6.6Z" transform="translate(-1129.964 -823.778)" fill="#36383d"/>
        <path id="Path_6870" data-name="Path 6870" d="M1626.054,1098.373c-12.293,0-22.811-4.63-30.416-13.39-7.91-9.111-12.09-22.174-12.09-37.777s4.18-28.667,12.09-37.778c7.6-8.759,18.122-13.389,30.416-13.389,12.346,0,22.882,4.63,30.469,13.39,7.875,9.092,12.038,22.155,12.038,37.777s-4.163,28.685-12.038,37.777c-7.587,8.761-18.124,13.391-30.469,13.391m0-101.133c-25.092,0-41.3,19.612-41.3,49.966s16.213,49.966,41.3,49.966,41.306-19.613,41.306-49.966-16.213-49.966-41.306-49.966m0,82a16.127,16.127,0,0,1-14.19-7.656c-3.587-5.438-5.406-13.639-5.406-24.374s1.819-18.937,5.406-24.375a17.093,17.093,0,0,1,28.5,0c3.6,5.428,5.424,13.629,5.424,24.376s-1.825,18.947-5.424,24.375a16.275,16.275,0,0,1-14.313,7.655m0-62.859a14.989,14.989,0,0,0-13.188,7.116c-3.456,5.238-5.208,13.217-5.208,23.713s1.752,18.474,5.208,23.713a15.892,15.892,0,0,0,26.5,0c3.466-5.228,5.224-13.205,5.224-23.711s-1.759-18.484-5.224-23.712a15.137,15.137,0,0,0-13.312-7.117" transform="translate(-1472.718 -818.481)" fill="#36383d"/>
        <path id="Path_6871" data-name="Path 6871" d="M2094.906,1101.994h-22.071a.6.6,0,0,1-.6-.6V1081.46h-52.062a.6.6,0,0,1-.6-.6v-15.226a.6.6,0,0,1,.119-.359l46.1-62.021a.6.6,0,0,1,.482-.242h23.747a.6.6,0,0,1,.486.954l-42.051,57.855h24.482v-17.7a.6.6,0,0,1,.6-.6h21.372a.6.6,0,0,1,.6.6v17.7h15.323a.6.6,0,0,1,.6.6v18.439a.6.6,0,0,1-.6.6h-15.323v19.932a.6.6,0,0,1-.6.6m-21.47-1.2h20.87v-19.933a.6.6,0,0,1,.6-.6h15.323v-17.238h-15.323a.6.6,0,0,1-.6-.6v-17.7h-20.171v17.7a.6.6,0,0,1-.6.6h-26.262a.6.6,0,0,1-.486-.954l42.051-57.855h-22.266l-45.8,61.62v14.427h52.061a.6.6,0,0,1,.6.6Z" transform="translate(-1803.982 -823.778)" fill="#36383d"/>
        <path id="Path_6872" data-name="Path 6872" d="M1486.353,311.539s2.82-4.247,4.893-2.917.13,4.985-1.423,6.487a4.571,4.571,0,0,1-3.8,1.035Z" transform="translate(-1398.625 -296.028)" fill="#ffbfa3"/>
        <path id="Path_6873" data-name="Path 6873" d="M1478.787,273.311a23.039,23.039,0,0,0,1.026-8.463,22.774,22.774,0,0,0-2.613-7.829l-4.618,2.364Z" transform="translate(-1388.412 -257.019)" fill="#111214"/>
        <path id="Path_6874" data-name="Path 6874" d="M1343.474,414.719c-.416-5.693,6.458-10.506,11.516-10.506h23.3c5.762,0,13.653,4.813,13.238,10.506l-5.305,31.122H1348.78Z" transform="translate(-1290.31 -368.848)" fill="#ffb03b"/>
      </g>
    </g>
    <g id="Group_17936" data-name="Group 17936" transform="translate(314.21 102.392)">
      <g id="Group_17935" data-name="Group 17935" clip-path="url(#clip-path-11)">
        <rect id="Rectangle_5152" data-name="Rectangle 5152" width="43.903" height="36.512" transform="translate(-14.082 35.191) rotate(-74.358)" fill="url(#linear-gradient-7)"/>
      </g>
    </g>
    <g id="Group_17938" data-name="Group 17938" transform="translate(356.376 101.922)">
      <g id="Group_17937" data-name="Group 17937" clip-path="url(#clip-path-12)">
        <rect id="Rectangle_5153" data-name="Rectangle 5153" width="35.646" height="44.189" transform="matrix(0.979, -0.205, 0.205, 0.979, -7.874, 1.649)" fill="url(#linear-gradient-8)"/>
      </g>
    </g>
    <g id="Group_17940" data-name="Group 17940" transform="translate(0 0.002)">
      <g id="Group_17939" data-name="Group 17939" transform="translate(0 0)" clip-path="url(#clip-path)">
        <path id="Path_6877" data-name="Path 6877" d="M1295.636,554.753l18.195,1.734s21.833-13.009,26.381-2.6-20.923,22.549-27.291,24.283-34.568,3.469-43.665,0-29.11-13.009-23.652-23.416,28.2,1.734,28.2,1.734Z" transform="translate(-945.628 -417.743)" fill="#111214"/>
        <path id="Path_6878" data-name="Path 6878" d="M1390.5,482.66h-40.645a2.883,2.883,0,0,0-2.874,2.874V506.9a2.883,2.883,0,0,0,2.874,2.875H1390.5a2.883,2.883,0,0,0,2.874-2.874V485.535a2.883,2.883,0,0,0-2.875-2.875" transform="translate(-1023.353 -366.696)" fill="#cacce8"/>
        <path id="Path_6879" data-name="Path 6879" d="M1390.486,593.228h-46a1.05,1.05,0,0,0-1.047,1.047v1.375a1.05,1.05,0,0,0,1.047,1.047h46a1.05,1.05,0,0,0,1.047-1.047v-1.375a1.05,1.05,0,0,0-1.047-1.047" transform="translate(-1020.659 -450.699)" fill="#9da1cc"/>
        <path id="Path_6880" data-name="Path 6880" d="M1437.923,534.4a2.6,2.6,0,1,1-2.594-2.473,2.535,2.535,0,0,1,2.594,2.473" transform="translate(-1088.505 -404.126)" fill="#fff"/>
      </g>
    </g>
    <g id="Group_17942" data-name="Group 17942" transform="translate(339.005 136.745)">
      <g id="Group_17941" data-name="Group 17941" clip-path="url(#clip-path-14)">
        <rect id="Rectangle_5155" data-name="Rectangle 5155" width="60.397" height="41.957" transform="matrix(0.936, -0.353, 0.353, 0.936, -7.89, 2.976)" fill="url(#linear-gradient-9)"/>
      </g>
    </g>
    <g id="Group_17944" data-name="Group 17944" transform="translate(0 0.002)">
      <g id="Group_17943" data-name="Group 17943" transform="translate(0 0)" clip-path="url(#clip-path)">
        <path id="Path_6882" data-name="Path 6882" d="M1472.626,640.8s7.117-2.309,13.6-1.087,8.507,3.67,7.807,6.336-6.909,4.9-11.512,4.4a113.313,113.313,0,0,1-13.134-2.886Z" transform="translate(-1116.352 -485.742)" fill="#111214"/>
        <path id="Path_6883" data-name="Path 6883" d="M1338.658,638.45s-7.133-2.257-13.61-.987-8.479,3.732-7.76,6.393,6.944,4.852,11.543,4.316,12.113-3.521,12.113-3.521Z" transform="translate(-1000.689 -484.011)" fill="#111214"/>
        <path id="Path_6884" data-name="Path 6884" d="M1385.434,643.664s-9.349-.227-7.7,4.24,9.825,1.416,9.825,1.416Z" transform="translate(-1046.569 -489.016)" fill="#ffbfa3"/>
        <path id="Path_6885" data-name="Path 6885" d="M1472.027,646.247s9.663-.321,8.049,4.159-10.3,1.966-10.3,1.966Z" transform="translate(-1116.648 -490.976)" fill="#ffbfa3"/>
      </g>
    </g>
    <g id="Group_17946" data-name="Group 17946" transform="translate(302.089 139.374)">
      <g id="Group_17945" data-name="Group 17945" clip-path="url(#clip-path-16)">
        <rect id="Rectangle_5157" data-name="Rectangle 5157" width="37.372" height="61.155" transform="translate(-8.823 21.087) rotate(-74.291)" fill="url(#linear-gradient-10)"/>
      </g>
    </g>
    <g id="Group_17948" data-name="Group 17948" transform="translate(0 0.002)">
      <g id="Group_17947" data-name="Group 17947" transform="translate(0 0)" clip-path="url(#clip-path)">
        <path id="Path_6887" data-name="Path 6887" d="M1406.058,365.886v6.831l-5.038,1.366s1.845,4.611,9.632,4.611,10.349-4.44,10.349-4.44l-4.952-1.964-.085-7.514Z" transform="translate(-1064.41 -277.135)" fill="#ffbfa3"/>
        <path id="Path_6888" data-name="Path 6888" d="M1398.686,270.322c.232,8.661,6.021,15.532,12.931,15.347s11.375-9.13,11.144-17.791-5.072-13.757-11.982-13.572-12.325,7.355-12.094,16.016" transform="translate(-1062.631 -193.203)" fill="#ffd1bd"/>
        <path id="Path_6889" data-name="Path 6889" d="M1387.1,304.189s-2.39-4.5-4.584-3.382-.618,4.949.78,6.6a4.572,4.572,0,0,0,3.68,1.4Z" transform="translate(-1049.523 -228.399)" fill="#ffd1bd"/>
        <path id="Path_6890" data-name="Path 6890" d="M1391.236,243.61s.152-5.711,1.025-8.124a32.533,32.533,0,0,1,3.306-5.853s6.48,1.31,9.492,1.126,6.512-1.158,7.729-2.879,3.013-7.283,3.013-7.283l-6.4.264,1.241-2.817-6.76,1.338-.422-1.833-2.975,1.05-.886-1.944s-11.761,5.62-12.795,11.51a44.052,44.052,0,0,0-.877,8.844,5.049,5.049,0,0,1,3.251,1.432c1.909,1.551.308,7.17.308,7.17s1.056,6.815,4.48,9.483a15.613,15.613,0,0,0,11.934,2.863c3.839-.676,6.267-11.4,6.267-11.4l-3.013,3.388s-1.539,4.13-3.08,4.808-3.164-1.081-3.164-1.081-2.392,1.012-3.714.764c-1.014-.19-4.21-1.337-6.186-5.624-.623-3.22-1.642-3.379-1.774-5.2" transform="translate(-1052.937 -164.602)" fill="#111214"/>
        <path id="Path_6891" data-name="Path 6891" d="M3025.889,1771.462l11.889,8.942a5.86,5.86,0,0,1-7.443,4.078c-6.015-1.455-6.116-4.493-6.116-4.493l-8.328-7.191Z" transform="translate(-2291.291 -1345.849)" fill="#ffd1bd"/>
        <path id="Path_6892" data-name="Path 6892" d="M3042.417,1806.953a8.2,8.2,0,0,0-2.506,4.816c-.225,2.776.02,4.248,2.118,4.583s6.237-.712,7.943-.247a38.166,38.166,0,0,0,9.176.675c4.474-.04,11.172-1.5,10.9-3.323s-14.067-6.088-14.067-6.088-4.435,2.135-8,1.6a13.441,13.441,0,0,1-5.563-2.011" transform="translate(-2309.486 -1372.813)" fill="#111214"/>
        <path id="Path_6893" data-name="Path 6893" d="M2902.665,1792.706s11.733-3.148,16.427,0,1.174,7.344-2.347,9.444-18.186-.525-18.186-.525Z" transform="translate(-2202.147 -1360.926)" fill="#111214"/>
        <path id="Path_6894" data-name="Path 6894" d="M2818.853,1698.725l-9.257,5.453-21.925-13.595L2768.422,1701s-22.938-3.477-29.291-6.5,5.879-6.863,16.467-12.908,26.9-9.885,36.43-7.87,26.824,25,26.824,25" transform="translate(-2079.697 -1271.184)" fill="#111214"/>
      </g>
    </g>
    <g id="Group_17950" data-name="Group 17950" transform="translate(636.311 418.566)">
      <g id="Group_17949" data-name="Group 17949" clip-path="url(#clip-path-18)">
        <rect id="Rectangle_5159" data-name="Rectangle 5159" width="68.292" height="26.49" transform="translate(0 0)" fill="url(#linear-gradient-11)"/>
      </g>
    </g>
    <g id="Group_17952" data-name="Group 17952" transform="translate(649.414 370.269)">
      <g id="Group_17951" data-name="Group 17951" clip-path="url(#clip-path-19)">
        <rect id="Rectangle_5160" data-name="Rectangle 5160" width="65.778" height="66.36" transform="matrix(0.528, -0.849, 0.849, 0.528, -26.117, 33.934)" fill="url(#linear-gradient-12)"/>
      </g>
    </g>
    <g id="Group_17954" data-name="Group 17954" transform="translate(0 0.002)">
      <g id="Group_17953" data-name="Group 17953" transform="translate(0 0)" clip-path="url(#clip-path)">
        <path id="Path_6897" data-name="Path 6897" d="M2824.513,1712.77l6.482.617s6.327-3.009,11.187-2.315,11.112,8.216,11.112,8.216l-21.99-.128h-5.787Z" transform="translate(-2145.892 -1299.89)" fill="#ffd1bd"/>
      </g>
    </g>
    <g id="Group_17956" data-name="Group 17956" transform="translate(631.147 364.378)">
      <g id="Group_17955" data-name="Group 17955" clip-path="url(#clip-path-21)">
        <rect id="Rectangle_5162" data-name="Rectangle 5162" width="61.489" height="38.825" transform="translate(-2.664 60.007) rotate(-87.745)" fill="url(#linear-gradient-13)"/>
      </g>
    </g>
    <g id="Group_17958" data-name="Group 17958" transform="translate(636.652 371.458)">
      <g id="Group_17957" data-name="Group 17957" clip-path="url(#clip-path-22)">
        <rect id="Rectangle_5163" data-name="Rectangle 5163" width="64.899" height="65.599" transform="translate(-23.398 38.544) rotate(-63.719)" fill="url(#linear-gradient-14)"/>
      </g>
    </g>
    <g id="Group_17960" data-name="Group 17960" transform="translate(0 0.002)">
      <g id="Group_17959" data-name="Group 17959" transform="translate(0 0)" clip-path="url(#clip-path)">
        <path id="Path_6900" data-name="Path 6900" d="M2686.218,1482.456l-1.437,7.254,2.739,2.443s1.554,3.775-6.13,3.278-8.337-5.153-8.337-5.153l2.255-1.488,1.206-8.06Z" transform="translate(-2030.823 -1124.968)" fill="#ffbfa3"/>
        <path id="Path_6901" data-name="Path 6901" d="M2683.966,1400.817c-2.94,9.216,2.457,17.242,8.047,19.786s12-5.506,14.548-13.8c1.115-3.624,2.2-7.493,1.366-10.183a10.644,10.644,0,0,0-7.367-7.134c-6.615-2.035-13.957,3.065-16.594,11.328" transform="translate(-2038.483 -1055.309)" fill="#ffd1bd"/>
        <path id="Path_6902" data-name="Path 6902" d="M2677.906,1419.988s-.827-5.036-3.267-4.674-2.169,4.5-1.368,6.507a4.576,4.576,0,0,0,3.042,2.507Z" transform="translate(-2030.556 -1075.255)" fill="#ffd1bd"/>
        <path id="Path_6903" data-name="Path 6903" d="M2783.091,1748.369H2840.3l.568-3.3H2783.3Z" transform="translate(-2114.423 -1325.794)" fill="#9da1cc"/>
        <path id="Path_6904" data-name="Path 6904" d="M2890.734,1651.7h31.918l4.868-24.622a3.961,3.961,0,0,0-3.83-4.736l-24.583-.337a3.962,3.962,0,0,0-3.961,3.308Z" transform="translate(-2196.203 -1232.298)" fill="#cacce8"/>
        <path id="Path_6905" data-name="Path 6905" d="M2969.617,1683.927a2.322,2.322,0,1,1-1.8-2.946,2.451,2.451,0,0,1,1.8,2.946" transform="translate(-2252.646 -1277.081)" fill="#fff"/>
        <path id="Path_6906" data-name="Path 6906" d="M2682.26,1380.672c1.319.821,3.227-5.226,4.632-7.249a10.635,10.635,0,0,1,3.261-3.029s7.078,1.809,9.917,2.382,4.537,2.137,6.089.841,1.467-8.532-5.819-12.027-16.747-1.428-19.159,3.779-2.216,7.871-2.216,7.871a4.845,4.845,0,0,1,2.661,2.13c1.388,1.909-.685,4.481.634,5.3" transform="translate(-2035.311 -1033.137)" fill="#111214"/>
      </g>
    </g>
  </g>
</svg>
