<svg xmlns="http://www.w3.org/2000/svg" width="64" height="38" viewBox="0 0 64 38">
  <g id="pictometry" transform="translate(8.964 -230.394)">
    <path id="Path_6616" data-name="Path 6616" d="M16.037,262.222l-9.409,4.246q-1.993.9-3.988,1.795a2.613,2.613,0,0,1-.365.1l.008.007c.232-.265.452-.54.7-.792q2.957-3.065,5.919-6.125a4.67,4.67,0,0,0,.312-.4.333.333,0,0,0,.1-.05q1.391-1.451,2.779-2.9a1.925,1.925,0,0,0,.183-.149q3.288-3.4,6.574-6.8c.538-.557,1.071-1.118,1.633-1.705-.17-.042-.294-.076-.419-.1q-8.395-1.745-16.79-3.487c-.745-.154-1.5-.285-2.243-.427l-3.261-.733c-.194.235-.409.52-.649.783s-.515.515-.774.771l-5.31-4.838.022-.066c.517.1,1.035.206,1.551.312q3.551.727,7.1,1.456c.115.024.234.029.352.043.379.087.757.183,1.138.26.739.149,1.481.287,2.221.43,1,.214,2,.433,3.005.64q6.722,1.384,13.445,2.761c.77.158,1.541.309,2.3.46,1.613-1.672,3.2-3.312,4.782-4.956.768-.8,1.529-1.6,2.293-2.4l1.578-1.641,1.964-1.943-.025-.1-4.989-.976-.019-.077,13.5-5.22.033.051-2.131,2.267q-2.888,3.073-5.776,6.146c-.062.066-.113.143-.17.215-.174.176-.353.347-.522.528-.34.364-.674.733-1.01,1.1-.087.079-.18.153-.261.239q-3.282,3.487-6.561,6.977c-.078.083-.149.172-.244.282.143.04.241.074.342.094q2.569.525,5.138,1.048,6.354,1.3,12.708,2.606c.655.134,1.316.235,1.974.351a1.28,1.28,0,0,0,.215.087q2.054.426,4.107.846l.577-1.053,5.362,4.351-.03.069c-.6-.122-1.194-.242-1.79-.366q-2.547-.53-5.093-1.061a3.849,3.849,0,0,0-.391-.042c-.737-.164-1.472-.337-2.212-.49-.894-.185-1.791-.354-2.687-.53a.384.384,0,0,0-.1-.057q-1.929-.4-3.86-.8l-13.665-2.835c-.757-.157-1.515-.31-2.267-.464-.547.581-1.072,1.137-1.6,1.695L14.9,258.51l-2.931,3.1c.728.113,1.372.214,2.017.311C14.668,262.025,15.353,262.122,16.037,262.222Z" fill="#e4e4da"/>
    <path id="Path_6617" data-name="Path 6617" d="M193.738,461.855c-.684-.1-1.369-.2-2.053-.3-.645-.1-1.289-.2-2.017-.309l2.931-3.078a.784.784,0,0,0,.183.06c2.085.156,4.168.377,6.257.447a50.135,50.135,0,0,0,8.66-.506,39.337,39.337,0,0,0,8-1.91,18.756,18.756,0,0,0,4.833-2.458c.9.174,1.793.342,2.687.526.739.152,1.475.324,2.212.487a13.976,13.976,0,0,1-3.343,2.549,32.047,32.047,0,0,1-8.36,3.232,52.74,52.74,0,0,1-8.482,1.371,62.689,62.689,0,0,1-8.481.131C195.756,462.046,194.748,461.938,193.738,461.855Z" transform="translate(-177.701 -199.643)" fill="#e4e4da"/>
    <path id="Path_6618" data-name="Path 6618" d="M43.932,378.477q-1.389,1.442-2.779,2.883a.334.334,0,0,1-.1.049c-1.6-.478-3.215-.9-4.785-1.448a21.349,21.349,0,0,1-6.192-3.32,10.644,10.644,0,0,1-2.3-2.416,5.842,5.842,0,0,1,.093-7.063c.107-.15.217-.3.325-.446.259-.254.528-.5.774-.765s.456-.543.649-.777l3.261.728c-.3.312-.616.612-.9.94a4.365,4.365,0,0,0-.047,6.084,10.031,10.031,0,0,0,2.327,2,24,24,0,0,0,6.734,2.835C41.959,378.024,42.949,378.239,43.932,378.477Z" transform="translate(-31.838 -120.392)" fill="#e4e4da"/>
    <path id="Path_6619" data-name="Path 6619" d="M394.724,325.163l-.577,1.045q-2.051-.418-4.107-.84a1.286,1.286,0,0,1-.215-.086l.3-.464a4.178,4.178,0,0,0,.656-3.051,5.062,5.062,0,0,0-1.327-2.513,13.2,13.2,0,0,0-4.357-3,33.837,33.837,0,0,0-8.365-2.488c.336-.364.671-.731,1.01-1.092.169-.18.348-.35.522-.524,1.518.369,3.05.686,4.55,1.117a26.7,26.7,0,0,1,8,3.624,11.074,11.074,0,0,1,3.275,3.309,5.69,5.69,0,0,1,.672,4.766A1.733,1.733,0,0,0,394.724,325.163Z" transform="translate(-345.049 -73.042)" fill="#e4e4da"/>
    <path id="Path_6620" data-name="Path 6620" d="M107.461,303.614l-1.578,1.629a49.313,49.313,0,0,0-6.732-.432,54.273,54.273,0,0,0-7.715.5,37.668,37.668,0,0,0-8.709,2.153c-.912.36-1.779.832-2.667,1.254-.741-.142-1.482-.279-2.221-.426-.381-.076-.759-.171-1.138-.258a22.968,22.968,0,0,1,4.143-2.008,44.484,44.484,0,0,1,9.973-2.457,56.353,56.353,0,0,1,10.476-.492C103.352,303.179,105.4,303.43,107.461,303.614Z" transform="translate(-76.637 -64.899)" fill="#e4e4da"/>
    <path id="Path_6621" data-name="Path 6621" d="M530.8,470.554l-.267.159a3.431,3.431,0,0,0-.006-.466.811.811,0,0,0-.125-.239.052.052,0,0,1,0-.051l.34-.057.153.427-.013.1-.072,0-.11.037.107.089Z" transform="translate(-482.519 -214.077)" fill="#e4e4da"/>
    <path id="Path_6622" data-name="Path 6622" d="M537.81,469.869l.212-.118v.806l-.119.006v-.415Z" transform="translate(-489.157 -213.943)" fill="#e4e4da"/>
    <path id="Path_6623" data-name="Path 6623" d="M525.812,470.04a.052.052,0,0,0,0,.051l-.179.056-.041.605-.082,0v-.564l-.245-.116.006-.077Z" transform="translate(-477.936 -214.159)" fill="#e4e4da"/>
    <path id="Path_6624" data-name="Path 6624" d="M535.294,470.868l.092.279-.176.239-.213-.095.013-.1C535.292,471.247,535.15,470.933,535.294,470.868Z" transform="translate(-486.641 -214.943)" fill="#e4e4da"/>
    <path id="Path_6625" data-name="Path 6625" d="M534.318,474.872l.213.095-.111.2-.182-.163,0,0q0-.063,0-.125Z" transform="translate(-485.961 -218.521)" fill="#e4e4da"/>
    <path id="Path_6626" data-name="Path 6626" d="M97.555,588.095l0,.013.012-.006Z" transform="translate(-95.279 -319.727)" fill="#e4e4da"/>
  </g>
</svg>
