<svg
  xmlns="http://www.w3.org/2000/svg"
  width="30"
  height="30"
  viewBox="0 0 48 48"
>
  <g data-name="Group 15330" transform="translate(-300.583 -882)">
    <g transform="translate(309.584 890.25)">
      <g data-name="Group 15326"></g>
      <path
        data-name="Path 6112"
        d="M24.434,7.157a1.408,1.408,0,0,0-1.416,1.431v8.587a.675.675,0,1,1-1.347,0V2.863a1.351,1.351,0,1,0-2.7,0V16.848a.675.675,0,1,1-1.347,0V1.431a1.351,1.351,0,1,0-2.7,0V16.519a.675.675,0,1,1-1.347,0V2.863a1.352,1.352,0,1,0-2.7,0l.267,14.477a.727.727,0,0,1-.512.7.685.685,0,0,1-.768-.386c-.013-.029-1.953-2.627-4.38-2.627-1.888,0-2.454.5-2.616.716a.668.668,0,0,0-.121.372,25.136,25.136,0,0,1,4.4,7.257A20.626,20.626,0,0,0,9.007,26.88l1.362,2.062a3.768,3.768,0,0,1,.607,2.047v.529H22.1v-.429a3.656,3.656,0,0,1,.783-2.261,13.061,13.061,0,0,0,2.778-7.514l.121-2.734V8.587a1.393,1.393,0,0,0-1.347-1.43Z"
        transform="translate(0.248 -0.25)"
        fill="currentColor"
      />
    </g>
  </g>
</svg>
