<svg id="Search" xmlns="http://www.w3.org/2000/svg" width="22.727" height="22.741" viewBox="0 0 22.727 22.741">
  <g id="_001-zoom" data-name="001-zoom">
    <rect id="Rectangle_4767" data-name="Rectangle 4767" width="1.286" height="3.001" transform="translate(12.632 13.557) rotate(-45)" fill="#c6dae0"/>
    <path id="Path_5790" data-name="Path 5790" d="M264.992,266.2a.375.375,0,0,1-.2-.071L262.669,264a.259.259,0,0,1,0-.375l.911-.911a.259.259,0,0,1,.375,0l2.126,2.126a.269.269,0,0,1,.071.2.375.375,0,0,1-.071.2l-.911.911A.267.267,0,0,1,264.992,266.2Zm-1.751-2.376,1.751,1.751.518-.518-1.751-1.751Z" transform="translate(-250.227 -250.266)" fill="#33363a"/>
    <path id="Path_5791" data-name="Path 5791" d="M8.218,18.877a7.5,7.5,0,1,0,0-10.611A7.5,7.5,0,0,0,8.218,18.877Zm9.218-9.218a5.533,5.533,0,1,1-7.824,0A5.531,5.531,0,0,1,17.436,9.659Z" transform="translate(-5.744 -5.782)" fill="#e4e4da"/>
    <path id="Path_5792" data-name="Path 5792" d="M9.612,9.659a5.531,5.531,0,0,1,7.824,0L18.83,8.266A7.5,7.5,0,0,0,8.218,18.877l1.393-1.393A5.531,5.531,0,0,1,9.612,9.659Z" transform="translate(-5.744 -5.783)" fill="#73c5ff"/>
    <path id="Path_5793" data-name="Path 5793" d="M7.922,15.56A7.78,7.78,0,0,1,7.922,0a7.686,7.686,0,0,1,5.5,2.287,7.771,7.771,0,0,1-5.5,13.273ZM2.813,12.916a7.245,7.245,0,0,0,10.236,0,7.245,7.245,0,0,0,0-10.254,7.245,7.245,0,0,0-10.254,0A7.283,7.283,0,0,0,2.813,12.916Zm5.109.679a5.794,5.794,0,1,1,4.109-1.7A5.814,5.814,0,0,1,7.922,13.594Zm0-11.076A5.245,5.245,0,0,0,2.67,7.789a5.3,5.3,0,0,0,1.536,3.734,5.216,5.216,0,0,0,3.716,1.536,5.3,5.3,0,0,0,3.734-1.536,5.227,5.227,0,0,0,1.536-3.734,5.245,5.245,0,0,0-5.27-5.27Z" transform="translate(-0.143 0)" fill="#33363a"/>
    <path id="Path_5794" data-name="Path 5794" d="M318.429,316.2a.873.873,0,0,1,0,1.233l-.661.661a.873.873,0,0,1-1.233,0l-5.431-5.431a.873.873,0,0,1,0-1.233l.661-.661a.873.873,0,0,1,1.233,0Z" transform="translate(-296.215 -295.892)" fill="#e4e4da"/>
    <path id="Path_5795" data-name="Path 5795" d="M326.506,326.068c.339.339.536.715.411.822l-.214.214c-.107.107-.482-.071-.822-.411l-5.431-5.431c-.339-.339-.536-.715-.411-.822l.214-.214c.107-.107.482.071.822.411Z" transform="translate(-304.935 -305.113)" fill="#73c5ff"/>
    <g id="Group_15110" data-name="Group 15110" transform="translate(14.354 14.363)">
      <path id="Path_5796" data-name="Path 5796" d="M311.451,313.3a1.1,1.1,0,0,1-.8-.339l-5.431-5.431a1.122,1.122,0,0,1,0-1.608l.661-.661a1.122,1.122,0,0,1,1.608,0l5.431,5.431h0a1.154,1.154,0,0,1,0,1.626l-.661.661A1.12,1.12,0,0,1,311.451,313.3Zm-4.77-7.842a.581.581,0,0,0-.429.179l-.661.661a.615.615,0,0,0,0,.857l5.431,5.431a.615.615,0,0,0,.857,0l.661-.661a.615.615,0,0,0,0-.857l-5.431-5.431A.624.624,0,0,0,306.681,305.459Z" transform="translate(-304.877 -304.923)" fill="#33363a"/>
    </g>
  </g>
  <circle id="Ellipse_638" data-name="Ellipse 638" cx="4.416" cy="4.416" r="4.416" transform="translate(3.533 3.532)" fill="#e4e4da" opacity="0.26"/>
</svg>
