<svg
  data-name="Zoom out"
  xmlns="http://www.w3.org/2000/svg"
  width="19.666"
  height="19.666"
  viewBox="0 0 19.666 19.666"
  class="svg-color"
>
  <path
    data-name="Path 1597"
    d="M534.441,4259.414h2.512v-2.288H529.64v2.288h4.8Z"
    transform="translate(-523.464 -4248.438)"
    fill="currentColor"
  />
  <g data-name="Group 1937">
    <path
      data-name="Path 1598"
      d="M533.189,4248.29a9.833,9.833,0,1,0,9.836,9.833A9.833,9.833,0,0,0,533.189,4248.29Zm0,18.293a8.461,8.461,0,1,1,8.463-8.46A8.46,8.46,0,0,1,533.189,4266.583Z"
      transform="translate(-523.359 -4248.29)"
      fill="currentColor"
      fill-rule="evenodd"
    />
    <path
      data-name="Path 1599"
      d="M540.254,4255.754a7.342,7.342,0,0,0-3.626-4.092.686.686,0,0,0-.611,1.229,5.959,5.959,0,0,1,2.943,3.319.686.686,0,0,0,1.294-.456Z"
      transform="translate(-523.564 -4248.345)"
      fill="currentColor"
      fill-rule="evenodd"
    />
  </g>
</svg>
