<svg
  data-name="Zoom extent"
  xmlns="http://www.w3.org/2000/svg"
  width="19.666"
  height="19.666"
  viewBox="0 0 19.666 19.666"
  class="svg-color"
>
  <g data-name="Group 1939">
    <path
      data-name="Path 1600"
      d="M605.372,4248.29a9.833,9.833,0,1,0,9.837,9.833A9.833,9.833,0,0,0,605.372,4248.29Zm0,18.293a8.461,8.461,0,1,1,8.464-8.46A8.461,8.461,0,0,1,605.372,4266.583Z"
      transform="translate(-595.543 -4248.29)"
      fill="currentColor"
      fill-rule="evenodd"
    />
    <path
      data-name="Path 1601"
      d="M612.438,4255.754a7.342,7.342,0,0,0-3.626-4.092.686.686,0,1,0-.611,1.229,5.959,5.959,0,0,1,2.943,3.319.686.686,0,0,0,1.294-.456Z"
      transform="translate(-595.748 -4248.345)"
      fill="currentColor"
      fill-rule="evenodd"
    />
  </g>
  <g data-name="Group 1940" transform="translate(4.916 4.91)">
    <path
      data-name="Path 1602"
      d="M605.734,4260.372a3.868,3.868,0,0,1-.4-.662c.09-.1.042-.244.072-.364.035-.192.285-.318.206-.532-.1-.182-.343-.095-.505-.172a9.317,9.317,0,0,1-1.321-.727c-.25-.168-.571-.129-.834-.263-.117-.055-.133-.2-.208-.289-.1-.132-.21-.262-.312-.4-.11-.159-.334-.159-.444-.315-.088-.129-.25-.166-.344-.286a1.048,1.048,0,0,1-.21-.769.87.87,0,0,1,.036-.208,4.9,4.9,0,0,0,3.99,7.773,4.668,4.668,0,0,0,.48-.048c.088-.23-.032-.5.084-.733a4.874,4.874,0,0,0,.179-1.074.906.906,0,0,0-.02-.52C606.061,4260.62,605.85,4260.542,605.734,4260.372Z"
      transform="translate(-600.543 -4253.318)"
      fill="currentColor"
    />
    <path
      data-name="Path 1603"
      d="M608.407,4254.24c-.113.1-.155.292-.266.4-.133.117-.324.029-.444-.059a1.447,1.447,0,0,1-.428-.545c0-.149.223-.1.282-.22a.127.127,0,0,0,.016-.072,4.891,4.891,0,0,0-.879-.3.09.09,0,0,1,.035.095c-.085.048-.188,0-.278.012.023.1.216.075.168.195-.237,0-.389-.252-.626-.263a.151.151,0,1,1-.113-.159c-.12-.009-.23-.035-.354-.035a5.151,5.151,0,0,0-.555.055.447.447,0,0,1-.045.045,2.972,2.972,0,0,0-.574.448c-.114.162.042.334.195.389.233.107.483.182.724.279.126.049.068.2.071.3a.2.2,0,0,0,.244-.127,3.178,3.178,0,0,1,.155-.428c-.007-.176-.137-.341-.081-.516.078-.084.206-.058.308-.035.182.035.292.2.454.278.13.059.263-.07.389-.016.09.078.1.211.165.3.1.182.318.263.419.448.038.064-.046.111-.091.137-.318.162-.678.227-1,.373a2.308,2.308,0,0,0,.46-.148c.085.09.208.193.337.12.137-.04.169-.212.292-.257.155.017.208.2.269.325a.8.8,0,0,0-.545.048c-.114.059-.179.185-.3.224-.159.013-.327-.062-.474.022a1.764,1.764,0,0,0-.515.532c-.075.075.048.185-.039.254a2.2,2.2,0,0,0-.367.32c0,.169.124.35.029.509-.162-.084-.165-.314-.337-.389a.623.623,0,0,0-.584.156.406.406,0,0,0-.146.405c.009.075,0,.2.1.211.162.02.322-.065.484-.014.013.146-.11.25-.143.387a.308.308,0,0,1,.155.117,1.552,1.552,0,0,0,.681.5c.049.019.127.065.159,0a.369.369,0,0,1,.315-.166,1.834,1.834,0,0,1,.914.194,2.032,2.032,0,0,0,.331.189.791.791,0,0,1,.444.213c.081.095.048.243.143.328.3.211.7.179,1.022.341a.223.223,0,0,1,.134.262c-.029.178-.182.292-.292.422s-.055.342-.1.507a1.453,1.453,0,0,1-.251.3c-.1.123-.3.126-.38.275a4.363,4.363,0,0,1-.554.756c-.085,0-.169.006-.254.01.02.019.035.039.055.061-.055.159-.24.146-.374.175-.093.017-.074.126-.123.185a2.03,2.03,0,0,0-.213.39,4.893,4.893,0,0,0,1.777-8.74Z"
      transform="translate(-600.606 -4253.283)"
      fill="currentColor"
    />
  </g>
</svg>
