<svg width="25" height="24" viewBox="0 0 25 24" fill="none" xmlns="http://www.w3.org/2000/svg">
<path d="M12.498 3.40039C17.2476 3.40039 21.0984 7.25053 21.0986 12C21.0986 16.7496 17.2477 20.6006 12.498 20.6006C7.74858 20.6004 3.89844 16.7495 3.89844 12C3.89865 7.25066 7.74871 3.4006 12.498 3.40039ZM12.5186 7.76953C11.8858 7.34786 11.0836 7.28476 10.3965 7.59375L10.2607 7.66113C9.5454 8.04397 9.09863 8.78924 9.09863 9.60059V14.4004C9.09863 15.1611 9.49132 15.8634 10.1299 16.2637L10.2607 16.3398C10.9312 16.6986 11.7355 16.6844 12.3896 16.3105L12.5186 16.2305L16.1191 13.8311C16.7311 13.423 17.0986 12.7355 17.0986 12C17.0985 11.3106 16.775 10.6643 16.2305 10.25L16.1191 10.1699L12.5186 7.76953Z" fill="#FAFAFA" stroke="#FAFAFA" stroke-width="2"/>
</svg>
