<svg width="25" height="24" viewBox="0 0 25 24" fill="none" xmlns="http://www.w3.org/2000/svg">
<g id="Icon/Outline/printer">
<path id="Icon" d="M17.1641 17H19.1641C20.2686 17 21.1641 16.1046 21.1641 15V11C21.1641 9.89543 20.2686 9 19.1641 9H5.16406C4.05949 9 3.16406 9.89543 3.16406 11V15C3.16406 16.1046 4.05949 17 5.16406 17H7.16406M9.16406 21H15.1641C16.2686 21 17.1641 20.1046 17.1641 19V15C17.1641 13.8954 16.2686 13 15.1641 13H9.16406C8.05949 13 7.16406 13.8954 7.16406 15V19C7.16406 20.1046 8.05949 21 9.16406 21ZM17.1641 9V5C17.1641 3.89543 16.2686 3 15.1641 3H9.16406C8.05949 3 7.16406 3.89543 7.16406 5V9H17.1641Z" stroke="#D4D4D4" stroke-width="2" stroke-linecap="round" stroke-linejoin="round"/>
</g>
</svg>
