<svg width="49" height="26" viewBox="0 0 49 26" fill="none" xmlns="http://www.w3.org/2000/svg">
<g clip-path="url(#clip0_3448_53792)">
<path d="M15.0986 6.75469C14.9786 6.49469 14.7986 6.26469 14.6786 6.01469C14.5686 5.77469 14.3986 5.57469 14.1986 5.39469C14.0486 5.25469 14.0286 5.25469 13.8786 5.39469C13.5986 5.64469 13.2886 5.86469 12.9586 6.04469C12.9386 6.04469 12.9286 6.06469 12.9086 6.06469C12.8786 6.06469 12.8386 6.09469 12.8186 6.06469C12.7886 6.03469 12.8186 6.00469 12.8286 5.97469C12.8986 5.87469 12.9786 5.78469 13.0786 5.71469C13.3086 5.53469 13.5486 5.36469 13.7786 5.19469C13.8886 5.10469 13.8986 5.09469 13.7786 5.00469C13.5786 4.85469 13.3686 4.71469 13.1286 4.62469C13.0886 4.60469 13.0486 4.58469 13.0086 4.56469C12.9586 4.52469 12.9086 4.48469 12.9386 4.40469C12.9786 4.33469 13.0386 4.31469 13.1186 4.33469C13.1786 4.34469 13.2186 4.39469 13.2786 4.41469C13.5186 4.52469 13.7186 4.67469 13.9086 4.84469C13.9886 4.91469 14.0586 4.92469 14.1386 4.86469C14.2186 4.80469 14.3186 4.77469 14.4186 4.75469C14.4586 4.75469 14.4986 4.74469 14.5186 4.78469C14.5386 4.82469 14.5186 4.86469 14.4986 4.89469C14.4586 4.93469 14.4086 4.96469 14.3586 4.99469C14.2586 5.06469 14.2586 5.10469 14.3386 5.19469C14.4186 5.28469 14.4986 5.36469 14.5786 5.45469C14.8586 5.73469 14.9986 6.09469 15.1586 6.44469C15.2286 6.58469 15.2886 6.72469 15.3486 6.86469C15.3586 6.89469 15.3786 6.91469 15.3686 6.94469C15.3586 6.94469 15.3386 6.94469 15.3286 6.94469C15.1986 6.94469 15.1586 6.90469 15.0986 6.77469V6.75469ZM14.8886 11.2847C14.9086 11.1247 14.9186 10.9647 14.9786 10.8147C15.0086 10.7347 14.9886 10.6547 14.9486 10.5847C14.8986 10.4947 14.8186 10.4347 14.7386 10.3847C14.6186 10.3147 14.6086 10.2847 14.6486 10.1647C14.7086 9.98469 14.7586 9.79469 14.7586 9.59469C14.7586 9.51469 14.7286 9.46469 14.6486 9.44469C14.5686 9.42469 14.4786 9.41469 14.3986 9.42469C14.2786 9.42469 14.1986 9.38469 14.1286 9.28469C14.0486 9.16469 13.9686 9.05469 13.8986 8.93469C13.8686 8.88469 13.8286 8.83469 13.7786 8.80469C13.7286 8.77469 13.7086 8.74469 13.7086 8.69469C13.7086 8.64469 13.6786 8.60469 13.6586 8.56469C13.6386 8.53469 13.6286 8.50469 13.6386 8.47469C13.6686 8.40469 13.6386 8.38469 13.5686 8.38469C13.4886 8.38469 13.4386 8.34469 13.3886 8.29469C13.2986 8.19469 13.2086 8.09469 13.1086 7.99469C12.8186 7.70469 12.5386 7.38469 12.1386 7.21469C12.0886 7.19469 12.0386 7.16469 11.9986 7.10469C12.0486 7.10469 12.0886 7.12469 12.1186 7.15469C12.1486 7.17469 12.1686 7.20469 12.2086 7.22469C12.3386 7.29469 12.4586 7.36469 12.5786 7.45469C12.6486 7.50469 12.7386 7.50469 12.7786 7.45469C12.8286 7.39469 12.7786 7.34469 12.7386 7.30469C12.6886 7.24469 12.6686 7.17469 12.6886 7.08469C12.6986 7.02469 12.7086 6.96469 12.7186 6.90469C12.7286 7.01469 12.7786 7.12469 12.7786 7.24469C12.7786 7.30469 12.8286 7.32469 12.8786 7.31469C12.9786 7.29469 13.0486 7.34469 13.1186 7.40469C13.3186 7.56469 13.4986 7.75469 13.7486 7.85469C13.8386 7.89469 13.9186 7.94469 13.9386 8.05469C13.9386 8.09469 13.9786 8.11469 14.0086 8.13469C14.0786 8.16469 14.1386 8.19469 14.2186 8.21469C14.3586 8.24469 14.4986 8.26469 14.5986 8.40469C14.6886 8.52469 14.7686 8.65469 14.8286 8.79469C14.8786 8.89469 14.9286 8.98469 15.0486 9.02469C15.1886 9.06469 15.3286 9.07469 15.4586 9.15469C15.4686 9.15469 15.4886 9.15469 15.4986 9.15469C15.4986 9.18469 15.4986 9.21469 15.4986 9.24469C15.4086 10.0347 15.1986 10.7847 14.8686 11.5047C14.8786 11.4447 14.8986 11.3847 14.9086 11.3247L14.8886 11.2847ZM6.15857 4.39469C6.15857 4.65469 6.17857 4.90469 6.21857 5.15469C6.24857 5.34469 6.31857 5.52469 6.47857 5.64469C6.53857 5.69469 6.60857 5.74469 6.67857 5.69469C6.74857 5.65469 6.76857 5.57469 6.76857 5.49469C6.76857 5.39469 6.70857 5.32469 6.60857 5.30469C6.46857 5.27469 6.41857 5.19469 6.38857 5.06469C6.32857 4.80469 6.33857 4.54469 6.29857 4.28469C6.26857 4.10469 6.32857 4.03469 6.50857 4.03469C6.63857 4.03469 6.74857 3.98469 6.83857 3.90469C7.09857 3.68469 7.37857 3.49469 7.64857 3.29469C7.77857 3.19469 7.90857 3.08469 8.07857 3.05469C8.31857 3.00469 8.54857 3.01469 8.77857 3.09469C8.85857 3.12469 8.93857 3.13469 9.01857 3.13469C9.14857 2.92469 9.26857 2.72469 9.38857 2.51469C9.40857 2.47469 9.43857 2.44469 9.42857 2.40469C9.47857 2.38469 9.48857 2.32469 9.50857 2.28469C9.50857 2.28469 9.50857 2.28469 9.51857 2.28469C9.66857 2.33469 9.80857 2.41469 9.92857 2.51469C10.0186 2.58469 10.0686 2.66469 10.0986 2.75469C10.2086 2.80469 10.3186 2.83469 10.4386 2.84469C10.4886 2.84469 10.5286 2.85469 10.5686 2.86469C10.6086 2.79469 10.6686 2.73469 10.7286 2.67469C10.7286 2.67469 10.7286 2.67469 10.7386 2.66469C10.6186 2.62469 10.4986 2.58469 10.3686 2.56469C10.2986 2.55469 10.2386 2.52469 10.1786 2.47469C10.0886 2.40469 10.0386 2.27469 10.0986 2.20469C10.2186 2.04469 10.3186 1.85469 10.5386 1.78469C10.5886 1.76469 10.6386 1.75469 10.7186 1.72469C10.4586 1.58469 10.2186 1.45469 9.95857 1.36469C9.88857 1.32469 9.80857 1.29469 9.72857 1.26469C9.58857 1.21469 9.45857 1.16469 9.31857 1.11469C9.25857 1.09469 9.22857 1.11469 9.18857 1.15469C9.11857 1.24469 9.03857 1.33469 8.94857 1.41469C8.90857 1.45469 8.85857 1.49469 8.77857 1.48469C8.52857 1.44469 8.35857 1.18469 8.43857 0.944687C8.43857 0.924688 8.47857 0.884687 8.43857 0.884687C8.36857 0.874687 8.28857 0.814687 8.21857 0.884687C8.08857 1.00469 7.95857 1.12469 7.82857 1.24469C7.78857 1.29469 7.73857 1.33469 7.69857 1.38469C7.69857 1.38469 7.66857 1.41469 7.64857 1.42469C7.28857 1.79469 6.97857 2.20469 6.67857 2.61469C6.49857 2.85469 6.40857 3.12469 6.39857 3.41469C6.39857 3.46469 6.38857 3.50469 6.39857 3.55469C6.40857 3.71469 6.34857 3.81469 6.18857 3.87469C5.96857 3.95469 5.77857 4.08469 5.73857 4.33469C5.73857 4.33469 5.69857 4.37469 5.71857 4.39469C5.72857 4.40469 5.73857 4.39469 5.74857 4.37469C5.81857 4.33469 5.88857 4.29469 5.95857 4.25469C5.99857 4.23469 6.03857 4.22469 6.05857 4.22469C6.10857 4.22469 6.11857 4.26469 6.11857 4.35469L6.15857 4.39469ZM8.46857 4.60469C8.29857 5.03469 8.17857 5.47469 8.12857 5.92469C8.12857 5.97469 8.09857 6.03469 8.16857 6.05469C8.21857 6.07469 8.25857 6.01469 8.27857 5.98469C8.46857 5.75469 8.59857 5.48469 8.66857 5.20469C8.74857 4.89469 8.82857 4.59469 8.95857 4.30469C8.97857 4.27469 8.98857 4.23469 8.96857 4.20469C8.96857 4.19469 8.96857 4.18469 8.96857 4.17469C8.94857 4.18469 8.93857 4.19469 8.91857 4.20469C8.79857 4.28469 8.67857 4.37469 8.54857 4.44469C8.54857 4.44469 8.53857 4.44469 8.52857 4.44469C8.50857 4.49469 8.48857 4.53469 8.46857 4.58469V4.60469ZM6.68857 6.98469C6.68857 6.98469 6.70857 6.98469 6.71857 6.98469C6.74857 6.83469 6.77857 6.68469 6.80857 6.53469C6.75857 6.68469 6.68857 6.82469 6.68857 6.97469V6.98469ZM6.85857 5.62469C6.78857 5.67469 6.74857 5.73469 6.70857 5.81469C6.48857 6.21469 6.36857 6.65469 6.27857 7.10469C6.26857 7.13469 6.24857 7.15469 6.27857 7.20469C6.29857 7.16469 6.30857 7.14469 6.31857 7.12469C6.45857 6.91469 6.60857 6.71469 6.74857 6.49469C6.78857 6.43469 6.85857 6.42469 6.87857 6.35469C6.92857 6.16469 6.99857 5.97469 7.08857 5.79469C7.12857 5.71469 7.08857 5.66469 7.03857 5.62469C7.01857 5.60469 6.99857 5.59469 6.96857 5.59469C6.93857 5.59469 6.89857 5.61469 6.86857 5.63469L6.85857 5.62469ZM5.75857 7.25469C5.61857 7.30469 5.47857 7.29469 5.32857 7.30469C5.20857 7.30469 5.09857 7.35469 5.01857 7.44469C4.98857 7.48469 4.96857 7.52469 5.01857 7.56469C5.08857 7.61469 5.12857 7.69469 5.17857 7.76469C5.35857 8.03469 5.51857 8.31469 5.71857 8.56469C5.79857 8.66469 5.89857 8.74469 6.02857 8.79469C6.11857 8.82469 6.14857 8.79469 6.14857 8.71469C6.13857 8.29469 6.15857 7.88469 6.21857 7.47469C6.21857 7.44469 6.21857 7.42469 6.21857 7.39469C6.18857 7.34469 6.14857 7.36469 6.11857 7.37469C6.03857 7.38469 5.94857 7.41469 5.91857 7.32469C5.89857 7.26469 5.85857 7.24469 5.82857 7.24469C5.80857 7.24469 5.78857 7.24469 5.77857 7.25469H5.75857ZM6.74857 12.6647C6.92857 13.1447 7.13857 13.6047 7.32857 14.0747C7.33857 14.1047 7.34857 14.1647 7.39857 14.1647C7.54857 14.1647 7.68857 14.1847 7.84857 14.1647C7.60857 13.7147 7.37857 13.2747 7.14857 12.8347C7.13857 12.8047 7.09857 12.7747 7.11857 12.7447C7.14857 12.7047 7.18857 12.7447 7.21857 12.7447C7.78857 12.8247 8.36857 12.9047 8.94857 12.7947C8.99857 12.7947 9.01857 12.7947 9.02857 12.8447C9.04857 12.9247 9.07857 13.0147 9.10857 13.0947C9.17857 13.3747 9.28857 13.6347 9.37857 13.9047C9.39857 13.9547 9.41857 13.9747 9.46857 13.9547C9.63857 13.8947 9.81857 13.8747 9.98857 13.7847C9.77857 13.4347 9.61857 13.0547 9.45857 12.6847C9.39857 12.5447 9.39857 12.5447 9.55857 12.5047C9.84857 12.4347 10.1386 12.4147 10.4186 12.3147C10.4586 12.2947 10.5086 12.2847 10.5186 12.2347C10.5186 12.1847 10.4886 12.1447 10.4486 12.1147C10.3486 12.0447 10.2386 12.0447 10.1286 12.0847C9.90857 12.1647 9.66857 12.2047 9.43857 12.2647C9.30857 12.2947 9.23857 12.2447 9.20857 12.1247C9.16857 11.9647 9.11857 11.8147 9.06857 11.6647C9.01857 11.5147 8.95857 11.3547 8.86857 11.2147C8.84857 11.1847 8.81857 11.1347 8.76857 11.1447C8.71857 11.1547 8.70857 11.2047 8.70857 11.2547C8.68857 11.3647 8.69857 11.4647 8.70857 11.5747C8.73857 11.8447 8.80857 12.1047 8.89857 12.3647C8.91857 12.4347 8.92857 12.4747 8.82857 12.4747C8.74857 12.4747 8.67857 12.4947 8.59857 12.5047C8.10857 12.5947 7.62857 12.5447 7.16857 12.3547C7.09857 12.3247 7.06857 12.2947 7.04857 12.2247C6.90857 11.7847 6.79857 11.3347 6.70857 10.8847C6.63857 10.5347 6.59857 10.1847 6.59857 9.83469C6.59857 9.74469 6.62857 9.72469 6.70857 9.76469C6.95857 9.87469 7.22857 9.93469 7.48857 10.0247C7.59857 10.0647 7.71857 10.0847 7.83857 10.0547C7.92857 10.0247 7.99857 9.97469 8.00857 9.88469C8.00857 9.79469 7.90857 9.79469 7.84857 9.78469C7.53857 9.71469 7.25857 9.59469 6.97857 9.45469C7.01857 9.35469 7.08857 9.31469 7.19857 9.32469C7.51857 9.33469 7.83857 9.34469 8.16857 9.35469C8.22857 9.35469 8.25857 9.35469 8.24857 9.28469C8.20857 9.08469 8.17857 8.88469 8.14857 8.69469C8.08857 8.31469 8.03857 7.92469 8.01857 7.54469C8.00857 7.17469 8.01857 6.80469 8.05857 6.43469C8.05857 6.40469 8.08857 6.35469 8.02857 6.35469C7.92857 6.35469 7.82857 6.35469 7.74857 6.43469C7.71857 6.46469 7.67857 6.48469 7.63857 6.50469C7.60857 6.51469 7.54857 6.52469 7.53857 6.46469C7.52857 6.37469 7.46857 6.37469 7.39857 6.38469C7.30857 6.38469 7.23857 6.42469 7.16857 6.46469C6.87857 6.59469 6.82857 6.81469 7.03857 7.05469C7.05857 7.08469 7.08857 7.10469 7.10857 7.13469C7.18857 7.22469 7.14857 7.34469 7.03857 7.34469C6.91857 7.34469 6.79857 7.31469 6.70857 7.21469C6.70857 7.21469 6.74857 7.13469 6.70857 7.08469C6.67857 7.12469 6.66857 7.15469 6.67857 7.20469C6.66857 7.25469 6.64857 7.29469 6.64857 7.34469C6.51857 8.08469 6.47857 8.82469 6.58857 9.57469C6.58857 9.62469 6.63857 9.70469 6.58857 9.73469C6.52857 9.76469 6.45857 9.71469 6.39857 9.66469C6.37857 9.65469 6.36857 9.63469 6.35857 9.61469C6.28857 9.52469 6.22857 9.42469 6.18857 9.30469C6.16857 9.25469 6.15857 9.23469 6.09857 9.24469C5.98857 9.24469 5.88857 9.20469 5.80857 9.13469C5.44857 8.82469 5.22857 8.43469 5.04857 8.00469C5.04857 7.97469 5.04857 7.93469 5.00857 7.90469C4.97857 7.93469 4.98857 7.96469 5.00857 7.99469C5.00857 8.18469 5.00857 8.38469 5.00857 8.57469C5.00857 8.68469 5.00857 8.80469 5.11857 8.88469C5.15857 8.91469 5.15857 8.97469 5.15857 9.01469C5.15857 9.11469 5.15857 9.21469 5.12857 9.30469C5.09857 9.37469 5.12857 9.43469 5.19857 9.47469C5.23857 9.49469 5.27857 9.53469 5.32857 9.54469C5.51857 9.60469 5.62857 9.74469 5.70857 9.90469C5.73857 9.97469 5.80857 9.98469 5.86857 9.99469C5.92857 10.0047 5.91857 9.94469 5.93857 9.91469C5.95857 9.88469 5.97857 9.85469 5.99857 9.83469C6.03857 9.78469 6.08857 9.79469 6.14857 9.81469C6.19857 9.82469 6.18857 9.86469 6.18857 9.90469C6.19857 10.2347 6.25857 10.5647 6.32857 10.8947C6.40857 11.2847 6.51857 11.6747 6.60857 12.0647C6.61857 12.1247 6.66857 12.2047 6.60857 12.2547C6.54857 12.2947 6.47857 12.2447 6.40857 12.2147C6.24857 12.1447 6.09857 12.0447 5.91857 11.9847C5.93857 12.0647 5.98857 12.1247 5.99857 12.1847C6.07857 12.4747 6.29857 12.5547 6.56857 12.5847C6.57857 12.5847 6.58857 12.5847 6.59857 12.5847C6.59857 12.5847 6.60857 12.5847 6.61857 12.5847C6.71857 12.5847 6.76857 12.6547 6.79857 12.7447L6.74857 12.6647ZM6.92857 14.9347C6.61857 14.6047 6.32857 14.2647 6.06857 13.8947C5.56857 13.1947 5.14857 12.4447 4.82857 11.6547C4.51857 10.9047 4.30857 10.1247 4.19857 9.31469C4.02857 8.06469 4.14857 6.83469 4.45857 5.61469C4.77857 4.39469 5.29857 3.25469 6.00857 2.21469C6.52857 1.45469 7.12857 0.764687 7.83857 0.174687C7.88857 0.134687 7.93857 0.0946875 7.99857 0.0546875C8.02857 0.0546875 8.05857 0.0546875 8.08857 0.0646875C9.29857 0.364688 10.3786 0.924687 11.3186 1.73469C11.7386 2.10469 12.1286 2.50469 12.4486 2.96469C12.3486 2.93469 12.3086 2.84469 12.2286 2.78469C12.1186 2.69469 11.9886 2.71469 11.9286 2.83469C11.9286 2.85469 11.9086 2.90469 11.8886 2.87469C11.8086 2.78469 11.7586 2.86469 11.7086 2.90469C11.6286 2.98469 11.5486 2.99469 11.4486 2.94469C11.3886 3.01469 11.3386 3.08469 11.2786 3.15469C11.2986 3.15469 11.3186 3.17469 11.3186 3.20469C11.3186 3.24469 11.2786 3.27469 11.2386 3.29469C11.2086 3.30469 11.1786 3.30469 11.1486 3.31469C11.0886 3.38469 11.0286 3.44469 10.9686 3.51469C10.8886 3.59469 10.7986 3.67469 10.6686 3.70469C10.5986 3.72469 10.5286 3.70469 10.4786 3.67469C10.4886 3.74469 10.4786 3.78469 10.4186 3.83469C10.3486 3.88469 10.3586 3.95469 10.4286 3.99469C10.5286 4.05469 10.5986 4.23469 10.5686 4.34469C10.5386 4.42469 10.5086 4.51469 10.5386 4.60469C10.6086 4.80469 10.6286 5.00469 10.6686 5.21469C10.6886 5.33469 10.6486 5.41469 10.5486 5.46469C10.4486 5.52469 10.3486 5.56469 10.2686 5.64469C10.1386 5.76469 10.1486 5.77469 9.99857 5.68469C9.95857 5.66469 9.73857 5.68469 9.73857 5.70469C9.73857 5.80469 9.64857 5.82469 9.59857 5.87469C9.49857 5.98469 9.38857 6.08469 9.19857 6.05469C9.05857 6.03469 8.89857 6.05469 8.75857 6.08469C8.48857 6.12469 8.49857 6.13469 8.49857 6.39469C8.49857 6.47469 8.53857 6.52469 8.61857 6.55469C8.86857 6.63469 9.12857 6.66469 9.38857 6.63469C9.51857 6.61469 9.65857 6.59469 9.78857 6.63469C9.90857 6.66469 9.95857 6.74469 9.92857 6.84469C9.90857 6.91469 9.83857 6.93469 9.77857 6.95469C9.47857 7.03469 9.16857 7.02469 8.85857 6.99469C8.51857 6.95469 8.44857 7.02469 8.42857 7.35469C8.41857 7.60469 8.42857 7.85469 8.45857 8.10469C8.49857 8.50469 8.55857 8.89469 8.65857 9.28469C8.66857 9.34469 8.69857 9.36469 8.75857 9.36469C8.88857 9.36469 9.00857 9.36469 9.13857 9.36469C9.18857 9.36469 9.22857 9.38469 9.24857 9.43469C9.28857 9.52469 9.33857 9.62469 9.37857 9.71469C9.38857 9.73469 9.40857 9.75469 9.37857 9.78469C9.26857 9.86469 9.35857 9.87469 9.41857 9.88469C9.76857 9.92469 10.1186 9.96469 10.4686 10.0147C10.5486 10.0247 10.5286 9.98469 10.5186 9.93469C10.4686 9.68469 10.4186 9.43469 10.4086 9.17469C10.4086 9.03469 10.3986 8.89469 10.4486 8.76469C10.4886 8.68469 10.5286 8.68469 10.5786 8.75469C10.5986 8.77469 10.6086 8.79469 10.6186 8.82469C10.7386 9.08469 10.8086 9.37469 10.8586 9.65469C10.8986 9.87469 10.9386 9.91469 11.1686 9.88469C11.1986 9.88469 11.2186 9.87469 11.2486 9.87469C11.4486 9.85469 11.6486 9.80469 11.8486 9.76469C11.8886 9.76469 11.9386 9.74469 11.9586 9.79469C11.9786 9.84469 11.9486 9.87469 11.9086 9.90469C11.8486 9.96469 11.7686 10.0047 11.6886 10.0347C11.5186 10.1147 11.3286 10.1447 11.1386 10.1847C11.0386 10.2047 11.0086 10.2447 11.0286 10.3547C11.0886 10.6947 11.1986 11.0247 11.2286 11.3647C11.2486 11.5347 11.2586 11.6947 11.2286 11.8647C11.2286 11.9147 11.2186 11.9647 11.1586 11.9747C11.0986 11.9747 11.0586 11.9447 11.0286 11.9047C10.9986 11.8647 10.9786 11.8147 10.9586 11.7647C10.8086 11.3247 10.7086 10.8747 10.6286 10.4147C10.6286 10.3647 10.5986 10.3547 10.5486 10.3547C10.3886 10.3547 10.2386 10.3547 10.0786 10.3547C9.90857 10.3547 9.73857 10.3247 9.54857 10.3047C9.59857 10.4147 9.63857 10.5047 9.68857 10.5947C9.71857 10.6447 9.71857 10.6847 9.68857 10.7347C9.63857 10.8347 9.59857 10.9347 9.66857 11.0447C9.69857 11.0847 9.69857 11.1447 9.63857 11.1747C9.52857 11.2347 9.55857 11.3047 9.61857 11.3847C9.64857 11.4247 9.67857 11.4647 9.68857 11.5047C9.72857 11.6847 9.84857 11.7847 10.0186 11.8447C10.0886 11.8647 10.1486 11.9047 10.2186 11.9247C10.2386 11.9247 10.2686 11.9447 10.2886 11.9347C10.3686 11.9047 10.3786 11.9547 10.3886 12.0047C10.3986 12.0947 10.4586 12.1047 10.5386 12.0847C10.7186 12.0247 10.7686 12.0447 10.8286 12.2247C10.8586 12.3147 10.9086 12.3547 11.0086 12.3347C11.0586 12.3247 11.1086 12.3147 11.1586 12.2947C11.2386 12.2747 11.2986 12.2747 11.3386 12.3547C11.3686 12.4147 11.4286 12.4447 11.4886 12.4547C11.5286 12.4547 11.5586 12.4447 11.5886 12.4247C11.6186 12.4047 11.6586 12.3847 11.6886 12.3947C11.7486 12.4147 11.7286 12.5347 11.8186 12.5547C11.8186 12.5547 11.8286 12.5547 11.8386 12.5647C11.8286 12.5847 11.8086 12.6047 11.7986 12.6147C10.6486 13.7847 9.26857 14.5347 7.63857 14.8347C7.39857 14.8747 7.16857 14.9247 6.91857 14.9247L6.92857 14.9347Z" fill="#F6A247"/>
<path d="M3.3 7.44469C3.3 8.82469 3.56 10.0447 4.08 11.0947C4.6 12.1447 5.3 12.9547 6.19 13.5347C7.07 14.1047 7.42 14.3947 8.52 14.3947C9.62 14.3947 10 14.0947 10.86 13.5047C11.72 12.9147 12.38 12.0847 12.85 11.0147C13.32 9.95469 13.55 8.73469 13.55 7.36469C13.55 5.98469 13.29 4.76469 12.77 3.71469C12.25 2.66469 11.55 1.85469 10.66 1.27469C9.78 0.704688 9.43 0.414688 8.33 0.414688C7.2 0.414688 6.85 0.714688 5.99 1.30469C5.13 1.89469 4.47 2.72469 4 3.79469C3.53 4.85469 3.3 6.07469 3.3 7.44469ZM16.47 14.8247C16.08 15.8347 15.73 16.2647 14.9 17.0647C13.83 17.6647 12.41 17.6747 11.63 17.6747C10.85 17.6747 9.44 17.4547 8.26 17.0647C6.95 16.6347 5.88 16.3147 5.05 16.1047L4.41 15.9647C3.65 16.1647 2.92 16.2647 2.21 16.2647C1.4 16.2647 0.99 16.1347 0.99 15.8647C0.99 15.5847 1.47 15.4447 2.42 15.4447C3.04 15.4447 3.7 15.4947 4.41 15.6047C4.98 15.4847 5.63 15.2947 6.37 15.0447C6.83 14.8847 7.17 14.7747 7.4 14.7047C5.9 14.5947 4.59 14.2447 3.49 13.6447C2.38 13.0447 1.53 12.2247 0.92 11.1747C0.31 10.1447 0 8.92469 0 7.52469C0 6.12469 0.36 4.76469 1.07 3.63469C1.79 2.50469 2.79 1.62469 4.07 0.994687C5.36 0.364688 6.82 0.0546875 8.44 0.0546875C10.06 0.0546875 11.59 0.344688 12.86 0.914688C14.12 1.48469 15.11 2.31469 15.8 3.40469C16.5 4.48469 16.85 5.78469 16.85 7.28469C16.85 8.66469 16.53 9.90469 15.9 10.9847C15.26 12.0647 14.37 12.9347 13.22 13.5847C12.07 14.2347 10.75 14.6047 9.27 14.7147V14.7347C8.85 14.7747 8.48 14.8347 8.17 14.9047C7.86 14.9747 7.45 15.0947 6.94 15.2547C6.3 15.4647 5.77 15.6247 5.35 15.7147C7.31 16.0047 10.63 16.4047 11.59 16.4347C12.55 16.4547 13.63 16.3147 14.37 16.0447C15.1 15.7747 16.07 15.4447 16.48 14.8347L16.47 14.8247Z" fill="#1A1749"/>
<path d="M29.4814 0.115155V3.84516C29.4814 3.84516 24.4414 3.74516 23.5014 3.84516C23.0314 3.89515 22.3514 4.16516 22.1714 4.74516C21.9214 5.55516 22.9414 6.11516 22.9414 6.11516C22.9414 6.11516 23.2314 6.32516 23.5014 6.43516C24.0214 6.65516 24.6614 6.83516 25.1514 7.07516C25.9114 7.44516 27.2614 8.07516 27.9414 8.85515C28.6714 9.69516 28.9914 10.6752 29.1114 11.7452C29.1814 12.3952 29.1314 12.9452 28.9814 13.5552C28.8114 14.2552 28.4214 14.9552 27.9714 15.4652C26.9714 16.6252 25.3914 17.2652 24.0114 17.5052C23.3614 17.6152 22.7414 17.6752 22.0214 17.6552C21.3514 17.6352 20.6114 17.5452 20.0114 17.3952C19.4314 17.2452 18.9914 17.1252 18.6714 17.0152C17.8814 16.7552 17.6914 16.6052 17.6914 16.6052L18.4814 12.8352C18.4814 12.8352 18.4414 12.9552 19.6914 13.3552C20.6114 13.6552 21.1014 13.7452 21.9014 13.8352C21.9914 13.8352 22.3514 13.8852 22.6914 13.8952C23.0014 13.9052 23.8114 13.8352 24.1114 13.6452C24.2614 13.5552 24.5914 13.2652 24.7214 12.9652C24.8314 12.7252 24.8414 12.4452 24.8314 12.2652C24.8214 11.9952 24.6714 11.6352 24.2114 11.3252C23.7514 11.0252 23.5914 10.9652 23.4314 10.9052C22.7714 10.6252 22.5214 10.5952 22.1614 10.4352C19.4714 9.25515 17.6914 7.57516 17.8614 4.87516C17.9514 3.38516 18.7514 2.14516 19.5314 1.58516C20.2614 1.05516 20.6214 0.805155 21.3614 0.535155C21.8914 0.345155 22.4814 0.215155 23.3514 0.0951551C24.1614 -0.0148449 25.3014 0.0551551 26.2114 0.0551551C28.5714 0.0551551 29.4814 0.0951551 29.4814 0.0951551" fill="#1A1749"/>
<path d="M35.1584 3.58512V0.245117H30.8984V3.74512H35.1584V3.58512Z" fill="#F5A447"/>
<path d="M35.1584 4.81445H30.8984V17.6845H35.1584V4.81445Z" fill="#1A1749"/>
<path d="M44.5686 3.75473H48.6786V0.0947266H36.5586V3.75473H40.3386L40.3186 17.6647H44.4986L44.5686 3.75473Z" fill="#1A1749"/>
<path d="M0 25.1155L2.21 19.3555H3.03L5.39 25.1155H4.52L3.85 23.3755H1.44L0.81 25.1155H0ZM1.66 22.7555H3.61L3.01 21.1655C2.83 20.6855 2.69 20.2855 2.6 19.9755C2.53 20.3455 2.42 20.7155 2.29 21.0755L1.66 22.7655V22.7555Z" fill="#1A1848"/>
<path d="M6.44922 25.1155V19.3555H7.20922V24.4355H10.0492V25.1155H6.44922Z" fill="#1A1848"/>
<path d="M11.4006 25.1155V19.3555H12.1606V22.2155L15.0206 19.3555H16.0506L13.6306 21.6855L16.1506 25.1055H15.1406L13.0906 22.1955L12.1506 23.1155V25.1155H11.3906H11.4006Z" fill="#1A1848"/>
<path d="M16.6484 25.1155L18.8584 19.3555H19.6784L22.0384 25.1155H21.1684L20.4984 23.3755H18.0884L17.4584 25.1155H16.6484ZM18.3084 22.7555H20.2584L19.6584 21.1655C19.4784 20.6855 19.3384 20.2855 19.2484 19.9755C19.1784 20.3455 19.0684 20.7155 18.9384 21.0755L18.3084 22.7655V22.7555Z" fill="#1A1848"/>
<path d="M23.1211 25.1155V19.3555H23.9011L26.9211 23.8755V19.3555H27.6511V25.1155H26.8711L23.8511 20.5955V25.1155H23.1211Z" fill="#1A1848"/>
<path d="M36.2497 23.0951L37.0097 23.2851C36.8497 23.9151 36.5597 24.3851 36.1497 24.7151C35.7397 25.0451 35.2297 25.2051 34.6297 25.2051C34.0297 25.2051 33.4997 25.0751 33.1197 24.8251C32.7297 24.5751 32.4397 24.2051 32.2297 23.7251C32.0297 23.2451 31.9297 22.7351 31.9297 22.1851C31.9297 21.5851 32.0397 21.0651 32.2697 20.6151C32.4997 20.1651 32.8297 19.8251 33.2497 19.5951C33.6697 19.3651 34.1397 19.2451 34.6497 19.2451C35.2297 19.2451 35.7097 19.3951 36.0997 19.6851C36.4897 19.9751 36.7697 20.3951 36.9197 20.9251L36.1697 21.1051C36.0397 20.6851 35.8397 20.3851 35.5897 20.1851C35.3397 19.9951 35.0197 19.8951 34.6297 19.8951C34.1897 19.8951 33.8197 20.0051 33.5197 20.2151C33.2197 20.4251 33.0097 20.7151 32.8897 21.0651C32.7697 21.4251 32.7097 21.7951 32.7097 22.1751C32.7097 22.6651 32.7797 23.0951 32.9197 23.4551C33.0597 23.8251 33.2797 24.0951 33.5897 24.2751C33.8897 24.4551 34.2197 24.5451 34.5697 24.5451C34.9997 24.5451 35.3597 24.4251 35.6497 24.1751C35.9497 23.9251 36.1497 23.5651 36.2497 23.0751V23.0951Z" fill="#1A1848"/>
<path d="M38.5586 25.1155V19.3555H39.3186V25.1155H38.5586Z" fill="#1A1848"/>
<path d="M42.6109 25.1155V20.0355H40.7109V19.3555H45.2709V20.0355H43.3709V25.1155H42.6109Z" fill="#1A1848"/>
</g>
<defs>
<clipPath id="clip0_3448_53792">
<rect width="48.68" height="25.16" fill="white" transform="translate(0 0.0546875)"/>
</clipPath>
</defs>
</svg>
