<svg width="21" height="22" viewBox="0 0 21 22" fill="none" xmlns="http://www.w3.org/2000/svg">
<g id="Icon">
<path id="Icon_2" d="M9.83505 4.91115L18.7984 1.41327C19.3356 1.20364 19.6041 1.09883 19.7758 1.15616C19.9248 1.20596 20.0418 1.32292 20.0916 1.47197C20.1489 1.6436 20.0441 1.91219 19.8345 2.44937L16.3254 11.4413M14.8837 15.1357L13.2441 19.3371C13.0119 19.9322 12.8958 20.2297 12.7289 20.3164C12.5842 20.3916 12.4119 20.3915 12.2674 20.3162C12.1005 20.2293 11.9848 19.9316 11.7533 19.3362L9.12515 12.5782C9.07815 12.4574 9.05466 12.397 9.01836 12.3461C8.98619 12.301 8.94676 12.2615 8.90166 12.2294C8.85078 12.1931 8.79035 12.1696 8.6695 12.1226L1.9115 9.49448C1.31615 9.26296 1.01848 9.14719 0.931575 8.98039C0.856238 8.83579 0.856136 8.66354 0.931304 8.51885C1.01801 8.35195 1.31555 8.23584 1.91062 8.00361L6.11553 6.36268M19.4976 19.7502L1.49757 1.75017" stroke="#A3A3A3" stroke-width="1.5" stroke-linecap="round" stroke-linejoin="round"/>
</g>
</svg>
