<svg width="24" height="24" viewBox="0 0 24 24" fill="none" xmlns="http://www.w3.org/2000/svg">
<g id="Group">
<g id="Group_2">
<g id="Group_3">
<g id="Group_4">
<g id="Group_5">
<g id="Group_6">
<g id="Group_7">
<path id="Vector" fill-rule="evenodd" clip-rule="evenodd" d="M18.5624 10.7107C18.4673 10.7107 18.3703 10.6748 18.2967 10.6013L16.7465 9.0511H6.27737C6.06969 9.0511 5.90234 8.88375 5.90234 8.67607V2.19143C5.90234 1.98375 6.06969 1.81641 6.27737 1.81641C6.48505 1.81641 6.65239 1.98375 6.65239 2.19143V8.30104H16.9009C17.0011 8.30104 17.0962 8.34011 17.1665 8.4104L18.8274 10.0713C18.9745 10.2184 18.9745 10.4554 18.8274 10.6012C18.7544 10.6748 18.6594 10.7107 18.5624 10.7107Z" fill="#D4D4D4"/>
</g>
</g>
<g id="Group_8">
<g id="Group_9">
<path id="Vector_2" fill-rule="evenodd" clip-rule="evenodd" d="M2.98838 18.3307C2.7807 18.3307 2.61335 18.1633 2.61335 17.9556V15.4412L0.75389 13.5817C0.683595 13.5114 0.644531 13.4164 0.644531 13.3161V11.0986C0.644531 10.9983 0.683595 10.9033 0.75389 10.833L3.60689 7.97996V4.43362C3.60689 4.22594 3.77424 4.05859 3.98192 4.05859C4.1896 4.05859 4.35694 4.22594 4.35694 4.43362V8.13688C4.35694 8.23713 4.31788 8.3322 4.24758 8.40249L1.39458 11.2542V13.1605L3.25404 15.0199C3.32434 15.0902 3.3634 15.1853 3.3634 15.2856V17.9563C3.3634 18.1621 3.19672 18.3307 2.98838 18.3307Z" fill="#D4D4D4"/>
</g>
</g>
<g id="Group_10">
<g id="Group_11">
<path id="Vector_3" fill-rule="evenodd" clip-rule="evenodd" d="M6.79189 22.5139H3.73705C3.6368 22.5139 3.54173 22.4748 3.47144 22.4045L0.75389 19.687C0.683595 19.6167 0.644531 19.5216 0.644531 19.4214V16.8789C0.644531 16.6713 0.811876 16.5039 1.01956 16.5039C1.22724 16.5039 1.39458 16.6713 1.39458 16.8789V19.2651L3.89336 21.7639H6.79321C7.00089 21.7639 7.16823 21.9312 7.16823 22.1389C7.16818 22.3472 6.99957 22.5139 6.79189 22.5139Z" fill="#D4D4D4"/>
</g>
</g>
<g id="Group_12">
<g id="Group_13">
<path id="Vector_4" fill-rule="evenodd" clip-rule="evenodd" d="M10.6373 22.3978C10.5422 22.3978 10.4452 22.362 10.3717 22.2885L5.22758 17.1444C5.15728 17.0741 5.11822 16.979 5.11822 16.8788V13.9099L3.64161 12.4333C3.49446 12.2861 3.49446 12.0492 3.64161 11.9033C3.78877 11.7562 4.02574 11.7562 4.17157 11.9033L5.75759 13.4893C5.82788 13.5596 5.86694 13.6547 5.86694 13.755V16.7238L10.8997 21.7566C11.0469 21.9037 11.0469 22.1407 10.8997 22.2865C10.8294 22.362 10.7343 22.3978 10.6373 22.3978Z" fill="#D4D4D4"/>
</g>
</g>
<g id="Group_14">
<g id="Group_15">
<path id="Vector_5" fill-rule="evenodd" clip-rule="evenodd" d="M17.9161 22.2194H15.2285C15.1282 22.2194 15.0332 22.1803 14.9629 22.11L8.59083 15.738C8.44368 15.5908 8.44368 15.3538 8.59083 15.208C8.73798 15.0609 8.97496 15.0609 9.12079 15.208L15.3821 21.4694H17.5398V19.5096C17.5398 19.4093 17.5788 19.3143 17.6491 19.244L19.3119 17.5812C19.4591 17.434 19.6961 17.434 19.8419 17.5812C19.9891 17.7283 19.9891 17.9653 19.8419 18.1111L18.2884 19.6646V21.8443C18.2911 22.0507 18.1238 22.2194 17.9161 22.2194Z" fill="#D4D4D4"/>
</g>
</g>
<g id="Group_16">
<g id="Group_17">
<path id="Vector_6" fill-rule="evenodd" clip-rule="evenodd" d="M22.9802 22.2153C22.7726 22.2153 22.6052 22.048 22.6052 21.8403V12.9793L19.844 15.7385C19.7737 15.8088 19.6787 15.8479 19.5784 15.8479H13.5C13.2923 15.8479 13.125 15.6805 13.125 15.4728C13.125 15.2652 13.2923 15.0978 13.5 15.0978H19.4234L22.7139 11.8073C22.822 11.6992 22.9828 11.668 23.1234 11.7259C23.2641 11.7839 23.3546 11.9213 23.3546 12.0729V21.8403C23.3553 22.0467 23.1866 22.2153 22.9802 22.2153Z" fill="#D4D4D4"/>
</g>
</g>
<g id="Group_18">
<g id="Group_19">
<path id="Vector_7" fill-rule="evenodd" clip-rule="evenodd" d="M16.1391 13.3588H12.428C12.3277 13.3588 12.2327 13.3198 12.1624 13.2495L10.4813 11.5684H6.79299C6.58531 11.5684 6.41797 11.4011 6.41797 11.1934C6.41797 10.9857 6.58531 10.8184 6.79299 10.8184H10.6369C10.7371 10.8184 10.8322 10.8574 10.9025 10.9277L12.5836 12.6088H16.1397C16.3474 12.6088 16.5148 12.7761 16.5148 12.9838C16.5154 13.1915 16.3455 13.3588 16.1391 13.3588Z" fill="#D4D4D4"/>
</g>
</g>
<g id="Group_20">
<g id="Group_21">
<path id="Vector_8" fill-rule="evenodd" clip-rule="evenodd" d="M21.3905 7.81917C21.2954 7.81917 21.1984 7.78337 21.1249 7.70981L20.0545 6.63947H9.14456C8.93688 6.63947 8.76953 6.47212 8.76953 6.26444V4.43362C8.76953 4.22594 8.93688 4.05859 9.14456 4.05859C9.35224 4.05859 9.51958 4.22594 9.51958 4.43362V5.89135H20.2108C20.311 5.89135 20.4061 5.93041 20.4764 6.00071L21.6562 7.18047C21.8033 7.32762 21.8033 7.5646 21.6562 7.71043C21.5826 7.78337 21.4856 7.81917 21.3905 7.81917Z" fill="#D4D4D4"/>
</g>
</g>
<g id="Group_22">
<g id="Group_23">
<path id="Vector_9" fill-rule="evenodd" clip-rule="evenodd" d="M3.98455 4.76653C3.73323 4.76653 3.49234 4.67406 3.30353 4.50544C3.10037 4.32248 2.98191 4.07248 2.96629 3.80097C2.95195 3.52884 3.04442 3.26643 3.2254 3.06526C3.40836 2.86211 3.65836 2.74364 3.92987 2.72803C4.49239 2.69807 4.97352 3.13103 5.00348 3.69227C5.01782 3.9644 4.92535 4.22681 4.74437 4.42798C4.56339 4.62981 4.31141 4.74959 4.0399 4.76521C4.02036 4.76653 4.00144 4.76653 3.98455 4.76653ZM3.98455 3.47615C3.97998 3.47615 3.97545 3.47615 3.97021 3.47615C3.89859 3.4794 3.83089 3.51196 3.78272 3.56536C3.73455 3.61877 3.70917 3.68907 3.7137 3.76068C3.71696 3.8323 3.74951 3.9 3.80292 3.94817C3.85632 3.99634 3.92662 4.02172 3.99824 4.01719C4.06985 4.01394 4.13756 3.98139 4.18572 3.92798C4.23389 3.87457 4.25927 3.80427 4.25475 3.73266C4.24691 3.58876 4.1284 3.47615 3.98455 3.47615Z" fill="#D4D4D4"/>
</g>
</g>
<g id="Group_24">
<g id="Group_25">
<path id="Vector_10" fill-rule="evenodd" clip-rule="evenodd" d="M6.27752 2.51653C6.0262 2.51653 5.78531 2.42406 5.5965 2.25544C5.39334 2.07248 5.27488 1.82248 5.25926 1.55097C5.24492 1.27884 5.33739 1.01643 5.51837 0.815261C5.70133 0.612108 5.95133 0.493644 6.22284 0.478028C6.78536 0.448069 7.26649 0.881029 7.29644 1.44227C7.31079 1.7144 7.21832 1.97681 7.03734 2.17798C6.85438 2.38113 6.60438 2.49959 6.33286 2.51521C6.31465 2.51653 6.29578 2.51653 6.27752 2.51653ZM6.27885 1.22615C6.27427 1.22615 6.26974 1.22615 6.2645 1.22615C6.19288 1.2294 6.12518 1.26196 6.07701 1.31536C6.02885 1.36877 6.00346 1.43907 6.00799 1.51068C6.01125 1.5823 6.0438 1.65 6.09721 1.69817C6.15062 1.74634 6.22091 1.77172 6.29253 1.76719C6.36415 1.76394 6.43185 1.73139 6.48002 1.67798C6.52818 1.62457 6.55357 1.55427 6.54904 1.48266C6.54121 1.33876 6.42274 1.22615 6.27885 1.22615Z" fill="#D4D4D4"/>
</g>
</g>
<g id="Group_26">
<g id="Group_27">
<path id="Vector_11" fill-rule="evenodd" clip-rule="evenodd" d="M9.14537 4.74108C8.60758 4.74108 8.15641 4.31788 8.12645 3.77556C8.11211 3.50344 8.20458 3.24103 8.38556 3.03986C8.56852 2.8367 8.81852 2.71824 9.09003 2.70262C9.36216 2.68828 9.62457 2.78075 9.82574 2.96173C10.0289 3.14469 10.1474 3.39469 10.163 3.6662C10.1773 3.93833 10.0848 4.20074 9.90387 4.40191C9.72091 4.60506 9.47091 4.72353 9.19939 4.73914C9.18118 4.73975 9.16231 4.74108 9.14537 4.74108ZM9.14537 3.44871C9.14079 3.44871 9.13627 3.44871 9.13103 3.44871C8.9826 3.45654 8.86668 3.58477 8.87452 3.73324C8.88235 3.88167 9.01058 3.99759 9.15905 3.98975C9.23067 3.9865 9.29837 3.95394 9.34654 3.90054C9.39471 3.84713 9.42009 3.77683 9.41557 3.70522C9.41231 3.6336 9.37976 3.5659 9.32635 3.51773C9.27691 3.47343 9.21246 3.44871 9.14537 3.44871Z" fill="#D4D4D4"/>
</g>
</g>
<g id="Group_28">
<g id="Group_29">
<path id="Vector_12" fill-rule="evenodd" clip-rule="evenodd" d="M3.44941 12.691C3.19809 12.691 2.9572 12.5985 2.76839 12.4299C2.56523 12.247 2.44677 11.997 2.43115 11.7254C2.40119 11.1629 2.83415 10.6818 3.3954 10.6518C3.66752 10.6375 3.92993 10.73 4.1311 10.9109C4.33426 11.0939 4.45272 11.3439 4.46834 11.6154C4.48268 11.8875 4.39021 12.15 4.20923 12.3511C4.02627 12.5543 3.77627 12.6727 3.50475 12.6884C3.48588 12.691 3.46701 12.691 3.44941 12.691ZM3.4514 11.4C3.44682 11.4 3.44229 11.4 3.43705 11.4C3.28863 11.4078 3.17271 11.536 3.18054 11.6845C3.1838 11.7561 3.21635 11.8238 3.26976 11.872C3.32317 11.9202 3.39346 11.9455 3.46508 11.941C3.5367 11.9378 3.6044 11.9052 3.65257 11.8518C3.70074 11.7984 3.72612 11.7281 3.72159 11.6565C3.71834 11.5849 3.68578 11.5172 3.63237 11.469C3.58095 11.4234 3.51717 11.4 3.4514 11.4Z" fill="#D4D4D4"/>
</g>
</g>
<g id="Group_30">
<g id="Group_31">
<path id="Vector_13" fill-rule="evenodd" clip-rule="evenodd" d="M6.09785 12.2144C5.84653 12.2144 5.60563 12.122 5.41682 11.9534C5.21367 11.7704 5.09521 11.5204 5.07959 11.2489C5.04963 10.6864 5.48259 10.2052 6.04383 10.1753C6.31596 10.1609 6.57837 10.2534 6.77954 10.4344C6.98269 10.6173 7.10116 10.8673 7.11677 11.1389C7.13112 11.411 7.03864 11.6734 6.85767 11.8746C6.67669 12.0757 6.42471 12.1962 6.15319 12.2118C6.13559 12.2125 6.11672 12.2144 6.09785 12.2144ZM6.09978 10.9221C6.09521 10.9221 6.09068 10.9221 6.08544 10.9221C5.93702 10.9299 5.8211 11.0581 5.82893 11.2066C5.83218 11.2782 5.86474 11.3459 5.91815 11.3941C5.97155 11.4423 6.04185 11.4676 6.11347 11.4631C6.18508 11.4599 6.25278 11.4273 6.30095 11.3739C6.34912 11.3205 6.3745 11.2502 6.36998 11.1786C6.36672 11.107 6.33417 11.0393 6.28076 10.9911C6.23066 10.9468 6.16687 10.9221 6.09978 10.9221Z" fill="#D4D4D4"/>
</g>
</g>
<g id="Group_32">
<g id="Group_33">
<path id="Vector_14" fill-rule="evenodd" clip-rule="evenodd" d="M16.8713 14.0048C16.62 14.0048 16.3791 13.9123 16.1902 13.7437C15.9871 13.5608 15.8686 13.3108 15.853 13.0392C15.8387 12.7671 15.9311 12.5047 16.1121 12.3035C16.2931 12.1024 16.5451 11.9819 16.8166 11.9663C17.3791 11.9364 17.8602 12.3693 17.8902 12.9306C17.9202 13.4931 17.4872 13.9742 16.926 14.0042C16.909 14.0048 16.8901 14.0048 16.8713 14.0048ZM16.8725 12.7144C16.868 12.7144 16.8634 12.7144 16.8582 12.7144C16.7866 12.7177 16.7189 12.7502 16.6707 12.8036C16.6225 12.8571 16.5972 12.9273 16.6017 12.999C16.6049 13.0706 16.6375 13.1383 16.6909 13.1865C16.7443 13.2346 16.8146 13.26 16.8862 13.2555C17.0347 13.2476 17.1506 13.1194 17.1427 12.9709C17.1356 12.8264 17.0151 12.7144 16.8725 12.7144Z" fill="#D4D4D4"/>
</g>
</g>
<g id="Group_34">
<g id="Group_35">
<path id="Vector_15" fill-rule="evenodd" clip-rule="evenodd" d="M18.954 11.896C18.4162 11.896 17.965 11.4728 17.9351 10.9305C17.9051 10.368 18.3381 9.88688 18.8993 9.85692C19.1714 9.84258 19.4338 9.93505 19.635 10.116C19.8382 10.299 19.9566 10.549 19.9722 10.8205C19.9866 11.0926 19.8941 11.355 19.7131 11.5562C19.5322 11.7574 19.2802 11.8778 19.0087 11.8934C18.9898 11.896 18.9715 11.896 18.954 11.896ZM18.954 10.6056C18.9494 10.6056 18.9449 10.6056 18.9396 10.6056C18.7912 10.6135 18.6753 10.7417 18.6831 10.8902C18.691 11.0386 18.8192 11.1545 18.9677 11.1467C19.0393 11.1434 19.107 11.1109 19.1552 11.0575C19.2033 11.0041 19.2287 10.9338 19.2242 10.8622C19.2209 10.7905 19.1884 10.7228 19.135 10.6747C19.0855 10.6291 19.021 10.6056 18.954 10.6056Z" fill="#D4D4D4"/>
</g>
</g>
<g id="Group_36">
<g id="Group_37">
<path id="Vector_16" fill-rule="evenodd" clip-rule="evenodd" d="M21.8478 8.97161C21.5965 8.97161 21.3556 8.87914 21.1668 8.71052C20.9637 8.52756 20.8452 8.27756 20.8296 8.00605C20.8152 7.73392 20.9077 7.47151 21.0887 7.27034C21.2716 7.06719 21.5216 6.94872 21.7932 6.93311C22.3557 6.90315 22.8368 7.33611 22.8668 7.89735C22.8811 8.16947 22.7886 8.43189 22.6077 8.63306C22.4267 8.83423 22.1747 8.95467 21.9032 8.97029C21.8856 8.97161 21.8668 8.97161 21.8478 8.97161ZM21.8498 7.68056C21.8452 7.68056 21.8407 7.68056 21.8355 7.68056C21.7639 7.68382 21.6962 7.71637 21.648 7.76978C21.5998 7.82319 21.5744 7.89348 21.579 7.9651C21.5822 8.03672 21.6148 8.10442 21.6682 8.15259C21.7216 8.20076 21.7919 8.22614 21.8635 8.22161C21.9351 8.21836 22.0028 8.1858 22.051 8.13239C22.0992 8.07899 22.1245 8.00869 22.12 7.93707C22.1122 7.79191 21.9917 7.68056 21.8498 7.68056Z" fill="#D4D4D4"/>
</g>
</g>
<g id="Group_38">
<g id="Group_39">
<path id="Vector_17" fill-rule="evenodd" clip-rule="evenodd" d="M12.8283 16.4931C12.577 16.4931 12.3361 16.4006 12.1473 16.232C11.9441 16.049 11.8257 15.799 11.81 15.5275C11.7957 15.2554 11.8882 14.993 12.0691 14.7918C12.2521 14.5887 12.5021 14.4702 12.7736 14.4546C13.3361 14.4246 13.8173 14.8576 13.8472 15.4188C13.8616 15.691 13.7691 15.9534 13.5881 16.1545C13.4071 16.3564 13.1552 16.4762 12.8836 16.4918C12.8661 16.4931 12.8472 16.4931 12.8283 16.4931ZM12.8303 15.2027C12.8257 15.2027 12.8212 15.2027 12.8159 15.2027C12.7443 15.206 12.6766 15.2385 12.6285 15.2919C12.5803 15.3453 12.5549 15.4156 12.5594 15.4872C12.5627 15.5589 12.5952 15.6266 12.6487 15.6747C12.7021 15.7229 12.7724 15.7483 12.844 15.7438C12.9156 15.7405 12.9833 15.7079 13.0315 15.6545C13.0796 15.6011 13.105 15.5308 13.1005 15.4592C13.0926 15.3147 12.9735 15.2027 12.8303 15.2027Z" fill="#D4D4D4"/>
</g>
</g>
<g id="Group_40">
<g id="Group_41">
<path id="Vector_18" fill-rule="evenodd" clip-rule="evenodd" d="M8.43377 15.9853C8.18245 15.9853 7.94156 15.8928 7.75275 15.7242C7.54959 15.5412 7.43113 15.2912 7.41551 15.0197C7.40117 14.7476 7.49364 14.4852 7.67462 14.284C7.85758 14.0809 8.10758 13.9624 8.37909 13.9468C8.94161 13.9168 9.42274 14.3498 9.45269 14.911C9.46704 15.1831 9.37457 15.4456 9.19359 15.6467C9.01063 15.8499 8.76063 15.9683 8.48911 15.984C8.47157 15.984 8.45264 15.9853 8.43377 15.9853ZM8.43576 14.6929C8.43118 14.6929 8.42665 14.6929 8.42141 14.6929C8.3498 14.6962 8.28209 14.7287 8.23393 14.7821C8.18576 14.8355 8.16038 14.9058 8.1649 14.9774C8.16816 15.0491 8.20071 15.1168 8.25412 15.1649C8.30753 15.2131 8.37782 15.2385 8.44944 15.234C8.52106 15.2307 8.58876 15.1982 8.63693 15.1447C8.6851 15.0913 8.71048 15.021 8.70595 14.9494C8.69812 14.8056 8.5796 14.6929 8.43576 14.6929Z" fill="#D4D4D4"/>
</g>
</g>
<g id="Group_42">
<g id="Group_43">
<path id="Vector_19" fill-rule="evenodd" clip-rule="evenodd" d="M20.0048 18.3628C19.467 18.3628 19.0158 17.9396 18.9858 17.3973C18.9559 16.8348 19.3888 16.3537 19.9501 16.3237C20.2222 16.3094 20.4846 16.4018 20.6858 16.5828C20.8889 16.7658 21.0074 17.0158 21.023 17.2873C21.0374 17.5594 20.9449 17.8218 20.7639 18.023C20.5829 18.2248 20.331 18.3446 20.0594 18.3602C20.0418 18.3608 20.023 18.3628 20.0048 18.3628ZM20.006 17.0705C20.0015 17.0705 19.9969 17.0705 19.9917 17.0705C19.8433 17.0783 19.7273 17.2065 19.7352 17.355C19.743 17.5034 19.8712 17.6193 20.0197 17.6115C20.0913 17.6083 20.159 17.5757 20.2072 17.5223C20.2554 17.4689 20.2808 17.3986 20.2762 17.327C20.273 17.2554 20.2404 17.1877 20.187 17.1395C20.1356 17.0952 20.0731 17.0705 20.006 17.0705Z" fill="#D4D4D4"/>
</g>
</g>
<g id="Group_44">
<g id="Group_45">
<path id="Vector_20" fill-rule="evenodd" clip-rule="evenodd" d="M22.9806 23.5243C22.7293 23.5243 22.4884 23.4319 22.2996 23.2633C22.0965 23.0803 21.978 22.8303 21.9624 22.5588C21.948 22.2867 22.0405 22.0242 22.2215 21.8231C22.4045 21.6199 22.6545 21.5015 22.926 21.4858C23.4885 21.4559 23.9696 21.8888 23.9996 22.4501C24.0295 23.0126 23.5966 23.4937 23.0353 23.5237C23.0178 23.5243 22.9989 23.5243 22.9806 23.5243ZM22.982 22.234C22.9774 22.234 22.9729 22.234 22.9676 22.234C22.896 22.2372 22.8283 22.2698 22.7801 22.3232C22.732 22.3766 22.7066 22.4469 22.7111 22.5185C22.7144 22.5901 22.7469 22.6578 22.8003 22.706C22.8537 22.7542 22.924 22.7795 22.9957 22.775C23.1441 22.7672 23.26 22.6389 23.2522 22.4905C23.2443 22.3446 23.1239 22.234 22.982 22.234Z" fill="#D4D4D4"/>
</g>
</g>
<g id="Group_46">
<g id="Group_47">
<path id="Vector_21" fill-rule="evenodd" clip-rule="evenodd" d="M11.0985 23.523C10.5607 23.523 10.1096 23.0998 10.0796 22.5575C10.0496 21.995 10.4826 21.5138 11.0438 21.4839C11.316 21.4695 11.5784 21.562 11.7795 21.743C11.9827 21.9259 12.1012 22.1759 12.1168 22.4475C12.1311 22.7196 12.0386 22.982 11.8577 23.1832C11.6747 23.3863 11.4247 23.5048 11.1532 23.5204C11.1343 23.523 11.1155 23.523 11.0985 23.523ZM11.0985 22.2326C11.0939 22.2326 11.0894 22.2326 11.0842 22.2326C10.9357 22.2404 10.8198 22.3687 10.8277 22.5171C10.8355 22.6656 10.9637 22.7815 11.1122 22.7736C11.1838 22.7704 11.2515 22.7378 11.2997 22.6844C11.3479 22.631 11.3732 22.5607 11.3687 22.4891C11.3655 22.4175 11.3329 22.3498 11.2795 22.3016C11.23 22.2554 11.1656 22.2326 11.0985 22.2326Z" fill="#D4D4D4"/>
</g>
</g>
<g id="Group_48">
<g id="Group_49">
<path id="Vector_22" fill-rule="evenodd" clip-rule="evenodd" d="M7.48523 23.1597C6.94744 23.1597 6.49627 22.7365 6.46631 22.1942C6.43635 21.6317 6.86931 21.1506 7.43055 21.1206C7.99306 21.0906 8.47419 21.5236 8.50415 22.0848C8.53411 22.6474 8.10115 23.1285 7.53991 23.1585C7.52104 23.1597 7.50217 23.1597 7.48523 23.1597ZM7.48523 21.8687C7.48065 21.8687 7.47613 21.8687 7.47089 21.8687C7.32246 21.8765 7.20654 22.0047 7.21438 22.1532C7.22221 22.3017 7.35044 22.4176 7.49891 22.4097C7.64734 22.4019 7.76326 22.2737 7.75542 22.1252C7.74764 21.98 7.62719 21.8687 7.48523 21.8687Z" fill="#D4D4D4"/>
</g>
</g>
<g id="Group_50">
<g id="Group_51">
<path id="Vector_23" fill-rule="evenodd" clip-rule="evenodd" d="M1.02039 17.2339C0.482595 17.2339 0.031425 16.8107 0.00146573 16.2684C-0.0284936 15.7059 0.404467 15.2248 0.965708 15.1948C1.23783 15.1805 1.50025 15.2729 1.70141 15.4539C1.90457 15.6369 2.02303 15.8869 2.03865 16.1584C2.05299 16.4305 1.96052 16.6929 1.77954 16.8941C1.59658 17.0973 1.34658 17.2157 1.07507 17.2313C1.05686 17.2339 1.03794 17.2339 1.02039 17.2339ZM1.02039 15.9435C1.01581 15.9435 1.01128 15.9435 1.00604 15.9435C0.85762 15.9514 0.7417 16.0796 0.749533 16.2281C0.757366 16.3765 0.885596 16.4924 1.03407 16.4846C1.10569 16.4813 1.17339 16.4488 1.22156 16.3954C1.26973 16.342 1.29511 16.2717 1.29058 16.2C1.28733 16.1284 1.25477 16.0607 1.20136 16.0126C1.15187 15.9663 1.08809 15.9435 1.02039 15.9435Z" fill="#D4D4D4"/>
</g>
</g>
<g id="Group_52">
<g id="Group_53">
<path id="Vector_24" fill-rule="evenodd" clip-rule="evenodd" d="M2.99303 19.6512C2.45524 19.6512 2.00407 19.228 1.97411 18.6857C1.95976 18.4136 2.05223 18.1512 2.23321 17.95C2.41617 17.7469 2.66617 17.6284 2.93769 17.6128C3.20981 17.5984 3.47222 17.6909 3.67339 17.8719C3.87655 18.0548 3.99501 18.3048 4.01063 18.5764C4.02497 18.8485 3.9325 19.1109 3.75152 19.3121C3.57055 19.5139 3.31856 19.6337 3.04705 19.6493C3.02884 19.6492 3.00997 19.6512 2.99303 19.6512ZM2.99303 18.3589C2.98845 18.3589 2.98392 18.3589 2.97868 18.3589C2.90707 18.3621 2.83937 18.3947 2.7912 18.4481C2.74303 18.5015 2.71765 18.5718 2.72217 18.6434C2.73001 18.7918 2.85824 18.9077 3.00671 18.8999C3.07833 18.8967 3.14603 18.8641 3.1942 18.8107C3.24237 18.7573 3.26775 18.687 3.26322 18.6154C3.25997 18.5438 3.22741 18.4761 3.174 18.4279C3.1239 18.3836 3.06012 18.3589 2.99303 18.3589Z" fill="#D4D4D4"/>
</g>
</g>
</g>
</g>
</g>
</g>
</g>
</svg>
