<svg width="24" height="24" viewBox="0 0 24 24" fill="none" xmlns="http://www.w3.org/2000/svg">
<g id="Group">
<g id="Group_2">
<g id="Group_3">
<path id="Vector" d="M6.78125 19.7053V17.4023H8.30375" stroke="#D4D4D4" stroke-width="0.8" stroke-miterlimit="10" stroke-linecap="round" stroke-linejoin="round"/>
<path id="Vector_2" d="M6.78125 21.3457V22.887C6.78125 23.3079 7.1225 23.6487 7.54297 23.6487H16.4539" stroke="#D4D4D4" stroke-width="0.8" stroke-miterlimit="10" stroke-linecap="round" stroke-linejoin="round"/>
<path id="Vector_3" d="M13.3452 15.8789H8.30469V17.4014H15.6941V22.8867C15.6941 23.3072 16.0344 23.6475 16.4548 23.648H16.4553C16.6653 23.648 16.8556 23.5627 16.9934 23.4248C17.1313 23.287 17.2166 23.0967 17.2166 22.8867V15.8789H14.9858" stroke="#D4D4D4" stroke-width="0.8" stroke-miterlimit="10" stroke-linecap="round" stroke-linejoin="round"/>
<g id="Group_4">
<path id="Vector_4" d="M9.33594 19.1895L10.2454 21.8067C10.2567 21.8392 10.2873 21.861 10.3217 21.861C10.3565 21.861 10.3874 21.8387 10.3984 21.8056L11.2666 19.1895" stroke="#D4D4D4" stroke-width="0.8" stroke-miterlimit="10" stroke-linecap="round" stroke-linejoin="round"/>
<path id="Vector_5" d="M12.5781 19.1895H13.1373V21.8056" stroke="#D4D4D4" stroke-width="0.8" stroke-miterlimit="10" stroke-linecap="round" stroke-linejoin="round"/>
</g>
</g>
<g id="Group_5">
<path id="Vector_6" d="M10.0247 8.11953H10.0242H1.11281C0.692344 8.11953 0.351562 7.77875 0.351562 7.35875V5.43359" stroke="#D4D4D4" stroke-width="0.8" stroke-miterlimit="10" stroke-linecap="round" stroke-linejoin="round"/>
<path id="Vector_7" d="M0.351562 3.79258V1.87305H1.87406" stroke="#D4D4D4" stroke-width="0.8" stroke-miterlimit="10" stroke-linecap="round" stroke-linejoin="round"/>
<path id="Vector_8" d="M1.875 1.87402V0.351562H10.7868V7.35909C10.7868 7.56909 10.7018 7.75973 10.5636 7.89731C10.426 8.03489 10.2353 8.12002 10.0253 8.12002C9.60534 8.12002 9.26442 7.77961 9.26442 7.35909V1.87402H1.875Z" stroke="#D4D4D4" stroke-width="0.8" stroke-miterlimit="10" stroke-linecap="round" stroke-linejoin="round"/>
<g id="Group_6">
<path id="Vector_9" d="M2.51172 3.66211L3.42119 6.27937C3.43248 6.31186 3.46309 6.33366 3.4975 6.33366C3.53233 6.33366 3.56322 6.31134 3.57419 6.2783L4.44236 3.66211" stroke="#D4D4D4" stroke-width="0.8" stroke-miterlimit="10" stroke-linecap="round" stroke-linejoin="round"/>
<path id="Vector_10" d="M7.104 6.33366H5.76469L6.70017 5.00686C6.90005 4.70569 7.01944 4.49517 6.98198 4.21514C6.93862 3.89086 6.65067 3.66211 6.32006 3.66211C5.99325 3.66211 5.72086 3.89522 5.66016 4.20427" stroke="#D4D4D4" stroke-width="0.8" stroke-miterlimit="10" stroke-linecap="round" stroke-linejoin="round"/>
</g>
</g>
<g id="Group_7">
<path id="Vector_11" d="M22.8883 8.12109H22.8695H17.2773" stroke="#D4D4D4" stroke-width="0.8" stroke-miterlimit="10" stroke-linecap="round" stroke-linejoin="round"/>
<path id="Vector_12" d="M14.7373 1.875H13.2148V7.36031C13.2148 7.78078 13.5561 8.12109 13.9766 8.12109H15.6359" stroke="#D4D4D4" stroke-width="0.8" stroke-miterlimit="10" stroke-linecap="round" stroke-linejoin="round"/>
<path id="Vector_13" d="M22.1276 1.87397V7.35928C22.1276 7.7797 22.4684 8.12048 22.8888 8.12048C23.3092 8.12048 23.65 7.77966 23.65 7.35928V0.351562H14.7383V1.87397H22.1276Z" stroke="#D4D4D4" stroke-width="0.8" stroke-miterlimit="10" stroke-linecap="round" stroke-linejoin="round"/>
<g id="Group_8">
<path id="Vector_14" d="M15.3906 3.66211L16.3001 6.27937C16.3114 6.31186 16.342 6.33366 16.3764 6.33366C16.4112 6.33366 16.4421 6.31134 16.4531 6.2783L17.3213 3.66211" stroke="#D4D4D4" stroke-width="0.8" stroke-miterlimit="10" stroke-linecap="round" stroke-linejoin="round"/>
<path id="Vector_15" d="M18.6523 4.18936C18.7255 3.86194 18.9762 3.66211 19.2941 3.66211C19.6553 3.66211 19.9482 3.95494 19.9482 4.31616C19.9482 4.67738 19.6553 4.9702 19.2941 4.9702" stroke="#D4D4D4" stroke-width="0.8" stroke-miterlimit="10" stroke-linecap="round" stroke-linejoin="round"/>
<path id="Vector_16" d="M19.2947 4.9707C19.6559 4.9707 19.9487 5.26353 19.9487 5.62475C19.9487 5.98597 19.6559 6.2788 19.2947 6.2788C18.9321 6.28063 18.6383 5.9788 18.6406 5.62475" stroke="#D4D4D4" stroke-width="0.8" stroke-miterlimit="10" stroke-linecap="round" stroke-linejoin="round"/>
</g>
</g>
<path id="Vector_17" d="M12 15.7029V12.9023" stroke="#D4D4D4" stroke-width="0.8" stroke-miterlimit="10" stroke-linecap="round" stroke-linejoin="round"/>
<path id="Vector_18" d="M4.34375 10.4154L5.18881 9.57031L6.03387 10.4154" stroke="#D4D4D4" stroke-width="0.8" stroke-miterlimit="10" stroke-linecap="round" stroke-linejoin="round"/>
<path id="Vector_19" d="M17.5859 10.4154L18.431 9.57031L19.2761 10.4154" stroke="#D4D4D4" stroke-width="0.8" stroke-miterlimit="10" stroke-linecap="round" stroke-linejoin="round"/>
</g>
<path id="Vector_20" d="M18.4308 9.82617V11.9728C18.4308 12.396 18.0878 12.739 17.6646 12.739H5.95367C5.53053 12.739 5.1875 12.396 5.1875 11.9728V9.82617" stroke="#D4D4D4" stroke-width="0.8" stroke-miterlimit="10" stroke-linecap="round" stroke-linejoin="round"/>
</g>
</svg>
