<?xml version="1.0" encoding="UTF-8"?>
<svg id="Layer_1" data-name="Layer 1" xmlns="http://www.w3.org/2000/svg" viewBox="0 0 411.75 437">
  <defs>
    <style>
      .cls-1 {
        fill: #e9f3e8;
      }

      .cls-1, .cls-2, .cls-3, .cls-4, .cls-5, .cls-6 {
        fill-rule: evenodd;
      }

      .cls-2 {
        fill: #65c3a5;
      }

      .cls-3 {
        fill: #fff;
      }

      .cls-4 {
        fill: #a79ba7;
      }

      .cls-5, .cls-7 {
        fill: #033726;
      }

      .cls-6 {
        fill: #0e6847;
      }

      .cls-8 {
        fill: #ffc941;
      }
    </style>
  </defs>
  <g>
    <g>
      <g>
        <path class="cls-1" d="M15.57,7.05h261.37c2.35,0,4.37.84,6.03,2.5l47.87,47.87c1.66,1.66,2.5,3.68,2.5,6.03v357.98c0,4.7-3.83,8.53-8.53,8.53H15.57c-4.7,0-8.53-3.83-8.53-8.53V15.58c0-4.7,3.83-8.53,8.53-8.53h0Z"/>
        <path class="cls-2" d="M280.47,7.79c.91.41,1.74,1,2.5,1.76l47.87,47.87c.76.76,1.34,1.59,1.76,2.5h-47.86c-2.35,0-4.26-1.92-4.26-4.26V7.79h0Z"/>
      </g>
      <circle class="cls-8" cx="333.33" cy="358.58" r="71.37"/>
    </g>
    <path class="cls-5" d="M397.66,358.57c0,35.47-28.85,64.32-64.33,64.32s-64.32-28.85-64.32-64.32,28.86-64.32,64.32-64.32,64.33,28.86,64.33,64.32ZM288.53,422.9H15.57c-.79,0-1.47-.68-1.47-1.48V15.58c0-.8.68-1.48,1.47-1.48h257.86v41.56c0,6.24,5.07,11.3,11.31,11.3h41.55v213.52c-24.26,2.17-45.38,15.44-58.23,34.68H70.1c-3.89,0-7.05,3.16-7.05,7.05s3.16,7.05,7.05,7.05h190.51c-3.66,9.06-5.69,18.96-5.69,29.31,0,3.16.19,6.27.56,9.32H68.77c-3.89,0-7.05,3.16-7.05,7.05s3.15,7.05,7.05,7.05h189.72c5.24,16.74,15.97,31.07,30.04,40.9h0ZM287.52,24.07v28.79h28.8l-28.8-28.79ZM411.75,358.57c0,43.24-35.18,78.42-78.42,78.42-2,0-3.97-.07-5.94-.22-.85.14-1.72.22-2.58.22H15.57c-8.58,0-15.57-6.99-15.57-15.58V15.58C0,6.99,6.99,0,15.57,0h261.37c4.22,0,8.03,1.58,11.01,4.57l47.88,47.86c2.98,2.99,4.55,6.79,4.55,11.01v217.03c39.96,3.58,71.37,37.23,71.37,78.1h0ZM69.43,262.44c-3.89,0-7.05,3.15-7.05,7.05s3.16,7.05,7.05,7.05h202.86c3.89,0,7.05-3.16,7.05-7.05s-3.16-7.05-7.05-7.05H69.43Z"/>
  </g>
  <g>
    <path class="cls-4" d="M192.74,219.83h-126.2l2.17,1.7c1.76,1.37,2.07,3.91.7,5.67-1.37,1.76-3.91,2.07-5.67.7l-11.37-8.88c-.28-.21-.53-.46-.76-.74-1.37-1.76-1.06-4.29.7-5.67l11.43-8.93c1.76-1.37,4.29-1.06,5.67.7,1.37,1.76,1.06,4.29-.7,5.67l-2.17,1.7h126.2l-2.17-1.7c-1.76-1.37-2.07-3.91-.7-5.67,1.37-1.76,3.91-2.07,5.67-.7l11.43,8.93c1.76,1.37,2.07,3.91.7,5.67-.22.29-.48.53-.76.74l-11.37,8.88c-1.76,1.37-4.29,1.06-5.67-.7-1.37-1.76-1.06-4.29.7-5.67l2.17-1.7Z"/>
    <path class="cls-4" d="M221.89,182.58v-116.08l-1.7,2.17c-1.37,1.76-3.91,2.07-5.67.7-1.76-1.37-2.07-3.91-.7-5.67l8.88-11.37c.21-.28.46-.53.74-.76,1.76-1.37,4.29-1.06,5.67.7l8.93,11.43c1.37,1.76,1.06,4.29-.7,5.66-1.76,1.37-4.29,1.06-5.67-.7l-1.69-2.17v116.08l1.7-2.17c1.37-1.76,3.91-2.07,5.67-.7,1.76,1.37,2.07,3.91.7,5.67l-8.93,11.43c-1.37,1.76-3.91,2.07-5.67.7-.29-.22-.53-.48-.74-.76l-8.88-11.37c-1.37-1.76-1.06-4.29.7-5.67,1.76-1.37,4.29-1.06,5.67.7l1.69,2.17Z"/>
    <g>
      <path class="cls-2" d="M59.86,50.43h133.55c2.78,0,5.06,2.28,5.06,5.06v133.77c0,2.78-2.28,5.06-5.06,5.06H59.86c-2.78,0-5.06-2.28-5.06-5.06V55.49c0-2.78,2.28-5.06,5.06-5.06h0Z"/>
      <path class="cls-6" d="M54.79,55.49v45.73l20.28-20.28,30.52-30.52h-45.73c-2.78,0-5.06,2.28-5.06,5.06Z"/>
      <path class="cls-5" d="M198.47,117.09l-51.45,51.45,21.18,25.79h25.21c2.78,0,5.06-2.28,5.06-5.06v-72.18h0Z"/>
      <path class="cls-3" d="M99.86,50.43h11.46l-30.79,30.79,66.78,81.3,51.17-51.17v11.46l-46,46,20.95,25.51h-10.45l-88.19-107.37-20,20v-11.46l45.07-45.07Z"/>
    </g>
  </g>
  <path class="cls-7" d="M357.59,333.07l-31.77,31.1-11.41-11.3c-3.69-3.65-9.63-3.62-13.28.06-3.65,3.69-3.62,9.63.06,13.28l17.98,17.81c3.65,3.61,9.52,3.63,13.18.04l38.38-37.57c3.7-3.64,3.75-9.58.11-13.28-3.63-3.69-9.55-3.75-13.26-.14Z"/>
</svg>