<?xml version="1.0" encoding="UTF-8"?>
<svg id="Layer_1" data-name="Layer 1" xmlns="http://www.w3.org/2000/svg" viewBox="0 0 300.42 472.41">
  <defs>
    <style>
      .cls-1, .cls-2, .cls-3, .cls-4, .cls-5, .cls-6 {
        fill-rule: evenodd;
      }

      .cls-1, .cls-7 {
        fill: #e9f3e8;
      }

      .cls-2 {
        fill: #65c3a5;
      }

      .cls-3 {
        fill: #fff;
      }

      .cls-4 {
        fill: #a79ba7;
      }

      .cls-5, .cls-8 {
        fill: #033726;
      }

      .cls-9 {
        fill: #ff6b43;
      }

      .cls-6 {
        fill: #0e6847;
      }
    </style>
  </defs>
  <g>
    <g>
      <g>
        <path class="cls-1" d="M13.74,92.94h230.68c2.07,0,3.86.74,5.32,2.2l42.25,42.25c1.46,1.46,2.2,3.25,2.2,5.32v315.95c0,4.14-3.38,7.52-7.52,7.52H13.74c-4.14,0-7.52-3.38-7.52-7.52V100.47c0-4.14,3.38-7.52,7.52-7.52h0Z"/>
        <path class="cls-2" d="M247.54,93.59c.8.36,1.53.88,2.2,1.55l42.25,42.25c.67.67,1.19,1.41,1.55,2.2h-42.24c-2.07,0-3.76-1.69-3.76-3.76v-42.24h0Z"/>
      </g>
      <path class="cls-8" d="M296.4,132.99l-42.26-42.24c-2.64-2.64-6-4.03-9.72-4.03H13.74c-7.57,0-13.74,6.17-13.74,13.75v358.19c0,7.58,6.17,13.75,13.74,13.75h285.29v-12.44H13.74c-.7,0-1.3-.6-1.3-1.31V100.46c0-.71.6-1.31,1.3-1.31h227.58v36.68c0,5.5,4.48,9.98,9.98,9.98h36.67v317.71c4.12-.46,8.27,6.46,12.44,6.27V142.71c0-3.73-1.39-7.09-4.02-9.72ZM253.76,133.37v-25.41l25.42,25.41h-25.42Z"/>
      <path class="cls-8" d="M61.28,318.34c-3.44,0-6.22,2.78-6.22,6.22s2.79,6.22,6.22,6.22h179.04c3.44,0,6.22-2.79,6.22-6.22s-2.79-6.22-6.22-6.22H61.28Z"/>
      <path class="cls-8" d="M61.28,363.77c-3.44,0-6.22,2.78-6.22,6.22s2.79,6.22,6.22,6.22h179.04c3.44,0,6.22-2.79,6.22-6.22s-2.79-6.22-6.22-6.22H61.28Z"/>
      <path class="cls-8" d="M61.28,409.19c-3.44,0-6.22,2.78-6.22,6.22s2.79,6.22,6.22,6.22h179.04c3.44,0,6.22-2.79,6.22-6.22s-2.79-6.22-6.22-6.22H61.28Z"/>
    </g>
    <g>
      <path class="cls-4" d="M170.11,280.74H58.73l1.92,1.5c1.55,1.21,1.83,3.45.61,5-1.21,1.55-3.45,1.83-5,.61l-10.04-7.84c-.24-.18-.47-.4-.67-.66-1.21-1.55-.94-3.79.61-5l10.09-7.88c1.55-1.21,3.79-.94,5,.61,1.21,1.55.94,3.79-.61,5l-1.92,1.5h111.39l-1.92-1.5c-1.55-1.21-1.83-3.45-.61-5s3.45-1.83,5-.61l10.09,7.88c1.55,1.21,1.83,3.45.61,5-.2.25-.42.47-.67.66l-10.04,7.84c-1.55,1.21-3.79.94-5-.61-1.21-1.55-.94-3.79.61-5l1.92-1.5Z"/>
      <path class="cls-4" d="M195.84,247.86v-102.45l-1.5,1.92c-1.21,1.55-3.45,1.83-5,.61-1.55-1.21-1.83-3.45-.61-5l7.84-10.04c.18-.24.4-.47.66-.67,1.55-1.21,3.79-.94,5,.61l7.88,10.09c1.21,1.55.94,3.79-.61,5-1.55,1.21-3.79.94-5-.61l-1.5-1.92v102.45l1.5-1.92c1.21-1.55,3.45-1.83,5-.61,1.55,1.21,1.83,3.45.61,5l-7.88,10.09c-1.21,1.55-3.45,1.83-5,.61-.25-.2-.47-.42-.66-.67l-7.84-10.04c-1.21-1.55-.94-3.79.61-5,1.55-1.21,3.79-.94,5,.61l1.5,1.92Z"/>
      <g>
        <path class="cls-2" d="M52.83,131.22h117.87c2.46,0,4.47,2.01,4.47,4.47v118.06c0,2.46-2.01,4.47-4.47,4.47H52.83c-2.46,0-4.47-2.01-4.47-4.47v-118.06c0-2.46,2.01-4.47,4.47-4.47h0Z"/>
        <path class="cls-6" d="M48.36,135.69v40.36l17.9-17.9,26.93-26.93h-40.36c-2.46,0-4.47,2.01-4.47,4.47Z"/>
        <path class="cls-5" d="M175.17,190.06l-45.41,45.41,18.69,22.76h22.25c2.46,0,4.47-2.01,4.47-4.47v-63.7h0Z"/>
        <path class="cls-3" d="M88.14,131.22h10.11l-27.18,27.18,58.94,71.76,45.16-45.16v10.11l-40.6,40.6,18.49,22.51h-9.22l-77.83-94.76-17.65,17.65v-10.11l39.78-39.78Z"/>
      </g>
    </g>
  </g>
  <g>
    <g>
      <circle class="cls-9" cx="152.67" cy="76.66" r="70.98"/>
      <path class="cls-8" d="M152.66,153.31c-42.27,0-76.66-34.39-76.66-76.66S110.4,0,152.66,0s76.66,34.39,76.66,76.66-34.39,76.66-76.66,76.66ZM152.66,11.36c-36.01,0-65.3,29.3-65.3,65.3s29.29,65.3,65.3,65.3,65.3-29.3,65.3-65.3S188.67,11.36,152.66,11.36Z"/>
    </g>
    <g>
      <path class="cls-7" d="M144.06,119.24c-6.99,0-12.68-6.25-12.68-13.93v-18.67h-6.05c-4.88-.02-9.21-2.93-11.07-7.42-2-4.46-1.14-9.85,2.24-13.59l27.35-29.84c2.21-2.47,5.43-3.91,8.8-3.91s6.62,1.44,8.88,3.95l27.27,29.78c2.14,2.32,3.32,5.36,3.33,8.53,0,1.81-.37,3.55-1.09,5.2-1.81,4.36-6.15,7.28-11,7.3h-6.12v18.67c0,7.68-5.69,13.93-12.68,13.93h-17.18Z"/>
      <path class="cls-8" d="M152.66,37.56h0c1.77,0,3.45.75,4.63,2.07l27.31,29.83c1.18,1.28,1.84,2.96,1.84,4.7,0,.99-.21,1.98-.61,2.89-.98,2.36-3.27,3.9-5.83,3.92h-11.77v24.35c0,4.55-3.14,8.25-7,8.25h-17.18c-3.86,0-7-3.7-7-8.25v-24.35h-11.73c-2.55-.02-4.85-1.56-5.83-3.92-1.14-2.55-.67-5.53,1.21-7.6l27.32-29.82c1.18-1.32,2.87-2.07,4.63-2.07M152.67,26.2h-.01c-4.99,0-9.76,2.13-13.09,5.84l-27.24,29.73c-4.9,5.42-6.16,13.14-3.26,19.77,2.77,6.51,9.1,10.74,16.19,10.78h.44v12.99c0,10.81,8.23,19.61,18.36,19.61h17.18c10.12,0,18.36-8.8,18.36-19.61v-12.99h.42c7.21-.04,13.58-4.33,16.32-10.93.94-2.14,1.47-4.65,1.47-7.23,0-4.63-1.73-9.02-4.85-12.4l-27.29-29.8c-3.25-3.62-8.01-5.75-12.99-5.76h0Z"/>
    </g>
  </g>
</svg>