<?xml version="1.0" encoding="UTF-8"?>
<svg id="Layer_1" data-name="Layer 1" xmlns="http://www.w3.org/2000/svg" viewBox="0 0 398.25 422.66">
  <defs>
    <style>
      .cls-1 {
        fill: #e9f3e8;
      }

      .cls-1, .cls-2, .cls-3, .cls-4, .cls-5, .cls-6 {
        fill-rule: evenodd;
      }

      .cls-2 {
        fill: #65c3a5;
      }

      .cls-3 {
        fill: #fff;
      }

      .cls-4 {
        fill: #a79ba7;
      }

      .cls-5 {
        fill: #033726;
      }

      .cls-7 {
        fill: #ff6b43;
      }

      .cls-6 {
        fill: #0e6847;
      }
    </style>
  </defs>
  <g>
    <g>
      <g>
        <path class="cls-1" d="M15.06,6.82h252.79c2.27,0,4.22.81,5.83,2.42l46.3,46.3c1.61,1.61,2.41,3.56,2.41,5.83v346.23c0,4.54-3.7,8.25-8.25,8.25H15.06c-4.54,0-8.25-3.7-8.25-8.25V15.07c0-4.54,3.7-8.25,8.25-8.25h0Z"/>
        <path class="cls-2" d="M271.27,7.54c.88.4,1.68.97,2.41,1.7l46.3,46.3c.73.73,1.3,1.54,1.7,2.41h-46.29c-2.27,0-4.12-1.85-4.12-4.12V7.54h0Z"/>
      </g>
      <circle class="cls-7" cx="322.4" cy="346.81" r="69.03"/>
    </g>
    <path class="cls-5" d="M384.61,346.81c0,34.31-27.91,62.21-62.22,62.21s-62.21-27.91-62.21-62.21,27.92-62.21,62.21-62.21,62.22,27.91,62.22,62.21ZM279.07,409.02H15.06c-.77,0-1.42-.65-1.42-1.43V15.06c0-.77.65-1.43,1.42-1.43h249.4v40.2c0,6.03,4.91,10.93,10.94,10.93h40.19v206.51c-23.47,2.1-43.9,14.94-56.32,33.55H67.8c-3.77,0-6.82,3.05-6.82,6.82s3.05,6.82,6.82,6.82h184.26c-3.54,8.77-5.5,18.33-5.5,28.35,0,3.05.18,6.06.55,9.02H66.51c-3.77,0-6.81,3.06-6.81,6.81s3.05,6.82,6.81,6.82h183.5c5.07,16.19,15.44,30.05,29.06,39.56h0ZM278.09,23.28v27.85h27.86l-27.86-27.85ZM398.25,346.81c0,41.82-34.02,75.85-75.85,75.85-1.93,0-3.84-.07-5.74-.22-.83.14-1.66.22-2.5.22H15.06c-8.3,0-15.06-6.76-15.06-15.07V15.06C0,6.76,6.76,0,15.06,0h252.79c4.08,0,7.76,1.52,10.65,4.42l46.31,46.29c2.88,2.89,4.4,6.57,4.4,10.65v209.91c38.65,3.46,69.03,36.01,69.03,75.53h0ZM67.15,253.83c-3.77,0-6.82,3.05-6.82,6.81s3.05,6.82,6.82,6.82h196.2c3.77,0,6.82-3.05,6.82-6.82s-3.05-6.81-6.82-6.81H67.15Z"/>
  </g>
  <g>
    <path class="cls-4" d="M186.42,212.62h-122.06l2.1,1.64c1.7,1.33,2,3.78.67,5.48s-3.78,2-5.48.67l-11-8.59c-.27-.2-.52-.44-.73-.72-1.33-1.7-1.03-4.15.67-5.48l11.06-8.63c1.7-1.33,4.15-1.03,5.48.67,1.33,1.7,1.03,4.15-.67,5.48l-2.1,1.64h122.06l-2.1-1.64c-1.7-1.33-2-3.78-.67-5.48,1.33-1.7,3.78-2,5.48-.67l11.06,8.63c1.7,1.33,2,3.78.67,5.48-.22.28-.46.52-.73.72l-11,8.59c-1.7,1.33-4.15,1.03-5.48-.67-1.33-1.7-1.03-4.15.67-5.48l2.1-1.64Z"/>
    <path class="cls-4" d="M214.61,176.59v-112.27l-1.64,2.1c-1.33,1.7-3.78,2-5.48.67-1.7-1.33-2-3.78-.67-5.48l8.59-11c.2-.27.44-.52.72-.73,1.7-1.33,4.15-1.03,5.48.67l8.63,11.06c1.33,1.7,1.03,4.15-.67,5.48-1.7,1.33-4.15,1.03-5.48-.67l-1.64-2.1v112.27l1.64-2.1c1.33-1.7,3.78-2,5.48-.67,1.7,1.33,2,3.78.67,5.48l-8.63,11.06c-1.33,1.7-3.78,2-5.48.67-.28-.22-.52-.46-.72-.73l-8.59-11c-1.33-1.7-1.03-4.15.67-5.48,1.7-1.33,4.15-1.03,5.48.67l1.64,2.1Z"/>
    <g>
      <path class="cls-2" d="M57.89,48.77h129.17c2.69,0,4.9,2.2,4.9,4.9v129.38c0,2.69-2.2,4.9-4.9,4.9H57.89c-2.69,0-4.9-2.2-4.9-4.9V53.67c0-2.69,2.2-4.9,4.9-4.9h0Z"/>
      <path class="cls-6" d="M53,53.67v44.23l19.61-19.61,29.52-29.52h-44.23c-2.69,0-4.9,2.2-4.9,4.9Z"/>
      <path class="cls-5" d="M191.96,113.24l-49.76,49.76,20.49,24.94h24.38c2.69,0,4.9-2.2,4.9-4.9v-69.81h0Z"/>
      <path class="cls-3" d="M96.59,48.77h11.08l-29.78,29.78,64.59,78.64,49.49-49.49v11.08l-44.49,44.49,20.27,24.67h-10.1l-85.29-103.84-19.34,19.34v-11.08l43.59-43.59Z"/>
    </g>
  </g>
</svg>