<?xml version="1.0" encoding="UTF-8"?>
<svg id="Layer_1" data-name="Layer 1" xmlns="http://www.w3.org/2000/svg" viewBox="0 0 379.4 468">
  <defs>
    <style>
      .cls-1 {
        fill: #65c3a5;
      }

      .cls-2 {
        fill: #e5ad30;
      }

      .cls-3 {
        fill: #ff6b43;
      }

      .cls-4 {
        fill: #e9f3e8;
      }

      .cls-5 {
        fill: #033726;
      }

      .cls-6 {
        fill: #ffc941;
      }
    </style>
  </defs>
  <g>
    <g>
      <path class="cls-4" d="M305.77,409.09H22.21c-8.91,0-16.13-7.22-16.13-16.13V22.21c0-8.91,7.22-16.13,16.13-16.13h283.56c8.91,0,16.13,7.22,16.13,16.13v370.75c0,8.91-7.22,16.13-16.13,16.13h0Z"/>
      <path class="cls-1" d="M257.15,109.21H70.82c-3.55,0-6.42-2.87-6.42-6.42v-23.17c0-3.55,2.87-6.42,6.42-6.42h186.33c3.55,0,6.42,2.87,6.42,6.42v23.17c0,3.55-2.88,6.42-6.42,6.42Z"/>
      <g>
        <path class="cls-5" d="M305.77,0H22.21C9.96,0,0,9.96,0,22.21v370.75c0,12.25,9.96,22.21,22.21,22.21h283.56c12.25,0,22.21-9.96,22.21-22.21V22.21c0-12.25-9.96-22.21-22.21-22.21ZM315.82,392.96c0,5.55-4.51,10.06-10.06,10.06H22.21c-5.55,0-10.06-4.51-10.06-10.06V22.21c0-5.55,4.51-10.06,10.06-10.06h283.56c5.55,0,10.06,4.51,10.06,10.06v370.75h0Z"/>
        <path class="cls-5" d="M269.65,79.62c0-6.89-5.61-12.5-12.5-12.5H70.82c-6.89,0-12.5,5.61-12.5,12.5v23.17c0,6.89,5.61,12.5,12.5,12.5h130.34c3.36,0,6.08-2.72,6.08-6.08s-2.72-6.08-6.08-6.08H70.82c-.19,0-.35-.16-.35-.35v-23.17c0-.19.16-.35.35-.35h186.33c.19,0,.35.16.35.35v23.17c0,.19-.16.35-.35.35h-28.11c-3.36,0-6.08,2.72-6.08,6.08s2.72,6.08,6.08,6.08h28.11c6.89,0,12.5-5.61,12.5-12.5v-23.17Z"/>
        <path class="cls-5" d="M94.63,322.6c-4.95,11.01-1.64,16.38,2.02,18.95,8.55,6.01,19.14-3.48,24.22-8.04l.05-.05c1.64,3.74,4.4,6.7,7.95,8.51,8.86,4.49,16.28.04,21.66-5.62,1.27,2.32,2.87,4.35,4.77,6.02,4.79,4.21,11.68,5.67,18.95,5.67,6.52,0,13.33-1.18,19.18-2.6,3.26-.79,5.26-4.08,4.47-7.34-.79-3.26-4.08-5.26-7.34-4.47-12.95,3.14-23.39,2.99-27.24-.39-3.34-2.93-3.99-8.04-4.08-10.81-.09-2.67-1.91-4.97-4.49-5.67-2.58-.7-5.31.38-6.73,2.64-6.13,9.78-10.33,13.4-13.64,11.72-1.29-.65-2.18-1.83-2.65-3.49-.71-2.53-.26-5.74,1.12-7.98,1.76-2.85.88-6.6-1.98-8.36-2.85-1.76-6.6-.88-8.36,1.98-2.63,4.26-6.02,7.86-9.74,11.19-4.26,3.82-6.8,5.53-8.28,6.28.6-2.28,2.65-6.7,8.47-15.26,6.07-8.91,12.24-17.83,18.7-26.53l.12-.17c1.91-2.56,1.5-6.16-.92-8.24-2.43-2.08-6.04-1.92-8.28.35-13.83,14.06-36.24,20.71-57.09,16.94-3.3-.6-6.46,1.6-7.06,4.9s1.6,6.46,4.9,7.06c13.99,2.53,28.27,1.22,41.09-3.41-.07.12-.98,1.48-1.51,2.26-2.2,3.24-5.89,8.65-8.27,13.95h0Z"/>
        <path class="cls-5" d="M145.34,146.86c-3.36,0-6.08,2.72-6.08,6.08s2.72,6.08,6.08,6.08h18.65c3.36,0,6.08-2.72,6.08-6.08s-2.72-6.08-6.08-6.08h-18.65Z"/>
        <path class="cls-5" d="M64.4,159.01h50.7c3.36,0,6.08-2.72,6.08-6.08s-2.72-6.08-6.08-6.08h-50.7c-3.36,0-6.08,2.72-6.08,6.08s2.72,6.08,6.08,6.08Z"/>
        <path class="cls-5" d="M64.4,187.07h99.59c3.36,0,6.08-2.72,6.08-6.08s-2.72-6.08-6.08-6.08h-99.59c-3.36,0-6.08,2.72-6.08,6.08s2.72,6.08,6.08,6.08h0Z"/>
        <path class="cls-5" d="M170.06,209.06c0-3.36-2.72-6.08-6.08-6.08h-48.88c-3.36,0-6.08,2.72-6.08,6.08s2.72,6.08,6.08,6.08h48.88c3.36,0,6.08-2.72,6.08-6.08Z"/>
        <path class="cls-5" d="M64.4,215.14h21.2c3.36,0,6.08-2.72,6.08-6.08s-2.72-6.08-6.08-6.08h-21.2c-3.36,0-6.08,2.72-6.08,6.08s2.72,6.08,6.08,6.08Z"/>
        <path class="cls-5" d="M64.4,243.2h75.86c3.36,0,6.08-2.72,6.08-6.08s-2.72-6.08-6.08-6.08h-75.86c-3.36,0-6.08,2.72-6.08,6.08s2.72,6.08,6.08,6.08Z"/>
      </g>
    </g>
    <g>
      <g>
        <path class="cls-6" d="M246.98,250.64h-19.73v53.65c0,3.12,3.64,4.83,6.04,2.83l11.32-9.42c1.37-1.14,3.35-1.14,4.72,0l11.32,9.42c2.4,2,6.04.29,6.04-2.83v-53.65h-19.72Z"/>
        <path class="cls-2" d="M266.7,250.64v53.65c0,3.12-3.64,4.84-6.04,2.83l-11.33-9.42c-.31-.25-.65-.45-1.01-.59v-46.47h18.37Z"/>
        <circle class="cls-6" cx="246.98" cy="230.81" r="32.82"/>
      </g>
      <path class="cls-5" d="M226.51,313.73c1.43.67,2.95,1,4.45,1,2.38,0,4.72-.83,6.64-2.43l9.37-7.8,9.37,7.8c3.14,2.61,7.4,3.16,11.1,1.42,3.7-1.74,6-5.35,6-9.44v-44.1c8.04-7.25,13.1-17.73,13.1-29.38,0-21.82-17.75-39.56-39.56-39.56s-39.56,17.75-39.56,39.56c0,11.65,5.06,22.13,13.1,29.38v44.1c0,4.09,2.3,7.71,6,9.44h0ZM259.96,297.77l-6.32-5.25c-3.86-3.22-9.47-3.21-13.34,0l-6.32,5.25v-29.6c4.07,1.42,8.44,2.2,12.98,2.2s8.91-.78,12.98-2.2v29.6ZM246.98,204.73c14.38,0,26.08,11.7,26.08,26.08s-11.7,26.08-26.08,26.08-26.08-11.7-26.08-26.08c0-14.38,11.7-26.08,26.08-26.08Z"/>
    </g>
  </g>
  <g>
    <circle class="cls-3" cx="315.05" cy="403.65" r="58.5"/>
    <path class="cls-5" d="M315.05,468c-35.48,0-64.35-28.87-64.35-64.35s28.87-64.35,64.35-64.35,64.35,28.87,64.35,64.35-28.87,64.35-64.35,64.35ZM315.05,351c-29.03,0-52.65,23.62-52.65,52.65s23.62,52.65,52.65,52.65,52.65-23.62,52.65-52.65-23.62-52.65-52.65-52.65Z"/>
  </g>
</svg>