<?xml version="1.0" encoding="UTF-8"?>
<svg id="Layer_1" data-name="Layer 1" xmlns="http://www.w3.org/2000/svg" viewBox="0 0 334.26 423.12">
  <defs>
    <style>
      .cls-1 {
        fill: #65c3a5;
      }

      .cls-2 {
        fill: #e5ad30;
      }

      .cls-3 {
        fill: #e9f3e8;
      }

      .cls-4 {
        fill: #033726;
      }

      .cls-5 {
        fill: #ffc941;
      }
    </style>
  </defs>
  <g>
    <g>
      <path class="cls-3" d="M311.62,416.93H22.63c-9.08,0-16.44-7.36-16.44-16.44V22.63c0-9.08,7.36-16.44,16.44-16.44h288.99c9.08,0,16.44,7.36,16.44,16.44v377.85c0,9.08-7.36,16.44-16.44,16.44h0Z"/>
      <g>
        <path class="cls-4" d="M311.62,0H22.63C10.15,0,0,10.15,0,22.63v377.85c0,12.48,10.15,22.63,22.63,22.63h288.99c12.48,0,22.63-10.15,22.63-22.63V22.63c0-12.48-10.15-22.63-22.63-22.63ZM321.87,400.49c0,5.65-4.6,10.25-10.25,10.25H22.63c-5.65,0-10.25-4.6-10.25-10.25V22.63c0-5.65,4.6-10.25,10.25-10.25h288.99c5.65,0,10.25,4.6,10.25,10.25v377.85h0Z"/>
        <path class="cls-4" d="M96.44,328.78c-5.04,11.22-1.67,16.7,2.06,19.31,8.72,6.12,19.5-3.54,24.69-8.19l.06-.05c1.67,3.81,4.48,6.83,8.1,8.67,9.03,4.58,16.59.04,22.07-5.72,1.29,2.37,2.92,4.44,4.86,6.14,4.88,4.29,11.91,5.78,19.31,5.78,6.64,0,13.58-1.2,19.55-2.65,3.32-.81,5.36-4.15,4.56-7.48-.81-3.32-4.15-5.36-7.48-4.56-13.2,3.2-23.83,3.05-27.76-.4-3.4-2.99-4.07-8.19-4.16-11.02-.09-2.72-1.95-5.07-4.58-5.77-2.63-.71-5.41.38-6.86,2.69-6.24,9.97-10.53,13.66-13.9,11.95-1.31-.67-2.22-1.86-2.7-3.56-.73-2.58-.27-5.85,1.14-8.13,1.8-2.91.89-6.72-2.02-8.52-2.91-1.8-6.72-.89-8.52,2.01-2.68,4.35-6.13,8.01-9.92,11.4-4.34,3.89-6.93,5.64-8.44,6.4.62-2.32,2.7-6.83,8.63-15.55,6.18-9.08,12.47-18.17,19.06-27.04l.13-.17c1.94-2.61,1.53-6.28-.94-8.4-2.47-2.12-6.16-1.96-8.44.36-14.09,14.33-36.93,21.1-58.18,17.26-3.36-.61-6.59,1.63-7.19,4.99s1.63,6.59,4.99,7.19c14.26,2.58,28.81,1.24,41.87-3.47-.08.12-.99,1.51-1.53,2.3-2.25,3.3-6,8.82-8.43,14.22h0Z"/>
      </g>
    </g>
    <g>
      <g>
        <path class="cls-5" d="M251.71,255.44h-20.1v54.68c0,3.18,3.71,4.92,6.16,2.89l11.54-9.6c1.39-1.16,3.41-1.16,4.81,0l11.54,9.6c2.45,2.04,6.16.3,6.16-2.89v-54.68h-20.1Z"/>
        <path class="cls-2" d="M271.81,255.44v54.68c0,3.18-3.71,4.93-6.16,2.89l-11.54-9.6c-.31-.26-.66-.46-1.03-.6v-47.36h18.72Z"/>
        <circle class="cls-5" cx="251.71" cy="235.23" r="33.45"/>
      </g>
      <path class="cls-4" d="M230.85,319.74c1.46.69,3.01,1.02,4.54,1.02,2.42,0,4.81-.84,6.77-2.47l9.55-7.94,9.55,7.94c3.2,2.66,7.54,3.22,11.31,1.45,3.77-1.77,6.12-5.46,6.12-9.62v-44.94c8.19-7.39,13.35-18.07,13.35-29.94,0-22.23-18.09-40.32-40.32-40.32s-40.32,18.09-40.32,40.32c0,11.87,5.16,22.55,13.35,29.94v44.94c0,4.17,2.34,7.85,6.12,9.62h0ZM264.94,303.48l-6.44-5.35c-3.94-3.28-9.66-3.28-13.59,0l-6.44,5.35v-30.17c4.15,1.45,8.6,2.24,13.23,2.24s9.08-.8,13.23-2.24v30.17ZM251.71,208.66c14.66,0,26.58,11.92,26.58,26.58s-11.92,26.58-26.58,26.58-26.58-11.92-26.58-26.58c0-14.66,11.92-26.58,26.58-26.58Z"/>
    </g>
  </g>
  <g>
    <path class="cls-4" d="M217.07,90.94h-71.64c-1.47,0-2.65-1.94-2.65-4.34s1.19-4.34,2.65-4.34h71.64c1.47,0,2.65,1.94,2.65,4.34s-1.19,4.34-2.65,4.34Z"/>
    <path class="cls-4" d="M186.43,108.29h-42.09c-.86,0-1.56-1.94-1.56-4.34s.7-4.34,1.56-4.34h42.09c.86,0,1.56,1.94,1.56,4.34s-.7,4.34-1.56,4.34Z"/>
    <g>
      <rect class="cls-1" x="77.48" y="69.02" width="50.23" height="50.23" rx="1.39" ry="1.39"/>
      <path class="cls-4" d="M120.72,124.27h-36.26c-6.62,0-12.01-5.39-12.01-12.01v-36.26c0-6.62,5.39-12.01,12.01-12.01h36.26c6.62,0,12.01,5.39,12.01,12.01v36.26c0,6.62-5.39,12.01-12.01,12.01ZM84.46,74.04c-1.08,0-1.96.88-1.96,1.96v36.26c0,1.08.88,1.96,1.96,1.96h36.26c1.08,0,1.96-.88,1.96-1.96v-36.26c0-1.08-.88-1.96-1.96-1.96h-36.26Z"/>
    </g>
    <path class="cls-4" d="M217.07,161.26h-71.64c-1.47,0-2.65-1.94-2.65-4.34s1.19-4.34,2.65-4.34h71.64c1.47,0,2.65,1.94,2.65,4.34s-1.19,4.34-2.65,4.34Z"/>
    <path class="cls-4" d="M186.43,178.61h-42.09c-.86,0-1.56-1.94-1.56-4.34s.7-4.34,1.56-4.34h42.09c.86,0,1.56,1.94,1.56,4.34s-.7,4.34-1.56,4.34Z"/>
    <path class="cls-4" d="M120.72,194.6h-36.26c-6.62,0-12.01-5.39-12.01-12.01v-36.26c0-6.62,5.39-12.01,12.01-12.01h36.26c6.62,0,12.01,5.39,12.01,12.01v36.26c0,6.62-5.39,12.01-12.01,12.01ZM84.46,144.36c-1.08,0-1.96.88-1.96,1.96v36.26c0,1.08.88,1.96,1.96,1.96h36.26c1.08,0,1.96-.88,1.96-1.96v-36.26c0-1.08-.88-1.96-1.96-1.96h-36.26Z"/>
    <path class="cls-4" d="M205.56,231.59h-60.54c-1.24,0-2.24-1.94-2.24-4.34s1-4.34,2.24-4.34h60.54c1.24,0,2.24,1.94,2.24,4.34s-1,4.34-2.24,4.34Z"/>
    <path class="cls-4" d="M186.43,248.94h-42.09c-.86,0-1.56-1.94-1.56-4.34s.7-4.34,1.56-4.34h42.09c.86,0,1.56,1.94,1.56,4.34s-.7,4.34-1.56,4.34Z"/>
    <path class="cls-4" d="M120.72,264.92h-36.26c-6.62,0-12.01-5.39-12.01-12.01v-36.26c0-6.62,5.39-12.01,12.01-12.01h36.26c6.62,0,12.01,5.39,12.01,12.01v36.26c0,6.62-5.39,12.01-12.01,12.01ZM84.46,214.69c-1.08,0-1.96.88-1.96,1.96v36.26c0,1.08.88,1.96,1.96,1.96h36.26c1.08,0,1.96-.88,1.96-1.96v-36.26c0-1.08-.88-1.96-1.96-1.96h-36.26Z"/>
  </g>
</svg>