<?xml version="1.0" encoding="UTF-8"?>
<svg id="Layer_1" data-name="Layer 1" xmlns="http://www.w3.org/2000/svg" viewBox="0 0 551.16 496.83">
  <defs>
    <style>
      .cls-1 {
        fill: #65c3a5;
      }

      .cls-2 {
        fill: #e5ad30;
      }

      .cls-3 {
        fill: #e9f3e8;
      }

      .cls-4 {
        fill: #033726;
      }

      .cls-5 {
        fill: #ff6b43;
      }

      .cls-6 {
        fill: #ffc941;
      }
    </style>
  </defs>
  <g>
    <g>
      <path class="cls-3" d="M251.92,491.63H18.3c-7.34,0-13.29-6.18-13.29-13.8V160.61c0-7.62,5.95-13.8,13.29-13.8h233.62c7.34,0,13.29,6.18,13.29,13.8v317.21c0,7.62-5.95,13.8-13.29,13.8h0Z"/>
      <path class="cls-1" d="M211.87,235.05H58.35c-2.92,0-5.29-2.46-5.29-5.49v-19.82c0-3.03,2.37-5.49,5.29-5.49h153.52c2.92,0,5.29,2.46,5.29,5.49v19.82c0,3.03-2.37,5.49-5.29,5.49Z"/>
      <g>
        <path class="cls-4" d="M251.92,141.61H18.3c-10.09,0-18.3,8.52-18.3,19v317.21c0,10.48,8.21,19,18.3,19h233.62c10.09,0,18.3-8.52,18.3-19V160.61c0-10.48-8.21-19-18.3-19ZM260.21,477.82c0,4.75-3.72,8.61-8.29,8.61H18.3c-4.57,0-8.29-3.86-8.29-8.61V160.61c0-4.75,3.72-8.61,8.29-8.61h233.62c4.57,0,8.29,3.86,8.29,8.61v317.21h0Z"/>
        <path class="cls-4" d="M222.16,209.73c0-5.9-4.62-10.69-10.3-10.69H58.35c-5.68,0-10.3,4.8-10.3,10.69v19.82c0,5.9,4.62,10.69,10.3,10.69h107.39c2.76,0,5.01-2.33,5.01-5.2s-2.24-5.2-5.01-5.2H58.35c-.16,0-.29-.13-.29-.3v-19.82c0-.16.13-.3.29-.3h153.52c.16,0,.29.13.29.3v19.82c0,.16-.13.3-.29.3h-23.16c-2.76,0-5.01,2.33-5.01,5.2s2.24,5.2,5.01,5.2h23.16c5.68,0,10.3-4.8,10.3-10.69v-19.82Z"/>
        <path class="cls-4" d="M77.97,417.63c-4.08,9.42-1.35,14.02,1.66,16.21,7.05,5.14,15.77-2.98,19.96-6.88l.04-.04c1.35,3.2,3.62,5.74,6.55,7.28,7.3,3.84,13.41.03,17.84-4.8,1.04,1.99,2.36,3.72,3.93,5.15,3.95,3.6,9.63,4.85,15.61,4.85,5.37,0,10.98-1.01,15.8-2.22,2.69-.68,4.34-3.49,3.68-6.28s-3.36-4.5-6.05-3.82c-10.67,2.69-19.27,2.56-22.44-.34-2.75-2.51-3.29-6.88-3.36-9.25-.07-2.29-1.57-4.25-3.7-4.85-2.12-.6-4.38.32-5.54,2.26-5.05,8.37-8.51,11.47-11.24,10.03-1.06-.56-1.8-1.56-2.18-2.99-.59-2.17-.22-4.91.92-6.83,1.45-2.44.72-5.64-1.63-7.15-2.35-1.51-5.44-.75-6.89,1.69-2.17,3.65-4.96,6.73-8.02,9.57-3.51,3.27-5.6,4.73-6.83,5.37.5-1.95,2.18-5.74,6.98-13.05,5-7.62,10.08-15.25,15.41-22.7l.1-.14c1.57-2.19,1.24-5.27-.76-7.05-2-1.78-4.98-1.64-6.82.3-11.39,12.03-29.85,17.72-47.03,14.49-2.72-.51-5.32,1.37-5.82,4.19-.49,2.82,1.31,5.53,4.04,6.04,11.53,2.16,23.29,1.04,33.85-2.91-.06.1-.8,1.27-1.24,1.93-1.82,2.77-4.85,7.4-6.81,11.94h0Z"/>
        <path class="cls-4" d="M119.75,267.26c-2.76,0-5.01,2.33-5.01,5.2s2.24,5.2,5.01,5.2h15.36c2.76,0,5.01-2.33,5.01-5.2s-2.24-5.2-5.01-5.2h-15.36Z"/>
        <path class="cls-4" d="M53.06,277.66h41.77c2.76,0,5.01-2.33,5.01-5.2s-2.24-5.2-5.01-5.2h-41.77c-2.76,0-5.01,2.33-5.01,5.2s2.24,5.2,5.01,5.2Z"/>
        <path class="cls-4" d="M53.06,301.67h82.05c2.76,0,5.01-2.33,5.01-5.2s-2.24-5.2-5.01-5.2H53.06c-2.76,0-5.01,2.33-5.01,5.2s2.24,5.2,5.01,5.2h0Z"/>
        <path class="cls-4" d="M140.11,320.48c0-2.87-2.24-5.2-5.01-5.2h-40.28c-2.76,0-5.01,2.33-5.01,5.2s2.24,5.2,5.01,5.2h40.28c2.76,0,5.01-2.33,5.01-5.2Z"/>
        <path class="cls-4" d="M53.06,325.68h17.47c2.76,0,5.01-2.33,5.01-5.2s-2.24-5.2-5.01-5.2h-17.47c-2.76,0-5.01,2.33-5.01,5.2s2.24,5.2,5.01,5.2Z"/>
        <path class="cls-4" d="M53.06,349.69h62.5c2.76,0,5.01-2.33,5.01-5.2s-2.24-5.2-5.01-5.2h-62.5c-2.76,0-5.01,2.33-5.01,5.2s2.24,5.2,5.01,5.2Z"/>
      </g>
    </g>
    <g>
      <g>
        <path class="cls-6" d="M207.32,369.71h-16.88v45.9c0,2.67,3.12,4.13,5.17,2.42l9.69-8.06c1.17-.97,2.87-.97,4.03,0l9.69,8.06c2.05,1.71,5.17.25,5.17-2.42v-45.9h-16.88Z"/>
        <path class="cls-2" d="M224.2,369.71v45.9c0,2.67-3.11,4.14-5.17,2.42l-9.69-8.06c-.26-.22-.55-.38-.86-.51v-39.76h15.72Z"/>
        <circle class="cls-6" cx="207.32" cy="352.74" r="28.08"/>
      </g>
      <path class="cls-4" d="M189.81,423.69c1.23.58,2.52.86,3.81.86,2.03,0,4.04-.71,5.68-2.08l8.02-6.67,8.02,6.67c2.69,2.24,6.33,2.7,9.49,1.22,3.17-1.49,5.13-4.58,5.13-8.08v-37.73c6.88-6.2,11.2-15.17,11.2-25.13,0-18.67-15.18-33.85-33.85-33.85s-33.85,15.18-33.85,33.85c0,9.96,4.33,18.94,11.2,25.13v37.73c0,3.5,1.97,6.59,5.13,8.08h0ZM218.43,410.04l-5.4-4.49c-3.31-2.75-8.11-2.75-11.41,0l-5.4,4.49v-25.33c3.48,1.21,7.22,1.88,11.11,1.88s7.63-.67,11.11-1.88v25.33ZM207.32,330.43c12.3,0,22.31,10.01,22.31,22.31s-10.01,22.31-22.31,22.31-22.31-10.01-22.31-22.31c0-12.3,10.01-22.31,22.31-22.31Z"/>
    </g>
  </g>
  <g>
    <g>
      <path class="cls-3" d="M534.94,435.59h-207.2c-6.51,0-11.79-5.88-11.79-13.13V120.8c0-7.25,5.28-13.13,11.79-13.13h207.2c6.51,0,11.79,5.88,11.79,13.13v301.66c0,7.25-5.28,13.13-11.79,13.13h0Z"/>
      <path class="cls-5" d="M499.41,191.59h-136.15c-2.59,0-4.69-2.34-4.69-5.23v-18.85c0-2.89,2.1-5.23,4.69-5.23h136.15c2.59,0,4.69,2.34,4.69,5.23v18.85c0,2.89-2.1,5.23-4.69,5.23Z"/>
      <g>
        <path class="cls-4" d="M534.94,102.73h-207.2c-8.95,0-16.23,8.11-16.23,18.07v301.66c0,9.96,7.28,18.07,16.23,18.07h207.2c8.95,0,16.23-8.11,16.23-18.07V120.8c0-9.96-7.28-18.07-16.23-18.07ZM542.28,422.46c0,4.51-3.3,8.18-7.35,8.18h-207.2c-4.05,0-7.35-3.67-7.35-8.18V120.8c0-4.51,3.3-8.18,7.35-8.18h207.2c4.05,0,7.35,3.67,7.35,8.18v301.66h0Z"/>
        <path class="cls-4" d="M508.54,167.52c0-5.61-4.1-10.17-9.13-10.17h-136.15c-5.04,0-9.13,4.56-9.13,10.17v18.85c0,5.61,4.1,10.17,9.13,10.17h95.24c2.45,0,4.44-2.21,4.44-4.94s-1.99-4.94-4.44-4.94h-95.24c-.14,0-.25-.13-.25-.28v-18.85c0-.16.11-.28.25-.28h136.15c.14,0,.25.13.25.28v18.85c0,.16-.11.28-.25.28h-20.54c-2.45,0-4.44,2.21-4.44,4.94s1.99,4.94,4.44,4.94h20.54c5.04,0,9.13-4.56,9.13-10.17v-18.85Z"/>
        <path class="cls-4" d="M380.66,365.22c-3.62,8.96-1.2,13.33,1.47,15.42,6.25,4.89,13.98-2.83,17.7-6.54l.04-.04c1.2,3.04,3.21,5.46,5.81,6.92,6.48,3.66,11.9.03,15.82-4.57.93,1.89,2.09,3.54,3.48,4.9,3.5,3.42,8.54,4.61,13.84,4.61,4.76,0,9.74-.96,14.02-2.11,2.38-.64,3.84-3.32,3.27-5.97-.58-2.65-2.98-4.28-5.36-3.64-9.46,2.56-17.09,2.44-19.91-.32-2.44-2.39-2.92-6.54-2.98-8.8-.06-2.17-1.4-4.04-3.28-4.61-1.88-.57-3.88.31-4.92,2.15-4.48,7.96-7.55,10.9-9.97,9.54-.94-.53-1.59-1.49-1.94-2.84-.52-2.06-.19-4.67.82-6.49,1.29-2.32.64-5.37-1.44-6.8-2.09-1.43-4.82-.71-6.11,1.61-1.92,3.47-4.4,6.4-7.12,9.1-3.11,3.11-4.97,4.5-6.05,5.11.44-1.86,1.94-5.46,6.19-12.41,4.43-7.25,8.94-14.5,13.67-21.58l.09-.14c1.39-2.09,1.1-5.01-.67-6.7-1.77-1.69-4.42-1.56-6.05.29-10.1,11.44-26.48,16.85-41.71,13.78-2.41-.49-4.72,1.3-5.16,3.98-.44,2.69,1.17,5.26,3.58,5.74,10.22,2.06,20.66.99,30.02-2.77-.05.09-.71,1.2-1.1,1.84-1.61,2.63-4.3,7.04-6.04,11.35h0Z"/>
        <path class="cls-4" d="M417.71,222.22c-2.45,0-4.44,2.21-4.44,4.94s1.99,4.94,4.44,4.94h13.63c2.45,0,4.44-2.21,4.44-4.94s-1.99-4.94-4.44-4.94h-13.63Z"/>
        <path class="cls-4" d="M358.57,232.11h37.05c2.45,0,4.44-2.21,4.44-4.94s-1.99-4.94-4.44-4.94h-37.05c-2.45,0-4.44,2.21-4.44,4.94s1.99,4.94,4.44,4.94Z"/>
        <path class="cls-4" d="M358.57,254.94h72.77c2.45,0,4.44-2.21,4.44-4.94s-1.99-4.94-4.44-4.94h-72.77c-2.45,0-4.44,2.21-4.44,4.94s1.99,4.94,4.44,4.94h0Z"/>
        <path class="cls-4" d="M435.78,272.83c0-2.73-1.99-4.94-4.44-4.94h-35.72c-2.45,0-4.44,2.21-4.44,4.94s1.99,4.94,4.44,4.94h35.72c2.45,0,4.44-2.21,4.44-4.94Z"/>
        <path class="cls-4" d="M358.57,277.78h15.49c2.45,0,4.44-2.21,4.44-4.94s-1.99-4.94-4.44-4.94h-15.49c-2.45,0-4.44,2.21-4.44,4.94s1.99,4.94,4.44,4.94Z"/>
        <path class="cls-4" d="M358.57,300.61h55.43c2.45,0,4.44-2.21,4.44-4.94s-1.99-4.94-4.44-4.94h-55.43c-2.45,0-4.44,2.21-4.44,4.94s1.99,4.94,4.44,4.94Z"/>
      </g>
    </g>
    <g>
      <g>
        <path class="cls-6" d="M490.26,320.27h-14.41v39.2c0,2.28,2.66,3.53,4.42,2.07l8.27-6.88c1-.83,2.45-.83,3.45,0l8.27,6.88c1.75,1.46,4.42.21,4.42-2.07v-39.2h-14.41Z"/>
        <path class="cls-2" d="M504.67,320.27v39.2c0,2.28-2.66,3.53-4.41,2.07l-8.28-6.88c-.22-.18-.47-.33-.74-.43v-33.96h13.42Z"/>
        <circle class="cls-6" cx="490.26" cy="305.78" r="23.98"/>
      </g>
      <path class="cls-4" d="M475.3,366.37c1.05.49,2.16.73,3.25.73,1.74,0,3.45-.6,4.85-1.77l6.85-5.7,6.85,5.7c2.3,1.91,5.4,2.31,8.11,1.04,2.7-1.27,4.38-3.91,4.38-6.9v-32.22c5.87-5.29,9.57-12.96,9.57-21.47,0-15.94-12.97-28.91-28.91-28.91s-28.91,12.97-28.91,28.91c0,8.51,3.7,16.17,9.57,21.47v32.22c0,2.99,1.68,5.63,4.39,6.9h0ZM499.74,354.71l-4.61-3.84c-2.82-2.35-6.92-2.35-9.75,0l-4.61,3.84v-21.63c2.97,1.04,6.16,1.61,9.49,1.61s6.51-.57,9.49-1.61v21.63ZM490.26,286.72c10.51,0,19.06,8.55,19.06,19.06s-8.55,19.06-19.06,19.06-19.06-8.55-19.06-19.06c0-10.51,8.55-19.06,19.06-19.06Z"/>
    </g>
  </g>
  <path class="cls-4" d="M112.89,143.06h-16.99V62.04c0-10.89,10.61-19.74,23.67-19.74h295.03c11.68,0,21.18,7.95,21.18,17.72v42.72h-16.99v-42.72c0-1.68-1.88-3.04-4.19-3.04H119.56c-3.68,0-6.67,2.28-6.67,5.07v81.01Z"/>
  <rect class="cls-4" x="263.23" width="14.67" height="51.35"/>
</svg>