<?xml version="1.0" encoding="UTF-8"?>
<svg id="Layer_1" data-name="Layer 1" xmlns="http://www.w3.org/2000/svg" viewBox="0 0 475.18 465.42">
  <defs>
    <style>
      .cls-1 {
        fill: #65c3a5;
      }

      .cls-2 {
        fill: #958374;
      }

      .cls-3 {
        fill: #becebc;
      }

      .cls-4 {
        fill: #ff6b43;
      }

      .cls-5 {
        fill: #b7a99a;
      }

      .cls-6 {
        fill: #e9f3e8;
      }

      .cls-7 {
        fill: #033726;
      }

      .cls-8 {
        fill: #083f2f;
      }

      .cls-9 {
        fill: #5a4227;
      }

      .cls-10 {
        fill: #8e5f33;
      }

      .cls-11 {
        fill: #ffc941;
      }
    </style>
  </defs>
  <g>
    <path class="cls-6" d="M57.28,159.56l73.23,20.43,42.24-37.97,28.49-15.13,52.94-4.52s28.69,1.58,31.97,1.87,43.62-62.03,45.51-66.97,13.16-37.38,13.16-37.38l15.25,2.02,3.79,72.91s13.95,73.26,13.95,75.81,15.18,81.78,15.1,87.25c-.08,5.47-42.03,83.81-42.03,83.81,0,0-52.86,16.17-80.2,13.62-27.34-2.55-147.22-5.11-150.68-5.11s-62.4-.85-62.72-5.11c-.32-4.26-10.53-154.86-10.53-154.86l10.53-30.67Z"/>
    <path class="cls-8" d="M471.01,386.13c-1.56-.04-3.11-.09-4.67-.13-2.37-44.96-4.73-89.92-7.12-134.87-.77-14.43-1.75-28.85-2.39-43.29-.16-3.51-1.44-4.52-4.8-4.4-6.14.23-12.31.29-18.44-.02-3.55-.18-4.93,1.27-5.92,4.43-3.15,9.99-7.02,19.71-11.42,29.22-4.17,9.02-9.44,17.02-17.95,22.77-8.28,5.6-16.99,10.4-25.65,15.34-12.21,6.97-25.06,9.45-38.88,6.9-3.92-.72-7.82-1.53-11.74-2.29-8.14-1.6-16.15-3.9-24.49-4.47-5.57-.38-9.59,1.69-12.28,6.66-2.31,4.27-4.35,8.63-5.39,13.36-.56,2.55-1.75,3.37-4.32,3.73-8.38,1.2-15.45.47-18.06-9.39-1.01-3.79-3.82-4.63-7.66-4.57-29.24.45-58.5.37-87.73,1.17-7.86.22-13.49-1.36-16.9-8.66-1.37-2.94-3.71-3.67-6.93-3.51-28.87,1.46-57.76,2.78-86.64,4.06-2.23.1-3.68.96-5.01,2.63-8.21,10.24-16.48,20.44-24.76,30.62-1.42,1.75-2.05,3.71-2.39,5.9-2.56,16.75-5.19,33.48-7.77,50.23-.95,6.17-1.8,12.36-2.7,18.53-1.56-.05-3.11-.1-4.67-.15,3.65-23.98,7.29-47.95,10.95-71.93.65-4.27,4.22-6.64,6.61-9.74,1.88-2.43,3.12-4.8,3.38-8.02,2.79-34.11,5.74-68.21,8.68-102.31,1.77-20.53,3.68-41.04,5.39-61.57.3-3.55.98-6.73,4.58-8.11,3.79-1.44,6.34,1.12,8.61,3.55,2.15,2.3,3.95,4.92,5.95,7.36,3.1,3.79,6.49,6.96,11.7,7.82,4.74.79,6.16,5.19,8.08,8.82,3.71,7.02,3.72,7.07,8.25.68,5.68-8.03,9.59-17.09,14.71-25.44,2.27-3.7,4.36-7.58,8.84-9.05,2.12-.69,2.01-2.36,2.16-4,2.69-30.45,5.37-60.91,8.08-91.36.75-8.4-.55-7.27,8.2-7.6,9.91-.37,17,3.23,21.66,11.94,1.94,3.63,3.07,7.42,2.39,11.49-.53,3.15.4,5.14,3.42,6.2,5.61,1.98,8.85,6.25,10.95,11.55,2.02,5.09,3.89,10.25,6.04,15.29,3.18,7.43,8.26,11.89,17.04,10.59,4.66-.69,8.24.88,10.81,5.28,2.98,5.09,4.98,5.13,9.17,1.29,4.29-3.93,8.69-7.73,13.67-10.79,6.3-3.88,13.02-5.79,20.44-4.71.82.12,1.67.29,2.48.22,12-1.04,19.5,3.87,21.54,16.13.47,2.8,2.04,2.47,3.87,1.16,3.37-2.43,7.01-4.54,10.09-7.3,6.04-5.41,12.91-8.18,20.95-7.23,5.14.61,6.29-1.77,6.96-6.31,3.04-20.71,6.54-41.35,9.67-62.04.48-3.2,1.72-4.09,4.79-4.04,9.31.17,18.62.02,27.93.07,6.18.04,11.8,5.64,12.11,11.86,2,39.33,4.01,78.66,6.03,118,.03.66.13,1.31.27,2.7,3.66-3.42,5.73-7.34,7.2-11.35,1.46-4,3.93-4.95,7.81-5.08,18.6-.61,37.21-1.32,55.8-2.33,4.72-.26,6.22.78,6.18,5.79-.16,23.1.27,46.2.13,69.3-.03,4.93,1.09,6.75,6.29,6.42,6.91-.44,6.83-.08,7.19,6.8,3.05,58.75,6.14,117.49,9.23,176.24.07,1.32.27,2.64.4,3.96ZM30.09,291.45c.53.24,1.05.48,1.58.71,4.09-5.14,8.25-10.22,12.24-15.44,1.64-2.14,3.46-3.19,6.25-3.31,27.89-1.19,55.79-2.24,83.65-3.95,7.94-.49,13.89.8,17.4,8.48.99,2.15,2.62,3.57,5.45,3.52,19.77-.36,39.55-.59,59.33-.79,2.71-.03,3.78-1.03,4-3.77.89-11.09,2.62-22.16,2.83-33.25.28-15.3,7.13-26.23,19.71-34.15,1.83-1.15,3.68-2.28,5.4-3.58,5.86-4.44,9.96-9.21,9.28-17.75-1.45-18.2-1.66-36.5-2.48-54.76-.75-16.76-1.78-33.51-2.37-50.28-.15-4.2-1.77-4.93-5.58-5.42-11.14-1.44-20.13,2.43-28.25,9.61-8.45,7.48-16.12,15.94-26.04,21.6-17.19,9.83-29.31,24.35-38.27,41.62-2.67,5.14-5.91,7.46-11.64,6.64-6.78-.98-12.46.6-17.16,6.29-6.01,7.28-14.23,8.57-23.15,6.46-2.75-.65-5.48-1.5-8.27-1.81-10.28-1.13-17.12-6.54-20.89-16.09-.93-2.34-2.32-4.39-5.18-4.91-5.58-1.01-9.48-4.55-12.87-8.8-1.86-2.34-3.65-4.74-5.57-7.03-.96-1.15-2.2-2.37-3.8-1.93-1.87.51-1.43,2.42-1.56,3.83-1.28,13.72-2.53,27.45-3.75,41.18-2.57,28.78-5.12,57.57-7.66,86.36-.9,10.23-1.75,20.46-2.62,30.69ZM443.39,160.68h-.15c0-11.3-.11-22.6.07-33.9.06-3.51-1.08-4.58-4.57-4.4-14.93.79-29.88,1.8-44.82,1.81-7.42,0-12.51,1.51-15.25,9.04-1.57,4.32-4.89,7.88-8.3,11.1-2.32,2.19-4.86,4.6-7.99,4.82-7.44.52-11.08,5.29-14,11.16-4.33,8.7-11.27,14.12-20.52,16.91-15.64,4.72-31.54,8.14-47.83,9.36-5.14.39-9.39,1.85-12.69,5.8-8.02,9.6-16.96,18.1-27.43,25.12-6.51,4.37-10.81,10.79-11.57,18.98-1.26,13.56-2.41,27.14-3.75,40.69-.27,2.68.51,3.57,3.15,3.5,6.31-.18,12.72.46,18.92-.4,8.52-1.18,14.03,1.46,16.47,9.81,1.44,4.94,5.18,4.42,9.13,4.42,4.04,0,3.66-3.08,4.61-5.32.72-1.68,1.3-3.42,2.05-5.08,5.45-11.96,9.92-14.44,23.09-12.96,9.61,1.08,18.84,4.02,28.33,5.66,10.58,1.83,21.14,3,31.34-1.65,13.18-6,25.87-12.88,37.39-21.77,3.61-2.79,6.51-6.11,8.75-10.08,5.76-10.17,9.82-21.06,13.81-31.99,4.4-12.06,4.4-12.21,17.15-12.27,3.9-.02,4.72-1.45,4.66-4.98-.18-11.13-.07-22.27-.07-33.4ZM262.06,190.23c4.68-3.12,7.81-7.39,13.21-7.72,7.79-.48,15.53-1.52,23.19-3.01,10.76-2.09,21.46-4.36,31.82-8.11,7.48-2.7,15.21-11.91,14.49-19.4-1.28-13.37-1.49-26.84-2.21-40.26-.41-7.62-1.05-15.23-1.4-22.85-.15-3.28-1.59-3.8-4.47-3.13-4.72,1.11-8.07,3.32-9.41,8.39-2.12,8.02-4.69,15.91-8.4,23.41-2.23,4.52-5.6,6.95-10.53,7.03-6.31.11-12.62.07-18.93-.08-9.11-.22-15.3-4.74-18.68-13.16-1.24-3.08-2.55-6.14-3.59-9.29-1.88-5.68-3.49-11.44-5.39-17.1-.66-1.96-1.5-4.96-3.87-4.37-2.04.51-.95,3.5-.87,5.35.91,21.55,1.89,43.11,2.92,64.66.62,12.92,1.36,25.83,2.1,39.64ZM147.63,151.51c1.05-1.45,1.5-1.93,1.8-2.49,9.9-18.73,23.1-34.38,41.76-45.03,3.15-1.8,6.27-3.78,8.75-6.55.87-.97,2.09-1.8.63-3.3-4.13-4.23-7.74-8.5-15-7.58-6.06.77-10.87-2.74-14.29-8.19-3.86-6.14-6-12.95-8.52-19.6-1.89-5-4.74-8.58-9.98-10.25-4.22-1.35-6.1-4.61-5.39-8.94,1.29-7.92-2.29-13.39-8.37-17.76-1.96-1.41-4.21-2.71-6.44-1.37-2.49,1.51-1.19,4.15-.9,6.37,1.38,10.52,7.37,18.74,13.71,26.68,2.76,3.46,3.81,7.02,3.82,11.41.02,14.61-1.56,29.18-1.11,43.8.26,8.3.26,16.63-.08,24.93-.23,5.58-1.34,11.12-.39,17.89ZM349.29,149.33c4-2.81,7.75-3.8,11.65-4.53,3.61-.67,5.49-2.53,5.22-6.92-1.42-23.52-2.45-47.07-3.65-70.6-.88-17.07-1.79-34.14-2.76-51.21-.3-5.34-3.72-7.15-11.15-7.65-5.42-.36-6.58,1.86-6.99,6.71-1.54,18.52-3.25,37.03-5.49,55.48-.64,5.25.55,7.88,5.62,8.68,3.14.5,4.09,2.11,4.2,5.35.46,13.77,1.27,27.52,1.99,41.27.4,7.56.88,15.12,1.36,23.42ZM142.29,107.88c.3,0,.6,0,.9,0,0-5.14-.12-10.29.04-15.43.12-3.54-1.52-4.66-4.81-4.6-6.58.11-10.01,2.7-11.53,9.28-1.31,5.64-2.3,11.36-3.71,16.98-.94,3.75-3.27,6.89-7.29,7.31-5.14.54-7.98,3.58-10.28,7.63-3.93,6.92-8.03,13.75-11.71,20.8-2.04,3.9-7.98,8.11-6.27,10.79,1.83,2.89,8.34,2.78,12.79,4.05,9.25,2.63,17.46,1.27,23.79-6.47,3.52-4.32,7.63-6.62,13.33-5.69,3.74.61,4.85-1.28,4.81-4.87-.15-13.26-.06-26.51-.06-39.77ZM331.67,81.53c-11.7-.56-23.2-1.19-34.71-.27-7.2.57-11.59,6.06-16.85,9.88-10.49,7.62-10.32,7.77-4.23,19.77,2.34,4.62,5.7,7.62,10.95,8.33,7.43,1,14.88.59,22.33.31,2.75-.1,4.34-2.04,5.49-4.45,2.87-6,5.22-12.2,6.91-18.61,1.61-6.12,3.62-11.77,10.12-14.95ZM126.59,21.9c-.55.07-1.11.15-1.66.22-2.68,30.45-5.36,60.9-8.04,91.35.47.05.93.11,1.4.16,2.78-6.26,2.77-13.22,4.62-19.72,1.8-6.34,5.36-9.53,11.91-10.18,1.65-.17,3.33-.29,4.97-.14,3,.28,4.21-.91,4.17-3.94-.07-5.65.05-11.3.16-16.94.04-1.94-.6-3.54-1.78-5.03-8.28-10.52-16.25-21.19-15.76-35.77ZM322.67,75.98c3.14-.82,8.46,2.63,9.06-4.96,1.43-18.01,3.42-35.97,5.15-53.95.83-8.62.8-8.49-8.25-8.47-3.3,0-4.57,1.04-5.07,4.4-2.73,18.19-5.77,36.34-8.64,54.51-1.32,8.37-1.26,8.38,7.75,8.46Z"/>
    <path class="cls-1" d="M459.22,251.12c-.77-14.43-1.75-28.85-2.39-43.29-.16-3.51-1.44-4.52-4.8-4.4-6.14.23-12.31.29-18.44-.02-3.55-.18-4.93,1.27-5.92,4.43-3.15,9.99-7.02,19.71-11.42,29.22-4.17,9.02-9.44,17.02-17.95,22.77-8.28,5.6-16.99,10.4-25.65,15.34-12.21,6.97-25.07,9.45-38.88,6.9-3.92-.72-7.82-1.53-11.74-2.29-8.14-1.6-16.15-3.9-24.49-4.47-5.57-.38-9.59,1.68-12.28,6.66-2.31,4.27-4.35,8.63-5.38,13.36-.56,2.55-1.75,3.37-4.32,3.73-8.39,1.2-15.45.47-18.06-9.39-1.01-3.79-3.82-4.63-7.66-4.57-29.24.45-58.5.37-87.73,1.17-7.86.22-13.49-1.36-16.9-8.66-1.37-2.94-3.71-3.67-6.93-3.51-28.87,1.46-57.76,2.78-86.64,4.06-2.23.1-3.68.96-5.01,2.63-8.21,10.24-16.48,20.44-24.76,30.62-1.42,1.75-2.05,3.71-2.39,5.9-2.56,16.75-5.19,33.48-7.77,50.23-.95,6.17-1.8,14.99-2.7,21.17l.48-2.52c.36.03.72,2.71,1.08,2.74,1.83-.03,3.66-.07,5.48-.07,147.94,0,295.88,0,443.83,0,2.16,0,4.31-.14,6.47-.21-2.37-44.96-4.73-92.55-7.12-137.51ZM104.82,336.96c-4.46-.14-8.93-.15-13.4,0-3.34.11-3.18-2.01-3.16-4.26.02-2.19-.3-4.47,3.09-4.31,2.64.13,5.29.03,7.94.02,1.82,0,3.65.15,5.46-.04,3.43-.35,5.07.51,5.03,4.51-.04,3.95-1.97,4.18-4.96,4.09ZM161.85,336.96c-4.31-.15-8.64-.2-12.95,0-3.63.17-3.44-2.07-3.48-4.53-.04-2.43.21-4.3,3.4-4.07,2.48.18,4.98.04,7.47.03,1.83,0,3.66.07,5.48-.02,3.06-.16,5.33-.13,5.33,4.24,0,4.28-2.09,4.45-5.25,4.34ZM220.76,336.95c-2.48-.16-4.98-.03-7.47-.03-1.83,0-3.66-.13-5.48.03-3.37.3-5.1-.42-5.09-4.5.01-4.07,2.05-4.16,4.99-4.09,4.31.11,8.64.19,12.95-.01,3.6-.17,3.44,2.04,3.47,4.51.03,2.43-.19,4.3-3.37,4.09ZM278.34,336.94c-2.65-.15-5.31-.03-7.97-.02-1.83,0-3.67-.15-5.48.04-3.48.36-5.03-.57-5.02-4.55.01-4.08,2.11-4.11,5.02-4.04,4.48.11,8.97.15,13.45,0,3.39-.12,3.16,2.07,3.16,4.29,0,2.21.24,4.48-3.15,4.29Z"/>
    <path class="cls-10" d="M9.48,386.19c.36.03.72.07,1.08.1-.36-.03-.72-.07-1.08-.1Z"/>
    <path class="cls-5" d="M262.06,190.23c-.74-13.81-1.48-26.72-2.1-39.64-1.03-21.55-2.01-43.1-2.92-64.66-.08-1.85-1.16-4.84.87-5.35,2.37-.59,3.21,2.41,3.87,4.37,1.89,5.67,3.51,11.43,5.39,17.1,1.04,3.15,2.35,6.21,3.59,9.29,3.38,8.41,9.57,12.94,18.68,13.16,6.31.15,12.62.18,18.93.08,4.93-.08,8.3-2.52,10.53-7.03,3.71-7.5,6.27-15.38,8.4-23.41,1.34-5.06,4.68-7.28,9.41-8.39,2.88-.67,4.32-.15,4.47,3.13.35,7.62.99,15.23,1.4,22.85.72,13.42.93,26.89,2.21,40.26.72,7.49-7.01,16.7-14.49,19.4-10.37,3.74-21.07,6.01-31.82,8.11-7.66,1.49-15.4,2.53-23.19,3.01-5.4.33-8.54,4.6-13.21,7.72Z"/>
    <path class="cls-2" d="M147.63,151.51c-.95-6.77.16-12.31.39-17.89.34-8.3.34-16.62.08-24.93-.45-14.63,1.13-29.19,1.11-43.8,0-4.39-1.06-7.96-3.82-11.41-6.34-7.94-12.33-16.16-13.71-26.68-.29-2.21-1.6-4.86.9-6.37,2.23-1.34,4.47-.04,6.44,1.37,6.08,4.37,9.67,9.84,8.37,17.76-.71,4.33,1.17,7.59,5.39,8.94,5.24,1.68,8.09,5.25,9.98,10.25,2.51,6.66,4.66,13.46,8.52,19.6,3.42,5.46,8.24,8.96,14.29,8.19,7.26-.92,10.87,3.35,15,7.58,1.46,1.5.23,2.33-.63,3.3-2.47,2.77-5.6,4.76-8.75,6.55-18.66,10.64-31.85,26.29-41.76,45.03-.3.56-.75,1.05-1.8,2.49Z"/>
    <path class="cls-11" d="M142.29,107.88c0,13.26-.09,26.52.06,39.77.04,3.59-1.07,5.48-4.81,4.87-5.7-.93-9.81,1.37-13.33,5.69-6.33,7.75-14.54,9.11-23.79,6.47-4.45-1.27-10.96-1.16-12.79-4.05-1.7-2.68,4.23-6.89,6.27-10.79,3.69-7.05,7.78-13.88,11.71-20.8,2.3-4.05,5.13-7.09,10.28-7.63,4.03-.42,6.35-3.56,7.29-7.31,1.41-5.62,2.41-11.34,3.71-16.98,1.52-6.57,4.95-9.17,11.53-9.28,3.29-.05,4.92,1.06,4.81,4.6-.17,5.14-.04,10.28-.04,15.43-.3,0-.6,0-.9,0Z"/>
    <path class="cls-2" d="M331.67,81.53c-6.5,3.18-8.51,8.83-10.12,14.95-1.69,6.41-4.03,12.61-6.91,18.61-1.15,2.41-2.75,4.35-5.49,4.45-7.44.28-14.89.69-22.33-.31-5.24-.7-8.6-3.71-10.95-8.33-6.08-12-6.25-12.15,4.23-19.77,5.26-3.82,9.65-9.3,16.85-9.88,11.51-.92,23.02-.28,34.71.27Z"/>
    <path class="cls-11" d="M126.59,21.9c-.49,14.59,7.48,25.26,15.76,35.77,1.18,1.49,1.82,3.09,1.78,5.03-.12,5.65-.23,11.3-.16,16.94.04,3.03-1.17,4.22-4.17,3.94-1.64-.15-3.33-.03-4.97.14-6.54.66-10.11,3.85-11.91,10.18-1.84,6.5-1.84,13.46-4.62,19.72-.47-.05-.93-.11-1.4-.16,2.68-30.45,5.36-60.9,8.04-91.35.55-.07,1.11-.15,1.66-.22Z"/>
    <path class="cls-5" d="M322.67,75.98c-9-.08-9.07-.09-7.75-8.46,2.87-18.17,5.9-36.32,8.64-54.51.51-3.36,1.77-4.4,5.07-4.4,9.05-.02,9.08-.15,8.25,8.47-1.73,17.98-3.73,35.94-5.15,53.95-.6,7.59-5.92,4.14-9.06,4.96Z"/>
    <path class="cls-5" d="M43.9,276.73c1.64-2.14,3.46-3.19,6.25-3.31,27.89-1.19,55.79-2.24,83.65-3.95,7.94-.49,13.89.8,17.4,8.48.99,2.15,2.62,3.57,5.45,3.52,19.77-.36,39.55-.59,59.33-.79,2.71-.03,3.78-1.03,4-3.77.89-11.09,2.62-22.16,2.83-33.25.28-15.3,7.13-26.23,19.71-34.15,1.83-1.15,3.68-2.28,5.4-3.58,5.86-4.44,9.96-9.21,9.28-17.75-1.45-18.2-1.66-36.5-2.48-54.76-.75-16.76-1.78-33.51-2.37-50.28-.15-4.2-1.77-4.93-5.58-5.42-11.14-1.44-20.13,2.43-28.25,9.61-8.45,7.48-16.12,15.94-26.04,21.61-17.2,9.83-29.31,24.35-38.27,41.61-2.67,5.14-5.91,7.46-11.64,6.64-6.78-.97-12.46.6-17.16,6.29-6.01,7.28-14.23,8.57-23.15,6.46-2.75-.65-5.48-1.5-8.27-1.81-10.28-1.13-17.12-6.54-20.89-16.09-.93-2.34-2.32-4.39-5.18-4.91-5.58-1.01-9.48-4.55-12.87-8.8-1.86-2.34-3.65-4.74-5.57-7.03-.96-1.15-2.2-2.37-3.8-1.93-1.87.51-1.43,2.42-1.56,3.83-1.28,13.72-2.53,27.45-3.75,41.18-2.56,28.79-5.12,57.57-7.66,86.36-.9,10.23-1.75,20.46-2.62,30.69.53.24,1.05.48,1.58.71,4.09-5.14,8.25-10.22,12.24-15.44ZM187.66,211.87c-4.12.14-4.87-1.53-5.01-5.22-.16-4.4,1.66-5.18,5.54-5.17,3.93.01,5.19.96,5.19,5.04.03,4.85-1.96,5.22-5.73,5.35ZM227.9,149.18c1.98-.12,2.79,2.71,3.18,4.46.58,2.58-1.81,1.76-3.05,1.78-1.32.03-3.64.74-3.51-1.4.12-1.93,1.3-4.72,3.38-4.85ZM221.59,139.02c2.12.05,3.28,2.87,3.45,4.79.18,2.14-2.12,1.41-3.41,1.35-1.23-.06-3.54.85-3.14-1.64.29-1.78,1.31-4.55,3.11-4.51ZM215.73,149.11c2.22.03,3.3,2.87,3.46,4.84.18,2.18-2.13,1.51-3.45,1.47-1.26-.03-3.56.73-3.18-1.75.29-1.84,1.29-4.59,3.16-4.57ZM209.06,229.38c4.28-.11,5.2,1.49,5.24,5.45.04,4.13-1.23,5.39-5.35,5.35-4.14-.04-4.97-1.15-4.98-5.46-.01-4.49,1.12-5.24,5.09-5.34ZM190.03,148.87c2.03-.08,2.97,2.96,3.31,4.87.44,2.41-1.92,1.64-3.18,1.67-1.3.03-3.6.69-3.37-1.52.2-1.97,1.33-4.95,3.24-5.02ZM183.75,139.14c2.26-.14,2.72,3.17,4.27,5.75h-7.7c.76-2.53,1.52-5.63,3.42-5.75ZM177.97,148.9c2.02-.12,2.94,2.93,3.38,4.8.59,2.51-1.83,1.64-3.04,1.72-1.32.08-3.6.67-3.44-1.45.14-1.96,1.26-4.96,3.11-5.07ZM167.71,229.61c4.81-.19,4.86,1.67,5.03,5.31.19,4.28-1.51,5.13-5.46,5.29-4.77.19-5.22-1.9-5.35-5.87-.16-4.68,2-4.59,5.79-4.74ZM146.17,201.48c3.62.16,4.96.56,4.97,4.99,0,4.31-.87,5.47-5.02,5.41-3.72-.05-5.25-.88-5.22-4.98.03-4.02.99-5.59,5.27-5.41ZM125.81,229.4c4.94-.43,5.03,2.14,5.24,5.91.26,4.81-2.22,4.5-5.91,4.66-5.08.23-4.87-1.99-5.11-5.71-.32-4.86,2.37-4.57,5.79-4.87ZM104.4,201.49c3.8-.08,5.27.92,5.18,4.99-.09,3.94-.77,5.15-5.31,5.16-4.8.01-4.95-1.59-5.15-5.3-.24-4.33,1.73-4.78,5.28-4.86ZM84.08,229.62c4.73-.1,4.95,1.51,5.19,5.25.31,4.83-1.94,5.22-5.86,5.33-4.33.12-5.09-1.58-5.21-5.49-.15-4.7,1.72-5,5.88-5.08ZM62.6,201.75c4.78-1.14,5.3,1.39,5.41,5.19.13,4.11-1.54,4.9-5.25,4.94-3.98.05-5.55-.93-5.48-5.24.07-4.18,1.24-5.98,5.32-4.89Z"/>
    <path class="cls-3" d="M239.91,217.5c-6.51,4.37-10.81,10.79-11.57,18.98-1.26,13.56-2.41,27.14-3.75,40.69-.27,2.68.52,3.57,3.15,3.5,6.31-.18,12.72.47,18.92-.4,8.52-1.18,14.03,1.46,16.47,9.81,1.44,4.94,5.18,4.42,9.13,4.42,4.04,0,3.66-3.08,4.61-5.32.72-1.68,1.3-3.42,2.05-5.08,5.45-11.96,9.92-14.44,23.09-12.96,9.61,1.08,18.84,4.02,28.33,5.66,10.58,1.83,21.14,3,31.34-1.65,13.18-6,25.87-12.88,37.39-21.77,3.61-2.79,6.51-6.11,8.75-10.08,5.76-10.17,9.82-21.06,13.81-31.99,4.4-12.06,4.4-12.21,17.15-12.26,3.89-.02,4.72-1.45,4.66-4.98-.18-11.13-.07-22.27-.07-33.4h-.15c0-11.3-.11-22.6.07-33.9.06-3.51-1.08-4.58-4.57-4.4-14.93.79-29.88,1.8-44.82,1.81-7.42,0-12.51,1.51-15.25,9.04-1.57,4.32-4.89,7.88-8.3,11.1-2.32,2.19-4.86,4.6-7.99,4.82-7.44.52-11.08,5.29-14,11.16-4.32,8.7-11.27,14.12-20.52,16.91-15.64,4.72-31.54,8.14-47.83,9.36-5.14.39-9.39,1.85-12.69,5.8-8.02,9.6-16.96,18.1-27.43,25.12ZM351.55,242.27c-2.87-.03-3.71-1.05-3.68-3.8.12-9.62.16-19.25-.01-28.87-.05-3.14,1.46-3.4,3.95-3.47,2.81-.08,3.79.91,3.69,3.73-.18,4.81-.05,9.62-.05,14.43,0,4.65-.15,9.3.05,13.94.13,3.02-.88,4.07-3.95,4.04ZM351.6,195.82c2.28-.07,3.78,3.74,4.09,5.98.36,2.68-2.47,1.51-4.02,1.59-1.56.08-4.2,1.04-3.96-1.39.24-2.36,1.73-6.11,3.89-6.18ZM333.94,242.23c-2.23-.04-3.84-.18-3.81-3.11.11-9.94.1-19.88.01-29.82-.03-2.92,1.63-3.02,3.84-3.08,2.49-.07,3.64.7,3.57,3.37-.13,4.97-.04,9.94-.04,14.91,0,4.8-.11,9.61.04,14.41.08,2.73-1.18,3.36-3.61,3.32ZM333.98,195.91c2.2.09,3.71,3.77,3.91,6.14.18,2.23-2.46,1.47-4.03,1.33-1.53-.13-4.33,1.12-4.04-1.56.25-2.28,1.75-6.01,4.16-5.91ZM316.17,242.23c-3.11.03-3.98-1.09-3.93-4.05.14-9.44.14-18.89,0-28.33-.04-2.89,1.09-3.61,3.8-3.63,2.88-.02,3.75,1.03,3.66,3.78-.17,4.8-.05,9.61-.04,14.41,0,4.64-.11,9.28.04,13.92.09,2.64-.55,3.87-3.53,3.9ZM315.84,195.97c2.54.02,3.79,3.69,4.07,6,.29,2.47-2.15,1.44-3.75,1.6-1.83.18-4.58,1.08-4.22-1.82.27-2.15,1.87-5.78,3.91-5.77Z"/>
    <path class="cls-7" d="M471.01,386.13l.11-3.75c-1.56-.04-3.11-.09-4.67-.13l-.11,3.75,3.74-.2c-2.37-44.96-4.73-89.91-7.12-134.87-.77-14.47-1.75-28.88-2.39-43.26-.05-1.04-.17-2.03-.48-3.03-.23-.75-.58-1.52-1.11-2.22-.78-1.07-1.97-1.87-3.11-2.24-1.15-.39-2.24-.49-3.33-.49-.21,0-.44,0-.67.01h.02c-3.15.11-6.29.19-9.42.19-2.91,0-5.81-.06-8.7-.21-.25-.01-.5-.02-.76-.02-1.07,0-2.13.12-3.17.45-1.56.48-2.98,1.53-3.89,2.76-.92,1.23-1.45,2.53-1.87,3.86-3.09,9.81-6.91,19.38-11.25,28.77-2.01,4.35-4.25,8.36-6.94,11.92-2.69,3.56-5.83,6.68-9.71,9.31-8.1,5.47-16.71,10.23-25.4,15.19-8.6,4.9-17.33,7.38-26.56,7.38-3.19,0-6.45-.3-9.79-.92-3.87-.71-7.76-1.51-11.7-2.29-7.93-1.54-16.09-3.91-24.95-4.53-.51-.04-1.02-.05-1.52-.05-2.99,0-5.87.66-8.36,2.17-2.49,1.5-4.48,3.75-5.96,6.5-2.37,4.39-4.59,9.07-5.75,14.34-.09.41-.18.62-.21.67v.02s.16.11.16.11l-.16-.13-.02.02.17.11-.16-.13.39.32-.3-.41-.09.09.39.32-.3-.41.15.21-.13-.22h-.02s.15.22.15.22l-.13-.22-.05.02c-.11.05-.46.15-1.05.24-1.74.25-3.35.4-4.78.4-1.27,0-2.39-.12-3.34-.35-1.43-.36-2.44-.9-3.36-1.84-.91-.95-1.78-2.41-2.43-4.85-.34-1.29-.88-2.49-1.65-3.53-1.15-1.57-2.81-2.63-4.43-3.16-1.63-.54-3.24-.67-4.84-.67-.13,0-.28,0-.45,0h.03c-29.2.45-58.47.37-87.78,1.18-.41.01-.82.02-1.21.02-3.29,0-5.77-.43-7.59-1.36-.92-.46-1.7-1.05-2.46-1.86-.75-.81-1.47-1.87-2.14-3.3-.87-1.92-2.33-3.56-4.11-4.49-1.78-.94-3.65-1.2-5.41-1.2-.32,0-.66,0-1.01.03h.02c-28.86,1.46-57.74,2.78-86.62,4.06-1.55.06-3.1.43-4.45,1.17-1.36.73-2.44,1.76-3.32,2.86-8.2,10.23-16.46,20.42-24.75,30.6-.97,1.19-1.69,2.5-2.19,3.8-.5,1.31-.8,2.62-.99,3.9-2.56,16.74-5.19,33.47-7.77,50.22-.96,6.21-1.81,12.4-2.71,18.56l3.71.54.12-3.75c-1.56-.05-3.11-.1-4.67-.15l-.12,3.75,3.71.56c3.65-23.98,7.29-47.95,10.95-71.92.1-.61.28-1.13.58-1.69.44-.83,1.17-1.73,2.11-2.75.94-1.02,2.08-2.15,3.18-3.56,1.06-1.37,2.02-2.83,2.76-4.49.74-1.66,1.23-3.51,1.39-5.51,2.79-34.1,5.73-68.2,8.68-102.29,1.77-20.51,3.68-41.03,5.39-61.59.13-1.64.38-2.92.71-3.6.17-.35.32-.57.52-.76.2-.19.46-.37.95-.56.38-.14.62-.17.81-.17.35,0,.71.1,1.38.57.66.46,1.47,1.27,2.35,2.22,1.9,2.02,3.66,4.56,5.79,7.17,1.65,2.01,3.48,4,5.75,5.66,2.27,1.66,5.02,2.96,8.24,3.48.66.11,1.06.3,1.46.57.59.4,1.2,1.13,1.84,2.25.65,1.1,1.28,2.53,2.08,4.05.96,1.81,1.67,3.19,2.47,4.39.42.6.85,1.19,1.55,1.78.35.29.79.59,1.34.82.54.23,1.2.38,1.85.38.62,0,1.21-.13,1.7-.31.87-.33,1.45-.78,1.93-1.21.71-.65,1.25-1.31,1.84-2.09.59-.77,1.21-1.65,1.93-2.67,5.96-8.46,9.9-17.61,14.85-25.65,1.17-1.91,2.18-3.64,3.26-4.9,1.09-1.27,2.1-2.06,3.55-2.54.96-.31,1.89-.82,2.64-1.55.56-.54,1-1.18,1.28-1.78.44-.92.58-1.74.67-2.39.08-.65.1-1.15.13-1.51,2.69-30.45,5.37-60.91,8.08-91.36.19-2.18.26-3.76.36-4.6.03-.31.07-.51.09-.57v-.02s-1.29-.38-1.29-.38l1.13.71c.12-.19.16-.32.16-.32l-1.29-.38,1.13.71-1.87-1.17,1.4,1.7c.19-.16.37-.37.47-.53l-1.87-1.17,1.4,1.7-1.3-1.57.84,1.86.46-.29-1.3-1.57.84,1.86-.45-1,.28,1.07.17-.07-.45-1,.28,1.07h.01c.11-.03.71-.09,1.63-.11.93-.03,2.19-.04,3.77-.1.42-.02.82-.02,1.22-.02,4.11,0,7.36.8,10.06,2.36,2.69,1.57,4.97,3.95,6.94,7.62,1.38,2.58,2.14,4.98,2.14,7.32,0,.59-.05,1.18-.15,1.79h0c-.12.71-.19,1.42-.19,2.16,0,.86.1,1.74.36,2.61.37,1.31,1.15,2.58,2.18,3.53,1.03.95,2.24,1.6,3.53,2.05,2.22.79,3.84,1.94,5.25,3.5,1.39,1.55,2.53,3.54,3.47,5.91,2,5.02,3.87,10.21,6.08,15.38,1.56,3.64,3.62,6.88,6.56,9.29,2.92,2.42,6.75,3.81,11.01,3.79,1.12,0,2.28-.09,3.46-.26h0c.54-.08,1.03-.12,1.48-.12,1.28,0,2.16.26,3,.77.83.51,1.69,1.35,2.55,2.81.91,1.53,1.78,2.81,2.95,3.9.59.54,1.28,1.03,2.09,1.4.81.36,1.74.57,2.64.57,1.58,0,2.92-.56,4.04-1.22,1.13-.67,2.14-1.5,3.22-2.48,4.24-3.89,8.46-7.51,13.11-10.37,4.7-2.88,9.37-4.44,14.39-4.45,1.16,0,2.33.08,3.54.26.58.08,1.45.26,2.62.27.24,0,.47,0,.71-.03h.02c.94-.08,1.84-.12,2.7-.12,2.25,0,4.19.28,5.83.79,2.46.79,4.25,2.02,5.74,3.94,1.47,1.92,2.63,4.64,3.26,8.41.2,1.14.52,2.28,1.42,3.41.45.55,1.07,1.06,1.78,1.39.71.33,1.47.47,2.14.47,1.09,0,1.92-.3,2.61-.61.69-.32,1.26-.69,1.81-1.07h0c3.16-2.3,6.93-4.46,10.4-7.55,2.38-2.13,4.82-3.74,7.35-4.82,2.53-1.08,5.16-1.64,8.02-1.64.86,0,1.73.05,2.64.16h0c.65.08,1.29.12,1.9.12,1.34,0,2.66-.2,3.91-.74.93-.4,1.79-1,2.46-1.71,1.02-1.08,1.62-2.31,2.02-3.5.4-1.2.62-2.4.81-3.65,3.04-20.66,6.53-41.29,9.67-62.03.09-.58.2-.93.25-1.04l.02-.04h0s-.65-.39-.65-.39l.49.57.16-.18-.65-.39.49.57-.58-.68.4.81.18-.12-.58-.68.4.81-.2-.4.16.42.03-.02-.2-.4.16.42v-.02s0,.02,0,.02h0s0-.02,0-.02v.02s.35-.08.95-.08h.14s.05,0,.05,0c3.66.07,7.32.08,10.96.08,4.06,0,8.11-.02,12.14-.02,1.63,0,3.25,0,4.87.02,1.95,0,4.04.94,5.65,2.53,1.62,1.59,2.65,3.74,2.74,5.77,2,39.33,4.01,78.67,6.03,118,.05.92.15,1.56.29,2.89l.77,7.53,5.53-5.17c4.2-3.92,6.58-8.46,8.16-12.8.27-.73.53-1.19.75-1.48.34-.42.53-.55,1.04-.76.5-.19,1.37-.34,2.62-.38,18.62-.61,37.25-1.32,55.88-2.34.38-.02.71-.03,1-.03.72,0,1.18.07,1.31.12h.04s.04-.09.04-.09l-.05.1h0s.04-.1.04-.1l-.05.1.36-.74-.61.54.25.2.36-.74-.61.54.4-.35-.49.23.09.12.4-.35-.49.23s.07.17.13.53c.05.35.09.89.09,1.57v.23s3.75-.06,3.75-.06l-3.75-.03c-.03,3.79-.04,7.58-.04,11.37,0,16.06.19,32.09.19,48.09,0,3.28,0,6.57-.03,9.85h0s0,.2,0,.2c0,1.24.06,2.41.29,3.57.17.87.45,1.76.93,2.64.36.65.85,1.28,1.43,1.81.88.8,1.96,1.32,3.02,1.61,1.06.29,2.13.39,3.24.39.45,0,.89-.02,1.34-.04h.02c1.16-.08,2.08-.12,2.73-.12.39,0,.68.02.85.04l.15.02h.02s.22-.87.22-.87l-.43.79.2.09.22-.87-.43.79.8-1.47-1.45.86c.09.18.41.51.64.62l.8-1.47-1.45.86.75-.44-.81.32.06.12.75-.44-.81.32h0c.03.06.12.5.18,1.21.07.72.12,1.7.18,2.93,3.05,58.75,6.14,117.49,9.23,176.24.08,1.56.29,2.94.42,4.15l3.73-.39.11-3.75-.11,3.75,3.73-.39c-.15-1.43-.33-2.69-.39-3.77-3.09-58.75-6.18-117.49-9.23-176.24-.08-1.42-.13-2.6-.25-3.71-.1-.83-.22-1.64-.53-2.52-.23-.66-.58-1.37-1.14-2.02-.41-.49-.92-.92-1.46-1.23-.81-.48-1.63-.71-2.38-.84-.75-.12-1.46-.16-2.21-.16-.97,0-2.01.06-3.21.14h.02c-.34.02-.64.03-.9.03-.77,0-1.21-.1-1.32-.14h-.03s-.14.28-.14.28l.19-.26-.05-.04-.14.3.19-.26-.34.46.49-.3-.15-.15-.34.46.49-.3-.1.06.1-.06h0s-.1.06-.1.06l.1-.06s-.1-.2-.16-.63c-.07-.44-.12-1.09-.11-1.93v-.16s0,0,0,0c.02-3.3.03-6.6.03-9.89,0-16.06-.19-32.09-.19-48.09,0-3.77.01-7.54.04-11.31v-.2c0-1.28-.08-2.45-.36-3.61-.21-.87-.54-1.76-1.09-2.59-.41-.62-.94-1.19-1.55-1.64-.91-.68-1.93-1.07-2.88-1.28-.96-.21-1.89-.27-2.85-.27-.46,0-.93.02-1.41.04-18.54,1.01-37.12,1.72-55.71,2.33-1.11.04-2.2.13-3.3.36-1.64.34-3.37,1.06-4.79,2.33-1.42,1.27-2.43,2.94-3.12,4.84-1.36,3.69-3.12,6.97-6.24,9.9l2.56,2.74,3.73-.38c-.15-1.44-.24-2.11-.26-2.51-2.01-39.33-4.03-78.66-6.03-117.99-.22-4.19-2.16-7.95-4.97-10.73-2.82-2.77-6.63-4.65-10.86-4.69-1.64-.01-3.28-.02-4.92-.02-4.06,0-8.11.02-12.14.02-3.62,0-7.23-.02-10.82-.08l-.07,3.75.11-3.75h-.37c-.92,0-1.84.06-2.8.31-.72.19-1.47.49-2.17.95-1.05.69-1.88,1.73-2.36,2.77-.5,1.05-.74,2.09-.91,3.19-3.13,20.65-6.62,41.3-9.68,62.06-.13.92-.29,1.67-.44,2.18-.12.39-.23.64-.31.77l-.09.12.03.03-.02-.03h0s.03.03.03.03l-.02-.03-.17.06c-.14.03-.4.07-.78.07-.28,0-.63-.02-1.03-.07h0c-1.19-.14-2.37-.21-3.52-.21-3.87,0-7.56.79-10.96,2.24-3.41,1.45-6.54,3.55-9.41,6.13-2.67,2.42-6.2,4.48-9.77,7.05h0c-.28.2-.5.32-.55.34h-.01s.27.66.27.66l-.16-.69-.11.03.27.65-.16-.69.42,1.78v-1.83c-.2,0-.33.02-.42.04l.42,1.78v-1.83,2.45l1.03-2.21c-.37-.18-.76-.24-1.03-.23v2.45l1.03-2.21-.93,2,1.96-1.09c-.09-.18-.45-.65-1.03-.91l-.93,2,1.96-1.09-.9.5.95-.4-.05-.1-.9.5.95-.4-.22.09.22-.07v-.02s-.22.09-.22.09l.22-.07-.06-.26c-.52-3.1-1.36-5.88-2.58-8.33-1.82-3.67-4.56-6.59-7.97-8.43-3.41-1.85-7.36-2.65-11.66-2.65-1.09,0-2.21.05-3.35.15h.02s-.1,0-.1,0c-.2,0-.74-.07-1.54-.19-1.56-.23-3.11-.34-4.62-.34-6.64,0-12.77,2.14-18.32,5.56-5.33,3.28-9.89,7.25-14.24,11.22-.86.79-1.56,1.32-1.97,1.56-.21.12-.34.17-.37.18h0s.16.65.16.65v-.66l-.16.02.16.64v-.66,1.01l.42-.93-.42-.08v1.01l.42-.93-.16.35.2-.32-.05-.02-.16.35.2-.32s-.2-.14-.51-.52c-.31-.37-.71-.96-1.17-1.75-1.33-2.28-3.02-4.15-5.12-5.43-2.08-1.28-4.49-1.87-6.9-1.86-.86,0-1.72.07-2.58.2h0c-.86.13-1.65.18-2.37.18-2.75-.02-4.58-.75-6.26-2.1-1.67-1.35-3.16-3.51-4.41-6.44-2.1-4.9-3.95-10.03-6-15.2-1.17-2.94-2.7-5.74-4.86-8.14-2.15-2.4-4.94-4.37-8.34-5.56-.39-.14-.64-.27-.78-.36-.21-.15-.18-.16-.2-.18-.01-.03-.08-.16-.08-.58,0-.23.02-.54.09-.93h0c.17-1.02.25-2.02.25-3.02,0-4-1.3-7.62-3.03-10.86-2.47-4.63-5.74-8.24-9.79-10.57-4.04-2.35-8.73-3.38-13.81-3.37-.5,0-1,.01-1.5.03-2.12.08-3.61.07-4.96.15-.51.03-1.01.08-1.55.18-.47.09-.98.23-1.53.47-.48.22-.99.53-1.43.94-.79.72-1.27,1.65-1.52,2.4-.36,1.15-.42,2.05-.52,3.11-.08,1.05-.15,2.25-.28,3.76-2.71,30.45-5.39,60.91-8.08,91.36-.04.5-.06.89-.09,1.14-.02.18-.04.29-.04.29l.65.18-.6-.31-.05.13.65.18-.6-.31,1.2.61-.86-1.04-.35.43,1.2.61-.86-1.04.6.73-.44-.84-.16.11.6.73-.44-.84.12.23-.1-.24h-.02s.12.24.12.24l-.1-.24h-.03c-3.03.99-5.3,2.88-6.94,4.84-1.66,1.97-2.82,4.03-3.92,5.82-5.3,8.67-9.19,17.64-14.58,25.24-1.09,1.55-1.91,2.68-2.38,3.22l-.25.27-.04.03.04.04-.03-.04h0s.04.04.04.04l-.03-.04.98,1.26-.62-1.46c-.23.1-.34.18-.36.2l.98,1.26-.62-1.46,1.02,2.4v-2.6c-.42,0-.8.1-1.02.2l1.02,2.4v-2.6,2.73l1.06-2.51c-.28-.12-.68-.22-1.06-.21v2.73l1.06-2.51-.86,2.04,1.37-1.75c-.09-.07-.26-.19-.51-.29l-.86,2.04,1.37-1.75-.63.8.75-.7-.12-.1-.63.8.75-.7s-.32-.41-.71-1.1c-.4-.7-.92-1.68-1.56-2.88-.86-1.6-1.73-3.77-3.25-5.91-.77-1.07-1.74-2.14-3-3.03-1.26-.89-2.81-1.55-4.53-1.83-2-.34-3.55-1.06-5.05-2.15-1.5-1.09-2.92-2.58-4.37-4.35-1.87-2.28-3.71-4.97-6.12-7.55-.94-.99-2.03-2.17-3.49-3.21-1.44-1.03-3.41-1.95-5.72-1.95-1.15,0-2.34.23-3.48.67-1.31.5-2.49,1.22-3.44,2.13-1.44,1.36-2.28,3.04-2.76,4.61-.48,1.58-.66,3.11-.78,4.55-1.71,20.51-3.61,41.02-5.39,61.56-2.94,34.1-5.89,68.2-8.68,102.33-.1,1.21-.36,2.15-.77,3.08-.41.93-1.01,1.88-1.84,2.94-.92,1.21-2.38,2.56-3.87,4.31-.74.88-1.49,1.89-2.12,3.07-.63,1.18-1.14,2.56-1.37,4.08-3.66,23.98-7.3,47.95-10.95,71.93l-.64,4.17,4.22.14c1.56.05,3.11.1,4.67.15l3.35.11.48-3.32c.9-6.2,1.75-12.37,2.7-18.5,2.58-16.73,5.21-33.47,7.77-50.23.14-.92.33-1.68.58-2.34.25-.66.56-1.21,1.01-1.76,8.29-10.18,16.56-20.39,24.78-30.64.46-.57.77-.81,1.03-.95.26-.13.55-.24,1.23-.28,28.89-1.28,57.78-2.61,86.66-4.06h.02c.2-.01.39-.02.59-.02,1.04,0,1.61.17,1.88.32.26.16.47.28.85,1.05.94,2.01,2.07,3.76,3.43,5.22,2.02,2.2,4.53,3.68,7.18,4.51,2.66.84,5.45,1.1,8.37,1.11.47,0,.94,0,1.42-.02,29.16-.8,58.4-.72,87.69-1.17h.03s.28,0,.28,0c.76,0,1.4.05,1.87.14.73.14,1.03.32,1.2.46.16.15.37.36.6,1.18.59,2.23,1.41,4.18,2.48,5.85,1.6,2.51,3.84,4.34,6.29,5.38,2.45,1.05,5.03,1.38,7.6,1.39,1.94,0,3.89-.19,5.84-.47.79-.11,1.58-.27,2.38-.55,1.2-.4,2.5-1.2,3.4-2.35.91-1.15,1.38-2.45,1.66-3.74.92-4.19,2.78-8.23,5.02-12.37,1.01-1.85,2.07-2.94,3.23-3.65,1.17-.7,2.56-1.09,4.49-1.09.32,0,.66.01,1,.04,7.82.52,15.67,2.76,24.03,4.41,3.89.76,7.81,1.57,11.78,2.3,3.76.69,7.48,1.04,11.14,1.04,10.6,0,20.72-2.91,30.27-8.37,8.62-4.92,17.42-9.76,25.89-15.49,4.63-3.12,8.38-6.88,11.49-11,3.12-4.13,5.6-8.62,7.76-13.3,4.45-9.63,8.39-19.5,11.59-29.67.19-.6.37-1.04.51-1.3.23-.41.27-.37.28-.39.02,0,.22-.13.98-.14h.38c3.03.16,6.06.23,9.08.23,3.24,0,6.48-.07,9.69-.19h.02s.36,0,.36,0c.52,0,.82.06.86.07h0s.31-.83.31-.83l-.59.66.27.18.31-.83-.59.66.7-.78-.89.55.2.23.7-.78-.89.55.45-.28-.48.24.03.04.45-.28-.48.24.03-.02h-.03s0,.02,0,.02l.03-.02h-.03s.14.46.17,1.22c.65,14.49,1.63,28.93,2.4,43.32,2.39,44.95,4.75,89.91,7.12,134.87l.18,3.45,3.45.1c1.55.04,3.11.09,4.66.13l4.28.12-.44-4.26-3.73.39ZM30.09,291.45l-1.54,3.42c.52.24,1.05.47,1.57.71l2.66,1.21,1.82-2.29c4.07-5.11,8.24-10.22,12.28-15.49.6-.78,1.06-1.15,1.5-1.39.44-.23.97-.4,1.94-.45,27.88-1.19,55.8-2.24,83.72-3.95.89-.05,1.73-.09,2.52-.09,2.96,0,5.2.42,6.87,1.31.85.45,1.59,1.02,2.31,1.82.72.8,1.41,1.85,2.05,3.25.67,1.47,1.68,2.95,3.22,4.05,1.53,1.11,3.49,1.68,5.5,1.66h.1s.01,0,.01,0h.05s.05,0,.05,0c19.76-.36,39.53-.59,59.3-.79.9-.01,1.8-.09,2.74-.36.7-.2,1.43-.52,2.09-1,1.01-.71,1.77-1.76,2.19-2.79.43-1.04.6-2.04.68-3.06.87-10.9,2.62-22.04,2.84-33.48.14-7.11,1.76-12.97,4.72-18.01,2.97-5.04,7.34-9.32,13.23-13.04,1.8-1.13,3.74-2.31,5.67-3.76,2.88-2.18,5.57-4.58,7.59-7.67,2.03-3.08,3.26-6.89,3.25-11.26,0-.69-.03-1.39-.08-2.1-1.44-18.04-1.65-36.3-2.47-54.64-.75-16.8-1.78-33.54-2.36-50.24-.05-1.28-.2-2.47-.6-3.65-.3-.88-.78-1.75-1.43-2.49-.98-1.12-2.25-1.79-3.39-2.16-1.16-.38-2.26-.55-3.42-.71-1.71-.22-3.38-.33-5.02-.33-5.06,0-9.79,1.05-14.14,2.95-4.36,1.9-8.33,4.61-12.05,7.91-8.64,7.68-16.17,15.9-25.41,21.16-17.94,10.24-30.55,25.42-39.74,43.14-1.01,1.94-1.98,3.14-2.87,3.8-.9.64-1.73.96-3.3.98-.47,0-1.01-.04-1.61-.12h0c-1.38-.2-2.75-.31-4.11-.31-3.06,0-6.09.57-8.9,1.88-2.81,1.31-5.36,3.35-7.58,6.04-1.83,2.21-3.79,3.66-5.91,4.61-2.12.95-4.45,1.4-7.04,1.4-2.01,0-4.18-.28-6.45-.82-2.58-.6-5.45-1.52-8.72-1.89-4.59-.51-8.14-1.91-11-4.13-2.86-2.22-5.12-5.33-6.82-9.62-.56-1.41-1.33-2.95-2.63-4.33-1.28-1.39-3.18-2.51-5.37-2.88-2.18-.4-3.98-1.25-5.7-2.52-1.72-1.26-3.33-2.96-4.91-4.93-1.81-2.27-3.62-4.7-5.63-7.1-.49-.58-1.12-1.3-2.05-1.99-.47-.34-1.02-.68-1.69-.94-.66-.26-1.45-.43-2.27-.43-.54,0-1.12.07-1.69.23h.03c-1.07.27-2.19.93-2.92,1.85-.55.67-.87,1.4-1.05,2.02-.27.94-.28,1.67-.3,2.21-.01.54-.01.91-.02,1.01-1.28,13.73-2.53,27.46-3.75,41.2-2.57,28.79-5.12,57.57-7.66,86.36-.9,10.24-1.75,20.48-2.62,30.71l-.23,2.64,2.42,1.09,1.54-3.42,3.73.32c.87-10.24,1.72-20.47,2.62-30.68,2.54-28.79,5.09-57.57,7.66-86.35,1.22-13.73,2.47-27.45,3.75-41.17.05-.62.04-1.08.05-1.4,0-.24.01-.41.02-.46v-.02s-.86-.14-.86-.14l.81.3.05-.16-.86-.14.81.3-1.83-.69,1.32,1.43c.28-.25.45-.57.51-.74l-1.83-.69,1.32,1.43-1.15-1.24.45,1.65c.11-.02.42-.16.69-.41l-1.15-1.24.45,1.65h.03s-.35-1.26-.35-1.26v1.3s.35-.05.35-.05l-.35-1.25v1.3s0-1.21,0-1.21l-.44,1.13c.08.03.26.08.44.08v-1.21l-.44,1.13.22-.58-.29.55.06.03.22-.58-.29.55.1-.18-.1.18h0s.1-.18.1-.18l-.1.18.24.2c.15.14.33.34.54.59,1.83,2.18,3.6,4.55,5.51,6.95,1.82,2.27,3.85,4.47,6.32,6.3,2.47,1.82,5.41,3.25,8.81,3.86.67.14.89.3,1.26.66.34.36.74,1.01,1.1,1.94,2.08,5.26,5.12,9.63,9.2,12.79,4.07,3.16,9.08,5.03,14.77,5.65,2.31.24,4.9,1.03,7.82,1.73,2.74.65,5.47,1.02,8.17,1.02,3.46,0,6.89-.62,10.09-2.05,3.2-1.43,6.14-3.66,8.64-6.69,1.63-1.97,3.26-3.22,4.97-4.02,1.71-.8,3.56-1.18,5.72-1.18.96,0,1.97.08,3.04.23h0c.91.13,1.79.2,2.67.2,2.86.02,5.62-.83,7.78-2.47,2.17-1.63,3.73-3.83,5.04-6.35,8.74-16.81,20.35-30.68,36.81-40.09,10.58-6.08,18.41-14.78,26.66-22.05,3.27-2.89,6.6-5.13,10.07-6.65,3.48-1.51,7.11-2.32,11.15-2.33,1.31,0,2.66.09,4.06.27.87.11,1.52.23,1.88.34l.29.1.08.04.23-.38-.33.28.1.09.23-.38-.33.28.27-.24-.32.17.05.07.27-.24-.32.17s.05.1.1.35c.05.25.1.64.12,1.16.59,16.83,1.62,33.59,2.37,50.31.82,18.17,1.03,36.52,2.49,54.89.04.52.06,1.03.06,1.51-.02,3.05-.74,5.16-2.03,7.16-1.29,1.99-3.28,3.86-5.84,5.79-1.52,1.15-3.27,2.23-5.14,3.4-6.68,4.2-12.03,9.34-15.7,15.58-3.68,6.23-5.62,13.49-5.76,21.68-.19,10.75-1.91,21.74-2.82,33.02-.04.46-.11.72-.12.76h0s.82.37.82.37l-.65-.62-.18.25.82.37-.65-.62.88.83-.62-1.04-.26.21.88.83-.62-1.04.37.62-.25-.68-.12.06.37.62-.25-.68.03.07-.02-.07h0s.03.07.03.07l-.02-.07s-.27.07-.73.07c-19.78.19-39.57.43-59.36.79l.07,3.75.03-3.75h-.18c-.74-.01-.94-.14-1.14-.27-.19-.14-.46-.42-.76-1.06-.91-1.98-2-3.7-3.29-5.14-1.93-2.17-4.33-3.66-6.87-4.5-2.54-.85-5.18-1.12-7.9-1.12-.98,0-1.98.04-2.99.1-27.8,1.71-55.67,2.76-83.57,3.94-1.82.07-3.6.49-5.18,1.34-1.58.85-2.85,2.07-3.89,3.43-3.94,5.15-8.08,10.22-12.19,15.38l2.93,2.33,1.55-3.41c-.53-.24-1.05-.48-1.58-.71l-1.54,3.42,3.73.32-3.73-.32ZM443.39,160.68v-3.75h-.15v3.75h3.75c0-6.3-.04-12.59-.04-18.87,0-5,.02-9.99.1-14.97v-.02s0-.28,0-.28c0-.97-.07-1.91-.32-2.89-.19-.73-.49-1.49-.98-2.21-.72-1.09-1.9-1.93-3.03-2.32-1.14-.41-2.21-.5-3.28-.51-.3,0-.61,0-.93.03h.02c-14.97.79-29.85,1.79-44.63,1.8-1.98,0-3.88.1-5.74.41-2.76.45-5.49,1.42-7.8,3.3-2.31,1.87-4.05,4.52-5.24,7.8-.61,1.67-1.6,3.3-2.88,4.92-1.28,1.61-2.83,3.19-4.48,4.75-1.15,1.1-2.25,2.11-3.24,2.78-.99.68-1.78.98-2.44,1.02-2.24.15-4.29.64-6.13,1.43-2.76,1.18-4.98,3.01-6.72,5.08-1.75,2.07-3.08,4.38-4.25,6.73-1.95,3.91-4.41,6.98-7.42,9.43-3.01,2.45-6.59,4.28-10.82,5.56-15.45,4.66-31.08,8.02-47.03,9.21-2.84.21-5.61.74-8.23,1.86-2.62,1.11-5.05,2.86-7.05,5.27-7.84,9.39-16.51,17.62-26.64,24.41-3.64,2.44-6.74,5.51-9.03,9.18-2.29,3.66-3.76,7.91-4.18,12.57-1.26,13.58-2.41,27.15-3.75,40.67-.04.42-.07.84-.07,1.27,0,.74.07,1.52.34,2.37.21.63.55,1.31,1.05,1.9.75.9,1.78,1.47,2.69,1.74.92.28,1.75.34,2.58.34h.34s.06,0,.06,0c.8-.02,1.61-.03,2.43-.03,2.69,0,5.47.1,8.33.1,2.79,0,5.66-.09,8.57-.5,1.13-.16,2.16-.23,3.1-.23,1.34,0,2.47.15,3.41.43,1.42.42,2.44,1.05,3.39,2.09.94,1.04,1.8,2.59,2.46,4.86.4,1.38.99,2.62,1.82,3.68.62.79,1.36,1.45,2.16,1.95,1.2.75,2.45,1.12,3.58,1.3,1.14.18,2.18.21,3.15.21.71,0,1.39-.01,2.03-.01,1.47,0,2.93-.29,4.2-1.04.94-.55,1.69-1.34,2.18-2.1.74-1.15,1.01-2.18,1.23-2.94.2-.77.35-1.31.45-1.52.8-1.87,1.37-3.59,2.02-5,1.08-2.38,2.1-4.3,3.08-5.77,1.49-2.23,2.79-3.42,4.29-4.19,1.5-.76,3.44-1.19,6.39-1.19,1.57,0,3.39.12,5.5.36,9.12,1.01,18.28,3.91,28.11,5.63,5.16.89,10.45,1.66,15.85,1.66,5.82,0,11.81-.92,17.69-3.6,13.34-6.08,26.29-13.08,38.13-22.21,3.99-3.07,7.24-6.81,9.73-11.2,5.95-10.51,10.07-21.61,14.07-32.55,1.1-3.01,1.91-5.23,2.6-6.66.51-1.08.94-1.68,1.23-1.97.23-.23.39-.34.7-.48.45-.21,1.34-.43,2.85-.54,1.51-.12,3.58-.14,6.26-.15,1.16,0,2.25-.1,3.36-.42.82-.24,1.67-.63,2.42-1.23.56-.44,1.05-1,1.42-1.58.55-.88.84-1.8,1-2.65.16-.86.2-1.68.2-2.51v-.35s0-.05,0-.05c-.08-4.88-.1-9.78-.1-14.68,0-6.2.04-12.42.04-18.65v-3.75h-3.75v3.75h-3.75c0,6.2-.04,12.42-.04,18.65,0,4.93.02,9.86.1,14.81l3.75-.06-3.75.02v.32c0,.65-.05,1.09-.09,1.23v.05s0,0,0,0h-.02s0,0,0,0h.02s-.02,0-.02,0l.89.37-.69-.66-.2.29.89.37-.69-.66.79.75-.54-.95-.25.2.79.75-.54-.95.26.46-.22-.49-.05.02.26.46-.22-.49s-.49.13-1.32.13c-3.2.02-5.66.02-7.85.27-1.63.19-3.17.51-4.65,1.24-1.1.53-2.1,1.3-2.91,2.2-1.22,1.36-2.03,2.89-2.81,4.66-.77,1.77-1.52,3.83-2.44,6.37-3.98,10.91-7.98,21.6-13.55,31.43-2.01,3.54-4.54,6.45-7.78,8.96-11.2,8.65-23.62,15.39-36.65,21.33-4.72,2.15-9.52,2.92-14.58,2.92-4.68,0-9.56-.68-14.57-1.55-9.16-1.57-18.46-4.55-28.55-5.7-2.3-.26-4.39-.41-6.34-.41-2.43,0-4.67.23-6.77.83-3.16.87-5.93,2.68-8.1,5.19-2.2,2.51-3.93,5.63-5.71,9.52-.86,1.91-1.45,3.67-2.09,5.16-.39.93-.57,1.71-.73,2.28-.11.43-.21.74-.27.9l-.05.12h0s.68.46.68.46l-.35-.73-.33.28.68.46-.35-.73.15.32-.11-.34-.04.02.15.32-.11-.34s-.13.04-.48.04c-.74,0-1.42.01-2.03.01-.72,0-1.32-.02-1.77-.09-.34-.05-.58-.11-.74-.17-.24-.1-.29-.14-.42-.27-.12-.14-.35-.46-.57-1.21-.6-2.04-1.38-3.88-2.39-5.51-1.51-2.44-3.58-4.37-6.04-5.57-2.45-1.21-5.18-1.71-8.03-1.7-1.34,0-2.71.11-4.13.3-2.4.33-4.92.43-7.54.42-2.68,0-5.47-.1-8.33-.1-.88,0-1.75.01-2.64.04l.11,3.75-.05-3.75h-.24s-.35-.01-.35-.01h-.06s0,0,0,0l-.29,1.27.68-1.1c-.22-.14-.37-.17-.39-.18l-.29,1.27.68-1.1-1.06,1.7,1.86-.76c-.09-.27-.46-.75-.8-.94l-1.06,1.7,1.86-.76-.94.38,1.01-.16-.07-.23-.94.38,1.01-.16v-.17c0-.12,0-.3.02-.53,1.35-13.59,2.5-27.17,3.75-40.72.33-3.54,1.4-6.6,3.08-9.29,1.68-2.68,3.98-5,6.85-6.93,10.81-7.25,20.02-16.01,28.22-25.83,1.29-1.53,2.63-2.49,4.25-3.19,1.61-.69,3.54-1.1,5.84-1.27,16.63-1.25,32.8-4.73,48.63-9.51,5.01-1.51,9.53-3.78,13.38-6.92,3.86-3.13,7.03-7.12,9.41-11.91,1.36-2.75,2.8-4.99,4.46-6.48.83-.75,1.71-1.33,2.74-1.77,1.03-.44,2.22-.74,3.71-.84,2.47-.17,4.52-1.19,6.16-2.32,1.65-1.14,2.98-2.42,4.15-3.52,1.76-1.67,3.57-3.48,5.2-5.53,1.63-2.05,3.08-4.36,4.05-7.01.57-1.57,1.22-2.69,1.88-3.5,1.01-1.21,2.04-1.86,3.6-2.36,1.56-.49,3.66-.71,6.25-.71,15.11-.01,30.12-1.03,45.02-1.82h.02c.17-.01.33-.02.48-.02.48,0,.72.06.72.06l.28-.93-.6.74.32.19.28-.93-.6.74.87-1.08-1.17.75.3.33.87-1.08-1.17.75.67-.43-.75.28.08.15.67-.43-.75.28h0s.09.41.09,1.04v.2s0-.02,0-.02c-.08,5.04-.1,10.07-.1,15.09,0,6.3.04,12.59.04,18.87v3.75h3.9v-3.75h-3.75,3.75ZM262.06,190.23l2.08,3.12c2.67-1.79,4.69-3.71,6.47-5,.89-.65,1.7-1.16,2.49-1.5.78-.34,1.53-.54,2.41-.6,7.97-.49,15.87-1.55,23.67-3.07,10.8-2.1,21.69-4.4,32.38-8.26,4.42-1.62,8.45-4.77,11.59-8.6,1.56-1.92,2.89-4.03,3.85-6.27.96-2.24,1.57-4.61,1.57-7.07,0-.45-.02-.89-.06-1.33h0c-1.26-13.18-1.47-26.59-2.2-40.11-.42-7.69-1.05-15.29-1.4-22.82-.04-.82-.14-1.61-.36-2.42-.17-.6-.42-1.22-.79-1.81-.55-.9-1.45-1.71-2.43-2.15-.98-.45-1.95-.58-2.79-.58-.97,0-1.84.15-2.71.36h0c-2.7.63-5.3,1.64-7.51,3.48-2.22,1.82-3.85,4.46-4.66,7.6-2.09,7.89-4.58,15.53-8.13,22.7-.91,1.84-1.92,3-3,3.74-1.1.74-2.36,1.16-4.23,1.2-2.45.04-4.9.06-7.36.06-3.81,0-7.61-.05-11.42-.14-3.97-.1-6.97-1.09-9.4-2.81-2.43-1.73-4.39-4.3-5.89-7.99-1.26-3.13-2.54-6.12-3.51-9.06-1.84-5.57-3.46-11.33-5.39-17.12-.29-.84-.65-2.14-1.44-3.56-.41-.71-.95-1.49-1.84-2.2-.44-.35-.98-.67-1.6-.9-.61-.23-1.3-.35-1.97-.35-.5,0-1.02.06-1.53.2l.94,3.63-.9-3.64c-.68.17-1.38.48-1.99.95-.93.71-1.5,1.71-1.76,2.53-.27.84-.32,1.56-.32,2.17,0,.9.12,1.63.2,2.25.09.6.16,1.09.16,1.24h0c.91,21.56,1.89,43.12,2.92,64.67.62,12.94,1.37,25.86,2.1,39.66l.35,6.57,5.47-3.65-2.08-3.12,3.74-.2c-.74-13.82-1.48-26.72-2.1-39.62-1.03-21.54-2.01-43.09-2.92-64.63h0c-.04-.82-.15-1.46-.23-2.01-.08-.54-.13-.99-.12-1.16v-.06s-.86-.07-.86-.07l.82.24.04-.17-.86-.07.82.24-2.06-.59,1.53,1.49c.34-.34.49-.72.54-.89l-2.06-.59,1.53,1.49-1.57-1.53.53,2.15c.25-.05.71-.27,1.04-.62l-1.57-1.53.53,2.15h.04s-.36-1.39-.36-1.39v1.42s.36-.04.36-.04l-.36-1.38v1.42s0-1.81,0-1.81l-.63,1.7c.2.08.44.12.63.11v-1.81l-.63,1.7.47-1.27-1.04.92s.21.22.57.36l.47-1.27-1.04.92.09-.08-.09.07h0s.09-.07.09-.07l-.09.07s.21.33.38.77c.18.44.36,1,.56,1.6,1.86,5.55,3.47,11.31,5.38,17.09,1.11,3.35,2.45,6.48,3.67,9.51,1.89,4.71,4.71,8.62,8.5,11.31,3.78,2.7,8.43,4.09,13.57,4.2,3.86.09,7.73.14,11.6.14,2.49,0,4.99-.02,7.48-.06,3.06-.04,5.95-.87,8.32-2.5,2.39-1.62,4.18-3.94,5.5-6.62,3.87-7.82,6.5-15.95,8.66-24.11.53-1.92,1.24-2.93,2.21-3.75.98-.82,2.4-1.47,4.43-1.94h0c.52-.13.89-.16.99-.16h.02s.09-1.2.09-1.2l-.53,1.06c.26.13.44.14.44.14l.09-1.2-.53,1.06.83-1.65-1.37,1.24c.14.16.35.32.54.41l.83-1.65-1.37,1.24,1.1-1-1.32.7.22.3,1.1-1-1.32.7.55-.29-.59.21.04.09.55-.29-.59.21s.07.25.09.75c.35,7.71.99,15.33,1.4,22.88.72,13.33.93,26.85,2.23,40.41h0c.02.2.03.41.03.63,0,1.19-.31,2.61-.96,4.11-.96,2.25-2.66,4.62-4.69,6.57-2.02,1.96-4.37,3.48-6.42,4.21-10.04,3.63-20.55,5.87-31.27,7.95-7.51,1.46-15.09,2.48-22.7,2.95-1.82.11-3.5.57-4.97,1.22-2.21.98-3.96,2.32-5.56,3.6-1.59,1.29-3.04,2.53-4.54,3.53l2.08,3.12,3.74-.2-3.74.2ZM147.63,151.51l3.03,2.21c.5-.68.84-1.12,1.14-1.52.3-.4.63-.83.94-1.42,9.68-18.29,22.37-33.29,40.3-43.52,3.25-1.86,6.75-4.03,9.69-7.31.13-.16.5-.49,1.01-1.11.25-.32.54-.72.8-1.28.25-.55.46-1.29.46-2.09,0-.81-.22-1.63-.55-2.28-.33-.66-.75-1.19-1.2-1.65-1.83-1.86-3.71-3.96-6.21-5.73-1.25-.88-2.66-1.67-4.26-2.23-1.6-.56-3.38-.87-5.28-.87-.78,0-1.58.05-2.41.16h.01c-.4.05-.79.07-1.17.07-1.85,0-3.43-.55-5.02-1.63-1.58-1.08-3.11-2.76-4.46-4.91-3.53-5.61-5.63-12.14-8.19-18.93-1.06-2.8-2.46-5.41-4.49-7.6-2.02-2.2-4.68-3.9-7.85-4.9-1.24-.4-1.89-.92-2.29-1.44-.39-.53-.63-1.15-.64-2.21,0-.34.03-.71.1-1.11h0c.21-1.28.31-2.52.31-3.74.01-3.82-1.07-7.31-2.92-10.25-1.85-2.95-4.38-5.36-7.28-7.44-.77-.55-1.65-1.15-2.73-1.67-1.07-.51-2.38-.96-3.92-.96-1.28-.01-2.7.36-3.92,1.11h0c-1.08.63-2.04,1.61-2.59,2.73-.56,1.12-.72,2.24-.72,3.16,0,1.06.18,1.91.32,2.61.15.69.27,1.24.31,1.56.76,5.83,2.81,11,5.45,15.66,2.64,4.66,5.85,8.85,9.05,12.87,1.13,1.42,1.84,2.74,2.31,4.17.46,1.43.69,3,.69,4.9v.28c0,12.45-1.19,25.1-1.19,38.03,0,1.87.03,3.74.08,5.61.12,3.85.18,7.7.18,11.55,0,4.37-.08,8.75-.26,13.11-.14,3.66-.76,7.68-.77,12.4,0,1.94.11,3.99.42,6.16l1.29,9.16,5.45-7.47-3.03-2.21,3.71-.53c-.25-1.77-.34-3.46-.34-5.11,0-4.01.58-7.86.77-12.1.18-4.47.27-8.94.27-13.41,0-3.93-.06-7.86-.19-11.78-.06-1.79-.08-3.58-.08-5.38,0-12.45,1.19-25.1,1.19-38.03v-.28s0,0,0,0c0-2.49-.31-4.9-1.06-7.21-.75-2.31-1.95-4.5-3.58-6.53-3.14-3.93-6.09-7.81-8.38-11.87-2.29-4.06-3.93-8.27-4.54-12.95-.12-.87-.29-1.57-.41-2.12-.12-.55-.17-.95-.16-1.07v-.04s-.5-.05-.5-.05l.48.15.02-.1-.51-.05.48.15-1.03-.31.84.67.19-.36-1.03-.31.84.67-.62-.49.52.6.1-.11-.62-.49.52.6h0s0,0,0,0h0s0-.01,0-.01h0s0,0,0,0l.04-.02h0s-.03-.11-.03-.11l.02.11h.02s-.03-.11-.03-.11l.02.11h0s0,0,0,0h0s0-.01,0-.01h0s.25.03.68.24c.42.2.99.56,1.6,1,2.36,1.69,4.14,3.46,5.29,5.32,1.16,1.87,1.77,3.81,1.78,6.27,0,.78-.07,1.62-.21,2.52h0c-.13.78-.2,1.56-.2,2.32-.01,2.41.69,4.81,2.16,6.74,1.46,1.93,3.58,3.29,5.98,4.05,2.07.67,3.46,1.6,4.64,2.86,1.17,1.26,2.14,2.95,2.97,5.15,2.47,6.52,4.67,13.59,8.85,20.27,1.76,2.8,3.91,5.27,6.56,7.1,2.63,1.83,5.83,2.96,9.27,2.95.69,0,1.4-.04,2.11-.13h.01c.52-.07,1-.1,1.46-.1,1.1,0,1.99.17,2.81.46,1.23.43,2.38,1.16,3.62,2.22,1.23,1.05,2.51,2.41,3.96,3.9h0s1.04-.89,1.04-.89l-1.25.54c.1.23.2.34.21.35l1.04-.9-1.25.54,2.22-.97h-2.41c0,.37.09.74.19.97l2.22-.97h-2.41s2.44,0,2.44,0l-2.23-1.01c-.1.21-.22.59-.21,1.01h2.44l-2.23-1.01,1.43.65-1.27-.93-.16.28,1.43.65-1.27-.93.23.17-.22-.18h0s.23.18.23.18l-.22-.18s-.3.31-.73.79c-2.01,2.26-4.75,4.06-7.81,5.79-19.39,11.05-33.09,27.35-43.21,46.53l.09.05-.09-.05h0s.09.05.09.05l-.09-.05-.07.11c-.16.24-.67.87-1.45,1.94l3.03,2.21,3.71-.53-3.71.53ZM349.29,149.33l2.16,3.06c1.72-1.21,3.32-1.99,4.97-2.59,1.65-.59,3.35-.98,5.22-1.33,1.08-.2,2.13-.5,3.15-.98,1.52-.7,2.99-1.91,3.9-3.53.92-1.61,1.26-3.43,1.26-5.31,0-.34-.01-.67-.03-1h0c-1.42-23.49-2.44-47.03-3.65-70.58-.88-17.08-1.79-34.15-2.76-51.23-.1-1.71-.46-3.37-1.24-4.88-.58-1.13-1.4-2.14-2.36-2.95-1.45-1.21-3.16-1.95-4.98-2.45-1.83-.49-3.82-.75-6.06-.9-.45-.03-.9-.05-1.33-.05-1.43,0-2.79.17-4.11.67-.98.37-1.92.95-2.67,1.7-1.14,1.12-1.8,2.5-2.19,3.8-.39,1.32-.56,2.63-.68,4.03-1.54,18.5-3.24,36.96-5.48,55.33-.12.95-.18,1.87-.18,2.78,0,1.18.12,2.35.45,3.52.25.87.64,1.73,1.18,2.52.81,1.19,1.96,2.14,3.22,2.77,1.26.64,2.62,1.01,4.09,1.25.51.08.77.19.85.23l.03.02.19-.26-.26.19.07.07.19-.26-.26.19.1-.07-.11.06h0s.1-.06.1-.06l-.11.06s.06.11.12.38c.06.27.11.69.12,1.24.46,13.83,1.27,27.61,2,41.35.4,7.59.88,15.16,1.36,23.44l.39,6.73,5.51-3.88-2.16-3.06,3.74-.22c-.49-8.31-.96-15.86-1.36-23.4-.72-13.77-1.53-27.5-1.99-41.2-.03-.98-.13-1.94-.37-2.92-.18-.73-.45-1.48-.87-2.19-.61-1.08-1.58-2.05-2.67-2.67-1.1-.63-2.26-.96-3.45-1.15-.82-.13-1.39-.31-1.73-.46-.26-.12-.38-.21-.46-.28-.1-.1-.14-.14-.24-.4-.09-.25-.19-.75-.18-1.52,0-.51.04-1.14.13-1.87,2.25-18.52,3.96-37.08,5.51-55.62.08-1.01.2-1.81.34-2.33.1-.39.21-.62.26-.71l.04-.07-.02-.02.02.03h0s-.02-.03-.02-.03l.02.03s.05-.04.28-.1c.23-.06.65-.12,1.25-.12.24,0,.52,0,.83.03,1.73.11,3.14.31,4.22.56.81.19,1.43.42,1.86.64.65.34.88.59,1.09.93.21.34.42.92.48,2,.97,17.06,1.88,34.12,2.76,51.18,1.21,23.52,2.23,47.07,3.66,70.64h0c.01.2.02.39.02.56,0,.66-.08,1.09-.16,1.33-.14.37-.17.37-.37.54-.2.15-.73.4-1.65.57-2.04.38-4.17.85-6.37,1.64-2.2.79-4.47,1.91-6.75,3.51l2.16,3.06,3.74-.22-3.74.22ZM142.29,107.88v3.75c.3,0,.6,0,.89,0h3.75s0-3.75,0-3.75c0-3.11-.05-6.18-.05-9.22,0-2.05.02-4.08.09-6.08h0s0-.47,0-.47c0-1.1-.13-2.18-.5-3.26-.28-.8-.72-1.6-1.32-2.27-.89-1.03-2.08-1.69-3.2-2.03-1.13-.35-2.22-.44-3.32-.45h-.36s.14,3.75.14,3.75l-.06-3.75c-1.89.03-3.65.24-5.33.71-2.5.69-4.8,2.1-6.45,4.13-1.66,2.03-2.68,4.51-3.34,7.33-1.34,5.78-2.33,11.48-3.7,16.91-.35,1.42-.95,2.57-1.61,3.28-.33.36-.68.62-1.06.82-.38.2-.81.34-1.38.4-3.22.32-6.03,1.55-8.18,3.32-2.16,1.76-3.69,3.95-4.97,6.19-3.9,6.87-8.02,13.74-11.77,20.91-.25.49-.75,1.2-1.37,1.97-.94,1.17-2.14,2.46-3.24,3.87-.55.71-1.08,1.46-1.53,2.34-.44.88-.85,1.94-.86,3.29-.01,1,.29,2.14.89,3.07.5.79,1.13,1.43,1.78,1.92,1.15.87,2.35,1.36,3.52,1.74,1.77.55,3.55.84,5.23,1.12,1.68.27,3.25.53,4.39.86,3.06.87,6.11,1.37,9.11,1.37,3.46,0,6.87-.68,10.04-2.19,3.17-1.5,6.06-3.82,8.57-6.89,1.3-1.59,2.57-2.72,3.84-3.44,1.28-.71,2.54-1.07,4.15-1.08.56,0,1.17.05,1.82.16h0c.63.1,1.26.16,1.88.16,1.08,0,2.2-.18,3.27-.68.8-.37,1.53-.93,2.1-1.58.86-.98,1.32-2.11,1.58-3.15.26-1.06.33-2.09.34-3.14v-.22c-.07-5.98-.09-11.98-.09-17.97,0-7.24.03-14.49.03-21.75h-3.75v3.75-3.75h-3.75c0,7.24-.03,14.49-.03,21.75,0,6.01.02,12.03.09,18.06l3.75-.04-3.75-.03v.21c0,.58-.05,1.02-.1,1.27l-.05.2-.02.04.86.42-.46-.8c-.21.11-.4.37-.4.39l.86.42-.46-.8.34.59-.15-.67-.18.08.34.59-.15-.67h-.2c-.15.01-.38,0-.67-.05h0c-1.03-.17-2.05-.25-3.04-.25-2.86,0-5.54.74-7.85,2.05-2.31,1.31-4.25,3.13-5.96,5.22-1.91,2.33-3.89,3.87-5.98,4.86-2.09.99-4.32,1.46-6.82,1.46-2.16,0-4.53-.36-7.05-1.08-1.36-.38-2.72-.63-4.02-.85-1.95-.32-3.81-.61-5.09-.98-.64-.18-1.12-.38-1.37-.53l-.21-.14h0s-.34.29-.34.29l.38-.24-.04-.05-.34.29.38-.24-1.5.95h1.78c.01-.25-.1-.7-.28-.95l-1.5.95h1.78s-1.2,0-1.2,0l1.18.24.02-.24h-1.2l1.18.24-.49-.1.48.14v-.04s-.48-.1-.48-.1l.48.14.02-.05c.06-.16.33-.62.76-1.17.63-.84,1.58-1.9,2.57-3.06.98-1.17,2.02-2.44,2.84-3.99,3.62-6.92,7.69-13.71,11.65-20.69,1.02-1.81,2.06-3.17,3.18-4.07,1.13-.9,2.31-1.46,4.23-1.68,1.45-.15,2.82-.56,4.03-1.19,1.83-.94,3.27-2.34,4.31-3.9,1.05-1.56,1.75-3.28,2.19-5.03,1.46-5.8,2.45-11.54,3.73-17.05.32-1.4.72-2.47,1.16-3.26.67-1.18,1.29-1.76,2.25-2.26.96-.48,2.41-.83,4.53-.86h.06s.02,0,.02,0h.08c.54,0,.9.05,1.05.09l.08.03.24-.55-.4.44.16.11.24-.55-.4.44.61-.68-.77.49.16.18.61-.68-.77.49.41-.26-.45.18.04.08.41-.26-.45.18v.03c.03.08.08.32.08.74v.23s0,0,0,0c-.07,2.13-.09,4.24-.09,6.33,0,3.11.05,6.18.05,9.22h3.75v-3.75c-.3,0-.6,0-.9,0h-3.75v3.75h3.75ZM331.67,81.53l.18-3.74c-7.41-.35-14.81-.74-22.26-.74-4.29,0-8.6.13-12.93.48-2.24.18-4.29.75-6.12,1.55-2.75,1.2-5.01,2.87-7.04,4.5-2.02,1.64-3.83,3.26-5.59,4.54-2.96,2.16-5.15,3.74-6.89,5.49-.87.88-1.64,1.84-2.21,2.99-.57,1.14-.88,2.48-.87,3.76.01,2.01.6,3.75,1.39,5.65.8,1.9,1.88,3.99,3.21,6.61,1.35,2.66,3.08,5.04,5.4,6.87,2.31,1.84,5.18,3.05,8.39,3.47,3.8.51,7.55.67,11.24.67,3.98,0,7.89-.18,11.73-.33,1.11-.04,2.2-.28,3.17-.69,1.47-.62,2.64-1.6,3.52-2.64.88-1.04,1.52-2.16,2.05-3.25,2.96-6.19,5.4-12.62,7.15-19.28.78-2.97,1.61-5.57,2.83-7.63,1.23-2.06,2.73-3.62,5.31-4.91l13.12-6.42-14.59-.69-.18,3.74-1.65-3.37c-3.92,1.89-6.68,4.75-8.48,7.84-1.82,3.1-2.79,6.37-3.62,9.52-1.62,6.16-3.88,12.14-6.66,17.95-.45.96-.93,1.62-1.28,1.92-.17.16-.31.23-.44.29-.13.05-.28.1-.54.11-3.88.15-7.7.32-11.45.32-3.48,0-6.89-.15-10.24-.6-2.03-.28-3.46-.93-4.73-1.92-1.26-1-2.37-2.43-3.37-4.39-1.33-2.63-2.36-4.65-2.99-6.14-.64-1.49-.82-2.4-.8-2.73,0-.22.02-.25.1-.45.12-.27.62-.94,1.76-1.91,1.13-.97,2.82-2.22,5.02-3.82,2.91-2.13,5.32-4.45,7.69-6.15,1.18-.86,2.34-1.56,3.52-2.07,1.18-.51,2.38-.84,3.73-.95,4.08-.33,8.19-.45,12.33-.45,7.19,0,14.47.38,21.91.73l.18-3.74-1.65-3.37,1.65,3.37ZM126.59,21.9l-.49-3.72c-.55.07-1.1.14-1.66.22l-2.98.39-.26,3c-2.68,30.45-5.36,60.9-8.04,91.35l-.32,3.63,3.63.42c.47.05.93.11,1.4.16l2.74.31,1.12-2.52c1.6-3.61,2.33-7.23,2.93-10.65.59-3.42,1.04-6.65,1.87-9.56.38-1.35.84-2.45,1.34-3.33.77-1.32,1.59-2.15,2.69-2.81,1.1-.65,2.58-1.13,4.64-1.34,1.08-.11,2.1-.19,3.03-.19.43,0,.84.02,1.22.05h0c.39.04.77.06,1.15.06.9,0,1.84-.11,2.79-.45.71-.25,1.43-.65,2.04-1.2.93-.81,1.54-1.89,1.86-2.91.32-1.03.42-2.02.42-3.03v-.07h0s-.99-.01-.99-.01l.99.02h0s-.99-.02-.99-.02l.99.02v-.07s0-.05,0-.05c-.02-1.17-.02-2.34-.02-3.52,0-4.41.09-8.84.18-13.3v-.25c0-1.36-.24-2.69-.7-3.91-.46-1.22-1.12-2.31-1.88-3.27-4-5.08-7.79-10.05-10.53-15.27-2.74-5.23-4.44-10.64-4.45-16.91,0-.38,0-.76.02-1.14l.16-4.43-4.4.58.49,3.72-3.75-.14c-.02.48-.02.95-.02,1.41,0,7.67,2.16,14.41,5.3,20.39,3.15,5.99,7.24,11.3,11.28,16.43.38.48.61.89.75,1.28.14.39.22.76.22,1.27v.11s0-.02,0-.02c-.09,4.46-.18,8.94-.18,13.45,0,1.2,0,2.41.02,3.61l3.75-.05-3.75-.08v.21c0,.43-.05.68-.06.74h0s.81.29.81.29l-.67-.52-.14.24.81.28-.67-.52,1.02.79-.47-1.22c-.12.04-.41.23-.55.43l1.02.79-.47-1.22.19.49-.13-.51-.06.02.19.49-.13-.51h0s-.29.02-.29.02c-.12,0-.27,0-.46-.02h0c-.67-.06-1.31-.09-1.93-.09-1.34,0-2.61.11-3.78.23-1.9.19-3.68.57-5.33,1.21-2.48.94-4.65,2.49-6.28,4.51-1.64,2.03-2.75,4.45-3.53,7.17-1.01,3.59-1.48,7.09-2.05,10.33-.56,3.25-1.21,6.23-2.39,8.89l3.43,1.52.43-3.72c-.47-.05-.93-.11-1.4-.16l-.43,3.72,3.73.33c2.68-30.45,5.36-60.9,8.04-91.35l-3.73-.33.49,3.72c.55-.07,1.1-.14,1.66-.22l-.49-3.72-3.75-.14,3.75.14ZM322.67,75.98l.95,3.63-.06-.22.05.22h0s-.06-.22-.06-.22l.05.22s.1-.02.3-.02c.3,0,.78.04,1.38.1.6.06,1.31.13,2.14.13.75,0,1.61-.06,2.56-.34.71-.2,1.46-.54,2.16-1.05,1.05-.76,1.89-1.87,2.4-3.08.52-1.22.79-2.54.91-4.03,1.42-17.93,3.41-35.87,5.15-53.89.19-2,.35-3.57.35-5.04-.01-1.13-.07-2.25-.59-3.53-.38-.95-1.12-1.93-2.02-2.55-.67-.47-1.37-.76-2.02-.95-.98-.28-1.9-.38-2.88-.44-.98-.06-2.03-.06-3.24-.07-.51,0-1.05,0-1.62,0h0c-1.02,0-2.01.08-3.03.33-.76.19-1.55.51-2.28.98-1.11.71-1.98,1.8-2.5,2.9-.53,1.1-.78,2.21-.96,3.38-2.73,18.15-5.76,36.29-8.63,54.49-.36,2.31-.65,4.02-.66,5.75,0,.58.04,1.17.17,1.81.11.56.3,1.15.61,1.74.53,1.04,1.51,1.93,2.45,2.4.71.37,1.4.57,2.06.71,1,.2,1.97.27,3.07.32,1.09.04,2.31.05,3.72.07h.49s.49-.12.49-.12l-.95-3.63.03-3.75c-1.63-.01-2.94-.03-3.89-.08-.71-.04-1.22-.1-1.46-.16l-.16-.04-.02.07.03-.06h0s-.02.06-.02.06l.03-.06-.49,1.19.83-.96-.34-.22-.49,1.19.83-.96-1.1,1.27,1.62-.53c-.04-.15-.25-.54-.52-.75l-1.1,1.27,1.62-.53-.7.23.72-.15-.02-.07-.7.23.72-.15h0s-.02-.14-.02-.32c-.01-.7.21-2.31.57-4.58,2.86-18.15,5.9-36.31,8.64-54.54.09-.64.22-1.05.29-1.2l.04-.09-.45-.28.33.4.12-.12-.45-.28.33.4-.37-.44.25.52.12-.08-.37-.44.25.52s.46-.13,1.28-.13h0c.56,0,1.09,0,1.58,0,1.38,0,2.45.02,3.15.08.53.04.83.11.87.13h0s.39-1.09.39-1.09l-.74.87c.18.16.34.22.34.22l.39-1.09-.74.87.94-1.11-1.43.41s.19.46.49.69l.94-1.11-1.43.41.1-.03-.1.02h0s.1-.02.1-.02l-.1.02s.05.29.05.76c0,.86-.13,2.34-.32,4.32-1.73,17.95-3.73,35.93-5.16,54.01-.06.81-.2,1.33-.29,1.57l-.08.17v.02s.18.13.18.13l-.17-.16-.02.03.19.13-.17-.16.45.4-.19-.58-.26.18.45.4-.19-.58h-.02s-.2.04-.45.04c-.33,0-.82-.04-1.42-.1-.59-.06-1.29-.13-2.1-.13-.64,0-1.37.05-2.19.26l.95,3.63.03-3.75-.03,3.75ZM462.78,389.64l-450.55.28,1.53-10.57h448.62l.39,10.29Z"/>
    <path class="cls-11" d="M341.73,79.29c3.14.5,4.09,2.11,4.2,5.35.46,13.77,1.27,27.52,1.99,41.27.4,7.56.88,15.12,1.36,23.42,4-2.82,7.75-3.8,11.65-4.53,3.61-.67,5.49-2.53,5.22-6.92-1.42-23.52-2.45-47.07-3.65-70.6-.88-17.07-1.79-34.14-2.76-51.21-.3-5.34-3.72-7.15-11.15-7.65-5.42-.36-6.58,1.86-6.99,6.71-1.54,18.52-3.25,37.03-5.49,55.48-.64,5.25.55,7.88,5.62,8.68ZM350.14,35.42s3.01,3.05,4.28,5.49c-2.67-.37-7.09,0-7.09,0l2.8-5.49ZM350.39,53.97c2.11,1.67,3.02,3.83,4.25,6.58h-7.29c-.03-2.71,1.74-4.34,3.04-6.58Z"/>
    <path class="cls-9" d="M264.89,336.96c1.81-.19,3.65-.03,5.48-.04,2.66,0,5.32-.12,7.97.02-2.65-.15-5.31-.03-7.97-.03-1.83.01-3.67-.14-5.48.04Z"/>
    <path class="cls-9" d="M161.77,328.38c-1.82.09-3.65.02-5.48.02-2.49,0-4.99.15-7.47-.03,2.48.18,4.98.04,7.47.04,1.83-.01,3.66.07,5.48-.03Z"/>
    <path class="cls-9" d="M104.75,328.36c-1.8.18-3.64.03-5.46.04-2.65,0-5.3.11-7.94-.02,2.64.13,5.29.03,7.94.03,1.82-.01,3.65.14,5.46-.04Z"/>
    <path class="cls-9" d="M207.81,336.95c1.81-.16,3.65-.03,5.48-.03,2.49,0,4.99-.13,7.47.03-2.48-.16-4.98-.03-7.47-.03-1.83,0-3.66-.13-5.48.04Z"/>
  </g>
  <g>
    <circle class="cls-4" cx="367.96" cy="399.39" r="60.03"/>
    <path class="cls-7" d="M367.96,465.42c-36.41,0-66.03-29.62-66.03-66.03s29.62-66.03,66.03-66.03,66.03,29.62,66.03,66.03-29.62,66.03-66.03,66.03ZM367.96,345.36c-29.79,0-54.03,24.23-54.03,54.03s24.24,54.03,54.03,54.03,54.03-24.23,54.03-54.03-24.24-54.03-54.03-54.03Z"/>
  </g>
</svg>