<?xml version="1.0" encoding="UTF-8"?>
<svg id="Layer_1" data-name="Layer 1" xmlns="http://www.w3.org/2000/svg" viewBox="0 0 453.24 448.84">
  <defs>
    <style>
      .cls-1 {
        fill: #65c3a5;
      }

      .cls-2 {
        fill: #e9f3e8;
      }

      .cls-3 {
        fill: #033726;
      }

      .cls-4 {
        fill: #72492d;
        isolation: isolate;
        opacity: .4;
      }

      .cls-5 {
        fill: #ffc941;
      }
    </style>
  </defs>
  <path class="cls-2" d="M84.94,6.53h262.17v398.56H84.94V6.53Z"/>
  <path class="cls-5" d="M80.86,37.94L8.17,55.54v19.6l72.69,307.09V37.94Z"/>
  <path class="cls-3" d="M222.22,405.09h-127.47c-3.61,0-6.53-2.93-6.53-6.53V19.6c0-3.61,2.93-6.53,6.53-6.53h241.75c3.61,0,6.53,2.93,6.53,6.53v121.41c4.54,1.52,8.91,3.48,13.07,5.85V19.6c-.01-10.82-8.78-19.59-19.6-19.6H94.74c-10.82.01-19.59,8.78-19.6,19.6v12.1l-59.95,13.4C4.74,47.41-1.85,57.76.46,68.2c.02.09.04.17.06.26l73.29,313.74c.31,1.3.76,2.56,1.33,3.77v12.59c.01,10.82,8.78,19.59,19.6,19.6h137.5c-1.64-2.81-2.73-5.91-3.23-9.12-2.42-1.04-4.7-2.36-6.8-3.94ZM13.25,65.49c-.81-3.39,1.27-6.79,4.66-7.61.04-.01.09-.02.13-.03l57.1-12.76v285.36L13.25,65.49Z"/>
  <path class="cls-3" d="M303.47,96.12h-92.03c-1.88,0-3.41-2.49-3.41-5.57s1.53-5.57,3.41-5.57h92.03c1.88,0,3.41,2.49,3.41,5.57s-1.52,5.57-3.41,5.57Z"/>
  <path class="cls-3" d="M264.1,118.41h-54.07c-1.11,0-2-2.49-2-5.57s.9-5.57,2-5.57h54.07c1.11,0,2,2.49,2,5.57s-.9,5.57-2,5.57Z"/>
  <g>
    <rect class="cls-5" x="124.14" y="67.96" width="64.53" height="64.53" rx="1.39" ry="1.39"/>
    <path class="cls-3" d="M179.7,138.94h-46.58c-8.51,0-15.43-6.92-15.43-15.43v-46.58c0-8.51,6.92-15.43,15.43-15.43h46.58c8.51,0,15.43,6.92,15.43,15.43v46.58c0,8.51-6.92,15.43-15.43,15.43ZM133.12,74.41c-1.39,0-2.52,1.13-2.52,2.52v46.58c0,1.39,1.13,2.52,2.52,2.52h46.58c1.39,0,2.52-1.13,2.52-2.52v-46.58c0-1.39-1.13-2.52-2.52-2.52h-46.58Z"/>
  </g>
  <path class="cls-3" d="M303.47,186.46h-92.03c-1.88,0-3.41-2.49-3.41-5.57s1.53-5.57,3.41-5.57h92.03c1.88,0,3.41,2.49,3.41,5.57s-1.52,5.57-3.41,5.57Z"/>
  <path class="cls-3" d="M264.1,208.75h-54.07c-1.11,0-2-2.49-2-5.57s.9-5.57,2-5.57h54.07c1.11,0,2,2.49,2,5.57s-.9,5.57-2,5.57Z"/>
  <path class="cls-3" d="M179.7,229.28h-46.58c-8.51,0-15.43-6.92-15.43-15.43v-46.58c0-8.51,6.92-15.43,15.43-15.43h46.58c8.51,0,15.43,6.92,15.43,15.43v46.58c0,8.51-6.92,15.43-15.43,15.43ZM133.12,164.75c-1.39,0-2.52,1.13-2.52,2.52v46.58c0,1.39,1.13,2.52,2.52,2.52h46.58c1.39,0,2.52-1.13,2.52-2.52v-46.58c0-1.39-1.13-2.52-2.52-2.52h-46.58Z"/>
  <path class="cls-3" d="M303.47,276.8h-92.03c-1.88,0-3.41-2.49-3.41-5.57s1.53-5.57,3.41-5.57h92.03c1.88,0,3.41,2.49,3.41,5.57s-1.52,5.57-3.41,5.57Z"/>
  <path class="cls-3" d="M264.1,299.09h-54.07c-1.11,0-2-2.49-2-5.57s.9-5.57,2-5.57h54.07c1.11,0,2,2.49,2,5.57s-.9,5.57-2,5.57Z"/>
  <path class="cls-3" d="M179.7,319.62h-46.58c-8.51,0-15.43-6.92-15.43-15.43v-46.58c0-8.51,6.92-15.43,15.43-15.43h46.58c8.51,0,15.43,6.92,15.43,15.43v46.58c0,8.51-6.92,15.43-15.43,15.43ZM133.12,255.09c-1.39,0-2.52,1.13-2.52,2.52v46.58c0,1.39,1.13,2.52,2.52,2.52h46.58c1.39,0,2.52-1.13,2.52-2.52v-46.58c0-1.39-1.13-2.52-2.52-2.52h-46.58Z"/>
  <g>
    <path class="cls-3" d="M430.13,341h-42.37v-7.24c0-13.21-7.16-23.15-16.68-23.15h-1.66c2.45-18.83,8.27-37.07,17.18-53.84l.54-1.12c28.26-27.56,28.83-72.8,1.27-101.06-27.56-28.26-72.8-28.83-101.06-1.27-13.82,13.47-21.6,31.96-21.57,51.26.02,20.05,8.44,39.18,23.22,52.73l.54,1.08c8.48,16.32,14.03,33.99,16.41,52.23h-1.66c-9.51,0-16.68,9.94-16.68,23.15v7.24h-42.37c-12.77.03-23.1,10.38-23.11,23.15v38.44c0,12.77,10.34,23.12,23.11,23.15v7.7c0,8.51,6.89,15.4,15.4,15.41h154.07c8.51,0,15.4-6.89,15.41-15.4h0v-7.71c12.77-.03,23.1-10.38,23.11-23.15v-38.44c0-12.77-10.34-23.12-23.11-23.15ZM414.72,433.44h-154.06v-7.7h154.06v7.7ZM437.83,402.59c0,4.26-3.44,7.72-7.7,7.74h-184.87c-4.26-.02-7.71-3.48-7.7-7.74v-38.44c0-4.26,3.44-7.72,7.7-7.74h57.77v-22.65c-.16-2.73.55-5.45,2.04-7.74h17.95l-.77-8.43c-1.82-22.96-8.21-45.33-18.8-65.78l-1.85-3.93-1.23-1.08c-23.36-20.32-25.83-55.73-5.51-79.1,20.32-23.36,55.73-25.83,79.1-5.51,12.27,10.67,19.3,26.14,19.27,42.39.05,15.5-6.37,30.31-17.72,40.86l-1,.96-1.77,3.62c-11.11,20.93-17.78,43.93-19.6,67.55l-.77,8.43h17.95c1.49,2.3,2.21,5.01,2.04,7.74v22.65h57.77c4.26.02,7.71,3.48,7.7,7.74v38.44Z"/>
    <path class="cls-5" d="M260.67,425.73h154.06v7.7h-154.06v-7.7Z"/>
    <path class="cls-1" d="M430.13,356.41h-57.77v-22.65c.16-2.73-.55-5.45-2.04-7.74h-17.95l.77-8.43c1.82-23.63,8.5-46.62,19.6-67.55l1.77-3.62,1-.96c11.35-10.55,17.77-25.37,17.72-40.86,0-30.94-25.09-56.02-56.03-56.01s-56.02,25.09-56.01,56.03c0,16.17,7,31.56,19.18,42.19l1.23,1.08,1.85,3.93c10.58,20.46,16.97,42.82,18.8,65.78l.77,8.43h-17.95c-1.49,2.3-2.21,5.01-2.04,7.74v22.65h-57.77c-4.26.02-7.71,3.48-7.7,7.74v38.44c0,4.26,3.44,7.72,7.7,7.74h184.87c4.26-.02,7.71-3.48,7.7-7.74v-38.44c0-4.26-3.44-7.72-7.7-7.74h0ZM268.37,387.22c0,4.25-3.45,7.7-7.7,7.7s-7.7-3.45-7.7-7.7v-7.7c0-4.25,3.45-7.7,7.7-7.7s7.7,3.45,7.7,7.7v7.7ZM299.18,387.22c0,4.25-3.45,7.7-7.7,7.7s-7.7-3.45-7.7-7.7v-7.7c0-4.25,3.45-7.7,7.7-7.7s7.7,3.45,7.7,7.7v7.7ZM329.99,387.22c0,4.25-3.45,7.7-7.7,7.7s-7.7-3.45-7.7-7.7v-7.7c0-4.25,3.45-7.7,7.7-7.7s7.7,3.45,7.7,7.7v7.7ZM337.69,183.09c-12.76.01-23.1,10.35-23.11,23.11,0,4.25-3.45,7.7-7.7,7.7s-7.7-3.45-7.7-7.7c.03-21.26,17.26-38.48,38.51-38.51,4.25,0,7.7,3.45,7.7,7.7s-3.45,7.7-7.7,7.7ZM360.8,387.22c0,4.25-3.45,7.7-7.7,7.7s-7.7-3.45-7.7-7.7v-7.7c0-4.25,3.45-7.7,7.7-7.7s7.7,3.45,7.7,7.7v7.7ZM391.62,387.22c0,4.25-3.45,7.7-7.7,7.7s-7.7-3.45-7.7-7.7v-7.7c0-4.25,3.45-7.7,7.7-7.7s7.7,3.45,7.7,7.7v7.7ZM422.43,387.22c0,4.25-3.45,7.7-7.7,7.7s-7.7-3.45-7.7-7.7v-7.7c0-4.25,3.45-7.7,7.7-7.7s7.7,3.45,7.7,7.7v7.7Z"/>
    <g>
      <path class="cls-3" d="M268.37,379.52v7.7c0,4.25-3.45,7.7-7.7,7.7s-7.7-3.45-7.7-7.7v-7.7c0-4.25,3.45-7.7,7.7-7.7s7.7,3.45,7.7,7.7Z"/>
      <path class="cls-3" d="M299.18,379.52v7.7c0,4.25-3.45,7.7-7.7,7.7s-7.7-3.45-7.7-7.7v-7.7c0-4.25,3.45-7.7,7.7-7.7s7.7,3.45,7.7,7.7Z"/>
      <path class="cls-3" d="M329.99,379.52v7.7c0,4.25-3.45,7.7-7.7,7.7s-7.7-3.45-7.7-7.7v-7.7c0-4.25,3.45-7.7,7.7-7.7s7.7,3.45,7.7,7.7Z"/>
      <path class="cls-3" d="M360.8,379.52v7.7c0,4.25-3.45,7.7-7.7,7.7s-7.7-3.45-7.7-7.7v-7.7c0-4.25,3.45-7.7,7.7-7.7s7.7,3.45,7.7,7.7Z"/>
      <path class="cls-3" d="M391.62,379.52v7.7c0,4.25-3.45,7.7-7.7,7.7s-7.7-3.45-7.7-7.7v-7.7c0-4.25,3.45-7.7,7.7-7.7s7.7,3.45,7.7,7.7Z"/>
      <path class="cls-3" d="M422.43,379.52v7.7c0,4.25-3.45,7.7-7.7,7.7s-7.7-3.45-7.7-7.7v-7.7c0-4.25,3.45-7.7,7.7-7.7s7.7,3.45,7.7,7.7Z"/>
      <path class="cls-3" d="M345.4,175.39c-.01,4.25-3.45,7.69-7.7,7.7-12.76.01-23.1,10.35-23.11,23.11,0,4.25-3.45,7.7-7.7,7.7s-7.7-3.45-7.7-7.7c.03-21.26,17.26-38.48,38.51-38.51,4.25.01,7.69,3.45,7.7,7.7Z"/>
    </g>
    <path class="cls-4" d="M437.83,394.88v7.7c0,4.26-3.44,7.72-7.7,7.74h-184.87c-4.26-.02-7.71-3.48-7.7-7.74v-7.7c0,4.26,3.44,7.72,7.7,7.74h184.87c4.26-.02,7.71-3.48,7.7-7.74Z"/>
  </g>
</svg>