<?xml version="1.0" encoding="UTF-8"?>
<svg id="Layer_1" data-name="Layer 1" xmlns="http://www.w3.org/2000/svg" viewBox="0 0 400.24 473.1">
  <defs>
    <style>
      .cls-1 {
        fill: #65c3a5;
      }

      .cls-2 {
        fill: #e9f3e8;
      }

      .cls-3 {
        fill: #033726;
      }

      .cls-4 {
        fill: #ff6b43;
      }

      .cls-5 {
        fill: #72492d;
        isolation: isolate;
        opacity: .4;
      }

      .cls-6 {
        fill: #ffc941;
      }
    </style>
  </defs>
  <g>
    <path class="cls-2" d="M75.01,82.52h231.51v351.95H75.01V82.52Z"/>
    <path class="cls-6" d="M71.4,110.25L7.22,125.79v17.31l64.19,271.18V110.25Z"/>
    <path class="cls-3" d="M196.23,434.47h-112.57c-3.18,0-5.77-2.58-5.77-5.77V94.06c0-3.18,2.58-5.77,5.77-5.77h213.48c3.18,0,5.77,2.58,5.77,5.77v107.21c4.01,1.34,7.87,3.07,11.54,5.17v-112.38c-.01-9.56-7.75-17.3-17.31-17.31H83.66c-9.56.01-17.3,7.75-17.31,17.31v10.68l-52.94,11.83c-9.23,2.04-15.05,11.18-13.01,20.4.02.08.03.15.05.23l64.72,277.06c.27,1.15.67,2.26,1.17,3.33v11.11c.01,9.56,7.75,17.3,17.31,17.31h121.42c-1.44-2.48-2.41-5.22-2.85-8.06-2.14-.91-4.15-2.08-6.01-3.48ZM11.7,134.58c-.72-2.99,1.12-6,4.12-6.72.04,0,.08-.02.12-.03l50.43-11.27v251.99L11.7,134.58Z"/>
    <path class="cls-3" d="M260.2,181.71H126.16c-2.74,0-4.96-2.22-4.96-4.96s2.22-4.96,4.96-4.96h134.03c2.74,0,4.96,2.22,4.96,4.96s-2.22,4.96-4.96,4.96Z"/>
    <path class="cls-3" d="M260.2,201.56H126.16c-2.74,0-4.96-2.22-4.96-4.96s2.22-4.96,4.96-4.96h134.03c2.74,0,4.96,2.22,4.96,4.96s-2.22,4.96-4.96,4.96Z"/>
    <path class="cls-3" d="M260.2,221.42H126.16c-2.74,0-4.96-2.22-4.96-4.96s2.22-4.96,4.96-4.96h134.03c2.74,0,4.96,2.22,4.96,4.96s-2.22,4.96-4.96,4.96Z"/>
    <path class="cls-3" d="M260.2,241.28H126.16c-2.74,0-4.96-2.22-4.96-4.96s2.22-4.96,4.96-4.96h134.03c2.74,0,4.96,2.22,4.96,4.96s-2.22,4.96-4.96,4.96Z"/>
    <path class="cls-3" d="M260.2,261.14H126.16c-2.74,0-4.96-2.22-4.96-4.96s2.22-4.96,4.96-4.96h134.03c2.74,0,4.96,2.22,4.96,4.96s-2.22,4.96-4.96,4.96Z"/>
    <path class="cls-3" d="M260.2,280.99H126.16c-2.74,0-4.96-2.22-4.96-4.96s2.22-4.96,4.96-4.96h134.03c2.74,0,4.96,2.22,4.96,4.96s-2.22,4.96-4.96,4.96Z"/>
    <path class="cls-3" d="M260.2,300.85H126.16c-2.74,0-4.96-2.22-4.96-4.96s2.22-4.96,4.96-4.96h134.03c2.74,0,4.96,2.22,4.96,4.96s-2.22,4.96-4.96,4.96Z"/>
    <path class="cls-3" d="M260.2,320.71H126.16c-2.74,0-4.96-2.22-4.96-4.96s2.22-4.96,4.96-4.96h134.03c2.74,0,4.96,2.22,4.96,4.96s-2.22,4.96-4.96,4.96Z"/>
    <path class="cls-3" d="M260.2,340.56H126.16c-2.74,0-4.96-2.22-4.96-4.96s2.22-4.96,4.96-4.96h134.03c2.74,0,4.96,2.22,4.96,4.96s-2.22,4.96-4.96,4.96Z"/>
    <path class="cls-3" d="M260.2,360.42H126.16c-2.74,0-4.96-2.22-4.96-4.96s2.22-4.96,4.96-4.96h134.03c2.74,0,4.96,2.22,4.96,4.96s-2.22,4.96-4.96,4.96Z"/>
    <g>
      <path class="cls-3" d="M379.83,377.87h-37.41v-6.39c0-11.67-6.33-20.44-14.73-20.44h-1.46c2.16-16.63,7.3-32.74,15.17-47.55l.48-.99c24.95-24.33,25.46-64.29,1.12-89.24-24.33-24.95-64.29-25.46-89.24-1.12-12.2,11.9-19.07,28.22-19.05,45.27.02,17.71,7.46,34.59,20.51,46.56l.48.95c7.49,14.41,12.39,30.02,14.49,46.12h-1.46c-8.4,0-14.73,8.77-14.73,20.44v6.39h-37.41c-11.27.02-20.4,9.17-20.41,20.44v33.94c0,11.27,9.13,20.42,20.41,20.44v6.8c0,7.51,6.09,13.6,13.6,13.6h136.05c7.51,0,13.6-6.09,13.6-13.6h0v-6.81c11.27-.02,20.4-9.17,20.41-20.44v-33.94c0-11.27-9.13-20.42-20.41-20.44ZM366.23,459.5h-136.04v-6.8h136.04v6.8ZM386.63,432.26c0,3.76-3.04,6.82-6.8,6.84h-163.25c-3.76-.01-6.81-3.07-6.8-6.84v-33.94c0-3.76,3.04-6.82,6.8-6.84h51.02v-20c-.15-2.41.49-4.81,1.8-6.84h15.85l-.68-7.45c-1.61-20.28-7.25-40.03-16.6-58.09l-1.63-3.47-1.09-.95c-20.63-17.94-22.81-49.22-4.86-69.85,17.94-20.63,49.22-22.81,69.85-4.86,10.83,9.42,17.04,23.08,17.02,37.43.05,13.68-5.62,26.77-15.64,36.09l-.88.85-1.56,3.2c-9.81,18.48-15.7,38.79-17.31,59.65l-.68,7.45h15.85c1.32,2.03,1.95,4.42,1.8,6.84v20h51.02c3.76.01,6.81,3.07,6.8,6.84v33.94Z"/>
      <path class="cls-6" d="M230.18,452.7h136.04v6.8h-136.04v-6.8Z"/>
      <path class="cls-1" d="M379.83,391.48h-51.02v-20c.15-2.41-.49-4.81-1.8-6.84h-15.85l.68-7.45c1.61-20.86,7.5-41.17,17.31-59.65l1.56-3.2.88-.85c10.02-9.32,15.69-22.4,15.64-36.09,0-27.32-22.16-49.46-49.48-49.46-27.32,0-49.46,22.16-49.46,49.48,0,14.28,6.18,27.87,16.94,37.26l1.09.95,1.63,3.47c9.35,18.06,14.99,37.81,16.6,58.09l.68,7.45h-15.85c-1.32,2.03-1.95,4.42-1.8,6.84v20h-51.02c-3.76.01-6.81,3.07-6.8,6.84v33.94c0,3.76,3.04,6.82,6.8,6.84h163.25c3.76-.01,6.81-3.07,6.8-6.84v-33.94c0-3.76-3.04-6.82-6.8-6.84h0ZM236.99,418.69c0,3.76-3.05,6.8-6.8,6.8s-6.8-3.05-6.8-6.8v-6.8c0-3.76,3.05-6.8,6.8-6.8s6.8,3.05,6.8,6.8v6.8ZM264.2,418.69c0,3.76-3.05,6.8-6.8,6.8s-6.8-3.05-6.8-6.8v-6.8c0-3.76,3.05-6.8,6.8-6.8s6.8,3.05,6.8,6.8v6.8ZM291.4,418.69c0,3.76-3.05,6.8-6.8,6.8s-6.8-3.05-6.8-6.8v-6.8c0-3.76,3.05-6.8,6.8-6.8s6.8,3.05,6.8,6.8v6.8ZM298.21,238.43c-11.27,0-20.4,9.14-20.41,20.41,0,3.76-3.05,6.8-6.8,6.8s-6.8-3.05-6.8-6.8c.03-18.77,15.24-33.98,34.01-34.01,3.76,0,6.8,3.05,6.8,6.8s-3.05,6.8-6.8,6.8ZM318.61,418.69c0,3.76-3.05,6.8-6.8,6.8s-6.8-3.05-6.8-6.8v-6.8c0-3.76,3.05-6.8,6.8-6.8s6.8,3.05,6.8,6.8v6.8ZM345.82,418.69c0,3.76-3.05,6.8-6.8,6.8s-6.8-3.05-6.8-6.8v-6.8c0-3.76,3.05-6.8,6.8-6.8s6.8,3.05,6.8,6.8v6.8ZM373.03,418.69c0,3.76-3.05,6.8-6.8,6.8s-6.8-3.05-6.8-6.8v-6.8c0-3.76,3.05-6.8,6.8-6.8s6.8,3.05,6.8,6.8v6.8Z"/>
      <g>
        <path class="cls-3" d="M236.99,411.88v6.8c0,3.76-3.05,6.8-6.8,6.8s-6.8-3.05-6.8-6.8v-6.8c0-3.76,3.05-6.8,6.8-6.8s6.8,3.05,6.8,6.8Z"/>
        <path class="cls-3" d="M264.2,411.88v6.8c0,3.76-3.05,6.8-6.8,6.8s-6.8-3.05-6.8-6.8v-6.8c0-3.76,3.05-6.8,6.8-6.8s6.8,3.05,6.8,6.8Z"/>
        <path class="cls-3" d="M291.4,411.88v6.8c0,3.76-3.05,6.8-6.8,6.8s-6.8-3.05-6.8-6.8v-6.8c0-3.76,3.05-6.8,6.8-6.8s6.8,3.05,6.8,6.8Z"/>
        <path class="cls-3" d="M318.61,411.88v6.8c0,3.76-3.05,6.8-6.8,6.8s-6.8-3.05-6.8-6.8v-6.8c0-3.76,3.05-6.8,6.8-6.8s6.8,3.05,6.8,6.8Z"/>
        <path class="cls-3" d="M345.82,411.88v6.8c0,3.76-3.05,6.8-6.8,6.8s-6.8-3.05-6.8-6.8v-6.8c0-3.76,3.05-6.8,6.8-6.8s6.8,3.05,6.8,6.8Z"/>
        <path class="cls-3" d="M373.03,411.88v6.8c0,3.76-3.05,6.8-6.8,6.8s-6.8-3.05-6.8-6.8v-6.8c0-3.76,3.05-6.8,6.8-6.8s6.8,3.05,6.8,6.8Z"/>
        <path class="cls-3" d="M305.01,231.63c-.01,3.75-3.05,6.79-6.8,6.8-11.27,0-20.4,9.14-20.41,20.41,0,3.76-3.05,6.8-6.8,6.8s-6.8-3.05-6.8-6.8c.03-18.77,15.24-33.98,34.01-34.01,3.75.01,6.79,3.05,6.8,6.8Z"/>
      </g>
      <path class="cls-5" d="M386.63,425.46v6.8c0,3.76-3.04,6.82-6.8,6.84h-163.25c-3.76-.01-6.81-3.07-6.8-6.84v-6.8c0,3.76,3.04,6.82,6.8,6.84h163.25c3.76-.01,6.81-3.07,6.8-6.84Z"/>
    </g>
  </g>
  <g>
    <circle class="cls-4" cx="199.23" cy="76.93" r="71.23"/>
    <path class="cls-3" d="M199.23,153.85c-42.42,0-76.93-34.51-76.93-76.93S156.81,0,199.23,0s76.93,34.51,76.93,76.93-34.51,76.93-76.93,76.93ZM199.23,11.4c-36.13,0-65.53,29.4-65.53,65.53s29.4,65.53,65.53,65.53,65.53-29.4,65.53-65.53S235.36,11.4,199.23,11.4Z"/>
  </g>
  <g>
    <path class="cls-2" d="M190.59,119.66c-7.02,0-12.72-6.27-12.72-13.98v-18.74h-6.07c-4.89-.02-9.25-2.94-11.11-7.45-2-4.47-1.14-9.88,2.25-13.63l27.44-29.95c2.21-2.48,5.45-3.92,8.83-3.92s6.64,1.45,8.91,3.97l27.37,29.89c2.15,2.33,3.34,5.38,3.34,8.56,0,1.82-.37,3.57-1.1,5.21-1.82,4.38-6.17,7.3-11.03,7.32h-6.14v18.74c0,7.71-5.71,13.98-12.73,13.98h-17.24Z"/>
    <path class="cls-3" d="M199.22,37.69h0c1.77,0,3.46.76,4.64,2.08l27.41,29.93c1.19,1.29,1.84,2.97,1.85,4.72,0,1-.21,1.98-.61,2.9-.98,2.37-3.28,3.92-5.85,3.93h-11.81v24.43c0,4.57-3.15,8.28-7.03,8.28h-17.24c-3.87,0-7.03-3.71-7.03-8.28v-24.43h-11.77c-2.56-.02-4.87-1.57-5.85-3.93-1.14-2.56-.67-5.55,1.21-7.63l27.42-29.92c1.18-1.32,2.88-2.08,4.65-2.08M199.24,26.3h-.01c-5.01,0-9.79,2.14-13.14,5.86l-27.33,29.83c-4.92,5.44-6.18,13.19-3.28,19.84,2.78,6.53,9.13,10.77,16.24,10.82h.45v13.04c0,10.85,8.26,19.68,18.42,19.68h17.24c10.16,0,18.42-8.83,18.42-19.68v-13.04h.42c7.23-.04,13.63-4.35,16.37-10.96.95-2.15,1.48-4.67,1.48-7.26,0-4.64-1.74-9.05-4.86-12.45l-27.38-29.91c-3.26-3.63-8.04-5.77-13.04-5.78h0Z"/>
  </g>
</svg>