<?xml version="1.0" encoding="UTF-8"?>
<svg id="Layer_1" data-name="Layer 1" xmlns="http://www.w3.org/2000/svg" viewBox="0 0 459.24 461.08">
  <defs>
    <style>
      .cls-1 {
        fill: #65c3a5;
      }

      .cls-2 {
        fill: #ad9359;
      }

      .cls-2, .cls-3, .cls-4 {
        opacity: .5;
      }

      .cls-2, .cls-3, .cls-4, .cls-5 {
        isolation: isolate;
      }

      .cls-3 {
        fill: #9fa5aa;
      }

      .cls-6 {
        fill: #e9f3e8;
      }

      .cls-4 {
        fill: #fff;
      }

      .cls-7 {
        fill: #033726;
      }

      .cls-8 {
        fill: #ff6b43;
      }

      .cls-5 {
        fill: #72492d;
        opacity: .4;
      }

      .cls-9 {
        fill: #ffc941;
      }
    </style>
  </defs>
  <g>
    <path class="cls-6" d="M82.54,6.35h254.76v387.29H82.54V6.35Z"/>
    <path class="cls-9" d="M203.17,336.53c.01-11.31,6.03-21.75,15.81-27.44-9.08-23.66-35.62-35.49-59.28-26.42-23.66,9.08-35.49,35.62-26.42,59.28,9.08,23.66,35.62,35.49,59.28,26.42,3.78-1.45,7.34-3.39,10.61-5.77v-26.07Z"/>
    <path class="cls-9" d="M78.57,36.87L7.94,53.97v19.05l70.63,298.41V36.87Z"/>
    <path class="cls-7" d="M288.89,44.44h-158.73c-3.51,0-6.35,2.84-6.35,6.35s2.84,6.35,6.35,6.35h158.73c3.51,0,6.35-2.84,6.35-6.35s-2.84-6.35-6.35-6.35Z"/>
    <path class="cls-7" d="M288.89,69.84h-158.73c-3.51,0-6.35,2.84-6.35,6.35s2.84,6.35,6.35,6.35h158.73c3.51,0,6.35-2.84,6.35-6.35s-2.84-6.35-6.35-6.35Z"/>
    <path class="cls-7" d="M288.89,95.24h-158.73c-3.51,0-6.35,2.84-6.35,6.35s2.84,6.35,6.35,6.35h158.73c3.51,0,6.35-2.84,6.35-6.35s-2.84-6.35-6.35-6.35Z"/>
    <path class="cls-7" d="M295.24,126.98c0-3.51-2.84-6.35-6.35-6.35h-158.73c-3.51,0-6.35,2.84-6.35,6.35s2.84,6.35,6.35,6.35h158.73c3.51,0,6.35-2.84,6.35-6.35Z"/>
    <path class="cls-7" d="M192.38,309.74l-21.47,21.02-7.71-7.64c-2.49-2.47-6.51-2.45-8.98.04-2.47,2.49-2.45,6.51.04,8.98l12.15,12.04c2.46,2.44,6.43,2.45,8.91.02l25.94-25.4c2.5-2.46,2.53-6.48.08-8.98-2.45-2.49-6.46-2.53-8.96-.09Z"/>
    <path class="cls-7" d="M123.81,152.38c0,3.51,2.84,6.35,6.35,6.35h125.97c4.08-4.83,8.78-9.1,13.98-12.7h-139.95c-3.51,0-6.35,2.84-6.35,6.35Z"/>
    <path class="cls-7" d="M215.93,393.64h-123.87c-3.5,0-6.34-2.84-6.35-6.35V19.05c0-3.5,2.84-6.34,6.35-6.35h234.91c3.5,0,6.34,2.84,6.35,6.35v117.97c4.41,1.48,8.66,3.38,12.7,5.69V19.05c-.01-10.51-8.53-19.04-19.05-19.05H92.07c-10.51.01-19.04,8.53-19.05,19.05v11.76l-58.26,13.02C4.61,46.07-1.8,56.12.45,66.28c.02.08.04.17.06.25l71.22,304.87c.3,1.26.74,2.49,1.29,3.66v12.23c.01,10.51,8.53,19.04,19.05,19.05h133.61c-1.59-2.73-2.65-5.74-3.13-8.87-2.35-1.01-4.57-2.29-6.61-3.83ZM12.87,63.64c-.79-3.29,1.24-6.6,4.53-7.39.04-.01.09-.02.13-.03l55.49-12.4v277.29L12.87,63.64Z"/>
    <path class="cls-7" d="M387.3,317.45h-34.92v-5.97c0-10.89-5.9-19.08-13.75-19.08h-1.37c2.02-15.52,6.81-30.56,14.16-44.38l.44-.92c23.29-22.71,23.76-60.01,1.05-83.3-22.71-23.29-60.01-23.76-83.3-1.05-11.39,11.11-17.8,26.34-17.78,42.25.02,16.53,6.96,32.29,19.14,43.46l.44.89c6.99,13.45,11.57,28.02,13.52,43.05h-1.37c-7.84,0-13.75,8.19-13.75,19.08v5.97h-34.92c-10.52.02-19.04,8.56-19.05,19.08v31.68c0,10.52,8.52,19.06,19.05,19.08v6.35c0,7.01,5.68,12.7,12.69,12.7h126.99c7.01,0,12.7-5.68,12.7-12.69h0v-6.36c10.52-.02,19.04-8.56,19.05-19.08v-31.68c0-10.52-8.52-19.06-19.05-19.08ZM374.6,393.64h-126.98v-6.35h126.98v6.35ZM393.65,368.21c0,3.51-2.84,6.37-6.35,6.38h-152.38c-3.51-.01-6.35-2.87-6.35-6.38v-31.68c0-3.51,2.84-6.37,6.35-6.38h47.62v-18.67c-.14-2.25.45-4.49,1.68-6.38h14.79l-.63-6.95c-1.5-18.92-6.77-37.36-15.49-54.22l-1.52-3.24-1.02-.89c-19.26-16.75-21.29-45.94-4.54-65.19,16.75-19.26,45.94-21.29,65.19-4.54,10.11,8.79,15.9,21.54,15.88,34.94.04,12.77-5.25,24.98-14.6,33.68l-.83.79-1.46,2.98c-9.16,17.25-14.66,36.21-16.16,55.68l-.63,6.95h14.79c1.23,1.89,1.82,4.13,1.68,6.38v18.67h47.62c3.51.01,6.35,2.87,6.35,6.38v31.68Z"/>
    <path class="cls-9" d="M247.62,387.29h126.98v6.35h-126.98v-6.35Z"/>
    <path class="cls-1" d="M387.3,330.15h-47.62v-18.67c.14-2.25-.45-4.49-1.68-6.38h-14.79l.63-6.95c1.5-19.47,7-38.43,16.16-55.68l1.46-2.98.83-.79c9.35-8.7,14.65-20.91,14.6-33.68,0-25.5-20.68-46.17-46.18-46.17-25.5,0-46.17,20.68-46.17,46.18,0,13.33,5.77,26.01,15.81,34.78l1.02.89,1.52,3.24c8.72,16.86,13.99,35.3,15.49,54.22l.63,6.95h-14.79c-1.23,1.89-1.82,4.13-1.68,6.38v18.67h-47.62c-3.51.01-6.35,2.87-6.35,6.38v31.68c0,3.51,2.84,6.37,6.35,6.38h152.38c3.51-.01,6.35-2.87,6.35-6.38v-31.68c0-3.51-2.84-6.37-6.35-6.38h0ZM253.97,355.55c0,3.51-2.84,6.35-6.35,6.35s-6.35-2.84-6.35-6.35v-6.35c0-3.51,2.84-6.35,6.35-6.35s6.35,2.84,6.35,6.35v6.35ZM279.36,355.55c0,3.51-2.84,6.35-6.35,6.35s-6.35-2.84-6.35-6.35v-6.35c0-3.51,2.84-6.35,6.35-6.35s6.35,2.84,6.35,6.35v6.35ZM304.76,355.55c0,3.51-2.84,6.35-6.35,6.35s-6.35-2.84-6.35-6.35v-6.35c0-3.51,2.84-6.35,6.35-6.35s6.35,2.84,6.35,6.35v6.35ZM311.11,187.3c-10.52,0-19.04,8.53-19.05,19.05,0,3.51-2.84,6.35-6.35,6.35s-6.35-2.84-6.35-6.35c.03-17.52,14.22-31.72,31.75-31.75,3.51,0,6.35,2.84,6.35,6.35s-2.84,6.35-6.35,6.35ZM330.15,355.55c0,3.51-2.84,6.35-6.35,6.35s-6.35-2.84-6.35-6.35v-6.35c0-3.51,2.84-6.35,6.35-6.35s6.35,2.84,6.35,6.35v6.35ZM355.55,355.55c0,3.51-2.84,6.35-6.35,6.35s-6.35-2.84-6.35-6.35v-6.35c0-3.51,2.84-6.35,6.35-6.35s6.35,2.84,6.35,6.35v6.35ZM380.95,355.55c0,3.51-2.84,6.35-6.35,6.35s-6.35-2.84-6.35-6.35v-6.35c0-3.51,2.84-6.35,6.35-6.35s6.35,2.84,6.35,6.35v6.35Z"/>
    <g>
      <path class="cls-7" d="M253.97,349.2v6.35c0,3.51-2.84,6.35-6.35,6.35s-6.35-2.84-6.35-6.35v-6.35c0-3.51,2.84-6.35,6.35-6.35s6.35,2.84,6.35,6.35Z"/>
      <path class="cls-7" d="M279.36,349.2v6.35c0,3.51-2.84,6.35-6.35,6.35s-6.35-2.84-6.35-6.35v-6.35c0-3.51,2.84-6.35,6.35-6.35s6.35,2.84,6.35,6.35Z"/>
      <path class="cls-7" d="M304.76,349.2v6.35c0,3.51-2.84,6.35-6.35,6.35s-6.35-2.84-6.35-6.35v-6.35c0-3.51,2.84-6.35,6.35-6.35s6.35,2.84,6.35,6.35Z"/>
      <path class="cls-7" d="M330.15,349.2v6.35c0,3.51-2.84,6.35-6.35,6.35s-6.35-2.84-6.35-6.35v-6.35c0-3.51,2.84-6.35,6.35-6.35s6.35,2.84,6.35,6.35Z"/>
      <path class="cls-7" d="M355.55,349.2v6.35c0,3.51-2.84,6.35-6.35,6.35s-6.35-2.84-6.35-6.35v-6.35c0-3.51,2.84-6.35,6.35-6.35s6.35,2.84,6.35,6.35Z"/>
      <path class="cls-7" d="M380.95,349.2v6.35c0,3.51-2.84,6.35-6.35,6.35s-6.35-2.84-6.35-6.35v-6.35c0-3.51,2.84-6.35,6.35-6.35s6.35,2.84,6.35,6.35Z"/>
      <path class="cls-7" d="M247.52,171.42h-117.36c-3.51,0-6.35,2.84-6.35,6.35s2.84,6.35,6.35,6.35h112.1c1.34-4.39,3.1-8.64,5.26-12.7Z"/>
      <path class="cls-7" d="M239.63,196.82h-109.47c-3.51,0-6.35,2.84-6.35,6.35s2.84,6.35,6.35,6.35h109.15c-.09-1.5-.16-3-.16-4.51,0-2.74.17-5.47.48-8.19Z"/>
      <path class="cls-7" d="M130.16,222.22c-3.51,0-6.35,2.84-6.35,6.35s2.84,6.35,6.35,6.35h115.57c-1.88-4.08-3.38-8.33-4.46-12.7h-111.11Z"/>
      <path class="cls-7" d="M130.16,247.61c-3.51,0-6.35,2.84-6.35,6.35s2.84,6.35,6.35,6.35h132.35c-.66-1.44-1.33-2.86-2-4.29-2.64-2.61-5.08-5.42-7.28-8.41h-123.07Z"/>
      <path class="cls-7" d="M215.88,311.16c3.42-2.58,7.32-4.44,11.48-5.46-11.73-27.41-43.47-40.13-70.88-28.39-27.41,11.73-40.13,43.47-28.39,70.88,11.73,27.41,43.47,40.13,70.88,28.39,1.64-.7,3.24-1.48,4.8-2.34-.39-1.99-.59-4.01-.6-6.03v-8.78c-17.95,14.02-43.86,10.84-57.88-7.1-14.02-17.95-10.84-43.86,7.1-57.88,17.95-14.02,43.86-10.84,57.88,7.1,2.29,2.94,4.18,6.17,5.6,9.61Z"/>
      <path class="cls-7" d="M317.46,180.95c-.01,3.5-2.85,6.34-6.35,6.35-10.52,0-19.04,8.53-19.05,19.05,0,3.51-2.84,6.35-6.35,6.35s-6.35-2.84-6.35-6.35c.03-17.52,14.22-31.72,31.75-31.75,3.5.01,6.34,2.85,6.35,6.35Z"/>
    </g>
    <path class="cls-3" d="M225.68,399.99h-2.6c-.24-.82-.42-1.66-.54-2.51-2.34-1.02-4.56-2.31-6.6-3.84h-123.87c-3.5-.01-6.34-2.85-6.35-6.35v-6.35c.01,3.5,2.85,6.34,6.35,6.35h123.87c2.04,1.53,4.26,2.82,6.6,3.84.48,3.12,1.55,6.13,3.14,8.86Z"/>
    <path class="cls-4" d="M333.33,19.05v6.35c-.01-3.5-2.85-6.34-6.35-6.35H92.07c-3.5.01-6.34,2.85-6.35,6.35v-6.35c.01-3.5,2.85-6.34,6.35-6.35h234.91c3.5.01,6.34,2.85,6.35,6.35Z"/>
    <path class="cls-5" d="M393.65,361.86v6.35c0,3.51-2.84,6.37-6.35,6.38h-152.38c-3.51-.01-6.35-2.87-6.35-6.38v-6.35c0,3.51,2.84,6.37,6.35,6.38h152.38c3.51-.01,6.35-2.87,6.35-6.38Z"/>
    <path class="cls-2" d="M203.17,353.1v6.35c-17.91,14.05-43.82,10.93-57.87-6.98-5.71-7.27-8.8-16.25-8.79-25.5-.01-1.06.04-2.12.16-3.17,1.71,22.68,21.48,39.69,44.16,37.98,8.14-.61,15.92-3.63,22.34-8.68Z"/>
  </g>
  <g>
    <circle class="cls-8" cx="390.26" cy="392.1" r="62.7"/>
    <path class="cls-7" d="M390.26,461.08c-38.03,0-68.98-30.94-68.98-68.98s30.94-68.98,68.98-68.98,68.98,30.94,68.98,68.98-30.94,68.98-68.98,68.98ZM390.26,335.67c-31.12,0-56.43,25.31-56.43,56.43s25.32,56.43,56.43,56.43,56.43-25.31,56.43-56.43-25.32-56.43-56.43-56.43Z"/>
  </g>
</svg>