<?xml version="1.0" encoding="UTF-8"?>
<svg id="Layer_1" data-name="Layer 1" xmlns="http://www.w3.org/2000/svg" viewBox="0 0 375.53 449.03">
  <defs>
    <style>
      .cls-1 {
        fill: #65c3a5;
      }

      .cls-2 {
        fill: #e9f3e8;
      }

      .cls-3 {
        fill: #033726;
      }

      .cls-4 {
        fill: #72492d;
        isolation: isolate;
        opacity: .4;
      }

      .cls-5 {
        fill: #ffc941;
      }
    </style>
  </defs>
  <g>
    <g>
      <rect class="cls-5" x="213.78" y="88.6" width="158.08" height="235.28" rx="2.44" ry="2.44"/>
      <path class="cls-3" d="M362.9,327.56h-140.17c-6.96,0-12.63-5.67-12.63-12.63V97.55c0-6.96,5.67-12.63,12.63-12.63h140.17c6.96,0,12.63,5.67,12.63,12.63v217.37c0,6.96-5.67,12.63-12.63,12.63ZM222.73,92.27c-2.91,0-5.28,2.37-5.28,5.28v217.37c0,2.91,2.37,5.28,5.28,5.28h140.17c2.91,0,5.28-2.37,5.28-5.28V97.55c0-2.91-2.37-5.28-5.28-5.28h-140.17Z"/>
    </g>
    <path class="cls-3" d="M342.44,129.04h-99.26c-2.03,0-3.68-1.64-3.68-3.68s1.65-3.68,3.68-3.68h99.26c2.03,0,3.68,1.64,3.68,3.68s-1.64,3.68-3.68,3.68Z"/>
    <path class="cls-3" d="M342.44,143.74h-99.26c-2.03,0-3.68-1.64-3.68-3.68s1.65-3.68,3.68-3.68h99.26c2.03,0,3.68,1.64,3.68,3.68s-1.64,3.68-3.68,3.68Z"/>
    <path class="cls-3" d="M342.44,158.45h-99.26c-2.03,0-3.68-1.64-3.68-3.68s1.65-3.68,3.68-3.68h99.26c2.03,0,3.68,1.64,3.68,3.68s-1.64,3.68-3.68,3.68Z"/>
    <path class="cls-3" d="M342.44,173.15h-99.26c-2.03,0-3.68-1.64-3.68-3.68s1.65-3.68,3.68-3.68h99.26c2.03,0,3.68,1.64,3.68,3.68s-1.64,3.68-3.68,3.68Z"/>
    <path class="cls-3" d="M342.44,187.86h-99.26c-2.03,0-3.68-1.64-3.68-3.68s1.65-3.68,3.68-3.68h99.26c2.03,0,3.68,1.64,3.68,3.68s-1.64,3.68-3.68,3.68Z"/>
    <path class="cls-3" d="M342.44,202.56h-99.26c-2.03,0-3.68-1.64-3.68-3.68s1.65-3.68,3.68-3.68h99.26c2.03,0,3.68,1.64,3.68,3.68s-1.64,3.68-3.68,3.68Z"/>
    <path class="cls-3" d="M342.44,217.27h-99.26c-2.03,0-3.68-1.64-3.68-3.68s1.65-3.68,3.68-3.68h99.26c2.03,0,3.68,1.64,3.68,3.68s-1.64,3.68-3.68,3.68Z"/>
    <path class="cls-3" d="M342.44,231.97h-99.26c-2.03,0-3.68-1.64-3.68-3.68s1.65-3.68,3.68-3.68h99.26c2.03,0,3.68,1.64,3.68,3.68s-1.64,3.68-3.68,3.68Z"/>
    <path class="cls-3" d="M342.44,246.68h-99.26c-2.03,0-3.68-1.64-3.68-3.68s1.65-3.68,3.68-3.68h99.26c2.03,0,3.68,1.64,3.68,3.68s-1.64,3.68-3.68,3.68Z"/>
    <path class="cls-3" d="M342.44,261.38h-99.26c-2.03,0-3.68-1.64-3.68-3.68s1.65-3.68,3.68-3.68h99.26c2.03,0,3.68,1.64,3.68,3.68s-1.64,3.68-3.68,3.68Z"/>
  </g>
  <g>
    <g>
      <rect class="cls-2" x="3.77" y="131.15" width="162.03" height="241.16" rx="2.44" ry="2.44"/>
      <path class="cls-3" d="M156.62,376.08H12.95c-7.14,0-12.95-5.81-12.95-12.95v-222.81c0-7.14,5.81-12.95,12.95-12.95h143.68c7.14,0,12.95,5.81,12.95,12.95v222.81c0,7.14-5.81,12.95-12.95,12.95ZM12.95,134.92c-2.98,0-5.41,2.43-5.41,5.41v222.81c0,2.98,2.43,5.41,5.41,5.41h143.68c2.98,0,5.41-2.43,5.41-5.41v-222.81c0-2.98-2.43-5.41-5.41-5.41H12.95Z"/>
    </g>
    <path class="cls-3" d="M135.65,172.6H33.91c-2.08,0-3.77-1.69-3.77-3.77s1.69-3.77,3.77-3.77h101.74c2.08,0,3.77,1.69,3.77,3.77s-1.69,3.77-3.77,3.77Z"/>
    <path class="cls-3" d="M135.65,187.67H33.91c-2.08,0-3.77-1.69-3.77-3.77s1.69-3.77,3.77-3.77h101.74c2.08,0,3.77,1.69,3.77,3.77s-1.69,3.77-3.77,3.77Z"/>
    <path class="cls-3" d="M135.65,202.75H33.91c-2.08,0-3.77-1.69-3.77-3.77s1.69-3.77,3.77-3.77h101.74c2.08,0,3.77,1.69,3.77,3.77s-1.69,3.77-3.77,3.77Z"/>
    <path class="cls-3" d="M135.65,217.82H33.91c-2.08,0-3.77-1.69-3.77-3.77s1.69-3.77,3.77-3.77h101.74c2.08,0,3.77,1.69,3.77,3.77s-1.69,3.77-3.77,3.77Z"/>
    <path class="cls-3" d="M135.65,232.89H33.91c-2.08,0-3.77-1.69-3.77-3.77s1.69-3.77,3.77-3.77h101.74c2.08,0,3.77,1.69,3.77,3.77s-1.69,3.77-3.77,3.77Z"/>
    <path class="cls-3" d="M135.65,247.96H33.91c-2.08,0-3.77-1.69-3.77-3.77s1.69-3.77,3.77-3.77h101.74c2.08,0,3.77,1.69,3.77,3.77s-1.69,3.77-3.77,3.77Z"/>
    <path class="cls-3" d="M135.65,263.04H33.91c-2.08,0-3.77-1.69-3.77-3.77s1.69-3.77,3.77-3.77h101.74c2.08,0,3.77,1.69,3.77,3.77s-1.69,3.77-3.77,3.77Z"/>
    <path class="cls-3" d="M135.65,278.11H33.91c-2.08,0-3.77-1.69-3.77-3.77s1.69-3.77,3.77-3.77h101.74c2.08,0,3.77,1.69,3.77,3.77s-1.69,3.77-3.77,3.77Z"/>
    <path class="cls-3" d="M135.65,293.18H33.91c-2.08,0-3.77-1.69-3.77-3.77s1.69-3.77,3.77-3.77h101.74c2.08,0,3.77,1.69,3.77,3.77s-1.69,3.77-3.77,3.77Z"/>
    <path class="cls-3" d="M135.65,308.26H33.91c-2.08,0-3.77-1.69-3.77-3.77s1.69-3.77,3.77-3.77h101.74c2.08,0,3.77,1.69,3.77,3.77s-1.69,3.77-3.77,3.77Z"/>
  </g>
  <g>
    <path class="cls-3" d="M274.51,353.32h-37.6v-6.43c0-11.72-6.36-20.54-14.8-20.54h-1.47c2.17-16.71,7.34-32.9,15.25-47.79l.48-.99c25.08-24.46,25.58-64.61,1.13-89.69-24.46-25.08-64.61-25.58-89.69-1.13-12.26,11.96-19.17,28.37-19.14,45.49.02,17.8,7.49,34.77,20.61,46.8l.48.96c7.53,14.48,12.45,30.17,14.56,46.35h-1.47c-8.44,0-14.8,8.82-14.8,20.54v6.43h-37.6c-11.33.03-20.5,9.21-20.51,20.54v34.11c0,11.33,9.18,20.52,20.51,20.54v6.84c0,7.55,6.12,13.67,13.67,13.67h136.74c7.55,0,13.67-6.12,13.67-13.67h0v-6.84c11.33-.03,20.5-9.21,20.51-20.54v-34.11c0-11.33-9.18-20.52-20.51-20.54ZM260.84,435.35H124.11v-6.84h136.73v6.84ZM281.35,407.97c0,3.78-3.05,6.86-6.84,6.87H110.43c-3.78-.02-6.84-3.09-6.84-6.87v-34.11c0-3.78,3.05-6.86,6.84-6.87h51.27v-20.1c-.15-2.43.49-4.83,1.81-6.87h15.93l-.68-7.49c-1.62-20.38-7.29-40.23-16.68-58.38l-1.64-3.49-1.09-.96c-20.73-18.04-22.92-49.46-4.89-70.2,18.04-20.73,49.46-22.92,70.2-4.89,10.89,9.47,17.13,23.2,17.1,37.62.05,13.75-5.65,26.9-15.72,36.27l-.89.85-1.57,3.21c-9.86,18.58-15.78,38.99-17.4,59.96l-.68,7.49h15.93c1.32,2.04,1.96,4.45,1.81,6.87v20.1h51.27c3.78.02,6.84,3.09,6.84,6.87v34.11Z"/>
    <path class="cls-5" d="M124.11,428.52h136.73v6.84H124.11v-6.84Z"/>
    <path class="cls-1" d="M274.51,366.99h-51.27v-20.1c.15-2.43-.49-4.83-1.81-6.87h-15.93l.68-7.49c1.62-20.97,7.54-41.38,17.4-59.96l1.57-3.21.89-.85c10.07-9.37,15.77-22.51,15.72-36.27,0-27.46-22.27-49.71-49.73-49.71-27.46,0-49.71,22.27-49.71,49.73,0,14.35,6.21,28.01,17.02,37.45l1.09.96,1.64,3.49c9.39,18.16,15.06,38.01,16.68,58.38l.68,7.49h-15.93c-1.32,2.04-1.96,4.45-1.81,6.87v20.1h-51.27c-3.78.02-6.84,3.09-6.84,6.87v34.11c0,3.78,3.05,6.86,6.84,6.87h164.08c3.78-.02,6.84-3.09,6.84-6.87v-34.11c0-3.78-3.05-6.86-6.84-6.87h0ZM130.94,394.34c0,3.78-3.06,6.84-6.84,6.84s-6.84-3.06-6.84-6.84v-6.84c0-3.78,3.06-6.84,6.84-6.84s6.84,3.06,6.84,6.84v6.84ZM158.29,394.34c0,3.78-3.06,6.84-6.84,6.84s-6.84-3.06-6.84-6.84v-6.84c0-3.78,3.06-6.84,6.84-6.84s6.84,3.06,6.84,6.84v6.84ZM185.64,394.34c0,3.78-3.06,6.84-6.84,6.84s-6.84-3.06-6.84-6.84v-6.84c0-3.78,3.06-6.84,6.84-6.84s6.84,3.06,6.84,6.84v6.84ZM192.47,213.17c-11.32,0-20.5,9.19-20.51,20.51,0,3.78-3.06,6.84-6.84,6.84s-6.84-3.06-6.84-6.84c.03-18.87,15.32-34.15,34.18-34.18,3.78,0,6.84,3.06,6.84,6.84s-3.06,6.84-6.84,6.84ZM212.98,394.34c0,3.78-3.06,6.84-6.84,6.84s-6.84-3.06-6.84-6.84v-6.84c0-3.78,3.06-6.84,6.84-6.84s6.84,3.06,6.84,6.84v6.84ZM240.33,394.34c0,3.78-3.06,6.84-6.84,6.84s-6.84-3.06-6.84-6.84v-6.84c0-3.78,3.06-6.84,6.84-6.84s6.84,3.06,6.84,6.84v6.84ZM267.67,394.34c0,3.78-3.06,6.84-6.84,6.84s-6.84-3.06-6.84-6.84v-6.84c0-3.78,3.06-6.84,6.84-6.84s6.84,3.06,6.84,6.84v6.84Z"/>
    <g>
      <path class="cls-3" d="M130.94,387.5v6.84c0,3.78-3.06,6.84-6.84,6.84s-6.84-3.06-6.84-6.84v-6.84c0-3.78,3.06-6.84,6.84-6.84s6.84,3.06,6.84,6.84Z"/>
      <path class="cls-3" d="M158.29,387.5v6.84c0,3.78-3.06,6.84-6.84,6.84s-6.84-3.06-6.84-6.84v-6.84c0-3.78,3.06-6.84,6.84-6.84s6.84,3.06,6.84,6.84Z"/>
      <path class="cls-3" d="M185.64,387.5v6.84c0,3.78-3.06,6.84-6.84,6.84s-6.84-3.06-6.84-6.84v-6.84c0-3.78,3.06-6.84,6.84-6.84s6.84,3.06,6.84,6.84Z"/>
      <path class="cls-3" d="M212.98,387.5v6.84c0,3.78-3.06,6.84-6.84,6.84s-6.84-3.06-6.84-6.84v-6.84c0-3.78,3.06-6.84,6.84-6.84s6.84,3.06,6.84,6.84Z"/>
      <path class="cls-3" d="M240.33,387.5v6.84c0,3.78-3.06,6.84-6.84,6.84s-6.84-3.06-6.84-6.84v-6.84c0-3.78,3.06-6.84,6.84-6.84s6.84,3.06,6.84,6.84Z"/>
      <path class="cls-3" d="M267.67,387.5v6.84c0,3.78-3.06,6.84-6.84,6.84s-6.84-3.06-6.84-6.84v-6.84c0-3.78,3.06-6.84,6.84-6.84s6.84,3.06,6.84,6.84Z"/>
      <path class="cls-3" d="M199.31,206.33c-.01,3.77-3.07,6.83-6.84,6.84-11.32,0-20.5,9.19-20.51,20.51,0,3.78-3.06,6.84-6.84,6.84s-6.84-3.06-6.84-6.84c.03-18.87,15.32-34.15,34.18-34.18,3.77.01,6.83,3.07,6.84,6.84Z"/>
    </g>
    <path class="cls-4" d="M281.35,401.14v6.84c0,3.78-3.05,6.86-6.84,6.87H110.43c-3.78-.02-6.84-3.09-6.84-6.87v-6.84c0,3.78,3.05,6.86,6.84,6.87h164.08c3.78-.02,6.84-3.09,6.84-6.87Z"/>
  </g>
  <path class="cls-3" d="M82.72,118.28h-12.13V51.3c0-9,7.58-16.33,16.89-16.33h210.62c8.34,0,15.12,6.57,15.12,14.65v22.46h-12.13v-22.46c0-1.39-1.34-2.52-2.99-2.52H87.48c-2.62,0-4.76,1.88-4.76,4.19v66.98Z"/>
  <rect class="cls-3" x="179.77" width="12.13" height="42.46"/>
</svg>