<?xml version="1.0" encoding="UTF-8"?>
<svg id="Layer_1" data-name="Layer 1" xmlns="http://www.w3.org/2000/svg" viewBox="0 0 558.69 392.58">
  <defs>
    <style>
      .cls-1 {
        fill: #65c3a5;
      }

      .cls-2 {
        fill: #ff6b43;
      }

      .cls-3 {
        fill: #479e7e;
      }

      .cls-4 {
        fill: #e9f3e8;
      }

      .cls-5 {
        fill: #033726;
      }

      .cls-6 {
        fill: #ffc941;
      }
    </style>
  </defs>
  <path class="cls-4" d="M558.69,256.36v-34.72l-15.14-15.35-8.26,12.59-17.13-15.74-2.15-16.31-13.76-7.88h-12.39l-1.58-3.22c-42.37,56.51-80.07,116.09-114.59,177.6l7.89,3.78,28.43-10.2,19.27,16.52,12.39-17.9,30.29,23.4,49.44,22.64c7.42,3.4,15.76-2.41,15.16-10.55l-2.65-35.5-15.58-4.59c-5.52-1.63-9.62-6.26-10.58-11.93l40.86,8.92,10.08-14.43v-11.01l-26.16-17.9,3.25-6.69,22.91-31.55Z"/>
  <path class="cls-1" d="M126.1,221.24l-9.3,16.43-8.28,10.12v12.39h-23.4l-10.77,16.52-16.76,11.01v11.01l-49.56,24.78s-10.42,12.29-7.52,23.43l102.69,19.85,15.53-8.39,11.82-4.6,30.89,2.65,18.67-2.65,13.94,3.36c-12.77-60.61-27.38-120.86-50.87-179.33l-17.07,43.4Z"/>
  <path class="cls-3" d="M280.09,177.13c-14.52-34.81-30.96-68.8-50.78-101.43l-39.57,68.75-8.72,10.85-35.73,17.16-2.11,5.38c6.97,17.35,13.08,34.87,18.67,52.49,30.47-12.19,61.27-24.96,91.37-41.89,6.92-3.46,18.52-4.59,26.87-11.31Z"/>
  <path class="cls-4" d="M280.09,177.13c-8.35,6.72-19.95,7.85-26.87,11.31-30.1,16.93-60.9,29.7-91.37,41.89,13.25,41.78,23.22,84.21,32.2,126.84l10.53,2.54,15.46,3.73,8.26-16.52,38.68,8.4,23.73-3.52,32.59-2.12,15.79-5.94c-18.47-56.24-36.38-112.41-58.98-166.6Z"/>
  <path class="cls-6" d="M268.6,18.7c-22.8,20.27-34.61,48.86-34.61,48.86l-4.69,8.14c34.74,57.2,59.18,118.54,80.89,181.22,9.24-7.31,17.93-15.41,25.69-24.89,3.23-3.5,6.51-6.9,9.77-10.32-1.97-69.4-7.63-138.23-15.28-208.21-6.84-1.58-45.12-9.6-61.78,5.2Z"/>
  <path class="cls-1" d="M459.47,117.22l-5.57-11.33-.46-1.84-20.01-79.27h-23.4l-17.46-4.99-13.59-6.85-21.27-12.94-26.16,13.77s-.48-.12-1.16-.27c7.64,69.98,13.31,138.81,15.28,208.21,36.6-38.39,74.88-71.84,113.81-104.48Z"/>
  <path class="cls-2" d="M335.89,232.02c-7.76,9.49-16.45,17.59-25.69,24.89,9.96,28.75,19.34,57.77,28.88,86.81l8.13-3.06,26.49,12.68c34.52-61.51,72.21-121.09,114.59-177.6l-28.81-58.53c-42.4,35.55-84.06,71.99-123.58,114.81Z"/>
  <path class="cls-5" d="M357.33,11.73l16.33,9.93.35.21.36.18,13.59,6.85.86.43.93.26,17.46,4.99,1.37.39h16.88l18.53,73.4.26,1.04.48.97,35.97,73.08,2.81,5.7h16.03l7.02,4.02,1.49,11.29.48,3.67,2.73,2.51,17.13,15.74,8.85,8.13,6.59-10.05,1.33-2.03,3.33,3.37v27.21l-20.96,28.87-.53.73-.39.81-3.25,6.7-3.83,7.91,7.26,4.96,21.71,14.86v2.42l-4.34,6.22-34.21-7.47-14.75-3.22,2.51,14.89c1.59,9.46,8.57,17.32,17.76,20.03l8.81,2.59,2.12,28.46c.01.2-.02.27-.11.36-.08.09-.2.16-.41.16-.06,0-.13,0-.21-.02l-48.37-22.15-29.36-22.69-8.51-6.58-6.12,8.84-5.95,8.59-10.68-9.15-4.51-3.86-5.59,2.01-24.42,8.77-30.54-14.62-3.93-1.88-4.08,1.54-22.5,8.47-31.07,2.03-.42.03-.41.06-21.88,3.24-36.86-8-7.75-1.68-3.55,7.09-4.63,9.26-7.56-1.83-24.46-5.91-1.9-.46-1.93.28-17.52,2.49-29.73-2.55-2.36-.2-2.21.86-11.82,4.6-.59.23-.56.3-12.32,6.66-90.51-17.5c.86-2.48,2.27-5.03,3.64-6.99l47.46-23.73,5.64-2.82v-11.81l12.16-7.99,1.78-1.17,1.16-1.78,7.75-11.89h28.08v-18.96l5.97-7.3.55-.68.43-.76,9.3-16.43.35-.63.26-.67,17.72-45.05,32.11-15.42,2.09-1,1.45-1.81,8.72-10.85.5-.62.39-.69,44.26-76.9.33-.58.25-.61c.11-.26,11.28-26.75,31.96-45.13,4.56-4.06,13.13-6.2,24.76-6.2,14.7,0,28.75,3.5,28.88,3.54l3.8.97,3.47-1.83,21.04-11.07M357.7,0l-26.16,13.77s-15.14-3.85-31.39-3.85c-11.66,0-23.9,1.98-31.55,8.78-22.8,20.27-34.61,48.85-34.61,48.85l-44.26,76.9-8.72,10.85-35.73,17.16-19.18,48.78-9.3,16.43-8.28,10.12v12.39h-23.4l-10.77,16.52-16.77,11.02v11.01l-49.56,24.78s-10.42,12.29-7.52,23.43l102.69,19.85,15.53-8.39,11.82-4.6,30.89,2.65,18.67-2.65,24.46,5.91,15.46,3.73,8.26-16.52,38.68,8.4,23.73-3.52,32.59-2.13,23.92-9,34.38,16.46,28.43-10.21,19.27,16.52,12.39-17.9,30.29,23.4,49.44,22.64c1.48.68,3,.99,4.47.99,5.92,0,11.17-5.02,10.69-11.53l-2.65-35.5-15.58-4.59c-5.52-1.62-9.62-6.26-10.58-11.93l40.86,8.92,10.08-14.43v-11.01l-26.16-17.9,3.25-6.7,22.91-31.55v-34.72l-15.14-15.35-8.26,12.59-17.13-15.74-2.15-16.3-13.76-7.88h-12.39l-35.97-73.08-20.48-81.11h-23.4l-17.46-4.99-13.59-6.85L357.7,0h0Z"/>
  <g>
    <path class="cls-5" d="M373.18,189.11l10.78,13.87-13.87,10.78-10.78-13.87,13.87-10.78Z"/>
    <path class="cls-5" d="M345.43,210.66l10.78,13.87-13.87,10.78-10.78-13.87,13.87-10.78Z"/>
    <path class="cls-5" d="M317.68,232.22l10.78,13.87-13.87,10.78-10.78-13.87,13.87-10.78Z"/>
    <path class="cls-5" d="M400.93,167.56l10.78,13.87-13.87,10.78-10.78-13.87,13.87-10.78Z"/>
    <path class="cls-5" d="M456.43,124.45l10.78,13.87-13.87,10.78-10.78-13.87,13.87-10.78Z"/>
    <path class="cls-5" d="M511.92,81.35l10.78,13.87-13.87,10.78-10.78-13.87,13.87-10.78Z"/>
    <path class="cls-5" d="M484.18,102.9l10.78,13.87-13.87,10.78-10.78-13.87,13.87-10.78Z"/>
    <path class="cls-5" d="M428.68,146.01l10.78,13.87-13.87,10.78-10.78-13.87,13.87-10.78Z"/>
  </g>
  <g>
    <path class="cls-5" d="M272.87,208.38l15.91-7.45,7.45,15.91-15.91,7.45-7.45-15.91Z"/>
    <path class="cls-5" d="M287.76,240.2l15.91-7.45,7.45,15.91-15.91,7.45-7.45-15.91Z"/>
    <path class="cls-5" d="M302.65,272.03l15.91-7.45,7.45,15.91-15.91,7.45-7.45-15.91Z"/>
    <path class="cls-5" d="M318.7,302.5l15.91-7.45,7.45,15.91-15.91,7.45-7.45-15.91Z"/>
    <path class="cls-5" d="M333.98,334.38l15.91-7.45,7.45,15.91-15.91,7.45-7.45-15.91Z"/>
    <path class="cls-5" d="M347.63,365.78l15.91-7.45,7.45,15.91-15.91,7.45-7.45-15.91Z"/>
    <path class="cls-5" d="M257.98,176.55l15.91-7.45,7.45,15.91-15.91,7.45-7.45-15.91Z"/>
    <path class="cls-5" d="M228.2,112.9l15.91-7.45,7.45,15.91-15.91,7.45-7.45-15.91Z"/>
    <path class="cls-5" d="M198.42,49.25l15.91-7.45,7.45,15.91-15.91,7.45-7.45-15.91Z"/>
    <path class="cls-5" d="M213.31,81.08l15.91-7.45,7.45,15.91-15.91,7.45-7.45-15.91Z"/>
    <path class="cls-5" d="M243.09,144.73l15.91-7.45,7.45,15.91-15.91,7.45-7.45-15.91Z"/>
  </g>
</svg>