<?xml version="1.0" encoding="UTF-8"?>
<svg id="Layer_1" data-name="Layer 1" xmlns="http://www.w3.org/2000/svg" viewBox="0 0 422.97 439.57">
  <defs>
    <style>
      .cls-1 {
        fill: #65c3a5;
      }

      .cls-2 {
        fill: #e9f3e8;
      }

      .cls-3 {
        fill: #033726;
      }

      .cls-4 {
        fill: #ffc941;
      }
    </style>
  </defs>
  <g>
    <path class="cls-3" d="M374.54,43.3h20.59v257.35h-20.59V43.3Z"/>
    <path class="cls-3" d="M384.83,315.21l-38.14-38.18,14.52-14.52,23.62,23.58,23.62-23.58,14.52,14.52-38.14,38.18Z"/>
    <path class="cls-3" d="M408.46,81.44l-23.62-23.58-23.62,23.58-14.52-14.52,38.14-38.18,38.14,38.18-14.52,14.52Z"/>
  </g>
  <g>
    <path class="cls-3" d="M36.87,391.14h257.35v20.59H36.87v-20.59Z"/>
    <g>
      <path class="cls-3" d="M270.6,439.57l-14.52-14.52,23.58-23.62-23.58-23.62,14.52-14.52,38.18,38.14-38.18,38.14Z"/>
      <path class="cls-3" d="M60.5,439.57l-38.18-38.14,38.18-38.14,14.52,14.52-23.58,23.62,23.58,23.62-14.52,14.52Z"/>
    </g>
  </g>
  <g>
    <g id="multi_parcel_auction-land-seperate-star-auction-reserve" data-name="multi parcel auction-land-seperate-star-auction-reserve">
      <path class="cls-2" d="M263.33,214.95l-87.71,2.15v112.01H6.36v-172.99h154.87v-81.99h-55.21l.11-68.35,219.31-1.46v172.88l-61.04,1.46-1.08,36.3Z"/>
      <polygon class="cls-1" points="261.78 129.5 263.33 214.95 175.61 217.1 175.61 332.28 305.23 332.28 326.07 331.83 323.45 129.5 261.78 129.5"/>
      <polygon class="cls-4" points="106.02 74.12 106.13 5.78 106.13 5.61 5.68 5.61 5.68 135.28 6.13 156.12 161.23 156.12 161.23 74.12 106.02 74.12"/>
      <g>
        <path class="cls-3" d="M161.24,68.52h-49.53l.1-62.85c0-3.13-2.54-5.66-5.66-5.66H5.66C2.54,0,0,2.54,0,5.66v129.74l.46,20.84c.07,3.08,2.59,5.53,5.66,5.53h155.11c3.13,0,5.66-2.54,5.66-5.66v-81.93c0-3.13-2.54-5.66-5.66-5.66ZM155.57,150.47H11.68l-.33-15.23V11.29h89.12l-.1,62.85c0,3.13,2.54,5.66,5.66,5.66h49.54v70.67Z"/>
        <path class="cls-3" d="M323.45,125.14h-61.69c-3.06,0-5.57,2.43-5.66,5.49l-.9,81.44-82.37,1.99c-3.07.07-5.53,2.59-5.53,5.66v115.16c0,3.13,2.54,5.66,5.66,5.66h129.77l20.83-.46c3.08-.06,5.54-2.58,5.54-5.66v-203.63c0-3.13-2.54-5.66-5.66-5.66ZM317.79,328.89l-15.23.33h-123.93v-103.97l82.21-1.99c3.01-.07,5.44-2.49,5.53-5.5l.9-81.31h50.52v192.43Z"/>
        <path class="cls-3" d="M12.05,171.98H.72v157.14c0,3.13,2.54,5.66,5.66,5.66h151.83v-11.33H12.05v-151.47Z"/>
        <path class="cls-3" d="M319.77,68.1h11.33V5.77c0-3.13-2.54-5.66-5.66-5.66H123.71v11.33h196.07v56.67Z"/>
        <path class="cls-3" d="M22.84,235.33h11.33v11.33h-11.33v-11.33Z"/>
        <path class="cls-3" d="M68.14,235.33h11.33v11.33h-11.33v-11.33Z"/>
        <path class="cls-3" d="M45.49,235.33h11.33v11.33h-11.33v-11.33Z"/>
        <path class="cls-3" d="M90.79,235.33h11.33v11.33h-11.33v-11.33Z"/>
        <path class="cls-3" d="M113.44,235.33h11.33v11.33h-11.33v-11.33Z"/>
        <path class="cls-3" d="M136.09,235.33h11.33v11.33h-11.33v-11.33Z"/>
        <path class="cls-3" d="M200.86,136.06h11.33v11.33h-11.33v-11.33Z"/>
        <path class="cls-3" d="M200.86,158.71h11.33v11.33h-11.33v-11.33Z"/>
        <path class="cls-3" d="M200.86,181.36h11.33v11.33h-11.33v-11.33Z"/>
        <path class="cls-3" d="M200.86,113.4h11.33v11.33h-11.33v-11.33Z"/>
        <path class="cls-3" d="M200.86,68.1h11.33v11.33h-11.33v-11.33Z"/>
        <path class="cls-3" d="M200.86,22.8h11.33v11.33h-11.33v-11.33Z"/>
        <path class="cls-3" d="M200.86,45.45h11.33v11.33h-11.33v-11.33Z"/>
        <path class="cls-3" d="M200.86,90.75h11.33v11.33h-11.33v-11.33Z"/>
      </g>
    </g>
    <path class="cls-3" d="M78.12,310.51H24.18v-53.98h20.59v33.4h33.36v20.59Z"/>
    <path class="cls-3" d="M304.61,78.62h-20.59v-33.4h-33.36v-20.59h53.94v53.98Z"/>
  </g>
</svg>