<?xml version="1.0" encoding="UTF-8"?>
<svg id="Layer_1" data-name="Layer 1" xmlns="http://www.w3.org/2000/svg" viewBox="0 0 599.8 398.14">
  <defs>
    <style>
      .cls-1 {
        fill: #65c3a5;
      }

      .cls-2 {
        fill: #e9f3e8;
      }

      .cls-3 {
        fill: #033726;
      }

      .cls-4 {
        fill: #ffc941;
      }
    </style>
  </defs>
  <g>
    <g>
      <path class="cls-2" d="M593.54,276.02v-37.27c0-37.95-30.76-68.71-68.71-68.71h0c-37.95,0-68.71,30.76-68.71,68.71v37.27h-.24v12.93c0,1.12.09,2.24.24,3.33v1.66h.31c1.3,6.25,4.97,11.84,10.39,15.46l12.19,12.14c2.47,1.65,3.95,4.42,3.95,7.39v63.91l82.32.51v-65.68c0-2.81,1.33-5.45,3.59-7.13l17.15-12.7c4.88-3.61,7.76-9.33,7.76-15.4v-16.43h-.24Z"/>
      <circle class="cls-2" cx="524.82" cy="134.88" r="35.87"/>
    </g>
    <path class="cls-3" d="M571.3,397.18l-94.36-.59v-69.89c0-.96-.48-1.85-1.27-2.38l-.91-.74-11.8-11.75c-5.05-3.51-8.85-8.4-11.03-14.1h-1.53l-.31-7.29c-.15-1.23-.24-2.47-.24-3.73l.24-50.19c0-41.21,33.53-74.73,74.73-74.73s74.73,33.53,74.73,74.73l.24,53.69c0,7.94-3.81,15.51-10.19,20.24l-17.15,12.7c-.73.54-1.15,1.38-1.15,2.29v71.73ZM488.98,384.63l70.29.45v-59.62c0-4.69,2.25-9.16,6.02-11.96l17.15-12.7c3.33-2.47,5.32-6.42,5.32-10.57l-.24-53.69c0-34.57-28.12-62.7-62.69-62.7s-62.7,28.12-62.7,62.7l-.24,50.19c0,.85.07,1.69.19,2.53l.24,1.25c1,4.82,3.79,8.97,7.84,11.68l.9.74,11.83,11.78c3.83,2.8,6.09,7.24,6.09,12.01v57.92Z"/>
    <path class="cls-3" d="M524.83,174.54c-23.1,0-41.89-18.79-41.89-41.89s18.79-41.89,41.89-41.89,41.89,18.79,41.89,41.89-18.79,41.89-41.89,41.89ZM524.83,102.8c-16.46,0-29.86,13.39-29.86,29.85s13.39,29.85,29.86,29.85,29.85-13.39,29.85-29.85-13.39-29.85-29.85-29.85Z"/>
  </g>
  <g id="multi_parcel_auction-land-seperate-star-auction-reserve" data-name="multi parcel auction-land-seperate-star-auction-reserve">
    <path class="cls-2" d="M307.86,251.3l-102.55,2.52v130.95H7.43v-202.25h181.06v-95.86h-64.55l.13-79.91,256.4-1.71v202.12l-71.37,1.71-1.26,42.44Z"/>
    <polygon class="cls-1" points="306.05 151.4 307.86 251.3 205.31 253.82 205.31 388.48 356.85 388.48 381.21 387.95 378.15 151.4 306.05 151.4"/>
    <polygon class="cls-4" points="123.95 86.66 124.08 6.75 124.08 6.55 6.64 6.55 6.64 158.16 7.17 182.52 188.5 182.52 188.5 86.66 123.95 86.66"/>
    <g>
      <path class="cls-3" d="M188.5,80.1h-57.91l.11-73.48c0-3.66-2.96-6.62-6.62-6.62H6.62C2.96,0,0,2.96,0,6.62v151.68l.54,24.36c.08,3.6,3.02,6.47,6.62,6.47h181.34c3.66,0,6.62-2.96,6.62-6.62v-95.78c0-3.66-2.96-6.62-6.62-6.62ZM181.88,175.92H13.66l-.39-17.81V13.19h104.19l-.11,73.48c0,3.66,2.96,6.62,6.62,6.62h57.92v82.62Z"/>
      <path class="cls-3" d="M378.15,146.3h-72.12c-3.58,0-6.51,2.84-6.62,6.42l-1.05,95.22-96.3,2.33c-3.59.09-6.46,3.03-6.46,6.62v134.64c0,3.66,2.96,6.62,6.62,6.62h151.72l24.36-.54c3.6-.08,6.48-3.02,6.48-6.62v-238.07c0-3.66-2.96-6.62-6.62-6.62ZM371.53,384.51l-17.81.39h-144.88v-121.55l96.11-2.32c3.52-.08,6.36-2.91,6.46-6.43l1.05-95.06h59.07v224.98Z"/>
      <path class="cls-3" d="M14.09,201.06H.85v183.71c0,3.66,2.96,6.62,6.62,6.62h177.5v-13.24H14.09v-177.09Z"/>
      <path class="cls-3" d="M373.85,79.62h13.24V6.75c0-3.66-2.96-6.62-6.62-6.62h-235.85v13.24h229.23v66.26Z"/>
      <path class="cls-3" d="M26.71,275.12h13.24v13.24h-13.24v-13.24Z"/>
      <path class="cls-3" d="M79.67,275.12h13.24v13.24h-13.24v-13.24Z"/>
      <path class="cls-3" d="M53.19,275.12h13.24v13.24h-13.24v-13.24Z"/>
      <path class="cls-3" d="M106.15,275.12h13.24v13.24h-13.24v-13.24Z"/>
      <path class="cls-3" d="M132.63,275.12h13.24v13.24h-13.24v-13.24Z"/>
      <path class="cls-3" d="M159.11,275.12h13.24v13.24h-13.24v-13.24Z"/>
      <path class="cls-3" d="M234.83,159.06h13.24v13.24h-13.24v-13.24Z"/>
      <path class="cls-3" d="M234.83,185.55h13.24v13.24h-13.24v-13.24Z"/>
      <path class="cls-3" d="M234.83,212.03h13.24v13.24h-13.24v-13.24Z"/>
      <path class="cls-3" d="M234.83,132.58h13.24v13.24h-13.24v-13.24Z"/>
      <path class="cls-3" d="M234.83,79.62h13.24v13.24h-13.24v-13.24Z"/>
      <path class="cls-3" d="M234.83,26.66h13.24v13.24h-13.24v-13.24Z"/>
      <path class="cls-3" d="M234.83,53.14h13.24v13.24h-13.24v-13.24Z"/>
      <path class="cls-3" d="M234.83,106.1h13.24v13.24h-13.24v-13.24Z"/>
    </g>
  </g>
  <g>
    <g>
      <path class="cls-4" d="M467.18,273.8v-37.27c0-37.95-30.76-68.71-68.71-68.71h0c-37.95,0-68.71,30.76-68.71,68.71v37.27h-.24v12.93c0,1.12.09,2.24.24,3.33v1.66h.31c1.3,6.25,4.97,11.84,10.39,15.46l12.19,12.14c2.47,1.65,3.95,4.42,3.95,7.39v63.91l82.32.51v-65.68c0-2.81,1.33-5.45,3.59-7.13l17.15-12.7c4.88-3.61,7.76-9.33,7.76-15.4v-16.43h-.24Z"/>
      <circle class="cls-4" cx="398.47" cy="132.66" r="35.87"/>
    </g>
    <path class="cls-3" d="M444.95,394.96l-94.36-.59v-69.89c0-.95-.48-1.84-1.27-2.37l-.91-.75-11.8-11.75c-5.05-3.51-8.85-8.4-11.03-14.1h-1.53l-.31-7.29c-.15-1.23-.24-2.47-.24-3.73l.24-50.2c0-41.21,33.53-74.72,74.73-74.72s74.73,33.52,74.73,74.72l.24,53.7c0,7.94-3.81,15.51-10.19,20.24l-17.14,12.7c-.73.53-1.15,1.39-1.15,2.29v71.73ZM362.62,382.41l70.29.45v-59.63c0-4.7,2.26-9.17,6.03-11.96l17.14-12.69c3.33-2.47,5.32-6.42,5.32-10.57l-.24-53.7c0-34.57-28.12-62.69-62.7-62.69s-62.7,28.12-62.7,62.69l-.24,50.2c0,.85.07,1.69.19,2.52l.24,1.26c1,4.82,3.78,8.97,7.84,11.67l.91.75,11.83,11.78c3.83,2.8,6.09,7.24,6.09,12.01v57.93Z"/>
    <path class="cls-3" d="M398.47,172.32c-23.1,0-41.89-18.79-41.89-41.89s18.79-41.89,41.89-41.89,41.89,18.79,41.89,41.89-18.79,41.89-41.89,41.89ZM398.47,100.58c-16.46,0-29.85,13.39-29.85,29.85s13.39,29.85,29.85,29.85,29.85-13.39,29.85-29.85-13.39-29.85-29.85-29.85Z"/>
  </g>
  <rect class="cls-3" x="208.84" y="385.38" width="360.52" height="12.03"/>
</svg>