<?xml version="1.0" encoding="UTF-8"?>
<svg id="Layer_1" data-name="Layer 1" xmlns="http://www.w3.org/2000/svg" viewBox="0 0 426.18 467.02">
  <defs>
    <style>
      .cls-1 {
        fill: #65c3a5;
      }

      .cls-2 {
        fill: #ff6b43;
      }

      .cls-3 {
        fill: #e9f3e8;
      }

      .cls-4 {
        fill: #033726;
      }

      .cls-5 {
        fill: #ffc941;
      }
    </style>
  </defs>
  <g id="multi_parcel_auction-land-seperate-star-auction-reserve" data-name="multi parcel auction-land-seperate-star-auction-reserve">
    <path class="cls-3" d="M314.21,256.48l-104.66,2.57v133.65H7.59v-206.42h184.8v-97.84h-65.88l.14-81.55,261.69-1.74v206.28l-72.84,1.74-1.28,43.31Z"/>
    <polygon class="cls-1" points="312.36 154.52 314.21 256.48 209.55 259.05 209.55 396.48 364.21 396.48 389.07 395.94 385.94 154.52 312.36 154.52"/>
    <polygon class="cls-5" points="126.51 88.45 126.64 6.89 126.64 6.69 6.78 6.69 6.78 161.42 7.32 186.28 192.38 186.28 192.38 88.45 126.51 88.45"/>
    <g>
      <path class="cls-4" d="M192.39,81.76h-59.1l.11-75c0-3.73-3.03-6.76-6.76-6.76H6.76C3.03,0,0,3.03,0,6.76v154.8l.55,24.86c.08,3.67,3.08,6.6,6.76,6.6h185.08c3.73,0,6.76-3.03,6.76-6.76v-97.76c0-3.73-3.03-6.76-6.76-6.76ZM185.63,179.55H13.94l-.4-18.18V13.47h106.34l-.11,75c0,3.73,3.03,6.76,6.76,6.76h59.11v84.32Z"/>
      <path class="cls-4" d="M385.95,149.31h-73.61c-3.65,0-6.65,2.9-6.76,6.55l-1.07,97.18-98.28,2.38c-3.67.09-6.6,3.09-6.59,6.76v137.41c0,3.73,3.03,6.76,6.76,6.76h154.84l24.86-.55c3.68-.08,6.62-3.08,6.61-6.76v-242.98c0-3.73-3.03-6.76-6.76-6.76ZM379.19,392.44l-18.18.4h-147.87v-124.06l98.09-2.37c3.59-.08,6.49-2.97,6.59-6.56l1.07-97.02h60.28v229.61Z"/>
      <path class="cls-4" d="M14.38,205.21H.86v187.5c0,3.73,3.03,6.76,6.76,6.76h181.16v-13.51H14.38v-180.74Z"/>
      <path class="cls-4" d="M381.56,81.26h13.51V6.89c0-3.73-3.03-6.76-6.76-6.76h-240.71v13.51h233.95v67.62Z"/>
      <path class="cls-4" d="M27.26,280.79h13.51v13.51h-13.51v-13.51Z"/>
      <path class="cls-4" d="M81.31,280.79h13.51v13.51h-13.51v-13.51Z"/>
      <path class="cls-4" d="M54.28,280.79h13.51v13.51h-13.51v-13.51Z"/>
      <path class="cls-4" d="M108.34,280.79h13.51v13.51h-13.51v-13.51Z"/>
      <path class="cls-4" d="M135.36,280.79h13.51v13.51h-13.51v-13.51Z"/>
      <path class="cls-4" d="M162.39,280.79h13.51v13.51h-13.51v-13.51Z"/>
      <path class="cls-4" d="M239.67,162.34h13.51v13.51h-13.51v-13.51Z"/>
      <path class="cls-4" d="M239.67,189.37h13.51v13.51h-13.51v-13.51Z"/>
      <path class="cls-4" d="M239.67,216.4h13.51v13.51h-13.51v-13.51Z"/>
      <path class="cls-4" d="M239.67,135.32h13.51v13.51h-13.51v-13.51Z"/>
      <path class="cls-4" d="M239.67,81.26h13.51v13.51h-13.51v-13.51Z"/>
      <path class="cls-4" d="M239.67,27.21h13.51v13.51h-13.51v-13.51Z"/>
      <path class="cls-4" d="M239.67,54.24h13.51v13.51h-13.51v-13.51Z"/>
      <path class="cls-4" d="M239.67,108.29h13.51v13.51h-13.51v-13.51Z"/>
    </g>
  </g>
  <g>
    <circle class="cls-2" cx="358.62" cy="399.46" r="61.41"/>
    <path class="cls-4" d="M358.62,467.02c-37.25,0-67.56-30.31-67.56-67.56s30.31-67.56,67.56-67.56,67.56,30.31,67.56,67.56-30.31,67.56-67.56,67.56ZM358.62,344.19c-30.48,0-55.27,24.79-55.27,55.27s24.8,55.27,55.27,55.27,55.27-24.79,55.27-55.27-24.8-55.27-55.27-55.27Z"/>
  </g>
</svg>