<svg width="52" height="61" viewBox="0 0 52 61" fill="none" xmlns="http://www.w3.org/2000/svg">
<ellipse cx="25.7273" cy="51.9837" rx="25.4545" ry="8.6775" fill="#85C0A4" fill-opacity="0.5"/>
<ellipse cx="25" cy="51.9838" rx="17.4545" ry="4.33875" fill="#00773F" fill-opacity="0.5"/>
<path d="M18.0195 33.6714L18.0195 33.6714C18.8982 33.7124 19.6801 33.274 20.1194 32.5946V50.2567C20.1194 51.7621 21.2846 53.076 22.8284 53.148C24.4582 53.2241 25.8107 51.9335 25.8107 50.3223V35.1481C25.8107 35.1125 25.8406 35.0773 25.886 35.0773C25.9311 35.0773 25.9613 35.1128 25.9613 35.1481V50.2564C25.9613 51.7618 27.1265 53.0757 28.6704 53.1477C30.3001 53.2238 31.6527 51.9331 31.6527 50.322V32.5654C32.048 33.1939 32.7251 33.6336 33.5263 33.6711L33.5264 33.6711C34.8773 33.734 35.9995 32.664 35.9995 31.327V16.8867C35.9995 14.4932 34.046 12.5586 31.6436 12.5586H31.3359L31.3356 12.5593H20.1285C17.7264 12.5593 15.7726 14.4935 15.7726 16.8874V31.2752C15.7726 32.521 16.7369 33.6115 18.0195 33.6714Z" fill="#F7F3F0" stroke="#7E7165"/>
<path d="M29.7044 11.6975C32.0041 9.41435 32.0041 5.7126 29.7044 3.42943C27.4047 1.14626 23.6761 1.14626 21.3764 3.42943C19.0766 5.7126 19.0766 9.41435 21.3764 11.6975C23.6761 13.9807 27.4047 13.9807 29.7044 11.6975Z" fill="#F7F3F0" stroke="#7E7165"/>
</svg>
