<svg width="52" height="62" viewBox="0 0 52 62" fill="none" xmlns="http://www.w3.org/2000/svg">
<ellipse cx="25.7273" cy="52.9275" rx="25.4545" ry="8.6775" fill="#85C0A4" fill-opacity="0.5"/>
<ellipse cx="25" cy="52.9276" rx="17.4545" ry="4.33875" fill="#85C0A4" fill-opacity="0.5"/>
<path d="M18.0195 34.6152L18.0195 34.6153C18.8982 34.6562 19.6801 34.2178 20.1194 33.5385V51.2006C20.1194 52.706 21.2846 54.0198 22.8284 54.0919C24.4582 54.168 25.8107 52.8773 25.8107 51.2661V36.0919C25.8107 36.0563 25.8406 36.0211 25.886 36.0211C25.9311 36.0211 25.9613 36.0567 25.9613 36.0919V51.2002C25.9613 52.7056 27.1265 54.0195 28.6704 54.0915C30.3001 54.1676 31.6527 52.877 31.6527 51.2658V33.5093C32.048 34.1378 32.7251 34.5775 33.5263 34.6149L33.5264 34.6149C34.8773 34.6779 35.9995 33.6079 35.9995 32.2709V17.8306C35.9995 15.437 34.046 13.5024 31.6436 13.5024H31.3359L31.3356 13.5031H20.1285C17.7264 13.5031 15.7726 15.4373 15.7726 17.8312V32.2191C15.7726 33.4648 16.7369 34.5553 18.0195 34.6152Z" fill="#083F2F" stroke="#7E7165"/>
<path d="M29.7044 12.6414C32.0041 10.3582 32.0041 6.65645 29.7044 4.37328C27.4047 2.09011 23.6761 2.09011 21.3764 4.37328C19.0766 6.65645 19.0766 10.3582 21.3764 12.6414C23.6761 14.9245 27.4047 14.9245 29.7044 12.6414Z" fill="#083F2F" stroke="#7E7165"/>
</svg>
