<svg width="43" height="42" viewBox="0 0 43 42" fill="none" xmlns="http://www.w3.org/2000/svg">
<ellipse cx="21.5" cy="35.9434" rx="17.5" ry="6" fill="#85C0A4" fill-opacity="0.5"/>
<ellipse cx="21" cy="35.9434" rx="12" ry="3" fill="#85C0A4" fill-opacity="0.5"/>
<path d="M19.4997 36.903C18.3478 36.8489 17.4884 35.8656 17.4884 34.7497V22.9639C17.1517 23.276 16.6938 23.4594 16.1936 23.436L16.1936 23.436C15.2213 23.3903 14.5 22.5614 14.5 21.6251V11.6767C14.5 9.93785 15.9116 8.52976 17.6509 8.52976H25.2585L25.2587 8.5293H25.5676C27.3072 8.5293 28.7185 9.93767 28.7185 11.6762V21.6609C28.7185 22.6713 27.8746 23.4836 26.8546 23.4358L26.8545 23.4358C26.4134 23.415 26.0239 23.2331 25.7301 22.953L23.5395 36.4033L23.5161 36.9027C22.6084 36.8601 21.8823 36.2406 21.6152 35.4338M19.4997 36.903C19.4997 36.903 19.4997 36.903 19.4997 36.903L19.5232 36.4035L19.4997 36.903ZM19.4997 36.903C20.4866 36.9493 21.3345 36.3179 21.6152 35.4338M21.6152 35.4338C21.6792 35.2323 21.7137 35.0177 21.7137 34.795V34.7495V24.3029C21.7137 24.362 21.6658 24.4082 21.6092 24.4082C21.5524 24.4082 21.5047 24.3622 21.5047 24.3029V34.7495C21.5047 34.7647 21.5049 34.7799 21.5052 34.795C21.5099 35.0157 21.548 35.2307 21.6152 35.4338Z" fill="#083F2F" stroke="#7E7165"/>
<path d="M24.3441 8.19815C25.9858 6.55887 25.9858 3.90109 24.3441 2.26181C22.7023 0.622538 20.0405 0.622539 18.3988 2.26181C16.757 3.90109 16.757 6.55887 18.3988 8.19815C20.0405 9.83742 22.7023 9.83742 24.3441 8.19815Z" fill="#083F2F" stroke="#7E7165"/>
</svg>
