<svg width="31" height="32" viewBox="0 0 31 32" fill="none" xmlns="http://www.w3.org/2000/svg">
<ellipse cx="15.8523" cy="25.5918" rx="12.3295" ry="4.272" fill="#85C0A4" fill-opacity="0.5"/>
<ellipse cx="15.5" cy="25.5921" rx="8.45455" ry="2.136" fill="#00773F" fill-opacity="0.5"/>
<path d="M14.4358 26.4186C13.5358 26.3759 12.8782 25.603 12.8782 24.7416V16.641C12.6537 16.7728 12.3892 16.8435 12.1065 16.8301L12.1064 16.8301C11.333 16.7934 10.7727 16.1305 10.7727 15.3969V8.31365C10.7727 7.00083 11.8286 5.92904 13.1404 5.92904H18.4076L18.4078 5.92871H18.718C20.03 5.92871 21.0857 7.00072 21.0857 8.31332V15.4224C21.0857 16.2186 20.426 16.8682 19.6176 16.8299L19.6176 16.8299C19.3821 16.8188 19.1664 16.7495 18.9802 16.638L17.2892 25.919L17.2655 26.4184C16.6827 26.3908 16.2016 26.057 15.9348 25.5913M14.4358 26.4186C14.4358 26.4186 14.4358 26.4186 14.4358 26.4186L14.4595 25.9192L14.4358 26.4186ZM14.4358 26.4186C15.0785 26.4491 15.6413 26.1069 15.9348 25.5913M15.9348 25.5913C16.0722 25.35 16.1506 25.0707 16.1506 24.7739V24.7415V17.3035C16.1506 17.4205 16.0553 17.5225 15.9292 17.5225C15.803 17.5225 15.7079 17.4206 15.7079 17.3035V24.7415C15.7079 24.7523 15.708 24.7631 15.7082 24.7739C15.7138 25.0659 15.7948 25.3468 15.9348 25.5913Z" fill="#F7F3F0" stroke="#7E7165"/>
<path d="M17.9587 5.94057C19.1721 4.71619 19.1721 2.73108 17.9587 1.50669C16.7453 0.282311 14.778 0.282312 13.5647 1.50669C12.3513 2.73108 12.3513 4.71619 13.5647 5.94057C14.778 7.16495 16.7453 7.16495 17.9587 5.94057Z" fill="#F7F3F0" stroke="#7E7165"/>
</svg>
