<svg width="32" height="32" viewBox="0 0 32 32" fill="none" xmlns="http://www.w3.org/2000/svg">
<g clip-path="url(#clip0_2_150)">
<path opacity="0.5" d="M30.5384 10.5138C26.9648 9.59247 23.1764 10.0302 19.907 11.7421C19.5156 11.919 19.1643 12.1737 18.8744 12.4906C18.5846 12.8076 18.3622 13.1802 18.2209 13.5858C17.9846 14.6443 18.819 15.8455 19.5526 16.9052C20.2935 17.9735 20.9926 18.9815 20.5803 19.9033C20.2726 20.5926 19.4713 20.9815 17.9821 21.1661C12.7292 21.8172 11.6092 24.5458 11.0073 26.0116C10.9108 26.2749 10.79 26.5287 10.6467 26.7698C9.75024 28.2035 8.62042 29.4772 7.30396 30.5384H17.1033C17.1329 30.4744 17.1612 30.4289 17.1944 30.3538C17.7938 29.0221 18.9089 26.5396 24.8978 25.7975C27.4455 25.4824 27.4356 23.8652 27.2043 21.0344C26.995 18.4916 26.7489 15.3618 30.5384 14.6738V10.5138Z" fill="#85C0A4"/>
<path opacity="0.25" d="M30.5385 1H28.2554C21.5908 1.47508 16.1028 4.68492 13.1502 6.41046L12.8031 6.61477C11.4898 7.37908 10.7858 8.27631 10.8708 9.07631C10.9639 9.45947 11.1636 9.80845 11.4467 10.0829C11.7298 10.3573 12.0849 10.546 12.4708 10.6271C13.1392 10.7555 13.7395 11.1193 14.1627 11.6524C14.5858 12.1856 14.8039 12.8528 14.7772 13.5329C14.5811 14.4493 14.0934 15.2774 13.3872 15.8934C12.681 16.5093 11.7942 16.8798 10.8597 16.9495C6.33169 17.5108 6.42892 19.2474 6.50769 20.6418C6.59602 21.1157 6.52686 21.6054 6.31077 22.0363C5.07138 23.8923 3.32862 24.2935 1.12308 24.8006L1 24.8302V30.5385H4.56923C6.24923 30.1212 7.90461 28.6677 9.62277 26.0868C9.71978 25.9134 9.80212 25.7323 9.86892 25.5452C10.5163 23.9674 11.864 20.6837 17.8308 19.9452C19.2252 19.7717 19.4308 19.4615 19.4566 19.4012C19.5871 19.112 18.9828 18.2418 18.5422 17.6068C17.7065 16.4018 16.6665 14.9028 17.0185 13.3188C17.1884 12.7434 17.4785 12.2106 17.8695 11.7555C18.2605 11.3004 18.7435 10.9335 19.2868 10.6788C22.742 8.85881 26.7413 8.35834 30.5385 9.27077V1Z" fill="#85C0A4"/>
<path opacity="0.75" d="M30.5382 15.9219C28.1924 16.4437 28.2059 18.2111 28.4299 20.9336C28.6354 23.432 28.8914 26.5422 25.049 27.0185C20.2244 27.6166 19.0182 29.3865 18.4644 30.5385H30.5382V15.9219Z" fill="#85C0A4"/>
<path d="M0 0V32H32V0H0ZM22.1403 1.23077C18.8562 2.31177 15.7089 3.77101 12.7618 5.57908L12.4135 5.78092C10.0185 7.17908 9.79692 8.672 9.87815 9.43754C9.98746 10.0603 10.2769 10.6374 10.7107 11.0974C11.1444 11.5574 11.7035 11.8802 12.3188 12.0258C12.9046 12.2178 13.8757 12.6831 13.7834 13.6455C13.6147 14.2823 13.2486 14.8493 12.7375 15.265C12.2265 15.6808 11.5969 15.9238 10.9391 15.9594C5.26892 16.6609 5.42523 19.4462 5.51015 20.9415C5.53063 21.1555 5.53269 21.3709 5.51631 21.5852C4.57477 22.9969 3.23323 23.3354 1.23077 23.7969V1.23077H22.1403ZM30.7692 30.7692H18.6954C19.2492 29.6172 20.4554 27.8474 25.28 27.2492C29.1225 26.7729 28.8665 23.6628 28.6609 21.1643C28.4369 18.4431 28.4234 16.6745 30.7692 16.1526V30.7692ZM30.7692 14.9046C26.9785 15.5926 27.2258 18.7225 27.4351 21.264C27.6665 24.0948 27.6751 25.7132 25.1286 26.0271C19.1397 26.7705 18.0258 29.2517 17.4252 30.5858C17.392 30.6597 17.3637 30.7052 17.3342 30.7692H7.53477C8.85123 29.7081 9.98106 28.4343 10.8775 27.0006C11.0209 26.7596 11.1416 26.5058 11.2382 26.2425C11.8412 24.7778 12.9612 22.048 18.2129 21.3969C19.7022 21.2123 20.5034 20.8222 20.8111 20.1342C21.2234 19.2111 20.5243 18.2043 19.7834 17.136C19.0498 16.0763 18.2154 14.8751 18.4505 13.8166C18.5921 13.4111 18.8147 13.0387 19.1048 12.7219C19.3949 12.4052 19.7463 12.1508 20.1378 11.9742C23.4069 10.2614 27.1953 9.82281 30.7692 10.7434V14.9046ZM30.7692 9.50154C26.9721 8.58911 22.9727 9.08958 19.5175 10.9095C18.9743 11.1642 18.4913 11.5312 18.1003 11.9863C17.7093 12.4414 17.4192 12.9742 17.2492 13.5495C16.8972 15.1335 17.9385 16.6326 18.7729 17.8375C19.2135 18.4726 19.8178 19.3428 19.6874 19.632C19.6615 19.6923 19.456 20.0012 18.0615 20.176C12.0948 20.9145 10.7471 24.1982 10.0997 25.776C10.0329 25.9631 9.95055 26.1442 9.85354 26.3175C8.13415 28.8985 6.48 30.352 4.8 30.7692H1.23077V25.0609L1.35385 25.0314C3.56062 24.5243 5.30338 24.1231 6.54031 22.2671C6.7564 21.8362 6.82556 21.3465 6.73723 20.8726C6.65969 19.4782 6.56246 17.7415 11.0905 17.1803C12.025 17.1106 12.9117 16.7401 13.618 16.1241C14.3242 15.5082 14.8119 14.68 15.008 13.7637C15.0349 13.0832 14.8168 12.4155 14.3934 11.8821C13.9699 11.3487 13.3692 10.9848 12.7003 10.8566C12.315 10.7752 11.9606 10.5865 11.678 10.3124C11.3953 10.0382 11.1959 9.68969 11.1028 9.30708C11.0166 8.50708 11.7206 7.60985 13.0338 6.84554L13.3809 6.64123C16.3335 4.91569 21.8215 1.70585 28.4862 1.23077H30.7692V9.50154Z" fill="#5D5449"/>
</g>
<defs>
<clipPath id="clip0_2_150">
<rect width="32" height="32" fill="white"/>
</clipPath>
</defs>
</svg>
