<?xml version="1.0" ?><svg id="Layer_1" style="enable-background:new 0 0 48 48;" version="1.1" viewBox="0 0 48 48" xml:space="preserve" xmlns="http://www.w3.org/2000/svg" xmlns:xlink="http://www.w3.org/1999/xlink"><g><path d="M5.3,28.4c3.2,3.2,7.4,4.8,11.6,4.8c3.9,0,7.7-1.4,10.8-4.1l2.3,2.3l-3,3L38.6,46c1,1,2.3,1.5,3.7,1.5S45,47,46,46   s1.5-2.3,1.5-3.7S47,39.6,46,38.6L34.4,27l-3,3l-2.3-2.3c5.7-6.4,5.5-16.3-0.7-22.4c-6.4-6.4-16.8-6.4-23.2,0   C-1.1,11.7-1.1,22.1,5.3,28.4z M45.5,42.3c0,0.9-0.3,1.7-0.9,2.3c-1.2,1.2-3.3,1.2-4.5,0l-6.8-6.8l4.5-4.5l6.8,6.8   C45.2,40.6,45.5,41.4,45.5,42.3z M36.3,31.8l-4.5,4.5l-2-2l4.5-4.5L36.3,31.8z M6.7,6.7c2.8-2.8,6.5-4.2,10.2-4.2   c3.7,0,7.4,1.4,10.2,4.2c5.6,5.6,5.6,14.7,0,20.3c-5.6,5.6-14.7,5.6-20.3,0C4,24.3,2.5,20.7,2.5,16.9S4,9.4,6.7,6.7z"/><path d="M8.7,19l-1.7,1l2.2,3.9l1.7-1l-0.6-1.1l1.9-1.1c0.9,1.1,2.2,1.9,3.7,2.1V25h-1.2v2h4.5v-2h-1.2v-2.2c1.5-0.2,2.8-1,3.7-2.1   l1.9,1.1l-0.6,1.1l1.7,1l2.2-3.9l-1.7-1l-0.6,1.1L22.5,19c0.2-0.7,0.4-1.4,0.4-2.1s-0.1-1.5-0.4-2.1l1.9-1.1l0.6,1.1l1.7-1   l-2.2-3.9l-1.7,1l0.6,1.1L21.6,13c-0.9-1.1-2.2-1.9-3.7-2.1V8.7h1.2v-2h-4.5v2h1.2v2.2c-1.5,0.2-2.8,1-3.7,2.1l-1.9-1.1l0.6-1.1   l-1.7-1l-2.2,3.9l1.7,1l0.6-1.1l1.9,1.1c-0.2,0.7-0.4,1.4-0.4,2.1s0.1,1.5,0.4,2.1l-1.9,1.1L8.7,19z M16.9,12.8   c2.2,0,4.1,1.8,4.1,4.1s-1.8,4.1-4.1,4.1s-4.1-1.8-4.1-4.1S14.6,12.8,16.9,12.8z"/></g></svg>