<svg width="32" height="32" viewBox="0 0 32 32" fill="none" xmlns="http://www.w3.org/2000/svg">
<rect x="3" y="3" width="11" height="11" fill="#85C0A4"/>
<rect x="18" y="18" width="11" height="11" fill="#BBDFCE"/>
<path fill-rule="evenodd" clip-rule="evenodd" d="M2 30H15V17H2V30ZM3 18H14V22.684L12.67 22.796C12.67 22.796 11.706 22.986 11.354 23.098C10.853 23.257 10.589 22.851 9.826 22.108C9.29573 21.42 8.47046 21.0244 7.602 21.042C6.67359 20.923 5.75502 21.3246 5.212 22.087C4.906 22.54 5.222 23.335 4.712 24.125C4.233 24.342 3.6967 24.3985 3.183 24.286L3 24.251V18ZM3 25.374L3.31 25.421C4.00054 25.4368 4.68538 25.2927 5.311 25C5.65781 24.6058 5.86823 24.1103 5.911 23.587C6.037 22.367 6.272 21.992 7.561 22.001C8.30163 21.9713 8.99661 22.3585 9.361 23.004C10.371 23.883 10.914 24.286 11.654 24.052C11.7657 24.019 11.8793 23.9922 11.994 23.972L13.999 23.772V29H3V25.374ZM2 15H15V2H2V15ZM3 14V10.432C4.65156 11.1603 6.01553 12.4149 6.879 14H3ZM14 3V9.704C9.904 8.754 8.218 4.912 7.629 3H14ZM3 3H6.585C7.152 4.993 9.015 9.71 14 10.728V14H7.962C6.754 10.804 3.2 9.418 3 9.343V3ZM17 2V15H30V2H17ZM23 3H26V6H23V3ZM24 7V9H20V6H22V7H24ZM29 14H18V3H22V5H19V10H22V13H29V14ZM29 12H23V10H25V9H29V12ZM29 8H25V7H27V3H29V8ZM17 30H30V17H17V30ZM29.01 29H26V22H29.01V29ZM17.99 18H29.01V21H17.99V18ZM17.99 22H25V25H22V26H25V29H17.99V22Z" fill="#EFE9E4"/>
</svg>
