<svg width="40" height="40" viewBox="0 0 40 40" fill="none" xmlns="http://www.w3.org/2000/svg">
<path fill-rule="evenodd" clip-rule="evenodd" d="M31.25 2.5H8.75V36.8663L20 28.5287L31.25 36.8663V2.5ZM30 34.3837L20 26.9725L10 34.3837V3.75H30V34.3837Z" fill="#5D5449"/>
<path fill-rule="evenodd" clip-rule="evenodd" d="M25.333 12.7974L22.1351 12.5165L20.8753 9.37533C20.7358 8.99852 20.3883 8.75 20.0009 8.75C19.6134 8.75 19.2659 8.99852 19.1264 9.37533L17.8652 12.5165L14.6673 12.7974C14.2699 12.7983 13.9181 13.0652 13.7952 13.4591C13.6722 13.8529 13.806 14.2845 14.1267 14.529L16.5554 16.7246L15.821 19.9999C15.7092 20.3953 15.8429 20.8216 16.1572 21.0717C16.3068 21.1848 16.4872 21.245 16.672 21.2438C16.8723 21.2403 17.0678 21.1791 17.2368 21.067L19.9986 19.3165L22.7589 21.0654C23.0804 21.3103 23.5166 21.3116 23.8394 21.0686C24.1622 20.8256 24.2981 20.3935 24.1762 19.9984L23.4418 16.7246L25.872 14.5306C26.193 14.286 26.3282 13.8523 26.2048 13.4583C26.0815 13.0643 25.7306 12.7976 25.333 12.7974Z" fill="#85C0A4" stroke="#5D5449" stroke-width="0.5"/>
</svg>
