<svg width="32" height="32" viewBox="0 0 32 32" fill="none" xmlns="http://www.w3.org/2000/svg">
<g clip-path="url(#clip0_31_7099)">
<mask id="mask0_31_7099" style="mask-type:alpha" maskUnits="userSpaceOnUse" x="0" y="0" width="32" height="32">
<path d="M0 0H32V32H0V0Z" fill="#5D5449"/>
</mask>
<g mask="url(#mask0_31_7099)">
<path d="M25 16.2205C25.0011 18.3473 24.1803 20.4017 22.6908 22L17.3659 16.9837C17.5371 16.6525 17.5938 16.2792 17.5282 15.9161C17.4625 15.553 17.2778 15.2184 17 14.9593L22.2656 10C23.1339 10.816 23.8225 11.7857 24.2918 12.8532C24.761 13.9207 25.0017 15.0651 25 16.2205Z" fill="#85C0A4"/>
<path d="M29 16C29 18.5712 28.2376 21.0846 26.8091 23.2224C25.3806 25.3602 23.3503 27.0265 20.9749 28.0104C18.5994 28.9944 15.9856 29.2518 13.4638 28.7502C10.9421 28.2486 8.6257 27.0105 6.80762 25.1924C4.98953 23.3743 3.7514 21.0579 3.2498 18.5362C2.74819 16.0144 3.00563 13.4006 3.98957 11.0251C4.97351 8.64968 6.63975 6.61935 8.77759 5.19089C10.9154 3.76244 13.4288 3 16 3C19.4478 3 22.7544 4.36964 25.1924 6.80761C27.6304 9.24558 29 12.5522 29 16ZM27.7505 16C27.7505 13.676 27.0613 11.4041 25.7702 9.47178C24.479 7.53942 22.6438 6.03333 20.4967 5.14397C18.3496 4.2546 15.987 4.0219 13.7076 4.4753C11.4282 4.92869 9.33449 6.04782 7.69116 7.69115C6.04782 9.33449 4.9287 11.4282 4.4753 13.7076C4.02191 15.987 4.25461 18.3496 5.14397 20.4967C6.03334 22.6438 7.53943 24.479 9.47178 25.7702C11.4041 27.0613 13.676 27.7505 16 27.7505C19.1154 27.7471 22.1022 26.5081 24.3052 24.3052C26.5081 22.1022 27.7471 19.1154 27.7505 16ZM17.8932 16C17.8971 15.5847 17.7655 15.1795 17.5185 14.8457C17.2715 14.5118 16.9224 14.2675 16.5242 14.1498C16.1259 14.0321 15.7001 14.0473 15.3113 14.1931C14.9225 14.339 14.5917 14.6075 14.3692 14.9581C14.1466 15.3088 14.0443 15.7223 14.0778 16.1363C14.1112 16.5502 14.2786 16.942 14.5547 17.2523C14.8307 17.5626 15.2003 17.7745 15.6075 17.856C16.0147 17.9375 16.4374 17.8841 16.8116 17.7039L22.5088 23.4012L23.4012 22.5088L17.7039 16.8116C17.8271 16.5587 17.8918 16.2813 17.8932 16Z" fill="#5D5449"/>
</g>
</g>
<defs>
<clipPath id="clip0_31_7099">
<rect width="32" height="32" fill="white"/>
</clipPath>
</defs>
</svg>
