<svg viewBox="0 0 512 512" xml:space="preserve" xmlns="http://www.w3.org/2000/svg" enable-background="new 0 0 512 512"><path d="M4.5 450.2H74V61.8H4.5v388.4zM49.1 70.8h17.4v15.6H49.1V70.8zm0 27.3h17.4v15.6H49.1V98.1zm0 27.3h17.4V141H49.1v-15.6zm0 27.3h17.4v15.6H49.1v-15.6zm0 27.3h17.4v15.6H49.1V180zm0 27.3h17.4v15.6H49.1v-15.6zm0 27.3h17.4v15.6H49.1v-15.6zm0 27.3h17.4v15.6H49.1v-15.6zm0 27.3h17.4v15.6H49.1v-15.6zm0 27.3h17.4V332H49.1v-15.5zm0 27.3h17.4v15.6H49.1v-15.6zm0 27.3h17.4v15.6H49.1v-15.6zm0 27.2h17.4v15.6H49.1v-15.6zm0 27.3h17.4v15.6H49.1v-15.6zM12 70.8h17.4v15.6H12V70.8zm0 27.3h17.4v15.6H12V98.1zm0 27.3h17.4V141H12v-15.6zm0 27.3h17.4v15.6H12v-15.6zm0 27.3h17.4v15.6H12V180zm0 27.3h17.4v15.6H12v-15.6zm0 27.3h17.4v15.6H12v-15.6zm0 27.3h17.4v15.6H12v-15.6zm0 27.3h17.4v15.6H12v-15.6zm0 27.3h17.4V332H12v-15.5zm0 27.3h17.4v15.6H12v-15.6zm0 27.3h17.4v15.6H12v-15.6zm0 27.2h17.4v15.6H12v-15.6zm0 27.3h17.4v15.6H12v-15.6zM438 61.8v388.4h69.5V61.8H438zm24.9 379.4h-17.4v-15.6h17.4v15.6zm0-27.3h-17.4v-15.6h17.4v15.6zm0-27.3h-17.4V371h17.4v15.6zm0-27.3h-17.4v-15.6h17.4v15.6zm0-27.3h-17.4v-15.6h17.4V332zm0-27.3h-17.4v-15.6h17.4v15.6zm0-27.3h-17.4v-15.6h17.4v15.6zm0-27.3h-17.4v-15.6h17.4v15.6zm0-27.3h-17.4v-15.6h17.4v15.6zm0-27.3h-17.4V180h17.4v15.5zm0-27.3h-17.4v-15.6h17.4v15.6zm0-27.3h-17.4v-15.6h17.4v15.6zm0-27.2h-17.4V98.1h17.4v15.6zm0-27.3h-17.4V70.8h17.4v15.6zM500 441.2h-17.4v-15.6H500v15.6zm0-27.3h-17.4v-15.6H500v15.6zm0-27.3h-17.4V371H500v15.6zm0-27.3h-17.4v-15.6H500v15.6zm0-27.3h-17.4v-15.6H500V332zm0-27.3h-17.4v-15.6H500v15.6zm0-27.3h-17.4v-15.6H500v15.6zm0-27.3h-17.4v-15.6H500v15.6zm0-27.3h-17.4v-15.6H500v15.6zm0-27.3h-17.4V180H500v15.5zm0-27.3h-17.4v-15.6H500v15.6zm0-27.3h-17.4v-15.6H500v15.6zm0-27.2h-17.4V98.1H500v15.6zm0-27.3h-17.4V70.8H500v15.6zM373.3 450.2h62.4V222.3h-61.4l-1 227.9zM406 226.1h26.9v6.9H406v-6.9zm0 10.7h26.9v6.9H406v-6.9zm0 10.7h26.9v6.9H406v-6.9zm0 10.6h26.9v6.9H406v-6.9zm0 10.7h26.9v6.9H406v-6.9zm0 10.6h26.9v6.9H406v-6.9zm0 10.7h26.9v6.9H406v-6.9zm0 10.7h26.9v6.9H406v-6.9zm0 10.6h26.9v6.9H406v-6.9zm0 10.7h26.9v6.9H406v-6.9zm0 10.7h26.9v6.9H406v-6.9zm0 10.6h26.9v6.9H406v-6.9zm0 10.7h26.9v6.9H406v-6.9zm0 10.7h26.9v6.9H406v-6.9zm0 10.6h26.9v6.9H406v-6.9zm0 10.7h26.9v6.9H406v-6.9zm0 10.7h26.9v6.9H406v-6.9zm0 10.6h26.9v6.9H406v-6.9zm0 10.7h26.9v6.9H406v-6.9zm0 10.7h26.9v6.9H406v-6.9zm0 10.6h26.9v6.9H406v-6.9zm-29.3-213.3h26.4v6.9h-26.4v-6.9zm0 10.7h26.4v6.9h-26.4v-6.9zm0 10.7h26.4v6.9h-26.4v-6.9zm0 10.6h26.4v6.9h-26.4v-6.9zm0 10.7h26.4v6.9h-26.4v-6.9zm0 10.6h26.4v6.9h-26.4v-6.9zm0 10.7h26.4v6.9h-26.4v-6.9zm0 10.7h26.4v6.9h-26.4v-6.9zm0 10.6h26.4v6.9h-26.4v-6.9zm0 10.7h26.4v6.9h-26.4v-6.9zm0 10.7h26.4v6.9h-26.4v-6.9zm0 10.6h26.4v6.9h-26.4v-6.9zm0 10.7h26.4v6.9h-26.4v-6.9zm0 10.7h26.4v6.9h-26.4v-6.9zm0 10.6h26.4v6.9h-26.4v-6.9zm0 10.7h26.4v6.9h-26.4v-6.9zm0 10.7h26.4v6.9h-26.4v-6.9zm0 10.6h26.4v6.9h-26.4v-6.9zm0 10.7h26.4v6.9h-26.4v-6.9zm0 10.7h26.4v6.9h-26.4v-6.9zm0 10.6h26.4v6.9h-26.4v-6.9zM77.1 450.2H372V301.6H77.1v148.6zm254.2-78.1H345v11.7h-13.7v-11.7zm0 12.7H345v11h-13.7v-11zm0 14.4H345v11.7h-13.7v-11.7zm0 12.7H345v11h-13.7v-11zm-14.7-39.8h13.7v11.7h-13.7v-11.7zm0 12.7h13.7v11h-13.7v-11zm0 14.4h13.7v11.7h-13.7v-11.7zm0 12.7h13.7v11h-13.7v-11zm-17.4-39.8h13.7v11.7h-13.7v-11.7zm0 12.7h13.7v11h-13.7v-11zm0 14.4h13.7v11.7h-13.7v-11.7zm0 12.7h13.7v11h-13.7v-11zm-14.7-39.8h13.7v11.7h-13.7v-11.7zm0 12.7h13.7v11h-13.7v-11zm0 14.4h13.7v11.7h-13.7v-11.7zm0 12.7h13.7v11h-13.7v-11zm-93.5-49h66.1v83H191v-83zm-41.1 9.2h13.7v11.7h-13.7v-11.7zm0 12.7h13.7v11h-13.7v-11zm0 14.4h13.7v11.7h-13.7v-11.7zm0 12.7h13.7v11h-13.7v-11zm-14.7-39.8h13.7v11.7h-13.7v-11.7zm0 12.7h13.7v11h-13.7v-11zm0 14.4h13.7v11.7h-13.7v-11.7zm0 12.7h13.7v11h-13.7v-11zm-17.3-39.8h13.7v11.7h-13.7v-11.7zm0 12.7h13.7v11h-13.7v-11zm0 14.4h13.7v11.7h-13.7v-11.7zm0 12.7h13.7v11h-13.7v-11zm-14.7-39.8h13.7v11.7h-13.7v-11.7zm0 12.7h13.7v11h-13.7v-11zm0 14.4h13.7v11.7h-13.7v-11.7zm0 12.7h13.7v11h-13.7v-11zM77.1 141.1v157.8H372V141.1H77.1zm50.2 151.5H97v-24.4h30.3v24.4zm0-26.6H97v-25.9h30.3V266zm.7-45.1H97.7v-24.1H128v24.1zm0-26.2H97.7v-26.3H128v26.3zm31.8 97.9h-30.3v-24.4h30.3v24.4zm0-26.6h-30.3v-25.9h30.3V266zm.6-45.1h-30.3v-24.1h30.3v24.1zm0-26.2h-30.3v-26.3h30.3v26.3zm50.8 26.2h-25.5v-25.2h25.5v25.2zm0-27.4h-25.5v-25.2h25.5v25.2zm29 27.4h-26.7v-25.2h26.7v25.2zm0-27.4h-26.7v-25.2h26.7v25.2zm29.4 27.4h-27.2v-25.2h27.2v25.2zm0-27.4h-27.2v-25.2h27.2v25.2zm54.3 99.1h-30.3V269h30.3v23.6zm0-25.8h-30.3V240h30.3v26.8zm1.2-45.9h-30.3v-25.2h30.3v25.2zm0-27.4h-30.3v-25.2h30.3v25.2zm31.2 99.1H326V269h30.3v23.6zm0-25.8H326V240h30.3v26.8zm1.3-45.9h-30.3v-25.2h30.3v25.2zm0-27.4h-30.3v-25.2h30.3v25.2z" fill="#0a543f" class="fill-000000"></path></svg>