<svg viewBox="0 0 512 512" xml:space="preserve" xmlns="http://www.w3.org/2000/svg" enable-background="new 0 0 512 512"><path d="M154.6 485h54V184.5h-54V485zm36.9-295.2h13.6v10.7h-13.6v-10.7zm0 17.5h13.6V218h-13.6v-10.7zm0 17.4h13.6v10.7h-13.6v-10.7zm0 17.5h13.6v10.7h-13.6v-10.7zm0 17.4h13.6v10.7h-13.6v-10.7zm0 17.5h13.6v10.7h-13.6v-10.7zm0 17.4h13.6v10.7h-13.6v-10.7zm0 17.5h13.6v10.7h-13.6V312zm0 17.4h13.6v10.7h-13.6v-10.7zm0 17.5h13.6v10.7h-13.6v-10.7zm0 17.4h13.6V375h-13.6v-10.7zm0 17.5h13.6v10.7h-13.6v-10.7zm0 17.4h13.6v10.7h-13.6v-10.7zm0 17.5h13.6v10.7h-13.6v-10.7zm0 17.4h13.6v10.7h-13.6v-10.7zm0 17.4h13.6v10.7h-13.6v-10.7zm0 17.5h13.6v10.7h-13.6V469zm-32.1-279.2H173v10.7h-13.6v-10.7zm0 17.5H173V218h-13.6v-10.7zm0 17.4H173v10.7h-13.6v-10.7zm0 17.5H173v10.7h-13.6v-10.7zm0 17.4H173v10.7h-13.6v-10.7zm0 17.5H173v10.7h-13.6v-10.7zm0 17.4H173v10.7h-13.6v-10.7zm0 17.5H173v10.7h-13.6V312zm0 17.4H173v10.7h-13.6v-10.7zm0 17.5H173v10.7h-13.6v-10.7zm0 17.4H173V375h-13.6v-10.7zm0 17.5H173v10.7h-13.6v-10.7zm0 17.4H173v10.7h-13.6v-10.7zm0 17.5H173v10.7h-13.6v-10.7zm0 17.4H173v10.7h-13.6v-10.7zm0 17.4H173v10.7h-13.6v-10.7zm0 17.5H173v10.7h-13.6V469zM208.4 155.2c-4.8 10.2-15 17.2-27 17.2-11.9 0-22.2-7.1-26.9-17.2h-.1v28.1h54v-28.1z" fill="#0a543f" class="fill-000000"></path><circle cx="181.4" cy="141.6" r="29.7" fill="#0a543f" class="fill-000000"></circle><path d="M390.3 485h54V184.5h-54V485zm36.9-295.2h13.6v10.7h-13.6v-10.7zm0 17.5h13.6V218h-13.6v-10.7zm0 17.4h13.6v10.7h-13.6v-10.7zm0 17.5h13.6v10.7h-13.6v-10.7zm0 17.4h13.6v10.7h-13.6v-10.7zm0 17.5h13.6v10.7h-13.6v-10.7zm0 17.4h13.6v10.7h-13.6v-10.7zm0 17.5h13.6v10.7h-13.6V312zm0 17.4h13.6v10.7h-13.6v-10.7zm0 17.5h13.6v10.7h-13.6v-10.7zm0 17.4h13.6V375h-13.6v-10.7zm0 17.5h13.6v10.7h-13.6v-10.7zm0 17.4h13.6v10.7h-13.6v-10.7zm0 17.5h13.6v10.7h-13.6v-10.7zm0 17.4h13.6v10.7h-13.6v-10.7zm0 17.4h13.6v10.7h-13.6v-10.7zm0 17.5h13.6v10.7h-13.6V469zm-12.6-279.2h3.8v58.8h-3.8v-58.8zm0 67.9h3.8v58.8h-3.8v-58.8zm0 67.9h3.8v58.8h-3.8v-58.8zm0 67.9h3.8v58.8h-3.8v-58.8zm0 67.8h3.8v18.4h-3.8v-18.4zm-19.5-271.5h13.6v10.7h-13.6v-10.7zm0 17.5h13.6V218h-13.6v-10.7zm0 17.4h13.6v10.7h-13.6v-10.7zm0 17.5h13.6v10.7h-13.6v-10.7zm0 17.4h13.6v10.7h-13.6v-10.7zm0 17.5h13.6v10.7h-13.6v-10.7zm0 17.4h13.6v10.7h-13.6v-10.7zm0 17.5h13.6v10.7h-13.6V312zm0 17.4h13.6v10.7h-13.6v-10.7zm0 17.5h13.6v10.7h-13.6v-10.7zm0 17.4h13.6V375h-13.6v-10.7zm0 17.5h13.6v10.7h-13.6v-10.7zm0 17.4h13.6v10.7h-13.6v-10.7zm0 17.5h13.6v10.7h-13.6v-10.7zm0 17.4h13.6v10.7h-13.6v-10.7zm0 17.4h13.6v10.7h-13.6v-10.7zm0 17.5h13.6v10.7h-13.6V469zM418.4 172.4c-11.9 0-22.2-7.1-26.9-17.2h-.1v28.1h54v-28.1h-.1c-4.6 10.2-14.9 17.2-26.9 17.2z" fill="#0a543f" class="fill-000000"></path><circle cx="418.4" cy="141.6" r="29.7" fill="#0a543f" class="fill-000000"></circle><path d="M9 485h54V130.5H9V485zm49.3-5.3H37.7V136.8h20.6v342.9zM13.6 136.8h19.2v342.9H13.6V136.8zM61.1 129.5V75.4L9 129.3zM5.99 126.64l52.472-54.292 2.229 2.154-52.473 54.292zM449 485h54V130.5h-54V485zm49.4-5.3h-19.2V136.8h19.2v342.9zm-44.7-342.9h20.6v342.9h-20.6V136.8zM450.9 129.5l52.1-.2-52.1-53.9zM451.293 74.504l2.229-2.154 52.465 54.292-2.23 2.154zM65.3 485h85.6V77.5H65.3V485zM70 86.3h76.3v10.2H70V86.3zm0 15.9h76.3v10.2H70v-10.2zm0 15.8h76.3v10.2H70V118zm0 15.8h76.3V144H70v-10.2zm0 15.8h76.3v10.2H70v-10.2zm0 15.8h76.3v10.2H70v-10.2zm0 15.8h76.3v10.2H70v-10.2zm0 15.9h76.3v10.2H70v-10.2zm0 15.8h76.3v10.2H70v-10.2zm0 15.8h76.3v10.2H70v-10.2zm0 15.8h76.3v10.2H70v-10.2zm0 15.8h76.3v10.2H70v-10.2zm0 15.8h76.3v10.2H70v-10.2zm0 15.9h76.3v10.2H70V292zm0 15.8h76.3V318H70v-10.2zm0 15.8h76.3v10.2H70v-10.2zm0 15.8h76.3v10.2H70v-10.2zm0 15.8h76.3v10.2H70v-10.2zm0 15.9h76.3v10.2H70v-10.2zm0 15.8h76.3v10.2H70v-10.2zm0 15.8h76.3v10.2H70v-10.2zm0 15.8h76.3v10.2H70v-10.2zm0 15.8h76.3v10.2H70v-10.2zm0 15.8h76.3v10.2H70v-10.2zm0 15.9h76.3v10.2H70V466zM65.3 45.6h85.6v28.8H65.3zM65.3 38.4h85.6v5.8H65.3zM313.6 372.8H372V383h-58.4zM220.4 372.8h58.4V383h-58.4zM313.6 344H372v11h-58.4zM313.6 358H372v11.7h-58.4z" fill="#0a543f" class="fill-000000"></path><path d="M210.8 485h174.9V262.7H210.8V485zm7.6-1.9c0-34.4 27.9-62.3 62.3-62.3h10v62.3h-72.3zm85.1 0v-62.3h11.7c34.4 0 62.3 27.9 62.3 62.3h-74zm6.8-96.8v-45.7h65.2v45.7h-65.2zm-11.4-68.9v-23.3h78.7v23.3h-78.7zm78.7-25.1h-78.7V269h78.7v23.3zm-159.2-23.2h78.7v23.3h-78.7v1.9h78.7v23.3h-78.7v-48.5zm-1.4 71.5h65.2v45.7H217v-45.7z" fill="#0a543f" class="fill-000000"></path><path d="M220.4 344h58.4v11h-58.4zM220.4 358h58.4v11.7h-58.4zM211.1 259.6H386V38H211.1v221.6zm109.7-18.8h-44.7v-35.4h44.7v35.4zm11.7-184h44.7v35.4h-44.7V56.8zm0 74.3h44.7v35.4h-44.7v-35.4zm0 74.3h44.7v35.4h-44.7v-35.4zM276.2 56.8h44.7v35.4h-44.7V56.8zm-1.6 74.3h44.7v35.4h-44.7v-35.4zM220 56.8h44.7v35.4H220V56.8zm0 74.3h44.7v35.4H220v-35.4zm0 74.3h44.7v35.4H220v-35.4z" fill="#0a543f" class="fill-000000"></path></svg>