<svg viewBox="0 0 512 512" xml:space="preserve" xmlns="http://www.w3.org/2000/svg" enable-background="new 0 0 512 512"><path d="M211.957 246.629h28.113v28.113h-28.113zM80.763 312.226h28.113v28.113H80.763zM211.957 312.226h28.113v28.113h-28.113zM146.36 246.629h28.113v28.113H146.36zM146.36 181.032h28.113v28.113H146.36zM80.763 181.032h28.113v28.113H80.763zM80.763 246.629h28.113v28.113H80.763zM146.36 115.436h28.113v28.113H146.36zM211.957 181.032h28.113v28.113h-28.113zM80.763 115.436h28.113v28.113H80.763zM146.36 312.226h28.113v28.113H146.36zM211.957 115.436h28.113v28.113h-28.113zM80.763 40.468h159.306v28.113H80.763zM408.746 124.807h-23.427v-24.365a4.687 4.687 0 0 0-9.372 0v24.365h-28.221l-.359-43.145a4.686 4.686 0 0 0-4.686-4.647h-.039a4.685 4.685 0 0 0-4.646 4.725l.358 43.067h-23.317v37.484h93.709v-37.484z" fill="#0a543f" class="fill-000000"></path><path d="M485.588 462.161V318.462l-39.357-52.983v196.683h-9.371V171.661H286.924v290.5h-9.371V77.952H43.279v384.209H26.412a4.687 4.687 0 0 0 0 9.372h459.176a4.685 4.685 0 1 0 0-9.372zM202.585 110.75a4.687 4.687 0 0 1 4.686-4.686h37.484a4.687 4.687 0 0 1 4.686 4.686v37.484a4.686 4.686 0 0 1-4.686 4.686h-37.484a4.687 4.687 0 0 1-4.686-4.686V110.75zm0 65.597a4.687 4.687 0 0 1 4.686-4.686h37.484a4.687 4.687 0 0 1 4.686 4.686v37.484a4.686 4.686 0 0 1-4.686 4.686h-37.484a4.687 4.687 0 0 1-4.686-4.686v-37.484zm0 65.596a4.686 4.686 0 0 1 4.686-4.685h37.484a4.686 4.686 0 0 1 4.686 4.685v37.484a4.686 4.686 0 0 1-4.686 4.686h-37.484a4.687 4.687 0 0 1-4.686-4.686v-37.484zm0 65.597a4.687 4.687 0 0 1 4.686-4.686h37.484a4.686 4.686 0 0 1 4.686 4.686v37.484a4.686 4.686 0 0 1-4.686 4.686h-37.484a4.687 4.687 0 0 1-4.686-4.686V307.54zm-65.596-196.79a4.687 4.687 0 0 1 4.686-4.686h37.484a4.687 4.687 0 0 1 4.686 4.686v37.484a4.686 4.686 0 0 1-4.686 4.686h-37.484a4.687 4.687 0 0 1-4.686-4.686V110.75zm0 65.597a4.687 4.687 0 0 1 4.686-4.686h37.484a4.687 4.687 0 0 1 4.686 4.686v37.484a4.686 4.686 0 0 1-4.686 4.686h-37.484a4.687 4.687 0 0 1-4.686-4.686v-37.484zm0 65.596a4.686 4.686 0 0 1 4.686-4.685h37.484a4.686 4.686 0 0 1 4.686 4.685v37.484a4.686 4.686 0 0 1-4.686 4.686h-37.484a4.687 4.687 0 0 1-4.686-4.686v-37.484zm0 65.597a4.686 4.686 0 0 1 4.686-4.686h37.484a4.686 4.686 0 0 1 4.686 4.686v37.484a4.686 4.686 0 0 1-4.686 4.686h-37.484a4.687 4.687 0 0 1-4.686-4.686V307.54zM71.392 110.75a4.687 4.687 0 0 1 4.686-4.686h37.484a4.687 4.687 0 0 1 4.686 4.686v37.484a4.686 4.686 0 0 1-4.686 4.686H76.078a4.687 4.687 0 0 1-4.686-4.686V110.75zm0 65.597a4.687 4.687 0 0 1 4.686-4.686h37.484a4.687 4.687 0 0 1 4.686 4.686v37.484a4.686 4.686 0 0 1-4.686 4.686H76.078a4.687 4.687 0 0 1-4.686-4.686v-37.484zm0 65.596a4.686 4.686 0 0 1 4.686-4.685h37.484a4.686 4.686 0 0 1 4.686 4.685v37.484a4.686 4.686 0 0 1-4.686 4.686H76.078a4.687 4.687 0 0 1-4.686-4.686v-37.484zm0 65.597a4.686 4.686 0 0 1 4.686-4.686h37.484a4.686 4.686 0 0 1 4.686 4.686v37.484a4.686 4.686 0 0 1-4.686 4.686H76.078a4.687 4.687 0 0 1-4.686-4.686V307.54zm121.823 154.621v-84.339h-65.597v84.339h-9.371v-89.024a4.686 4.686 0 0 1 4.686-4.686H197.9a4.686 4.686 0 0 1 4.686 4.686v89.024h-9.371zm121.822 0V204.46a4.687 4.687 0 0 1 9.372 0v257.701h-9.372zm28.113 0V204.46a4.687 4.687 0 0 1 9.372 0v257.701h-9.372zm28.113 0V204.46a4.687 4.687 0 0 1 9.372 0v257.701h-9.372zm28.112 0V204.46a4.687 4.687 0 0 1 9.372 0v257.701h-9.372z" fill="#0a543f" class="fill-000000"></path></svg>