<svg width="17" height="16" viewBox="0 0 17 16" fill="none" xmlns="http://www.w3.org/2000/svg">
<g clip-path="url(#clip0_2_1090)">
<path fill-rule="evenodd" clip-rule="evenodd" d="M1.5 2.00019V4.58219C3.19856 1.10702 7.1886 -0.596907 10.8735 0.579279C14.5584 1.75546 16.8234 5.45595 16.1945 9.27254C15.5656 13.0891 12.2331 15.8672 8.3656 15.799C4.49814 15.7307 1.26575 12.8366 0.772 9.00019H1.782C2.27493 12.3251 5.12261 14.7915 8.48388 14.8046C11.8451 14.8178 14.712 12.3738 15.2309 9.05276C15.7498 5.73176 13.7652 2.52969 10.5601 1.51684C7.35503 0.503987 3.89072 1.98409 2.407 5.00019H4.5V6.00019H0.5V2.00019H1.5Z" fill="#5D5449"/>
</g>
<defs>
<clipPath id="clip0_2_1090">
<rect width="16" height="16" fill="white" transform="translate(0.5)"/>
</clipPath>
</defs>
</svg>
