<svg viewBox="0 0 16.933 16.933" xmlns="http://www.w3.org/2000/svg"><path d="M1.323 5.657c0 1.612 2.536 4.916 5.556 5.19l.265 5.293 2.646-1.588.264-3.704c3.019-.275 5.556-3.58 5.556-5.191h-.02c-.22.834-3.343 1.486-7.123 1.487-3.783 0-6.909-.653-7.13-1.487Z" opacity="1" fill="#fafafa" fill-opacity="1" stroke="none" stroke-width=".529167" stroke-linecap="butt" stroke-linejoin="round" stroke-miterlimit="4" stroke-dasharray="none" class="fill-e2e7fa"></path><path d="M15.081 5.657c0 1.612-2.537 4.916-5.556 5.19l-.265 3.705-2.132 1.28.016.308 2.646-1.588.264-3.704c3.019-.275 5.556-3.58 5.556-5.191z" opacity="1" fill="#f0f2f5" fill-opacity="1" stroke="none" stroke-width=".529167" stroke-linecap="butt" stroke-linejoin="round" stroke-miterlimit="4" stroke-dasharray="none" class="fill-c4d2f0"></path><path d="M12.313 4.234c2.054.29 3.297.792 3.297 1.33 0 .873-3.198 1.58-7.143 1.58-3.946 0-7.144-.707-7.144-1.58 0-.538 1.243-1.04 3.297-1.33" opacity="1" fill="#fafafa" fill-opacity="1" stroke="none" stroke-width=".529167" stroke-linecap="butt" stroke-linejoin="round" stroke-miterlimit="4" stroke-dasharray="none" class="fill-e2e7fa"></path><path d="M5.292 5.027a.528.528 0 0 0-.53.53v1.355c1.116.15 2.397.231 3.705.232 1.307-.001 2.588-.081 3.704-.232V5.556a.528.528 0 0 0-.53-.529z" display="inline" opacity="1" fill="#ffffff" fill-opacity="1" stroke="none" stroke-width=".529167" stroke-linecap="butt" stroke-linejoin="round" stroke-miterlimit="4" stroke-dasharray="none" class="fill-a8c5f7"></path><path d="M12.17 6.383c-1.115.15-2.396.23-3.703.232a28.42 28.42 0 0 1-3.705-.232v.529c1.116.15 2.397.231 3.705.232 1.307-.001 2.588-.081 3.704-.232v-.033z" opacity="1" fill="#ffffff" fill-opacity="1" stroke="none" stroke-width=".529167" stroke-linecap="butt" stroke-linejoin="round" stroke-miterlimit="4" stroke-dasharray="none" class="fill-91b8fb"></path><path d="M4.62 4.234c-2.054.29-3.297.792-3.297 1.33 0 .873 3.198 1.58 7.144 1.58l.186-.002c-3.532-.016-6.357-.654-6.36-1.434.001-.49 1.131-.946 2.999-1.21h6.995c1.867.264 2.998.72 2.998 1.21 0 .288-.393.57-1.128.808.94-.274 1.45-.608 1.453-.952 0-.538-1.243-1.04-3.297-1.33z" opacity="1" fill="#f0f2f5" fill-opacity="1" stroke="none" stroke-width=".529167" stroke-linecap="butt" stroke-linejoin="round" stroke-miterlimit="4" stroke-dasharray="none" class="fill-c4d2f0"></path><path d="M16.14 1.455a.661.661 0 1 1-1.323 0 .661.661 0 0 1 1.323 0z" opacity="1" fill="#ffffff" fill-opacity="1" stroke="none" stroke-width=".529167" stroke-linecap="round" stroke-linejoin="round" stroke-miterlimit="4" stroke-dasharray="none" stroke-dashoffset="0" stroke-opacity="1" class="fill-a8c5f7"></path><path d="M-2.646 2.91a.53.53 0 1 1-1.058 0 .53.53 0 0 1 1.058 0z" transform="scale(-1 1)" opacity="1" fill="#ffffff" fill-opacity="1" stroke="none" stroke-width=".529167" stroke-linecap="round" stroke-linejoin="round" stroke-miterlimit="4" stroke-dasharray="none" stroke-dashoffset="0" stroke-opacity="1" class="fill-a8c5f7"></path><path d="M14.288 2.91a.53.53 0 1 1-1.059 0 .53.53 0 0 1 1.059 0z" opacity="1" fill="#ffffff" fill-opacity="1" stroke="none" stroke-width=".529167" stroke-linecap="round" stroke-linejoin="round" stroke-miterlimit="4" stroke-dasharray="none" stroke-dashoffset="0" stroke-opacity="1" class="fill-a8c5f7"></path><path d="M-.794 1.455a.661.661 0 1 1-1.323 0 .661.661 0 0 1 1.323 0z" transform="scale(-1 1)" opacity="1" fill="#ffffff" fill-opacity="1" stroke="none" stroke-width=".529167" stroke-linecap="round" stroke-linejoin="round" stroke-miterlimit="4" stroke-dasharray="none" stroke-dashoffset="0" stroke-opacity="1" class="fill-a8c5f7"></path><path d="M5.292.794h6.35c.293 0 .529.236.529.529V2.38c0 .293-.236.53-.53.53h-6.35a.528.528 0 0 1-.529-.53V1.323c0-.293.236-.53.53-.53z" display="inline" opacity="1" fill="#ffffff" fill-opacity="1" stroke="none" stroke-width=".529167" stroke-linecap="round" stroke-linejoin="round" stroke-miterlimit="4" stroke-dasharray="none" class="fill-a8c5f7"></path><path d="M11.642.794v1.058c0 .293-.236.53-.53.53h-6.35c0 .292.237.528.53.528h6.35c.293 0 .529-.236.529-.529V1.323a.528.528 0 0 0-.53-.53z" display="inline" opacity="1" fill="#ffffff" fill-opacity="1" stroke="none" stroke-width=".529167" stroke-linecap="round" stroke-linejoin="round" stroke-miterlimit="4" stroke-dasharray="none" class="fill-91b8fb"></path><path d="M5.292 2.91h6.35c.293 0 .529.236.529.53v1.058c0 .293-.236.53-.53.53h-6.35a.528.528 0 0 1-.529-.53V3.44c0-.294.236-.53.53-.53z" display="inline" opacity="1" fill="#ffffff" fill-opacity="1" stroke="none" stroke-width=".529167" stroke-linecap="round" stroke-linejoin="round" stroke-miterlimit="4" stroke-dasharray="none" class="fill-a8c5f7"></path><path d="M11.642 2.91V3.97c0 .293-.236.529-.53.529h-6.35c0 .293.237.53.53.53h6.35c.293 0 .529-.237.529-.53V3.44a.528.528 0 0 0-.53-.53z" display="inline" opacity="1" fill="#ffffff" fill-opacity="1" stroke="none" stroke-width=".529167" stroke-linecap="round" stroke-linejoin="round" stroke-miterlimit="4" stroke-dasharray="none" class="fill-91b8fb"></path><path d="M12.17 6.88V5.555a.528.528 0 0 0-.528-.529h-.53c.294 0 .53.236.53.53v1.322z" display="inline" opacity="1" fill="#ffffff" fill-opacity="1" stroke="none" stroke-width=".529167" stroke-linecap="butt" stroke-linejoin="round" stroke-miterlimit="4" stroke-dasharray="none" class="fill-91b8fb"></path><path d="M20 3c-1.108 0-2 .892-2 2v4c0 1.108.892 2 2 2h2c-1.108 0-2-.892-2-2V5c0-1.108.892-2 2-2h-2zM20 11c-1.108 0-2 .892-2 2v4c0 1.108.892 2 2 2h2c-1.108 0-2-.892-2-2v-4c0-1.108.892-2 2-2h-2z" transform="scale(.26458)" display="inline" opacity="1" fill="#f8f8f8" fill-opacity="1" stroke="none" stroke-width="2.00000119" stroke-linecap="round" stroke-linejoin="round" stroke-miterlimit="4" stroke-dasharray="none" class="fill-f8f8f8"></path><path d="M20 26v-5c0-1.108.892-2 2-2h-2c-1.108 0-2 .892-2 2v5z" transform="scale(.26458)" display="inline" opacity="1" fill="#f8f8f8" fill-opacity="1" stroke="none" stroke-width="2.00000119" stroke-linecap="butt" stroke-linejoin="round" stroke-miterlimit="4" stroke-dasharray="none" class="fill-f8f8f8"></path><path d="M5.5 3a2.5 2.5 0 1 0 0 5c.356 0 .693-.078 1-.213A2.497 2.497 0 0 1 5 5.5c0-1.024.618-1.9 1.5-2.287A2.484 2.484 0 0 0 5.5 3z" transform="scale(.26458)" opacity="1" fill="#f8f8f8" fill-opacity="1" stroke="none" stroke-width="2.00000119" stroke-linecap="round" stroke-linejoin="round" stroke-miterlimit="4" stroke-dasharray="none" stroke-dashoffset="0" stroke-opacity="1" class="fill-f8f8f8"></path><path d="M15.478.794a.661.661 0 1 0 .265 1.266.66.66 0 0 1 0-1.21.657.657 0 0 0-.265-.056z" opacity="1" fill="#f8f8f8" fill-opacity="1" stroke="none" stroke-width=".529167" stroke-linecap="round" stroke-linejoin="round" stroke-miterlimit="4" stroke-dasharray="none" stroke-dashoffset="0" stroke-opacity="1" class="fill-f8f8f8"></path><path d="M5 21.379C5 27.473 14.584 39.96 26 41l1 20 1.941-1.166L28 41C17.745 40.067 8.994 29.908 7.314 23.432c-1.262-.634-2.065-1.323-2.257-2.053Z" transform="scale(.26458)" opacity="1" fill="#f8f8f8" fill-opacity="1" stroke="none" stroke-width="2.00000119" stroke-linecap="butt" stroke-linejoin="round" stroke-miterlimit="4" stroke-dasharray="none" class="fill-f8f8f8"></path><path d="M1.455.53a.93.93 0 0 0-.926.925.93.93 0 0 0 .926.926.93.93 0 0 0 .926-.926.93.93 0 0 0-.926-.926zm3.836 0a.797.797 0 0 0-.793.792v1.059c0 .203.08.388.208.53a.787.787 0 0 0-.208.528v.547c-1 .146-1.812.339-2.396.574-.3.121-.542.252-.725.408-.183.157-.318.36-.318.596v.092c0 .945.674 2.183 1.718 3.279.99 1.039 2.347 1.935 3.846 2.149l.256 5.068c.009.2.228.317.4.214l2.647-1.587a.265.265 0 0 0 .127-.21l.25-3.483c1.5-.213 2.862-1.111 3.853-2.151C15.2 7.839 15.875 6.6 15.875 5.656v-.092c0-.236-.135-.439-.318-.596-.183-.156-.424-.287-.725-.408-.583-.235-1.397-.428-2.397-.573v-.548a.786.786 0 0 0-.207-.529.79.79 0 0 0 .207-.53V1.323a.797.797 0 0 0-.792-.793zm10.188 0a.93.93 0 0 0-.926.925.93.93 0 0 0 .926.926.93.93 0 0 0 .925-.926.93.93 0 0 0-.925-.926zm-14.024.529c.223 0 .397.174.397.396a.392.392 0 0 1-.397.396.392.392 0 0 1-.396-.396c0-.222.174-.396.396-.396zm3.836 0h1.324v1.587H5.291a.258.258 0 0 1-.263-.265V1.322c0-.15.112-.263.263-.263zm1.854 0h4.498c.15 0 .263.112.263.263v1.059a.258.258 0 0 1-.263.265H7.145Zm8.334 0c.222 0 .396.174.396.396a.392.392 0 0 1-.396.396.392.392 0 0 1-.397-.396c0-.222.174-.396.397-.396zm-9.658.528a.265.265 0 1 0 0 .53.265.265 0 0 0 0-.53zm2.116.001a.265.265 0 0 0 0 .53h3.177a.265.265 0 0 0 0-.53zm-4.761.53a.798.798 0 0 0-.795.792.8.8 0 0 0 .795.795c.435 0 .793-.36.793-.795a.796.796 0 0 0-.793-.793zm10.582 0a.796.796 0 0 0-.793.792c0 .435.358.795.793.795a.8.8 0 0 0 .795-.795.798.798 0 0 0-.795-.793zm-10.582.528c.15 0 .264.115.264.264 0 .149-.115.266-.264.266a.263.263 0 0 1-.266-.266c0-.15.117-.264.266-.264zm10.582 0a.26.26 0 0 1 .265.264c0 .149-.116.266-.265.266a.261.261 0 0 1-.264-.266c0-.15.115-.264.264-.264zm-8.467.53h1.324V4.76H5.291a.257.257 0 0 1-.263-.263V3.439c0-.15.112-.263.263-.263zm1.854 0h4.498c.15 0 .263.112.263.263v1.059a.257.257 0 0 1-.263.263H7.145Zm-1.324.528a.265.265 0 1 0 0 .53.265.265 0 0 0 0-.53zm2.116.001a.265.265 0 0 0-.263.264c0 .145.118.262.263.263h3.177a.265.265 0 0 0 .263-.263.265.265 0 0 0-.263-.264zm-3.23 1.322a.79.79 0 0 0-.21.53V6.61c-.368-.056-.712-.118-1.024-.187-.633-.14-1.139-.308-1.465-.479a1.327 1.327 0 0 1-.346-.242c-.065-.07-.074-.11-.074-.139 0-.033.018-.095.133-.193a2.2 2.2 0 0 1 .58-.32c.505-.204 1.262-.39 2.2-.53.005.194.082.37.205.506zm9.926.024c.267.107.466.222.58.32.114.098.133.16.133.193 0 .028-.01.069-.075.139-.064.07-.182.157-.345.242-.327.17-.832.339-1.465.479a15.25 15.25 0 0 1-1.026.187V5.556a.79.79 0 0 0-.207-.53.786.786 0 0 0 .205-.505c.937.14 1.695.326 2.2.53zm-9.342.24h1.324v1.532c-.56-.033-1.093-.08-1.587-.142V5.556c0-.15.112-.265.263-.265zm1.854 0h4.498c.15 0 .263.114.263.265v1.125a28.638 28.638 0 0 1-3.44.197c-.452 0-.893-.01-1.321-.028zm.792.529a.265.265 0 0 0 0 .53h3.177a.265.265 0 0 0 0-.53zm-2.116 0a.265.265 0 1 0 0 .53.265.265 0 0 0 0-.53zM3.357 6.94c1.32.291 3.121.468 5.11.468 1.988 0 3.787-.177 5.107-.469.66-.146 1.2-.318 1.598-.525l.006-.004c-.24.648-.726 1.448-1.405 2.16-.98 1.028-2.323 1.884-3.744 2.013a.265.265 0 0 0-.238.245l-.256 3.568-2.148 1.288-.244-4.85a.265.265 0 0 0-.24-.25c-1.422-.13-2.764-.986-3.743-2.014-.678-.712-1.164-1.511-1.401-2.158.399.209.938.381 1.598.527zm1.405 4.708v.258h-.257a.265.265 0 1 0 0 .53h.257v.257a.265.265 0 0 0 .53 0v-.258h.258a.265.265 0 0 0 0-.529h-.258v-.258a.265.265 0 1 0-.53 0Zm6.88 0v.258h-.258a.265.265 0 0 0 0 .53h.258v.257a.265.265 0 0 0 .529 0v-.258h.258a.265.265 0 1 0 0-.529h-.258v-.258a.265.265 0 1 0-.53 0zM2.38 14.023a.265.265 0 0 0-.264.263v.53h-.529a.265.265 0 1 0 0 .529h.53v.53a.265.265 0 0 0 .528 0v-.53h.53a.265.265 0 0 0 0-.53h-.53v-.529a.265.265 0 0 0-.265-.263zm12.172 0a.265.265 0 0 0-.266.263v.53h-.53a.265.265 0 0 0 0 .529h.53v.53a.265.265 0 0 0 .53 0v-.53h.529a.265.265 0 1 0 0-.53h-.53v-.529a.265.265 0 0 0-.263-.263z" style="line-height:normal;font-variant-ligatures:normal;font-variant-position:normal;font-variant-caps:normal;font-variant-numeric:normal;font-variant-alternates:normal;font-feature-settings:normal;text-indent:0;text-align:start;text-decoration-line:none;text-decoration-style:solid;text-decoration-color:#000;text-transform:none;text-orientation:mixed;white-space:normal;shape-padding:0;isolation:auto;mix-blend-mode:normal;solid-color:#000;solid-opacity:1" color="#000000" font-style="normal" font-variant="normal" font-weight="400" font-stretch="normal" font-size="medium" font-family="sans-serif" text-decoration="none" letter-spacing="normal" word-spacing="normal" writing-mode="lr-tb" direction="ltr" dominant-baseline="auto" baseline-shift="baseline" text-anchor="start" clip-rule="nonzero" display="inline" overflow="visible" visibility="visible" opacity="1" color-interpolation="sRGB" color-interpolation-filters="linearRGB" vector-effect="none" fill="#000000" fill-opacity="1" fill-rule="nonzero" stroke="none" stroke-width=".99999994" stroke-linecap="round" stroke-linejoin="round" stroke-miterlimit="4" stroke-dasharray="none" stroke-dashoffset="0" stroke-opacity="1" color-rendering="auto" image-rendering="auto" shape-rendering="auto" text-rendering="auto" enable-background="accumulate" class="fill-66a0fe"></path></svg>