<svg width="17" height="16" viewBox="0 0 17 16" fill="none" xmlns="http://www.w3.org/2000/svg">
<g clip-path="url(#clip0_60_7402)">
<path d="M13.5 8H4.5V7H13.5V8Z" fill="#EFE9E4"/>
<path d="M13.5 9H4.5V8H13.5V9ZM13.5 10H4.5V11H13.5V10ZM13.5 12H4.5V13H13.5V12Z" fill="#EFE9E4"/>
<path d="M11.9 0H2.5V16H15.5V3.6L11.9 0ZM14.5 15H3.5V1H10.5V5H14.5V15ZM14.5 4H11.5V1H11.81L14.5 3.69V4ZM9.5 3H4.5V2H9.5V3ZM9.5 5H4.5V4H9.5V5ZM13.5 7V14H4.5V7H5.5V13H12.5V7H13.5Z" fill="#EFE9E4"/>
</g>
<defs>
<clipPath id="clip0_60_7402">
<rect width="16" height="16" fill="white" transform="translate(0.5)"/>
</clipPath>
</defs>
</svg>
