<svg xmlns="http://www.w3.org/2000/svg" width="16.5" height="20.5" viewBox="0 0 16.5 20.5">
  <g id="Details" transform="translate(0.25 0.25)">
    <path id="Path_81539" data-name="Path 81539" d="M7,4A1,1,0,0,0,6,5V19a1,1,0,0,0,1,1H17a1,1,0,0,0,1-1V5a1,1,0,0,0-1-1ZM4.879,2.879A3,3,0,0,1,7,2H17a3,3,0,0,1,3,3V19a3,3,0,0,1-3,3H7a3,3,0,0,1-3-3V5A3,3,0,0,1,4.879,2.879ZM8,7A1,1,0,0,1,9,6h6a1,1,0,0,1,0,2H9A1,1,0,0,1,8,7Zm0,4a1,1,0,0,1,1-1h6a1,1,0,0,1,0,2H9A1,1,0,0,1,8,11Zm0,4a1,1,0,0,1,1-1h4a1,1,0,0,1,0,2H9A1,1,0,0,1,8,15Z" transform="translate(-4 -2)" fill="#7e7165" stroke="#f7f3f0" stroke-width="0.5" fill-rule="evenodd"/>
  </g>
</svg>
