<svg id="Map_Layers_Panel" data-name="Map Layers Panel" xmlns="http://www.w3.org/2000/svg" xmlns:xlink="http://www.w3.org/1999/xlink" width="452" height="167" viewBox="0 0 452 167">
  <defs>
    <clipPath id="clip-path">
      <rect id="Rectangle_156024" data-name="Rectangle 156024" width="452" height="167" fill="#002e25"/>
    </clipPath>
  </defs>
  <g id="Group_184726" data-name="Group 184726">
    <rect id="Rectangle_156023" data-name="Rectangle 156023" width="452" height="167" fill="#002e25"/>
  </g>
  <g id="Group_184994" data-name="Group 184994" clip-path="url(#clip-path)">
    <g id="Group_184993" data-name="Group 184993">
      <path id="Path_85170" data-name="Path 85170" d="M-5656.8,1603.4l30.464,75.2-49.979,48.074-21.419,26.655,33.318,80.917-33.318,40.458-40.457,11.9-72.351-34.271-8.092-4.76-10-3.808s-13.328-3.332-15.231-5.236-8.568-4.284-8.568-4.284a12.959,12.959,0,0,0-5.234-2.38c-2.856-.476-8.568-1.9-8.568-1.9l-10.946-4.76s-8.568-1.428-10.948-2.856-10.948-7.14-12.376-8.568-9.521-6.664-9.521-6.664l-7.14-8.092s-2.854-3.808-4.759-3.808-5.235,0-8.092-5.236-6.188-13.8-7.14-15.707-2.855-5.236-2.855-5.236l78.536-15.707s4.76-3.808,3.809-6.187a6.068,6.068,0,0,1,0-5.712c.951-2.38,4.282-1.9,2.379-8.568s-6.663-9.044-6.187-12.376,0,1.428,0-5.712,3.809-7.615,0-13.8-6.664-10-8.567-10-.952,3.332-4.76,0-11.9-2.38-13.327-8.092-2.381,6.664-2.381-8.092,6.665-14.279,0-22.371-5.235-10.471-10-11.423a29.365,29.365,0,0,1-9.521-3.332c-1.427-.952-1.427,2.38-2.854-2.38s-3.809-1.428-4.285-8.568,3.809-6.664,0-9.52-4.759.476-4.759-4.76,1.429-9.52,4.759-9.043,42.363,0,42.363,0,31.89.476,34.746,0,30.463,2.855,34.746,2.855,78.537-1.428,83.772-2.855,61.878,0,61.878,0Z" transform="translate(6097.115 -1649.699)" fill="rgba(198,184,161,0.4)" stroke="rgba(101,195,165,0.2)" stroke-width="1" opacity="0.12" style="mix-blend-mode: overlay;isolation: isolate"/>
      <path id="Path_85171" data-name="Path 85171" d="M-5788.637,1467.985l4.284,21.419s7.14,16.183,8.567,17.611,1.9,2.856,5.235,6.188,10.471,15.232,12.852,17.136,8.092,7.139,10.471,10.471,1.9,11.424,7.14,13.8,8.567,3.808,10.948,6.188,3.808,6.188,7.139,9.519,3.81,12.375,6.188,16.659,7.616,12.852,10.472,15.231,6.188,3.808,6.188,6.664-1.429,8.567,0,10.471,1.9,5.236,2.378,8.568-1.427,6.188,0,9.519,0,5.236,0,5.236l3.334,4.76,2.379,4.76-5.713,8.092,5.713,9.52s.476,7.615,0,9.044-2.854,9.043-2.379,10.471,0,7.616,0,7.616a11.232,11.232,0,0,1-5.712,5.712c-4.285,1.9-9.521,4.76-9.521,4.76s-8.092.476-10.947,2.856-12.375,8.567-12.375,8.567-5.236-1.428-8.093,0-7.14,1.9-10.471,3.808a79.944,79.944,0,0,1-10.472,4.283l-2.855-4.283-9.045-12.375s-5.711-6.664-6.187-7.616-3.332-9.044-3.332-10.471-2.381-6.188,0-8.092,7.615-1.428,6.664-5.235,2.854-18.563,2.854-18.563-.952-5.236-2.854-8.092-9.521-9.52-3.332-9.52,12.375,0,15.231-2.856a70.062,70.062,0,0,0,6.188-7.616h10.471l3.809-6.664,3.331-6.187,4.761-2.38s4.283-1.9,3.332-5.712a66.549,66.549,0,0,0-3.332-9.043l-4.761-7.14-7.14-12.375-3.331,4.284s3.331,4.76,3.331,8.092,3.333,7.616,3.809,9.52,3.331,6.663,3.331,6.663l10.948,14.279s.476.476,0,2.38-2.855,7.615-2.855,9.519-4.284,3.332-3.332,5.236,2.855,8.092,3.332,9.52,1.9,7.14,2.855,8.092,6.664,5.712,7.139,9.52,6.188,11.423,6.188,14.279,1.9,4.284,2.381,8.092a27.381,27.381,0,0,0,2.379,7.615v2.856l-2.379,2.38s-3.808,2.38-2.381,5.236,7.14,5.712,7.14,5.712l11.9,6.664a31.1,31.1,0,0,0,9.521,10.947c6.664,4.76,13.8,8.568,16.659,10.472s9.521,12.852,13.329,15.707,4.283,1.9,7.615,5.236,10,10,13.327,12.375,8.567.952,10.472,4.284a35.2,35.2,0,0,0,9.043,10c3.808,2.855,8.092,4.76,10,8.092s4.283,6.664,5.711,9.519a80.531,80.531,0,0,0,10,14.756c4.284,4.76,5.712,6.188,6.663,8.568s4.761,7.14,6.188,9.52,6.188,9.043,6.188,9.043l6.663,6.664" transform="translate(6016.666 -1578.066)" fill="none" stroke="rgba(101,195,165,0.2)" stroke-width="2" opacity="0.52"/>
      <path id="Path_85172" data-name="Path 85172" d="M-6057.355,1483.224c0,2.856,10.471,19.515,10.471,19.515s5.711,7.616,7.14,10,13.8,16.184,13.8,16.184,6.188,3.332,7.141,5.235,5.235,2.38,7.616,8.092,6.662,17.611,10,20.943,6.664,1.428,8.567,4.76,2.38,3.332,4.76,10.472,5.236,11.9,7.616,17.135,14.278,23.8,14.755,25.227.477,6.664,2.38,11.423,10,22.371,10,22.371,3.332,9.519,5.711,12.851,3.332,6.664,7.616,14.279,8.092,11.424,8.567,14.756-1.9,6.188,0,10.471,2.379,5.712,2.855,8.568-.477,6.188,0,9.043,0,.952-2.855,5.712-2.855,5.236-6.188,8.092-7.615,2.38-10,9.044-3.807,8.567-5.711,13.8,2.855,13.8-4.76,16.183-8.093-.952-10.473,0,3.333-2.38-4.283,0-8.092,4.284-11.423,2.856,3.332,1.428-6.188-2.856a188.065,188.065,0,0,0-20.942-7.615s-3.332-2.856-7.616-6.188,0-.952-7.141-6.187-2.855-5.236-9.52-7.139-7.139-1.428-14.278-5.712.476-4.76-7.615-6.188-1.429-2.856-12.376-3.808-18.088-.476-21.9-4.284-3.807-3.332-8.566-5.712-1.9-8.567-19.991-9.043-28.083-3.333-28.083-3.333" transform="translate(6207.801 -1586.166)" fill="none" stroke="rgba(101,195,165,0.2)" stroke-width="2" opacity="0.52"/>
      <path id="Path_85173" data-name="Path 85173" d="M-5576.187,1517c-.476,2.738-6.663,18.445-9.043,20.349s-13.8,6.664-14.756,9.52-4.759,9.043-6.662,14.755-4.762,17.135-4.762,17.135-2.854,6.188-3.33,9.044-1.428,6.188-2.382,11.424.954,6.663,0,9.043-.476,7.139-2.379,12.375c-1.235,3.4,5.557,4.868,4.761,6.188-.311.529-6.873.9-9.044,1.9-6.189,2.856-13.8,5.236-15.232,8.092s-3.331,6.188-7.139,12.375.476,3.332-5.712,9.043-11.9,10.472-15.708,15.707-4.282,5.236-9.52,12.375-.476,2.856-7.616,9.044-7.614,6.663-12.374,8.091-7.616,3.332-12.376,4.76.952.476-11.9,5.236-14.278-.476-15.708,0-1.427.476-2.854-2.856,5.712-2.38,0-7.14-7.616-5.712-8.092-8.091-3.809-3.332,0-5.712,17.136-6.188,19.517-6.188,6.662-2.856,10.946-3.808,2.857.476,13.8-5.712,7.14-3.332,16.659-8.092,10-7.14,13.327-7.616,4.284-3.332,6.188-4.284-1.9.952,5.711-4.76,4.763-3.808,10-8.568,8.091-8.092,10.472-8.568,2.854-3.808,5.235-3.332.952,1.9,5.711,0,18.563-1.9,23.8-1.9,8.09-.476,10.471,0-2.856-.476,8.568,0,20.465-2.38,25.226-2.38h12.375c4.76,0,5.236-4.284,12.853-3.808s3.808,5.712,11.425,0,5.711-4.76,9.519-8.568,6.188-3.808,6.188-3.808-7.141,1.428,0-2.856,9.043-7.14,12.852-9.519-1.43-6.664,8.567-8.092,16.064-4.64,21.419-6.187" transform="translate(5996.035 -1604.117)" fill="none" stroke="rgba(101,195,165,0.2)" stroke-width="2" opacity="0.52"/>
      <path id="Path_85174" data-name="Path 85174" d="M-5868.632,1884h-7.615s-5.237,6.426-10.472,8.33-10.947,5.236-12.376,7.615,0,1.428-3.808,7.14,0,.952-5.235,7.14-4.761,3.808-9.044,9.52-3.809,7.14-13.329,15.707-7.613,9.043-11.9,10.948-10.947,8.092-15.707,7.615-3.332-.476-10.473,0-23.322,11.424-27.605,15.707-3.332,6.188-5.236,6.188-.476,3.332-9.044,5.236-4.283-.952-10.471,0-11.9-.952-14.757,0-18.086,4.283-18.086,4.283" transform="translate(6157.588 -1799.168)" fill="none" stroke="rgba(101,195,165,0.2)" stroke-width="2" opacity="0.52"/>
      <path id="Path_85175" data-name="Path 85175" d="M-5559.448,2030.073s.478-6.188,0-7.616-2.38-2.855-3.808-5.712-.477-1.9-2.855-5.711-1.428-3.332-5.712-7.139-7.141-2.381-11.9-8.092-5.712-8.092-9.044-10.947,0-1.428-6.663-4.76-11.424-6.188-11.424-6.188" transform="translate(5922.18 -1846.951)" fill="none" stroke="rgba(101,195,165,0.2)" stroke-width="2" opacity="0.52"/>
      <path id="Path_85176" data-name="Path 85176" d="M-5464.564,1671.133l10.473-7.931s8.091-4.284,12.375-5.712,4.283-.476,12.852-2.855a123.3,123.3,0,0,0,16.658-5.712c3.333-1.428,12.852,2.38,15.231,0s7.616-2.38,14.281-7.14,7.615-5.712,11.9-7.616,9.519-6.188,15.707-8.568-1.428,0,9.521-4.76,7.615-5.236,21.418-9.044a177.944,177.944,0,0,0,20.467-6.664" transform="translate(5844.43 -1650.957)" fill="none" stroke="rgba(101,195,165,0.2)" stroke-width="2" opacity="0.52"/>
    </g>
  </g>
</svg>
