<svg width="29" height="26" viewBox="0 0 29 26" fill="none" xmlns="http://www.w3.org/2000/svg">
<path fill-rule="evenodd" clip-rule="evenodd" d="M19.582 6L18.582 7H0V6H19.582ZM0 1H25V0H0V1ZM0 12V13H12.582L13.582 12H0ZM7.548 18.034L7.582 18H0V19H6.978L7.124 18.66C7.22431 18.4263 7.36821 18.2139 7.548 18.034ZM28.352 5.346C28.5905 5.56752 28.729 5.87624 28.736 6.20167C28.743 6.5271 28.6178 6.84146 28.389 7.073L26.589 8.873L26.588 8.872L12.487 22.974L7.022 25.316C6.90682 25.3661 6.77271 25.3408 6.68377 25.2521C6.59484 25.1634 6.56915 25.0293 6.619 24.914L8.962 19.449L24.863 3.547C25.0945 3.31821 25.4089 3.19301 25.7343 3.19998C26.0598 3.20695 26.3685 3.3455 26.59 3.584L28.352 5.346ZM11.495 22.311L9.625 20.441L8.222 23.714L11.495 22.311ZM25.615 8.431L23.505 6.321L10.21 19.612L12.322 21.723L25.615 8.431ZM27.645 6.054L25.884 4.292C25.834 4.23745 25.7648 4.20446 25.691 4.2C25.6452 4.20034 25.6016 4.21994 25.571 4.254L24.211 5.614L26.322 7.724L27.682 6.365C27.815 6.232 27.662 6.071 27.645 6.054Z" fill="#6A6A6A"/>
</svg>
