<svg xmlns="http://www.w3.org/2000/svg" width="18.505" height="19.428" viewBox="0 0 18.505 19.428">
  <g id="erase" transform="translate(-20.777 -21.85)">
    <g id="Group_172282" data-name="Group 172282" transform="translate(19.777 20)">
      <g id="clean" transform="translate(-7.953 -6.609)">
        <path id="Path_85180" data-name="Path 85180" d="M47.705,9.64a2.186,2.186,0,1,1,3.879,2.015l-2.245,4.31a2.173,2.173,0,0,1-.33.47,3.557,3.557,0,0,1,.415,3.182c-.089.252-.182.515-.279.783a.2.2,0,0,1-.282.109L41.62,16.723a.2.2,0,0,1-.056-.315c.18-.2.356-.4.524-.6A4.01,4.01,0,0,1,45.241,14.4q.02-.041.042-.083Z" transform="translate(-24.374)" fill="#7e7165"/>
        <path id="Path_85181" data-name="Path 85181" d="M20.283,44.923a.2.2,0,0,0-.232.032,8.881,8.881,0,0,1-4.585,2.327,1.237,1.237,0,0,0-.929.687,1.1,1.1,0,0,0,.177,1.22,16.206,16.206,0,0,0,1.718,1.605.2.2,0,0,0,.167.041,6.1,6.1,0,0,0,1.64-.481,3.5,3.5,0,0,0,.643-.451.674.674,0,0,1,.935.056.634.634,0,0,1-.061.91,4.812,4.812,0,0,1-.893.62,4.514,4.514,0,0,1-.613.261.21.21,0,0,0-.058.368q.6.419,1.313.873.365.232.719.437a.2.2,0,0,0,.214-.01,8.555,8.555,0,0,0,.871-.71A7.618,7.618,0,0,0,22.69,51a.668.668,0,0,1,.9-.245.64.64,0,0,1,.236.885,8.945,8.945,0,0,1-1.618,2c-.109.1-.228.209-.356.317a.2.2,0,0,0,.041.34,18.983,18.983,0,0,0,1.938.783,1.537,1.537,0,0,0,1.777-.61,25.412,25.412,0,0,0,2.08-3.784c.191-.435.385-.909.575-1.4a.2.2,0,0,0-.094-.251Z" transform="translate(-4.098 -27.279)" fill="#7e7165"/>
        <path id="Path_85182" data-name="Path 85182" d="M20.154,32.268a.947.947,0,1,0-.947-.947A.947.947,0,0,0,20.154,32.268Z" transform="translate(-7.676 -16.405)" fill="#7e7165"/>
        <path id="Path_85183" data-name="Path 85183" d="M9.9,43.846a.947.947,0,1,0-.947-.947A.947.947,0,0,0,9.9,43.846Z" transform="translate(0 -25.073)" fill="#7e7165"/>
      </g>
    </g>
  </g>
</svg>
