<svg viewBox="0 0 91 91" xml:space="preserve" xmlns="http://www.w3.org/2000/svg" enable-background="new 0 0 91 91"><path d="M90.8 8.6c.1-2.8-2.8-4.8-5.4-4.1C75.6 7 66 8.7 55.9 8.2c-3.8-.2-5.1 4.5-2.9 7 2.1 2.4 4.2 4.7 6.4 7.1-4.3 4.3-8.6 8.6-13 12.9-4.2 4.2-11 8.8-12.8 14.7-.4 1.3.9 2.5 2.2 2.2C41.7 50.6 46.9 44 51.2 40c5.4-4.9 10.9-9.8 16.3-14.7 1.7-1.5 1.3-4 0-5.5-.9-1.1-1.9-2.2-2.8-3.3 5.8-.3 11.6-1.2 17.3-2.4-.2 6.3-.3 12.6 0 18.8-1.5-1.1-3-2.3-4.5-3.4-1.8-1.4-4.3-.2-5.4 1.4-6.3 9.4-12.7 18.7-19 28.1-.6-.5-1.3-1-1.9-1.5-1.8-1.3-3.7-2.4-5.5-3.6-2.5-1.7-6.1 1.8-4.3 4.3 1.4 1.9 2.6 3.6 4.4 5.2 1.6 1.5 3.3 2.9 5.1 4.4 1.5 1.3 3.7 1.6 5.3.4.5-.3 1-.7 1.4-1.3 6.3-9.4 12.6-18.8 18.9-28.3 2.5 1.9 4.9 3.9 7.4 5.8s7.2 1 6.9-2.9c-.8-11.1-.4-22 0-32.9z" fill="#1c1c1c" class="fill-3b6a75"></path><path d="M83.2 52.8c-.2-4.2-6.7-4.3-6.6 0 .3 8.8.6 17.9.2 26.8-23.5-3.1-46.5-2.9-70-.5-.5-17.7.7-35.4-.2-53.2 13.9.4 27.9 4.4 40.5-2.6.8-.4.5-1.8-.5-1.7-14.8.5-28.5-1.9-43.2-1.7-1.5 0-3.1 1.4-3 3C1.9 42.6 2 62.9.6 82.6c-.1 1.7 1.5 3.2 3.1 3.1 25.9-.7 50.4.2 76.3 1.2 1.8.1 3.5-1.6 3.5-3.5-.4-10.1 0-20.4-.3-30.6z" fill="#1c1c1c" class="fill-3b6a75"></path></svg>