<svg width="36" height="36" viewBox="0 0 36 36" fill="none" xmlns="http://www.w3.org/2000/svg">
<g clip-path="url(#clip0_20_16219)">
<path fill-rule="evenodd" clip-rule="evenodd" d="M11.3551 13.5703L6.37134 24.6453H16.3386C15.9911 25.1081 15.7851 25.6833 15.7851 26.3066C15.7851 27.8357 17.0247 29.0753 18.5538 29.0753C20.083 29.0753 21.3226 27.8357 21.3226 26.3066C21.3226 25.6833 21.1166 25.1081 20.769 24.6453H30.7363L26.3063 13.5703H11.3551Z" fill="#85C0A4"/>
<path d="M22.0034 10.334V11.559H28.434L34.1887 26.2592H23.2504V26.8717C23.2504 28.0088 22.7906 29.0994 21.9721 29.9034C21.1536 30.7075 20.0435 31.1592 18.886 31.1592C17.7285 31.1592 16.6184 30.7075 15.7999 29.9034C14.9814 29.0994 14.5216 28.0088 14.5216 26.8717V26.2592H3.58327L9.33801 11.559H15.7686V10.334H8.48259L2.09315 26.6512L2.052 34.8343H35.72V26.8717L29.2894 10.334H22.0034ZM3.29896 33.6093V27.4842H13.3096C13.4633 28.8315 14.117 30.0758 15.1457 30.9795C16.1744 31.8832 17.506 32.3828 18.886 32.3828C20.266 32.3828 21.5976 31.8832 22.6263 30.9795C23.655 30.0758 24.3087 28.8315 24.4624 27.4842H34.473V33.6093H3.29896ZM18.2625 2.62495L14.9631 5.86757L14.0815 5.00148L18.886 0.280273L23.6918 5.00148L22.8102 5.86757L19.5095 2.62495V22.5841H18.2625V2.62495Z" fill="#5D5449"/>
</g>
<defs>
<clipPath id="clip0_20_16219">
<rect width="35.44" height="35.44" fill="white" transform="translate(0.280029 0.280273)"/>
</clipPath>
</defs>
</svg>
