<svg width="32" height="32" viewBox="0 0 32 32" fill="none" xmlns="http://www.w3.org/2000/svg">
<path fill-rule="evenodd" clip-rule="evenodd" d="M10 12L5.5 22H14.4998C14.186 22.4178 14 22.9372 14 23.5C14 24.8807 15.1193 26 16.5 26C17.8807 26 19 24.8807 19 23.5C19 22.9372 18.814 22.4178 18.5002 22H27.5L23.5 12H10Z" fill="#85C0A4"/>
<path d="M19 9.99997V11H24.157L28.772 23H20V23.5C20 24.4282 19.6313 25.3185 18.9749 25.9748C18.3185 26.6312 17.4283 27 16.5 27C15.5717 27 14.6815 26.6312 14.0251 25.9748C13.3687 25.3185 13 24.4282 13 23.5V23H4.228L8.843 11H14V9.99997H8.157L3.033 23.32L3 30H30V23.5L24.843 9.99997H19ZM4 29V24H12.028C12.1513 25.0998 12.6755 26.1156 13.5005 26.8533C14.3254 27.5909 15.3933 27.9988 16.5 27.9988C17.6067 27.9988 18.6746 27.5909 19.4995 26.8533C20.3245 26.1156 20.8487 25.0998 20.972 24H29V29H4ZM16 3.70697L13.354 6.35397L12.647 5.64697L16.5 1.79297L20.354 5.64697L19.647 6.35397L17 3.70697V20H16V3.70697Z" fill="#EFE9E4"/>
</svg>
