<svg xmlns="http://www.w3.org/2000/svg" width="25.008" height="24.989" viewBox="0 0 25.008 24.989">
  <g id="Home_Page" transform="translate(0 -0.196)">
    <path id="Path_79254" data-name="Path 79254" d="M23.454,9.774,13.062,2.323a.976.976,0,0,0-1.115,0L1.555,9.774A.976.976,0,0,1,.417,8.188L10.813.734l.007,0a2.928,2.928,0,0,1,3.368,0l.007,0,10.4,7.454A.976.976,0,0,1,23.454,9.774Z" transform="translate(0 0)" fill="#7e7165"/>
    <path id="Path_79256" data-name="Path 79256" d="M58.361,120.3H52.7a.976.976,0,0,1-.976-.976v-3.9a.976.976,0,1,0-1.952,0v3.9a.976.976,0,0,1-.976.976H43.133a2.932,2.932,0,0,1-2.928-2.928V108.62a2.932,2.932,0,0,1,1.238-2.391l7.611-5.494.01-.007a2.928,2.928,0,0,1,3.368,0l.01.007,7.611,5.494a2.932,2.932,0,0,1,1.238,2.391v8.756A2.932,2.932,0,0,1,58.361,120.3Zm-4.685-1.952h4.685a.977.977,0,0,0,.976-.976V108.62a.977.977,0,0,0-.414-.8l-.01-.007L51.3,102.322a.977.977,0,0,0-1.113,0l-7.609,5.493-.01.007a.977.977,0,0,0-.414.8v8.756a.977.977,0,0,0,.976.976h4.685v-2.928a2.928,2.928,0,0,1,5.857,0Z" transform="translate(-38.243 -95.119)" fill="#7e7165"/>
  </g>
</svg>
