<svg data-name="Layer 1" viewBox="0 0 48 48" xmlns="http://www.w3.org/2000/svg"><path d="M47 12a2 2 0 0 0-2-2H24a2 2 0 0 0 0 4h21a2 2 0 0 0 2-2ZM3 14h5.35a6 6 0 1 0 0-4H3a2 2 0 0 0 0 4Zm11-4a2 2 0 1 1-2 2 2 2 0 0 1 2-2ZM45 22h-7.35a6 6 0 1 0 0 4H45a2 2 0 0 0 0-4Zm-13 4a2 2 0 1 1 2-2 2 2 0 0 1-2 2ZM22 22H3a2 2 0 0 0 0 4h19a2 2 0 0 0 0-4ZM45 34H28a2 2 0 0 0 0 4h17a2 2 0 0 0 0-4ZM18 30a6 6 0 0 0-5.65 4H3a2 2 0 0 0 0 4h9.35A6 6 0 1 0 18 30Zm0 8a2 2 0 1 1 2-2 2 2 0 0 1-2 2Z" fill="#7e7165" class="fill-000000"></path></svg>