<svg width="23" height="21" viewBox="0 0 23 21" fill="none" xmlns="http://www.w3.org/2000/svg">
<path d="M11.617 7.09601C11.1542 7.09601 10.7017 7.23325 10.3169 7.49037C9.93212 7.74749 9.63221 8.11295 9.4551 8.54053C9.27799 8.96811 9.23165 9.4386 9.32194 9.89252C9.41223 10.3464 9.6351 10.7634 9.96235 11.0906C10.2896 11.4179 10.7065 11.6408 11.1605 11.731C11.6144 11.8213 12.0849 11.775 12.5124 11.5979C12.94 11.4208 13.3055 11.1208 13.5626 10.736C13.8197 10.3512 13.957 9.89881 13.957 9.436C13.957 9.12871 13.8964 8.82443 13.7788 8.54053C13.6613 8.25663 13.4889 7.99866 13.2716 7.78137C13.0543 7.56408 12.7963 7.39172 12.5124 7.27412C12.2285 7.15653 11.9243 7.09601 11.617 7.09601ZM11.617 10.662C11.4531 10.6667 11.2899 10.6385 11.1372 10.579C10.9844 10.5195 10.8451 10.43 10.7275 10.3157C10.6099 10.2015 10.5165 10.0648 10.4527 9.91376C10.3888 9.76274 10.356 9.60046 10.356 9.43651C10.356 9.27256 10.3888 9.11027 10.4527 8.95926C10.5165 8.80824 10.6099 8.67157 10.7275 8.55731C10.8451 8.44305 10.9844 8.35352 11.1372 8.29404C11.2899 8.23456 11.4531 8.20633 11.617 8.21101C11.7808 8.20633 11.944 8.23456 12.0968 8.29404C12.2496 8.35352 12.3889 8.44305 12.5064 8.55731C12.624 8.67157 12.7175 8.80824 12.7813 8.95926C12.8451 9.11027 12.878 9.27256 12.878 9.43651C12.878 9.60046 12.8451 9.76274 12.7813 9.91376C12.7175 10.0648 12.624 10.2015 12.5064 10.3157C12.3889 10.43 12.2496 10.5195 12.0968 10.579C11.944 10.6385 11.7808 10.6667 11.617 10.662Z" fill="#5D5449"/>
<path d="M20.949 1.748L5.73901 0.0239984C5.44813 -0.0173228 5.1518 0.00318027 4.86938 0.0841676C4.58696 0.165155 4.32479 0.304804 4.10001 0.493998C3.87471 0.668674 3.687 0.887057 3.54816 1.13605C3.40931 1.38504 3.32219 1.65951 3.29201 1.943L3.00901 4.224H2.14601C1.55508 4.24821 0.997721 4.50524 0.595646 4.93898C0.193572 5.37272 -0.0205576 5.94792 1.34504e-05 6.539V17.933C-0.00730501 18.2109 0.0402021 18.4876 0.139822 18.7472C0.239441 19.0068 0.389222 19.2442 0.580609 19.4459C0.771996 19.6476 1.00124 19.8096 1.25525 19.9227C1.50926 20.0358 1.78306 20.0977 2.06101 20.105H17.439C18.0354 20.1196 18.6139 19.9005 19.0511 19.4945C19.4882 19.0886 19.7495 18.5278 19.779 17.932V17.486C20.1592 17.4125 20.5198 17.2606 20.838 17.04C21.2885 16.6611 21.5774 16.1246 21.646 15.54L22.927 4.224C22.989 3.63414 22.8162 3.0436 22.446 2.58021C22.0758 2.11681 21.538 1.81784 20.949 1.748ZM18.665 17.933C18.6361 18.2333 18.4925 18.5109 18.2642 18.7081C18.0359 18.9054 17.7403 19.007 17.439 18.992H2.14601C2.01427 18.9963 1.88298 18.9744 1.75969 18.9278C1.63641 18.8811 1.52357 18.8105 1.42766 18.7201C1.33175 18.6297 1.25467 18.5212 1.20084 18.4009C1.14701 18.2805 1.1175 18.1508 1.11401 18.019C1.11401 17.9903 1.11401 17.9617 1.11401 17.933V15.871L5.43201 12.695C5.68321 12.5022 5.99466 12.4049 6.31092 12.4203C6.62718 12.4356 6.92771 12.5628 7.15901 12.779L10.2 15.453C10.6612 15.8403 11.2418 16.0568 11.844 16.066C12.3146 16.0718 12.7776 15.9464 13.181 15.704L18.665 12.524V17.924V17.933ZM18.665 11.219L12.592 14.757C12.3376 14.9078 12.0425 14.9754 11.7478 14.9505C11.4531 14.9256 11.1735 14.8094 10.948 14.618L7.88401 11.918C7.45759 11.5516 6.91929 11.3411 6.35746 11.3209C5.79562 11.3007 5.24361 11.4721 4.79201 11.807L1.11501 14.478V6.539C1.09429 6.24353 1.19093 5.95182 1.38395 5.72716C1.57697 5.5025 1.8508 5.36302 2.14601 5.339H17.439C17.7556 5.35199 18.0561 5.48183 18.2826 5.70346C18.509 5.92509 18.6452 6.22277 18.665 6.539V11.224V11.219ZM21.814 4.077V4.088L20.5 15.398C20.5011 15.5427 20.4691 15.6857 20.4063 15.816C20.3436 15.9464 20.2518 16.0606 20.138 16.15C20.027 16.261 19.776 16.317 19.776 16.373V6.539C19.7538 5.9281 19.4993 5.3487 19.0644 4.91905C18.6296 4.4894 18.0471 4.24188 17.436 4.227H4.12401L4.37501 2.054C4.42953 1.77274 4.5767 1.51785 4.79301 1.33C5.03738 1.16096 5.33292 1.08212 5.62901 1.107L20.81 2.862C20.9557 2.87579 21.0973 2.91816 21.2267 2.9867C21.356 3.05524 21.4706 3.14859 21.5638 3.26143C21.6571 3.37427 21.7271 3.50437 21.7701 3.64431C21.813 3.78425 21.8279 3.93128 21.814 4.077Z" fill="#5D5449"/>
</svg>
