<svg xmlns="http://www.w3.org/2000/svg" width="47.61" height="48.21" viewBox="0 0 47.61 48.21">
  <g id="Group_184343" data-name="Group 184343" transform="translate(-24.483)">
    <rect id="Rectangle_155333" data-name="Rectangle 155333" width="47.61" height="48.21" rx="8" transform="translate(24.483)" fill="none"/>
    <g id="google-maps_5_" data-name="google-maps (5)" transform="translate(-37.708 11.421)">
      <path id="Path_81561" data-name="Path 81561" d="M106.014,140.282l-2.633,3.888-3.893,3.874a28.575,28.575,0,0,1-3.993-5.779l2.1-3.215,3.218-3.105a3.387,3.387,0,0,0,5.03,4.521C105.9,140.406,105.96,140.345,106.014,140.282Z" transform="translate(-17.452 -129.209)" fill="#fafffc"/>
      <path id="Path_81562" data-name="Path 81562" d="M209.635,18.917a3.387,3.387,0,0,0-5.022-4.532c-.056.056-.108.112-.159.171l2.22-3.609,3.012-2.617a8.886,8.886,0,0,1,5.185,4.359l-2.2,3.543Z" transform="translate(-121.013 -7.917)" fill="#d9efe4"/>
      <path id="Path_81563" data-name="Path 81563" d="M83.36,67.579,78.043,73.9a10.085,10.085,0,0,1-.906-3.94c0-.084,0-.168,0-.252A8.826,8.826,0,0,1,79.2,64.015Z" transform="translate(0 -60.843)" fill="#bbdfce"/>
      <path id="Path_81564" data-name="Path 81564" d="M123.034,6.736l-4.158-3.564A8.875,8.875,0,0,1,128.349.412Z" transform="translate(-39.675)" fill="#9fd0b8"/>
      <path id="Path_81565" data-name="Path 81565" d="M188.9,100.4a8.825,8.825,0,0,0-1-4.091L176.076,110.37a14.679,14.679,0,0,1,3.081,5.621c.016.069.034.15.053.24a.844.844,0,0,0,1.653,0c.019-.091.036-.171.053-.24,1.36-5.742,7.819-8.677,7.979-15.341C188.9,100.566,188.9,100.482,188.9,100.4Z" transform="translate(-94.041 -91.535)" fill="#e9f3e8"/>
    </g>
    <path id="Path_81566" data-name="Path 81566" d="M57.724,114.764a4.078,4.078,0,1,1,3.537-6.109l-1.09.627a2.823,2.823,0,1,0,.22,2.345h-2.98v-1.255H61.85l-.063.682A4.055,4.055,0,0,1,57.724,114.764Zm0,0" transform="translate(-17.609 -77.975)" fill="#f7f3f0"/>
  </g>
</svg>
