<svg xmlns="http://www.w3.org/2000/svg" width="22.256" height="30.468" viewBox="0 0 22.256 30.468">
  <g id="google-maps" transform="translate(-69 0)">
    <path id="Path_81115" data-name="Path 81115" d="M80.128,0A11.131,11.131,0,0,0,69,11.134c0,6.769,4.638,8.364,7.072,12.514,2.265,3.862,2.267,6.819,4.056,6.819,1.855,0,1.738-2.755,4.056-6.819s7.072-5.745,7.072-12.514A11.131,11.131,0,0,0,80.128,0Zm0,15.4a4.165,4.165,0,1,1,4.162-4.165A4.164,4.164,0,0,1,80.128,15.4Z" transform="translate(0 0)" fill="#4caf50"/>
    <g id="Group_183251" data-name="Group 183251" transform="translate(79.208 0)">
      <path id="Path_81116" data-name="Path 81116" d="M241.465,0c-.31,0-.616.013-.92.038a11.132,11.132,0,0,1,10.208,11.1c0,6.769-4.754,8.449-7.072,12.514-1.836,3.219-2.145,5.617-3.115,6.475a1.283,1.283,0,0,0,.9.345c1.855,0,1.738-2.755,4.056-6.819s7.072-5.745,7.072-12.514A11.131,11.131,0,0,0,241.465,0Z" transform="translate(-240.545)" fill="#43a047"/>
    </g>
    <path id="Path_81117" data-name="Path 81117" d="M77.185,60.638l-7.316,7.32A10.905,10.905,0,0,1,69,63.482,11.1,11.1,0,0,1,72.21,55.66Z" transform="translate(-0.001 -52.348)" fill="#f44336"/>
    <path id="Path_81118" data-name="Path 81118" d="M212.45,28.631a4.164,4.164,0,0,0-5.916-5.861L213.9,15.4a11.167,11.167,0,0,1,5.847,5.931l-7.3,7.3Z" transform="translate(-129.35 -14.48)" fill="#42a5f5"/>
    <path id="Path_81119" data-name="Path 81119" d="M320.565,15.4l-.621.622a11.156,11.156,0,0,1,5.1,6.681l1.37-1.371a11.167,11.167,0,0,0-5.847-5.931Z" transform="translate(-236.011 -14.48)" fill="#2196f3"/>
    <path id="Path_81120" data-name="Path 81120" d="M96.821,145.177l-8.035,8.039c-1.747-2.2-3.988-3.821-5.2-6.581l7.316-7.32a4.164,4.164,0,1,0,5.916,5.861Z" transform="translate(-13.72 -131.025)" fill="#ffc107"/>
    <path id="Path_81121" data-name="Path 81121" d="M135.27.916,127.9,8.29l-4.975-4.978A11.132,11.132,0,0,1,135.27.916Z" transform="translate(-50.716 0)" fill="#1e88e5"/>
    <path id="Path_81122" data-name="Path 81122" d="M241.466,0q-.465,0-.92.038h0a11.056,11.056,0,0,1,4.725,1.5l.621-.622A11.08,11.08,0,0,0,241.466,0Z" transform="translate(-161.338 0)" fill="#1976d2"/>
  </g>
</svg>
