<svg xmlns="http://www.w3.org/2000/svg" width="199.813" height="54.477" viewBox="0 0 199.813 54.477">
  <path id="Union_2" data-name="Union 2" d="M29.93,49.713q-.875,0-1.735-.062l-.011.062H-13.051a53.375,53.375,0,0,1,1.239-8.5C-9.719,30.169-7.1,21.333-4.967,10.3c.8-4.139,1.622-8.272,2.385-12.423.191-1.039.631-1.464,1.429-1.562a15.137,15.137,0,0,1,5.242.416C5.808-2.878,6.548-1.168,7,.736q.713,3.025,1.3,6.1a4.532,4.532,0,0,0,2.162,3.259c.279.167.56.33.841.492a23.952,23.952,0,0,1,18.63-8.87H161.75a24,24,0,1,1,0,48ZM.439,16.892c.436.112.878.129.831-.472C1.217,15.755.835,15.019.319,15c-.491-.016-.867.824-.878,1.36-.012.563.279.521.563.479a1.528,1.528,0,0,1,.219-.022A.289.289,0,0,1,.439,16.892Zm3.655-.014a1.038,1.038,0,0,1,.343-.023c.293.012.58.023.571-.494-.013-.626-.416-1.257-.94-1.229-.467.026-.778.737-.817,1.256-.041.539.214.5.472.464a1.451,1.451,0,0,1,.193-.018A.314.314,0,0,1,4.094,16.878ZM2.279,12.064c-.632.005-.9.894-.968,1.593-.049.523.414.409.788.339a.561.561,0,0,1,.426-.043c.3.039.6.077.621-.526s-.457-1.364-.863-1.364ZM.636,4.981c-.814.085-1.667-.077-1.4,1.5C-.9,7.617-.753,8.346.409,8.289c.94-.047,1.461-.244,1.421-1.62-.028-1.005-.1-1.7-.982-1.7A2.043,2.043,0,0,0,.636,4.981Z" transform="translate(13.563 4.263)" fill="#efe9e4" stroke="rgba(0,0,0,0)" stroke-miterlimit="10" stroke-width="1"/>
</svg>
