<svg width="42" height="42" viewBox="0 0 42 42" fill="none" xmlns="http://www.w3.org/2000/svg">
<path fill-rule="evenodd" clip-rule="evenodd" d="M13.125 15.75L7.21875 28.875H19.031C18.6191 29.4234 18.375 30.1051 18.375 30.8438C18.375 32.6559 19.8441 34.125 21.6562 34.125C23.4684 34.125 24.9375 32.6559 24.9375 30.8438C24.9375 30.1051 24.6934 29.4234 24.2815 28.875H36.0938L30.8438 15.75H13.125Z" fill="#85C0A4"/>
<path fill-rule="evenodd" clip-rule="evenodd" d="M26.25 24.4729L22.7772 27.9471L22.7772 6.5625H21.4647L21.4647 27.9471L17.9905 24.4729L17.0625 25.4008L22.1209 30.4592L27.178 25.4008L26.25 24.4729ZM24.9375 14.7092V13.3967H32.6064L39.375 31.1154V39.6467H3.9375L3.98081 30.8792L10.7061 13.3967H18.375V14.7092H11.6064L5.54925 30.4592H17.0625V31.1154C17.0625 32.3338 17.5465 33.5022 18.408 34.3637C19.2695 35.2252 20.4379 35.7092 21.6562 35.7092C22.8746 35.7092 24.043 35.2252 24.9045 34.3637C25.766 33.5022 26.25 32.3338 26.25 31.1154V30.4592H37.7632L31.7061 14.7092H24.9375ZM5.25 31.7717V38.3342H38.0625V31.7717H27.5257C27.364 33.2152 26.6759 34.5484 25.5932 35.5166C24.5104 36.4848 23.1088 37.0201 21.6562 37.0201C20.2037 37.0201 18.8021 36.4848 17.7193 35.5166C16.6366 34.5484 15.9485 33.2152 15.7867 31.7717H5.25Z" fill="#5D5449"/>
</svg>
