<svg width="32" height="32" viewBox="0 0 32 32" fill="none" xmlns="http://www.w3.org/2000/svg">
<path fill-rule="evenodd" clip-rule="evenodd" d="M22 20L26.5 10L17.5002 10C17.814 9.58217 18 9.0628 18 8.5C18 7.11929 16.8807 6 15.5 6C14.1193 6 13 7.11929 13 8.5C13 9.0628 13.186 9.58217 13.4998 10L4.5 10L8.5 20L22 20Z" fill="#85C0A4"/>
<path d="M13 22V21H7.843L3.228 9.00003H12V8.50003C12 7.57177 12.3687 6.68153 13.0251 6.02516C13.6815 5.36878 14.5717 5.00003 15.5 5.00003C16.4283 5.00003 17.3185 5.36878 17.9749 6.02516C18.6313 6.68153 19 7.57177 19 8.50003V9.00003H27.772L23.157 21H18V22H23.843L28.967 8.68003L29 2.00003L2 2.00003V8.50003L7.157 22L13 22ZM28 3.00003V8.00003H19.972C19.8487 6.90023 19.3245 5.88442 18.4995 5.14674C17.6746 4.40906 16.6067 4.00125 15.5 4.00125C14.3933 4.00125 13.3254 4.40906 12.5005 5.14674C11.6755 5.88442 11.1513 6.90023 11.028 8.00003H3V3.00003L28 3.00003ZM16 28.293L18.646 25.646L19.353 26.353L15.5 30.207L11.646 26.353L12.353 25.646L15 28.293L15 12H16V28.293Z" fill="#EFE9E4"/>
</svg>
