<svg width="24" height="25" viewBox="0 0 24 25" fill="none" xmlns="http://www.w3.org/2000/svg">
<g clip-path="url(#clip0_2_760)">
<path fill-rule="evenodd" clip-rule="evenodd" d="M24 12.6997H20.775C20.5235 8.51429 17.1854 5.17621 13 4.92471V1.69971H12V4.92471C7.81459 5.17621 4.47651 8.51429 4.225 12.6997H1V13.6547H4.223C4.45265 17.8584 7.79765 21.2219 12 21.4747V24.6997H13V21.4747C17.1854 21.2232 20.5235 17.8851 20.775 13.6997H24V12.6997ZM12.5 20.4997C8.46832 20.4997 5.2 17.2314 5.2 13.1997C5.2 9.16803 8.46832 5.89971 12.5 5.89971C16.5317 5.89971 19.8 9.16803 19.8 13.1997C19.7956 17.2296 16.5299 20.4953 12.5 20.4997ZM12.5 8.69971C10.0147 8.69971 8 10.7144 8 13.1997C8 15.685 10.0147 17.6997 12.5 17.6997C14.9853 17.6997 17 15.685 17 13.1997C16.9967 10.7158 14.9839 8.70301 12.5 8.69971ZM12.5 16.6997C10.567 16.6997 9 15.1327 9 13.1997C9 11.2667 10.567 9.69971 12.5 9.69971C14.433 9.69971 16 11.2667 16 13.1997C15.9978 15.1318 14.4321 16.6975 12.5 16.6997Z" fill="#5D5449"/>
</g>
<defs>
<clipPath id="clip0_2_760">
<rect width="24" height="24" fill="white" transform="translate(0 0.699707)"/>
</clipPath>
</defs>
</svg>
