<svg width="44" height="44" viewBox="0 0 44 44" fill="none" xmlns="http://www.w3.org/2000/svg">
<g clip-path="url(#clip0_20_4480)">
<path d="M22.4282 32.7188C25.2035 33.4752 25.3288 28.6843 25.2035 27.0445C25.0817 25.4046 24.0714 28.3036 22.3046 29.0617C20.5395 29.8199 21.3925 32.4345 22.4282 32.7188Z" fill="#5D5449"/>
<path d="M44 22C44 9.84923 34.1508 0 22 0C9.84923 0 0 9.84923 0 22C0 34.1508 9.84923 44 22 44C34.1508 44 44 34.1508 44 22ZM1.69231 22C1.69231 20.658 1.83108 19.3482 2.07985 18.0789C2.39631 18.3649 2.74662 18.5765 3.15615 18.6002C5.456 18.7254 7.11954 18.4732 7.37677 19.9862C7.63062 21.4991 10.3146 25.2797 9.548 28.6863C8.78139 32.0895 11.0778 34.3606 13.64 35.2423C16.1971 36.124 17.8589 34.1068 18.2431 32.0895C18.6255 30.074 19.7746 27.9298 20.8002 28.0568C21.824 28.182 18.7542 23.7702 21.0557 22.5077C23.3572 21.2469 26.4288 17.5915 26.2985 16.3308C26.1682 15.07 23.1017 17.5915 22.3368 16.456C21.5685 15.3205 17.7337 8.63923 18.7542 9.01662C19.778 9.39569 23.7414 15.6978 26.8078 14.0631C29.8794 12.4198 30.5174 11.6668 29.1111 10.9103C27.7048 10.1538 31.922 8.514 33.4603 11.2877C34.9918 14.0648 35.6332 16.5829 37.2968 17.7202C38.9569 18.854 37.0395 15.7012 38.0617 14.1866C38.5694 13.4403 39.138 12.4283 39.6575 12.012C41.3363 14.9634 42.3077 18.3683 42.3077 22C42.3077 33.198 33.198 42.3077 22 42.3077C10.802 42.3077 1.69231 33.198 1.69231 22Z" fill="#5D5449"/>
</g>
<defs>
<clipPath id="clip0_20_4480">
<rect width="44" height="44" fill="white"/>
</clipPath>
</defs>
</svg>
