<svg id="Group_184461" data-name="Group 184461" xmlns="http://www.w3.org/2000/svg" width="32" height="31.983" viewBox="0 0 32 31.983">
  <g id="Group_184382" data-name="Group 184382">
    <path id="Path_81811" data-name="Path 81811" d="M30.957,10.2l-8.872,5.787s-6.389-3.3-6.02-4-6.108,3.774-6.108,3.774L.638,10.2,16.011.438Z" transform="translate(0 0.001)" fill="#1a5f48"/>
    <path id="Path_81812" data-name="Path 81812" d="M15.552,26.1l0-.006h0Z" transform="translate(0 0.001)" fill="#010101"/>
    <path id="Path_81813" data-name="Path 81813" d="M29.9,14.334h0" transform="translate(0 0.001)" fill="#010101"/>
    <path id="Path_81814" data-name="Path 81814" d="M24.41,21.094Z" transform="translate(0 0.001)" fill="#010101"/>
    <path id="Path_81815" data-name="Path 81815" d="M6.016,20.087h0Z" transform="translate(0 0.001)" fill="#010101"/>
    <path id="Path_81816" data-name="Path 81816" d="M31.805,9.848l-.112-.084L31.616,9.7a.787.787,0,0,1-.251-.155v0c-.02,0-.043,0-.051-.028l-.406-.253-.276-.177-.27-.169a2.6,2.6,0,0,1-.49-.33h0c-.037.011-.054-.022-.08-.034-.027.01-.036-.017-.054-.026l-.111-.073-.136-.082-1.466-.93a.124.124,0,0,1-.084-.053l-.763-.478a.208.208,0,0,1-.109-.065l-.733-.462-.9-.565c-.027-.04-.1-.026-.108-.085a1.458,1.458,0,0,1-.4-.232c-.268-.163-.528-.338-.791-.507a.12.12,0,0,1-.083-.053l-.4-.247a.017.017,0,0,1-.022-.005l-1.208-.774a.145.145,0,0,1-.088-.057,5.927,5.927,0,0,1-.615-.386.125.125,0,0,1-.083-.053c-.234-.144-.47-.286-.7-.431s-.475-.3-.713-.451a.517.517,0,0,1-.051-.044.073.073,0,0,1-.06-.037l-.075-.047a.094.094,0,0,1-.069-.045,1.357,1.357,0,0,1-.276-.172l-.042-.028a.1.1,0,0,1-.076-.049.138.138,0,0,1-.084-.048c-.239-.139-.472-.286-.7-.439-.27-.18-.548-.346-.823-.518L17.1.582a.035.035,0,0,1-.02-.014q-.273-.179-.548-.355L16.389.124A1.383,1.383,0,0,0,16.1.009a.579.579,0,0,0-.364.052.171.171,0,0,1-.124.029C15.6.159,15.55.163,15.5.172a1.853,1.853,0,0,1-.389.273,1.713,1.713,0,0,1-.181.106h0c-.237.154-.473.309-.711.462-.169.109-.34.217-.511.325a.142.142,0,0,1-.086.053c-.255.135-.481.319-.743.443a.406.406,0,0,0-.089.078l-.033,0c0,.049-.046.056-.08.072a.136.136,0,0,1-.088.055c-.014.017-.028.034-.054.024a.032.032,0,0,1-.023.005l-.423.278c-.055.036-.108.074-.162.11a.1.1,0,0,1-.072.045c-.3.139-.53.382-.837.509a.6.6,0,0,0-.221.148c-.006.034-.035.022-.055.027,0,.043-.059.022-.067.059a.085.085,0,0,1-.07.045l-.217.137a.126.126,0,0,1-.083.053c-.429.234-.817.535-1.248.767,0,.037-.031.027-.054.028a5.189,5.189,0,0,1-.6.377c-.02.031-.04.063-.085.057-.415.284-.837.557-1.278.8a3.011,3.011,0,0,1-.322.2.3.3,0,0,1-.167.111l-.488.323a.113.113,0,0,1-.084.053c-.158.059-.268.2-.431.249l-.047.022a2.875,2.875,0,0,1-.55.356c-.021.029-.035.067-.083.054a1.518,1.518,0,0,1-.3.207c-.328.183-.635.4-.949.6-.162.106-.334.2-.5.3-.15.091-.3.186-.445.283a.369.369,0,0,1-.116.053.227.227,0,0,1-.161.106c-.021.051-.072.06-.114.082,0,.036-.032.026-.054.029-.008.029-.036.022-.055.032s-.031.063-.076.047c-.023.052-.082.057-.118.09a.017.017,0,0,1-.014.016,1.276,1.276,0,0,1-.307.169.95.95,0,0,1-.3.19,1.238,1.238,0,0,1-.245.162C.99,9.332.863,9.417.733,9.5c-.038.023-.069.074-.127.051a.359.359,0,0,1-.193.14c-.021.025-.033.065-.079.05C.312,9.764.3,9.8.252,9.791l-.16.165a.175.175,0,0,1-.054.108.831.831,0,0,0-.024.347l.1.212L.3,10.8a.38.38,0,0,1,.149.1.873.873,0,0,1,.266.165l.347.192a.128.128,0,0,1,.085.054.133.133,0,0,1,.1.085l.032.012a.373.373,0,0,1,.223.144l.188.116a.4.4,0,0,1,.14.1.8.8,0,0,1,.224.143l.071.032a.543.543,0,0,1,.22.128.957.957,0,0,1,.237.149l.046.027c.223.124.437.262.647.407l.181.114a.163.163,0,0,1,.087.055.211.211,0,0,1,.105.068l.344.2c.05.03.049.054,0,.084-.115.067-.229.136-.344.2a.484.484,0,0,1-.156.1l-.061.036a.235.235,0,0,1-.1.069,3.081,3.081,0,0,1-.412.257.063.063,0,0,1-.052.034.878.878,0,0,1-.222.138.467.467,0,0,1-.161.1,1.978,1.978,0,0,1-.349.221c-.031.052-.094.046-.137.077-.034.046-.09.055-.136.082a1.8,1.8,0,0,1-.41.249.125.125,0,0,1-.106.05.068.068,0,0,1-.054.054.356.356,0,0,1-.192.117.51.51,0,0,1-.275.178l-.057.021a3.77,3.77,0,0,1-.535.378l-.071.071c-.04.079-.079.158-.118.237,0,.018-.008.037-.011.056,0,.072,0,.145,0,.218.009.036.017.072.026.109.037.052.073.1.11.158l.239.179.036.032a.252.252,0,0,1,.14.088.579.579,0,0,1,.212.132,2.216,2.216,0,0,1,.346.21l.127.075.044.04c.075.008.117.079.186.1a.139.139,0,0,1,.09.052c.033.014.072.021.08.065l0,0c.037-.017.054.012.074.034a.117.117,0,0,1,.076.046.168.168,0,0,1,.089.056.245.245,0,0,1,.113.071.221.221,0,0,1,.1.066c.226.127.445.266.658.415a.123.123,0,0,1,.076.047A.336.336,0,0,1,3,18.184a.086.086,0,0,1,.063.038.015.015,0,0,1,.012.007.418.418,0,0,1,.144.094.125.125,0,0,1,.077.047,1.178,1.178,0,0,1,.249.158.2.2,0,0,1,.105.066,5.39,5.39,0,0,1,.6.378A.057.057,0,0,1,4.3,19a7.762,7.762,0,0,1,.687.432.124.124,0,0,1,.077.048.587.587,0,0,1,.165.1l.3.188a4.082,4.082,0,0,1,.489.311,7.249,7.249,0,0,1,.654.411.131.131,0,0,1,.084.053.219.219,0,0,1,.108.065l.291.187a3.385,3.385,0,0,1,.471.3.274.274,0,0,1,.128.08,1.181,1.181,0,0,1,.254.16.012.012,0,0,1,.017.01,3.22,3.22,0,0,1,.38.243l.029.02a1.387,1.387,0,0,1,.279.174.23.23,0,0,1,.1.068,1.076,1.076,0,0,1,.259.163.154.154,0,0,1,.093.057.158.158,0,0,1,.1.06l.037.025a.341.341,0,0,1,.147.088.119.119,0,0,1,.072.048,5.313,5.313,0,0,1,.554.349.29.29,0,0,1,.129.08,4.045,4.045,0,0,1,.464.29l.165.106a.877.877,0,0,1,.218.136.969.969,0,0,1,.217.134,6.6,6.6,0,0,1,.58.368l.071.042a4.9,4.9,0,0,1,.54.341.542.542,0,0,1,.163.1,1.322,1.322,0,0,1,.271.172.321.321,0,0,1,.136.084.491.491,0,0,1,.172.108.105.105,0,0,1,.075.047.129.129,0,0,1,.082.052c.022,0,.043.009.053.033a.541.541,0,0,1,.17.108.326.326,0,0,1,.132.083.654.654,0,0,1,.2.122l0,0a3.113,3.113,0,0,1,.4.255.306.306,0,0,1,.122.077l.035.021.05.032a.132.132,0,0,1,.084.054,2.147,2.147,0,0,1,.353.22,1.524,1.524,0,0,1,.3.189.353.353,0,0,1,.134.087.454.454,0,0,1,.168.1.109.109,0,0,1,.073.045l.038.023a1.173,1.173,0,0,0,.285.109h.121a1.291,1.291,0,0,0,.276-.1l0,0a1.1,1.1,0,0,1,.23-.144.763.763,0,0,1,.188-.118,4.473,4.473,0,0,1,.486-.308,1.606,1.606,0,0,1,.29-.179.276.276,0,0,1,.123-.078.047.047,0,0,1,.047-.029,1.844,1.844,0,0,1,.325-.207.084.084,0,0,1,.062-.038.769.769,0,0,1,.218-.136.441.441,0,0,1,.156-.1,2.869,2.869,0,0,1,.382-.243l.053-.032A.149.149,0,0,1,19,24.5a.445.445,0,0,1,.157-.1.073.073,0,0,1,.06-.037l.049-.031a.309.309,0,0,1,.133-.083.541.541,0,0,1,.17-.108,4.089,4.089,0,0,1,.518-.325.789.789,0,0,1,.209-.133.384.384,0,0,1,.142-.089.129.129,0,0,1,.082-.052,1.083,1.083,0,0,1,.247-.156.622.622,0,0,1,.183-.115.835.835,0,0,1,.222-.138.038.038,0,0,1,.042-.027,1.189,1.189,0,0,1,.257-.163.123.123,0,0,1,.083-.051,1.111,1.111,0,0,1,.269-.17,1.924,1.924,0,0,1,.322-.2.157.157,0,0,1,.089-.055l.077-.05a1.033,1.033,0,0,1,.223-.14l.053-.032a.75.75,0,0,1,.218-.137.292.292,0,0,1,.134-.084.786.786,0,0,1,.218-.137.124.124,0,0,1,.08-.051.3.3,0,0,1,.137-.086,3.544,3.544,0,0,1,.456-.289.367.367,0,0,1,.131-.082.276.276,0,0,1,.117-.073.7.7,0,0,1,.183-.117.066.066,0,0,1,.058-.034.142.142,0,0,1,.087-.056,1.539,1.539,0,0,1,.3-.189.06.06,0,0,1,.052-.032.349.349,0,0,1,.137-.087.709.709,0,0,1,.184-.117,1.2,1.2,0,0,1,.253-.16.015.015,0,0,1,.021-.011,5.7,5.7,0,0,1,.6-.379.051.051,0,0,1,.047-.03,2.874,2.874,0,0,1,.417-.264.06.06,0,0,1,.053-.032.448.448,0,0,1,.157-.1.425.425,0,0,1,.143-.089l.277-.179.01,0c.206-.141.415-.276.634-.4a.11.11,0,0,1,.078-.048,5.334,5.334,0,0,1,.6-.381.458.458,0,0,1,.156-.1,1.241,1.241,0,0,1,.247-.156l.052-.033a.749.749,0,0,1,.2-.122.122.122,0,0,1,.08-.05,1.209,1.209,0,0,1,.273-.172.113.113,0,0,1,.073-.045,3.107,3.107,0,0,1,.42-.267A.317.317,0,0,1,30,17.57a.234.234,0,0,1,.112-.071c.121-.066.211-.184.357-.206a.017.017,0,0,1,.02,0,.407.407,0,0,1,.225-.158.029.029,0,0,1,.022,0c.035-.088.116-.1.191-.118.078-.1.207-.134.3-.215a.377.377,0,0,1,.218-.11c.041-.041.07-.1.135-.111.012-.025.038-.013.057-.019.02-.056.074-.069.12-.094l.03-.021.048-.042.032-.035.04-.055a.183.183,0,0,1,.049-.107.652.652,0,0,0-.038-.492c-.013-.024-.026-.048-.04-.072-.024-.006-.027-.025-.026-.046a5.439,5.439,0,0,0-.553-.358.052.052,0,0,1-.026-.056c-.036,0-.075.016-.1-.026l-.162-.11a1.094,1.094,0,0,1-.1-.058c-.066-.03-.148-.052-.178-.135-.013,0-.026,0-.025-.02-.026-.014-.062.006-.082-.026a3.915,3.915,0,0,1-.433-.276.341.341,0,0,1-.135-.085.478.478,0,0,1-.167-.1,1.965,1.965,0,0,1-.35-.221.459.459,0,0,1-.162-.1.821.821,0,0,1-.22-.137.06.06,0,0,1-.052-.034,3.019,3.019,0,0,1-.412-.257.23.23,0,0,1-.1-.069c-.021-.012-.042-.024-.062-.037a.465.465,0,0,1-.156-.1c-.115-.069-.228-.138-.344-.2-.05-.03-.051-.054,0-.084l.343-.2a.216.216,0,0,1,.105-.068.167.167,0,0,1,.087-.055l.182-.114a7.629,7.629,0,0,1,.647-.407l.045-.027a.928.928,0,0,1,.237-.149,1.062,1.062,0,0,1,.24-.153,3.26,3.26,0,0,1,.411-.259l.218-.136a1.851,1.851,0,0,1,.326-.207.131.131,0,0,1,.085-.054,2.2,2.2,0,0,1,.3-.186l.03-.014.291-.192a.241.241,0,0,1,.109-.071.648.648,0,0,0,.306-.46v-.054a.645.645,0,0,0-.195-.431M4.558,17.681a.143.143,0,0,1-.181.006c-.856-.543-1.714-1.081-2.572-1.621-.125-.079-.124-.079,0-.157Q3.411,14.9,5.018,13.883a.181.181,0,0,1,.228,0q1.289.819,2.583,1.629l.085.058-1.359.855q-1,.63-2,1.26M8.419,20.12c-.052.033-.091.055-.156.014q-1.329-.843-2.663-1.68a.442.442,0,0,1-.046-.041l1.084-.683q.792-.5,1.584-1a.156.156,0,0,1,.194-.014c.874.556,1.752,1.106,2.629,1.658.018.012.035.027.064.049-.232.146-.456.289-.681.43L8.419,20.12m9.772-3.476c-.019-.011-.036-.025-.085-.059h3.606c.007.045-.034.049-.056.063-.547.346-1.1.69-1.642,1.037a.137.137,0,0,1-.17,0q-.825-.525-1.653-1.045m.65,1.777-1.229.775-1.459.919a.129.129,0,0,1-.167.013c-.886-.563-1.776-1.12-2.664-1.679a.312.312,0,0,1-.033-.035l.509-.322q1.08-.679,2.16-1.361a.164.164,0,0,1,.2-.007q1.307.831,2.617,1.653l.061.044m-7.623-3.006c.125-.1.222-.176.32-.252a19.775,19.775,0,0,1,4.377-2.6.155.155,0,0,1,.216.046,13.088,13.088,0,0,0,3.306,2.746c.022.014.044.028.095.058Zm2.809,1.173-.745.469c-.334.21-.667.419-1,.63a.126.126,0,0,1-.158.01q-.847-.539-1.7-1.072a.283.283,0,0,0-.035-.015l.013-.022Zm-1.72,5.951a.171.171,0,0,1-.217.006q-1.283-.818-2.573-1.622c-.094-.059-.09-.079,0-.136q1.3-.815,2.6-1.636a.124.124,0,0,1,.157,0q1.31.827,2.62,1.65l.064.045c-.007.05-.049.056-.076.074l-1.149.725c-.475.3-.951.6-1.424.9m6.232.881c-.808.509-1.616,1.016-2.422,1.528a.164.164,0,0,1-.205,0q-1.276-.812-2.559-1.616c-.019-.012-.036-.025-.072-.05l.852-.538q.919-.579,1.838-1.158a.133.133,0,0,1,.168-.011q1.3.825,2.606,1.643c.011.008.021.017.045.037-.089.058-.169.112-.251.163M21.7,21.432q-.861.543-1.722,1.084c-.056.035-.1.062-.169.017q-1.306-.828-2.617-1.65c-.011-.007-.023-.012-.053-.028.924-.582,1.82-1.146,2.714-1.711a.117.117,0,0,1,.146,0q1.308.828,2.617,1.652a.255.255,0,0,1,.036.037c-.32.2-.635.4-.952.6m3.61-2.273q-.729.459-1.458.92a.153.153,0,0,1-.192.013q-1.295-.822-2.6-1.637c-.014-.01-.027-.022-.051-.041l.936-.588q.879-.553,1.757-1.108a.125.125,0,0,1,.157-.007q1.3.823,2.607,1.643a.449.449,0,0,1,.049.042l-1.21.763m4.942-3.235c.076.048.088.07,0,.123q-1.289.807-2.574,1.619a.107.107,0,0,1-.134.006q-1.682-1.064-3.364-2.123s-.006-.007-.016-.02L25,15c.6-.376,1.195-.751,1.791-1.131a.153.153,0,0,1,.193,0q1.629,1.031,3.263,2.054m-.179-5.473q-3.85,2.424-7.7,4.848a.233.233,0,0,1-.225.029,11.907,11.907,0,0,1-4.492-2.772,12.275,12.275,0,0,1-.937-1.038.589.589,0,0,0-.768-.208,20.4,20.4,0,0,0-5.866,3.568c-.126.11-.256.217-.375.334-.062.061-.1.055-.171.012q-1.654-1.045-3.31-2.085L1.79,10.348c-.03-.019-.058-.039-.106-.072l1.605-1.01,10.653-6.71c.652-.41,1.3-.817,1.953-1.232a.191.191,0,0,1,.24,0q3.589,2.265,7.182,4.524l6.919,4.357c.03.019.058.04.1.072l-.268.17" transform="translate(0 0.001)" fill="#5d5449"/>
    <path id="Path_81817" data-name="Path 81817" d="M3,18.186H3Z" transform="translate(0 0.001)" fill="#010101"/>
    <path id="Path_81818" data-name="Path 81818" d="M2.127,14.335h0Z" transform="translate(0 0.001)" fill="#010101"/>
    <path id="Path_81819" data-name="Path 81819" d="M5.136,20.176h0Z" transform="translate(0 0.001)" fill="#010101"/>
    <path id="Path_81820" data-name="Path 81820" d="M6.088,20.774h0Z" transform="translate(0 0.001)" fill="#010101"/>
    <path id="Path_81821" data-name="Path 81821" d="M17.564,26.047h0Z" transform="translate(0 0.001)" fill="#010101"/>
    <path id="Path_81822" data-name="Path 81822" d="M21.119,28.894Z" transform="translate(0 0.001)" fill="#010101"/>
    <path id="Path_81823" data-name="Path 81823" d="M.195,21.263l.006.006h0Z" transform="translate(0 0.001)" fill="#010101"/>
    <path id="Path_81824" data-name="Path 81824" d="M12.107,29.652h0l-.006.008Z" transform="translate(0 0.001)" fill="#010101"/>
    <path id="Path_81825" data-name="Path 81825" d="M6.821,21.237h0Z" transform="translate(0 0.001)" fill="#010101"/>
    <path id="Path_81826" data-name="Path 81826" d="M26.889,20.177h0Z" transform="translate(0 0.001)" fill="#010101"/>
    <path id="Path_81827" data-name="Path 81827" d="M31.78,21.231a.936.936,0,0,1-.248-.154l-.052-.034-.054-.028c-.2-.147-.43-.237-.617-.4l-.093-.055c-.058-.005-.076-.078-.135-.082l-.082-.053c-.02-.006-.046,0-.054-.03-.045-.03-.1-.04-.138-.085a.065.065,0,0,1-.051-.053.2.2,0,0,1-.138-.077,2.1,2.1,0,0,1-.331-.206l-.1-.065a1.292,1.292,0,0,1-.25-.156.228.228,0,0,1-.1-.068.817.817,0,0,1-.225-.14.117.117,0,0,1-.075-.049,1.175,1.175,0,0,1-.248-.153l-.239-.153c-.118-.029-.173.1-.272.113a.118.118,0,0,1-.074.049.843.843,0,0,1-.2.125l-.076.045a1.943,1.943,0,0,1-.356.225.423.423,0,0,1-.142.09.112.112,0,0,1-.076.045,1.073,1.073,0,0,1-.244.155.78.78,0,0,1-.219.138,2.911,2.911,0,0,1-.437.274.039.039,0,0,1-.042.027.443.443,0,0,1-.149.1.244.244,0,0,1-.107.066.722.722,0,0,1-.216.135,23.02,23.02,0,0,0-.158.1.182.182,0,0,1-.09.056.065.065,0,0,1-.053.031.056.056,0,0,1-.052.033.332.332,0,0,1-.135.086,1.132,1.132,0,0,1-.247.156.234.234,0,0,1-.1.067,1.491,1.491,0,0,1-.279.173.062.062,0,0,1-.053.032.941.941,0,0,1-.238.151l-.083.053a5.661,5.661,0,0,1-.578.363.482.482,0,0,1-.156.1,1.5,1.5,0,0,1-.277.173,1.47,1.47,0,0,1-.3.189,2.045,2.045,0,0,1-.352.222.04.04,0,0,1-.045.026,5.488,5.488,0,0,1-.607.384.276.276,0,0,1-.125.079.172.172,0,0,1-.095.06.79.79,0,0,1-.208.13.552.552,0,0,1-.179.114.758.758,0,0,1-.209.131.125.125,0,0,1-.082.052.224.224,0,0,1-.107.068l-.087.055q-.317.219-.651.411l-.076.047a5.645,5.645,0,0,1-.548.343.327.327,0,0,1-.134.085,7.338,7.338,0,0,1-.623.394l-.024.012a1.8,1.8,0,0,1-.335.212.056.056,0,0,1-.05.031,1.83,1.83,0,0,1-.354.222l-.053.035a.454.454,0,0,1-.165.1.468.468,0,0,1-.164.106l-.054.036a.017.017,0,0,1-.021.012.869.869,0,0,1-.224.14.305.305,0,0,1-.135.085.849.849,0,0,1-.218.136,1.663,1.663,0,0,1-.3.19.287.287,0,0,1-.128.08.141.141,0,0,1-.091.057,1.459,1.459,0,0,1-.3.186.259.259,0,0,1-.137.082.494.494,0,0,1-.544-.029.453.453,0,0,1-.165-.1.471.471,0,0,1-.161-.1.706.706,0,0,1-.2-.126.107.107,0,0,1-.074-.048,1.218,1.218,0,0,1-.248-.153l-.135-.087a.28.28,0,0,1-.118-.073l-.005,0a3.823,3.823,0,0,1-.425-.266A.712.712,0,0,1,14,25.754a.633.633,0,0,1-.2-.122l-.051-.031a1.778,1.778,0,0,1-.3-.189.22.22,0,0,1-.1-.067A5.328,5.328,0,0,1,12.8,25a.193.193,0,0,1-.1-.067.766.766,0,0,1-.218-.135,2.484,2.484,0,0,1-.381-.243,2.566,2.566,0,0,1-.4-.253l-.053-.032c-.316-.185-.626-.379-.928-.586a.514.514,0,0,1-.166-.1.394.394,0,0,1-.142-.093.909.909,0,0,1-.223-.14.79.79,0,0,1-.208-.13.12.12,0,0,1-.078-.05,5.583,5.583,0,0,1-.607-.384.038.038,0,0,1-.044-.026,1.621,1.621,0,0,1-.306-.192.046.046,0,0,1-.046-.029,1.533,1.533,0,0,1-.3-.191l-.009,0a.887.887,0,0,1-.212-.135.818.818,0,0,1-.21-.132,5.661,5.661,0,0,1-.578-.363L7.5,21.662a.951.951,0,0,1-.238-.151.059.059,0,0,1-.053-.032,2.273,2.273,0,0,1-.384-.241,1.27,1.27,0,0,1-.266-.168A.237.237,0,0,1,6.442,21a.058.058,0,0,1-.052-.034.062.062,0,0,1-.053-.031.175.175,0,0,1-.091-.057.116.116,0,0,1-.073-.047.125.125,0,0,1-.085-.054.729.729,0,0,1-.215-.135.245.245,0,0,1-.108-.065.458.458,0,0,1-.148-.1.039.039,0,0,1-.042-.027,2.92,2.92,0,0,1-.438-.274.767.767,0,0,1-.218-.138,1.079,1.079,0,0,1-.245-.155.11.11,0,0,1-.075-.045.423.423,0,0,1-.142-.09,2.005,2.005,0,0,1-.357-.225l-.076-.045a.868.868,0,0,1-.2-.126.113.113,0,0,1-.074-.048c-.1-.017-.154-.142-.272-.113l-.239.154a1.259,1.259,0,0,1-.248.152.117.117,0,0,1-.075.049.817.817,0,0,1-.225.14.228.228,0,0,1-.1.068,1.285,1.285,0,0,1-.249.156l-.1.065a2.013,2.013,0,0,1-.331.206.2.2,0,0,1-.112.071.2.2,0,0,1-.1.067.119.119,0,0,1-.078.047,1.346,1.346,0,0,1-.3.168c-.029.03-.076.037-.093.081a1,1,0,0,1-.243.151L.6,20.994l-.356.237L.2,21.27c-.046.051-.07.12-.133.157a.123.123,0,0,1-.04.1c.02.06-.035.108-.027.166,0,.033,0,.066.005.1.054.026.012.08.033.115l.155.217.137.107c.055.034.124.049.164.107.056.009.091.053.135.083a3.379,3.379,0,0,1,.4.252c.037,0,.057.032.082.054l.054.011a.7.7,0,0,1,.191.123.546.546,0,0,1,.17.106c.048.024.1.038.127.094l.02.02.115.066a1.66,1.66,0,0,1,.258.173c.032-.006.049.02.071.034a1.765,1.765,0,0,1,.3.19c.066.042.147.059.2.127.046-.012.061.025.082.053a.182.182,0,0,1,.105.063,1.129,1.129,0,0,1,.284.185.2.2,0,0,1,.128.077,5.883,5.883,0,0,1,.569.356l.083.052a.548.548,0,0,1,.3.2.338.338,0,0,1,.159.1.252.252,0,0,1,.14.09.081.081,0,0,1,.078.046,3.009,3.009,0,0,1,.315.184l.09.066.111.075A.255.255,0,0,1,5.2,25.3a2.529,2.529,0,0,1,.3.19c.052.015.107.027.135.083.049,0,.077.043.115.065a.016.016,0,0,1,.017.012c.125.092.3.106.389.254.081.01.132.078.205.1a.6.6,0,0,1,.19.13l.171.117a2.947,2.947,0,0,1,.462.3.49.49,0,0,1,.193.116,4.083,4.083,0,0,1,.431.269c.1.063.2.126.3.188l.222.141.321.193A1.456,1.456,0,0,1,9,27.674l.129.1.087.061a.476.476,0,0,1,.183.116.012.012,0,0,1,.017,0L9.491,28l.139.068a.467.467,0,0,1,.158.1c.033.011.071.018.08.061l.031.017h0l.3.18c.055.029.126.039.143.115a.135.135,0,0,1,.127.055.662.662,0,0,1,.271.19,2.626,2.626,0,0,1,.419.27,1.184,1.184,0,0,1,.228.127c.034.035.092.039.117.087a.292.292,0,0,1,.134.084c.046-.011.063.023.083.053a1.8,1.8,0,0,1,.385.244.107.107,0,0,1,.073.038.376.376,0,0,1,.141.094c.047,0,.068.045.1.07a.437.437,0,0,1,.2.1.171.171,0,0,1,.1.06.094.094,0,0,1,.072.045c.086.07.2.094.28.177l.2.153a1.994,1.994,0,0,1,.532.331.137.137,0,0,1,.085.049l.029.023a2,2,0,0,1,.381.243.242.242,0,0,1,.135.084,1.318,1.318,0,0,1,.271.165c.043.024.094.035.119.084a.444.444,0,0,1,.184.11c.02,0,.042,0,.05.025a.243.243,0,0,1,.161.086c.054,0,.078.05.109.085.029,0,.044.021.057.043a.717.717,0,0,1,.222.141.654.654,0,0,0,.8-.032c.091-.01.123-.126.22-.126l.011,0h.012c0-.072.064-.061.1-.084a.357.357,0,0,1,.174-.1l.078-.064c.04-.054.11-.044.16-.077.008-.061.074-.051.1-.083.082-.1.212-.117.306-.2l.135-.084.163-.106.026-.02c.051-.067.155-.049.2-.125l.035,0c.016-.015.021-.044.052-.039a6.335,6.335,0,0,1,.557-.356l.2-.12a1.889,1.889,0,0,1,.28-.177.091.091,0,0,1,.071-.045.564.564,0,0,1,.164-.1c.028-.049.092-.027.127-.064.006-.075.079-.05.117-.078.04-.009.049-.074.1-.056a.966.966,0,0,1,.384-.247.331.331,0,0,1,.191-.134.4.4,0,0,1,.133-.088c.035-.019.063-.052.108-.047.042-.113.181-.09.244-.174a1.332,1.332,0,0,1,.245-.129.285.285,0,0,1,.168-.13,1.337,1.337,0,0,1,.27-.167c.038-.059.11-.053.162-.084a.293.293,0,0,1,.164-.107c.05-.1.168-.1.243-.171l.195-.12a.127.127,0,0,1,.076-.049.4.4,0,0,1,.138-.1c.09-.029.142-.129.245-.134l.161-.114c.066-.031.109-.106.193-.1a.708.708,0,0,1,.242-.17l.31-.2.265-.167.049,0c.023-.065.086-.082.139-.112.017-.039.053-.022.082-.027l.434-.3a.282.282,0,0,1,.117-.068,4.745,4.745,0,0,1,.538-.325c.042-.073.134-.068.189-.121a.634.634,0,0,1,.214-.145c.051-.063.135-.073.2-.121a4.642,4.642,0,0,1,.516-.329l.1-.066c.166-.078.3-.209.456-.3.02-.01.041-.018.061-.027l.118-.062a1.6,1.6,0,0,1,.316-.212l.083-.051a.1.1,0,0,1,.082-.053.124.124,0,0,1,.107-.048.075.075,0,0,1,.056-.059l.138-.078a.589.589,0,0,1,.218-.132,1.7,1.7,0,0,1,.268-.176l.11-.075c.022-.045.089-.011.107-.062l.164-.106c.026-.059.1-.036.135-.083l.276-.178a.093.093,0,0,1,.08-.032c.016-.053.068-.061.108-.084.066-.046.122-.112.213-.1.052-.1.168-.123.247-.19a.213.213,0,0,1,.109-.064c.073-.044.145-.089.217-.134a1.033,1.033,0,0,1,.19-.117.217.217,0,0,1,.106-.067.558.558,0,0,1,.17-.106.706.706,0,0,1,.192-.123l.052-.017c.07-.034.1-.127.192-.129.079-.095.207-.119.3-.2a.847.847,0,0,1,.217-.137.364.364,0,0,1,.137-.08l.105-.09v-.01l.01,0,.057-.1a.81.81,0,0,0,.073-.36.779.779,0,0,0-.217-.383" transform="translate(0 0.001)" fill="#a08f82"/>
    <path id="Path_81828" data-name="Path 81828" d="M25.937,20.775h0Z" transform="translate(0 0.001)" fill="#010101"/>
    <path id="Path_81829" data-name="Path 81829" d="M23.136,22.539Z" transform="translate(0 0.001)" fill="#010101"/>
    <path id="Path_81830" data-name="Path 81830" d="M23.435,22.35Z" transform="translate(0 0.001)" fill="#010101"/>
    <path id="Path_81831" data-name="Path 81831" d="M21.233,23.736Z" transform="translate(0 0.001)" fill="#010101"/>
  </g>
</svg>
