<svg width="30" height="29" viewBox="0 0 30 29" fill="none" xmlns="http://www.w3.org/2000/svg">
<g clip-path="url(#clip0_48_2020)">
<path d="M0 23.7598H23.759V0.000764847H0L0 23.7598ZM20.425 1.18877L18.525 7.84577L1.188 13.2598L1.188 1.18877H20.425ZM1.188 22.5718L1.188 14.5068L10.53 11.5878L12.883 22.5718H1.188ZM22.571 22.5718H14.071C14.0709 22.4881 14.0622 22.4047 14.045 22.3228L11.668 11.2318L19.488 8.78677L21.66 1.18677H22.57L22.571 22.5718Z" fill="#5D5449"/>
<path d="M20.4245 1.18872L18.5245 7.84572L1.1875 13.2617L1.1875 1.18872L20.4245 1.18872Z" fill="#E9F3E8"/>
<path d="M22.5699 22.5703H14.0699C14.0698 22.4866 14.0611 22.4032 14.0439 22.3213L11.6699 11.2303L19.4899 8.78531L21.6619 1.18531H22.5719L22.5699 22.5703Z" fill="#5A806D"/>
<path d="M29.2511 15.8091C29.5703 16.573 29.6425 17.4176 29.4577 18.2246C29.2728 19.0316 28.84 19.7605 28.2201 20.3092C27.6002 20.858 26.8241 21.199 26.0006 21.2845C25.1771 21.37 24.3476 21.1957 23.6281 20.7861L22.5281 21.9861L23.3111 22.7721L23.7791 22.3041C23.8359 22.2472 23.9034 22.2021 23.9777 22.1713C24.052 22.1405 24.1317 22.1246 24.2121 22.1246C24.2925 22.1246 24.3722 22.1405 24.4465 22.1713C24.5208 22.2021 24.5883 22.2472 24.6451 22.3041L28.4391 26.1371C28.496 26.194 28.5411 26.2615 28.5719 26.3358C28.6027 26.4101 28.6186 26.4897 28.6186 26.5701C28.6186 26.6506 28.6027 26.7302 28.5719 26.8045C28.5411 26.8788 28.496 26.9463 28.4391 27.0031L26.7101 28.7331C26.6533 28.7902 26.5858 28.8354 26.5115 28.8663C26.4372 28.8972 26.3576 28.913 26.2771 28.913C26.1966 28.913 26.117 28.8972 26.0426 28.8663C25.9683 28.8354 25.9009 28.7902 25.8441 28.7331L22.0501 24.9001C21.9931 24.8434 21.9478 24.7759 21.9169 24.7016C21.8861 24.6273 21.8702 24.5476 21.8702 24.4671C21.8702 24.3867 21.8861 24.307 21.9169 24.2327C21.9478 24.1584 21.9931 24.0909 22.0501 24.0341L22.4771 23.6071L21.7311 22.8591L16.4831 28.5911C16.3694 28.7049 16.2344 28.7952 16.0858 28.8568C15.9372 28.9184 15.778 28.9501 15.6171 28.9501C15.4562 28.9501 15.297 28.9184 15.1484 28.8568C14.9998 28.7952 14.8648 28.7049 14.7511 28.5911L14.3181 28.1581C14.2043 28.0445 14.114 27.9095 14.0524 27.7609C13.9908 27.6123 13.9591 27.453 13.9591 27.2921C13.9591 27.1313 13.9908 26.972 14.0524 26.8234C14.114 26.6748 14.2043 26.5398 14.3181 26.4261L20.2961 21.4191L16.3261 17.4391H15.0721L13.6211 15.1051L14.7911 13.9351L17.1771 15.3951L17.1911 16.6241L21.2071 20.6531L22.3761 19.6751C21.8633 18.9779 21.5924 18.1322 21.6046 17.2668C21.6167 16.4014 21.9113 15.5637 22.4434 14.8811C22.9755 14.1985 23.7161 13.7085 24.5523 13.4856C25.3886 13.2626 26.2748 13.319 27.0761 13.6461L24.5071 16.1861L26.6731 18.3531L29.2511 15.8091ZM15.7551 27.0371C15.6694 26.9514 15.5601 26.893 15.4412 26.8694C15.3223 26.8458 15.1991 26.8579 15.0871 26.9043C14.9751 26.9507 14.8793 27.0293 14.812 27.1301C14.7446 27.2309 14.7087 27.3494 14.7087 27.4706C14.7087 27.5919 14.7446 27.7104 14.812 27.8112C14.8793 27.912 14.9751 27.9906 15.0871 28.037C15.1991 28.0834 15.3223 28.0955 15.4412 28.0719C15.5601 28.0482 15.6694 27.9899 15.7551 27.9041C15.812 27.8472 15.8572 27.7796 15.888 27.7052C15.9188 27.6309 15.9347 27.5511 15.9347 27.4706C15.9347 27.3901 15.9188 27.3104 15.888 27.236C15.8572 27.1616 15.812 27.0941 15.7551 27.0371Z" fill="#5D5449"/>
</g>
<defs>
<clipPath id="clip0_48_2020">
<rect width="29.554" height="28.951" fill="white"/>
</clipPath>
</defs>
</svg>
