<svg width="40" height="40" viewBox="0 0 40 40" fill="none" xmlns="http://www.w3.org/2000/svg">
<g clip-path="url(#clip0_48_1208)">
<path opacity="0.75" d="M33.3323 11.4912H9.30273V15.0321H33.3323V11.4912Z" fill="#85C0A4"/>
<path opacity="0.75" d="M31.8808 24.9229H10.1719V28.6274H31.8808V24.9229Z" fill="#85C0A4"/>
<path opacity="0.75" d="M25.6775 20.7631L19.3236 17.0169L15.4015 16.8624L13.8961 17.3272L13.6157 17.8363L23.8712 24.0418L25.6775 20.7631Z" fill="#85C0A4"/>
<path d="M33.9738 10H8.81512C8.54326 10.0004 8.28264 10.1138 8.0904 10.3152C7.89816 10.5167 7.79 10.7898 7.78962 11.0748V15.2631C7.7899 15.5142 7.85542 15.7605 7.97913 15.9755C8.10284 16.1905 8.28009 16.3662 8.49184 16.4837L19.853 23.3578H6.08973C5.80102 23.358 5.52417 23.4781 5.31989 23.692C5.11561 23.9058 5.00057 24.1958 5 24.4983V28.8579C4.99981 29.0081 5.02786 29.1568 5.08253 29.2956C5.1372 29.4343 5.21743 29.5605 5.31863 29.6667C5.41983 29.773 5.54002 29.8573 5.67232 29.9149C5.80463 29.9725 5.94647 30.0021 6.08973 30.0022H32.468C32.757 30.002 33.034 29.8817 33.2384 29.6675C33.4427 29.4534 33.5575 29.163 33.5577 28.8602V27.6635C33.5577 27.5413 33.5114 27.4241 33.429 27.3377C33.3465 27.2513 33.2347 27.2028 33.1181 27.2028C33.0015 27.2028 32.8897 27.2513 32.8073 27.3377C32.7248 27.4241 32.6785 27.5413 32.6785 27.6635V28.8602C32.6785 28.9197 32.656 28.9768 32.6158 29.0188C32.5757 29.0609 32.5212 29.0846 32.4644 29.0846H9.71359V24.2837H11.3229V27.0966C11.3229 27.2188 11.3692 27.336 11.4516 27.4224C11.534 27.5088 11.6459 27.5573 11.7625 27.5573C11.879 27.5573 11.9909 27.5088 12.0733 27.4224C12.1557 27.336 12.2021 27.2188 12.2021 27.0966V24.2837H13.6629V25.6621C13.6629 25.7226 13.6742 25.7825 13.6963 25.8384C13.7184 25.8943 13.7508 25.9451 13.7916 25.9879C13.8325 26.0307 13.8809 26.0646 13.9343 26.0877C13.9876 26.1109 14.0448 26.1228 14.1025 26.1228C14.1602 26.1228 14.2174 26.1109 14.2707 26.0877C14.324 26.0646 14.3725 26.0307 14.4133 25.9879C14.4541 25.9451 14.4865 25.8943 14.5086 25.8384C14.5307 25.7825 14.5421 25.7226 14.5421 25.6621V24.2837H16.0029V25.6621C16.0029 25.7226 16.0143 25.7825 16.0364 25.8384C16.0585 25.8943 16.0908 25.9451 16.1317 25.9879C16.1725 26.0307 16.2209 26.0646 16.2743 26.0877C16.3276 26.1109 16.3848 26.1228 16.4425 26.1228C16.5002 26.1228 16.5574 26.1109 16.6107 26.0877C16.6641 26.0646 16.7125 26.0307 16.7534 25.9879C16.7942 25.9451 16.8266 25.8943 16.8486 25.8384C16.8707 25.7825 16.8821 25.7226 16.8821 25.6621V24.2837H18.3451V27.0966C18.3451 27.2188 18.3914 27.336 18.4738 27.4224C18.5563 27.5088 18.6681 27.5573 18.7847 27.5573C18.9013 27.5573 19.0131 27.5088 19.0955 27.4224C19.178 27.336 19.2243 27.2188 19.2243 27.0966V24.2837H20.6851V25.6621C20.6851 25.7843 20.7314 25.9015 20.8139 25.9879C20.8963 26.0743 21.0081 26.1228 21.1247 26.1228C21.2413 26.1228 21.3531 26.0743 21.4355 25.9879C21.518 25.9015 21.5643 25.7843 21.5643 25.6621V24.2837H23.0251V25.6621C23.0251 25.7843 23.0714 25.9015 23.1539 25.9879C23.2363 26.0743 23.3481 26.1228 23.4647 26.1228C23.5813 26.1228 23.6931 26.0743 23.7756 25.9879C23.858 25.9015 23.9043 25.7843 23.9043 25.6621V24.2837H25.3651V27.0966C25.3651 27.2188 25.4115 27.336 25.4939 27.4224C25.5763 27.5088 25.6882 27.5573 25.8048 27.5573C25.9213 27.5573 26.0332 27.5088 26.1156 27.4224C26.198 27.336 26.2444 27.2188 26.2444 27.0966V24.2837H27.7052V25.6621C27.7052 25.7843 27.7515 25.9015 27.8339 25.9879C27.9164 26.0743 28.0282 26.1228 28.1448 26.1228C28.2614 26.1228 28.3732 26.0743 28.4556 25.9879C28.5381 25.9015 28.5844 25.7843 28.5844 25.6621V24.2837H30.0452V27.0966C30.0452 27.2188 30.0915 27.336 30.174 27.4224C30.2564 27.5088 30.3682 27.5573 30.4848 27.5573C30.6014 27.5573 30.7132 27.5088 30.7956 27.4224C30.8781 27.336 30.9244 27.2188 30.9244 27.0966V24.2837H32.1454C32.2875 24.2839 32.4236 24.3432 32.5239 24.4485C32.6243 24.5538 32.6807 24.6965 32.6807 24.8454V25.4714C32.6807 25.5936 32.727 25.7108 32.8094 25.7972C32.8919 25.8836 33.0037 25.9321 33.1203 25.9321C33.2369 25.9321 33.3487 25.8836 33.4311 25.7972C33.5136 25.7108 33.5599 25.5936 33.5599 25.4714V24.8416C33.5592 24.5578 33.4809 24.28 33.3342 24.0414C33.1874 23.8028 32.9785 23.6133 32.7321 23.4954L30.2236 21.9756C30.1736 21.9454 30.1184 21.9257 30.0612 21.9178C30.0039 21.9099 29.9458 21.9139 29.89 21.9296C29.8343 21.9453 29.782 21.9723 29.7362 22.0091C29.6904 22.0459 29.6519 22.0919 29.6231 22.1443C29.5942 22.1967 29.5755 22.2545 29.5679 22.3145C29.5604 22.3745 29.5642 22.4354 29.5792 22.4939C29.5941 22.5523 29.6199 22.6071 29.655 22.6551C29.6902 22.7031 29.734 22.7434 29.784 22.7736L30.756 23.3615H26.0966L27.2656 21.2397L27.9942 21.6809C28.0952 21.742 28.2152 21.7586 28.3278 21.727C28.4404 21.6953 28.5364 21.6181 28.5947 21.5123C28.653 21.4065 28.6688 21.2807 28.6386 21.1627C28.6085 21.0446 28.5348 20.944 28.4338 20.8829L25.2981 18.9855L21.4351 16.6482H33.9738C34.2457 16.6478 34.5063 16.5345 34.6985 16.333C34.8907 16.1315 34.9989 15.8584 34.9993 15.5735V11.0748C34.9989 10.7898 34.8907 10.5167 34.6985 10.3152C34.5063 10.1138 34.2457 10.0004 33.9738 10ZM8.8351 29.0786H6.08973C6.03295 29.0786 5.97849 29.0549 5.93834 29.0129C5.89819 28.9708 5.87564 28.9137 5.87564 28.8542V24.4946C5.87564 24.4351 5.89819 24.378 5.93834 24.3359C5.97849 24.2939 6.03295 24.2702 6.08973 24.2702H8.8351V29.0786ZM12.055 17.5749L10.515 16.643H12.5646L12.055 17.5749ZM22.4514 18.3228L21.7934 19.5195C21.7645 19.5719 21.7458 19.6297 21.7382 19.6897C21.7307 19.7497 21.7345 19.8106 21.7495 19.8691C21.7644 19.9275 21.7902 19.9823 21.8253 20.0303C21.8605 20.0783 21.9043 20.1186 21.9543 20.1488C22.0043 20.1791 22.0595 20.1987 22.1167 20.2066C22.174 20.2145 22.2321 20.2105 22.2879 20.1949C22.3437 20.1792 22.3959 20.1522 22.4417 20.1153C22.4875 20.0785 22.526 20.0326 22.5548 19.9802L23.2128 18.7835L24.4781 19.5494L23.8201 20.746C23.7913 20.7984 23.7725 20.8563 23.765 20.9163C23.7575 20.9763 23.7613 21.0372 23.7762 21.0957C23.7911 21.1541 23.8169 21.2089 23.8521 21.2569C23.8872 21.3049 23.931 21.3452 23.981 21.3754C24.031 21.4057 24.0862 21.4253 24.1435 21.4332C24.2007 21.4411 24.2589 21.4371 24.3146 21.4214C24.3704 21.4058 24.4227 21.3788 24.4685 21.3419C24.5143 21.3051 24.5527 21.2592 24.5816 21.2068L25.2395 20.0101L26.5048 20.776L25.0825 23.3585H21.6107L18.8989 21.7131L19.5575 20.5164C19.5864 20.464 19.6051 20.4062 19.6127 20.3462C19.6202 20.2862 19.6164 20.2253 19.6015 20.1668C19.5865 20.1084 19.5607 20.0536 19.5256 20.0056C19.4904 19.9576 19.4466 19.9173 19.3966 19.8871C19.3466 19.8568 19.2914 19.8372 19.2342 19.8293C19.177 19.8214 19.1188 19.8254 19.063 19.841C19.0073 19.8567 18.955 19.8837 18.9092 19.9206C18.8634 19.9574 18.825 20.0033 18.7961 20.0557L18.1374 21.2524L12.8194 18.0364L13.5865 16.6445H17.9754L17.7435 17.0648C17.7146 17.1172 17.6959 17.1751 17.6883 17.235C17.6808 17.295 17.6846 17.356 17.6996 17.4144C17.7145 17.4729 17.7403 17.5277 17.7754 17.5757C17.8106 17.6237 17.8544 17.6639 17.9044 17.6942C17.9544 17.7244 18.0096 17.7441 18.0668 17.752C18.1241 17.7599 18.1822 17.7559 18.238 17.7402C18.2938 17.7245 18.346 17.6975 18.3918 17.6607C18.4376 17.6239 18.4761 17.5779 18.5049 17.5255L18.9902 16.6445H19.6803L20.4282 17.097L19.8266 18.1889C19.7683 18.2948 19.7525 18.4205 19.7827 18.5385C19.8129 18.6566 19.8865 18.7572 19.9875 18.8183C20.0885 18.8794 20.2085 18.8959 20.3211 18.8643C20.4337 18.8327 20.5297 18.7555 20.588 18.6496L21.1896 17.5577L22.4514 18.3228ZM34.1208 15.5675C34.1208 15.6081 34.1054 15.6471 34.0779 15.6759C34.0505 15.7047 34.0133 15.7208 33.9745 15.7208H9.10771C8.99112 15.7208 8.87931 15.6723 8.79687 15.5859C8.71443 15.4995 8.66811 15.3823 8.66811 15.2601V11.0718C8.66811 11.0311 8.68352 10.9921 8.71096 10.9634C8.7384 10.9346 8.77561 10.9184 8.81441 10.9184H10.4237V12.2968C10.4237 12.3573 10.435 12.4173 10.4571 12.4732C10.4792 12.5291 10.5116 12.5798 10.5524 12.6226C10.5932 12.6654 10.6417 12.6993 10.695 12.7225C10.7484 12.7456 10.8055 12.7576 10.8633 12.7576C10.921 12.7576 10.9782 12.7456 11.0315 12.7225C11.0848 12.6993 11.1333 12.6654 11.1741 12.6226C11.2149 12.5798 11.2473 12.5291 11.2694 12.4732C11.2915 12.4173 11.3029 12.3573 11.3029 12.2968V10.9214H12.7637V13.7343C12.7637 13.8565 12.81 13.9737 12.8924 14.0601C12.9749 14.1465 13.0867 14.1951 13.2033 14.1951C13.3199 14.1951 13.4317 14.1465 13.5141 14.0601C13.5966 13.9737 13.6429 13.8565 13.6429 13.7343V10.9214H15.1051V12.2998C15.1051 12.3603 15.1165 12.4203 15.1386 12.4762C15.1607 12.532 15.1931 12.5828 15.2339 12.6256C15.2747 12.6684 15.3232 12.7023 15.3765 12.7255C15.4299 12.7486 15.487 12.7606 15.5447 12.7606C15.6025 12.7606 15.6596 12.7486 15.713 12.7255C15.7663 12.7023 15.8148 12.6684 15.8556 12.6256C15.8964 12.5828 15.9288 12.532 15.9509 12.4762C15.973 12.4203 15.9843 12.3603 15.9843 12.2998V10.9214H17.4452V12.2998C17.4452 12.3603 17.4565 12.4203 17.4786 12.4762C17.5007 12.532 17.5331 12.5828 17.5739 12.6256C17.6147 12.6684 17.6632 12.7023 17.7165 12.7255C17.7699 12.7486 17.827 12.7606 17.8848 12.7606C17.9425 12.7606 17.9997 12.7486 18.053 12.7255C18.1063 12.7023 18.1548 12.6684 18.1956 12.6256C18.2364 12.5828 18.2688 12.532 18.2909 12.4762C18.313 12.4203 18.3244 12.3603 18.3244 12.2998V10.9214H19.7852V13.7343C19.7852 13.8565 19.8315 13.9737 19.914 14.0601C19.9964 14.1465 20.1082 14.1951 20.2248 14.1951C20.3414 14.1951 20.4532 14.1465 20.5356 14.0601C20.6181 13.9737 20.6644 13.8565 20.6644 13.7343V10.9214H22.1274V12.2998C22.1274 12.422 22.1737 12.5392 22.2561 12.6256C22.3386 12.712 22.4504 12.7606 22.567 12.7606C22.6836 12.7606 22.7954 12.712 22.8778 12.6256C22.9603 12.5392 23.0066 12.422 23.0066 12.2998V10.9214H24.4674V12.2998C24.4674 12.422 24.5137 12.5392 24.5961 12.6256C24.6786 12.712 24.7904 12.7606 24.907 12.7606C25.0236 12.7606 25.1354 12.712 25.2178 12.6256C25.3003 12.5392 25.3466 12.422 25.3466 12.2998V10.9214H26.8074V13.7343C26.8074 13.8565 26.8537 13.9737 26.9362 14.0601C27.0186 14.1465 27.1304 14.1951 27.247 14.1951C27.3636 14.1951 27.4754 14.1465 27.5579 14.0601C27.6403 13.9737 27.6866 13.8565 27.6866 13.7343V10.9214H29.1474V12.2998C29.1474 12.3603 29.1588 12.4203 29.1809 12.4762C29.203 12.532 29.2354 12.5828 29.2762 12.6256C29.317 12.6684 29.3655 12.7023 29.4188 12.7255C29.4721 12.7486 29.5293 12.7606 29.587 12.7606C29.6448 12.7606 29.7019 12.7486 29.7553 12.7255C29.8086 12.7023 29.8571 12.6684 29.8979 12.6256C29.9387 12.5828 29.9711 12.532 29.9932 12.4762C30.0153 12.4203 30.0266 12.3603 30.0266 12.2998V10.9214H31.4875V13.7343C31.4875 13.8565 31.5338 13.9737 31.6162 14.0601C31.6987 14.1465 31.8105 14.1951 31.9271 14.1951C32.0437 14.1951 32.1555 14.1465 32.2379 14.0601C32.3204 13.9737 32.3667 13.8565 32.3667 13.7343V10.9214H33.9738C34.0126 10.9214 34.0498 10.9376 34.0772 10.9663C34.1047 10.9951 34.1201 11.0341 34.1201 11.0748L34.1208 15.5675Z" fill="#EFE9E4"/>
<path d="M7.26454 25.9083C7.35162 25.9083 7.43675 25.8812 7.50916 25.8305C7.58157 25.7798 7.63801 25.7077 7.67133 25.6234C7.70466 25.5391 7.71338 25.4463 7.69639 25.3568C7.6794 25.2673 7.63746 25.1851 7.57589 25.1205C7.51431 25.056 7.43585 25.012 7.35044 24.9942C7.26502 24.9764 7.17649 24.9856 7.09603 25.0205C7.01558 25.0554 6.94681 25.1146 6.89843 25.1904C6.85004 25.2663 6.82422 25.3556 6.82422 25.4468C6.82422 25.5692 6.87061 25.6866 6.95318 25.7731C7.03576 25.8597 7.14776 25.9083 7.26454 25.9083Z" fill="#EFE9E4"/>
<path d="M7.26454 28.3702C7.35162 28.3702 7.43675 28.3431 7.50916 28.2924C7.58157 28.2417 7.63801 28.1696 7.67133 28.0853C7.70466 28.001 7.71338 27.9082 7.69639 27.8187C7.6794 27.7292 7.63746 27.647 7.57589 27.5824C7.51431 27.5179 7.43585 27.4739 7.35044 27.4561C7.26502 27.4383 7.17649 27.4475 7.09603 27.4824C7.01558 27.5173 6.94681 27.5765 6.89843 27.6524C6.85004 27.7282 6.82422 27.8175 6.82422 27.9087C6.82422 28.0311 6.87061 28.1485 6.95318 28.235C7.03576 28.3216 7.14776 28.3702 7.26454 28.3702Z" fill="#EFE9E4"/>
</g>
<defs>
<clipPath id="clip0_48_1208">
<rect width="30" height="20" fill="white" transform="translate(5 10)"/>
</clipPath>
</defs>
</svg>
