<svg xmlns="http://www.w3.org/2000/svg" width="17.113" height="17.113" viewBox="0 0 17.113 17.113">
  <path id="Icon_ionic-ios-arrow-dropdown-circle" data-name="Icon ionic-ios-arrow-dropdown-circle" d="M3.375,11.932a8.557,8.557,0,1,1,8.557,8.557A8.555,8.555,0,0,1,3.375,11.932Zm11.893,1.785a.8.8,0,0,0,1.123,0,.784.784,0,0,0,.23-.559.8.8,0,0,0-.234-.564L12.508,8.727a.793.793,0,0,0-1.094.025L7.476,12.676A.794.794,0,0,0,8.6,13.8l3.336-3.369Z" transform="translate(-3.375 -3.375)" fill="#5d5449"/>
</svg>
