<svg width="32" height="32" viewBox="0 0 32 32" fill="none" xmlns="http://www.w3.org/2000/svg">
<circle cx="16" cy="16" r="8" fill="#A08F82" fill-opacity="0.5"/>
<path fill-rule="evenodd" clip-rule="evenodd" d="M17.0002 17.0002H15.0002V15.0002H17.0002V17.0002ZM29.8002 16.0002C29.8002 8.37867 23.6217 2.2002 16.0002 2.2002C8.37867 2.2002 2.2002 8.37867 2.2002 16.0002C2.2002 23.6217 8.37867 29.8002 16.0002 29.8002V28.8002C9.52291 28.8099 4.05612 23.9861 3.2594 17.558C2.46269 11.1299 6.58639 5.1174 12.87 3.54544C19.1537 1.97348 25.6227 5.33599 27.9466 11.3821C30.2705 17.4281 27.719 24.2578 22.0002 27.2992V23.0002H21.0002V29.0002H27.0002V28.0002H22.7902C27.1175 25.5545 29.7952 20.9707 29.8002 16.0002Z" fill="#5D5449"/>
</svg>
