<svg width="17" height="16" viewBox="0 0 17 16" fill="none" xmlns="http://www.w3.org/2000/svg">
<path fill-rule="evenodd" clip-rule="evenodd" d="M6.5 14H15.5V15H6.5V14ZM15.5 2H6.5V3H15.5V2ZM6.5 9H15.5V8H6.5V9ZM4.5 3H3.5V0H1.5V1H2.5V3H1.5V4H4.5V3ZM4.5 12C4.5 11.4477 4.05228 11 3.5 11H2.5C1.947 11 1.5 11 1.5 12H3.5V13H3C2.72386 13 2.5 13.2239 2.5 13.5C2.5 13.7761 2.72386 14 3 14H3.5V15H1.5C1.5 16 1.947 16 2.5 16H3.5C4.05228 16 4.5 15.5523 4.5 15V14C4.49548 13.8225 4.44257 13.6496 4.347 13.5C4.44309 13.3506 4.49604 13.1776 4.5 13V12ZM3.5 8C4.05228 8 4.5 7.55228 4.5 7V6C4.5 5.44772 4.05228 5 3.5 5H2.5C1.94772 5 1.5 5.44772 1.5 6H3.5V7H2.5C1.94772 7 1.5 7.44772 1.5 8V9C1.5 9.55229 1.94772 10 2.5 10H4.5V9H2.5V8H3.5Z" fill="#EFE9E4"/>
</svg>
