<svg width="25" height="24" viewBox="0 0 25 24" fill="none" xmlns="http://www.w3.org/2000/svg">
<path d="M18.3207 9.778L23.0007 5H17.7717L16.1217 2H11.1727L7.87373 5H4.75373L1.57373 13.429L4.75373 13.667L5.71573 15.333V22L11.3517 19H18.3007L23.0997 13.429L18.3207 9.778ZM17.8417 18H11.1017L6.71573 20.335V15.065L5.35573 12.709L2.97973 12.531L5.44573 6H8.26173L11.5617 3H15.5317L17.1817 6H20.6227L16.8157 9.886L21.6497 13.579L17.8417 18ZM18.5117 13.852L16.6017 16H10.5857L8.71573 16.943V14.428L6.44073 10.785L5.79473 10.736L6.82773 8H9.03473L12.3327 5H14.3477L15.8747 7.778L13.5467 10.058L18.5117 13.852Z" fill="white"/>
</svg>
