<svg width="33" height="32" viewBox="0 0 33 32" fill="none" xmlns="http://www.w3.org/2000/svg">
<path d="M10.5 30H6C5.33696 30 4.70107 29.7366 4.23223 29.2678C3.76339 28.7989 3.5 28.163 3.5 27.5V23H4.5V27.5C4.5 27.8978 4.65804 28.2794 4.93934 28.5607C5.22064 28.842 5.60218 29 6 29H10.5V30ZM29.5 23V27.5C29.5 27.8978 29.342 28.2794 29.0607 28.5607C28.7794 28.842 28.3978 29 28 29H23.5V30H28C28.663 30 29.2989 29.7366 29.7678 29.2678C30.2366 28.7989 30.5 28.163 30.5 27.5V23H29.5ZM10.5 3H6C5.33696 3 4.70107 3.26339 4.23223 3.73223C3.76339 4.20107 3.5 4.83696 3.5 5.5V10H4.5V5.5C4.5 5.10218 4.65804 4.72064 4.93934 4.43934C5.22064 4.15804 5.60218 4 6 4H10.5V3ZM28 3H23.5V4H28C28.3978 4 28.7794 4.15804 29.0607 4.43934C29.342 4.72064 29.5 5.10218 29.5 5.5V10H30.5V5.5C30.5 4.83696 30.2366 4.20107 29.7678 3.73223C29.2989 3.26339 28.663 3 28 3ZM18.5 9H24.5V18H25.5V8H18.5V9ZM9.5 18V9H18.5V8H8.5V18H9.5ZM24.5 18V24H18.5V25H25.5V18H24.5ZM18.5 24H9.5V18H8.5V25H18.5V24Z" fill="#5D5449"/>
<rect x="9.5" y="9" width="15" height="15" fill="#85C0A4"/>
</svg>
