<svg width="32" height="32" viewBox="0 0 32 32" fill="none" xmlns="http://www.w3.org/2000/svg">
<path d="M15.687 2L2 15.687V14.273L14.273 2H15.687ZM8.273 2L2 8.273V9.687L9.687 2H8.273ZM11.273 2L2 11.273V12.687L12.687 2H11.273ZM2.271 2L2 2.271V3.685L3.685 2H2.271ZM5.271 2L2 5.271V6.686L6.686 2H5.271ZM30 2.687L20.975 11.712L21.968 12.325L30 4.293V5.707L22.842 12.865L23.822 13.471L30 7.293V8.707L24.695 14.012L25.652 14.604L30 10.256V11.67L25.703 15.967L24.996 18.322L30 13.318V14.732L24.39 20.343L23.725 22.555L30 16.281V17.695L17.695 30H16.28L22.28 24H20.731L14.731 30H13.317L19.317 24H17.67L11.67 30H10.256L16.256 24H14.707L8.707 30H7.293L13.293 24H11.707L5.707 30H4.293L10.293 24H8.687L2.687 30H2V29.273L7.92 23.353L7.664 22.023L2 27.687V26.273L7.436 20.837L7.18 19.507L2 24.687V23.273L6.951 18.322L6.695 16.992L2 21.687V20.273L6.467 15.806L6.211 14.476L2 18.687V17.273L12.686 6.587H12.687L17.273 2H18.687L13.561 7.126L14.541 7.732L20.273 2H21.687L15.414 8.273L16.394 8.879L23.273 2H24.687L17.268 9.419L18.248 10.025L26.273 2H27.687L19.122 10.565L20.102 11.171L29.273 2H30V2.687ZM20.657 30L30 20.657V19.243L19.243 30H20.657ZM29.729 30L30 29.729V28.315L28.315 30H29.729ZM26.719 30L30 26.72V25.305L25.305 30H26.719ZM23.719 30L30 23.72V22.305L22.305 30H23.719Z" fill="#85C0A4"/>
<path d="M15.687 2L2 15.687V14.273L14.273 2H15.687ZM8.273 2L2 8.273V9.687L9.687 2H8.273ZM11.273 2L2 11.273V12.687L12.687 2H11.273ZM2.271 2L2 2.271V3.685L3.685 2H2.271ZM5.271 2L2 5.271V6.686L6.686 2H5.271ZM30 2.687L20.975 11.712L21.968 12.325L30 4.293V5.707L22.842 12.865L23.822 13.471L30 7.293V8.707L24.695 14.012L25.652 14.604L30 10.256V11.67L25.703 15.967L24.996 18.322L30 13.318V14.732L24.39 20.343L23.725 22.555L30 16.281V17.695L17.695 30H16.28L22.28 24H20.731L14.731 30H13.317L19.317 24H17.67L11.67 30H10.256L16.256 24H14.707L8.707 30H7.293L13.293 24H11.707L5.707 30H4.293L10.293 24H8.687L2.687 30H2V29.273L7.92 23.353L7.664 22.023L2 27.687V26.273L7.436 20.837L7.18 19.507L2 24.687V23.273L6.951 18.322L6.695 16.992L2 21.687V20.273L6.467 15.806L6.211 14.476L2 18.687V17.273L12.686 6.587H12.687L17.273 2H18.687L13.561 7.126L14.541 7.732L20.273 2H21.687L15.414 8.273L16.394 8.879L23.273 2H24.687L17.268 9.419L18.248 10.025L26.273 2H27.687L19.122 10.565L20.102 11.171L29.273 2H30V2.687ZM12.837 7.854L7.074 13.671L8.87 23H22.546L24.861 15.291L12.837 7.854ZM20.657 30L30 20.657V19.243L19.243 30H20.657ZM29.729 30L30 29.729V28.315L28.315 30H29.729ZM26.719 30L30 26.72V25.305L25.305 30H26.719ZM23.719 30L30 23.72V22.305L22.305 30H23.719Z" fill="#6A6A6A"/>
</svg>
