<svg width="32" height="32" viewBox="0 0 32 32" fill="none" xmlns="http://www.w3.org/2000/svg">
<path d="M17 5H10V13H22V10H17V5Z" fill="#85C0A4"/>
<path d="M10 28.5V23.5H22V28.5H10Z" fill="#85C0A4"/>
<path fill-rule="evenodd" clip-rule="evenodd" d="M28 14H24V7.7L19.3 3H8V14H4C2.89543 14 2 14.8954 2 16V26C2 27.1046 2.89543 28 4 28H8V30H24V28H28C29.1046 28 30 27.1046 30 26V16C30 14.8954 29.1046 14 28 14ZM23 7.99L19 8V4.001L23 7.99ZM9 4.001H18V9H23V14H9V4.001ZM23 29H9V23H23V29ZM29 26C28.9994 26.5521 28.5521 26.9994 28 27H24V24H25V22H7V24H8V27H4C3.44794 26.9994 3.00055 26.5521 3 26V16C3.00055 15.4479 3.44794 15.0006 4 15H28C28.5521 15.0006 28.9994 15.4479 29 16V26ZM20.999 27H11V26H20.999V27ZM11 25V24H20.999V25H11ZM25 17H26V18H25V17Z" fill="#EFE9E4"/>
</svg>
