<svg width="40" height="40" viewBox="0 0 40 40" fill="none" xmlns="http://www.w3.org/2000/svg">
<path d="M21.25 6.25H12.5V16.25H27.5V12.5H21.25V6.25Z" fill="#85C0A4"/>
<path d="M12.5 35.625V29.375H27.5V35.625H12.5Z" fill="#85C0A4"/>
<path fill-rule="evenodd" clip-rule="evenodd" d="M35 17.5H30V9.625L24.125 3.75H10V17.5H5C3.61929 17.5 2.5 18.6193 2.5 20V32.5C2.5 33.8807 3.61929 35 5 35H10V37.5H30V35H35C36.3807 35 37.5 33.8807 37.5 32.5V20C37.5 18.6193 36.3807 17.5 35 17.5ZM28.75 9.9875L23.75 10V5.00125L28.75 9.9875ZM11.25 5.00125H22.5V11.25H28.75V17.5H11.25V5.00125ZM28.75 36.25H11.25V28.75H28.75V36.25ZM36.25 32.5C36.2493 33.1901 35.6901 33.7493 35 33.75H30V30H31.25V27.5H8.75V30H10V33.75H5C4.30993 33.7493 3.75069 33.1901 3.75 32.5V20C3.75069 19.3099 4.30993 18.7507 5 18.75H35C35.6901 18.7507 36.2493 19.3099 36.25 20V32.5ZM26.2488 33.75H13.75V32.5H26.2488V33.75ZM13.75 31.25V30H26.2488V31.25H13.75ZM31.25 21.25H32.5V22.5H31.25V21.25Z" fill="#5D5449"/>
</svg>
