<svg width="32" height="32" viewBox="0 0 32 32" fill="none" xmlns="http://www.w3.org/2000/svg">
<rect x="10" y="9" width="13" height="14" fill="#A08F82" fill-opacity="0.5"/>
<path fill-rule="evenodd" clip-rule="evenodd" d="M6.66013 20.354L2.80713 16.5L6.66013 12.646L7.36713 13.353L4.72113 16H16.0001V4.70697L13.3541 7.35397L12.6471 6.64697L16.5001 2.79297L20.3541 6.64697L19.6471 7.35397L17.0001 4.70697V16H28.2801L25.6331 13.354L26.3401 12.647L30.1931 16.5L26.3401 20.354L25.6331 19.647L28.2791 17H17.0001V28.293L19.6461 25.647L20.3531 26.354L16.5001 30.207L12.6461 26.353L13.3531 25.646L16.0001 28.293V17H4.72013L7.36713 19.646L6.66013 20.354Z" fill="#5D5449"/>
</svg>
