<svg width="16" height="16" viewBox="0 0 16 16" fill="none" xmlns="http://www.w3.org/2000/svg">
<path fill-rule="evenodd" clip-rule="evenodd" d="M14.4821 13.7842L9.70807 9.01123C11.3224 7.02949 11.1005 4.13032 9.20352 2.41726C7.3065 0.704191 4.3998 0.778198 2.59242 2.58558C0.785034 4.39297 0.711027 7.29967 2.42409 9.19669C4.13716 11.0937 7.03633 11.3155 9.01806 9.70123L13.7911 14.4742L14.4821 13.7842ZM3.31506 8.68723C2.03266 7.40577 1.83408 5.39688 2.84077 3.88914C3.84746 2.38141 5.77903 1.79478 7.45417 2.48803C9.12931 3.18128 10.0814 4.96131 9.72827 6.7395C9.3751 8.51769 7.81499 9.79876 6.00207 9.79923C4.99452 9.79883 4.02824 9.39894 3.31506 8.68723Z" fill="#FFFDFB"/>
</svg>
