<svg width="32" height="32" viewBox="0 0 32 32" fill="none" xmlns="http://www.w3.org/2000/svg">
<path d="M7.008 22.0357C6.84167 22.3855 6.73002 22.7589 6.67697 23.1429H0V1H22.069V12.8796L20.9655 13.5971V2.10714H17.6839C17.6199 2.31529 17.5073 2.488 17.2966 2.58764C16.3785 3.02607 15.4979 3.55971 15.4979 4.15757C15.4979 4.55946 15.829 4.74436 15.829 5.14293C15.829 5.712 15.1437 5.86257 14.9848 6.33421C14.9619 6.39886 14.9507 6.4671 14.9517 6.53571C14.9517 6.93982 15.3887 7.78125 14.3669 7.70596C14.1219 7.69046 13.6629 8.15989 13.7114 8.40346C13.8218 8.9515 14.0756 9.98003 13.2006 10.4539C12.4855 10.8392 12.5153 11.9153 11.7032 11.9153C11.2121 11.9153 11.0279 11.4027 10.5368 11.4027C10.1815 11.4027 9.91559 11.7459 9.91559 12.1013C9.91559 12.6228 9.47972 13.4919 8.78455 13.4919C8.40938 13.4919 8.09269 13.3812 7.90841 13.0512C7.68772 12.6593 7.49131 12.2829 7.03228 12.2829C6.55007 12.2829 6.19476 12.7147 6.19476 13.1996C6.19476 13.5539 6.34041 13.7554 6.34041 14.1152C6.34041 14.6644 5.90455 14.919 5.90455 15.4681C5.90455 15.7804 6.21352 15.9807 6.52469 15.9807C7.02566 15.9807 7.15476 15.7106 7.65241 15.7593C8.01214 15.7992 8.128 16.2664 8.128 16.4934C8.128 17.4167 6.56662 17.7156 7.14593 18.8737C7.37766 19.3409 8.85848 19.1206 8.85848 19.8989C8.85848 20.0119 8.84193 20.1115 8.82538 20.2111C8.28267 20.4731 7.80846 20.8587 7.44055 21.3371C7.47476 20.9042 7.584 20.5566 7.6171 20.4636L7.67228 20.3086C7.66455 20.3052 7.65683 20.3052 7.65021 20.303C7.18676 20.1945 6.48828 20.0307 6.15945 19.3708C5.65186 18.3522 6.0171 17.5806 6.40552 17.0835C5.50952 17.027 4.8011 16.324 4.8011 15.4681C4.8011 14.9112 5.01297 14.5215 5.1531 14.2614C5.18621 14.2016 5.23145 14.1174 5.23697 14.1152C5.23697 14.0798 5.22593 14.0377 5.19945 13.9359C5.15421 13.7587 5.09131 13.5196 5.09131 13.2007C5.09131 12.0847 5.96303 11.1757 7.03338 11.1757C7.97352 11.1757 8.45572 11.8046 8.74593 12.2917C8.7791 12.2327 8.80152 12.1682 8.81214 12.1013C8.81214 11.1049 9.58566 10.2967 10.5368 10.2967C11.0135 10.2967 11.3677 10.4827 11.6072 10.6454C11.8014 10.3 12.096 9.79293 12.7073 9.463C12.7757 9.33457 12.6775 8.8585 12.629 8.62046C12.544 8.192 12.6808 7.73254 13.0141 7.32511C13.1454 7.16457 13.4422 6.84904 13.8571 6.69182C13.8314 6.45175 13.8593 6.20895 13.9388 5.98104C14.0932 5.52379 14.3967 5.23925 14.6207 5.04439C14.4745 4.7717 14.3972 4.4672 14.3956 4.15757C14.3956 3.8055 14.6648 2.83232 15.7639 2.10714H1.10345V22.0357H7.008ZM13.4279 18.4929L14.5887 17.7378C14.8259 17.4942 15.0941 17.1399 15.1382 16.6085C15.2066 16.6174 15.2783 16.6229 15.3534 16.6229C15.9713 16.6229 16.3862 16.3195 16.661 16.025C16.7206 16.1025 16.7956 16.18 16.8739 16.2542L17.8582 15.6154C17.7876 15.5733 17.717 15.5346 17.6519 15.477C17.2767 15.1504 17.2866 14.4894 16.7757 14.4894C16.0905 14.4894 16.0386 15.5157 15.3534 15.5157C15.0433 15.5157 14.8977 15.2943 14.5876 15.2943C14.3117 15.2943 14.0414 15.4681 14.0414 15.7427V16.4568C14.0414 17.0602 13.2359 17.1809 13.2359 17.7854C13.2359 18.0312 13.4566 18.1242 13.4566 18.3711C13.4566 18.4165 13.4367 18.4508 13.4279 18.4929ZM10.4828 26.4643C12.0033 26.4643 13.2414 25.2221 13.2414 23.6964C13.2414 22.1708 12.0033 20.9286 10.4828 20.9286C8.96221 20.9286 7.72414 22.1708 7.72414 23.6964C7.72414 25.2221 8.96221 26.4643 10.4828 26.4643ZM31.9073 10.8414C31.9625 11.0595 32 11.2842 32 11.5179C32 12.8542 31.051 13.9724 29.7931 14.2304V26.5196C31.051 26.7776 32 27.8958 32 29.2321C32 29.4403 31.9724 29.6418 31.9294 29.8355C31.9183 29.8854 31.8985 29.9307 31.8852 29.9795C31.8463 30.1232 31.7957 30.2635 31.7341 30.3991C31.7065 30.4577 31.6723 30.5142 31.6403 30.5707C31.5407 30.7518 31.4212 30.9212 31.2839 31.0755C31.2044 31.1641 31.1206 31.2438 31.0301 31.3213C30.9639 31.3789 30.8977 31.4398 30.8259 31.4907C30.7818 31.5217 30.7377 31.5483 30.6913 31.576C30.4544 31.7232 30.1966 31.8333 29.9266 31.9026C29.8659 31.9192 29.8052 31.9369 29.7423 31.9491C29.5773 31.9814 29.4096 31.9985 29.2414 32C29.0097 32 28.789 31.9624 28.5738 31.9081C27.9781 31.7592 27.449 31.4152 27.0702 30.9305C26.6914 30.4458 26.4847 29.8481 26.4828 29.2321C26.4828 29.1535 26.4993 29.0794 26.5059 29.0019L13.9851 25.3073C14.1374 24.9752 14.2367 24.6176 14.2897 24.2422L26.8171 27.9401C27.0058 27.5797 27.2715 27.2655 27.5952 27.02C27.9189 26.7744 28.2926 26.6036 28.6897 26.5196V14.2292C28.1516 14.1182 27.659 13.8483 27.275 13.4542L13.9829 22.0833C13.8262 21.7473 13.6222 21.4355 13.3771 21.1577L26.6781 12.522C26.5508 12.2026 26.4845 11.8619 26.4828 11.5179C26.4828 10.5679 26.9628 9.72871 27.6921 9.2305C27.7032 9.22164 27.7175 9.215 27.7297 9.20725C27.8588 9.122 27.9956 9.04671 28.1379 8.98361C28.1633 8.97254 28.1898 8.96368 28.2152 8.95371C28.3432 8.90168 28.4767 8.86182 28.6124 8.82861C28.6521 8.81975 28.6897 8.80979 28.7294 8.80204C28.898 8.76866 29.0695 8.75123 29.2414 8.75C29.451 8.75 29.6519 8.77768 29.8483 8.82196C29.9012 8.83414 29.952 8.85518 30.0039 8.87068C30.144 8.91164 30.2797 8.95925 30.411 9.02014C30.4706 9.04893 30.528 9.08325 30.5854 9.11646C30.7421 9.20504 30.8877 9.30689 31.0246 9.42314C31.0665 9.45968 31.1128 9.49068 31.1526 9.52943C31.307 9.67889 31.4417 9.84496 31.5575 10.0265C31.5917 10.0797 31.6182 10.1372 31.6491 10.1937C31.7286 10.3376 31.7937 10.4893 31.8477 10.6476C31.8687 10.7119 31.8897 10.775 31.9073 10.8414ZM30.8966 10.9643C30.8966 10.6707 30.7803 10.389 30.5734 10.1814C30.3664 9.97379 30.0858 9.85714 29.7931 9.85714H28.6897C28.397 9.85714 28.1163 9.97379 27.9094 10.1814C27.7025 10.389 27.5862 10.6707 27.5862 10.9643V12.0714C27.5862 12.3651 27.7025 12.6467 27.9094 12.8543C28.1163 13.0619 28.397 13.1786 28.6897 13.1786H29.7931C30.0858 13.1786 30.3664 13.0619 30.5734 12.8543C30.7803 12.6467 30.8966 12.3651 30.8966 12.0714V10.9643ZM30.8966 28.6786C30.8966 28.3849 30.7803 28.1033 30.5734 27.8957C30.3664 27.6881 30.0858 27.5714 29.7931 27.5714H28.6897C28.397 27.5714 28.1163 27.6881 27.9094 27.8957C27.7025 28.1033 27.5862 28.3849 27.5862 28.6786V29.7857C27.5862 30.0793 27.7025 30.361 27.9094 30.5686C28.1163 30.7762 28.397 30.8929 28.6897 30.8929H29.7931C30.0858 30.8929 30.3664 30.7762 30.5734 30.5686C30.7803 30.361 30.8966 30.0793 30.8966 29.7857V28.6786Z" fill="#5D5449"/>
<path d="M16.9999 4.5C16.9999 4.1 17.9999 3.66667 18.4999 3.5H20.4999V13.5L17.9999 15V14C17.9999 13.6 17.6665 13.8333 17.4999 14L16.9999 13.5H16.4999C16.3332 13.6667 15.8999 14 15.4999 14C14.9999 14 14.9999 14.5 14.4999 14.5C13.9999 14.5 13.9999 15.5 13.4999 16.5L12.9999 17.5C12.4999 17.6667 11.1999 18 9.99988 18C9.59987 18 9.83321 17.6667 9.99988 17.5V17V15.5C9.99988 15 9.74973 15 9.49988 15H7.99988C7.59988 15 8.16655 14 8.49988 13.5C8.66655 13.6667 9.09988 14 9.49988 14C9.99988 14 10.4999 13.5 10.4999 13C10.4999 12.5 11.4999 13 11.9999 13C12.4999 13 12.4999 12.5 13.4999 11.5L14.9999 10C15.4999 9.5 14.9999 9.5 15.4999 9C15.9999 9 15.9999 8 15.9999 7.5C15.9999 7.1 16.3332 7.33333 16.4999 7.5L16.9999 6V4.5Z" fill="#85C0A4"/>
</svg>
