<svg width="32" height="32" viewBox="0 0 32 32" fill="none" xmlns="http://www.w3.org/2000/svg">
<path d="M8.351 21C8.20026 21.316 8.09908 21.6532 8.051 22H2V2H22V12.73L21 13.378V3H18.026C17.968 3.188 17.866 3.344 17.675 3.434C16.843 3.83 16.045 4.312 16.045 4.852C16.045 5.215 16.345 5.382 16.345 5.742C16.345 6.256 15.724 6.392 15.58 6.818C15.5592 6.87639 15.5491 6.93803 15.55 7C15.55 7.365 15.946 8.125 15.02 8.057C14.798 8.043 14.382 8.467 14.426 8.687C14.526 9.182 14.756 10.111 13.963 10.539C13.315 10.887 13.342 11.859 12.606 11.859C12.161 11.859 11.994 11.396 11.549 11.396C11.227 11.396 10.986 11.706 10.986 12.027C10.986 12.498 10.591 13.283 9.961 13.283C9.621 13.283 9.334 13.183 9.167 12.885C8.967 12.531 8.789 12.191 8.373 12.191C7.936 12.191 7.614 12.581 7.614 13.019C7.614 13.339 7.746 13.521 7.746 13.846C7.746 14.342 7.351 14.572 7.351 15.068C7.351 15.35 7.631 15.531 7.913 15.531C8.367 15.531 8.484 15.287 8.935 15.331C9.261 15.367 9.366 15.789 9.366 15.994C9.366 16.828 7.951 17.098 8.476 18.144C8.686 18.566 10.028 18.367 10.028 19.07C10.028 19.172 10.013 19.262 9.998 19.352C9.50617 19.5886 9.07642 19.9369 8.743 20.369C8.774 19.978 8.873 19.664 8.903 19.58L8.953 19.44C8.946 19.437 8.939 19.437 8.933 19.435C8.513 19.337 7.88 19.189 7.582 18.593C7.122 17.673 7.453 16.976 7.805 16.527C6.993 16.476 6.351 15.841 6.351 15.068C6.351 14.565 6.543 14.213 6.67 13.978C6.7 13.924 6.741 13.848 6.746 13.846C6.746 13.814 6.736 13.776 6.712 13.684C6.671 13.524 6.614 13.308 6.614 13.02C6.614 12.012 7.404 11.191 8.374 11.191C9.226 11.191 9.663 11.759 9.926 12.199C9.95606 12.1457 9.97638 12.0874 9.986 12.027C9.986 11.127 10.687 10.397 11.549 10.397C11.981 10.397 12.302 10.565 12.519 10.712C12.695 10.4 12.962 9.942 13.516 9.644C13.578 9.528 13.489 9.098 13.445 8.883C13.368 8.496 13.492 8.081 13.794 7.713C13.913 7.568 14.182 7.283 14.558 7.141C14.5347 6.92416 14.56 6.70486 14.632 6.499C14.772 6.086 15.047 5.829 15.25 5.653C15.1175 5.4067 15.0475 5.13166 15.046 4.852C15.046 4.534 15.29 3.655 16.286 3H3V21H8.351ZM14.169 17.8L15.221 17.118C15.436 16.898 15.679 16.578 15.719 16.098C15.781 16.106 15.846 16.111 15.914 16.111C16.474 16.111 16.85 15.837 17.099 15.571C17.153 15.641 17.221 15.711 17.292 15.778L18.184 15.201C18.12 15.163 18.056 15.128 17.997 15.076C17.657 14.781 17.666 14.184 17.203 14.184C16.582 14.184 16.535 15.111 15.914 15.111C15.633 15.111 15.501 14.911 15.22 14.911C14.97 14.911 14.725 15.068 14.725 15.316V15.961C14.725 16.506 13.995 16.615 13.995 17.161C13.995 17.383 14.195 17.467 14.195 17.69C14.195 17.731 14.177 17.762 14.169 17.8ZM11.5 25C12.878 25 14 23.878 14 22.5C14 21.122 12.878 20 11.5 20C10.122 20 9 21.122 9 22.5C9 23.878 10.122 25 11.5 25ZM30.916 10.889C30.966 11.086 31 11.289 31 11.5C31 12.707 30.14 13.717 29 13.95V25.05C30.14 25.283 31 26.293 31 27.5C31 27.688 30.975 27.87 30.936 28.045C30.926 28.09 30.908 28.131 30.896 28.175C30.8607 28.3048 30.8149 28.4316 30.759 28.554C30.734 28.607 30.703 28.658 30.674 28.709C30.5838 28.8726 30.4754 29.0256 30.351 29.165C30.279 29.245 30.203 29.317 30.121 29.387C30.061 29.439 30.001 29.494 29.936 29.54C29.896 29.568 29.856 29.592 29.814 29.617C29.5993 29.75 29.3656 29.8494 29.121 29.912C29.066 29.927 29.011 29.943 28.954 29.954C28.8044 29.9832 28.6524 29.9986 28.5 30C28.29 30 28.09 29.966 27.895 29.917C27.3552 29.7825 26.8756 29.4718 26.5324 29.034C26.1891 28.5962 26.0018 28.0563 26 27.5C26 27.429 26.015 27.362 26.021 27.292L14.674 23.955C14.812 23.655 14.902 23.332 14.95 22.993L26.303 26.333C26.474 26.0075 26.7148 25.7237 27.0082 25.5019C27.3015 25.2801 27.6402 25.1258 28 25.05V13.949C27.5124 13.8487 27.066 13.6049 26.718 13.249L14.672 21.043C14.53 20.7395 14.3451 20.4579 14.123 20.207L26.177 12.407C26.0616 12.1184 26.0016 11.8108 26 11.5C26 10.642 26.435 9.884 27.096 9.434C27.106 9.426 27.119 9.42 27.13 9.413C27.247 9.336 27.371 9.268 27.5 9.211C27.523 9.201 27.547 9.193 27.57 9.184C27.686 9.137 27.807 9.101 27.93 9.071C27.966 9.063 28 9.054 28.036 9.047C28.1889 9.01685 28.3442 9.00112 28.5 9C28.69 9 28.872 9.025 29.05 9.065C29.098 9.076 29.144 9.095 29.191 9.109C29.318 9.146 29.441 9.189 29.56 9.244C29.614 9.27 29.666 9.301 29.718 9.331C29.86 9.411 29.992 9.503 30.116 9.608C30.154 9.641 30.196 9.669 30.232 9.704C30.372 9.839 30.494 9.989 30.599 10.153C30.63 10.201 30.654 10.253 30.682 10.304C30.754 10.434 30.813 10.571 30.862 10.714C30.881 10.772 30.9 10.829 30.916 10.889ZM30 11C30 10.7348 29.8946 10.4804 29.7071 10.2929C29.5196 10.1054 29.2652 10 29 10H28C27.7348 10 27.4804 10.1054 27.2929 10.2929C27.1054 10.4804 27 10.7348 27 11V12C27 12.2652 27.1054 12.5196 27.2929 12.7071C27.4804 12.8946 27.7348 13 28 13H29C29.2652 13 29.5196 12.8946 29.7071 12.7071C29.8946 12.5196 30 12.2652 30 12V11ZM30 27C30 26.7348 29.8946 26.4804 29.7071 26.2929C29.5196 26.1054 29.2652 26 29 26H28C27.7348 26 27.4804 26.1054 27.2929 26.2929C27.1054 26.4804 27 26.7348 27 27V28C27 28.2652 27.1054 28.5196 27.2929 28.7071C27.4804 28.8946 27.7348 29 28 29H29C29.2652 29 29.5196 28.8946 29.7071 28.7071C29.8946 28.5196 30 28.2652 30 28V27Z" fill="#EFE9E4"/>
<path d="M17.0009 4.5C17.0009 4.1 18.0009 3.66667 18.5009 3.5H20.5009V13.5L18.0009 15V14C18.0009 13.6 17.6675 13.8333 17.5009 14L17.0009 13.5H16.5009C16.3342 13.6667 15.9009 14 15.5009 14C15.0009 14 15.0009 14.5 14.5009 14.5C14.0008 14.5 14.0009 15.5 13.5009 16.5L13.0009 17.5C12.5009 17.6667 11.2009 18 10.0009 18C9.60085 18 9.83419 17.6667 10.0009 17.5V17V15.5C10.0009 15 9.75071 15 9.50086 15H8.00086C7.60086 15 8.16753 14 8.50086 13.5C8.66753 13.6667 9.10086 14 9.50086 14C10.0009 14 10.5009 13.5 10.5009 13C10.5009 12.5 11.5009 13 12.0009 13C12.5009 13 12.5009 12.5 13.5009 11.5L15.0009 10C15.5009 9.5 15.0009 9.5 15.5009 9C16.0009 9 16.0009 8 16.0009 7.5C16.0009 7.1 16.3342 7.33333 16.5009 7.5L17.0009 6V4.5Z" fill="#85C0A4"/>
</svg>
