<svg xmlns="http://www.w3.org/2000/svg" width="47.61" height="48.21" viewBox="0 0 47.61 48.21">
  <g id="Group_184342" data-name="Group 184342" transform="translate(-24.483)">
    <rect id="Rectangle_155333" data-name="Rectangle 155333" width="47.61" height="48.21" rx="8" transform="translate(24.483)" fill="none"/>
    <g id="share_3_" data-name="share (3)" transform="translate(36.483 12)">
      <g id="Group_184249" data-name="Group 184249">
        <path id="Path_81542" data-name="Path 81542" d="M17.7,11.8a5.878,5.878,0,0,0-4.433,2.016l-3.744-2.3a4.617,4.617,0,0,0,.173-2.8l4.977-2.3a3.911,3.911,0,1,0-.9-2.481,4,4,0,0,0,.07.7L8.862,6.926a4.915,4.915,0,1,0-.372,6.26l3.738,2.3A5.9,5.9,0,1,0,17.7,11.8Zm0-9.831a1.966,1.966,0,1,1-1.966,1.966A1.968,1.968,0,0,1,17.7,1.966ZM4.916,12.78A2.949,2.949,0,1,1,7.865,9.831,2.952,2.952,0,0,1,4.916,12.78ZM17.7,21.628A3.932,3.932,0,1,1,21.628,17.7,3.936,3.936,0,0,1,17.7,21.628Z" fill="#f7f3f0"/>
      </g>
    </g>
  </g>
</svg>
