<svg width="32" height="32" viewBox="0 0 32 32" fill="none" xmlns="http://www.w3.org/2000/svg">
<path d="M7.02431 26.7655C5.84742 26.4207 4.81629 25.699 4.08932 24.7113C3.36235 23.7237 2.97975 22.5247 3.00031 21.2985C3.00031 17.8145 5.52631 15.4415 7.97031 13.1485C9.69231 11.5305 11.3343 9.98847 11.8303 8.17847C13.9091 7.4683 15.6973 6.09534 16.9203 4.27047L16.0803 3.73047C15.0804 5.22366 13.6517 6.37903 11.9823 7.04447C11.9936 6.6125 11.9078 6.1835 11.7312 5.78909C11.5547 5.39467 11.2919 5.04488 10.9623 4.76547C10.5422 4.44049 10.0567 4.21037 9.53915 4.09091C9.02162 3.97145 8.48436 3.9655 7.96431 4.07347C5.69531 4.48747 4.00031 6.22447 4.00031 7.50047C4.00031 8.18447 4.48631 9.00047 6.80031 9.00047C8.09188 9.01009 9.37957 8.85791 10.6333 8.54747C9.7529 10.0241 8.61964 11.3344 7.28531 12.4185C4.80831 14.7455 2.00031 17.3815 2.00031 21.2985C1.98657 22.7236 2.43133 24.1155 3.26896 25.2685C4.1066 26.4216 5.29273 27.2749 6.65231 27.7025C6.66388 27.641 6.67992 27.5806 6.70031 27.5215L7.02431 26.7655ZM6.80031 8.00047C5.55731 8.00047 5.00031 7.74947 5.00031 7.50047C5.00031 6.76547 6.35031 5.38447 8.14431 5.05747C8.32906 5.02365 8.51649 5.00658 8.70431 5.00647C9.28778 4.9916 9.85865 5.17765 10.3213 5.53347C10.5414 5.72228 10.7153 5.95896 10.8297 6.22539C10.9441 6.49181 10.9959 6.78089 10.9813 7.07047C10.9817 7.18571 10.9757 7.30089 10.9633 7.41547C9.61296 7.81874 8.2095 8.01596 6.80031 8.00047ZM27.5903 6.58447C27.4807 6.46642 27.3484 6.3716 27.2014 6.30564C27.0545 6.23967 26.8957 6.2039 26.7346 6.20045C26.5736 6.197 26.4134 6.22594 26.2638 6.28555C26.1141 6.34516 25.9779 6.43423 25.8633 6.54747L9.96231 22.4505L7.61931 27.9155C7.59495 27.9718 7.5881 28.0342 7.59965 28.0945C7.6112 28.1548 7.64062 28.2102 7.68408 28.2535C7.72754 28.2969 7.78303 28.3262 7.84335 28.3376C7.90367 28.349 7.96602 28.342 8.02231 28.3175L13.4873 25.9755L27.5873 11.8735V11.8715L29.3893 10.0745C29.5026 9.95987 29.5916 9.82369 29.6512 9.67401C29.7108 9.52434 29.7398 9.36421 29.7363 9.20314C29.7329 9.04206 29.6971 8.88332 29.6311 8.73634C29.5652 8.58935 29.4704 8.45711 29.3523 8.34747L27.5903 6.58447ZM9.22231 26.7145L10.6243 23.4405L12.4953 25.3105L9.22231 26.7145ZM13.3223 24.7245L11.2113 22.6135L24.5043 9.32047L26.6153 11.4315L13.3223 24.7245ZM28.6823 9.36547L27.3223 10.7255L25.2123 8.61347L26.5703 7.25447C26.5856 7.2375 26.6042 7.22392 26.6251 7.21462C26.6459 7.20532 26.6685 7.2005 26.6913 7.20047C26.7651 7.20493 26.8344 7.23792 26.8843 7.29247L28.6443 9.05347C28.6623 9.07147 28.8153 9.23347 28.6823 9.36547Z" fill="#EFE9E4"/>
<path d="M26 11.5L24.5 10L12 22.5L13.5 24L26 11.5Z" fill="#85C0A4"/>
</svg>
