<svg width="32" height="32" viewBox="0 0 32 32" fill="none" xmlns="http://www.w3.org/2000/svg">
<path d="M5.7966 28.2055C4.43881 27.8132 3.24918 26.9922 2.41046 25.8686C1.57175 24.745 1.13035 23.381 1.15407 21.986C1.15407 18.0225 4.06834 15.3229 6.888 12.7143C8.87469 10.8736 10.7691 9.11933 11.3413 7.06021C13.7397 6.25229 15.8028 4.69037 17.2137 2.61432L16.2446 2C15.0909 3.69871 13.4426 5.0131 11.5167 5.77013C11.5297 5.2787 11.4307 4.79066 11.227 4.34196C11.0234 3.89326 10.7202 3.49532 10.3399 3.17745C9.85521 2.80775 9.29507 2.54595 8.69799 2.41005C8.10091 2.27415 7.48107 2.26738 6.88108 2.39021C4.26332 2.86119 2.30778 4.83727 2.30778 6.28889C2.30778 7.06703 2.86848 7.99535 5.53816 7.99535C7.02826 8.00629 8.51388 7.83316 9.96034 7.48C8.9446 9.15989 7.63714 10.6505 6.09771 11.8838C3.23997 14.5311 0.000356691 17.5299 0.000356691 21.986C-0.0154988 23.6073 0.497629 25.1907 1.46401 26.5025C2.4304 27.8143 3.79885 28.785 5.36742 29.2714C5.38077 29.2016 5.39928 29.1327 5.42279 29.0655L5.7966 28.2055ZM5.53816 6.85771C4.1041 6.85771 3.46149 6.57216 3.46149 6.28889C3.46149 5.45273 5.01899 3.88165 7.08875 3.50964C7.3019 3.47117 7.51814 3.45175 7.73483 3.45162C8.40799 3.43471 9.0666 3.64637 9.60038 4.05116C9.85425 4.26595 10.0549 4.53522 10.1869 4.83831C10.3188 5.1414 10.3787 5.47027 10.3618 5.79971C10.3623 5.93081 10.3554 6.06184 10.3411 6.19219C8.78315 6.65097 7.16396 6.87533 5.53816 6.85771ZM29.5238 5.24682C29.3973 5.11252 29.2447 5.00465 29.0752 4.92961C28.9056 4.85456 28.7224 4.81387 28.5366 4.80994C28.3508 4.80602 28.166 4.83894 27.9933 4.90675C27.8207 4.97457 27.6636 5.0759 27.5313 5.20472L9.1862 23.2966L6.48305 29.5137C6.45495 29.5778 6.44705 29.6488 6.46037 29.7174C6.4737 29.786 6.50764 29.849 6.55778 29.8983C6.60792 29.9477 6.67195 29.981 6.74153 29.9939C6.81112 30.0069 6.88306 29.9989 6.948 29.9711L13.253 27.3067L29.5203 11.2638V11.2615L31.5993 9.21717C31.73 9.0868 31.8327 8.93187 31.9015 8.7616C31.9703 8.59132 32.0037 8.40915 31.9997 8.22591C31.9957 8.04267 31.9544 7.86208 31.8783 7.69486C31.8022 7.52764 31.6928 7.3772 31.5566 7.25247L29.5238 5.24682ZM8.33245 28.1474L9.94995 24.4228L12.1085 26.5502L8.33245 28.1474ZM13.0627 25.8835L10.6272 23.482L25.9634 8.35939L28.3989 10.7609L13.0627 25.8835ZM30.7836 8.41058L29.2146 9.95777L26.7803 7.55508L28.347 6.00903C28.3646 5.98973 28.3861 5.97428 28.4102 5.9637C28.4342 5.95312 28.4603 5.94763 28.4866 5.9476C28.5718 5.95267 28.6516 5.9902 28.7093 6.05226L30.7398 8.05564C30.7606 8.07612 30.9371 8.26041 30.7836 8.41058Z" fill="#5D5449"/>
<path d="M28 10.8214L26.0714 9L11.5 23L13.5 25L28 10.8214Z" fill="#85C0A4"/>
</svg>
