<svg xmlns="http://www.w3.org/2000/svg" width="29.554" height="28.951" viewBox="0 0 29.554 28.951">
  <g id="Group_166260" data-name="Group 166260" transform="translate(0 0)">
    <g id="Group_165728" data-name="Group 165728" transform="translate(0)">
      <path id="Path_37858" data-name="Path 37858" d="M0,0V23.759H23.759V0ZM22.571,20.425l-6.657-1.9L10.5,1.188H22.571ZM1.188,1.188H9.253l2.919,9.342L1.188,12.883Zm0,21.383v-8.5a1.223,1.223,0,0,0,.249-.026l11.091-2.377,2.445,7.82,7.6,2.172v.91Z" transform="translate(0 23.759) rotate(-90)" fill="#5d5449"/>
      <path id="Path_37859" data-name="Path 37859" d="M12.073,19.237l-6.657-1.9L0,0H12.073Z" transform="translate(1.188 13.261) rotate(-90)" fill="#5a806d"/>
      <path id="Path_37860" data-name="Path 37860" d="M0,10.9V2.4a1.223,1.223,0,0,0,.249-.026L11.34,0l2.445,7.82,7.6,2.172v.91Z" transform="translate(11.669 22.571) rotate(-90)" fill="#65c3a5"/>
    </g>
    <g id="Group_165729" data-name="Group 165729" transform="translate(13.621 13.355)">
      <path id="tools-svgrepo-com" d="M18.36,6.456a3.967,3.967,0,0,1-5.623,4.977l-1.1,1.2.783.786.468-.468a.612.612,0,0,1,.866,0l3.794,3.833a.612.612,0,0,1,0,.866L15.819,19.38a.611.611,0,0,1-.866,0l-3.794-3.833a.611.611,0,0,1,0-.866l.427-.427-.746-.748L5.592,19.238a1.224,1.224,0,0,1-1.732,0l-.433-.433a1.224,1.224,0,0,1,0-1.732l5.978-5.007L5.435,8.086H4.181L2.73,5.752,3.9,4.582l2.386,1.46L6.3,7.271,10.316,11.3l1.169-.978a3.971,3.971,0,0,1,4.7-6.029L13.616,6.833,15.782,9,18.36,6.456ZM4.864,17.684a.613.613,0,1,0,0,.867A.613.613,0,0,0,4.864,17.684Z" transform="translate(-2.73 -4.001)" fill="#5d5449"/>
    </g>
  </g>
</svg>
