<svg xmlns="http://www.w3.org/2000/svg" width="19.197" height="28.231" viewBox="0 0 19.197 28.231">
  <g id="traffic-light" transform="translate(-15 -4)">
    <path id="Path_81095" data-name="Path 81095" d="M16.283,29.612l.411.1V23.47l-.411.1A1.691,1.691,0,0,0,15,25.216V27.97a1.691,1.691,0,0,0,1.283,1.643Z" transform="translate(0 -8.477)" fill="#65c3a5"/>
    <path id="Path_81096" data-name="Path 81096" d="M16.283,14.612l.411.1V8.469l-.411.1A1.691,1.691,0,0,0,15,10.215v2.754a1.692,1.692,0,0,0,1.283,1.644Z" transform="translate(0 -1.946)" fill="#65c3a5"/>
    <path id="Path_81097" data-name="Path 81097" d="M16.694,38.47l-.411.1A1.691,1.691,0,0,0,15,40.216v2.754a1.691,1.691,0,0,0,1.283,1.643l.411.1Z" transform="translate(0 -15.008)" fill="#65c3a5"/>
    <path id="Path_81098" data-name="Path 81098" d="M46.411,23.572l-.411-.1v6.245l.411-.1a1.691,1.691,0,0,0,1.283-1.643V25.215a1.692,1.692,0,0,0-1.283-1.644Z" transform="translate(-13.497 -8.477)" fill="#65c3a5"/>
    <path id="Path_81099" data-name="Path 81099" d="M46.411,8.572,46,8.469v6.246l.411-.1a1.691,1.691,0,0,0,1.283-1.644V10.215a1.692,1.692,0,0,0-1.283-1.644Z" transform="translate(-13.497 -1.946)" fill="#65c3a5"/>
    <path id="Path_81101" data-name="Path 81101" d="M46.411,38.572l-.411-.1v6.245l.411-.1a1.691,1.691,0,0,0,1.283-1.643V40.215A1.691,1.691,0,0,0,46.411,38.572Z" transform="translate(-13.497 -15.007)" fill="#65c3a5"/>
    <path id="Path_81102" data-name="Path 81102" d="M31.421,4H21.258A2.261,2.261,0,0,0,19,6.258V29.972a2.261,2.261,0,0,0,2.258,2.258H31.421a2.261,2.261,0,0,0,2.258-2.258V6.258A2.261,2.261,0,0,0,31.421,4ZM26.34,29.972a3.388,3.388,0,1,1,3.388-3.388A3.391,3.391,0,0,1,26.34,29.972Zm0-8.469a3.388,3.388,0,1,1,3.388-3.388A3.391,3.391,0,0,1,26.34,21.5Zm0-8.469a3.388,3.388,0,1,1,3.388-3.388A3.391,3.391,0,0,1,26.34,13.034Z" transform="translate(-1.742)" fill="#5d5449"/>
  </g>
</svg>
