<svg width="26" height="26" viewBox="0 0 26 26" fill="none" xmlns="http://www.w3.org/2000/svg">
<path d="M13.1185 7.34451L6.75454 13.7085C5.3877 15.0753 5.3877 17.2914 6.75454 18.6582C8.12137 20.0251 10.3374 20.0251 11.7043 18.6582L18.0682 12.2943C19.4351 10.9274 19.4351 8.71135 18.0682 7.34451C16.7014 5.97768 14.4853 5.97768 13.1185 7.34451Z" fill="#85C0A4"/>
<path d="M20.9476 14.1809L19.4315 15.697C19.2974 15.8311 19.1156 15.9064 18.9259 15.9064C18.7363 15.9064 18.5544 15.8311 18.4204 15.697C18.2863 15.5629 18.2109 15.381 18.2109 15.1914C18.2109 15.0018 18.2863 14.8199 18.4204 14.6858L19.9364 13.1698C20.9219 12.1843 21.4756 10.8476 21.4756 9.45392C21.4756 8.0602 20.9219 6.72357 19.9364 5.73807C18.9509 4.75257 17.6143 4.19892 16.2206 4.19892C14.8268 4.19892 13.4902 4.75257 12.5047 5.73807L10.9887 7.25412C10.8546 7.38821 10.6727 7.46354 10.4831 7.46354C10.2935 7.46354 10.1116 7.3882 9.97751 7.25412C9.84342 7.12003 9.76808 6.93817 9.76808 6.74854C9.76808 6.55891 9.84341 6.37704 9.9775 6.24296L11.4935 4.72691C12.7472 3.47323 14.4476 2.76893 16.2205 2.76893C17.9935 2.76893 19.6939 3.47323 20.9476 4.72691C22.2012 5.98059 22.9055 7.68096 22.9055 9.45393C22.9055 11.2269 22.2012 12.9272 20.9476 14.1809Z" fill="#574B46"/>
<path d="M15.7249 19.4036L14.2081 20.9204C12.9544 22.174 11.2541 22.8784 9.48112 22.8784C7.70815 22.8784 6.00779 22.174 4.75411 20.9204C3.50043 19.6667 2.79612 17.9663 2.79612 16.1934C2.79612 14.4204 3.50043 12.72 4.75411 11.4664L6.27085 9.94961C6.40494 9.81552 6.5868 9.74019 6.77643 9.74019C6.96606 9.74019 7.14793 9.81552 7.28202 9.94961C7.4161 10.0837 7.49143 10.2656 7.49143 10.4552C7.49143 10.6448 7.4161 10.8267 7.28201 10.9608L5.76527 12.4775C4.77977 13.463 4.22612 14.7996 4.22612 16.1934C4.22612 17.5871 4.77977 18.9237 5.76527 19.9092C6.75077 20.8947 8.0874 21.4484 9.48112 21.4484C10.8748 21.4484 12.2115 20.8947 13.197 19.9092L14.7137 18.3925C14.8478 18.2584 15.0297 18.183 15.2193 18.183C15.4089 18.183 15.5908 18.2584 15.7249 18.3925C15.859 18.5265 15.9343 18.7084 15.9343 18.898C15.9343 19.0877 15.859 19.2695 15.7249 19.4036Z" fill="#574B46"/>
<path d="M15.5474 11.1382L11.1669 15.5188C11.0328 15.6529 10.8509 15.7282 10.6613 15.7282C10.4717 15.7282 10.2898 15.6529 10.1557 15.5188C10.0216 15.3847 9.94632 15.2028 9.94632 15.0132C9.94632 14.8236 10.0216 14.6417 10.1557 14.5076L14.5363 10.1271C14.6703 9.99298 14.8522 9.91766 15.0418 9.91766C15.2315 9.91766 15.4133 9.993 15.5474 10.1271C15.6815 10.2612 15.7568 10.443 15.7568 10.6327C15.7568 10.8223 15.6815 11.0042 15.5474 11.1382Z" fill="#574B46"/>
</svg>
