<svg id="Vector_map" data-name="Vector map" xmlns="http://www.w3.org/2000/svg" xmlns:xlink="http://www.w3.org/1999/xlink" width="44" height="44" viewBox="0 0 44 44">
  <defs>
    <clipPath id="clip-path">
      <rect id="Rectangle_152030" data-name="Rectangle 152030" width="44" height="44" rx="22" transform="translate(0.371 -0.394)" fill="#f7f1eb" stroke="#707070" stroke-width="1"/>
    </clipPath>
  </defs>
  <rect id="Rectangle_152035" data-name="Rectangle 152035" width="44" height="44" rx="22" transform="translate(0 0)" fill="#b6a89f"/>
  <g id="Mask_Group_21" data-name="Mask Group 21" transform="translate(-0.371 0.394)" clip-path="url(#clip-path)">
    <g id="Group_173889" data-name="Group 173889" transform="translate(4.848 -0.878)">
      <path id="Path_44972" data-name="Path 44972" d="M3693.1,5195.771l-2.983-1.545a8.285,8.285,0,0,0-2.983,4.188c-.994,2.932-.71,5.166-3.835,6.422s-7.387.7-8.808,2.792-.568,6.143,1.421,7.539a2.614,2.614,0,0,0,3.409,0l4.546-4.328,3.978-3.211s4.4-5.584,4.4-6.422S3693.1,5195.771,3693.1,5195.771Z" transform="translate(-3673.787 -5180)" fill="#918278"/>
      <path id="Path_44971" data-name="Path 44971" d="M3709.812,5226.184h-12.157s-13.893.513-13.893,0-1.3-5.226-1.3-5.226l-2.75-2.426s-1.3-.143-1.448-2.284.434-3.141,0-3.854a3.6,3.6,0,0,1,0-3,11.641,11.641,0,0,1,2.46-1.142h.724c.868,0,6.657-1,6.657-1a1.393,1.393,0,0,1,0-2.141,26.212,26.212,0,0,0,3.184-3.569c.145-.428-1.592-3.712,0-4.14s1.737-1.141,2.6-.713,1.158,1.856,2.46,2.142,14.473,0,14.473,0,1.881,9.707,3.618,10.564-.579,9.591,0,10.734-3.618,5.255-3.618,5.255Z" transform="translate(-3675.136 -5180.785)" fill="#eae0d3"/>
      <path id="Path_44970" data-name="Path 44970" d="M3717.748,5208.051c-.5-.837-.071-4.256-2.2-6.49s-4.261-2.652-3.978-4.467.71-3.77,0-4.747-8.1,1.4-10.228,0-3.125-1.4-3.552-2.234a3.95,3.95,0,0,0-1.562-1.4s-.853-.14-.853-.7a3.8,3.8,0,0,0,0-1.815,3.373,3.373,0,0,0-.71-1.4l-1.562-.7c-.391-.174-2.273-1.4-2.273-1.4h3.836a5.909,5.909,0,0,0,1.563-.7c.568-.419.142-.7,1.563-.837a27.338,27.338,0,0,1,3.552,0l.853.837s1.846-.14,2.557.7.426.978,1.563,1.4,1.137.978,2.131.7,1.989-.279,1.136-.7-1.279-.14-1.705-.558a5.906,5.906,0,0,0-1.562-.838s.995-.279,0-.7a4.1,4.1,0,0,1-1.562-.837,3.8,3.8,0,0,0-1.42-.838c-.71-.279,1.989.558-1.136,0s-4.4.558-4.4,0-3.125,0-3.125,0,1.989.7,0,.838a10.393,10.393,0,0,1-2.558,0,.573.573,0,0,0,0-.838c-.426-.419,0-.978,0-.978a.532.532,0,0,0,0-.7c-.284-.418-.284-.558,0-1.256s.853-.838,1-1.536-1-.977,0-1.4,2.13-.977,2.272-.977,5.256-.279,5.967,0,.852-.559,4.972,0,9.3-.559,11.436.977-.568-.7,0,0-.5,5.305,0,5.864-.355,2.094,0,3.211.071.978,0,3.63.5,4.607,0,5.166S3717.748,5208.051,3717.748,5208.051Z" transform="translate(-3677.989 -5172.264)" fill="#84d8bd"/>
      <path id="Path_44969" data-name="Path 44969" d="M3693.065,5223.578s.009-3.46,0-6.714a18.83,18.83,0,0,1,1.164-5.235,29.6,29.6,0,0,1,5.663-6.261c2.73-2.3,19.113-14.375,19.113-14.375v-3.182s-19.2,14.259-20.959,15.792-8.1,5.872-8.1,12.389v8.544h3.12Z" transform="translate(-3679.039 -5179.791)" fill="#7f9ab8"/>
    </g>
  </g>
</svg>
