<svg xmlns="http://www.w3.org/2000/svg" width="452" height="54" viewBox="0 0 452 54">
  <g id="Group_185096" data-name="Group 185096" transform="translate(0 -856)">
    <rect id="Rectangle_155813" data-name="Rectangle 155813" width="452" height="54" transform="translate(0 856)" fill="#144e33"/>
    <g id="Group_184547" data-name="Group 184547" transform="translate(2 871)">
      <g id="Group_184147" data-name="Group 184147" opacity="0.2">
        <path id="Path_81227" data-name="Path 81227" d="M16.821,6l-5.411,5.038L6,6Z" transform="translate(-6 -6)" fill="#65c3a5"/>
        <path id="Path_81228" data-name="Path 81228" d="M10.661,17.786a.755.755,0,1,1,.755.748A.748.748,0,0,1,10.661,17.786Z" transform="translate(-6 -6)" fill="#fff"/>
        <path id="Path_81229" data-name="Path 81229" d="M9.4,20.195a.755.755,0,1,0,.755-.748A.749.749,0,0,0,9.4,20.195Z" transform="translate(-6 -6)" fill="#fff"/>
        <path id="Path_81230" data-name="Path 81230" d="M11.912,20.195a.755.755,0,1,0,.755-.748A.749.749,0,0,0,11.912,20.195Z" transform="translate(-6 -6)" fill="#fff"/>
        <path id="Path_81231" data-name="Path 81231" d="M10.661,22.626a.755.755,0,1,0,.755-.748A.748.748,0,0,0,10.661,22.626Z" transform="translate(-6 -6)" fill="#fff"/>
        <path id="Path_81232" data-name="Path 81232" d="M6,34.412l5.411-5.038,5.411,5.038Z" transform="translate(-6 -6)" fill="#65c3a5"/>
      </g>
      <g id="Group_184148" data-name="Group 184148" transform="translate(11.131 11.038)" opacity="0.2">
        <path id="Path_81233" data-name="Path 81233" d="M18.393,17.786a.755.755,0,1,1,.755.748A.749.749,0,0,1,18.393,17.786Z" transform="translate(-17.131 -17.038)" fill="#fff"/>
        <path id="Path_81234" data-name="Path 81234" d="M17.131,20.195a.755.755,0,1,0,.755-.748A.748.748,0,0,0,17.131,20.195Z" transform="translate(-17.131 -17.038)" fill="#fff"/>
        <path id="Path_81235" data-name="Path 81235" d="M19.644,20.195a.755.755,0,1,0,.755-.748A.749.749,0,0,0,19.644,20.195Z" transform="translate(-17.131 -17.038)" fill="#fff"/>
        <path id="Path_81236" data-name="Path 81236" d="M18.393,22.626a.755.755,0,1,0,.755-.748A.749.749,0,0,0,18.393,22.626Z" transform="translate(-17.131 -17.038)" fill="#fff"/>
      </g>
      <g id="Group_184149" data-name="Group 184149" transform="translate(15.464)" opacity="0.2">
        <path id="Path_81237" data-name="Path 81237" d="M32.285,6l-5.41,5.038L21.464,6Z" transform="translate(-21.464 -6)" fill="#65c3a5"/>
        <path id="Path_81238" data-name="Path 81238" d="M26.125,17.786a.755.755,0,1,1,.755.748A.748.748,0,0,1,26.125,17.786Z" transform="translate(-21.464 -6)" fill="#fff"/>
        <path id="Path_81239" data-name="Path 81239" d="M24.863,20.195a.755.755,0,1,0,.755-.748A.749.749,0,0,0,24.863,20.195Z" transform="translate(-21.464 -6)" fill="#fff"/>
        <path id="Path_81240" data-name="Path 81240" d="M27.376,20.195a.755.755,0,1,0,.755-.748A.749.749,0,0,0,27.376,20.195Z" transform="translate(-21.464 -6)" fill="#fff"/>
        <path id="Path_81241" data-name="Path 81241" d="M26.125,22.626a.755.755,0,1,0,.755-.748A.748.748,0,0,0,26.125,22.626Z" transform="translate(-21.464 -6)" fill="#fff"/>
        <path id="Path_81242" data-name="Path 81242" d="M21.464,34.412l5.411-5.038,5.41,5.038Z" transform="translate(-21.464 -6)" fill="#65c3a5"/>
      </g>
      <g id="Group_184150" data-name="Group 184150" transform="translate(26.595 11.038)" opacity="0.2">
        <path id="Path_81243" data-name="Path 81243" d="M33.857,17.786a.755.755,0,1,1,.755.748A.749.749,0,0,1,33.857,17.786Z" transform="translate(-32.595 -17.038)" fill="#fff"/>
        <path id="Path_81244" data-name="Path 81244" d="M32.6,20.195a.755.755,0,1,0,.755-.748A.748.748,0,0,0,32.6,20.195Z" transform="translate(-32.595 -17.038)" fill="#fff"/>
        <path id="Path_81245" data-name="Path 81245" d="M35.109,20.195a.755.755,0,1,0,.755-.748A.749.749,0,0,0,35.109,20.195Z" transform="translate(-32.595 -17.038)" fill="#fff"/>
        <path id="Path_81246" data-name="Path 81246" d="M33.857,22.626a.755.755,0,1,0,.755-.748A.749.749,0,0,0,33.857,22.626Z" transform="translate(-32.595 -17.038)" fill="#fff"/>
      </g>
      <g id="Group_184151" data-name="Group 184151" transform="translate(30.929)" opacity="0.2">
        <path id="Path_81247" data-name="Path 81247" d="M47.75,6l-5.41,5.038L36.929,6Z" transform="translate(-36.929 -6)" fill="#65c3a5"/>
        <path id="Path_81248" data-name="Path 81248" d="M41.59,17.786a.755.755,0,1,1,.755.748A.748.748,0,0,1,41.59,17.786Z" transform="translate(-36.929 -6)" fill="#fff"/>
        <path id="Path_81249" data-name="Path 81249" d="M40.327,20.195a.755.755,0,1,0,.755-.748A.749.749,0,0,0,40.327,20.195Z" transform="translate(-36.929 -6)" fill="#fff"/>
        <path id="Path_81250" data-name="Path 81250" d="M42.841,20.195a.755.755,0,1,0,.755-.748A.749.749,0,0,0,42.841,20.195Z" transform="translate(-36.929 -6)" fill="#fff"/>
        <path id="Path_81251" data-name="Path 81251" d="M41.59,22.626a.755.755,0,1,0,.755-.748A.748.748,0,0,0,41.59,22.626Z" transform="translate(-36.929 -6)" fill="#fff"/>
        <path id="Path_81252" data-name="Path 81252" d="M36.929,34.412l5.411-5.038,5.41,5.038Z" transform="translate(-36.929 -6)" fill="#65c3a5"/>
      </g>
      <g id="Group_184152" data-name="Group 184152" transform="translate(42.059 11.038)" opacity="0.2">
        <path id="Path_81253" data-name="Path 81253" d="M49.322,17.786a.755.755,0,1,1,.755.748A.749.749,0,0,1,49.322,17.786Z" transform="translate(-48.059 -17.038)" fill="#fff"/>
        <path id="Path_81254" data-name="Path 81254" d="M48.059,20.195a.755.755,0,1,0,.755-.748A.748.748,0,0,0,48.059,20.195Z" transform="translate(-48.059 -17.038)" fill="#fff"/>
        <path id="Path_81255" data-name="Path 81255" d="M50.573,20.195a.755.755,0,1,0,.755-.748A.749.749,0,0,0,50.573,20.195Z" transform="translate(-48.059 -17.038)" fill="#fff"/>
        <path id="Path_81256" data-name="Path 81256" d="M49.322,22.626a.755.755,0,1,0,.755-.748A.749.749,0,0,0,49.322,22.626Z" transform="translate(-48.059 -17.038)" fill="#fff"/>
      </g>
      <g id="Group_184153" data-name="Group 184153" transform="translate(46.393)" opacity="0.2">
        <path id="Path_81257" data-name="Path 81257" d="M63.214,6,57.8,11.038,52.393,6Z" transform="translate(-52.393 -6)" fill="#65c3a5"/>
        <path id="Path_81258" data-name="Path 81258" d="M57.054,17.786a.755.755,0,1,1,.755.748A.748.748,0,0,1,57.054,17.786Z" transform="translate(-52.393 -6)" fill="#fff"/>
        <path id="Path_81259" data-name="Path 81259" d="M55.791,20.195a.755.755,0,1,0,.755-.748A.749.749,0,0,0,55.791,20.195Z" transform="translate(-52.393 -6)" fill="#fff"/>
        <path id="Path_81260" data-name="Path 81260" d="M58.305,20.195a.755.755,0,1,0,.755-.748A.749.749,0,0,0,58.305,20.195Z" transform="translate(-52.393 -6)" fill="#fff"/>
        <path id="Path_81261" data-name="Path 81261" d="M57.054,22.626a.755.755,0,1,0,.755-.748A.748.748,0,0,0,57.054,22.626Z" transform="translate(-52.393 -6)" fill="#fff"/>
        <path id="Path_81262" data-name="Path 81262" d="M52.393,34.412l5.41-5.038,5.411,5.038Z" transform="translate(-52.393 -6)" fill="#65c3a5"/>
      </g>
      <g id="Group_184154" data-name="Group 184154" transform="translate(57.524 11.038)" opacity="0.2">
        <path id="Path_81263" data-name="Path 81263" d="M64.786,17.786a.755.755,0,1,1,.755.748A.749.749,0,0,1,64.786,17.786Z" transform="translate(-63.524 -17.038)" fill="#fff"/>
        <path id="Path_81264" data-name="Path 81264" d="M63.524,20.195a.755.755,0,1,0,.755-.748A.748.748,0,0,0,63.524,20.195Z" transform="translate(-63.524 -17.038)" fill="#fff"/>
        <path id="Path_81265" data-name="Path 81265" d="M66.037,20.195a.755.755,0,1,0,.755-.748A.749.749,0,0,0,66.037,20.195Z" transform="translate(-63.524 -17.038)" fill="#fff"/>
        <path id="Path_81266" data-name="Path 81266" d="M64.786,22.626a.755.755,0,1,0,.755-.748A.749.749,0,0,0,64.786,22.626Z" transform="translate(-63.524 -17.038)" fill="#fff"/>
      </g>
      <g id="Group_184155" data-name="Group 184155" transform="translate(61.857)" opacity="0.2">
        <path id="Path_81267" data-name="Path 81267" d="M78.678,6l-5.411,5.038L67.857,6Z" transform="translate(-67.857 -6)" fill="#65c3a5"/>
        <path id="Path_81268" data-name="Path 81268" d="M72.518,17.786a.755.755,0,1,1,.755.748A.748.748,0,0,1,72.518,17.786Z" transform="translate(-67.857 -6)" fill="#fff"/>
        <path id="Path_81269" data-name="Path 81269" d="M71.256,20.195a.755.755,0,1,0,.755-.748A.749.749,0,0,0,71.256,20.195Z" transform="translate(-67.857 -6)" fill="#fff"/>
        <path id="Path_81270" data-name="Path 81270" d="M73.769,20.195a.755.755,0,1,0,.755-.748A.749.749,0,0,0,73.769,20.195Z" transform="translate(-67.857 -6)" fill="#fff"/>
        <path id="Path_81271" data-name="Path 81271" d="M72.518,22.626a.755.755,0,1,0,.755-.748A.748.748,0,0,0,72.518,22.626Z" transform="translate(-67.857 -6)" fill="#fff"/>
        <path id="Path_81272" data-name="Path 81272" d="M67.857,34.412l5.41-5.038,5.411,5.038Z" transform="translate(-67.857 -6)" fill="#65c3a5"/>
      </g>
      <g id="Group_184156" data-name="Group 184156" transform="translate(72.988 11.038)" opacity="0.2">
        <path id="Path_81273" data-name="Path 81273" d="M80.25,17.786a.755.755,0,1,1,.755.748A.749.749,0,0,1,80.25,17.786Z" transform="translate(-78.988 -17.038)" fill="#fff"/>
        <path id="Path_81274" data-name="Path 81274" d="M78.988,20.195a.755.755,0,1,0,.755-.748A.748.748,0,0,0,78.988,20.195Z" transform="translate(-78.988 -17.038)" fill="#fff"/>
        <path id="Path_81275" data-name="Path 81275" d="M81.5,20.195a.755.755,0,1,0,.755-.748A.749.749,0,0,0,81.5,20.195Z" transform="translate(-78.988 -17.038)" fill="#fff"/>
        <path id="Path_81276" data-name="Path 81276" d="M80.25,22.626a.755.755,0,1,0,.755-.748A.749.749,0,0,0,80.25,22.626Z" transform="translate(-78.988 -17.038)" fill="#fff"/>
      </g>
      <g id="Group_184157" data-name="Group 184157" transform="translate(77.322)" opacity="0.2">
        <path id="Path_81277" data-name="Path 81277" d="M94.143,6l-5.411,5.038L83.322,6Z" transform="translate(-83.322 -6)" fill="#65c3a5"/>
        <path id="Path_81278" data-name="Path 81278" d="M87.982,17.786a.755.755,0,1,1,.755.748A.749.749,0,0,1,87.982,17.786Z" transform="translate(-83.322 -6)" fill="#fff"/>
        <path id="Path_81279" data-name="Path 81279" d="M86.72,20.195a.755.755,0,1,0,.755-.748A.749.749,0,0,0,86.72,20.195Z" transform="translate(-83.322 -6)" fill="#fff"/>
        <path id="Path_81280" data-name="Path 81280" d="M89.234,20.195a.755.755,0,1,0,.755-.748A.749.749,0,0,0,89.234,20.195Z" transform="translate(-83.322 -6)" fill="#fff"/>
        <path id="Path_81281" data-name="Path 81281" d="M87.982,22.626a.755.755,0,1,0,.755-.748A.749.749,0,0,0,87.982,22.626Z" transform="translate(-83.322 -6)" fill="#fff"/>
        <path id="Path_81282" data-name="Path 81282" d="M83.322,34.412l5.41-5.038,5.411,5.038Z" transform="translate(-83.322 -6)" fill="#65c3a5"/>
      </g>
      <g id="Group_184158" data-name="Group 184158" transform="translate(88.452 11.038)" opacity="0.2">
        <path id="Path_81283" data-name="Path 81283" d="M95.715,17.786a.755.755,0,1,1,.755.748A.748.748,0,0,1,95.715,17.786Z" transform="translate(-94.452 -17.038)" fill="#fff"/>
        <path id="Path_81284" data-name="Path 81284" d="M94.452,20.195a.755.755,0,1,0,.755-.748A.749.749,0,0,0,94.452,20.195Z" transform="translate(-94.452 -17.038)" fill="#fff"/>
        <path id="Path_81285" data-name="Path 81285" d="M96.966,20.195a.755.755,0,1,0,.755-.748A.749.749,0,0,0,96.966,20.195Z" transform="translate(-94.452 -17.038)" fill="#fff"/>
        <path id="Path_81286" data-name="Path 81286" d="M95.715,22.626a.755.755,0,1,0,.755-.748A.749.749,0,0,0,95.715,22.626Z" transform="translate(-94.452 -17.038)" fill="#fff"/>
      </g>
      <g id="Group_184159" data-name="Group 184159" transform="translate(92.786)" opacity="0.2">
        <path id="Path_81287" data-name="Path 81287" d="M109.607,6,104.2,11.038,98.786,6Z" transform="translate(-98.786 -6)" fill="#65c3a5"/>
        <path id="Path_81288" data-name="Path 81288" d="M103.447,17.786a.755.755,0,1,1,.755.748A.748.748,0,0,1,103.447,17.786Z" transform="translate(-98.786 -6)" fill="#fff"/>
        <path id="Path_81289" data-name="Path 81289" d="M102.184,20.195a.756.756,0,1,0,.756-.748A.749.749,0,0,0,102.184,20.195Z" transform="translate(-98.786 -6)" fill="#fff"/>
        <path id="Path_81290" data-name="Path 81290" d="M104.7,20.195a.755.755,0,1,0,.755-.748A.748.748,0,0,0,104.7,20.195Z" transform="translate(-98.786 -6)" fill="#fff"/>
        <path id="Path_81291" data-name="Path 81291" d="M103.447,22.626a.755.755,0,1,0,.755-.748A.748.748,0,0,0,103.447,22.626Z" transform="translate(-98.786 -6)" fill="#fff"/>
        <path id="Path_81292" data-name="Path 81292" d="M98.786,34.412l5.41-5.038,5.411,5.038Z" transform="translate(-98.786 -6)" fill="#65c3a5"/>
      </g>
      <g id="Group_184160" data-name="Group 184160" transform="translate(103.916 11.038)" opacity="0.2">
        <path id="Path_81293" data-name="Path 81293" d="M111.179,17.786a.755.755,0,1,1,.755.748A.748.748,0,0,1,111.179,17.786Z" transform="translate(-109.916 -17.038)" fill="#fff"/>
        <path id="Path_81294" data-name="Path 81294" d="M109.916,20.195a.756.756,0,1,0,.756-.748A.749.749,0,0,0,109.916,20.195Z" transform="translate(-109.916 -17.038)" fill="#fff"/>
        <path id="Path_81295" data-name="Path 81295" d="M112.43,20.195a.756.756,0,1,0,.755-.748A.748.748,0,0,0,112.43,20.195Z" transform="translate(-109.916 -17.038)" fill="#fff"/>
        <path id="Path_81296" data-name="Path 81296" d="M111.179,22.626a.755.755,0,1,0,.755-.748A.748.748,0,0,0,111.179,22.626Z" transform="translate(-109.916 -17.038)" fill="#fff"/>
      </g>
      <g id="Group_184161" data-name="Group 184161" transform="translate(108.25)" opacity="0.2">
        <path id="Path_81297" data-name="Path 81297" d="M125.071,6l-5.41,5.038L114.25,6Z" transform="translate(-114.25 -6)" fill="#65c3a5"/>
        <path id="Path_81298" data-name="Path 81298" d="M118.911,17.786a.756.756,0,1,1,.755.748A.748.748,0,0,1,118.911,17.786Z" transform="translate(-114.25 -6)" fill="#fff"/>
        <path id="Path_81299" data-name="Path 81299" d="M117.649,20.195a.755.755,0,1,0,.755-.748A.748.748,0,0,0,117.649,20.195Z" transform="translate(-114.25 -6)" fill="#fff"/>
        <path id="Path_81300" data-name="Path 81300" d="M120.162,20.195a.756.756,0,1,0,.756-.748A.749.749,0,0,0,120.162,20.195Z" transform="translate(-114.25 -6)" fill="#fff"/>
        <path id="Path_81301" data-name="Path 81301" d="M118.911,22.626a.756.756,0,1,0,.755-.748A.748.748,0,0,0,118.911,22.626Z" transform="translate(-114.25 -6)" fill="#fff"/>
        <path id="Path_81302" data-name="Path 81302" d="M114.25,34.412l5.411-5.038,5.41,5.038Z" transform="translate(-114.25 -6)" fill="#65c3a5"/>
      </g>
      <g id="Group_184162" data-name="Group 184162" transform="translate(119.381 11.038)" opacity="0.2">
        <path id="Path_81303" data-name="Path 81303" d="M126.643,17.786a.756.756,0,1,1,.755.748A.748.748,0,0,1,126.643,17.786Z" transform="translate(-125.381 -17.038)" fill="#fff"/>
        <path id="Path_81304" data-name="Path 81304" d="M125.381,20.195a.755.755,0,1,0,.755-.748A.748.748,0,0,0,125.381,20.195Z" transform="translate(-125.381 -17.038)" fill="#fff"/>
        <path id="Path_81305" data-name="Path 81305" d="M127.894,20.195a.756.756,0,1,0,.756-.748A.749.749,0,0,0,127.894,20.195Z" transform="translate(-125.381 -17.038)" fill="#fff"/>
        <path id="Path_81306" data-name="Path 81306" d="M126.643,22.626a.756.756,0,1,0,.755-.748A.748.748,0,0,0,126.643,22.626Z" transform="translate(-125.381 -17.038)" fill="#fff"/>
      </g>
      <g id="Group_184163" data-name="Group 184163" transform="translate(123.714)" opacity="0.2">
        <path id="Path_81307" data-name="Path 81307" d="M140.535,6l-5.41,5.038L129.714,6Z" transform="translate(-129.714 -6)" fill="#65c3a5"/>
        <path id="Path_81308" data-name="Path 81308" d="M134.375,17.786a.756.756,0,1,1,.756.748A.749.749,0,0,1,134.375,17.786Z" transform="translate(-129.714 -6)" fill="#fff"/>
        <path id="Path_81309" data-name="Path 81309" d="M133.113,20.195a.755.755,0,1,0,.755-.748A.748.748,0,0,0,133.113,20.195Z" transform="translate(-129.714 -6)" fill="#fff"/>
        <path id="Path_81310" data-name="Path 81310" d="M135.627,20.195a.755.755,0,1,0,.755-.748A.748.748,0,0,0,135.627,20.195Z" transform="translate(-129.714 -6)" fill="#fff"/>
        <path id="Path_81311" data-name="Path 81311" d="M134.375,22.626a.756.756,0,1,0,.756-.748A.749.749,0,0,0,134.375,22.626Z" transform="translate(-129.714 -6)" fill="#fff"/>
        <path id="Path_81312" data-name="Path 81312" d="M129.714,34.412l5.411-5.038,5.41,5.038Z" transform="translate(-129.714 -6)" fill="#65c3a5"/>
      </g>
      <g id="Group_184164" data-name="Group 184164" transform="translate(134.845 11.038)" opacity="0.2">
        <path id="Path_81313" data-name="Path 81313" d="M142.107,17.786a.756.756,0,1,1,.756.748A.749.749,0,0,1,142.107,17.786Z" transform="translate(-140.845 -17.038)" fill="#fff"/>
        <path id="Path_81314" data-name="Path 81314" d="M140.845,20.195a.755.755,0,1,0,.755-.748A.748.748,0,0,0,140.845,20.195Z" transform="translate(-140.845 -17.038)" fill="#fff"/>
        <path id="Path_81315" data-name="Path 81315" d="M143.359,20.195a.755.755,0,1,0,.755-.748A.748.748,0,0,0,143.359,20.195Z" transform="translate(-140.845 -17.038)" fill="#fff"/>
        <path id="Path_81316" data-name="Path 81316" d="M142.107,22.626a.756.756,0,1,0,.756-.748A.749.749,0,0,0,142.107,22.626Z" transform="translate(-140.845 -17.038)" fill="#fff"/>
      </g>
      <g id="Group_184165" data-name="Group 184165" transform="translate(139.179)" opacity="0.2">
        <path id="Path_81317" data-name="Path 81317" d="M156,6l-5.411,5.038L145.179,6Z" transform="translate(-145.179 -6)" fill="#65c3a5"/>
        <path id="Path_81318" data-name="Path 81318" d="M149.84,17.786a.755.755,0,1,1,.755.748A.748.748,0,0,1,149.84,17.786Z" transform="translate(-145.179 -6)" fill="#fff"/>
        <path id="Path_81319" data-name="Path 81319" d="M148.577,20.195a.756.756,0,1,0,.755-.748A.748.748,0,0,0,148.577,20.195Z" transform="translate(-145.179 -6)" fill="#fff"/>
        <path id="Path_81320" data-name="Path 81320" d="M151.091,20.195a.755.755,0,1,0,.755-.748A.748.748,0,0,0,151.091,20.195Z" transform="translate(-145.179 -6)" fill="#fff"/>
        <path id="Path_81321" data-name="Path 81321" d="M149.84,22.626a.755.755,0,1,0,.755-.748A.748.748,0,0,0,149.84,22.626Z" transform="translate(-145.179 -6)" fill="#fff"/>
        <path id="Path_81322" data-name="Path 81322" d="M145.179,34.412l5.41-5.038L156,34.412Z" transform="translate(-145.179 -6)" fill="#65c3a5"/>
      </g>
      <g id="Group_184166" data-name="Group 184166" transform="translate(150.309 11.038)" opacity="0.2">
        <path id="Path_81323" data-name="Path 81323" d="M157.572,17.786a.755.755,0,1,1,.755.748A.748.748,0,0,1,157.572,17.786Z" transform="translate(-156.309 -17.038)" fill="#fff"/>
        <path id="Path_81324" data-name="Path 81324" d="M156.309,20.195a.756.756,0,1,0,.756-.748A.749.749,0,0,0,156.309,20.195Z" transform="translate(-156.309 -17.038)" fill="#fff"/>
        <path id="Path_81325" data-name="Path 81325" d="M158.823,20.195a.755.755,0,1,0,.755-.748A.748.748,0,0,0,158.823,20.195Z" transform="translate(-156.309 -17.038)" fill="#fff"/>
        <path id="Path_81326" data-name="Path 81326" d="M157.572,22.626a.755.755,0,1,0,.755-.748A.748.748,0,0,0,157.572,22.626Z" transform="translate(-156.309 -17.038)" fill="#fff"/>
      </g>
      <g id="Group_184167" data-name="Group 184167" transform="translate(154.643)" opacity="0.2">
        <path id="Path_81327" data-name="Path 81327" d="M171.464,6l-5.41,5.038L160.643,6Z" transform="translate(-160.643 -6)" fill="#65c3a5"/>
        <path id="Path_81328" data-name="Path 81328" d="M165.3,17.786a.755.755,0,1,1,.755.748A.748.748,0,0,1,165.3,17.786Z" transform="translate(-160.643 -6)" fill="#fff"/>
        <path id="Path_81329" data-name="Path 81329" d="M164.041,20.195a.756.756,0,1,0,.756-.748A.749.749,0,0,0,164.041,20.195Z" transform="translate(-160.643 -6)" fill="#fff"/>
        <path id="Path_81330" data-name="Path 81330" d="M166.555,20.195a.756.756,0,1,0,.755-.748A.748.748,0,0,0,166.555,20.195Z" transform="translate(-160.643 -6)" fill="#fff"/>
        <path id="Path_81331" data-name="Path 81331" d="M165.3,22.626a.755.755,0,1,0,.755-.748A.748.748,0,0,0,165.3,22.626Z" transform="translate(-160.643 -6)" fill="#fff"/>
        <path id="Path_81332" data-name="Path 81332" d="M160.643,34.412l5.411-5.038,5.41,5.038Z" transform="translate(-160.643 -6)" fill="#65c3a5"/>
      </g>
      <g id="Group_184168" data-name="Group 184168" transform="translate(165.774 11.038)" opacity="0.2">
        <path id="Path_81333" data-name="Path 81333" d="M173.036,17.786a.756.756,0,1,1,.755.748A.748.748,0,0,1,173.036,17.786Z" transform="translate(-171.774 -17.038)" fill="#fff"/>
        <path id="Path_81334" data-name="Path 81334" d="M171.774,20.195a.755.755,0,1,0,.755-.748A.748.748,0,0,0,171.774,20.195Z" transform="translate(-171.774 -17.038)" fill="#fff"/>
        <path id="Path_81335" data-name="Path 81335" d="M174.287,20.195a.756.756,0,1,0,.756-.748A.749.749,0,0,0,174.287,20.195Z" transform="translate(-171.774 -17.038)" fill="#fff"/>
        <path id="Path_81336" data-name="Path 81336" d="M173.036,22.626a.756.756,0,1,0,.755-.748A.748.748,0,0,0,173.036,22.626Z" transform="translate(-171.774 -17.038)" fill="#fff"/>
      </g>
      <g id="Group_184169" data-name="Group 184169" transform="translate(170.107)" opacity="0.2">
        <path id="Path_81337" data-name="Path 81337" d="M186.928,6l-5.41,5.038L176.107,6Z" transform="translate(-176.107 -6)" fill="#65c3a5"/>
        <path id="Path_81338" data-name="Path 81338" d="M180.768,17.786a.756.756,0,1,1,.755.748A.748.748,0,0,1,180.768,17.786Z" transform="translate(-176.107 -6)" fill="#fff"/>
        <path id="Path_81339" data-name="Path 81339" d="M179.506,20.195a.755.755,0,1,0,.755-.748A.748.748,0,0,0,179.506,20.195Z" transform="translate(-176.107 -6)" fill="#fff"/>
        <path id="Path_81340" data-name="Path 81340" d="M182.019,20.195a.756.756,0,1,0,.756-.748A.749.749,0,0,0,182.019,20.195Z" transform="translate(-176.107 -6)" fill="#fff"/>
        <path id="Path_81341" data-name="Path 81341" d="M180.768,22.626a.756.756,0,1,0,.755-.748A.748.748,0,0,0,180.768,22.626Z" transform="translate(-176.107 -6)" fill="#fff"/>
        <path id="Path_81342" data-name="Path 81342" d="M176.107,34.412l5.411-5.038,5.41,5.038Z" transform="translate(-176.107 -6)" fill="#65c3a5"/>
      </g>
      <g id="Group_184170" data-name="Group 184170" transform="translate(181.238 11.038)" opacity="0.2">
        <path id="Path_81343" data-name="Path 81343" d="M188.5,17.786a.756.756,0,1,1,.756.748A.749.749,0,0,1,188.5,17.786Z" transform="translate(-187.238 -17.038)" fill="#fff"/>
        <path id="Path_81344" data-name="Path 81344" d="M187.238,20.195a.755.755,0,1,0,.755-.748A.748.748,0,0,0,187.238,20.195Z" transform="translate(-187.238 -17.038)" fill="#fff"/>
        <path id="Path_81345" data-name="Path 81345" d="M189.752,20.195a.755.755,0,1,0,.755-.748A.748.748,0,0,0,189.752,20.195Z" transform="translate(-187.238 -17.038)" fill="#fff"/>
        <path id="Path_81346" data-name="Path 81346" d="M188.5,22.626a.756.756,0,1,0,.756-.748A.749.749,0,0,0,188.5,22.626Z" transform="translate(-187.238 -17.038)" fill="#fff"/>
      </g>
      <g id="Group_184171" data-name="Group 184171" transform="translate(185.572)" opacity="0.2">
        <path id="Path_81347" data-name="Path 81347" d="M202.393,6l-5.411,5.038L191.572,6Z" transform="translate(-191.572 -6)" fill="#65c3a5"/>
        <path id="Path_81348" data-name="Path 81348" d="M196.233,17.786a.755.755,0,1,1,.755.748A.748.748,0,0,1,196.233,17.786Z" transform="translate(-191.572 -6)" fill="#fff"/>
        <path id="Path_81349" data-name="Path 81349" d="M194.97,20.195a.756.756,0,1,0,.755-.748A.748.748,0,0,0,194.97,20.195Z" transform="translate(-191.572 -6)" fill="#fff"/>
        <path id="Path_81350" data-name="Path 81350" d="M197.484,20.195a.755.755,0,1,0,.755-.748A.748.748,0,0,0,197.484,20.195Z" transform="translate(-191.572 -6)" fill="#fff"/>
        <path id="Path_81351" data-name="Path 81351" d="M196.233,22.626a.755.755,0,1,0,.755-.748A.748.748,0,0,0,196.233,22.626Z" transform="translate(-191.572 -6)" fill="#fff"/>
        <path id="Path_81352" data-name="Path 81352" d="M191.572,34.412l5.41-5.038,5.411,5.038Z" transform="translate(-191.572 -6)" fill="#65c3a5"/>
      </g>
      <g id="Group_184172" data-name="Group 184172" transform="translate(196.702 11.038)" opacity="0.2">
        <path id="Path_81353" data-name="Path 81353" d="M203.965,17.786a.755.755,0,1,1,.755.748A.748.748,0,0,1,203.965,17.786Z" transform="translate(-202.702 -17.038)" fill="#fff"/>
        <path id="Path_81354" data-name="Path 81354" d="M202.7,20.195a.756.756,0,1,0,.755-.748A.748.748,0,0,0,202.7,20.195Z" transform="translate(-202.702 -17.038)" fill="#fff"/>
        <path id="Path_81355" data-name="Path 81355" d="M205.216,20.195a.755.755,0,1,0,.755-.748A.748.748,0,0,0,205.216,20.195Z" transform="translate(-202.702 -17.038)" fill="#fff"/>
        <path id="Path_81356" data-name="Path 81356" d="M203.965,22.626a.755.755,0,1,0,.755-.748A.748.748,0,0,0,203.965,22.626Z" transform="translate(-202.702 -17.038)" fill="#fff"/>
      </g>
      <g id="Group_184173" data-name="Group 184173" transform="translate(201.036)" opacity="0.2">
        <path id="Path_81357" data-name="Path 81357" d="M217.857,6l-5.411,5.038L207.036,6Z" transform="translate(-207.036 -6)" fill="#65c3a5"/>
        <path id="Path_81358" data-name="Path 81358" d="M211.7,17.786a.755.755,0,1,1,.755.748A.748.748,0,0,1,211.7,17.786Z" transform="translate(-207.036 -6)" fill="#fff"/>
        <path id="Path_81359" data-name="Path 81359" d="M210.434,20.195a.756.756,0,1,0,.756-.748A.749.749,0,0,0,210.434,20.195Z" transform="translate(-207.036 -6)" fill="#fff"/>
        <path id="Path_81360" data-name="Path 81360" d="M212.948,20.195a.756.756,0,1,0,.755-.748A.748.748,0,0,0,212.948,20.195Z" transform="translate(-207.036 -6)" fill="#fff"/>
        <path id="Path_81361" data-name="Path 81361" d="M211.7,22.626a.755.755,0,1,0,.755-.748A.748.748,0,0,0,211.7,22.626Z" transform="translate(-207.036 -6)" fill="#fff"/>
        <path id="Path_81362" data-name="Path 81362" d="M207.036,34.412l5.41-5.038,5.411,5.038Z" transform="translate(-207.036 -6)" fill="#65c3a5"/>
      </g>
      <g id="Group_184174" data-name="Group 184174" transform="translate(212.167 11.038)" opacity="0.2">
        <path id="Path_81363" data-name="Path 81363" d="M219.429,17.786a.755.755,0,1,1,.755.748A.748.748,0,0,1,219.429,17.786Z" transform="translate(-218.167 -17.038)" fill="#fff"/>
        <path id="Path_81364" data-name="Path 81364" d="M218.167,20.195a.755.755,0,1,0,.755-.748A.748.748,0,0,0,218.167,20.195Z" transform="translate(-218.167 -17.038)" fill="#fff"/>
        <path id="Path_81365" data-name="Path 81365" d="M220.68,20.195a.756.756,0,1,0,.755-.748A.748.748,0,0,0,220.68,20.195Z" transform="translate(-218.167 -17.038)" fill="#fff"/>
        <path id="Path_81366" data-name="Path 81366" d="M219.429,22.626a.755.755,0,1,0,.755-.748A.748.748,0,0,0,219.429,22.626Z" transform="translate(-218.167 -17.038)" fill="#fff"/>
      </g>
      <g id="Group_184175" data-name="Group 184175" transform="translate(216.5)" opacity="0.2">
        <path id="Path_81367" data-name="Path 81367" d="M233.321,6l-5.41,5.038L222.5,6Z" transform="translate(-222.5 -6)" fill="#65c3a5"/>
        <path id="Path_81368" data-name="Path 81368" d="M227.161,17.786a.756.756,0,1,1,.755.748A.748.748,0,0,1,227.161,17.786Z" transform="translate(-222.5 -6)" fill="#fff"/>
        <path id="Path_81369" data-name="Path 81369" d="M225.9,20.195a.755.755,0,1,0,.755-.748A.748.748,0,0,0,225.9,20.195Z" transform="translate(-222.5 -6)" fill="#fff"/>
        <path id="Path_81370" data-name="Path 81370" d="M228.412,20.195a.756.756,0,1,0,.756-.748A.749.749,0,0,0,228.412,20.195Z" transform="translate(-222.5 -6)" fill="#fff"/>
        <path id="Path_81371" data-name="Path 81371" d="M227.161,22.626a.756.756,0,1,0,.755-.748A.748.748,0,0,0,227.161,22.626Z" transform="translate(-222.5 -6)" fill="#fff"/>
        <path id="Path_81372" data-name="Path 81372" d="M222.5,34.412l5.411-5.038,5.41,5.038Z" transform="translate(-222.5 -6)" fill="#65c3a5"/>
      </g>
      <g id="Group_184176" data-name="Group 184176" transform="translate(227.631 11.038)" opacity="0.2">
        <path id="Path_81373" data-name="Path 81373" d="M234.893,17.786a.756.756,0,1,1,.755.748A.748.748,0,0,1,234.893,17.786Z" transform="translate(-233.631 -17.038)" fill="#fff"/>
        <path id="Path_81374" data-name="Path 81374" d="M233.631,20.195a.755.755,0,1,0,.755-.748A.748.748,0,0,0,233.631,20.195Z" transform="translate(-233.631 -17.038)" fill="#fff"/>
        <path id="Path_81375" data-name="Path 81375" d="M236.144,20.195a.756.756,0,1,0,.756-.748A.749.749,0,0,0,236.144,20.195Z" transform="translate(-233.631 -17.038)" fill="#fff"/>
        <path id="Path_81376" data-name="Path 81376" d="M234.893,22.626a.756.756,0,1,0,.755-.748A.748.748,0,0,0,234.893,22.626Z" transform="translate(-233.631 -17.038)" fill="#fff"/>
      </g>
      <g id="Group_184177" data-name="Group 184177" transform="translate(231.964)" opacity="0.2">
        <path id="Path_81377" data-name="Path 81377" d="M248.786,6l-5.411,5.038L237.964,6Z" transform="translate(-237.964 -6)" fill="#65c3a5"/>
        <path id="Path_81378" data-name="Path 81378" d="M242.625,17.786a.756.756,0,1,1,.756.748A.749.749,0,0,1,242.625,17.786Z" transform="translate(-237.964 -6)" fill="#fff"/>
        <path id="Path_81379" data-name="Path 81379" d="M241.363,20.195a.755.755,0,1,0,.755-.748A.748.748,0,0,0,241.363,20.195Z" transform="translate(-237.964 -6)" fill="#fff"/>
        <path id="Path_81380" data-name="Path 81380" d="M243.877,20.195a.755.755,0,1,0,.755-.748A.748.748,0,0,0,243.877,20.195Z" transform="translate(-237.964 -6)" fill="#fff"/>
        <path id="Path_81381" data-name="Path 81381" d="M242.625,22.626a.756.756,0,1,0,.756-.748A.749.749,0,0,0,242.625,22.626Z" transform="translate(-237.964 -6)" fill="#fff"/>
        <path id="Path_81382" data-name="Path 81382" d="M237.964,34.412l5.411-5.038,5.411,5.038Z" transform="translate(-237.964 -6)" fill="#65c3a5"/>
      </g>
      <g id="Group_184178" data-name="Group 184178" transform="translate(243.095 11.038)" opacity="0.2">
        <path id="Path_81383" data-name="Path 81383" d="M250.358,17.786a.755.755,0,1,1,.755.748A.748.748,0,0,1,250.358,17.786Z" transform="translate(-249.095 -17.038)" fill="#fff"/>
        <path id="Path_81384" data-name="Path 81384" d="M249.1,20.195a.756.756,0,1,0,.755-.748A.748.748,0,0,0,249.1,20.195Z" transform="translate(-249.095 -17.038)" fill="#fff"/>
        <path id="Path_81385" data-name="Path 81385" d="M251.609,20.195a.755.755,0,1,0,.755-.748A.748.748,0,0,0,251.609,20.195Z" transform="translate(-249.095 -17.038)" fill="#fff"/>
        <path id="Path_81386" data-name="Path 81386" d="M250.358,22.626a.755.755,0,1,0,.755-.748A.748.748,0,0,0,250.358,22.626Z" transform="translate(-249.095 -17.038)" fill="#fff"/>
      </g>
      <g id="Group_184179" data-name="Group 184179" transform="translate(247.429)" opacity="0.2">
        <path id="Path_81387" data-name="Path 81387" d="M264.25,6l-5.411,5.038L253.429,6Z" transform="translate(-253.429 -6)" fill="#65c3a5"/>
        <path id="Path_81388" data-name="Path 81388" d="M258.09,17.786a.755.755,0,1,1,.755.748A.748.748,0,0,1,258.09,17.786Z" transform="translate(-253.429 -6)" fill="#fff"/>
        <path id="Path_81389" data-name="Path 81389" d="M256.827,20.195a.756.756,0,1,0,.755-.748A.748.748,0,0,0,256.827,20.195Z" transform="translate(-253.429 -6)" fill="#fff"/>
        <path id="Path_81390" data-name="Path 81390" d="M259.341,20.195a.755.755,0,1,0,.755-.748A.748.748,0,0,0,259.341,20.195Z" transform="translate(-253.429 -6)" fill="#fff"/>
        <path id="Path_81391" data-name="Path 81391" d="M258.09,22.626a.755.755,0,1,0,.755-.748A.748.748,0,0,0,258.09,22.626Z" transform="translate(-253.429 -6)" fill="#fff"/>
        <path id="Path_81392" data-name="Path 81392" d="M253.429,34.412l5.41-5.038,5.411,5.038Z" transform="translate(-253.429 -6)" fill="#65c3a5"/>
      </g>
      <g id="Group_184180" data-name="Group 184180" transform="translate(258.559 11.038)" opacity="0.2">
        <path id="Path_81393" data-name="Path 81393" d="M265.822,17.786a.755.755,0,1,1,.755.748A.748.748,0,0,1,265.822,17.786Z" transform="translate(-264.559 -17.038)" fill="#fff"/>
        <path id="Path_81394" data-name="Path 81394" d="M264.559,20.195a.756.756,0,1,0,.756-.748A.749.749,0,0,0,264.559,20.195Z" transform="translate(-264.559 -17.038)" fill="#fff"/>
        <path id="Path_81395" data-name="Path 81395" d="M267.073,20.195a.755.755,0,1,0,.755-.748A.748.748,0,0,0,267.073,20.195Z" transform="translate(-264.559 -17.038)" fill="#fff"/>
        <path id="Path_81396" data-name="Path 81396" d="M265.822,22.626a.755.755,0,1,0,.755-.748A.748.748,0,0,0,265.822,22.626Z" transform="translate(-264.559 -17.038)" fill="#fff"/>
      </g>
      <g id="Group_184181" data-name="Group 184181" transform="translate(262.893)" opacity="0.2">
        <path id="Path_81397" data-name="Path 81397" d="M279.714,6l-5.41,5.038L268.893,6Z" transform="translate(-268.893 -6)" fill="#65c3a5"/>
        <path id="Path_81398" data-name="Path 81398" d="M273.554,17.786a.755.755,0,1,1,.755.748A.748.748,0,0,1,273.554,17.786Z" transform="translate(-268.893 -6)" fill="#fff"/>
        <path id="Path_81399" data-name="Path 81399" d="M272.292,20.195a.755.755,0,1,0,.755-.748A.748.748,0,0,0,272.292,20.195Z" transform="translate(-268.893 -6)" fill="#fff"/>
        <path id="Path_81400" data-name="Path 81400" d="M274.8,20.195a.756.756,0,1,0,.755-.748A.748.748,0,0,0,274.8,20.195Z" transform="translate(-268.893 -6)" fill="#fff"/>
        <path id="Path_81401" data-name="Path 81401" d="M273.554,22.626a.755.755,0,1,0,.755-.748A.748.748,0,0,0,273.554,22.626Z" transform="translate(-268.893 -6)" fill="#fff"/>
        <path id="Path_81402" data-name="Path 81402" d="M268.893,34.412l5.411-5.038,5.41,5.038Z" transform="translate(-268.893 -6)" fill="#65c3a5"/>
      </g>
      <g id="Group_184182" data-name="Group 184182" transform="translate(274.024 11.038)" opacity="0.2">
        <path id="Path_81403" data-name="Path 81403" d="M281.286,17.786a.756.756,0,1,1,.755.748A.748.748,0,0,1,281.286,17.786Z" transform="translate(-280.024 -17.038)" fill="#fff"/>
        <path id="Path_81404" data-name="Path 81404" d="M280.024,20.195a.755.755,0,1,0,.755-.748A.748.748,0,0,0,280.024,20.195Z" transform="translate(-280.024 -17.038)" fill="#fff"/>
        <path id="Path_81405" data-name="Path 81405" d="M282.537,20.195a.756.756,0,1,0,.756-.748A.749.749,0,0,0,282.537,20.195Z" transform="translate(-280.024 -17.038)" fill="#fff"/>
        <path id="Path_81406" data-name="Path 81406" d="M281.286,22.626a.756.756,0,1,0,.755-.748A.748.748,0,0,0,281.286,22.626Z" transform="translate(-280.024 -17.038)" fill="#fff"/>
      </g>
      <g id="Group_184183" data-name="Group 184183" transform="translate(278.357)" opacity="0.2">
        <path id="Path_81407" data-name="Path 81407" d="M295.178,6l-5.41,5.038L284.357,6Z" transform="translate(-284.357 -6)" fill="#65c3a5"/>
        <path id="Path_81408" data-name="Path 81408" d="M289.018,17.786a.756.756,0,1,1,.756.748A.749.749,0,0,1,289.018,17.786Z" transform="translate(-284.357 -6)" fill="#fff"/>
        <path id="Path_81409" data-name="Path 81409" d="M287.756,20.195a.755.755,0,1,0,.755-.748A.748.748,0,0,0,287.756,20.195Z" transform="translate(-284.357 -6)" fill="#fff"/>
        <path id="Path_81410" data-name="Path 81410" d="M290.27,20.195a.755.755,0,1,0,.755-.748A.748.748,0,0,0,290.27,20.195Z" transform="translate(-284.357 -6)" fill="#fff"/>
        <path id="Path_81411" data-name="Path 81411" d="M289.018,22.626a.756.756,0,1,0,.756-.748A.749.749,0,0,0,289.018,22.626Z" transform="translate(-284.357 -6)" fill="#fff"/>
        <path id="Path_81412" data-name="Path 81412" d="M284.357,34.412l5.411-5.038,5.41,5.038Z" transform="translate(-284.357 -6)" fill="#65c3a5"/>
      </g>
      <g id="Group_184184" data-name="Group 184184" transform="translate(289.488 11.038)" opacity="0.2">
        <path id="Path_81413" data-name="Path 81413" d="M296.75,17.786a.756.756,0,1,1,.756.748A.749.749,0,0,1,296.75,17.786Z" transform="translate(-295.488 -17.038)" fill="#fff"/>
        <path id="Path_81414" data-name="Path 81414" d="M295.488,20.195a.755.755,0,1,0,.755-.748A.748.748,0,0,0,295.488,20.195Z" transform="translate(-295.488 -17.038)" fill="#fff"/>
        <path id="Path_81415" data-name="Path 81415" d="M298,20.195a.755.755,0,1,0,.755-.748A.748.748,0,0,0,298,20.195Z" transform="translate(-295.488 -17.038)" fill="#fff"/>
        <path id="Path_81416" data-name="Path 81416" d="M296.75,22.626a.756.756,0,1,0,.756-.748A.749.749,0,0,0,296.75,22.626Z" transform="translate(-295.488 -17.038)" fill="#fff"/>
      </g>
      <g id="Group_184185" data-name="Group 184185" transform="translate(293.822)" opacity="0.2">
        <path id="Path_81417" data-name="Path 81417" d="M310.643,6l-5.411,5.038L299.822,6Z" transform="translate(-299.822 -6)" fill="#65c3a5"/>
        <path id="Path_81418" data-name="Path 81418" d="M304.483,17.786a.755.755,0,1,1,.755.748A.748.748,0,0,1,304.483,17.786Z" transform="translate(-299.822 -6)" fill="#fff"/>
        <path id="Path_81419" data-name="Path 81419" d="M303.22,20.195a.756.756,0,1,0,.755-.748A.748.748,0,0,0,303.22,20.195Z" transform="translate(-299.822 -6)" fill="#fff"/>
        <path id="Path_81420" data-name="Path 81420" d="M305.734,20.195a.755.755,0,1,0,.755-.748A.748.748,0,0,0,305.734,20.195Z" transform="translate(-299.822 -6)" fill="#fff"/>
        <path id="Path_81421" data-name="Path 81421" d="M304.483,22.626a.755.755,0,1,0,.755-.748A.748.748,0,0,0,304.483,22.626Z" transform="translate(-299.822 -6)" fill="#fff"/>
        <path id="Path_81422" data-name="Path 81422" d="M299.822,34.412l5.41-5.038,5.411,5.038Z" transform="translate(-299.822 -6)" fill="#65c3a5"/>
      </g>
      <g id="Group_184186" data-name="Group 184186" transform="translate(304.952 11.038)" opacity="0.2">
        <path id="Path_81423" data-name="Path 81423" d="M312.215,17.786a.755.755,0,1,1,.755.748A.748.748,0,0,1,312.215,17.786Z" transform="translate(-310.952 -17.038)" fill="#fff"/>
        <path id="Path_81424" data-name="Path 81424" d="M310.952,20.195a.756.756,0,1,0,.755-.748A.748.748,0,0,0,310.952,20.195Z" transform="translate(-310.952 -17.038)" fill="#fff"/>
        <path id="Path_81425" data-name="Path 81425" d="M313.466,20.195a.755.755,0,1,0,.755-.748A.748.748,0,0,0,313.466,20.195Z" transform="translate(-310.952 -17.038)" fill="#fff"/>
        <path id="Path_81426" data-name="Path 81426" d="M312.215,22.626a.755.755,0,1,0,.755-.748A.748.748,0,0,0,312.215,22.626Z" transform="translate(-310.952 -17.038)" fill="#fff"/>
      </g>
      <g id="Group_184187" data-name="Group 184187" transform="translate(309.286)" opacity="0.2">
        <path id="Path_81427" data-name="Path 81427" d="M326.107,6,320.7,11.038,315.286,6Z" transform="translate(-315.286 -6)" fill="#65c3a5"/>
        <path id="Path_81428" data-name="Path 81428" d="M319.947,17.786a.755.755,0,1,1,.755.748A.748.748,0,0,1,319.947,17.786Z" transform="translate(-315.286 -6)" fill="#fff"/>
        <path id="Path_81429" data-name="Path 81429" d="M318.684,20.195a.756.756,0,1,0,.756-.748A.749.749,0,0,0,318.684,20.195Z" transform="translate(-315.286 -6)" fill="#fff"/>
        <path id="Path_81430" data-name="Path 81430" d="M321.2,20.195a.756.756,0,1,0,.755-.748A.748.748,0,0,0,321.2,20.195Z" transform="translate(-315.286 -6)" fill="#fff"/>
        <path id="Path_81431" data-name="Path 81431" d="M319.947,22.626a.755.755,0,1,0,.755-.748A.748.748,0,0,0,319.947,22.626Z" transform="translate(-315.286 -6)" fill="#fff"/>
        <path id="Path_81432" data-name="Path 81432" d="M315.286,34.412l5.41-5.038,5.411,5.038Z" transform="translate(-315.286 -6)" fill="#65c3a5"/>
      </g>
      <g id="Group_184188" data-name="Group 184188" transform="translate(320.417 11.038)" opacity="0.2">
        <path id="Path_81433" data-name="Path 81433" d="M327.679,17.786a.755.755,0,1,1,.755.748A.748.748,0,0,1,327.679,17.786Z" transform="translate(-326.417 -17.038)" fill="#fff"/>
        <path id="Path_81434" data-name="Path 81434" d="M326.417,20.195a.755.755,0,1,0,.755-.748A.748.748,0,0,0,326.417,20.195Z" transform="translate(-326.417 -17.038)" fill="#fff"/>
        <path id="Path_81435" data-name="Path 81435" d="M328.93,20.195a.756.756,0,1,0,.755-.748A.748.748,0,0,0,328.93,20.195Z" transform="translate(-326.417 -17.038)" fill="#fff"/>
        <path id="Path_81436" data-name="Path 81436" d="M327.679,22.626a.755.755,0,1,0,.755-.748A.748.748,0,0,0,327.679,22.626Z" transform="translate(-326.417 -17.038)" fill="#fff"/>
      </g>
      <g id="Group_184189" data-name="Group 184189" transform="translate(324.75)" opacity="0.2">
        <path id="Path_81437" data-name="Path 81437" d="M341.571,6l-5.41,5.038L330.75,6Z" transform="translate(-330.75 -6)" fill="#65c3a5"/>
        <path id="Path_81438" data-name="Path 81438" d="M335.411,17.786a.756.756,0,1,1,.755.748A.748.748,0,0,1,335.411,17.786Z" transform="translate(-330.75 -6)" fill="#fff"/>
        <path id="Path_81439" data-name="Path 81439" d="M334.149,20.195a.755.755,0,1,0,.755-.748A.748.748,0,0,0,334.149,20.195Z" transform="translate(-330.75 -6)" fill="#fff"/>
        <path id="Path_81440" data-name="Path 81440" d="M336.662,20.195a.756.756,0,1,0,.756-.748A.749.749,0,0,0,336.662,20.195Z" transform="translate(-330.75 -6)" fill="#fff"/>
        <path id="Path_81441" data-name="Path 81441" d="M335.411,22.626a.756.756,0,1,0,.755-.748A.748.748,0,0,0,335.411,22.626Z" transform="translate(-330.75 -6)" fill="#fff"/>
        <path id="Path_81442" data-name="Path 81442" d="M330.75,34.412l5.411-5.038,5.41,5.038Z" transform="translate(-330.75 -6)" fill="#65c3a5"/>
      </g>
      <g id="Group_184190" data-name="Group 184190" transform="translate(335.881 11.038)" opacity="0.2">
        <path id="Path_81443" data-name="Path 81443" d="M343.143,17.786a.756.756,0,1,1,.756.748A.749.749,0,0,1,343.143,17.786Z" transform="translate(-341.881 -17.038)" fill="#fff"/>
        <path id="Path_81444" data-name="Path 81444" d="M341.881,20.195a.755.755,0,1,0,.755-.748A.748.748,0,0,0,341.881,20.195Z" transform="translate(-341.881 -17.038)" fill="#fff"/>
        <path id="Path_81445" data-name="Path 81445" d="M344.395,20.195a.755.755,0,1,0,.755-.748A.748.748,0,0,0,344.395,20.195Z" transform="translate(-341.881 -17.038)" fill="#fff"/>
        <path id="Path_81446" data-name="Path 81446" d="M343.143,22.626a.756.756,0,1,0,.756-.748A.749.749,0,0,0,343.143,22.626Z" transform="translate(-341.881 -17.038)" fill="#fff"/>
      </g>
      <g id="Group_184191" data-name="Group 184191" transform="translate(340.214)" opacity="0.2">
        <path id="Path_81447" data-name="Path 81447" d="M357.036,6l-5.411,5.038L346.214,6Z" transform="translate(-346.214 -6)" fill="#65c3a5"/>
        <path id="Path_81448" data-name="Path 81448" d="M350.875,17.786a.756.756,0,1,1,.756.748A.749.749,0,0,1,350.875,17.786Z" transform="translate(-346.214 -6)" fill="#fff"/>
        <path id="Path_81449" data-name="Path 81449" d="M349.613,20.195a.755.755,0,1,0,.755-.748A.748.748,0,0,0,349.613,20.195Z" transform="translate(-346.214 -6)" fill="#fff"/>
        <path id="Path_81450" data-name="Path 81450" d="M352.127,20.195a.755.755,0,1,0,.755-.748A.748.748,0,0,0,352.127,20.195Z" transform="translate(-346.214 -6)" fill="#fff"/>
        <path id="Path_81451" data-name="Path 81451" d="M350.875,22.626a.756.756,0,1,0,.756-.748A.749.749,0,0,0,350.875,22.626Z" transform="translate(-346.214 -6)" fill="#fff"/>
        <path id="Path_81452" data-name="Path 81452" d="M346.214,34.412l5.411-5.038,5.411,5.038Z" transform="translate(-346.214 -6)" fill="#65c3a5"/>
      </g>
      <g id="Group_184192" data-name="Group 184192" transform="translate(351.345 11.038)" opacity="0.2">
        <path id="Path_81453" data-name="Path 81453" d="M358.608,17.786a.755.755,0,1,1,.755.748A.748.748,0,0,1,358.608,17.786Z" transform="translate(-357.345 -17.038)" fill="#fff"/>
        <path id="Path_81454" data-name="Path 81454" d="M357.345,20.195a.756.756,0,1,0,.755-.748A.748.748,0,0,0,357.345,20.195Z" transform="translate(-357.345 -17.038)" fill="#fff"/>
        <path id="Path_81455" data-name="Path 81455" d="M359.859,20.195a.755.755,0,1,0,.755-.748A.748.748,0,0,0,359.859,20.195Z" transform="translate(-357.345 -17.038)" fill="#fff"/>
        <path id="Path_81456" data-name="Path 81456" d="M358.608,22.626a.755.755,0,1,0,.755-.748A.748.748,0,0,0,358.608,22.626Z" transform="translate(-357.345 -17.038)" fill="#fff"/>
      </g>
      <g id="Group_184193" data-name="Group 184193" transform="translate(355.679)" opacity="0.2">
        <path id="Path_81457" data-name="Path 81457" d="M372.5,6l-5.411,5.038L361.679,6Z" transform="translate(-361.679 -6)" fill="#65c3a5"/>
        <path id="Path_81458" data-name="Path 81458" d="M366.34,17.786a.755.755,0,1,1,.755.748A.748.748,0,0,1,366.34,17.786Z" transform="translate(-361.679 -6)" fill="#fff"/>
        <path id="Path_81459" data-name="Path 81459" d="M365.077,20.195a.756.756,0,1,0,.756-.748A.749.749,0,0,0,365.077,20.195Z" transform="translate(-361.679 -6)" fill="#fff"/>
        <path id="Path_81460" data-name="Path 81460" d="M367.591,20.195a.755.755,0,1,0,.755-.748A.748.748,0,0,0,367.591,20.195Z" transform="translate(-361.679 -6)" fill="#fff"/>
        <path id="Path_81461" data-name="Path 81461" d="M366.34,22.626a.755.755,0,1,0,.755-.748A.748.748,0,0,0,366.34,22.626Z" transform="translate(-361.679 -6)" fill="#fff"/>
        <path id="Path_81462" data-name="Path 81462" d="M361.679,34.412l5.41-5.038,5.411,5.038Z" transform="translate(-361.679 -6)" fill="#65c3a5"/>
      </g>
      <g id="Group_184194" data-name="Group 184194" transform="translate(366.809 11.038)" opacity="0.2">
        <path id="Path_81463" data-name="Path 81463" d="M374.072,17.786a.755.755,0,1,1,.755.748A.748.748,0,0,1,374.072,17.786Z" transform="translate(-372.809 -17.038)" fill="#fff"/>
        <path id="Path_81464" data-name="Path 81464" d="M372.809,20.195a.756.756,0,1,0,.756-.748A.749.749,0,0,0,372.809,20.195Z" transform="translate(-372.809 -17.038)" fill="#fff"/>
        <path id="Path_81465" data-name="Path 81465" d="M375.323,20.195a.756.756,0,1,0,.755-.748A.748.748,0,0,0,375.323,20.195Z" transform="translate(-372.809 -17.038)" fill="#fff"/>
        <path id="Path_81466" data-name="Path 81466" d="M374.072,22.626a.755.755,0,1,0,.755-.748A.748.748,0,0,0,374.072,22.626Z" transform="translate(-372.809 -17.038)" fill="#fff"/>
      </g>
      <g id="Group_184195" data-name="Group 184195" transform="translate(371.143)" opacity="0.2">
        <path id="Path_81467" data-name="Path 81467" d="M387.964,6l-5.41,5.038L377.143,6Z" transform="translate(-377.143 -6)" fill="#65c3a5"/>
        <path id="Path_81468" data-name="Path 81468" d="M381.8,17.786a.756.756,0,1,1,.755.748A.748.748,0,0,1,381.8,17.786Z" transform="translate(-377.143 -6)" fill="#fff"/>
        <path id="Path_81469" data-name="Path 81469" d="M380.542,20.195a.755.755,0,1,0,.755-.748A.748.748,0,0,0,380.542,20.195Z" transform="translate(-377.143 -6)" fill="#fff"/>
        <path id="Path_81470" data-name="Path 81470" d="M383.055,20.195a.756.756,0,1,0,.756-.748A.749.749,0,0,0,383.055,20.195Z" transform="translate(-377.143 -6)" fill="#fff"/>
        <path id="Path_81471" data-name="Path 81471" d="M381.8,22.626a.756.756,0,1,0,.755-.748A.748.748,0,0,0,381.8,22.626Z" transform="translate(-377.143 -6)" fill="#fff"/>
        <path id="Path_81472" data-name="Path 81472" d="M377.143,34.412l5.411-5.038,5.41,5.038Z" transform="translate(-377.143 -6)" fill="#65c3a5"/>
      </g>
      <g id="Group_184196" data-name="Group 184196" transform="translate(382.274 11.038)" opacity="0.2">
        <path id="Path_81473" data-name="Path 81473" d="M389.536,17.786a.756.756,0,1,1,.755.748A.748.748,0,0,1,389.536,17.786Z" transform="translate(-388.274 -17.038)" fill="#fff"/>
        <path id="Path_81474" data-name="Path 81474" d="M388.274,20.195a.755.755,0,1,0,.755-.748A.748.748,0,0,0,388.274,20.195Z" transform="translate(-388.274 -17.038)" fill="#fff"/>
        <path id="Path_81475" data-name="Path 81475" d="M390.787,20.195a.756.756,0,1,0,.756-.748A.749.749,0,0,0,390.787,20.195Z" transform="translate(-388.274 -17.038)" fill="#fff"/>
        <path id="Path_81476" data-name="Path 81476" d="M389.536,22.626a.756.756,0,1,0,.755-.748A.748.748,0,0,0,389.536,22.626Z" transform="translate(-388.274 -17.038)" fill="#fff"/>
      </g>
      <g id="Group_184197" data-name="Group 184197" transform="translate(386.607)" opacity="0.2">
        <path id="Path_81477" data-name="Path 81477" d="M403.428,6l-5.41,5.038L392.607,6Z" transform="translate(-392.607 -6)" fill="#65c3a5"/>
        <path id="Path_81478" data-name="Path 81478" d="M397.268,17.786a.756.756,0,1,1,.756.748A.749.749,0,0,1,397.268,17.786Z" transform="translate(-392.607 -6)" fill="#fff"/>
        <path id="Path_81479" data-name="Path 81479" d="M396.006,20.195a.755.755,0,1,0,.755-.748A.748.748,0,0,0,396.006,20.195Z" transform="translate(-392.607 -6)" fill="#fff"/>
        <path id="Path_81480" data-name="Path 81480" d="M398.52,20.195a.755.755,0,1,0,.755-.748A.748.748,0,0,0,398.52,20.195Z" transform="translate(-392.607 -6)" fill="#fff"/>
        <path id="Path_81481" data-name="Path 81481" d="M397.268,22.626a.756.756,0,1,0,.756-.748A.749.749,0,0,0,397.268,22.626Z" transform="translate(-392.607 -6)" fill="#fff"/>
        <path id="Path_81482" data-name="Path 81482" d="M392.607,34.412l5.411-5.038,5.41,5.038Z" transform="translate(-392.607 -6)" fill="#65c3a5"/>
      </g>
      <g id="Group_184198" data-name="Group 184198" transform="translate(397.738 11.038)" opacity="0.2">
        <path id="Path_81483" data-name="Path 81483" d="M405,17.786a.756.756,0,1,1,.756.748A.749.749,0,0,1,405,17.786Z" transform="translate(-403.738 -17.038)" fill="#fff"/>
        <path id="Path_81484" data-name="Path 81484" d="M403.738,20.195a.755.755,0,1,0,.755-.748A.748.748,0,0,0,403.738,20.195Z" transform="translate(-403.738 -17.038)" fill="#fff"/>
        <path id="Path_81485" data-name="Path 81485" d="M406.252,20.195a.755.755,0,1,0,.755-.748A.748.748,0,0,0,406.252,20.195Z" transform="translate(-403.738 -17.038)" fill="#fff"/>
        <path id="Path_81486" data-name="Path 81486" d="M405,22.626a.756.756,0,1,0,.756-.748A.749.749,0,0,0,405,22.626Z" transform="translate(-403.738 -17.038)" fill="#fff"/>
      </g>
      <g id="Group_184199" data-name="Group 184199" transform="translate(402.072)" opacity="0.2">
        <path id="Path_81487" data-name="Path 81487" d="M418.893,6l-5.411,5.038L408.072,6Z" transform="translate(-408.072 -6)" fill="#65c3a5"/>
        <path id="Path_81488" data-name="Path 81488" d="M412.733,17.786a.755.755,0,1,1,.755.748A.748.748,0,0,1,412.733,17.786Z" transform="translate(-408.072 -6)" fill="#fff"/>
        <path id="Path_81489" data-name="Path 81489" d="M411.47,20.195a.756.756,0,1,0,.755-.748A.748.748,0,0,0,411.47,20.195Z" transform="translate(-408.072 -6)" fill="#fff"/>
        <path id="Path_81490" data-name="Path 81490" d="M413.984,20.195a.755.755,0,1,0,.755-.748A.748.748,0,0,0,413.984,20.195Z" transform="translate(-408.072 -6)" fill="#fff"/>
        <path id="Path_81491" data-name="Path 81491" d="M412.733,22.626a.755.755,0,1,0,.755-.748A.748.748,0,0,0,412.733,22.626Z" transform="translate(-408.072 -6)" fill="#fff"/>
        <path id="Path_81492" data-name="Path 81492" d="M408.072,34.412l5.41-5.038,5.411,5.038Z" transform="translate(-408.072 -6)" fill="#65c3a5"/>
      </g>
      <g id="Group_184200" data-name="Group 184200" transform="translate(413.202 11.038)" opacity="0.2">
        <path id="Path_81493" data-name="Path 81493" d="M420.465,17.786a.755.755,0,1,1,.755.748A.748.748,0,0,1,420.465,17.786Z" transform="translate(-419.202 -17.038)" fill="#fff"/>
        <path id="Path_81494" data-name="Path 81494" d="M419.2,20.195a.756.756,0,1,0,.756-.748A.749.749,0,0,0,419.2,20.195Z" transform="translate(-419.202 -17.038)" fill="#fff"/>
        <path id="Path_81495" data-name="Path 81495" d="M421.716,20.195a.755.755,0,1,0,.755-.748A.748.748,0,0,0,421.716,20.195Z" transform="translate(-419.202 -17.038)" fill="#fff"/>
        <path id="Path_81496" data-name="Path 81496" d="M420.465,22.626a.755.755,0,1,0,.755-.748A.748.748,0,0,0,420.465,22.626Z" transform="translate(-419.202 -17.038)" fill="#fff"/>
      </g>
      <g id="Group_184201" data-name="Group 184201" transform="translate(417.536)" opacity="0.2">
        <path id="Path_81497" data-name="Path 81497" d="M434.357,6l-5.41,5.038L423.536,6Z" transform="translate(-423.536 -6)" fill="#65c3a5"/>
        <path id="Path_81498" data-name="Path 81498" d="M428.2,17.786a.755.755,0,1,1,.755.748A.748.748,0,0,1,428.2,17.786Z" transform="translate(-423.536 -6)" fill="#fff"/>
        <path id="Path_81499" data-name="Path 81499" d="M426.934,20.195a.756.756,0,1,0,.756-.748A.749.749,0,0,0,426.934,20.195Z" transform="translate(-423.536 -6)" fill="#fff"/>
        <path id="Path_81500" data-name="Path 81500" d="M429.448,20.195a.756.756,0,1,0,.755-.748A.748.748,0,0,0,429.448,20.195Z" transform="translate(-423.536 -6)" fill="#fff"/>
        <path id="Path_81501" data-name="Path 81501" d="M428.2,22.626a.755.755,0,1,0,.755-.748A.748.748,0,0,0,428.2,22.626Z" transform="translate(-423.536 -6)" fill="#fff"/>
        <path id="Path_81502" data-name="Path 81502" d="M423.536,34.412l5.411-5.038,5.41,5.038Z" transform="translate(-423.536 -6)" fill="#65c3a5"/>
      </g>
      <g id="Group_184202" data-name="Group 184202" transform="translate(428.667 11.038)" opacity="0.2">
        <path id="Path_81503" data-name="Path 81503" d="M435.929,17.786a.756.756,0,1,1,.755.748A.748.748,0,0,1,435.929,17.786Z" transform="translate(-434.667 -17.038)" fill="#fff"/>
        <path id="Path_81504" data-name="Path 81504" d="M434.667,20.195a.755.755,0,1,0,.755-.748A.748.748,0,0,0,434.667,20.195Z" transform="translate(-434.667 -17.038)" fill="#fff"/>
        <path id="Path_81505" data-name="Path 81505" d="M437.18,20.195a.756.756,0,1,0,.755-.748A.748.748,0,0,0,437.18,20.195Z" transform="translate(-434.667 -17.038)" fill="#fff"/>
        <path id="Path_81506" data-name="Path 81506" d="M435.929,22.626a.756.756,0,1,0,.755-.748A.748.748,0,0,0,435.929,22.626Z" transform="translate(-434.667 -17.038)" fill="#fff"/>
      </g>
      <g id="Group_184203" data-name="Group 184203" transform="translate(433)" opacity="0.2">
        <path id="Path_81507" data-name="Path 81507" d="M449.821,6l-5.41,5.038L439,6Z" transform="translate(-439 -6)" fill="#65c3a5"/>
        <path id="Path_81508" data-name="Path 81508" d="M443.661,17.786a.756.756,0,1,1,.755.748A.748.748,0,0,1,443.661,17.786Z" transform="translate(-439 -6)" fill="#fff"/>
        <path id="Path_81509" data-name="Path 81509" d="M442.4,20.195a.755.755,0,1,0,.755-.748A.748.748,0,0,0,442.4,20.195Z" transform="translate(-439 -6)" fill="#fff"/>
        <path id="Path_81510" data-name="Path 81510" d="M444.912,20.195a.756.756,0,1,0,.756-.748A.749.749,0,0,0,444.912,20.195Z" transform="translate(-439 -6)" fill="#fff"/>
        <path id="Path_81511" data-name="Path 81511" d="M443.661,22.626a.756.756,0,1,0,.755-.748A.748.748,0,0,0,443.661,22.626Z" transform="translate(-439 -6)" fill="#fff"/>
        <path id="Path_81512" data-name="Path 81512" d="M439,34.412l5.411-5.038,5.41,5.038Z" transform="translate(-439 -6)" fill="#65c3a5"/>
      </g>
      <g id="Group_184204" data-name="Group 184204" transform="translate(444.131 11.038)" opacity="0.2">
        <path id="Path_81513" data-name="Path 81513" d="M451.393,17.786a.756.756,0,1,1,.756.748A.749.749,0,0,1,451.393,17.786Z" transform="translate(-450.131 -17.038)" fill="#fff"/>
        <path id="Path_81514" data-name="Path 81514" d="M450.131,20.195a.755.755,0,1,0,.755-.748A.748.748,0,0,0,450.131,20.195Z" transform="translate(-450.131 -17.038)" fill="#fff"/>
        <path id="Path_81515" data-name="Path 81515" d="M452.645,20.195a.755.755,0,1,0,.755-.748A.748.748,0,0,0,452.645,20.195Z" transform="translate(-450.131 -17.038)" fill="#fff"/>
        <path id="Path_81516" data-name="Path 81516" d="M451.393,22.626a.756.756,0,1,0,.756-.748A.749.749,0,0,0,451.393,22.626Z" transform="translate(-450.131 -17.038)" fill="#fff"/>
      </g>
    </g>
  </g>
</svg>
