<svg id="world" xmlns="http://www.w3.org/2000/svg" width="32" height="32" viewBox="0 0 32 32">
  <circle id="Ellipse_1334" data-name="Ellipse 1334" cx="12" cy="12" r="12" transform="translate(4 3.912)" fill="#c3c7b9"/>
  <path id="Path_42900" data-name="Path 42900" d="M452.192,62.28c.466.063.935.11,1.4.19a11.386,11.386,0,0,1,4.319,1.675c.538.35,1.045.747,1.633,1.171-.176.134-.293.234-.42.317a3.67,3.67,0,0,0-.475.284c-.187.168-.116.358.122.436a.388.388,0,0,1,.166.168,1.922,1.922,0,0,1,.118.269l.49-.182c.026.193.051.368.079.578-.167-.018-.3-.038-.441-.048-.318-.023-.609.009-.771.348a.594.594,0,0,1-.59.382c-.2-.007-.321.085-.308.309a1.163,1.163,0,0,1-.041.244l.251.1c-.022.1-.043.2-.068.317a2.043,2.043,0,0,0-.372-.059,2.554,2.554,0,0,0-.734.072c-.1.033-.153.257-.186.4a.928.928,0,0,0,.041.324.42.42,0,0,0,.429.4c.031,0,.063,0,.095,0,.436.03.859.049,1.032-.49.037-.113.153-.2.224-.3.132-.191.248-.345.544-.272.122.03.3-.153.45-.241.181.434.688.518,1,.85-.075.271-.318.072-.463.147a.388.388,0,0,0,.627.154c.042-.036.041-.122.055-.186.022-.1.041-.2.069-.334-.244-.257-.809-.267-.8-.841.243-.032.489-.079.685.168.087.109.218.181.316.282a.293.293,0,0,1,.1.194c-.063.4.237.58.468.817a7.05,7.05,0,0,1,.242-.665c.032-.068.155-.093.269-.155.013.119.022.209.032.3.045.418.259.626.668.595.239-.018.358.048.412.286s.143.444.24.734c-.459-.072-.913.166-1.282-.186a.88.88,0,0,0-.961-.168c-.007.089-.015.2-.024.342a.958.958,0,0,1-.205-.016c-.356-.115-.706-.247-1.066-.347-.151-.041-.21-.1-.2-.253s0-.3,0-.494a6.177,6.177,0,0,0-1.621.234,1.843,1.843,0,0,1-.777.081,1.351,1.351,0,0,0-.793.363c-.075.051-.044.282-.033.428a.381.381,0,0,1-.195.388c-.315.208-.615.438-.921.659-.11.08-.244.132-.191.327.047.175.111.288.324.248-.014.184.03.365-.185.45-.025.01-.038.061-.049.095a.273.273,0,0,0,0,.07,1.425,1.425,0,0,0,.525,1.48c.14.16.28.319.419.48.229.263.39.273.736.175a4.307,4.307,0,0,1,.7-.036.682.682,0,0,0,.33-.126.691.691,0,0,1,.774.013.928.928,0,0,0,.362.171,4.887,4.887,0,0,0,.547.071c-.025.259-.066.5-.066.742a1.124,1.124,0,0,0,.1.484c.195.386.426.751.627,1.134a.4.4,0,0,1,.005.292,4.881,4.881,0,0,1-.255.5.582.582,0,0,0,.118.8.431.431,0,0,1,.16.392c-.008.07.007.143,0,.213a1.147,1.147,0,0,0,.3.947.91.91,0,0,1,.148.446,3.875,3.875,0,0,1,.005.534l.34.026a12.041,12.041,0,0,1-20.452-12.231c.013.025.031.043.029.057-.049.342.009.617.4.712.04.009.074.088.09.14a.373.373,0,0,1,0,.164,1.736,1.736,0,0,0,.428,1.393c.085.109.266.142.4.209a.389.389,0,0,0-.022-.5,1.632,1.632,0,0,1-.4-1.2l.215-.01c.017.03.031.043.03.057a2.448,2.448,0,0,0,.662,1.447.286.286,0,0,1,.026.36.349.349,0,0,0,.012.266,1.024,1.024,0,0,0,.909.663,2.971,2.971,0,0,1,.42.1c.115-.263.3-.088.471-.09-.007.1-.012.184-.018.269.024.016.042.037.062.039a1.493,1.493,0,0,1,1.226.716.7.7,0,0,0,.675.334c.163-.005.328.02.506.033.03.222.067.43.08.641a.231.231,0,0,1-.1.182,1.075,1.075,0,0,0-.578.989,1.11,1.11,0,0,0,.322.952c.149.172.286.355.427.534.03.037.081.074.082.113.012.326.211.436.494.535a2.2,2.2,0,0,1,.616.428.357.357,0,0,1,.09.245c.008.542.01,1.085,0,1.628,0,.176.012.315.249.329-.047.281-.1.549-.134.819a.288.288,0,0,0,.036.214,1.115,1.115,0,0,1,.3,1.138.827.827,0,0,0,.13.576,3.406,3.406,0,0,0,.987,1.21c.258.195.543.081.816.1.006,0,.064-.2.024-.261a1.176,1.176,0,0,0-.317-.277.254.254,0,0,1-.1-.326c.051-.17.09-.343.138-.531-.226-.041-.467.018-.527-.26l.353-.467a1.558,1.558,0,0,1-.247-.1.743.743,0,0,1-.123-.136.587.587,0,0,1,.142-.116c.305-.116.615-.22.92-.34a.423.423,0,0,0,.176-.143c.276-.38.54-.771.822-1.147a.38.38,0,0,0,.085-.387,3.266,3.266,0,0,1-.083-.367.444.444,0,0,1,.463-.572.858.858,0,0,0,.584-.1.772.772,0,0,0,.349-.667,6.5,6.5,0,0,1,.095-.914.779.779,0,0,1,.155-.306c.194-.27.465-.5.437-.894a.666.666,0,0,0-.141-.055.6.6,0,0,1-.483-.4.331.331,0,0,0-.388-.218,2.69,2.69,0,0,1-1.505-.28.361.361,0,0,1-.154-.216c-.035-.143-.009-.3-.051-.443-.12-.4-.252-.509-.667-.486a.529.529,0,0,1-.57-.334c-.124-.25-.282-.476-.567-.467a1.784,1.784,0,0,1-.308.125.612.612,0,0,1-.724-.253c-.113-.156-.451-.169-.694-.2-.077-.01-.2.111-.256.2a.816.816,0,0,1-1.061.384c-.326-.095-.331-.063-.35-.415-.013-.235.041-.528-.08-.686-.106-.139-.411-.128-.642-.186.042-.261.38-.468.146-.8-.248.165-.5.32-.738.494s-.487.061-.723.016c-.124-.023-.235-.48-.165-.659a2.232,2.232,0,0,1,.376-.774,1.6,1.6,0,0,1,.817-.417,8.511,8.511,0,0,1,1.323-.018c.022.155,0,.336.076.428a1.422,1.422,0,0,0,.451.234,1.262,1.262,0,0,0,0-.3c-.12-.416.134-.64.419-.851a3.805,3.805,0,0,1,.355-.232c.2-.113.373-.23.366-.495a.236.236,0,0,1,.076-.139A4.371,4.371,0,0,1,449,68.774a2.02,2.02,0,0,0,.53-.517.271.271,0,0,1,.463-.009l.156-.172a4.373,4.373,0,0,1-.354-.29c-.008-.007.076-.161.135-.176a.341.341,0,0,1,.472.257c.2-.1.469.039.6-.238.007-.016.154,0,.162.026a.268.268,0,0,1-.011.209c-.207.27-.2.307.126.405.178.053.357.1.536.152.1-.226.048-.349-.162-.422a3.236,3.236,0,0,1-.418-.226c.138-.063.193-.085.247-.113.107-.056.272-.026.28-.226.008-.186,0-.342-.2-.415a.384.384,0,0,1-.267-.459,3.514,3.514,0,0,0,0-.386l-.874.352c.017-.242.028-.4.042-.6-.265-.064-.533-.142-.807-.191-.138-.025-.39.248-.4.394,0,.015,0,.031,0,.047,0,.2.064.438-.026.577s-.353.131-.507.237a.928.928,0,0,0-.264.359c-.078.157-.159.271-.379.2v-.637a3.247,3.247,0,0,1-.419-.066,1.383,1.383,0,0,1-.4-.174.361.361,0,0,1,.036-.628,3.944,3.944,0,0,1,1.356-.634c.02.091.041.188.066.3.12.009.256.1.326-.118.018-.056.172-.068.264-.1l-.155-.3a.756.756,0,0,0,.661-.265c.113-.1.317-.094.48-.137a.579.579,0,0,1,.694.265l-.884.478,1.132.27c.023-.028.046-.044.05-.064a.352.352,0,0,1,.465-.319c.247.044.249-.183.354-.332a.981.981,0,0,0-.187-.058.165.165,0,0,1-.168-.222c.038-.2-.061-.3-.24-.361a4.35,4.35,0,0,1-.538-.237,1.561,1.561,0,0,0-1.357.042.3.3,0,0,0-.216.377,2.049,2.049,0,0,1,0,.308c-.188-.075-.453.063-.483-.258a.331.331,0,0,1,.074-.216,3.777,3.777,0,0,1,.325-.308c-.29-.015-.524-.035-.757-.036a.3.3,0,0,0-.338.321l.242.074c.037.226-.051.33-.29.311-.131-.011-.272-.021-.322.159-.008.028-.075.054-.116.055-.2.006-.407,0-.627,0-.016-.126-.034-.255-.055-.417a.845.845,0,0,0,.983-.441l-.207-.111c-.173.174-.322.358-.619.3a.5.5,0,0,1-.38-.217.8.8,0,0,0-.953-.172,3.437,3.437,0,0,0-.543.461h.351c.3,0,.334.063.2.318.213.161.6-.144.738.289h-.758l.024-.062a1.924,1.924,0,0,0-.364-.2c-.338-.1-.682-.178-1.019-.264a.434.434,0,0,1,.061-.052,12.011,12.011,0,0,1,4.995-2.042c.447-.076.9-.107,1.355-.158Zm5.025,5.411c.548.109.84.022,1.01-.3-.469-.192-.58-.619-.673-1.068a.706.706,0,0,0-.238.039.67.67,0,0,0-.255.23c-.067.131.049.21.155.272a.665.665,0,0,1,.232.155.414.414,0,0,1,.009.233c-.315.028-.2.268-.24.436m-.813-.149c.284.037.29.044.652-.253.074-.062.09-.195.133-.295-.1-.042-.2-.125-.3-.118a.586.586,0,0,0-.484.667m-5.6.794c-.14,0-.286-.02-.293,0-.075.234-.283.141-.43.185.02.222.172.315.34.195a3.412,3.412,0,0,0,.383-.383m-1.233.434.061.061c.069-.031.18-.049.193-.1s-.041-.145-.068-.219l-.075,0-.111.251" transform="translate(-435.411 -58.368)" fill="#36512a"/>
  <rect id="Rectangle_150398" data-name="Rectangle 150398" width="32" height="32" fill="none"/>
</svg>
