<svg width="40" height="40" viewBox="0 0 40 40" fill="none" xmlns="http://www.w3.org/2000/svg">
<path d="M35.36 25.0062L33.76 23.4013L34.64 22.51L36.245 24.12L37.85 22.5163L38.7337 23.4L37.1275 25.0062L38.7125 26.595L37.8325 27.4863L36.2425 25.8912L34.6338 27.5L33.75 26.6162L35.36 25.0062ZM35.4425 29.565L34.5575 30.4487L36.6088 32.5H8.75V4.64125L10.8 6.69125L11.685 5.8075L8.125 2.25L4.565 5.8075L5.44875 6.6925L7.5 4.64125V32.5H2.5V33.75H7.5V38.75H8.75V33.75H36.6088L34.5587 35.8L35.4425 36.685L39 33.125L35.4425 29.565ZM14.9987 4.64625V7.5H16.2487V4.665L18.125 2.79L17.2413 1.90625L15.6362 3.51125L14.0062 1.875L13.1263 2.76625L14.9987 4.64625Z" fill="#5D5449"/>
<path d="M11.509 30.2451L10.4265 30.8701L11.0515 31.9526L12.134 31.3276L11.509 30.2451ZM13.6741 28.9951L12.5916 29.6201L13.2166 30.7026L14.2991 30.0776L13.6741 28.9951ZM15.8392 27.7451L14.7566 28.3701L15.3816 29.4526L16.4642 28.8276L15.8392 27.7451ZM18.0042 26.4951L16.9217 27.1201L17.5467 28.2026L18.6292 27.5776L18.0042 26.4951ZM20.1693 25.2451L19.0868 25.8701L19.7118 26.9526L20.7943 26.3276L20.1693 25.2451ZM22.3344 23.9951L21.2518 24.6201L21.8768 25.7026L22.9594 25.0776L22.3344 23.9951ZM24.4994 22.7451L23.4169 23.3701L24.0419 24.4526L25.1244 23.8276L24.4994 22.7451Z" fill="#85C0A4"/>
</svg>
