<svg width="32" height="32" viewBox="0 0 32 32" fill="none" xmlns="http://www.w3.org/2000/svg">
<path d="M28.288 20.005L27.008 18.721L27.712 18.008L28.996 19.296L30.28 18.013L30.987 18.72L29.702 20.005L30.97 21.276L30.266 21.989L28.994 20.713L27.707 22L27 21.293L28.288 20.005ZM28.354 23.652L27.646 24.359L29.287 26H7V3.713L8.64 5.353L9.348 4.646L6.5 1.8L3.652 4.646L4.359 5.354L6 3.713V26H2V27H6V31H7V27H29.287L27.647 28.64L28.354 29.348L31.2 26.5L28.354 23.652ZM11.999 3.717V6H12.999V3.732L14.5 2.232L13.793 1.525L12.509 2.809L11.205 1.5L10.501 2.213L11.999 3.717Z" fill="#EFE9E4"/>
<path d="M9.20782 24.1963L8.3418 24.6963L8.8418 25.5623L9.70782 25.0623L9.20782 24.1963ZM10.9399 23.1963L10.0738 23.6963L10.5738 24.5623L11.4399 24.0623L10.9399 23.1963ZM12.6719 22.1963L11.8059 22.6963L12.3059 23.5623L13.1719 23.0623L12.6719 22.1963ZM14.404 21.1963L13.5379 21.6963L14.0379 22.5623L14.904 22.0623L14.404 21.1963ZM16.136 20.1963L15.27 20.6963L15.77 21.5623L16.636 21.0623L16.136 20.1963ZM17.8681 19.1963L17.0021 19.6963L17.5021 20.5623L18.3681 20.0623L17.8681 19.1963ZM19.6001 18.1963L18.7341 18.6963L19.2341 19.5623L20.1001 19.0623L19.6001 18.1963Z" fill="#85C0A4"/>
</svg>
