<svg xmlns="http://www.w3.org/2000/svg" width="26.502" height="26.433" viewBox="0 0 26.502 26.433">
  <g id="zoom-in_2_" data-name="zoom-in (2)" transform="translate(0 0)">
    <path id="Path_79251" data-name="Path 79251" d="M103.251,26.783A13.266,13.266,0,0,1,90,13.532c.728-17.579,25.776-17.574,26.5,0A13.266,13.266,0,0,1,103.251,26.783Zm0-23.989A10.751,10.751,0,0,0,92.512,13.532c.59,14.246,20.89,14.242,21.478,0A10.751,10.751,0,0,0,103.251,2.793Z" transform="translate(-90 -0.35)" fill="#7e7165" opacity="0"/>
    <path id="Path_79252" data-name="Path 79252" d="M13.5,139.08a1.485,1.485,0,0,1-1.588,1.353H1.588a1.371,1.371,0,1,1,0-2.706H11.912A1.485,1.485,0,0,1,13.5,139.08Z" transform="translate(6.5 -125.801)" fill="#7e7165"/>
  </g>
</svg>
