<svg xmlns="http://www.w3.org/2000/svg" width="26.502" height="26.433" viewBox="0 0 26.502 26.433">
  <g id="zoom-in_2_" data-name="zoom-in (2)" transform="translate(0 0)">
    <path id="Path_79251" data-name="Path 79251" d="M103.251,26.783A13.266,13.266,0,0,1,90,13.532c.728-17.579,25.776-17.574,26.5,0A13.266,13.266,0,0,1,103.251,26.783Zm0-23.989A10.751,10.751,0,0,0,92.512,13.532c.59,14.246,20.89,14.242,21.478,0A10.751,10.751,0,0,0,103.251,2.793Z" transform="translate(-90 -0.35)" fill="#7e7165" opacity="0"/>
    <path id="Path_79252" data-name="Path 79252" d="M14,132.259a1.647,1.647,0,0,1-1.647,1.647H8.647v3.706a1.647,1.647,0,1,1-3.294,0v-3.706H1.647a1.647,1.647,0,1,1,0-3.294H5.353v-3.706a1.647,1.647,0,1,1,3.294,0v3.706h3.706A1.647,1.647,0,0,1,14,132.259Z" transform="translate(6.654 -118.642)" fill="#7e7165"/>
  </g>
</svg>
