<svg width="38" height="43" viewBox="0 0 38 43" fill="none" xmlns="http://www.w3.org/2000/svg">
<g clip-path="url(#clip0_4821_10465)">
<path d="M19 0L0 10.7519V32.2519L19 43L38 32.2519V10.7519L19 0Z" fill="#73390F"/>
<path opacity="0.05" d="M19 0V21.6761L0 32.2519V10.7519L19 0Z" fill="url(#paint0_linear_4821_10465)"/>
<path d="M27.7053 14.7211L27.7046 14.7189C27.6795 14.6161 27.575 14.541 27.4709 14.5014C27.3639 14.4518 24.4376 13.5355 24.1336 13.4362C23.8322 13.3226 23.8322 13.2784 23.5115 13.3996C23.3506 13.4384 23.2185 13.5409 23.0725 13.6164C22.9626 13.6631 22.853 13.6897 22.7482 13.7537C21.5647 14.2411 20.3951 14.7757 19.2121 15.274C19.1487 15.2941 19.0526 15.3512 18.9977 15.339C17.6799 14.7768 15.3943 13.7526 14.2742 13.291C13.9753 13.3838 11.3435 14.2541 10.3792 14.5672C10.3577 14.5748 10.3483 14.5952 10.3421 14.6168C10.3097 14.738 10.2369 30.5361 10.3705 30.6446C10.444 30.7007 10.4935 30.7133 10.5656 30.6791C10.6377 30.6536 14.3546 29.3372 14.3623 29.34C14.3747 29.3451 14.4009 29.3569 14.4413 29.3746C15.5563 29.8656 19.1302 31.2906 19.2336 31.2727C19.7097 31.1235 23.7317 29.3246 23.7758 29.3429C24.079 29.4457 27.0388 30.5817 27.421 30.7068C27.5099 30.7259 27.6293 30.7104 27.6788 30.6231C27.6984 30.5932 27.7097 21.798 27.7108 17.3906C27.7046 15.8405 27.7217 14.903 27.7046 14.7211H27.7053ZM19.3013 15.7952C19.3162 15.7046 19.3661 15.6989 19.4472 15.6626C20.3908 15.2391 22.3656 14.3616 23.4445 13.8788C23.4864 13.8727 23.5424 13.941 23.5497 13.9838C23.5505 14.2447 23.5497 16.8485 23.5497 17.9482C23.5403 18.0273 23.5461 18.1139 23.5497 18.1973C23.5497 18.261 23.5497 18.3131 23.5497 18.3523C23.5468 18.3907 23.5508 18.4112 23.5217 18.4105C22.5239 18.2383 19.6769 17.7419 19.3093 17.6786C19.2652 17.6746 19.2918 17.6027 19.2867 17.5697C19.2987 17.0833 19.2252 16.0954 19.3016 15.7952H19.3013ZM14.4966 13.8673V13.8662C14.4977 13.85 14.4999 13.8414 14.5039 13.8385C14.5061 13.8367 14.509 13.8371 14.5123 13.8382C15.5523 14.3123 18.578 15.6306 18.8128 15.7661C18.8175 17.0772 18.8237 20.8072 18.8255 21.2163C18.8255 21.2203 18.8251 21.2239 18.823 21.2271C18.8182 21.2346 18.8037 21.2418 18.7742 21.2523C18.5226 21.3281 18.2933 21.4489 18.0825 21.6038C18.0541 21.6225 18.0392 21.6355 18.0134 21.6463C17.993 21.6542 17.9857 21.6448 17.9686 21.633C17.2133 21.0934 15.6906 20.0056 14.8814 19.4271C14.8541 19.4048 14.8821 19.3466 14.8868 19.3103C14.9436 19.0885 14.9615 18.848 14.9068 18.647C14.8603 18.4677 14.7616 18.3052 14.6 18.1657C14.5443 18.1168 14.4904 18.0607 14.4689 17.9895C14.3455 16.6256 14.5297 15.2384 14.4959 13.8676L14.4966 13.8673ZM14.4999 18.8699C14.5268 19.1769 14.3259 19.435 14.0044 19.4613H14.0019C13.2145 19.5321 13.1512 18.3613 13.9564 18.3386C14.2618 18.3249 14.4817 18.5859 14.5002 18.8699H14.4999ZM10.7305 14.9634C10.7276 14.9274 10.7574 14.9342 10.7913 14.9191C11.6285 14.6438 13.1577 14.1218 14.0347 13.8382C14.0256 14.697 14.0682 17.662 14.0197 17.886C13.8173 17.9087 13.5665 17.9586 13.3991 18.0762C13.2389 18.1747 13.0995 18.3397 13.011 18.4993C12.9808 18.5464 12.9688 18.5712 12.9211 18.5636C12.6394 18.5277 11.3093 18.3587 10.7643 18.2894C10.7538 18.2879 10.7421 18.2876 10.7367 18.2789C10.7348 18.2739 10.7345 18.2678 10.7345 18.2613C10.7356 17.7699 10.7316 16.9639 10.7323 16.4002C10.7308 16.0203 10.7312 15.0755 10.7305 14.963V14.9634ZM14.1515 28.781C14.1515 28.8418 14.1515 28.8702 14.145 28.8831C13.8789 28.9993 11.0646 30.0331 10.7363 30.1496C10.7283 29.655 10.7363 24.9834 10.7345 24.6218C10.7338 24.6128 10.7436 24.6074 10.752 24.6034C10.7709 24.5948 10.8142 24.5761 10.8786 24.5477C11.4439 24.323 13.2771 23.4498 13.6171 23.3715C13.6437 23.3873 13.7118 23.4653 13.7544 23.5066C13.8712 23.6253 14.0139 23.7126 14.149 23.7525C14.7383 23.9337 15.3724 23.406 15.4005 22.8283C15.4198 22.5533 15.2683 22.2779 15.0441 22.105C14.4012 21.5496 13.449 22.0424 13.4042 22.8531C13.3947 22.9113 13.3765 22.9606 13.3405 22.9961C13.3092 23.0278 13.2713 23.0458 13.2284 23.0626C12.4475 23.3466 11.7042 23.7475 10.9234 24.0142C10.8575 24.0326 10.7498 24.0829 10.7356 24.0559C10.7312 23.8445 10.7367 22.509 10.7345 21.207C10.7294 20.429 10.7381 19.3081 10.7345 18.7499C10.7312 18.7215 10.7654 18.7362 10.7862 18.7366C11.0588 18.775 12.3005 18.9271 12.8163 18.9954C12.86 19.0011 12.8862 19.0011 12.9055 19.0238C12.9397 19.0687 12.9554 19.1478 12.9816 19.2086C13.2036 19.7963 13.8665 20.062 14.4358 19.7737C14.4962 19.7492 14.5359 19.7136 14.577 19.7323C15.3448 20.2802 17.4211 21.7476 17.7851 22.0223C17.795 22.0327 17.7804 22.078 17.772 22.1039C17.7564 22.1499 17.7302 22.2171 17.7138 22.2815C17.6501 22.5223 17.7407 22.8222 17.7094 23.0468C17.697 23.1144 17.6949 23.1353 17.6574 23.164C17.3418 23.3668 15.6323 24.4639 14.9076 24.9291C14.8544 24.9611 14.8289 24.9848 14.7794 25.0068C14.6418 25.038 14.541 24.9385 14.4071 24.8957C14.1515 24.804 13.8141 24.8224 13.6077 24.9309C13.0398 25.2045 12.904 26.0482 13.3256 26.494C13.5301 26.7158 13.8468 26.7963 14.145 26.7794C14.1475 26.7794 14.1497 26.7794 14.1522 26.7794C14.1515 27.3186 14.153 28.6218 14.1522 28.7818L14.1515 28.781ZM14.3663 22.288H14.3688C14.5206 22.2711 14.691 22.3264 14.7893 22.4325C15.075 22.729 14.968 23.2827 14.5192 23.3431C13.7471 23.4818 13.6437 22.3753 14.3666 22.288H14.3663ZM14.1198 26.3825H14.1173C13.8039 26.4192 13.5574 26.1848 13.5225 25.8922C13.4814 25.6129 13.6397 25.3375 13.9309 25.2757C14.7176 25.0866 14.9065 26.3031 14.1198 26.3822V26.3825ZM18.8193 30.7701C18.5783 30.6662 14.8901 29.0758 14.6135 28.9414C14.6076 28.9306 14.6073 28.9065 14.6073 28.8501C14.6073 28.6905 14.6073 26.9678 14.6073 26.6478C14.9604 26.4365 15.1242 25.9975 15.0343 25.5374C15.0299 25.4648 15.0248 25.404 15.0608 25.3458C15.0867 25.3138 15.1293 25.2954 15.1642 25.2706C15.834 24.8425 17.5835 23.6943 17.9471 23.4739C18.0844 23.4592 18.1921 23.6048 18.3039 23.6709C18.4498 23.7637 18.6428 23.8223 18.7818 23.9125C18.812 23.9348 18.8215 23.9391 18.8222 23.9596C18.8259 24.2939 18.8233 29.2376 18.8193 30.7701ZM18.9227 21.6696H18.9252C19.4396 21.5851 19.8579 21.9249 19.9372 22.4044C20.0235 22.8649 19.7719 23.3402 19.2823 23.4365C17.9864 23.7281 17.6763 21.8695 18.9227 21.6696ZM23.4613 28.9716C23.1697 29.0809 19.5528 30.6971 19.2845 30.7629C19.2791 30.7457 19.286 30.6561 19.2831 30.6134C19.2787 30.4196 19.2321 28.822 19.2456 28.7408C19.259 28.6725 19.3286 28.6096 19.3897 28.5869C19.7275 28.4931 22.363 27.7766 23.3532 27.5059C23.4143 27.4858 23.4722 27.4617 23.5333 27.4373C23.4332 27.9686 23.4835 28.9576 23.4616 28.9712L23.4613 28.9716ZM23.5486 27.0005C22.5064 27.2852 19.4731 28.1404 19.274 28.1829C19.2696 27.7691 19.274 27.4074 19.2725 26.8409C19.2725 25.6808 19.2725 24.1591 19.2725 23.9592C19.2732 23.9344 19.2838 23.9276 19.3129 23.9046C19.5244 23.7716 19.6547 23.8197 19.8655 23.6166C19.9146 23.576 20.0486 23.448 20.0937 23.4937C20.3533 23.681 22.8938 25.4788 23.7674 26.1093C23.8104 26.1744 23.5727 26.9933 23.5486 27.0001V27.0005ZM27.2503 30.1219C27.2474 30.1439 27.242 30.1521 27.2321 30.1511C26.9293 30.0454 24.2752 29.0801 23.9854 28.9766C23.9541 28.9629 23.9643 27.6947 23.9403 27.4053C23.949 27.4125 23.9578 27.42 23.9669 27.4286C24.0455 27.5009 24.1402 27.571 24.241 27.6141C24.5926 27.7907 24.9727 27.7493 25.2875 27.5146C25.4066 27.4322 25.4888 27.3014 25.6122 27.2406C25.6476 27.2266 25.6858 27.2572 25.7313 27.2769C26.1109 27.465 26.9926 27.8902 27.2096 28.0013C27.2594 28.0373 27.2507 30.1216 27.2507 30.1216L27.2503 30.1219ZM24.5773 26.1668C24.9188 26.1039 25.202 26.3394 25.2446 26.6687C25.2883 26.9743 25.0946 27.2428 24.7685 27.2809H24.7659C24.0058 27.4024 23.8792 26.293 24.5773 26.1668ZM27.2394 27.5577C26.9369 27.3237 26.1859 27.0659 25.8281 26.8919C25.6603 26.8333 25.7335 26.6367 25.6825 26.503C25.6031 26.2312 25.4211 25.9842 25.1838 25.8465C24.771 25.6143 24.5329 25.7531 24.1442 25.848C23.4747 25.3925 20.8873 23.6137 20.3435 23.1292C20.2787 23.031 20.3784 22.8002 20.3926 22.6672C20.4334 22.5475 20.3788 22.3505 20.4607 22.2617C21.319 21.8638 22.8737 21.345 23.5028 21.0603C23.6611 21.0729 23.7692 21.2735 23.9498 21.326C25.6173 21.9342 25.9155 19.3502 24.2606 19.5163C23.842 19.5839 23.4806 19.925 23.4296 20.3496C23.4023 20.4625 23.466 20.6293 23.3277 20.6598C22.7391 20.8151 20.6328 21.8163 20.2554 21.8738C20.1978 21.8864 20.1807 21.8296 20.1454 21.7857C20.1054 21.7282 20.0552 21.6664 20.002 21.6182C19.8338 21.4669 19.6646 21.3651 19.4549 21.2882C19.3504 21.2569 19.2689 21.1782 19.2765 21.0635C19.2791 20.1501 19.2754 19.2366 19.2707 18.3239C19.2685 18.2512 19.2783 18.1452 19.3362 18.1139H19.3369C19.7701 18.1556 22.414 18.6452 23.5155 18.825C23.8442 18.8901 26.3137 19.4724 27.0792 19.6482C27.1681 19.6748 27.2511 19.6727 27.2518 19.7029C27.2572 19.9754 27.2492 25.6661 27.2536 27.4222C27.2514 27.511 27.2638 27.5778 27.2398 27.5581L27.2394 27.5577ZM24.043 20.0915C24.2563 19.9002 24.5733 19.8898 24.7819 20.1026L24.7837 20.1044C25.3036 20.6253 24.3982 21.3741 23.9469 20.7803C23.7725 20.5624 23.8413 20.2644 24.043 20.0915ZM27.3108 18.9584V18.9605C27.2925 19.0608 27.3006 19.2593 27.1695 19.2416C26.5536 19.0676 24.3739 18.7308 24.0138 18.5115C23.9905 18.3756 24.0142 18.106 23.9793 17.9119C24.0437 16.7346 23.9221 14.8037 23.9916 13.9963C23.9942 13.9449 24.0051 13.8712 24.0521 13.8551C24.0866 13.8403 24.1456 13.8558 24.1857 13.8698C24.3029 13.909 24.4197 13.9496 24.5369 13.9881C25.024 14.1498 25.5063 14.331 25.9981 14.4637C26.3738 14.5348 26.9445 14.7728 27.2561 14.8753C27.3231 14.9044 27.3035 14.9989 27.3082 15.0705C27.2725 16.3485 27.3981 17.6991 27.3108 18.9587V18.9584Z" fill="white"/>
<path d="M14.4132 23.474C14.7795 23.474 15.0765 23.1808 15.0765 22.8191C15.0765 22.4573 14.7795 22.1641 14.4132 22.1641C14.0469 22.1641 13.75 22.4573 13.75 22.8191C13.75 23.1808 14.0469 23.474 14.4132 23.474Z" fill="white"/>
<path d="M19 0L0 10.7519V32.2519L19 43.0037L38 32.2519V10.7519L19 0ZM33.3666 29.6295L19 42.4043L4.63722 29.6295V13.3743L19 5.24482L33.3666 13.3705V29.6257V29.6295Z" fill="#D97706"/>
</g>
<defs>
<linearGradient id="paint0_linear_4821_10465" x1="-0.0344062" y1="10.5646" x2="18.9023" y2="22.0656" gradientUnits="userSpaceOnUse">
<stop stop-color="white" stop-opacity="0"/>
<stop offset="1" stop-color="white"/>
</linearGradient>
<clipPath id="clip0_4821_10465">
<rect width="38" height="43" fill="white"/>
</clipPath>
</defs>
</svg>
