<svg
  id="_32_layers-32"
  data-name="32 / layers-32"
  xmlns="http://www.w3.org/2000/svg"
  width="48"
  height="48"
  viewBox="0 0 35 35"
>
  <path
    id="layers-32"
    d="M14.5,27h0L0,18.492l2.781-1.629.989.58-1.792,1.05L14.5,25.841l12.522-7.348-1.792-1.05.989-.58L29,18.493,14.5,27Zm0-5h0L0,13.492l2.781-1.629.989.58L1.978,13.493,14.5,20.841l12.522-7.349L25.23,12.443l.989-.58L29,13.493,14.5,22Zm0-5h0L0,8.492,14.5,0,29,8.492,14.5,17Zm0-15.84L1.978,8.493,14.5,15.841,27.022,8.494Z"
    fill="currentColor"
    transform="translate(3.5 3)"
  ></path>
</svg>
