<svg id="Acquisition_Plots-32px" data-name="Acquisition Plots-32px" xmlns="http://www.w3.org/2000/svg" width="32" height="32" viewBox="0 0 32 32">
  <g id="Group_41467" data-name="Group 41467" transform="translate(3.742 3.742)">
    <g id="plots" transform="translate(0 0)">
      <path id="Path_37666" data-name="Path 37666" d="M-1759.57,4867.714h1.976l2.677,3.459,2.471-3.459h2.224l1.441,7.288h-12.353Z" transform="translate(1767.214 -4858.015)" fill="#848f6c"/>
      <g id="Group_40891" data-name="Group 40891">
        <g id="_x34_8x48_px_6_">
          <g id="Group_40890" data-name="Group 40890">
            <g id="Group_40874" data-name="Group 40874" transform="translate(0 23.61)">
              <path id="Path_35390" data-name="Path 35390" d="M0,23H24.656v1.045H0Z" transform="translate(0 -23)" fill="#36512a" stroke="#e3e0d7" stroke-width="0.25"/>
            </g>
            <g id="Group_40875" data-name="Group 40875" transform="translate(0.523 19.952)">
              <path id="Path_35391" data-name="Path 35391" d="M.5,19.5H2.068v1.045H.5Z" transform="translate(-0.5 -19.5)" fill="#36512a" stroke="#e3e0d7" stroke-width="0.25"/>
            </g>
            <g id="Group_40876" data-name="Group 40876" transform="translate(3.658 19.952)">
              <path id="Path_35392" data-name="Path 35392" d="M3.5,19.5H5.068v1.045H3.5Z" transform="translate(-3.5 -19.5)" fill="#36512a" stroke="#e3e0d7" stroke-width="0.25"/>
            </g>
            <g id="Group_40877" data-name="Group 40877" transform="translate(6.67 19.952)">
              <path id="Path_35393" data-name="Path 35393" d="M6.5,19.5H8.068v1.045H6.5Z" transform="translate(-6.5 -19.5)" fill="#36512a" stroke="#e3e0d7" stroke-width="0.25"/>
            </g>
            <g id="Group_40878" data-name="Group 40878" transform="translate(9.748 19.952)">
              <path id="Path_35394" data-name="Path 35394" d="M9.5,19.5h1.568v1.045H9.5Z" transform="translate(-9.5 -19.5)" fill="#36512a" stroke="#e3e0d7" stroke-width="0.25"/>
            </g>
            <g id="Group_40879" data-name="Group 40879" transform="translate(12.826 19.952)">
              <path id="Path_35395" data-name="Path 35395" d="M12.5,19.5h1.568v1.045H12.5Z" transform="translate(-12.5 -19.5)" fill="#36512a" stroke="#e3e0d7" stroke-width="0.25"/>
            </g>
            <g id="Group_40880" data-name="Group 40880" transform="translate(15.905 19.952)">
              <path id="Path_35396" data-name="Path 35396" d="M15.5,19.5h1.568v1.045H15.5Z" transform="translate(-15.5 -19.5)" fill="#36512a" stroke="#e3e0d7" stroke-width="0.25"/>
            </g>
            <g id="Group_40881" data-name="Group 40881" transform="translate(18.983 19.952)">
              <path id="Path_35397" data-name="Path 35397" d="M18.5,19.5h1.568v1.045H18.5Z" transform="translate(-18.5 -19.5)" fill="#36512a" stroke="#e3e0d7" stroke-width="0.25"/>
            </g>
            <g id="Group_40882" data-name="Group 40882" transform="translate(22.042 19.952)">
              <path id="Path_35398" data-name="Path 35398" d="M21.5,19.5h1.568v1.045H21.5Z" transform="translate(-21.5 -19.5)" fill="#36512a" stroke="#e3e0d7" stroke-width="0.25"/>
            </g>
            <g id="Group_40883" data-name="Group 40883" transform="translate(16.908 6.672)">
              <path id="Path_35399" data-name="Path 35399" d="M16.5,6.5h3.136V7.545H16.5Z" transform="translate(-16.5 -6.5)" fill="#36512a" stroke="#e3e0d7" stroke-width="0.25"/>
            </g>
            <g id="Group_40884" data-name="Group 40884" transform="translate(4.611 6.672)">
              <path id="Path_35400" data-name="Path 35400" d="M4.5,6.5H7.636V7.545H4.5Z" transform="translate(-4.5 -6.5)" fill="#36512a" stroke="#e3e0d7" stroke-width="0.25"/>
            </g>
            <g id="Group_40885" data-name="Group 40885" transform="translate(0 9.165)">
              <path id="Path_35401" data-name="Path 35401" d="M2.984,17.362H0V16.317H2.242l2.242-6.272H3.658V9h2.31Z" transform="translate(0 -9)" fill="#36512a" stroke="#e3e0d7" stroke-width="0.25"/>
            </g>
            <g id="Group_40886" data-name="Group 40886" transform="translate(5.408 9.165)">
              <path id="Path_35402" data-name="Path 35402" d="M19.219,17.362H5.38L7.173,9H9.164v1.045H8.019L6.676,16.317H17.923L16.58,10.045H15.435V9h1.991Z" transform="translate(-5.38 -9)" fill="#36512a" stroke="#e3e0d7" stroke-width="0.25"/>
            </g>
            <g id="Group_40887" data-name="Group 40887" transform="translate(18.687 9.165)">
              <path id="Path_35403" data-name="Path 35403" d="M24.258,17.362H21.274L18.29,9H20.6v1.045h-.826l2.242,6.272h2.242Z" transform="translate(-18.29 -9)" fill="#36512a" stroke="#e3e0d7" stroke-width="0.25"/>
            </g>
            <g id="Group_40888" data-name="Group 40888" transform="translate(8.147)">
              <path id="Subtraction_29" data-name="Subtraction 29" d="M-726.708-388.413h0l-.407-.5-.016-.021c-.627-.8-3.757-4.906-3.757-7.7a4.147,4.147,0,0,1,4.181-4.1,4.147,4.147,0,0,1,4.181,4.1c0,3-3.62,7.533-3.774,7.725l-.407.5Zm-.069-9.572a1.5,1.5,0,0,0-1.5,1.5,1.5,1.5,0,0,0,1.5,1.5,1.5,1.5,0,0,0,1.5-1.5A1.5,1.5,0,0,0-726.777-397.984Z" transform="translate(730.889 400.742)" fill="#36512a" stroke="#e3e0d7" stroke-width="0.25"/>
            </g>
          </g>
        </g>
      </g>
    </g>
  </g>
  <rect id="Rectangle_18503" data-name="Rectangle 18503" width="32" height="32" fill="none"/>
</svg>
