<svg xmlns="http://www.w3.org/2000/svg" width="40" height="40" viewBox="0 0 40 40">
  <g id="Agriculture" transform="translate(-118 -75)">
    <rect id="Rectangle_1" data-name="Rectangle 1" width="40" height="40" rx="4" transform="translate(118 75)" fill="rgba(3,112,4,0.2)"/>
    <path id="Agriculture-icon" d="M-947.8-1762.454v-2.389h3.487c-.33.882-.612,1.631-.9,2.389Zm14.359-.006v-9.67h2.172c.438,3.187.877,6.383,1.328,9.67Zm10.583-.006-.925-2.4h3.5v2.4Zm-15.257-.007c.435-3.238.859-6.405,1.3-9.673h2.177v9.673Zm9.213-.011-1.282-9.648h2.489c1.2,3.132,2.417,6.323,3.688,9.648Zm-15.162,0,3.675-9.652h2.5c-.436,3.246-.86,6.416-1.3,9.652Zm-3.743-3.557v-2.819h5.031l-1.074,2.819Zm23.586-.023-1.083-2.759h5.044v2.759Zm-23.61-3.957v-2.086h6.294c-.28.736-.531,1.394-.795,2.086Zm22.081-.007-.8-2.091h6.249v2.091Zm-15.781-7.751h1.091v3.195l-1.091.057Zm3.235-1.031.813-.682,2.186,2.479c-.137.156-.357.406-.563.642Zm-8.45,1.676,2.431-2.33.724.751-2.444,2.252Zm5.753-1.625a3.416,3.416,0,0,1-3.382-3.426,3.354,3.354,0,0,1,3.377-3.409,3.415,3.415,0,0,1,3.453,3.452,3.471,3.471,0,0,1-3.429,3.384Zm4.471-2.854v-1.127h3.159v1.127Zm-12.054-.038v-1.079h3.206v1.079Zm1.873-5.7.769-.59,2.266,2.363-.746.665Zm8.465,1.739,2.354-2.31.7.6-2.37,2.361Zm-3.3-.991v-3.2h1.092v3.2Z" transform="translate(1072.572 1870.806)" fill="#037004" stroke="rgba(0,0,0,0)" stroke-miterlimit="10" stroke-width="1"/>
  </g>
</svg>
