<svg xmlns="http://www.w3.org/2000/svg" width="32" height="32" viewBox="0 0 32 32">
  <g id="ApprovedLicense" transform="translate(-98 -566)">
    <rect id="Rectangle_150520" data-name="Rectangle 150520" width="32" height="32" rx="4" transform="translate(98 566)" fill="#009112" opacity="0.1"/>
    <path id="Union_57" data-name="Union 57" d="M-103.507-3113.874a.493.493,0,0,1-.493-.493v-23.14a.493.493,0,0,1,.493-.493h13.293v0a.49.49,0,0,1,.348.143l4.924,4.923a.5.5,0,0,1,.143.348h0v18.217a.493.493,0,0,1-.492.493Zm.492-.986h17.232v-17.232h-4.432a.492.492,0,0,1-.492-.492v-4.432h-12.308ZM-90.707-3116a2.909,2.909,0,0,1-1.126.24,2.057,2.057,0,0,1-1.8-.961,2.449,2.449,0,0,1-.076-2.282,2.455,2.455,0,0,1,.076-2.285,2.055,2.055,0,0,1,1.8-.958,2.9,2.9,0,0,1,1.128.24,2.905,2.905,0,0,1,1.129-.24,2.053,2.053,0,0,1,1.8.958A2.457,2.457,0,0,1-87.7-3119a2.455,2.455,0,0,1-.076,2.282,2.06,2.06,0,0,1-1.8.961A2.91,2.91,0,0,1-90.707-3116Zm-.985-1.772h1.97v-.986h-1.97Zm.492-1.478h.985v-.985H-91.2Zm-5.7,3.4v-.986h.985v.986Zm-1.408,0v-.986h.985v.986Zm-3.519,0v-.986h.986v.986Zm0-1.689v-.985h5.911v.985Zm13.793-6.193v-.985h.985v.985Zm-1.408,0v-.985h.985v.985Zm-12.386,0v-.985h11.823v.985Zm0-1.97v-.986H-87.05v.986Zm0-1.97v-.986H-87.05v.986Zm3.519-1.971v-.986h7.881v.986Zm-3.519-3.941v-.985h5.911v.985Zm0-1.407v-.985h2.956v.985Z" transform="translate(208 3708)" fill="#009112"/>
  </g>
</svg>
