<svg xmlns="http://www.w3.org/2000/svg" width="32" height="32" viewBox="0 0 32 32">
  <g id="ApprovedNOCs_" data-name="ApprovedNOCs " transform="translate(-98 -366)">
    <rect id="Rectangle_150509" data-name="Rectangle 150509" width="32" height="32" rx="4" transform="translate(98 366)" fill="#009112" opacity="0.1"/>
    <g id="license-svgrepo-com" transform="translate(102 372)">
      <path id="Union_61" data-name="Union 61" d="M-101.616-2921.656a.383.383,0,0,1-.383-.384v-2.861a.384.384,0,0,1,.383-.383.384.384,0,0,1,.383.383v2.479h19.417v-3.143a.384.384,0,0,1,.383-.384h3.143v-13.285h-22.943v11.88a.383.383,0,0,1-.383.383.383.383,0,0,1-.383-.383v-12.263a.384.384,0,0,1,.383-.384h23.71a.383.383,0,0,1,.382.384v14.052a.384.384,0,0,1-.112.271l-3.526,3.526a.386.386,0,0,1-.271.112Zm20.567-1.309,2.218-2.216h-2.218Zm-15.227-.709v-4.008h-.639a.383.383,0,0,1-.332-.192l-.661-1.144-1.144-.662a.382.382,0,0,1-.192-.331v-1.321l-.661-1.145a.382.382,0,0,1,0-.383l.661-1.145v-1.321a.383.383,0,0,1,.192-.332l1.144-.661.661-1.144a.383.383,0,0,1,.332-.192h1.321l1.144-.661a.384.384,0,0,1,.383,0l1.145.661H-91.6a.382.382,0,0,1,.331.192l.661,1.144,1.145.661a.383.383,0,0,1,.192.332V-2934l.661,1.144a.384.384,0,0,1,0,.384l-.661,1.145v1.321a.382.382,0,0,1-.192.331l-1.144.661-.661,1.145a.384.384,0,0,1-.332.192h-.639v4.008a.386.386,0,0,1-.613.306l-1.406-1.054-1.4,1.054a.373.373,0,0,1-.223.076A.387.387,0,0,1-96.277-2923.674Zm2.248-1.533,1.021.766v-3.192l-1.06.612a.386.386,0,0,1-.382,0l-1.061-.612v3.192l1.022-.766a.379.379,0,0,1,.229-.077A.383.383,0,0,1-94.028-2925.207Zm-3.267-10.638a.39.39,0,0,1-.14.14l-1.041.6v1.2a.386.386,0,0,1-.051.192l-.6,1.042.6,1.042a.385.385,0,0,1,.051.192v1.2l1.041.6a.384.384,0,0,1,.14.14l.6,1.041h1.2a.386.386,0,0,1,.192.052l1.041.6,1.042-.6a.383.383,0,0,1,.192-.052h1.2l.6-1.041a.378.378,0,0,1,.14-.14l1.041-.6v-1.2a.385.385,0,0,1,.051-.192l.6-1.042-.6-1.042a.384.384,0,0,1-.051-.192v-1.2l-1.041-.6a.383.383,0,0,1-.14-.14l-.6-1.042h-1.2a.383.383,0,0,1-.192-.051l-1.042-.6-1.041.6a.383.383,0,0,1-.192.051h-1.2Zm11.826,8.875a.384.384,0,0,1-.383-.383.384.384,0,0,1,.383-.384h3.679a.383.383,0,0,1,.382.384.383.383,0,0,1-.382.383Zm-12.852-5.7a4.067,4.067,0,0,1,4.063-4.063,4.066,4.066,0,0,1,4.062,4.063,4.066,4.066,0,0,1-4.062,4.062A4.066,4.066,0,0,1-98.321-2932.668Zm2.248.126v1.918a.384.384,0,0,0,.383.384h2.861a.384.384,0,0,0,.383-.384v-1.92l.176.16a.383.383,0,0,0,.257.1.384.384,0,0,0,.313-.158.387.387,0,0,0-.054-.508L-94-2935a.384.384,0,0,0-.257-.1.386.386,0,0,0-.258.1l-.789.718v-.026a.383.383,0,0,0-.383-.382.383.383,0,0,0-.383.382v.723l-.692.629a.389.389,0,0,0-.053.508.386.386,0,0,0,.313.158.379.379,0,0,0,.256-.1l.175-.158,0,0Zm12.811,2.711a.384.384,0,0,1-.383-.383.384.384,0,0,1,.383-.384h3.311a.384.384,0,0,1,.383.384.384.384,0,0,1-.383.383Zm-4.046,0a.384.384,0,0,1-.383-.383.384.384,0,0,1,.383-.384h2.575a.383.383,0,0,1,.383.384.383.383,0,0,1-.383.383Zm-7.334-1.175h-.663v-2.234l1.048-.952,1.052.957a.449.449,0,0,0,0,.058v2.17h-.664v-1.252a.384.384,0,0,0-.383-.383.384.384,0,0,0-.383.383v1.252h0Zm7.334-.869a.384.384,0,0,1-.383-.383.384.384,0,0,1,.383-.384h7.358a.383.383,0,0,1,.383.384.383.383,0,0,1-.383.383Zm5.518-2.044a.384.384,0,0,1-.383-.383.384.384,0,0,1,.383-.383h1.84a.384.384,0,0,1,.383.383.384.384,0,0,1-.383.383Zm-5.518,0a.384.384,0,0,1-.383-.383.384.384,0,0,1,.383-.383h4.046a.383.383,0,0,1,.383.383.383.383,0,0,1-.383.383Z" transform="translate(102 2940)" fill="#009112"/>
    </g>
  </g>
</svg>
