<svg id="Building-32px" xmlns="http://www.w3.org/2000/svg" width="32" height="32" viewBox="0 0 32 32">
  <g id="Building-32px-2" data-name="Building-32px" transform="translate(-939.654 -4658)">
    <rect id="Rectangle_18507" data-name="Rectangle 18507" width="32" height="32" transform="translate(939.654 4658)" fill="none"/>
    <g id="building-svgrepo-com" transform="translate(944.654 4662.867)">
      <g id="Group_165796" data-name="Group 165796" transform="translate(0 2.133)">
        <path id="Path_42927" data-name="Path 42927" d="M8.874,22.115c-.7,0-1.267.312-1.267.7,0,.008,0,.014,0,.022V26.1l2.51-.221V22.523a1.868,1.868,0,0,0-1.212-.408Z" transform="translate(-2.518 -8.747)" fill="#36512a"/>
        <path id="Path_42928" data-name="Path 42928" d="M19.989,4.65V3.322l-.015,0V3.256L15.319,2.134h-.005l-5.6,1.324V4.6l-1.236.274V5.71l.376-.07v7.781L7.6,13.449V6.983L4.137,6.531,0,7.437V18.916l4.77.562V16.23a.2.2,0,0,1,0-.033c0-.579.683-1.017,1.589-1.017H6.4A1.694,1.694,0,0,1,8.1,16.13h.021l0,.153v3.6l.725.088,5.9.715,1.054-.145V17.412l1.647-.1v3.029l1.121-.135V17.239l1.474-.086v2.878l.718-.087V5.831l.647.069V4.968ZM2.091,10l1.545-.177v.67l-1.545.151Zm-1.675.2,1.412-.161v.64l-1.412.137ZM1.84,16.15.4,16.086v-.617l1.44.041Zm0-1.108L.4,15.02V14.4l1.44,0Zm0-1.086-1.428.018v-.617l1.428-.042Zm0-1.073L.428,12.94v-.617l1.413-.081v.64Zm0-1.125-1.412.1v-.617l1.413-.122v.641Zm.013-2.152L.44,9.783V9.166l1.414-.2Zm0-1.038L.44,8.783V8.166l1.414-.238v.64Zm1.782,7.653-1.545-.069v-.645l1.545.041Zm0-1.16-1.545-.024v-.644l1.545,0Zm.014-1.137L2.1,13.944V13.3l1.546-.044Zm0-1.123L2.1,12.865V12.22l1.546-.088Zm0-1.179L2.1,11.73v-.645l1.546-.133Zm.014-2.253-1.547.194V8.919L3.664,8.7Zm0-1.086L2.117,8.52V7.875l1.547-.262Zm.7.379,1.376.1V9.4L4.361,9.322V8.663Zm.01,1.088,1.361.064v.635L4.371,10.41Zm.011,1.06,1.335.024v.636H4.382ZM4.4,11.9l1.335-.014v.636L4.4,12.562Zm1.341,1.63L4.4,13.607v-.658l1.334-.05Zm0-5.142L4.381,8.276v-.66l1.361.14Zm1.436,5.087-1.222.068v-.63l1.222-.048Zm.02-.984-1.243.035V11.9L7.2,11.884Zm-1.231-1v-.631l1.221.021v.61Zm1.242-.982L5.954,10.48V9.848l1.254.058ZM5.966,9.438V8.807L7.187,8.9v.61Zm1.242-.911L5.954,8.42V7.789l1.254.128ZM10.646,3.79l3-.673v.646l-3,.635ZM11.9,8.726l2.448-.288v.848L11.9,9.532Zm-2.6.315,2.187-.256v.8L9.3,9.8ZM11.5,16.425l-2.23-.093v-.764l2.23.055Zm0-1.386-2.23-.027v-.764l2.23-.011Zm0-1.357-2.211.034v-.764l2.211-.071Zm0-1.341-2.188.1v-.765L11.5,11.54Zm0-1.409-2.188.159v-.765l2.188-.2Zm.021-2.69-2.19.281V7.759l2.19-.318Zm0-1.3-2.19.341V6.52l2.19-.377Zm2.818,9.587-2.447-.1v-.808l2.447.06Zm0-1.467-2.447-.03v-.808l2.447-.011Zm.024-1.438-2.45.039v-.807l2.45-.08Zm0-1.42-2.45.106V11.5l2.45-.148Zm0-1.493-2.45.179v-.808l2.45-.219Zm.021-2.85-2.452.315V7.371l2.452-.356Zm0-1.374-2.452.381V6.062l2.452-.421Zm1.823-3.32,3.049.684v.013l.015,0v.613L16.231,3.84V3.825l-.018,0V3.169Zm4.1,8.464v.8l-2.166-.1V11.5Zm-2.146-.662v-.838l2.13.19v.8Zm-.019,2.719V12.85l2.131.07v.8Zm2.13.575v.8l-2.131.029v-.839ZM15.3,6.947l2.466.361v.846L15.3,7.835Zm.019,1.467,2.439.288v.846L15.315,9.3Zm.02,1.428,2.392.215V10.9l-2.392-.174Zm.027,1.474,2.39.147v.846l-2.39-.105Zm2.372,5.137-2.313.1v-.885l2.313-.055Zm0-1.367-2.362.031v-.886l2.362.01Zm.03-1.435-2.388-.039v-.886l2.388.08Zm.006-6.839-2.439-.383V5.542l2.439.426Zm2.548,9.56-2.172.092v-.839l2.172-.053Zm.015-6.534-2.187-.218V8.78l2.187.256Zm-2.167-1.6V7.4l2.13.31v.8Zm2.167-1.012-2.187-.343V6.046l2.187.381Z" transform="translate(0 -2.133)" fill="#36512a"/>
      </g>
    </g>
  </g>
</svg>
