<svg xmlns="http://www.w3.org/2000/svg" width="32" height="32" viewBox="0 0 32 32">
  <g id="Canceled-Permits" transform="translate(-98 -210)">
    <rect id="Rectangle_150507" data-name="Rectangle 150507" width="32" height="32" rx="4" transform="translate(98 210)" fill="#f75c46" opacity="0.1"/>
    <g id="Group_165964" data-name="Group 165964" transform="translate(103 215)">
      <g id="Group_41465" data-name="Group 41465" transform="translate(0 0)">
        <path id="Subtraction_32" data-name="Subtraction 32" d="M2.353,4.706A2.353,2.353,0,1,1,4.705,2.354,2.355,2.355,0,0,1,2.353,4.706ZM1.51,1.937a.319.319,0,0,0-.225.1.332.332,0,0,0,.026.492c.158.164.323.326.482.483l.058.057a.443.443,0,0,0,.3.165.449.449,0,0,0,.3-.166q.386-.375.768-.752l.04-.039.195-.191.08-.077a3.115,3.115,0,0,0,.225-.231.315.315,0,0,0-.02-.432.322.322,0,0,0-.431-.038,1.034,1.034,0,0,0-.125.113L3.14,1.46l-.282.275-.729.713-.084-.1L2.017,2.32l0,0c-.079-.091-.154-.176-.234-.255A.387.387,0,0,0,1.51,1.937Z" transform="translate(6.744 14.799)" fill="#f75c46"/>
        <path id="Path_36951" data-name="Path 36951" d="M3.8,1.6c0-.206,0-.4,0-.589A.979.979,0,0,1,4.8,0Q10.91,0,17.017,0a.968.968,0,0,1,1,.973c.006,2.115,0,4.23,0,6.346A.78.78,0,0,1,18,7.408l-.649-.28V6.882q0-2.873,0-5.746c0-.376-.1-.474-.48-.474H4.949c-.4,0-.49.091-.49.483q0,4.413,0,8.826,0,5.012,0,10.024c0,.426.085.511.5.511,1.957,0,3.913,0,5.87,0a.95.95,0,0,1,.748.232l.146.433H4.891A.981.981,0,0,1,3.8,20.082a6.5,6.5,0,0,0-.308-1.719Q1.777,10.969.043,3.578A.987.987,0,0,1,.865,2.261c.9-.2,1.8-.4,2.7-.607.067-.015.133-.032.23-.056" transform="translate(0.001 0)" fill="#f75c46"/>
        <path id="Path_36952" data-name="Path 36952" d="M274.518,192.97c.134-1.1.175-1.165.8-1.337a5.744,5.744,0,0,0-.384-1.508,3.582,3.582,0,0,0-.617-1.06,3.029,3.029,0,0,1-.268-3.546,3.069,3.069,0,1,1,4.869,3.686,1.6,1.6,0,0,0-.218.346,6.412,6.412,0,0,0-.623,1.96c-.006.04-.009.08-.013.126.768.133.773.718.785,1.323.075,0,.147.01.219.01.517,0,1.033,0,1.55,0a.989.989,0,0,1,1.034,1.024c0,.468,0,.937,0,1.406,0,.758-.237,1.059-.993,1.234,0,.1,0,.2,0,.3a.649.649,0,0,1-.669.666q-3.3,0-6.593,0a.651.651,0,0,1-.674-.681c0-.1,0-.19,0-.28a2.979,2.979,0,0,1-.373-.106.944.944,0,0,1-.616-.9c-.011-.558-.008-1.116,0-1.674a.982.982,0,0,1,1-.989c.517,0,1.033,0,1.55,0h.235m.663.662c-.8,0-1.588,0-2.373,0-.3,0-.417.117-.418.41q0,.744,0,1.488c0,.3.117.415.412.415q3.886,0,7.771,0c.294,0,.411-.12.412-.417,0-.482,0-.964,0-1.447,0-.346-.108-.45-.462-.451H278.2a5.88,5.88,0,0,0-.1-1.315h-.748a.247.247,0,0,1-.018-.058,7.511,7.511,0,0,1,.81-3.072,2.4,2.4,0,0,1,.313-.454,2.386,2.386,0,0,0,.6-1.91,2.4,2.4,0,0,0-4.435-.961,2.336,2.336,0,0,0,.217,2.788,3.629,3.629,0,0,1,.631,1.026,7.555,7.555,0,0,1,.587,2.649h-.778a7.236,7.236,0,0,0-.092,1.308" transform="translate(-260.49 -176.433)" fill="#f75c46"/>
        <path id="Path_36953" data-name="Path 36953" d="M161.029,345.539l-.578.276a2.168,2.168,0,0,0-1.54-1.253,2.07,2.07,0,0,0-1.6.294,2.147,2.147,0,0,0-.685,2.908,2.174,2.174,0,0,0,3.16.616v.752a2.8,2.8,0,1,1,1.246-3.593" transform="translate(-149.215 -329.631)" fill="#f75c46"/>
        <path id="Path_36954" data-name="Path 36954" d="M160.324,56.651h-4.006a1.124,1.124,0,0,1-.185-.007.326.326,0,0,1-.274-.337.317.317,0,0,1,.278-.312.981.981,0,0,1,.185-.006h7.992a1.537,1.537,0,0,1,.165,0,.329.329,0,0,1,0,.656,1.366,1.366,0,0,1-.144,0h-4.006" transform="translate(-149.415 -53.674)" fill="#f75c46"/>
        <path id="Path_36955" data-name="Path 36955" d="M160.314,88.645h-3.986a1.52,1.52,0,0,1-.186,0,.329.329,0,0,1,.005-.655,1.4,1.4,0,0,1,.165,0H164.3a1.491,1.491,0,0,1,.165,0,.329.329,0,0,1-.005.656c-.061.006-.124,0-.186,0h-3.965" transform="translate(-149.405 -84.345)" fill="#f75c46"/>
        <path id="Path_36956" data-name="Path 36956" d="M160.324,120.658h-4.006a1.113,1.113,0,0,1-.185-.007.325.325,0,0,1-.273-.337.318.318,0,0,1,.279-.311A.868.868,0,0,1,156.3,120h8.033a1.283,1.283,0,0,1,.144,0,.329.329,0,0,1-.006.656,1.64,1.64,0,0,1-.165,0h-3.986" transform="translate(-149.415 -115.035)" fill="#f75c46"/>
        <path id="Path_36957" data-name="Path 36957" d="M160.313,152.644h-3.986a1.438,1.438,0,0,1-.186,0,.329.329,0,0,1,.009-.654,1.433,1.433,0,0,1,.165,0h7.992c.048,0,.1,0,.145,0a.329.329,0,0,1,.011.657c-.055.005-.11,0-.165,0h-3.986" transform="translate(-149.406 -145.699)" fill="#f75c46"/>
        <path id="Path_36958" data-name="Path 36958" d="M163.427,184l-.711.661h-6.392a1.621,1.621,0,0,1-.165,0,.329.329,0,0,1,0-.657.931.931,0,0,1,.1,0h7.167Z" transform="translate(-149.407 -176.396)" fill="#f75c46"/>
        <path id="Path_36959" data-name="Path 36959" d="M162.59,312l.482.606-.044.056h-6.7c-.322,0-.474-.1-.478-.325s.158-.337.488-.337h6.257" transform="translate(-149.403 -299.105)" fill="#f75c46"/>
        <path id="Path_36960" data-name="Path 36960" d="M162.274,216.016l-.275.651h-5.7a1.163,1.163,0,0,1-.165,0,.329.329,0,0,1,0-.652.871.871,0,0,1,.124,0h5.848c.047,0,.095.005.164.01" transform="translate(-149.406 -207.076)" fill="#f75c46"/>
        <path id="Path_36961" data-name="Path 36961" d="M161.955,280l.225.642c-.082,0-.147.011-.213.011h-5.661c-.034,0-.069,0-.1,0a.331.331,0,1,1,.01-.659c.379,0,.757,0,1.136,0h4.439c.055,0,.109,0,.168.007" transform="translate(-149.405 -268.414)" fill="#f75c46"/>
        <path id="Path_36962" data-name="Path 36962" d="M161.872,248.03v.655h-.808l-4.809-.006c-.239,0-.4-.134-.394-.323.006-.208.145-.332.389-.332q2.376,0,4.751.006h.871" transform="translate(-149.418 -237.771)" fill="#f75c46"/>
        <path id="Path_36964" data-name="Path 36964" d="M351.91,221.564a1.651,1.651,0,0,1,1.626-1.573.332.332,0,1,1,.012.662l-.041,0a1,1,0,0,0-.942.95c-.019.24-.153.382-.349.369s-.314-.167-.306-.411" transform="translate(-337.362 -210.896)" fill="#f75c46"/>
        <path id="Path_36965" data-name="Path 36965" d="M303.815,432.539c0-.332.108-.486.339-.479s.322.154.323.478c0,.062,0,.124,0,.185a.329.329,0,0,1-.659,0c0-.061,0-.123,0-.185" transform="translate(-291.254 -414.198)" fill="#f75c46"/>
        <path id="Path_36966" data-name="Path 36966" d="M335.815,432.559c0-.062-.005-.124,0-.185a.32.32,0,0,1,.323-.309.317.317,0,0,1,.332.3,2.286,2.286,0,0,1,0,.349.33.33,0,1,1-.66-.01c0-.048,0-.1,0-.144Z" transform="translate(-321.931 -414.204)" fill="#f75c46"/>
        <path id="Path_36967" data-name="Path 36967" d="M368.428,432.568c0,.048,0,.1,0,.144a.33.33,0,1,1-.659,0,2.951,2.951,0,0,1,0-.308.324.324,0,0,1,.332-.343.327.327,0,0,1,.328.347c0,.055,0,.11,0,.164" transform="translate(-352.561 -414.195)" fill="#f75c46"/>
        <path id="Path_36968" data-name="Path 36968" d="M400.411,432.554a1.4,1.4,0,0,1-.014.225.327.327,0,0,1-.645-.014,2.207,2.207,0,0,1,0-.39.319.319,0,0,1,.335-.317.323.323,0,0,1,.321.311,1.761,1.761,0,0,1,0,.185h.006" transform="translate(-383.217 -414.196)" fill="#f75c46"/>
        <path id="Path_36969" data-name="Path 36969" d="M432.456,432.562c0,.335-.1.487-.334.484s-.327-.151-.327-.493c0-.055,0-.11,0-.164a.329.329,0,0,1,.659-.012c.006.061,0,.123,0,.185" transform="translate(-413.944 -414.198)" fill="#f75c46"/>
        <path id="Path_36970" data-name="Path 36970" d="M464.4,432.56a1.384,1.384,0,0,1,0,.205.328.328,0,0,1-.652-.023,2.362,2.362,0,0,1,0-.37.317.317,0,0,1,.318-.313.323.323,0,0,1,.338.315c.006.061,0,.123,0,.185h0" transform="translate(-444.568 -414.198)" fill="#f75c46"/>
      </g>
    </g>
  </g>
</svg>
