<svg id="Cemeteries" xmlns="http://www.w3.org/2000/svg" width="32" height="32" viewBox="0 0 32 32">
  <g id="Group_41595" data-name="Group 41595" transform="translate(4 4)">
    <path id="Path_37848" data-name="Path 37848" d="M12.516,0c.41.089.827.156,1.229.272a5.565,5.565,0,0,1,2.3,1.352c.611.581,1.217,1.169,1.836,1.742a.671.671,0,0,0,.364.144c.239.026.487-.009.724.027a1.743,1.743,0,0,1,1.516,1.8q0,4.37,0,8.74v4.911c.12,0,.233,0,.347,0a1.767,1.767,0,0,1,1.689,1.248.346.346,0,0,0,.169.208,1.78,1.78,0,0,1,1.277,1.367.508.508,0,0,0,.035.084v1.875a.514.514,0,0,1-.494.238Q12,24,.494,24C.112,24,0,23.892,0,23.518c0-.445,0-.891,0-1.336a1.771,1.771,0,0,1,1.263-1.725.366.366,0,0,0,.205-.2,1.776,1.776,0,0,1,1.743-1.272h.3v-.291q0-6.667,0-13.334A1.748,1.748,0,0,1,5.031,3.538a3.509,3.509,0,0,1,.7-.017.53.53,0,0,0,.429-.177c.548-.535,1.109-1.055,1.658-1.589A5.934,5.934,0,0,1,11.376.038.532.532,0,0,0,11.485,0Zm9.293,20.39a1.043,1.043,0,0,0-1.107-.7H4.111c-.313,0-.625,0-.937,0a1.054,1.054,0,0,0-1.061.982c-.029.318-.107.395-.437.426a1,1,0,0,0-.938.841,11.676,11.676,0,0,0-.011,1.341H23.3v-.954a1.083,1.083,0,0,0-1.237-1.231H3.406c-.07,0-.141,0-.211,0a.352.352,0,1,1-.01-.7c.07,0,.141,0,.211,0H21.809Zm-2.028-1.417V5.379c0-.047,0-.094,0-.141a1.055,1.055,0,0,0-1.026-1.017,6.293,6.293,0,0,0-.656,0,.727.727,0,0,1-.6-.236q-.97-.952-1.964-1.879a5.079,5.079,0,0,0-6.613-.353A18.737,18.737,0,0,0,6.894,3.632a1.737,1.737,0,0,1-1.5.6A1.034,1.034,0,0,0,4.22,5.393q0,6.667,0,13.333v.248Z" transform="translate(0 -0.001)" fill="#36512a"/>
    <path id="Subtraction_12" data-name="Subtraction 12" d="M6.726,17.043H.478c-.38,0-.478-.1-.478-.5C0,12.4,0,8.193,0,4.048a.553.553,0,0,1,.1-.39.48.48,0,0,1,.366-.1H.474c.1,0,.213.008.319.017H.8c.1.008.213.016.316.016a1.009,1.009,0,0,0,.406-.069A1.81,1.81,0,0,0,2.1,3.006h0c.073-.085.148-.172.226-.25.244-.246.491-.5.73-.74L3.1,1.972l0,0,.642-.652A4.544,4.544,0,0,1,5.171.329,3.9,3.9,0,0,1,8.3.325,4.536,4.536,0,0,1,9.715,1.3c.709.712,1.4,1.417,2.063,2.094a.45.45,0,0,0,.346.163h.024c.119,0,.246-.007.4-.007l.326,0,.19,0c.294,0,.414.126.414.426,0,4.192,0,8.444,0,12.636,0,.306-.122.425-.437.426ZM4.673,5.184H3.125c-.334,0-.447.118-.447.464,0,.871,0,1.754,0,2.625,0,.339.112.459.426.459h7.27c.313,0,.425-.121.425-.46,0-.636,0-1.277,0-1.9q0-.317,0-.633c0-.469-.082-.557-.516-.557H4.673ZM10.123,8H3.361V5.913h6.762V8Z" transform="translate(5.262 1.498)" fill="#36512a" stroke="rgba(0,0,0,0)" stroke-miterlimit="10" stroke-width="1"/>
    <path id="Path_37851" data-name="Path 37851" d="M50.367,41.845H47.89c-.075,0-.151,0-.225-.005a.356.356,0,0,1-.352-.354.364.364,0,0,1,.348-.384,1.733,1.733,0,0,1,.225-.008h4.955c.4,0,.586.127.579.388s-.182.363-.575.363H50.367" transform="translate(-38.365 -33.168)" fill="#36512a"/>
  </g>
  <rect id="Rectangle_18604" data-name="Rectangle 18604" width="32" height="32" fill="none"/>
</svg>
