<svg xmlns="http://www.w3.org/2000/svg" width="40" height="40" viewBox="0 0 40 40">
  <g id="Commercial_Services" data-name="Commercial Services" transform="translate(-118 -135)">
    <rect id="Rectangle_1" data-name="Rectangle 1" width="40" height="40" rx="4" transform="translate(118 135)" fill="rgba(253,0,0,0.2)"/>
    <path id="Commercial-icon" d="M-157.716-1848.667v-15h25.333v15Zm13.625-1.334h4v-6.757h-4Zm-5.917,0h4v-6.757h-4Zm12-4.091h4v-2.666h-4Zm-18.085,0h4v-2.666h-4Zm18.085-4.667h4v-2.667h-4Zm-6.084,0h4v-2.667h-4Zm-5.909,0h4v-2.667h-4Zm-6.091,0h4v-2.667h-4Zm-.958-6.575a.977.977,0,0,1-.951-1,.977.977,0,0,1,.951-1h3.883v-2h-1.5V-1876H-136v6.666h-1.5v2h4.549a.977.977,0,0,1,.951,1,.976.976,0,0,1-.951,1Zm5.882-2H-139.5v-2h-11.667Z" transform="translate(283 2017)" fill="#fd0000" stroke="rgba(0,0,0,0)" stroke-miterlimit="10" stroke-width="1"/>
  </g>
</svg>
