<svg id="Component_110" data-name="Component 110" xmlns="http://www.w3.org/2000/svg" width="32" height="32" viewBox="0 0 32 32">
  <g id="Group_41589" data-name="Group 41589" transform="translate(-454.395 -6992.619)">
    <path id="Subtraction_26" data-name="Subtraction 26" d="M-247.96,6439.756H-248l-.029-.022a.606.606,0,0,0-.1-.07l-1.3-.622c-1.8-.866-4.05-1.944-6.175-2.968a.366.366,0,0,0-.162-.042.382.382,0,0,0-.167.044c-2.552,1.229-5.127,2.463-7.341,3.524a1.977,1.977,0,0,0-.185.106l0,0-.076.046h-.044c0-.035-.005-.071-.009-.105-.005-.055-.011-.109-.011-.163v-22.869h15.665v22.891a1.378,1.378,0,0,1-.012.157c0,.029-.007.058-.009.087Zm-7.8-19.144q-.222.413-.438.813c-.372.688-.724,1.339-1.069,2.007a.712.712,0,0,1-.525.414c-.713.157-1.417.324-2.162.5l-.045.011-.729.173c.18.22.354.438.508.632l.009.011c.363.457.706.887,1.082,1.286a1.723,1.723,0,0,1,.545,1.786,1.77,1.77,0,0,0-.045.386c0,.058-.005.117-.01.175l-.078.88-.106,1.187.1-.044.042-.018c.092-.04.172-.074.249-.111l.627-.3.056-.027c.563-.272,1.146-.554,1.725-.814a.694.694,0,0,1,.274-.053.691.691,0,0,1,.27.052c.562.251,1.128.525,1.674.789l.016.008.655.315c.1.048.208.1.3.137l.118.053c0-.057,0-.108,0-.156a2.314,2.314,0,0,0,0-.261l-.038-.413c-.065-.71-.132-1.445-.216-2.167a1.2,1.2,0,0,1,.3-1.044c.432-.479.846-.993,1.247-1.49l.019-.024q.212-.263.426-.525a1.3,1.3,0,0,0,.1-.152c.019-.032.039-.066.063-.1l-.638-.15-.034-.008c-.793-.186-1.543-.362-2.3-.558a.733.733,0,0,1-.41-.325c-.342-.607-.685-1.25-.987-1.818q-.181-.34-.362-.679c-.04-.075-.083-.148-.132-.234l-.011-.02Z" transform="translate(726.167 580)" fill="rgba(54,81,42,0.25)" stroke="#36512a" stroke-miterlimit="10" stroke-width="1"/>
  </g>
  <rect id="Rectangle_18605" data-name="Rectangle 18605" width="32" height="32" fill="none"/>
  <path id="Path_42932" data-name="Path 42932" d="M323.538,30.4c.323.394.6.774.919,1.109a1,1,0,0,1,.313,1.027,1.867,1.867,0,0,0-.032.322c-.035.386-.069.772-.106,1.189.094-.041.161-.068.226-.1.461-.221.919-.449,1.385-.658a.419.419,0,0,1,.313,0c.454.2.9.425,1.349.64.076.036.154.069.242.109,0-.1.006-.17,0-.24-.046-.5-.088-.991-.146-1.484a.692.692,0,0,1,.172-.6c.339-.377.651-.78.973-1.174a1.647,1.647,0,0,0,.094-.146c-.586-.139-1.15-.267-1.711-.412a.424.424,0,0,1-.236-.187c-.267-.473-.519-.956-.776-1.436-.034-.064-.072-.127-.121-.213-.3.563-.591,1.089-.867,1.622a.41.41,0,0,1-.3.238c-.551.121-1.1.255-1.689.395" transform="translate(-310.389 -17.797)" fill="#36512a"/>
</svg>
