<svg id="Component_83_2" data-name="Component 83 – 2" xmlns="http://www.w3.org/2000/svg" width="32" height="32" viewBox="0 0 32 32">
  <path id="Path" d="M0,10.149V0H9.066a18.032,18.032,0,0,0,.278,3.256c1,5.561,4.025,3.729,5.863,9.224.818,2.442.219,4.565,2.045,7.911H0Z" transform="translate(3.75 5.491)" fill="#c3c7b9"/>
  <g id="Group" transform="translate(3.692 5.539)">
    <g id="Shape" transform="translate(0.058 0)" fill="#36512a" stroke-miterlimit="10">
      <path d="M24.557,20.344H18.663V19.53h4.912V6.486a14.583,14.583,0,0,0-8.391,2.72,6.116,6.116,0,0,0-.446-.759,15.908,15.908,0,0,1,8.837-2.776V.814H10.814c0-.024,0-.047,0-.07S10.8.676,10.8.64c-.008-.151,0-.3,0-.45,0-.064,0-.127,0-.19H24.557V20.343Zm-7.858,0H14.735V19.53H16.7v.813Zm-3.929,0H10.8V19.53H12.77v.813Zm-3.93,0H8.116a.055.055,0,0,1,0-.014.045.045,0,0,0,0-.016l-.461-.784H8.841v.813Zm5.973-2.462h0c-.139-.547-.227-1.082-.335-1.778l.974-.1c.1.65.188,1.189.323,1.714l-.961.168Zm-.571-3.547h0a8.271,8.271,0,0,0-.361-1.67l.949-.212a9.02,9.02,0,0,1,.391,1.805l-.978.078Zm-1.034-3.3h0A6.235,6.235,0,0,0,12.225,9.6l.783-.491a6.984,6.984,0,0,1,1.108,1.622l-.907.309ZM10.83,8.331A7.856,7.856,0,0,1,9.449,6.867l.85-.409a6.864,6.864,0,0,0,1.238,1.307l-.707.565ZM.982,8.137H0V6.51H.982V8.137ZM8.59,5.147h0a11.6,11.6,0,0,1-.45-1.78l.972-.118a10.953,10.953,0,0,0,.422,1.674l-.943.224ZM.982,4.883H0V3.255H.982V4.882Zm0-3.255H0V0H1.964V.814H.982v.813Zm6.932-.053h0C7.909,1.508,7.9,1.444,7.9,1.38c-.015-.172-.031-.35-.039-.567-.01-.292,0-.809,0-.814h.982c0,.007-.01.444,0,.728.008.237.026.454.044.664l.01.127-.979.055ZM5.894.814H3.93V0H5.894V.813Z" stroke="none"/>
      <path d="M 24.55725479125977 20.34376335144043 L 18.66326522827148 20.34376335144043 L 18.66326522827148 19.53010368347168 L 23.57506370544434 19.53010368347168 L 23.57506370544434 6.48586368560791 C 20.47760391235352 6.533433437347412 17.4974250793457 7.499143600463867 15.18451499938965 9.205893516540527 C 15.05558490753174 8.945483207702637 14.90590476989746 8.690303802490234 14.73806476593018 8.44715404510498 C 17.20246505737305 6.710173606872559 20.34076499938965 5.724783420562744 23.57506370544434 5.671473503112793 L 23.57506370544434 0.8136636018753052 L 10.81374454498291 0.8136636018753052 C 10.81230449676514 0.7895035743713379 10.81057453155518 0.7663435935974121 10.80885410308838 0.7432636022567749 C 10.80631446838379 0.7094835638999939 10.80382442474365 0.6760736107826233 10.80225467681885 0.6400935649871826 C 10.79418468475342 0.4888935685157776 10.79750442504883 0.3370135724544525 10.80071449279785 0.1901335865259171 C 10.80210494995117 0.1265835762023926 10.80349445343018 0.06335358321666718 10.8040246963501 3.583068746593199e-06 L 24.55725479125977 3.583068746593199e-06 L 24.55725479125977 20.34376335144043 Z M 16.69889450073242 20.34376335144043 L 14.73452472686768 20.34376335144043 L 14.73452472686768 19.53010368347168 L 16.69889450073242 19.53010368347168 L 16.69889450073242 20.34376335144043 Z M 12.77015495300293 20.34376335144043 L 10.80490493774414 20.34376335144043 L 10.80490493774414 19.53010368347168 L 12.77015495300293 19.53010368347168 L 12.77015495300293 20.34376335144043 Z M 8.840534210205078 20.34376335144043 L 8.115614891052246 20.34376335144043 C 8.113584518432617 20.33902359008789 8.112854957580566 20.33447265625 8.112164497375488 20.33006286621094 C 8.111334800720215 20.3248233795166 8.110504150390625 20.3195743560791 8.107654571533203 20.31447410583496 L 7.64618444442749 19.53010368347168 L 8.840534210205078 19.53010368347168 L 8.840534210205078 20.34376335144043 Z M 14.81320476531982 17.88153266906738 L 14.81300449371338 17.8807430267334 C 14.67379474639893 17.33370399475098 14.58640480041504 16.79870414733887 14.47815418243408 16.10261344909668 L 15.45237445831299 15.99935340881348 C 15.55312442779541 16.64980316162109 15.64006423950195 17.18852424621582 15.77505493164062 17.71309280395508 L 14.81320476531982 17.88153266906738 Z M 14.24210453033447 14.33466339111328 L 14.24201488494873 14.33385372161865 C 14.18144416809082 13.7736234664917 14.06012439727783 13.21160316467285 13.88141441345215 12.66340351104736 L 14.83000469207764 12.45102405548096 C 15.02289485931396 13.04256343841553 15.15395450592041 13.64975357055664 15.22075462341309 14.25631332397461 L 14.24210453033447 14.33466339111328 Z M 13.20777416229248 11.03901386260986 L 13.20740413665771 11.03826332092285 C 12.95657444000244 10.52631378173828 12.62595462799072 10.04213333129883 12.22469425201416 9.599173545837402 L 13.00796413421631 9.107753753662109 C 13.4614143371582 9.607403755187988 13.83364486694336 10.15313339233398 14.11568450927734 10.72995376586914 L 13.20777416229248 11.03901386260986 Z M 10.82966423034668 8.331433296203613 C 10.29744434356689 7.892743587493896 9.832854270935059 7.399933815002441 9.448764801025391 6.866693496704102 L 10.29922485351562 6.458033561706543 C 10.64366436004639 6.936293601989746 11.0596342086792 7.375773429870605 11.53690433502197 7.764583587646484 L 10.82966423034668 8.331433296203613 Z M 0.9821845293045044 8.137363433837891 L 4.53460688731866e-06 8.137363433837891 L 4.53460688731866e-06 6.51003360748291 L 0.9821845293045044 6.51003360748291 L 0.9821845293045044 8.137363433837891 Z M 8.590354919433594 5.147093772888184 L 8.58946418762207 5.147093772888184 C 8.391864776611328 4.56390380859375 8.240784645080566 3.965093612670898 8.139484405517578 3.366703510284424 L 9.111944198608398 3.248793601989746 C 9.206934928894043 3.811253547668457 9.348424911499023 4.374293804168701 9.533634185791016 4.922993659973145 L 8.590354919433594 5.147093772888184 Z M 0.9821845293045044 4.882713794708252 L 4.53460688731866e-06 4.882713794708252 L 4.53460688731866e-06 3.254653692245483 L 0.9821845293045044 3.254653692245483 L 0.9821845293045044 4.882713794708252 Z M 0.9821845293045044 1.627323627471924 L 4.53460688731866e-06 1.627323627471924 L 4.53460688731866e-06 3.583068746593199e-06 L 1.964364528656006 3.583068746593199e-06 L 1.964364528656006 0.8136636018753052 L 0.9821845293045044 0.8136636018753052 L 0.9821845293045044 1.627323627471924 Z M 7.914054393768311 1.573853611946106 L 7.913984298706055 1.573053598403931 C 7.908744335174561 1.507863640785217 7.903064727783203 1.444243550300598 7.897364616394043 1.38028359413147 C 7.881954669952393 1.207943558692932 7.866094589233398 1.030573606491089 7.858354568481445 0.8136636018753052 C 7.847914695739746 0.5217036008834839 7.8582444190979 0.005133583210408688 7.858354568481445 3.583068746593199e-06 L 8.840534210205078 3.583068746593199e-06 C 8.840404510498047 0.00663358299061656 8.830814361572266 0.4437635838985443 8.840534210205078 0.7279735803604126 C 8.848634719848633 0.9652835726737976 8.866634368896484 1.182313561439514 8.884054183959961 1.392183542251587 L 8.894464492797852 1.518933534622192 L 7.914054393768311 1.573853611946106 Z M 5.893984317779541 0.8136636018753052 L 3.929624557495117 0.8136636018753052 L 3.929624557495117 3.583068746593199e-06 L 5.893984317779541 3.583068746593199e-06 L 5.893984317779541 0.8136636018753052 Z" stroke="none" fill="#848f6c"/>
    </g>
  </g>
  <g id="Group-2" data-name="Group" transform="translate(-10.068 30.539)">
    <path id="Shape-2" data-name="Shape" d="M16.7,20.344H14.735V19.53H16.7v.813Zm-3.929,0H10.805V19.53H12.77v.813Zm-3.929,0H8.116a.046.046,0,0,1,0-.016.052.052,0,0,0,0-.014l-.462-.784H8.841v.813Zm5.972-2.462h0c-.139-.546-.223-1.058-.335-1.778l.974-.1c.1.669.187,1.184.322,1.714l-.96.168Zm-.571-3.546h0a8.357,8.357,0,0,0-.361-1.67l.948-.212a8.972,8.972,0,0,1,.392,1.8l-.977.079Zm-1.034-3.3h0a6.28,6.28,0,0,0-.983-1.44l.783-.491a7.005,7.005,0,0,1,1.108,1.623l-.906.309ZM10.829,8.331h0A7.8,7.8,0,0,1,9.449,6.866l.851-.409a6.863,6.863,0,0,0,1.238,1.307l-.707.566ZM.983,8.138H0V6.51H.983V8.137ZM8.591,5.147h0a11.629,11.629,0,0,1-.45-1.78l.972-.119a11.062,11.062,0,0,0,.421,1.675l-.942.224ZM.983,4.883H0V3.255H.983V4.881Zm0-3.255H0V0H1.965V.814H.983v.813Zm6.932-.053h0C7.909,1.511,7.9,1.45,7.9,1.388c-.016-.174-.032-.355-.04-.575-.011-.292,0-.808,0-.814h.982c0,.007-.01.449,0,.728.009.247.027.471.045.688l.009.1-.979.055ZM5.894.814H3.929V0H5.894V.813Z" transform="translate(14.058 -25)" fill="#848f6c"/>
  </g>
  <rect id="Rectangle_18508" data-name="Rectangle 18508" width="32" height="32" fill="none"/>
  <path id="Path-2" data-name="Path" d="M.005.64c0,.06.008.114.012.173H12.778V5.672A15.854,15.854,0,0,0,3.941,8.447a6.127,6.127,0,0,1,.446.758,14.577,14.577,0,0,1,8.391-2.72V19.53H7.866v.814H13.76V0H.007C.005.213-.007.425.005.64Z" transform="translate(14.548 5.491)" fill="#36512a"/>
</svg>
