<svg xmlns="http://www.w3.org/2000/svg" width="40" height="40" viewBox="0 0 40 40">
  <g id="Cultural_Services" data-name="Cultural Services" transform="translate(-118 -195)">
    <rect id="Rectangle_1" data-name="Rectangle 1" width="40" height="40" rx="4" transform="translate(118 195)" fill="rgba(165,147,29,0.2)"/>
    <path id="Cultural-icon" d="M28.763,19.954V16.962l-1.373-.978h-.832V13.433l-3.431-.389V10.988l-2.007-.194V9.662l-1.816-.1V8.488l-1.663-.146V5.154L15.337,3.147,9.9,4.125v4.8l-.686.734L6.47,9.52,5.049,11.328v.491l-2.991-.244-.979,1.519v4.46L0,18.53v5.147H16.293V19.266a2.038,2.038,0,0,1,2.181-2.029,1.951,1.951,0,0,1,2.1,2.029v4.412h9.739V19.954ZM8.178,19.926l-7.762.079V18.737L1.481,17.8V13.206l.611-.94v1.673l4.438-.48V11.911l4.286-.483V9.982l1.115-1.063v2.434L13.4,10.209v5.075l-5.226-.328ZM14.241,23.5H8.209v-.513h6.031Zm0-.914H8.209v-.513h6.031Zm0-.914H8.209v-.513h6.031Zm0-.909H8.209v-.516h6.031Zm.378-12.881-3.763-.42V9.589l-.471-.078V4.5l4.234-.732V7.877Zm3.627,5.313-1.063-.036v-1.4l.5-.28.558.407,0,1.306Zm1.464.076-1.045-.036V11.863l.5-.274.547.4v1.279ZM29.964,23.435l-3.342.019.019-.529,3.344-.022Zm0-.889-3.342.017.019-.53,3.344-.022Zm0-.9-3.342.019.019-.532,3.344-.022Zm0-.891-3.342.016.019-.532,3.344-.019Z" transform="translate(123 201.853)" fill="#a58f00"/>
  </g>
</svg>
