<svg xmlns="http://www.w3.org/2000/svg" xmlns:xlink="http://www.w3.org/1999/xlink" width="58" height="58" viewBox="0 0 58 58">
  <defs>
    <filter id="Rectangle_1" x="0" y="0" width="58" height="58" filterUnits="userSpaceOnUse">
      <feOffset dy="3" input="SourceAlpha"/>
      <feGaussianBlur stdDeviation="3" result="blur"/>
      <feFlood flood-opacity="0.161"/>
      <feComposite operator="in" in2="blur"/>
      <feComposite in="SourceGraphic"/>
    </filter>
  </defs>
  <g id="Group_165969" data-name="Group 165969" transform="translate(-109 -189)">
    <g transform="matrix(1, 0, 0, 1, 109, 189)" filter="url(#Rectangle_1)">
      <g id="Rectangle_1-2" data-name="Rectangle 1" transform="translate(9 6)" fill="#a5931d" stroke="#ede9df" stroke-width="2">
        <rect width="40" height="40" rx="20" stroke="none"/>
        <rect x="1" y="1" width="38" height="38" rx="19" fill="none"/>
      </g>
    </g>
    <g id="museum-of-islam-svgrepo-com" transform="translate(123 205)">
      <path id="Path_42842" data-name="Path 42842" d="M28.763,19.954V16.962l-1.373-.978h-.832V13.433l-3.431-.389V10.988l-2.007-.194V9.662l-1.816-.1V8.488l-1.663-.146V5.154L15.337,3.147,9.9,4.125v4.8l-.686.734L6.47,9.52,5.049,11.328v.491l-2.991-.244-.979,1.519v4.46L0,18.53v5.147H16.293V19.266a2.038,2.038,0,0,1,2.181-2.029,1.951,1.951,0,0,1,2.1,2.029v4.412h9.739V19.954ZM8.178,19.926l-7.762.079V18.737L1.481,17.8V13.206l.611-.94v1.673l4.438-.48V11.911l4.286-.483V9.982l1.115-1.063v2.434L13.4,10.209v5.075l-5.226-.328ZM14.241,23.5H8.209v-.513h6.031Zm0-.914H8.209v-.513h6.031Zm0-.914H8.209v-.513h6.031Zm0-.909H8.209v-.516h6.031Zm.378-12.881-3.763-.42V9.589l-.471-.078V4.5l4.234-.732V7.877Zm3.627,5.313-1.063-.036v-1.4l.5-.28.558.407,0,1.306Zm1.464.076-1.045-.036V11.863l.5-.274.547.4v1.279ZM29.964,23.435l-3.342.019.019-.529,3.344-.022Zm0-.889-3.342.017.019-.53,3.344-.022Zm0-.9-3.342.019.019-.532,3.344-.022Zm0-.891-3.342.016.019-.532,3.344-.019Z" transform="translate(0 -3.147)" fill="#ede9df"/>
    </g>
  </g>
</svg>
