<svg id="Dams_wheels" data-name="Dams &amp; wheels" xmlns="http://www.w3.org/2000/svg" width="32" height="32" viewBox="0 0 32 32">
  <g id="Group_41620" data-name="Group 41620" transform="translate(-456.706 -7102.212)">
    <g id="Group_41599" data-name="Group 41599" transform="translate(460.706 7109.212)">
      <path id="Path_37852" data-name="Path 37852" d="M0,18.763c.036-.308.07-.618.109-.927q.345-2.7.693-5.408c.228-1.75.463-3.5.692-5.25q.3-2.323.6-4.646c.1-.756.2-1.51.3-2.266C2.43.04,2.431.034,2.658.029Q3.536.011,4.415,0c.37,0,.741,0,1.111,0,.032,0,.064,0,.108.007V.922c.061,0,.111.009.16.009q4.7,0,9.4,0c1.519,0,3.037.021,4.557.035.334,0,.337.009.293.334q-.374,2.757-.75,5.514-.4,2.933-.8,5.866t-.807,5.836c-.01.074-.021.149-.034.246ZM17.127,3.957c-.622,0-1.212,0-1.8,0a.22.22,0,0,0-.134.08A10.174,10.174,0,0,0,13.606,6.61a28.317,28.317,0,0,0-2.107,7c-.209,1.211-.328,2.437-.484,3.657-.028.218-.037.439-.058.687H15.03V17.83c0-.828,0-1.657,0-2.486a26.1,26.1,0,0,1,.231-3.993A37.1,37.1,0,0,1,16.842,4.8c.093-.271.185-.543.286-.84m-4.651.049a1.016,1.016,0,0,0-.162-.032c-.544-.007-1.087-.014-1.631-.013a.232.232,0,0,0-.146.088A9.969,9.969,0,0,0,9.468,5.662a22.524,22.524,0,0,0-2.053,5.375A38.272,38.272,0,0,0,6.4,17.192c-.024.258-.044.516-.067.783h4.053V17.8c0-.692,0-1.383,0-2.074a30.816,30.816,0,0,1,.154-3.7,35.462,35.462,0,0,1,1.6-6.986c.115-.339.225-.679.343-1.036M5.769,17.974a4.653,4.653,0,0,1-.049-.474c0-1.34-.031-2.681.023-4.018a27.394,27.394,0,0,1,.7-4.827,43.107,43.107,0,0,1,1.2-4.211c.047-.141.089-.284.138-.44-.072-.009-.122-.02-.172-.021-.539-.006-1.078-.013-1.617-.012a.215.215,0,0,0-.148.083c-.222.3-.454.6-.65.925A20.92,20.92,0,0,0,2.91,10.393a37.894,37.894,0,0,0-1.2,6.839c-.021.244-.038.489-.058.742ZM18.17,5.8V2.483H14.883v.983H17.2V5.8Zm-4.652,0V2.484H10.236v.985h2.322V5.8Zm-4.651,0V2.485H5.59v.982H7.9V5.8Z" transform="translate(0 0)" fill="none" stroke="#36512a" stroke-width="0.5"/>
      <path id="Path_37853" data-name="Path 37853" d="M58.093,18.788c-.354,0-.694,0-1.035,0q-2.038-.013-4.077-.028c-.384,0-.386-.009-.335-.368q.465-3.229.932-6.458.336-2.328.673-4.656.446-3.081.892-6.162c.043-.3.093-.6.12-.9.013-.146.085-.185.218-.188C55.873.02,56.264.006,56.655,0c.476,0,.951,0,1.438,0Z" transform="translate(-34.359 0)" fill="#36512a"/>
    </g>
    <g id="Group_41600" data-name="Group 41600" transform="translate(462.468 7111.644)">
      <g id="Group_41599-2" data-name="Group 41599" transform="translate(0 0)">
        <path id="Path_37852-2" data-name="Path 37852" d="M18.592,4.751c-.665,0-1.3,0-1.928,0a.236.236,0,0,0-.144.085,10.758,10.758,0,0,0-1.7,2.721,29.767,29.767,0,0,0-2.254,7.415c-.224,1.282-.351,2.581-.518,3.874-.03.231-.04.464-.062.728h4.357v-.133c0-.877,0-1.755,0-2.633a27.367,27.367,0,0,1,.247-4.229,38.971,38.971,0,0,1,1.691-6.942c.1-.287.2-.575.306-.889M13.616,4.8a1.1,1.1,0,0,0-.173-.034c-.582-.007-1.163-.015-1.745-.014a.249.249,0,0,0-.156.093A10.55,10.55,0,0,0,10.4,6.558a23.71,23.71,0,0,0-2.2,5.693,40.161,40.161,0,0,0-1.09,6.518c-.025.273-.047.546-.071.83h4.335v-.183c0-.732,0-1.464,0-2.2a32.312,32.312,0,0,1,.165-3.92A37.239,37.239,0,0,1,13.25,5.9c.123-.359.24-.719.367-1.1M6.441,19.6a4.88,4.88,0,0,1-.052-.5c0-1.419-.033-2.839.024-4.256a28.741,28.741,0,0,1,.745-5.112,45.3,45.3,0,0,1,1.289-4.46c.05-.15.1-.3.147-.466-.077-.009-.13-.021-.184-.022-.577-.006-1.153-.013-1.73-.012a.231.231,0,0,0-.158.088c-.237.323-.486.64-.7.98a22.038,22.038,0,0,0-2.445,5.734,39.769,39.769,0,0,0-1.289,7.243c-.022.259-.041.518-.062.786Zm9.75-15.366h0Zm-4.971,0h0Zm-4.97,0h0Z" transform="translate(-2.031 -4.232)" fill="#b8bfb5"/>
      </g>
    </g>
  </g>
  <rect id="Rectangle_18603" data-name="Rectangle 18603" width="32" height="32" fill="none"/>
</svg>
