<svg xmlns="http://www.w3.org/2000/svg" width="32" height="32" viewBox="0 0 32 32">
  <g id="Design_Approval_Certificate" data-name="Design Approval Certificate" transform="translate(-383 -2140)">
    <rect id="Rectangle_150545" data-name="Rectangle 150545" width="32" height="32" rx="4" transform="translate(383 2140)" fill="#009112" opacity="0.1"/>
    <g id="Group_166122" data-name="Group 166122" transform="translate(77.892 243.417)">
      <rect id="Rectangle_18515" data-name="Rectangle 18515" width="9.73" height="1.946" rx="0.973" transform="translate(310.044 1920.15)" fill="#009112"/>
      <path id="Path_43051" data-name="Path 43051" d="M.555,10.091l.58-1.16,1.276-.29L8.619,2.607,9.431.577h.87l5.221,4.931-.348,1.218-.7.522h-1.45l-.638.812a8.817,8.817,0,0,0,.638,1.16c.232.29,0,.87,0,.87L10.3,12.934H9.141l-.522-.812-1.392.812v1.856l-1.276.522H5.022Z" transform="translate(309.001 1900.476)" fill="#009112" opacity="0.1"/>
      <path id="Path_37556" data-name="Path 37556" d="M5.439,8.158a.421.421,0,1,0,0,.595A.421.421,0,0,0,5.439,8.158Z" transform="translate(309.064 1900.584)" fill="#009112"/>
      <path id="Path_37557" data-name="Path 37557" d="M10.652,20.719a1.473,1.473,0,0,0-1.187-2.345H2.314a1.471,1.471,0,0,0-1.186,2.344A2.105,2.105,0,0,0,0,22.581V23a.421.421,0,0,0,.421.421H11.358A.421.421,0,0,0,11.779,23v-.421A2.105,2.105,0,0,0,10.652,20.719ZM1.867,19.4c.119-.119.278-.185,7.6-.185a.631.631,0,1,1,0,1.262H2.314A.631.631,0,0,1,1.867,19.4ZM.841,22.581A1.264,1.264,0,0,1,2.1,21.319H9.676a1.264,1.264,0,0,1,1.262,1.262Z" transform="translate(309 1901.268)" fill="#009112"/>
      <path id="Path_37558" data-name="Path 37558" d="M23.776,19.87a2.978,2.978,0,0,0-.57-.654L21,17.289a.477.477,0,0,0-.06-.073.472.472,0,0,0-.128-.091l-1.336-1.166-6.186-5.4A1.416,1.416,0,0,0,12.87,8.3l.572-.572a1.893,1.893,0,0,0,1.826-.489,1.892,1.892,0,0,0,0-2.676L11.256.554A1.891,1.891,0,0,0,8.091,2.381L2.381,8.09a1.9,1.9,0,0,0-.49-.064A1.892,1.892,0,0,0,.554,11.256l4.013,4.013a1.891,1.891,0,0,0,3.164-1.826l.571-.571a1.419,1.419,0,0,0,2.26.415l6.589,7.57a.475.475,0,0,0,.064.08l.026.024,1.963,2.256c.049.058.1.114.155.168a2.813,2.813,0,0,0,2,.832,2.9,2.9,0,0,0,.4-.028,2.862,2.862,0,0,0,2.112-1.462A2.8,2.8,0,0,0,23.776,19.87ZM9.249,1.223a.946.946,0,0,1,1.338,0L14.6,5.236a.946.946,0,0,1-1.337,1.338L9.249,2.561h0A.947.947,0,0,1,9.249,1.223ZM6.574,14.6a.947.947,0,0,1-1.338,0L1.223,10.587A.946.946,0,0,1,2.56,9.249l4.014,4.014A.947.947,0,0,1,6.574,14.6Zm1.991-3.329L7.243,12.594,3.229,8.58,8.58,3.229l4.013,4.013L11.269,8.568l-.013.013L8.582,11.254Zm1.689.987,0,0-.333.333a.473.473,0,0,1-.675-.663L11.93,9.244a.473.473,0,0,1,.8.34.469.469,0,0,1-.139.334l-.331.331-.007.007Zm.979.358,1.382-1.382,5.853,5.1-2.136,2.136Zm11.81,9.648a1.924,1.924,0,0,1-1.416.987,1.879,1.879,0,0,1-1.6-.536c-.036-.036-.071-.074-.1-.113l0-.005L18.2,20.62l2.412-2.412,1.975,1.722,0,0a3.792,3.792,0,0,1,.39.449A1.867,1.867,0,0,1,23.044,22.264Z" transform="translate(309 1900.476)" fill="#009112"/>
      <path id="Path_37559" data-name="Path 37559" d="M8.549,4.844a.421.421,0,0,0-.595,0L6.169,6.629a.421.421,0,0,0,.595.595L8.549,5.439A.421.421,0,0,0,8.549,4.844Z" transform="translate(309.148 1900.591)" fill="#009112"/>
    </g>
  </g>
</svg>
