<svg id="DGDA_Boundary-32px" data-name="DGDA Boundary-32px" xmlns="http://www.w3.org/2000/svg" width="32" height="32" viewBox="0 0 32 32">
  <rect id="Rectangle_18510" data-name="Rectangle 18510" width="32" height="32" fill="none"/>
  <g id="Group_41458" data-name="Group 41458" transform="translate(6 2)">
    <path id="Path_37669" data-name="Path 37669" d="M171.952,119.152a.563.563,0,0,1-.108.37.37.37,0,0,0,0,.325.907.907,0,0,1,0,.271c0,.054-.009.262,0,.3s.045.144.018.19a4.07,4.07,0,0,1-.09.424,1.348,1.348,0,0,0-.054.524,1.929,1.929,0,0,1-.045.623,4.8,4.8,0,0,0-.054.849c0,.072-.172.994-.172,1.021s-.063.28-.063.325-.018.244-.063.28-.063.217-.072.244-.325.506-.325.506a.835.835,0,0,1-.009.253c-.027.054-.172.379-.208.443a.12.12,0,0,0,.036.154c.036.027.244.208.28.244a.121.121,0,0,0,.153.009.28.28,0,0,1,.226.018.429.429,0,0,0,.2.054c.072,0,.415-.018.415-.018s-.542.4-.569.406-.208.162-.253.162-.154.109-.163.136a.793.793,0,0,1-.081.19,1.117,1.117,0,0,0-.118.271,1.485,1.485,0,0,1-.081.3.141.141,0,0,0,.009.135.763.763,0,0,0,.208.063l-.081.957.957,1.165-1.887,4.705-6.277.027-.722.379-.063-.867-2.169.113c-.023-.1-.053-.213-.053-.213a.214.214,0,0,0-.108.036.308.308,0,0,1-.135.045c-.045.009-.208.018-.235.018s-.081-.046-.108-.072a.921.921,0,0,1-.081-.126.127.127,0,0,1,.081-.126,1.014,1.014,0,0,0,.262-.126.113.113,0,0,0-.018-.136c-.036-.045-.09-.081-.045-.163a.341.341,0,0,0,.027-.2c0-.036.009-.09-.063-.1a.089.089,0,0,1-.027-.162c.072-.046.054-.1,0-.163a.339.339,0,0,1-.09-.181.475.475,0,0,0-.036-.162c-.018-.036-.19-.353-.19-.353l-.027-.135a2.1,2.1,0,0,0,.006-.292c-.012-.06-.108-.361-.12-.4s-.072-.6,0-.662a.078.078,0,0,0-.036-.144h-.193l-.217-.337-.2-.024.012-.193h0a2.9,2.9,0,0,0-.048-.494,3.221,3.221,0,0,0-.265-.458,4.605,4.605,0,0,0-.337-.421.436.436,0,0,1-.072-.4c.012-.036.217-.409.241-.494s.024-.121-.072-.193a3.083,3.083,0,0,0-.422-.2s-.024-.422-.024-.482a.305.305,0,0,0-.06-.217c-.072-.12-.048-.168.048-.168s.048-.157.048-.193-.012-.193-.012-.3-.133-.3-.217-.313a.252.252,0,0,1-.144-.1s-.024-.169-.036-.277a1.093,1.093,0,0,0-.217-.409.173.173,0,0,1-.036-.181.857.857,0,0,1,.277-.144c.06-.012.012-.133-.048-.145a.108.108,0,0,1-.084-.121c0-.06-.12-.06-.217-.06s-.048-.108-.06-.169a.737.737,0,0,0-.229-.325c-.108-.072.024-.169.12-.169s.108-.048.108-.156-.144-.12-.253-.145a2.6,2.6,0,0,0-.421-.012.652.652,0,0,1-.3-.217,2.254,2.254,0,0,0-.084-.289.174.174,0,0,0-.241-.1c-.108.06-.168.06-.217-.084a.412.412,0,0,1,.012-.289c.012-.036.012-.313-.181-.325s-.349-.024-.422-.036-.217-.072-.217-.133a.39.39,0,0,0-.084-.277.606.606,0,0,1-.108-.289s-.012-.265-.012-.313-.06-.133-.2-.133-.2-.177-.2-.177a.869.869,0,0,1-.063-.253c0-.046-.036-.154-.1-.163s-.135.081-.135.081-.587.009-.659.009a3.256,3.256,0,0,1-.632-.226c-.027-.027-.083-.058-.133-.107a.316.316,0,0,1-.048-.056c-.054-.081-.018-.117-.018-.117a.459.459,0,0,1,.126-.1c.072-.036.108-.009.135-.054s.109.009.127.09.253.19.334.018a.251.251,0,0,0,.009-.262s.226-.028.28-.046.081,0,.145-.063.045-.389.045-.389l.126-.069a.735.735,0,0,1,.005-.347.378.378,0,0,1,.017-.054.189.189,0,0,0,.013-.046.444.444,0,0,0-.025-.088.615.615,0,0,1-.02-.063,1.288,1.288,0,0,1-.038-.425v0l.023-.127a.329.329,0,0,1,.044-.068c.008-.011.017-.021.024-.033a.654.654,0,0,0,.082-.194.319.319,0,0,0-.009-.193.529.529,0,0,1-.027-.155.228.228,0,0,1,.028-.1.2.2,0,0,0,.017-.046.728.728,0,0,0,.007-.1v-.028c0-.012,0-.023,0-.034.023,0,.732-.054.758-.054a1.112,1.112,0,0,1,.117.018s.253.506.253.533.054.172.126.19a5.617,5.617,0,0,0,.668,0c.072-.009.063-.082.072-.127a.252.252,0,0,1,.181-.136.741.741,0,0,1,.415.036.221.221,0,0,0,.244-.027c.045-.036.244-.389.289-.443a.087.087,0,0,0-.045-.145c-.063-.009-.126-.018-.135-.054s-.009-.253-.009-.253a.831.831,0,0,0,.2-.045c.045-.028.009-.154-.027-.145a.748.748,0,0,1-.2.063c-.072,0-.054-.117-.054-.117a2.4,2.4,0,0,1,.163-.181.244.244,0,0,1,.1-.046c.027,0,.154-.009.217-.009a.345.345,0,0,0,.181-.09c.027-.027.343-.352.433-.433a.258.258,0,0,1,.262-.028c.027.018.054.118.1.154s.208-.018.289-.036.081-.181.081-.253a.249.249,0,0,1,.172-.181c.054,0,.623.036.623.036s.235-.316.3-.371a.745.745,0,0,1,.316-.081,2.108,2.108,0,0,0,.235,0,1.777,1.777,0,0,0,.352-.118,1.256,1.256,0,0,0,.208-.262l.786.334.244-.65s-.623-.831-.7-.9a1.254,1.254,0,0,1-.253-.361c-.009-.072-.2-.713-.253-1.092a10.549,10.549,0,0,1,.036-1.445l.894-.108.434.37s.09-1.246.09-1.319a5.5,5.5,0,0,1,.253-.7.208.208,0,0,0-.045-.217,1.461,1.461,0,0,0-.226-.135s.316-.226.379-.262.109.027.126.054a1.375,1.375,0,0,1,.126.19c.009.036.081.2.027.28s.018.19.054.253a.725.725,0,0,1,.036.271.721.721,0,0,0,.144.271c.045.045.19.208.19.208a1.215,1.215,0,0,1,.244.063,1.258,1.258,0,0,0,.388.018.6.6,0,0,0,.217-.072s.117.036.144.09a.151.151,0,0,1-.027.181c-.054.045-.045.1-.018.108s.262.126.262.126a.865.865,0,0,1,.235.054c.018.027.686.524.75.56a1.034,1.034,0,0,1,.208.19c.045.054.154.009.154.009l.271-.19.262.262.09-.09s.84.388.9.434.19.018.2-.018.181-.045.217.009.253.027.307.036.162.054.19-.054.144-.054.181.009a1.894,1.894,0,0,0,.145.19s.271.036.361.036.072.126.1.144.4.334.452.37.108.054.163.009.253.009.289.009a.265.265,0,0,0,.181-.063c.081-.063.144.081.163.117s.208.587.253.668-.018.144-.09.19-.036.081-.009.108.081.162.117.208.009.144-.027.208a.1.1,0,0,0,.045.135.77.77,0,0,1,.19.126c.027.036.027.163-.036.172s-.045.081.045.1.045.117-.027.126-.09.135-.09.163a.476.476,0,0,1-.063.208c-.045.063.027.163.036.2s.217.334.217.334-.018.063-.036.117a.41.41,0,0,0,0,.153l.108.163-.424.361s-.009.108-.009.162a.363.363,0,0,1-.09.226c-.063.063.009.108.045.144a1.924,1.924,0,0,0,.172.126s.1.19.117.226a.445.445,0,0,1,.009.244.678.678,0,0,0-.027.271,1.375,1.375,0,0,1-.018.388.342.342,0,0,0-.063.154c-.009.063.063.072.108.063a1.555,1.555,0,0,1,.235-.045,3.214,3.214,0,0,0,.415-.135s.054.316.054.352a3.688,3.688,0,0,0,.244.37.649.649,0,0,1,.009.271.635.635,0,0,0,.09.28c.018.027.054.154.081.226" transform="translate(-152.032 -108.015)" fill="rgba(54,81,42,0.25)" stroke="#36512a" stroke-width="1"/>
    <path id="Path_37671" data-name="Path 37671" d="M158.054,96.283a.249.249,0,0,1,.054.26,6.593,6.593,0,0,0-.3.845c0,.087-.108,1.581-.108,1.581l-.52-.444-1.072.13a12.648,12.648,0,0,0-.043,1.733c.065.455.293,1.223.3,1.31a1.505,1.505,0,0,0,.3.433c.087.087.834,1.083.834,1.083l-.293.78-.942-.4a1.511,1.511,0,0,1-.249.314,2.143,2.143,0,0,1-.422.141,2.531,2.531,0,0,1-.282,0,.892.892,0,0,0-.379.1c-.076.065-.357.444-.357.444s-.682-.043-.747-.043a.3.3,0,0,0-.206.217c0,.087,0,.281-.1.3s-.293.087-.347.043-.087-.163-.119-.185a.309.309,0,0,0-.314.033c-.108.1-.487.487-.52.52a.415.415,0,0,1-.217.108c-.076,0-.227.01-.26.01a.3.3,0,0,0-.119.055c-.032.022-.195.217-.195.217s-.022.14.065.14a.9.9,0,0,0,.238-.075c.043-.011.087.14.033.173a.991.991,0,0,1-.238.054s0,.26.011.3.087.055.162.065a.1.1,0,0,1,.054.173c-.054.065-.292.488-.346.531a.265.265,0,0,1-.292.032.889.889,0,0,0-.5-.043.3.3,0,0,0-.217.163c-.011.054,0,.14-.087.151a6.658,6.658,0,0,1-.8,0c-.087-.022-.152-.195-.152-.228s-.3-.638-.3-.638a1.339,1.339,0,0,0-.141-.022c-.032,0-.882.063-.909.065h0c0-.043-.217-.455-.238-.531a2.362,2.362,0,0,0-.238-.466,2.6,2.6,0,0,1-.206-.52c-.022-.076-.3-.217-.368-.292s-.26.043-.444.076a.791.791,0,0,1-.509-.13,3.491,3.491,0,0,1-.531-.531,6.15,6.15,0,0,0-.541-.574.862.862,0,0,0,.058-.292l.361-.3a.288.288,0,0,1,.159-.058c.087,0,.288.014.346.014a.169.169,0,0,0,.159-.116c.015-.072,0-.1.145-.087s.245.029.245-.087-.072-.274.058-.217a.3.3,0,0,0,.274.029c.144-.029.188-.043.231-.087s.173-.13.188-.217.058-.231.159-.246a.226.226,0,0,0,.188-.144c.015-.058.043-.3.13-.332s.563-.317.563-.317.1-.1.029-.144l-.072-.043.376-.606a.824.824,0,0,0,.3.072,3.108,3.108,0,0,0,.621-.217.783.783,0,0,1,.231-.087s-.029-.288.058-.332a1.77,1.77,0,0,0,.376-.448.224.224,0,0,1,.188-.144c.087,0,.217-.116.289-.188a1.608,1.608,0,0,1,.39-.275c.072-.014.216-.087.274-.1a1,1,0,0,0,.215-.175l.272-.259s.116-.272.129-.311.039-.13.091-.065.126.051.168.143c.072.157.078-.078.078-.156a.364.364,0,0,1,.116-.22s.273-.235.338-.289.043-.282,0-.347a.778.778,0,0,1-.1-.26c0-.043.011-.758.011-.758a.908.908,0,0,1,.195-.119c.087-.033.606-.466.661-.5s.509-.162.509-.162a1.525,1.525,0,0,1,.4-.065.9.9,0,0,0,.292-.033l.942-.942-.227-.336.588-.606s.362.4.427.5.635.648.635.648l0,.557s.119.477.119.509a.411.411,0,0,0,.108.184c.043.033.552.4.552.4A1.756,1.756,0,0,1,158.054,96.283Z" transform="translate(-144.94 -92.631)" fill="#36512a" stroke="#848f6c" stroke-miterlimit="10" stroke-width="1.5"/>
  </g>
</svg>
