<svg id="DGDA_Area-32px" data-name="DGDA Area-32px" xmlns="http://www.w3.org/2000/svg" width="32" height="32" viewBox="0 0 32 32">
  <rect id="Rectangle_18509" data-name="Rectangle 18509" width="32" height="32" fill="none"/>
  <path id="Path_37672" data-name="Path 37672" d="M165.645,98a.394.394,0,0,1,.085.41,10.407,10.407,0,0,0-.479,1.334c0,.137-.171,2.5-.171,2.5l-.82-.7-1.693.205a19.965,19.965,0,0,0-.068,2.736c.1.718.462,1.931.479,2.068a2.376,2.376,0,0,0,.479.684c.137.137,1.317,1.71,1.317,1.71l-.462,1.231-1.487-.632a2.385,2.385,0,0,1-.393.5,3.383,3.383,0,0,1-.667.223,4,4,0,0,1-.445,0,1.408,1.408,0,0,0-.6.153c-.12.1-.564.7-.564.7s-1.077-.068-1.18-.068a.47.47,0,0,0-.325.342c0,.137,0,.444-.154.479s-.462.137-.547.068-.137-.257-.188-.291a.488.488,0,0,0-.5.052c-.171.153-.769.769-.82.821a.655.655,0,0,1-.342.171c-.12,0-.359.016-.411.016a.466.466,0,0,0-.188.086,4.6,4.6,0,0,0-.308.342s-.034.221.1.221a1.416,1.416,0,0,0,.376-.119c.068-.018.137.222.051.273a1.565,1.565,0,0,1-.376.085s0,.411.017.479.137.086.257.1a.165.165,0,0,1,.085.273c-.085.1-.462.77-.547.839a.418.418,0,0,1-.462.05,1.4,1.4,0,0,0-.786-.068.477.477,0,0,0-.342.257c-.017.085,0,.221-.137.239a10.5,10.5,0,0,1-1.265,0c-.137-.034-.239-.308-.239-.36s-.479-1.008-.479-1.008a2.112,2.112,0,0,0-.222-.034c-.051,0-1.393.1-1.435.1h0c0-.068-.342-.718-.376-.838a3.728,3.728,0,0,0-.376-.735,4.11,4.11,0,0,1-.325-.821c-.034-.12-.479-.342-.581-.462s-.41.068-.7.12a1.248,1.248,0,0,1-.8-.205,5.511,5.511,0,0,1-.838-.838,9.71,9.71,0,0,0-.855-.906,1.36,1.36,0,0,0,.091-.462l.57-.479a.454.454,0,0,1,.251-.091c.137,0,.455.023.547.023a.266.266,0,0,0,.25-.182c.023-.114,0-.159.229-.137s.387.046.387-.137-.114-.433.092-.342a.479.479,0,0,0,.433.046c.228-.046.3-.068.365-.137s.273-.205.3-.342.092-.364.251-.388a.358.358,0,0,0,.3-.228c.023-.091.068-.479.205-.525s.889-.5.889-.5.16-.159.046-.228l-.114-.068.593-.958a1.3,1.3,0,0,0,.479.114,4.909,4.909,0,0,0,.98-.342,1.237,1.237,0,0,1,.365-.137s-.046-.455.091-.524a2.8,2.8,0,0,0,.593-.707.353.353,0,0,1,.3-.228c.137,0,.342-.182.456-.3a2.538,2.538,0,0,1,.615-.434c.114-.022.342-.137.433-.159a1.572,1.572,0,0,0,.34-.276l.429-.409s.184-.43.2-.49.062-.2.143-.1.2.081.266.225c.114.247.123-.122.123-.246a.574.574,0,0,1,.184-.347s.432-.371.534-.457.068-.445,0-.547a1.23,1.23,0,0,1-.154-.41c0-.068.017-1.2.017-1.2a1.433,1.433,0,0,1,.308-.188c.137-.051.958-.735,1.043-.787s.8-.256.8-.256a2.408,2.408,0,0,1,.633-.1,1.413,1.413,0,0,0,.462-.051l1.487-1.487-.359-.53.928-.956s.572.633.674.8,1,1.022,1,1.022l-.006.88s.188.752.188.8a.649.649,0,0,0,.171.29c.068.052.872.633.872.633A2.77,2.77,0,0,1,165.645,98Z" transform="translate(-139.325 -88.451)" fill="rgba(54,81,42,0.25)" stroke="#36512a" stroke-miterlimit="10" stroke-width="1.5"/>
</svg>
