<svg id="Districts-32px" xmlns="http://www.w3.org/2000/svg" width="32" height="32" viewBox="0 0 32 32">
  <g id="Group_41175" data-name="Group 41175" transform="translate(3.318 5)">
    <g id="Group_41461" data-name="Group 41461" transform="translate(0 0)">
      <path id="Path_36971" data-name="Path 36971" d="M15.051,0q4.794,0,9.589,0c.35,0,.71.021.709.472s-.362.467-.711.467q-9.287,0-18.574,0A5.027,5.027,0,1,0,6,10.987c3.016.011,6.032-.007,9.049.008a44.485,44.485,0,0,1,5.272.118,5.843,5.843,0,0,1,5.031,6.234A5.955,5.955,0,0,1,19.4,22.926c-6.244.015-12.489,0-18.733,0-.333,0-.655-.049-.661-.459-.006-.43.318-.479.668-.478,6.213,0,12.425.012,18.638,0a4.831,4.831,0,0,0,4.537-2.732,4.737,4.737,0,0,0-.31-5.114,5.063,5.063,0,0,0-4.58-2.223c-1.959.026-3.92,0-5.879,0-2.257,0-4.514.03-6.77.018A5.973,5.973,0,1,1,6.034,0q4.509,0,9.017,0" transform="translate(0.001 0)" fill="#36512a"/>
      <path id="Path_36972" data-name="Path 36972" d="M49.11,211.35c-.3-.233-.635-.364-.666-.547a.965.965,0,0,1,.335-.671c1.034-1.013,2.078-2.018,3.157-2.982a.775.775,0,0,1,.752-.007c1.082.961,2.13,1.962,3.166,2.973a1.04,1.04,0,0,1,.354.7c-.017.17-.367.305-.668.529,0,.818-.012,1.788.005,2.757.009.5-.19.708-.7.7q-2.522-.021-5.045,0c-.5,0-.708-.2-.7-.7.017-.961,0-1.923,0-2.751m5.516,2.491v-3.609l-2.3-2.182-2.3,2.181v3.61Z" transform="translate(-45.364 -193.901)" fill="#36512a"/>
      <path id="Path_36973" data-name="Path 36973" d="M229.256,211.137c-.3-.233-.66-.384-.67-.555a1.136,1.136,0,0,1,.392-.715c1.019-1,2.05-1.989,3.113-2.942a.746.746,0,0,1,.723-.023c1.11.994,2.188,2.024,3.253,3.067a.879.879,0,0,1,.274.659c-.034.166-.352.275-.659.491v.523c0,.794.033,1.59-.024,2.379-.014.2-.315.529-.49.533q-2.713.06-5.427,0c-.166,0-.453-.377-.464-.59-.05-.99-.022-1.984-.022-2.826m.908,2.483h4.61v-3.6l-2.307-2.186-2.3,2.189Z" transform="translate(-214.069 -193.685)" fill="#36512a"/>
      <path id="Path_36974" data-name="Path 36974" d="M235.612,36.722c0,.854-.008,1.837,0,2.819,0,.44-.188.642-.625.641q-2.584,0-5.168,0c-.455,0-.647-.211-.641-.662.012-.981,0-1.961,0-2.787-.3-.239-.65-.382-.672-.565a1.047,1.047,0,0,1,.37-.691c1-.984,2.037-1.937,3.048-2.914a.568.568,0,0,1,.922-.01c1.026.992,2.075,1.96,3.094,2.958a.965.965,0,0,1,.332.673c-.03.179-.364.307-.666.535m-.907,2.49V35.62L232.4,33.429l-2.3,2.184v3.6Z" transform="translate(-213.998 -30.272)" fill="#36512a"/>
      <path id="Path_36975" data-name="Path 36975" d="M55.612,36.724c0,.809-.016,1.768.006,2.726.012.53-.2.741-.73.735-1.681-.017-3.362-.011-5.043,0-.468,0-.673-.191-.666-.665.014-.98,0-1.961,0-2.806-.294-.213-.644-.344-.664-.514a1.025,1.025,0,0,1,.345-.7c1.011-.992,2.053-1.952,3.071-2.937a.567.567,0,0,1,.921-.005c1.026.991,2.075,1.96,3.093,2.959a.959.959,0,0,1,.331.672c-.032.18-.367.307-.669.533M50.093,39.21H54.7v-3.6L52.4,33.43l-2.3,2.188Z" transform="translate(-45.436 -30.273)" fill="#36512a"/>
      <path id="Path_37661" data-name="Path 37661" d="M7.855,3.685,5.866,5.674V8.535h3.87V5.674Z" transform="translate(-0.84 -0.127)" fill="#848f6c"/>
      <path id="Path_37662" data-name="Path 37662" d="M7.855,3.685,5.866,5.674V8.535h3.87V5.674Z" transform="translate(-0.84 10.916)" fill="#848f6c"/>
      <path id="Path_37663" data-name="Path 37663" d="M7.855,3.685,5.866,5.674V8.535h3.87V5.674Z" transform="translate(10.597 10.916)" fill="#848f6c"/>
      <path id="Path_37664" data-name="Path 37664" d="M7.855,3.685,5.866,5.674V8.535h3.87V5.674Z" transform="translate(10.597 -0.127)" fill="#848f6c"/>
    </g>
  </g>
  <rect id="Rectangle_18499" data-name="Rectangle 18499" width="32" height="32" fill="none"/>
</svg>
