<svg xmlns="http://www.w3.org/2000/svg" width="40" height="40" viewBox="0 0 40 40">
  <g id="Educational_Services" data-name="Educational Services" transform="translate(-118 -252)">
    <rect id="Rectangle_1" data-name="Rectangle 1" width="40" height="40" rx="4" transform="translate(118 252)" fill="rgba(92,169,252,0.2)"/>
    <path id="Educational-icon" d="M29.24,49.647V38.423H22.3v-3.2H9.205v3.2h4.676v-8H16.81V27.741H13.882V27.2H13.34V38.4H2.264V49.622H0V50.68H31.5V49.622H29.24Zm-3.2-6.67H24.711V41.648H26.04Zm-2.412-1.354v1.329H22.3V41.623ZM9.205,42.977H7.876V41.648H9.205ZM6.818,41.623v1.329H5.489V41.623ZM5.464,49.647V44.035H6.793v5.612H5.464Zm2.412,0V44.035H9.205v5.612H7.876Zm3.2,0V38.423h1.871V49.647Zm3.741,0V38.423h1.871V49.647Zm3.741,0V38.423h1.871V49.647Zm3.741,0V44.035h1.329v5.612H22.3Zm2.387,0V44.035h1.329v5.612H24.686Z" transform="translate(122 232.8)" fill="#007bff"/>
  </g>
</svg>
