<svg xmlns="http://www.w3.org/2000/svg" xmlns:xlink="http://www.w3.org/1999/xlink" width="58" height="58" viewBox="0 0 58 58">
  <defs>
    <filter id="Rectangle_1" x="0" y="0" width="58" height="58" filterUnits="userSpaceOnUse">
      <feOffset dy="3" input="SourceAlpha"/>
      <feGaussianBlur stdDeviation="3" result="blur"/>
      <feFlood flood-opacity="0.161"/>
      <feComposite operator="in" in2="blur"/>
      <feComposite in="SourceGraphic"/>
    </filter>
  </defs>
  <g id="Group_165970" data-name="Group 165970" transform="translate(-109 -246)">
    <g transform="matrix(1, 0, 0, 1, 109, 246)" filter="url(#Rectangle_1)">
      <g id="Rectangle_1-2" data-name="Rectangle 1" transform="translate(9 6)" fill="#5ca9fc" stroke="#ede9df" stroke-width="2">
        <rect width="40" height="40" rx="20" stroke="none"/>
        <rect x="1" y="1" width="38" height="38" rx="19" fill="none"/>
      </g>
    </g>
    <path id="_x31__1_" d="M29.24,49.647V38.423H22.3v-3.2H9.205v3.2h4.676v-8H16.81V27.741H13.882V27.2H13.34V38.4H2.264V49.622H0V50.68H31.5V49.622H29.24Zm-3.2-6.67H24.711V41.648H26.04Zm-2.412-1.354v1.329H22.3V41.623ZM9.205,42.977H7.876V41.648H9.205ZM6.818,41.623v1.329H5.489V41.623ZM5.464,49.647V44.035H6.793v5.612H5.464Zm2.412,0V44.035H9.205v5.612H7.876Zm3.2,0V38.423h1.871V49.647Zm3.741,0V38.423h1.871V49.647Zm3.741,0V38.423h1.871V49.647Zm3.741,0V44.035h1.329v5.612H22.3Zm2.387,0V44.035h1.329v5.612H24.686Z" transform="translate(122 232.8)" fill="#fff"/>
  </g>
</svg>
