<svg xmlns="http://www.w3.org/2000/svg" xmlns:xlink="http://www.w3.org/1999/xlink" width="58" height="58" viewBox="0 0 58 58">
  <defs>
    <filter id="Rectangle_1" x="0" y="0" width="58" height="58" filterUnits="userSpaceOnUse">
      <feOffset dy="3" input="SourceAlpha"/>
      <feGaussianBlur stdDeviation="3" result="blur"/>
      <feFlood flood-opacity="0.161"/>
      <feComposite operator="in" in2="blur"/>
      <feComposite in="SourceGraphic"/>
    </filter>
  </defs>
  <g id="Group_165971" data-name="Group 165971" transform="translate(-109 -315)">
    <g transform="matrix(1, 0, 0, 1, 109, 315)" filter="url(#Rectangle_1)">
      <g id="Rectangle_1-2" data-name="Rectangle 1" transform="translate(9 6)" fill="#4f98e7" stroke="#ede9df" stroke-width="2">
        <rect width="40" height="40" rx="20" stroke="none"/>
        <rect x="1" y="1" width="38" height="38" rx="19" fill="none"/>
      </g>
    </g>
    <g id="Group_165806" data-name="Group 165806" transform="translate(-224.589 83.808)">
      <g id="Group_165805" data-name="Group 165805" transform="translate(355.122 245.757)">
        <path id="Path_42956" data-name="Path 42956" d="M389.247,259.795a36.2,36.2,0,0,0-3.834-.231v4.1h4.066A36.3,36.3,0,0,0,389.247,259.795Z" transform="translate(-377.707 -256.374)" fill="#fff"/>
        <path id="Path_42957" data-name="Path 42957" d="M389.479,272.416h-4.066v4.1a36.285,36.285,0,0,0,3.834-.231A36.3,36.3,0,0,0,389.479,272.416Z" transform="translate(-377.707 -264.709)" fill="#fff"/>
        <path id="Path_42958" data-name="Path 42958" d="M389.2,284.635a36.779,36.779,0,0,1-3.786.224v2.771a7.465,7.465,0,0,0,3.479-.964Q389.072,285.644,389.2,284.635Z" transform="translate(-377.707 -272.634)" fill="#fff"/>
        <path id="Path_42959" data-name="Path 42959" d="M388.892,251.453a7.465,7.465,0,0,0-3.479-.964v2.772a36.58,36.58,0,0,1,3.786.222Q389.073,252.476,388.892,251.453Z" transform="translate(-377.707 -250.489)" fill="#fff"/>
        <path id="Path_42960" data-name="Path 42960" d="M400.563,272.416h-2.806a36.839,36.839,0,0,1-.224,3.82q1.018-.127,2.047-.309A7.451,7.451,0,0,0,400.563,272.416Z" transform="translate(-385.567 -264.709)" fill="#fff"/>
        <path id="Path_42961" data-name="Path 42961" d="M372.691,276.286a36.487,36.487,0,0,0,3.9.232v-4.1h-4.136A36.379,36.379,0,0,0,372.691,276.286Z" transform="translate(-369.306 -264.709)" fill="#fff"/>
        <path id="Path_42962" data-name="Path 42962" d="M396.655,254.056q.15.9.26,1.79.9.109,1.8.262A7.541,7.541,0,0,0,396.655,254.056Z" transform="translate(-384.997 -252.802)" fill="#fff"/>
        <path id="Path_42963" data-name="Path 42963" d="M399.58,260.668q-1.031-.181-2.047-.309a36.857,36.857,0,0,1,.224,3.82h2.806A7.451,7.451,0,0,0,399.58,260.668Z" transform="translate(-385.567 -256.89)" fill="#fff"/>
        <path id="Path_42964" data-name="Path 42964" d="M366.447,276.236a36.755,36.755,0,0,1-.224-3.82h-2.736a7.461,7.461,0,0,0,.99,3.524Q365.469,276.114,366.447,276.236Z" transform="translate(-363.487 -264.709)" fill="#fff"/>
        <path id="Path_42965" data-name="Path 42965" d="M366.447,260.359q-.978.122-1.97.3a7.464,7.464,0,0,0-.99,3.524h2.736A36.772,36.772,0,0,1,366.447,260.359Z" transform="translate(-363.487 -256.89)" fill="#fff"/>
        <path id="Path_42966" data-name="Path 42966" d="M369.115,285.774q-.145-.874-.251-1.737-.858-.1-1.725-.249A7.55,7.55,0,0,0,369.115,285.774Z" transform="translate(-365.855 -272.085)" fill="#fff"/>
        <path id="Path_42967" data-name="Path 42967" d="M372.459,263.661H376.6v-4.1a36.314,36.314,0,0,0-3.9.232A36.364,36.364,0,0,0,372.459,263.661Z" transform="translate(-369.306 -256.372)" fill="#fff"/>
        <path id="Path_42968" data-name="Path 42968" d="M398.719,283.751q-.907.151-1.8.262-.109.89-.26,1.791A7.542,7.542,0,0,0,398.719,283.751Z" transform="translate(-384.997 -272.06)" fill="#fff"/>
        <path id="Path_42969" data-name="Path 42969" d="M369.115,254.208a7.548,7.548,0,0,0-1.976,1.986q.867-.144,1.725-.249Q368.969,255.082,369.115,254.208Z" transform="translate(-365.855 -252.901)" fill="#fff"/>
        <path id="Path_42970" data-name="Path 42970" d="M373.557,286.621a7.462,7.462,0,0,0,3.557,1.008v-2.771a36.645,36.645,0,0,1-3.855-.224Q373.38,285.622,373.557,286.621Z" transform="translate(-369.824 -272.634)" fill="#fff"/>
        <path id="Path_42971" data-name="Path 42971" d="M373.259,253.484a36.615,36.615,0,0,1,3.855-.223v-2.772a7.478,7.478,0,0,0-3.557,1.008Q373.382,252.5,373.259,253.484Z" transform="translate(-369.824 -250.489)" fill="#fff"/>
      </g>
      <path id="Path_42972" data-name="Path 42972" d="M395.832,246.348l.319-1.259,1.259-.319-1.259-.319-.319-1.259-.319,1.259-1.259.319,1.259.319Z" transform="translate(-28.319 0)" fill="#fff"/>
      <path id="Path_42973" data-name="Path 42973" d="M401.822,251.346l.22.869.22-.869.869-.22-.869-.22-.22-.869-.22.869-.869.22Z" transform="translate(-32.663 -4.439)" fill="#fff"/>
      <path id="Path_42974" data-name="Path 42974" d="M410.723,268.321c-.6.341-.4,1.432-.4,1.432-.516.094-.69.665-.868,1.5-.446,2.089.213,4.583.091,5.463.269-.311.563-.654.856-1.027.094-.121.193-.245.277-.373.021-.031.042-.063.06-.093a.56.56,0,0,0,.043-.087,1.925,1.925,0,0,0,.022-.2c.019-.31.01-.644,0-.974s-.018-.666-.027-.993-.012-.652-.018-.965,0-.616,0-.9.021-.569.053-.823a3.58,3.58,0,0,1,.159-.687,1.8,1.8,0,0,1,.254-.484.662.662,0,0,1,.274-.221.3.3,0,0,1,.119-.027A.575.575,0,0,0,410.723,268.321Z" transform="translate(-38.075 -16.238)" fill="#fff"/>
      <path id="Path_42975" data-name="Path 42975" d="M397.3,270.545a.64.64,0,0,0-.808-.543.277.277,0,0,0-.106.052.736.736,0,0,0-.207.249,2.71,2.71,0,0,0-.216,1.141c0,.245,0,.507.024.792s.031.589.048.9c.026.625.049,1.293.045,1.965a9.31,9.31,0,0,1-.058,1.016,1.509,1.509,0,0,1-.068.286,1.082,1.082,0,0,1-.07.128c-.025.038-.05.072-.076.107-.1.136-.205.258-.309.378-.422.471-.833.888-1.2,1.235-.191.182-.366.346-.522.49-1.287,1.252-4.156,3.443-4.31,3.113-.493-1.056,3.4-2.63,4.261-4.331.781-1.551-1.5-.882-1.862-.646-1.178.774-2.723,1.567-4.159,2.687-3.3,2.577-.88,9.121-.88,9.121.211-1.76,8.181-5.329,10.5-9.859C397.872,277.77,397.427,271.526,397.3,270.545Z" transform="translate(-22.945 -17.377)" fill="#fff"/>
      <path id="Path_42976" data-name="Path 42976" d="M354.121,269.112a1.81,1.81,0,0,1,.254.484,3.558,3.558,0,0,1,.159.687,8.127,8.127,0,0,1,.053.823c0,.287,0,.589,0,.9s-.012.637-.018.965-.018.659-.027.993-.019.664,0,.974a1.93,1.93,0,0,0,.022.2.524.524,0,0,0,.043.087c.017.031.038.063.059.093.086.128.183.252.278.373.292.374.588.717.855,1.028-.122-.881.538-3.375.091-5.464-.18-.838-.353-1.408-.869-1.5,0,0,.2-1.091-.4-1.432a.575.575,0,0,0-.9.543.3.3,0,0,1,.12.027A.664.664,0,0,1,354.121,269.112Z" transform="translate(-2.035 -16.238)" fill="#fff"/>
      <path id="Path_42977" data-name="Path 42977" d="M360.476,279.566c-1.436-1.119-2.982-1.913-4.159-2.687-.36-.237-2.643-.905-1.863.646.857,1.7,4.754,3.275,4.261,4.331-.154.331-3.025-1.862-4.312-3.114-.155-.144-.33-.308-.522-.489-.365-.347-.775-.764-1.2-1.235-.1-.12-.208-.242-.309-.378-.025-.035-.051-.069-.075-.107a.9.9,0,0,1-.07-.128,1.492,1.492,0,0,1-.069-.286,9.32,9.32,0,0,1-.059-1.016c0-.671.02-1.339.046-1.965.017-.312.032-.615.047-.9s.027-.547.024-.792A2.692,2.692,0,0,0,352,270.3a.726.726,0,0,0-.206-.249.274.274,0,0,0-.107-.052.64.64,0,0,0-.808.543c-.13.981-.574,7.225-.032,8.282,2.324,4.531,10.294,8.1,10.505,9.859C361.356,288.687,363.778,282.142,360.476,279.566Z" transform="translate(0 -17.377)" fill="#fff"/>
    </g>
  </g>
</svg>
