<svg xmlns="http://www.w3.org/2000/svg" width="40" height="40" viewBox="0 0 40 40">
  <g id="Environmentally_Sensitive" data-name="Environmentally Sensitive" transform="translate(-118 -321)">
    <rect id="Rectangle_1" data-name="Rectangle 1" width="40" height="40" rx="4" transform="translate(118 321)" fill="rgba(79,152,231,0.2)"/>
    <path id="Environmental" d="M-934.4-1770.809c1.436-1.12,2.981-1.913,4.159-2.687.36-.237,2.642-.905,1.862.645-.857,1.7-4.754,3.275-4.261,4.331.155.33,3.023-1.861,4.311-3.113.156-.144.33-.308.522-.49.365-.347.775-.764,1.2-1.235.1-.121.209-.242.309-.379.026-.035.051-.068.076-.107a.93.93,0,0,0,.07-.128,1.455,1.455,0,0,0,.068-.286,9.04,9.04,0,0,0,.059-1.015c0-.671-.019-1.34-.045-1.965-.016-.312-.032-.616-.048-.9s-.026-.547-.024-.793a2.712,2.712,0,0,1,.216-1.141.74.74,0,0,1,.206-.248.288.288,0,0,1,.106-.052.311.311,0,0,0-.119.027.669.669,0,0,0-.274.221,1.821,1.821,0,0,0-.255.484,3.617,3.617,0,0,0-.158.688,8.241,8.241,0,0,0-.053.823c0,.286,0,.589,0,.9s.013.637.018.966.019.659.027.993.02.664,0,.974a1.97,1.97,0,0,1-.022.2.581.581,0,0,1-.043.086.944.944,0,0,1-.059.094c-.084.129-.183.253-.276.374-.293.374-.588.716-.857,1.027.122-.88-.537-3.373-.091-5.463.179-.837.353-1.409.869-1.5,0,0-.2-1.092.4-1.433a.575.575,0,0,1,.9.543.64.64,0,0,1,.808.543c.13.981.575,7.225.033,8.282-2.324,4.531-10.294,8.1-10.5,9.859C-935.28-1761.689-937.7-1768.233-934.4-1770.809Zm-13.909-.739c-.542-1.057-.1-7.3.032-8.282a.64.64,0,0,1,.808-.543.281.281,0,0,1,.106.052.719.719,0,0,1,.206.248,2.685,2.685,0,0,1,.215,1.141c0,.246,0,.508-.023.793s-.031.589-.047.9c-.026.625-.049,1.293-.047,1.965a9.265,9.265,0,0,0,.059,1.015,1.464,1.464,0,0,0,.068.286.923.923,0,0,0,.069.128c.024.039.05.072.076.107.1.137.205.258.309.379.423.471.833.887,1.2,1.235.191.182.366.346.521.489,1.287,1.252,4.158,3.445,4.312,3.114.494-1.056-3.4-2.63-4.261-4.331-.78-1.551,1.5-.882,1.863-.645,1.177.773,2.723,1.567,4.159,2.687,3.3,2.577.88,9.121.88,9.121C-938.016-1763.449-945.986-1767.017-948.309-1771.548Zm11.977-3.469a36.528,36.528,0,0,0,3.785-.223q-.126,1.01-.306,2.031a7.467,7.467,0,0,1-3.479.964Zm-3.973,1.764c-.117-.668-.218-1.328-.3-1.987a36.584,36.584,0,0,0,3.856.224v2.771A7.468,7.468,0,0,1-940.306-1773.254Zm-5.946-.291c-.1-.121-.192-.245-.278-.374-.021-.031-.041-.062-.058-.094a.452.452,0,0,1-.042-.086,1.925,1.925,0,0,1-.023-.2c-.018-.31-.01-.644,0-.974s.018-.666.027-.993.012-.652.018-.966,0-.616,0-.9a7.994,7.994,0,0,0-.053-.823,3.552,3.552,0,0,0-.158-.688,1.819,1.819,0,0,0-.255-.484.668.668,0,0,0-.274-.221.313.313,0,0,0-.12-.027.576.576,0,0,1,.9-.543c.6.341.4,1.433.4,1.433.517.094.689.665.869,1.5.447,2.09-.213,4.583-.091,5.464C-945.664-1772.828-945.959-1773.171-946.252-1773.545Zm14.131-1.745q.9-.109,1.8-.262a7.542,7.542,0,0,1-2.064,2.053Q-932.231-1774.4-932.121-1775.29Zm-10.634-.248q.868.143,1.725.248.105.864.251,1.737A7.567,7.567,0,0,1-942.755-1775.538Zm2.1-.128a36.43,36.43,0,0,1-.231-3.87h4.136v4.1A36.62,36.62,0,0,1-940.654-1775.666Zm4.322-3.87h4.065a36.221,36.221,0,0,1-.231,3.87,36.288,36.288,0,0,1-3.834.23Zm4.483,0h2.806a7.446,7.446,0,0,1-.983,3.512c-.688.121-1.368.225-2.047.309A36.682,36.682,0,0,0-931.849-1779.536Zm-11.2,3.524a7.462,7.462,0,0,1-.99-3.524h2.736a36.92,36.92,0,0,0,.224,3.821Q-942.057-1775.837-943.049-1776.011Zm11.2-3.941a36.709,36.709,0,0,0-.223-3.821c.679.085,1.359.188,2.047.309a7.452,7.452,0,0,1,.983,3.512Zm-4.483,0v-4.1a36.288,36.288,0,0,1,3.834.23,36.25,36.25,0,0,1,.231,3.87Zm-4.553,0a36.429,36.429,0,0,1,.231-3.869,36.429,36.429,0,0,1,3.905-.232v4.1Zm-3.154,0a7.465,7.465,0,0,1,.99-3.524q.992-.174,1.97-.3a36.948,36.948,0,0,0-.224,3.821Zm-3.43-.42Zm15.348-3.826q-.109-.89-.26-1.789a7.527,7.527,0,0,1,2.064,2.052Q-931.223-1784.088-932.121-1784.2Zm-8.658-1.736q-.144.873-.251,1.736-.859.105-1.725.249A7.567,7.567,0,0,1-940.779-1785.935Zm4.447,1.465v-2.772a7.457,7.457,0,0,1,3.479.964q.18,1.023.306,2.03A36.526,36.526,0,0,0-936.332-1784.47Zm-3.973-1.764a7.477,7.477,0,0,1,3.557-1.008v2.771a36.614,36.614,0,0,0-3.856.223Q-940.483-1785.234-940.306-1786.234Zm10.3.142-.868-.22.868-.22.22-.869.221.869.868.22-.868.22-.221.869Zm-1.964-1.819-1.259-.319,1.259-.318.319-1.258.319,1.258,1.259.318-1.259.319-.319,1.26Z" transform="translate(1074.572 2116.806)" fill="#398feb" stroke="rgba(0,0,0,0)" stroke-miterlimit="10" stroke-width="1"/>
  </g>
</svg>
