<svg xmlns="http://www.w3.org/2000/svg" width="40" height="40" viewBox="0 0 40 40">
  <g id="Existing_Farm" data-name="Existing Farm" transform="translate(-118 -377)">
    <rect id="Rectangle_1" data-name="Rectangle 1" width="40" height="40" rx="4" transform="translate(118 377)" fill="rgba(0,143,1,0.2)"/>
    <path id="Eisting_Farm-icon" data-name="Eisting Farm-icon" d="M-143.3-2092.5a.219.219,0,0,1-.229-.205.219.219,0,0,1,.229-.205H-129.5a.218.218,0,0,1,.23.205.218.218,0,0,1-.23.205Zm-12.469-.035a.218.218,0,0,1-.23-.205.218.218,0,0,1,.23-.205h6.541a.22.22,0,0,1,.23.205.22.22,0,0,1-.23.205Zm.786-1.118a.218.218,0,0,1-.23-.205.218.218,0,0,1,.23-.205h19.951a.218.218,0,0,1,.23.205.218.218,0,0,1-.23.205Zm17.876-5.481a4.253,4.253,0,0,1,4.248-4.26,4.253,4.253,0,0,1,4.247,4.26,4.252,4.252,0,0,1-4.247,4.26A4.253,4.253,0,0,1-137.109-2099.138Zm2.857,0a1.384,1.384,0,0,0,1.38,1.384,1.384,1.384,0,0,0,1.38-1.384,1.384,1.384,0,0,0-1.38-1.383A1.384,1.384,0,0,0-134.251-2099.138Zm-21.749-.686a4.931,4.931,0,0,1,4.921-4.936,4.931,4.931,0,0,1,4.92,4.936,4.93,4.93,0,0,1-4.92,4.935A4.93,4.93,0,0,1-156-2099.824Zm3.041-.828a2.1,2.1,0,0,0-.174.828,2.055,2.055,0,0,0,2.054,2.059,2.061,2.061,0,0,0,2.053-2.059,2.1,2.1,0,0,0-.174-.828,2.063,2.063,0,0,0-1.879-1.231A2.046,2.046,0,0,0-152.959-2100.652Zm7.572,0a5.76,5.76,0,0,0-5.681-4.936,5.744,5.744,0,0,0-3.867,1.492v-2.984l2.454-2.255v-6.308h6.779a1.013,1.013,0,0,1,.913.6l2.347,5.709h4.932v-4.848h1.357v4.848h1.684a1.6,1.6,0,0,1,1.6,1.6v3.507a5.082,5.082,0,0,0-4.846,3.574Zm-5.692-8.683h6.833l-1.76-4.9h-5.072Zm19.8,2.605a.236.236,0,0,1-.236-.237v-3.356a2.725,2.725,0,0,0-.312-.356c.105-.012.209-.026.312-.048v-1.42a2.71,2.71,0,0,0-.314-.361,2.7,2.7,0,0,0,.313-.046v-1.422a2.8,2.8,0,0,0-.313-.358,2.777,2.777,0,0,0,.312-.048v-2.536a.235.235,0,0,1,.236-.236.235.235,0,0,1,.236.235v2.535a2.81,2.81,0,0,0,.314.049,2.7,2.7,0,0,0-.314.36v1.42a2.6,2.6,0,0,0,.314.047,2.63,2.63,0,0,0-.313.36v1.42a3.057,3.057,0,0,0,.312.048,2.72,2.72,0,0,0-.312.358v3.356a.236.236,0,0,1-.234.236Zm-1.019-2.594a2.26,2.26,0,0,1-.9-.292,2.249,2.249,0,0,1-.7-.636,2.278,2.278,0,0,1-.327-.659,2.151,2.151,0,0,1,.735-.048,2.882,2.882,0,0,1,.9.289,2.279,2.279,0,0,1,.7.636,2.263,2.263,0,0,1,.326.662,2.309,2.309,0,0,1-.514.058C-132.151-2109.313-132.225-2109.316-132.3-2109.324Zm1.3-.05a2.31,2.31,0,0,1,.326-.661,2.234,2.234,0,0,1,.688-.625l.016-.009a2.875,2.875,0,0,1,.9-.291,2.26,2.26,0,0,1,.734.048,2.277,2.277,0,0,1-.325.662,2.249,2.249,0,0,1-.7.635,2.216,2.216,0,0,1-.9.29q-.113.011-.227.011A2.211,2.211,0,0,1-131-2109.373Zm-1.3-1.778a2.2,2.2,0,0,1-.3-.051,2.561,2.561,0,0,0-.43-.151c-.057-.027-.114-.057-.169-.089a2.236,2.236,0,0,1-.7-.634l-.012-.015a2.23,2.23,0,0,1-.315-.646,2.287,2.287,0,0,1,.735-.048,2.906,2.906,0,0,1,.9.292,2.211,2.211,0,0,1,.7.636,2.222,2.222,0,0,1,.327.659,2.188,2.188,0,0,1-.51.06Q-132.186-2111.141-132.3-2111.152Zm1.3-.048a2.3,2.3,0,0,1,.325-.661,2.258,2.258,0,0,1,.7-.635,2.947,2.947,0,0,1,.9-.292,2.307,2.307,0,0,1,.734.05,2.25,2.25,0,0,1-.325.661,2.249,2.249,0,0,1-.7.635,2.973,2.973,0,0,1-.9.291,2.188,2.188,0,0,1-.219.011A2.35,2.35,0,0,1-131-2111.2Zm0-1.828a2.234,2.234,0,0,1,.325-.66,2.215,2.215,0,0,1,.7-.635c.055-.033.112-.061.168-.088a2.837,2.837,0,0,0,.433-.153,1.943,1.943,0,0,1,.3-.051,2.288,2.288,0,0,1,.735.05,2.236,2.236,0,0,1-.326.66,2.244,2.244,0,0,1-.7.635,2.947,2.947,0,0,1-.9.292q-.108.01-.215.01A2.289,2.289,0,0,1-130.994-2113.027Zm-1.3.049a1.93,1.93,0,0,1-.3-.051,2.64,2.64,0,0,0-.429-.151c-.057-.027-.113-.056-.169-.089a2.262,2.262,0,0,1-.7-.634,2.3,2.3,0,0,1-.326-.662,2.315,2.315,0,0,1,.735-.049,2.32,2.32,0,0,1,1.6.926,2.287,2.287,0,0,1,.326.661,2.307,2.307,0,0,1-.515.059Q-132.188-2112.968-132.3-2112.979Zm0-1.827a2.538,2.538,0,0,1-.3-.051,2.94,2.94,0,0,0-.429-.153c-.057-.026-.113-.056-.17-.086a2.243,2.243,0,0,1-.7-.636,2.224,2.224,0,0,1-.327-.661,2.3,2.3,0,0,1,.735-.048,2.252,2.252,0,0,1,.9.292,2.244,2.244,0,0,1,.7.635,2.26,2.26,0,0,1,.327.662,2.277,2.277,0,0,1-.513.059Q-132.187-2114.795-132.3-2114.806Zm1.3-.049a2.226,2.226,0,0,1,.327-.662,2.235,2.235,0,0,1,.7-.634,2.219,2.219,0,0,1,.9-.291,2.25,2.25,0,0,1,.736.048,2.246,2.246,0,0,1-.326.662,2.235,2.235,0,0,1-.7.634c-.056.031-.112.062-.168.088a2.836,2.836,0,0,0-.433.153,2.144,2.144,0,0,1-.3.049,2.193,2.193,0,0,1-.226.012A2.215,2.215,0,0,1-131-2114.854Zm-1.321-1.915v-1.188a.238.238,0,0,1,.237-.235.238.238,0,0,1,.237.237v1.186a.237.237,0,0,1-.237.236A.237.237,0,0,1-132.316-2116.77Zm1.769.235a.234.234,0,0,1-.236-.237v-1.185a.237.237,0,0,1,.237-.235.234.234,0,0,1,.237.236v1.185a.237.237,0,0,1-.235.236Z" transform="translate(279 2503)" fill="#008f01"/>
  </g>
</svg>
