<svg id="Farms" xmlns="http://www.w3.org/2000/svg" width="32" height="32" viewBox="0 0 32 32">
  <rect id="Rectangle_18607" data-name="Rectangle 18607" width="32" height="32" fill="none"/>
  <g id="Group_165799" data-name="Group 165799" transform="translate(5 7)">
    <g id="Group_165693" data-name="Group 165693" transform="translate(0 2.285)">
      <g id="_x31_68_x2C__agriculture_x2C__urban_x2C__ecology_x2C__environment_x2C__farming" transform="translate(0 14.652)">
        <g id="Group_165692" data-name="Group 165692" transform="translate(0 0)">
          <path id="Path_42853" data-name="Path 42853" d="M46.012,194.356Zm-16.929.831a.141.141,0,1,1,0-.279H43.109a.141.141,0,1,1,0,.279Zm8.214.785a.141.141,0,1,1,0-.279H47a.141.141,0,1,1,0,.279Zm10.7,0a.141.141,0,1,1,0-.279h1.213a.141.141,0,1,1,0,.279Zm-19.466-.024a.141.141,0,1,1,0-.279h4.6a.141.141,0,1,1,0,.279Z" transform="translate(-28.368 -194.356)" fill="#36512a" fill-rule="evenodd"/>
        </g>
      </g>
      <path id="tractor-agriculture-torque-construction-equipment-svgrepo-com" d="M15.32,14.446a2.995,2.995,0,1,0,2.995-3.006A3,3,0,0,0,15.32,14.446Zm2.014,0a.973.973,0,1,1,.973.976A.976.976,0,0,1,17.335,14.446ZM2,13.962A3.47,3.47,0,1,0,5.47,10.48,3.478,3.478,0,0,0,2,13.962Zm2.022,0a1.476,1.476,0,0,1,.123-.584,1.445,1.445,0,0,1,2.65,0,1.476,1.476,0,0,1,.123.584,1.448,1.448,0,1,1-2.9,0Zm5.461-.584h5.408a3.583,3.583,0,0,1,3.416-2.521V8.381a1.13,1.13,0,0,0-1.126-1.13H15.994V3.83h-.957V7.251H11.559L9.9,3.223A.714.714,0,0,0,9.261,2.8H4.482V7.251L2.751,8.842v2.106a4.049,4.049,0,0,1,6.733,2.429ZM5.47,7.251V3.792H9.047l1.241,3.459Z" transform="translate(-2 -2.8)" fill="#36512a"/>
    </g>
    <path id="Path_42854" data-name="Path 42854" d="M1.441,5.281a1.48,1.48,0,0,0-.475.161,1.549,1.549,0,0,0,.331.376,1.533,1.533,0,0,0,1.217.327,1.547,1.547,0,0,0,.475-.161,1.532,1.532,0,0,0-.9-.672,1.968,1.968,0,0,0-.644-.031M3.49,3.649a1.529,1.529,0,0,0-.351.541,1.551,1.551,0,0,0-.1.492,1.556,1.556,0,0,0,.492-.1,2.049,2.049,0,0,0,.541-.35A1.526,1.526,0,0,0,4.522,3.2a1.55,1.55,0,0,0-.492.1A1.979,1.979,0,0,0,3.49,3.649Zm-2.37.43a1.552,1.552,0,0,0-.475.161,1.529,1.529,0,0,0,.321.369l.01.008a1.523,1.523,0,0,0,.574.293c.042.012.085.021.127.029a1.766,1.766,0,0,1,.309.024,1.375,1.375,0,0,0,.208-.02,1.518,1.518,0,0,0,.474-.161,1.538,1.538,0,0,0-.9-.671A1.973,1.973,0,0,0,1.119,4.079Zm2.4-1.9a1.926,1.926,0,0,1-.258.177c-.033.027-.065.056-.1.088a1.516,1.516,0,0,0-.35.541,1.535,1.535,0,0,0-.1.491,1.545,1.545,0,0,0,.492-.1,1.993,1.993,0,0,0,.541-.351A1.527,1.527,0,0,0,4.2,2a1.549,1.549,0,0,0-.492.1A1.324,1.324,0,0,0,3.52,2.184ZM3.878.8A1.531,1.531,0,0,0,2.4,2.279a1.509,1.509,0,0,0,.492-.1A1.473,1.473,0,0,0,3.078,2.1a1.87,1.87,0,0,1,.257-.177c.033-.028.064-.058.1-.088A1.522,1.522,0,0,0,3.878.8Zm-3.4.878A1.554,1.554,0,0,0,0,1.837a1.537,1.537,0,0,0,.9.672c.042.011.085.02.127.027a1.915,1.915,0,0,1,.309.025,1.8,1.8,0,0,0,.208-.02,1.553,1.553,0,0,0,.475-.161,1.538,1.538,0,0,0-.9-.672A1.541,1.541,0,0,0,.475,1.676ZM.8,2.878a1.553,1.553,0,0,0-.475.161,1.552,1.552,0,0,0,.331.377,1.532,1.532,0,0,0,.574.293c.043.012.085.021.127.029a1.763,1.763,0,0,1,.309.024,1.375,1.375,0,0,0,.208-.02,1.552,1.552,0,0,0,.475-.161A1.551,1.551,0,0,0,2.015,3.2,1.574,1.574,0,0,0,.8,2.878Zm.895-1.864A.161.161,0,0,1,2,.93L2.448,2.6a1.949,1.949,0,0,0,.215-.024,1.814,1.814,0,0,0-.143.292l.25.934a1.7,1.7,0,0,0,.215-.025,1.873,1.873,0,0,0-.143.292L3.093,5a1.947,1.947,0,0,0,.214-.024,1.8,1.8,0,0,0-.142.291l.591,2.207a.161.161,0,0,1-.31.082L2.854,5.35a1.842,1.842,0,0,0-.268-.179c.067-.026.133-.054.2-.086l-.25-.934a1.9,1.9,0,0,0-.27-.182,2.034,2.034,0,0,0,.2-.085l-.25-.935a1.89,1.89,0,0,0-.269-.181,1.76,1.76,0,0,0,.2-.086ZM.982.472A.161.161,0,0,1,1.293.389l.209.78a.161.161,0,0,1-.31.083ZM1.99.2A.161.161,0,0,1,2.3.12L2.51.9A.161.161,0,0,1,2.2.981ZM4.844,4.4a1.547,1.547,0,0,0-.491.1,1.956,1.956,0,0,0-.541.35L3.8,4.859a1.515,1.515,0,0,0-.342.532,1.574,1.574,0,0,0-.1.492,1.538,1.538,0,0,0,1.384-.989A1.55,1.55,0,0,0,4.844,4.4Z" transform="matrix(0.966, 0.259, -0.259, 0.966, 15.869, 0)" fill="#848f6c" fill-rule="evenodd"/>
  </g>
</svg>
