<svg id="Fences" xmlns="http://www.w3.org/2000/svg" xmlns:xlink="http://www.w3.org/1999/xlink" width="32" height="32" viewBox="0 0 32 32">
  <defs>
    <clipPath id="clip-path">
      <rect id="Rectangle_18592" data-name="Rectangle 18592" width="24" height="24.001" fill="#36512a"/>
    </clipPath>
  </defs>
  <g id="Group_41563" data-name="Group 41563" transform="translate(4 4)" clip-path="url(#clip-path)">
    <path id="Path_37775" data-name="Path 37775" d="M5.717,24a.409.409,0,0,1-.409-.409V.409a.409.409,0,1,1,.819,0V23.591A.409.409,0,0,1,5.717,24" transform="translate(-2.277)" fill="#36512a"/>
    <path id="Path_37776" data-name="Path 37776" d="M15.709,24a.409.409,0,0,1-.409-.409V.409a.409.409,0,0,1,.819,0V23.591a.409.409,0,0,1-.409.409" transform="translate(-6.562)" fill="#36512a"/>
    <path id="Path_37777" data-name="Path 37777" d="M25.7,24a.409.409,0,0,1-.409-.409V.409a.409.409,0,0,1,.819,0V23.591A.409.409,0,0,1,25.7,24" transform="translate(-10.848)" fill="#36512a"/>
    <path id="Path_37778" data-name="Path 37778" d="M35.693,24a.409.409,0,0,1-.409-.409V.409a.409.409,0,1,1,.819,0V23.591a.409.409,0,0,1-.409.409" transform="translate(-15.134)" fill="#36512a"/>
    <path id="Path_37779" data-name="Path 37779" d="M23.591,6.126H.409a.409.409,0,1,1,0-.818H23.591a.409.409,0,1,1,0,.818" transform="translate(0 -2.277)" fill="#36512a"/>
    <path id="Path_37780" data-name="Path 37780" d="M23.591,16.119H.409a.409.409,0,1,1,0-.818H23.591a.409.409,0,1,1,0,.818" transform="translate(0 -6.563)" fill="#36512a"/>
    <path id="Path_37781" data-name="Path 37781" d="M23.591,26.111H.409a.409.409,0,1,1,0-.818H23.591a.409.409,0,1,1,0,.818" transform="translate(0 -10.848)" fill="#36512a"/>
    <path id="Path_37782" data-name="Path 37782" d="M23.591,36.1H.409a.409.409,0,1,1,0-.818H23.591a.409.409,0,1,1,0,.818" transform="translate(0 -15.134)" fill="#36512a"/>
    <path id="Path_37783" data-name="Path 37783" d="M4.427,6.31a.409.409,0,0,1-.29-.7L5.611,4.138a.409.409,0,0,1,.579.579L4.717,6.19a.409.409,0,0,1-.29.12" transform="translate(-1.723 -1.723)" fill="#36512a"/>
    <path id="Path_37784" data-name="Path 37784" d="M5.9,6.31a.408.408,0,0,1-.29-.12L4.138,4.717a.409.409,0,0,1,.579-.579L6.19,5.611a.409.409,0,0,1-.29.7" transform="translate(-1.723 -1.723)" fill="#36512a"/>
    <path id="Path_37785" data-name="Path 37785" d="M4.427,16.3a.409.409,0,0,1-.29-.7l1.473-1.473a.409.409,0,0,1,.579.579L4.717,16.183a.408.408,0,0,1-.29.12" transform="translate(-1.723 -6.009)" fill="#36512a"/>
    <path id="Path_37786" data-name="Path 37786" d="M5.9,16.3a.408.408,0,0,1-.29-.12L4.138,14.709a.409.409,0,0,1,.579-.579L6.19,15.6a.409.409,0,0,1-.29.7" transform="translate(-1.723 -6.009)" fill="#36512a"/>
    <path id="Path_37787" data-name="Path 37787" d="M4.427,26.295a.409.409,0,0,1-.29-.7l1.473-1.473a.409.409,0,0,1,.579.579L4.717,26.175a.408.408,0,0,1-.29.12" transform="translate(-1.723 -10.295)" fill="#36512a"/>
    <path id="Path_37788" data-name="Path 37788" d="M5.9,26.295a.408.408,0,0,1-.29-.12L4.138,24.7a.409.409,0,0,1,.579-.579L6.19,25.6a.409.409,0,0,1-.29.7" transform="translate(-1.723 -10.295)" fill="#36512a"/>
    <path id="Path_37789" data-name="Path 37789" d="M4.427,36.287a.409.409,0,0,1-.29-.7l1.473-1.473a.409.409,0,0,1,.579.579L4.717,36.167a.408.408,0,0,1-.29.12" transform="translate(-1.723 -14.581)" fill="#36512a"/>
    <path id="Path_37790" data-name="Path 37790" d="M5.9,36.287a.408.408,0,0,1-.29-.12L4.138,34.693a.409.409,0,0,1,.579-.579L6.19,35.588a.409.409,0,0,1-.29.7" transform="translate(-1.723 -14.581)" fill="#36512a"/>
    <path id="Path_37791" data-name="Path 37791" d="M14.419,6.31a.409.409,0,0,1-.29-.7L15.6,4.138a.409.409,0,1,1,.579.579L14.709,6.19a.408.408,0,0,1-.29.12" transform="translate(-6.009 -1.723)" fill="#36512a"/>
    <path id="Path_37792" data-name="Path 37792" d="M15.892,6.31a.408.408,0,0,1-.29-.12L14.13,4.717a.409.409,0,0,1,.579-.579l1.473,1.473a.409.409,0,0,1-.29.7" transform="translate(-6.009 -1.723)" fill="#36512a"/>
    <path id="Path_37793" data-name="Path 37793" d="M14.419,16.3a.409.409,0,0,1-.29-.7L15.6,14.131a.409.409,0,0,1,.579.579l-1.473,1.473a.408.408,0,0,1-.29.12" transform="translate(-6.009 -6.009)" fill="#36512a"/>
    <path id="Path_37794" data-name="Path 37794" d="M15.892,16.3a.408.408,0,0,1-.29-.12L14.13,14.709a.409.409,0,1,1,.579-.579L16.182,15.6a.409.409,0,0,1-.29.7" transform="translate(-6.009 -6.009)" fill="#36512a"/>
    <path id="Path_37795" data-name="Path 37795" d="M14.419,26.295a.409.409,0,0,1-.29-.7L15.6,24.123a.409.409,0,0,1,.579.579l-1.473,1.473a.408.408,0,0,1-.29.12" transform="translate(-6.009 -10.295)" fill="#36512a"/>
    <path id="Path_37796" data-name="Path 37796" d="M15.892,26.295a.408.408,0,0,1-.29-.12L14.13,24.7a.409.409,0,0,1,.579-.579L16.182,25.6a.409.409,0,0,1-.29.7" transform="translate(-6.009 -10.295)" fill="#36512a"/>
    <path id="Path_37797" data-name="Path 37797" d="M14.419,36.287a.409.409,0,0,1-.29-.7L15.6,34.115a.409.409,0,0,1,.579.579l-1.473,1.473a.408.408,0,0,1-.29.12" transform="translate(-6.009 -14.581)" fill="#36512a"/>
    <path id="Path_37798" data-name="Path 37798" d="M15.892,36.287a.408.408,0,0,1-.29-.12L14.13,34.693a.409.409,0,0,1,.579-.579l1.473,1.473a.409.409,0,0,1-.29.7" transform="translate(-6.009 -14.581)" fill="#36512a"/>
    <path id="Path_37799" data-name="Path 37799" d="M24.411,6.31a.409.409,0,0,1-.29-.7L25.6,4.138a.409.409,0,1,1,.579.579L24.7,6.19a.408.408,0,0,1-.29.12" transform="translate(-10.295 -1.723)" fill="#36512a"/>
    <path id="Path_37800" data-name="Path 37800" d="M25.885,6.31a.409.409,0,0,1-.29-.12L24.122,4.717a.409.409,0,0,1,.579-.579l1.473,1.473a.409.409,0,0,1-.29.7" transform="translate(-10.295 -1.723)" fill="#36512a"/>
    <path id="Path_37801" data-name="Path 37801" d="M24.411,16.3a.409.409,0,0,1-.29-.7L25.6,14.131a.409.409,0,1,1,.579.579L24.7,16.183a.408.408,0,0,1-.29.12" transform="translate(-10.295 -6.009)" fill="#36512a"/>
    <path id="Path_37802" data-name="Path 37802" d="M25.885,16.3a.409.409,0,0,1-.29-.12l-1.473-1.473a.409.409,0,1,1,.579-.579L26.174,15.6a.409.409,0,0,1-.29.7" transform="translate(-10.295 -6.009)" fill="#36512a"/>
    <path id="Path_37803" data-name="Path 37803" d="M24.411,26.295a.409.409,0,0,1-.29-.7L25.6,24.123a.409.409,0,1,1,.579.579L24.7,26.175a.408.408,0,0,1-.29.12" transform="translate(-10.295 -10.295)" fill="#36512a"/>
    <path id="Path_37804" data-name="Path 37804" d="M25.885,26.295a.409.409,0,0,1-.29-.12L24.122,24.7a.409.409,0,0,1,.579-.579L26.174,25.6a.409.409,0,0,1-.29.7" transform="translate(-10.295 -10.295)" fill="#36512a"/>
    <path id="Path_37805" data-name="Path 37805" d="M24.411,36.287a.409.409,0,0,1-.29-.7L25.6,34.115a.409.409,0,0,1,.579.579L24.7,36.167a.408.408,0,0,1-.29.12" transform="translate(-10.295 -14.581)" fill="#36512a"/>
    <path id="Path_37806" data-name="Path 37806" d="M25.885,36.287a.409.409,0,0,1-.29-.12l-1.473-1.473a.409.409,0,0,1,.579-.579l1.473,1.473a.409.409,0,0,1-.29.7" transform="translate(-10.295 -14.581)" fill="#36512a"/>
    <path id="Path_37807" data-name="Path 37807" d="M34.4,6.31a.409.409,0,0,1-.29-.7l1.473-1.473a.409.409,0,0,1,.579.579L34.693,6.19a.408.408,0,0,1-.29.12" transform="translate(-14.58 -1.723)" fill="#36512a"/>
    <path id="Path_37808" data-name="Path 37808" d="M35.877,6.31a.408.408,0,0,1-.29-.12L34.115,4.717a.409.409,0,0,1,.579-.579l1.473,1.473a.409.409,0,0,1-.29.7" transform="translate(-14.581 -1.723)" fill="#36512a"/>
    <path id="Path_37809" data-name="Path 37809" d="M34.4,16.3a.409.409,0,0,1-.29-.7l1.473-1.473a.409.409,0,0,1,.579.579l-1.473,1.473a.408.408,0,0,1-.29.12" transform="translate(-14.58 -6.009)" fill="#36512a"/>
    <path id="Path_37810" data-name="Path 37810" d="M35.877,16.3a.408.408,0,0,1-.29-.12l-1.473-1.473a.409.409,0,0,1,.579-.579L36.167,15.6a.409.409,0,0,1-.29.7" transform="translate(-14.581 -6.009)" fill="#36512a"/>
    <path id="Path_37811" data-name="Path 37811" d="M34.4,26.295a.409.409,0,0,1-.29-.7l1.473-1.473a.409.409,0,0,1,.579.579l-1.473,1.473a.408.408,0,0,1-.29.12" transform="translate(-14.58 -10.295)" fill="#36512a"/>
    <path id="Path_37812" data-name="Path 37812" d="M35.877,26.295a.408.408,0,0,1-.29-.12L34.115,24.7a.409.409,0,0,1,.579-.579L36.167,25.6a.409.409,0,0,1-.29.7" transform="translate(-14.581 -10.295)" fill="#36512a"/>
    <path id="Path_37813" data-name="Path 37813" d="M34.4,36.287a.409.409,0,0,1-.29-.7l1.473-1.473a.409.409,0,0,1,.579.579l-1.473,1.473a.408.408,0,0,1-.29.12" transform="translate(-14.58 -14.581)" fill="#36512a"/>
    <path id="Path_37814" data-name="Path 37814" d="M35.877,36.287a.408.408,0,0,1-.29-.12l-1.473-1.473a.409.409,0,0,1,.579-.579l1.473,1.473a.409.409,0,0,1-.29.7" transform="translate(-14.581 -14.581)" fill="#36512a"/>
  </g>
  <rect id="Rectangle_18608" data-name="Rectangle 18608" width="32" height="32" fill="none"/>
</svg>
