<svg id="Gates" xmlns="http://www.w3.org/2000/svg" width="32" height="32" viewBox="0 0 32 32">
  <g id="Group_165800" data-name="Group 165800" transform="translate(4 9)">
    <path id="Path_42933" data-name="Path 42933" d="M.537,2.569a22.66,22.66,0,0,0,3.055,0l-.343,1.1V14.413l-2.094-.275V3.393Z" fill="#c3c7b9"/>
    <path id="Path_42934" data-name="Path 42934" d="M-.177,2.569a34.494,34.494,0,0,0,3.77,0l-.343,1.1V14.413l-2.094-.275L.537,3.491Z" transform="translate(21)" fill="#c3c7b9"/>
    <path id="Path_37833" data-name="Path 37833" d="M25,2.547c-.145.343-.287.688-.438,1.029-.042.095-.09.225-.168.257-.232.1-.213.273-.208.461,0,.163,0,.326-.007.488a.334.334,0,0,1-.343.342.324.324,0,0,1-.363-.318c-.018-.273,0-.547,0-.833H22.183V14.057h1.27v-.3q0-3.65,0-7.3a1.622,1.622,0,0,1,.023-.315.353.353,0,0,1,.7.02,1.562,1.562,0,0,1,.012.243q0,3.87,0,7.739c0,.529-.134.661-.665.661H1.475c-.531,0-.665-.132-.666-.661q0-3.223,0-6.445c0-.378.114-.556.356-.561s.376.183.376.571q0,3,0,6.006v.337H2.805V3.979H1.554c0,.079-.011.164-.011.25,0,.529,0,1.058,0,1.587a1.732,1.732,0,0,1-.007.219.367.367,0,0,1-.382.36.352.352,0,0,1-.339-.377c-.005-.366,0-.732,0-1.1,0-.22-.007-.44,0-.659.007-.177.006-.334-.2-.414A.313.313,0,0,1,.48,3.679C.325,3.312.167,2.946.032,2.573A.446.446,0,0,1,.456,1.96c.162-.009.325,0,.512,0A1.348,1.348,0,0,1,1.521.195,1.247,1.247,0,0,1,2.947.257c.513.349.625.785.46,1.7.213,0,.422,0,.631,0a.458.458,0,0,1,.428.709c-.177.338-.372.667-.561,1-.02.035-.04.081-.072.1-.349.165-.273.48-.276.767,0,.185,0,.37,0,.565A4.766,4.766,0,0,0,6.995,3.839,14.237,14.237,0,0,1,8.347,2.646a4.4,4.4,0,0,1,2.427-.779c.164-.01.273-.028.342-.222a.76.76,0,0,1,.755-.517q.622-.011,1.245,0a.792.792,0,0,1,.782.553.245.245,0,0,0,.266.183,4.756,4.756,0,0,1,3.253,1.408,9.451,9.451,0,0,0,1.459,1.212,4.868,4.868,0,0,0,2.56.62c0-.367,0-.722,0-1.078a.142.142,0,0,0-.054-.1,3.5,3.5,0,0,1-.9-1.391c-.136-.253.11-.556.418-.574.226-.013.454,0,.705,0A1.344,1.344,0,0,1,22.125.21a1.294,1.294,0,0,1,1.489.068,1.4,1.4,0,0,1,.418,1.669c.345.034.747-.088.968.307ZM11.023,12.461H3.571v1.6h7.452Zm10.4,0H13.974v1.6h7.452ZM9.787,2.742v8.952h1.227V2.561l-1.227.181M15.213,11.7V2.741l-1.24-.177V11.7ZM9.027,3.118l-.072-.056c-.381.336-.77.665-1.139,1.014a.539.539,0,0,0-.147.353c-.008,2.341-.006,4.682-.006,7.024,0,.078.007.157.012.238H9.027Zm8.306,8.58v-.316c0-2.138-.02-4.276.014-6.414a1.355,1.355,0,0,0-.565-1.285c-.268-.185-.513-.4-.8-.638V11.7Zm-5.2,2.368v-.311q0-3.638,0-7.275a2.508,2.508,0,0,1,.01-.292.355.355,0,0,1,.705-.012,1.838,1.838,0,0,1,.016.291q0,3.65,0,7.3v.3h.345c0-.081.012-.152.012-.224q0-5.847,0-11.694c0-.294-.023-.311-.358-.262v.257q0,1.208,0,2.417a1.211,1.211,0,0,1-.028.29A.321.321,0,0,1,12.5,5.1a.325.325,0,0,1-.344-.284,1.493,1.493,0,0,1-.016-.267q0-1.208,0-2.417V1.881c-.352-.041-.369-.027-.369.289q0,5.823,0,11.646v.25ZM6.923,4.9c-.4.192-.769.388-1.156.55a.285.285,0,0,0-.212.314c.006,1.894,0,3.789,0,5.683,0,.078.007.157.011.24H6.923ZM19.437,11.7v-1.19q0-2.378,0-4.756c0-.082-.033-.211-.09-.239-.416-.21-.843-.4-1.264-.6V11.7Zm-14.628,0V5.732l-1.24.125v5.837Zm15.371,0h1.242V5.854l-1.242-.12ZM.871,2.7a3.373,3.373,0,0,0,.167.41.25.25,0,0,0,.181.109c.651.008,1.3.007,1.953,0a.25.25,0,0,0,.181-.08c.091-.131.159-.277.248-.441ZM24.1,2.7H21.4a2.059,2.059,0,0,1,.107.212.445.445,0,0,0,.517.317c.47-.028.944-.008,1.416-.008.5,0,.5,0,.667-.479,0-.007,0-.016-.006-.043" transform="translate(0 0)" fill="#36512a"/>
  </g>
  <rect id="Rectangle_18609" data-name="Rectangle 18609" width="32" height="32" fill="none"/>
</svg>
