<svg id="Governerates" xmlns="http://www.w3.org/2000/svg" width="32" height="32" viewBox="0 0 32 32">
  <g id="Group_41566" data-name="Group 41566" transform="translate(0 1)">
    <g id="Group_165795" data-name="Group 165795" transform="translate(4 4)">
      <path id="Union_52" data-name="Union 52" d="M-570.973-184.281l-9.026-.1L-569.382-190l11.032,5.853-9.66-.1a1.512,1.512,0,0,1-1.479,1.2A1.511,1.511,0,0,1-570.973-184.281Z" transform="translate(582 190.587)" fill="#c3c7b9"/>
      <rect id="Rectangle_150407" data-name="Rectangle 150407" width="3" height="11" transform="translate(5 8)" fill="#c3c7b9"/>
      <rect id="Rectangle_150408" data-name="Rectangle 150408" width="3" height="11" transform="translate(11 8)" fill="#c3c7b9"/>
      <rect id="Rectangle_150409" data-name="Rectangle 150409" width="3" height="11" transform="translate(17 8)" fill="#c3c7b9"/>
      <path id="Path_37815" data-name="Path 37815" d="M24.083,36.482H1.863a.43.43,0,0,1-.43-.43v-1.9a.43.43,0,0,1,.43-.43h22.22a.43.43,0,0,1,.43.43v1.9a.43.43,0,0,1-.43.43m-21.789-.86H23.653V34.584H2.294Z" transform="translate(-0.573 -13.482)" fill="#36512a"/>
      <path id="Path_37816" data-name="Path 37816" d="M23.684,33.319H3.855a.43.43,0,0,1-.43-.43v-1.9a.43.43,0,0,1,.43-.43H23.684a.43.43,0,0,1,.43.43v1.9a.43.43,0,0,1-.43.43m-19.4-.861H23.254V31.42H4.285Z" transform="translate(-1.369 -12.218)" fill="#36512a"/>
      <path id="Path_37817" data-name="Path 37817" d="M24.37,37.747H.43a.43.43,0,1,1,0-.86H24.37a.43.43,0,1,1,0,.86" transform="translate(0 -14.747)" fill="#36512a"/>
      <path id="Path_37818" data-name="Path 37818" d="M10.185,24.58H7.53a.43.43,0,0,1-.43-.43V13.882a.43.43,0,0,1,.43-.43h2.655a.43.43,0,0,1,.43.43V24.151a.43.43,0,0,1-.43.43M7.96,23.72H9.755V14.313H7.96Z" transform="translate(-2.839 -5.378)" fill="#36512a"/>
      <path id="Path_37819" data-name="Path 37819" d="M20.817,24.58H18.162a.43.43,0,0,1-.43-.43V13.882a.43.43,0,0,1,.43-.43h2.655a.43.43,0,0,1,.43.43V24.151a.43.43,0,0,1-.43.43m-2.225-.86h1.795V14.313H18.592Z" transform="translate(-7.089 -5.378)" fill="#36512a"/>
      <path id="Path_37820" data-name="Path 37820" d="M31.448,24.58H28.794a.43.43,0,0,1-.43-.43V13.882a.43.43,0,0,1,.43-.43h2.654a.43.43,0,0,1,.43.43V24.151a.43.43,0,0,1-.43.43m-2.224-.86h1.794V14.313H29.224Z" transform="translate(-11.34 -5.378)" fill="#36512a"/>
      <path id="Path_37821" data-name="Path 37821" d="M24.37,7.036H13.588a.43.43,0,0,1-.4-.275c-.064-.166-1.8.275-1.974.275H.43a.43.43,0,0,1-.2-.812L12.2.048a.428.428,0,0,1,.394,0l11.97,6.176a.43.43,0,0,1-.2.812m-9.952-.86H22.6L12.4.914,2.2,6.175h8.18a2.176,2.176,0,0,1-.188-.882,2.206,2.206,0,0,1,4.412,0,2.176,2.176,0,0,1-.188.882" transform="translate(0 0)" fill="#36512a"/>
      <path id="Path_37822" data-name="Path 37822" d="M23.684,13.048H3.855a.429.429,0,0,1-.43-.43v-1.9a.43.43,0,0,1,.43-.43h8.727a.43.43,0,0,1,.289.111,1.357,1.357,0,0,0,1.8,0,.43.43,0,0,1,.289-.111h8.727a.43.43,0,0,1,.43.43v1.9a.43.43,0,0,1-.43.43m-19.4-.86H23.254V11.149H15.113a2.229,2.229,0,0,1-2.687,0H4.285Z" transform="translate(-1.369 -4.113)" fill="#36512a"/>
      <path id="Path_37823" data-name="Path 37823" d="M15.68,19.939H11.953c-.238,0-.43-.586-.43-1.309s.193-1.307.43-1.307H15.68c.238,0,.43.584.43,1.307s-.193,1.309-.43,1.309" transform="translate(-4.607 -8.681)" fill="#36512a"/>
      <path id="Path_37824" data-name="Path 37824" d="M26.312,19.646H22.585c-.238,0-.43-.52-.43-1.163s.193-1.161.43-1.161h3.727c.238,0,.43.519.43,1.161s-.193,1.163-.43,1.163" transform="translate(-8.857 -8.389)" fill="#36512a"/>
    </g>
  </g>
  <rect id="Rectangle_18602" data-name="Rectangle 18602" width="32" height="32" fill="none"/>
</svg>
