<svg xmlns="http://www.w3.org/2000/svg" xmlns:xlink="http://www.w3.org/1999/xlink" width="58" height="58" viewBox="0 0 58 58">
  <defs>
    <filter id="Rectangle_1" x="0" y="0" width="58" height="58" filterUnits="userSpaceOnUse">
      <feOffset dy="3" input="SourceAlpha"/>
      <feGaussianBlur stdDeviation="3" result="blur"/>
      <feFlood flood-opacity="0.161"/>
      <feComposite operator="in" in2="blur"/>
      <feComposite in="SourceGraphic"/>
    </filter>
  </defs>
  <g id="Group_165973" data-name="Group 165973" transform="translate(-109 -429)">
    <g transform="matrix(1, 0, 0, 1, 109, 429)" filter="url(#Rectangle_1)">
      <g id="Rectangle_1-2" data-name="Rectangle 1" transform="translate(9 6)" fill="#043367" stroke="#ede9df" stroke-width="2">
        <rect width="40" height="40" rx="20" stroke="none"/>
        <rect x="1" y="1" width="38" height="38" rx="19" fill="none"/>
      </g>
    </g>
    <g id="Group_165810" data-name="Group 165810" transform="translate(21.5 270.724)">
      <g id="Group_165809" data-name="Group 165809" transform="translate(103.5 171.276)">
        <path id="Path_42980" data-name="Path 42980" d="M127.751,185.9h-4.68a.329.329,0,0,0-.329.329v1.122a.329.329,0,0,0,.329.329h.824v7.116h-.824a.329.329,0,0,0-.329.329v1.122a.329.329,0,0,0,.329.329h4.68a.329.329,0,0,0,.329-.329V195.12a.329.329,0,0,0-.329-.329h-.824v-7.116h.824a.329.329,0,0,0,.329-.329v-1.122A.329.329,0,0,0,127.751,185.9Zm-19.079,0h-4.68a.329.329,0,0,0-.329.329v1.122a.329.329,0,0,0,.329.329h.566v7.116h-.566a.329.329,0,0,0-.329.329v1.122a.329.329,0,0,0,.329.329h4.68a.329.329,0,0,0,.329-.329V195.12a.329.329,0,0,0-.329-.329h-.566v-7.116h.566a.329.329,0,0,0,.329-.329v-1.122A.329.329,0,0,0,108.672,185.9Zm18.841-3.767h-4.934v-2.154a6.577,6.577,0,0,0-5.757-6.522V172.1a.822.822,0,1,0-1.645,0v1.353a6.577,6.577,0,0,0-5.757,6.522h0v2.154h-4.934a.987.987,0,1,0,0,1.974h6.908a.987.987,0,0,0,.643-.238l3.748-3.213a.328.328,0,0,1,.428,0l3.749,3.214a.987.987,0,0,0,.643.238h6.908a.987.987,0,0,0,0-1.974Z" transform="translate(-103.5 -171.276)" fill="#ede9df"/>
        <path id="Path_42981" data-name="Path 42981" d="M125.845,193.145l-6.009-5.151a.463.463,0,0,0-.6,0l-6.009,5.151a.461.461,0,0,0-.161.351v.637a.343.343,0,0,0,.343.343h1.328v5.486h-1.029a.343.343,0,0,0-.343.343v2.213a.343.343,0,0,0,.343.343h11.658a.343.343,0,0,0,.343-.343V200.3a.343.343,0,0,0-.343-.343h-1.029v-5.486h1.329a.343.343,0,0,0,.343-.343V193.5A.461.461,0,0,0,125.845,193.145Zm-4.253,6.817h-4.115v-5.486h4.115Z" transform="translate(-107.035 -177.566)" fill="#ede9df"/>
      </g>
    </g>
  </g>
</svg>
