<svg xmlns="http://www.w3.org/2000/svg" width="40" height="40" viewBox="0 0 40 40">
  <g id="Government_Services" data-name="Government Services" transform="translate(-118 -435)">
    <rect id="Rectangle_1" data-name="Rectangle 1" width="40" height="40" rx="4" transform="translate(118 435)" fill="rgba(4,51,103,0.2)"/>
    <path id="Government-icon" d="M-138.429-2151.7a.329.329,0,0,1-.329-.329v-1.121a.329.329,0,0,1,.329-.329h.824v-7.116h-.824a.328.328,0,0,1-.329-.328v-1.122a.329.329,0,0,1,.329-.329h4.68a.329.329,0,0,1,.329.329v1.122a.329.329,0,0,1-.329.328h-.824v7.116h.824a.329.329,0,0,1,.329.329v1.121a.329.329,0,0,1-.329.329Zm-12.9,0a.343.343,0,0,1-.343-.343v-2.213a.343.343,0,0,1,.343-.343h1.029v-5.486h-1.328a.342.342,0,0,1-.343-.343v-.637a.462.462,0,0,1,.161-.351l6.009-5.151a.462.462,0,0,1,.6,0l6.009,5.151a.463.463,0,0,1,.162.351v.637a.343.343,0,0,1-.343.343H-140.7v5.486h1.029a.344.344,0,0,1,.343.343v2.213a.343.343,0,0,1-.343.343Zm3.771-2.9h4.115v-5.486h-4.115Zm-9.95,2.9a.329.329,0,0,1-.329-.329v-1.121a.329.329,0,0,1,.329-.329h.567v-7.116h-.567a.328.328,0,0,1-.329-.328v-1.122a.329.329,0,0,1,.329-.329h4.68a.329.329,0,0,1,.329.329v1.122a.328.328,0,0,1-.329.328h-.567v7.116h.567a.329.329,0,0,1,.329.329v1.121a.329.329,0,0,1-.329.329Zm16.613-12.469a.984.984,0,0,1-.643-.239l-3.749-3.214a.329.329,0,0,0-.428,0l-3.748,3.213a.985.985,0,0,1-.644.239h-6.908a.988.988,0,0,1-.987-.987.987.987,0,0,1,.987-.986h4.934v-2.154a6.577,6.577,0,0,1,5.757-6.522v-1.354a.823.823,0,0,1,.822-.823.823.823,0,0,1,.823.823v1.354a6.576,6.576,0,0,1,5.756,6.522v2.154h4.935a.986.986,0,0,1,.986.986.987.987,0,0,1-.986.987Z" transform="translate(283 2619)" fill="#043367" stroke="rgba(0,0,0,0)" stroke-miterlimit="10" stroke-width="1"/>
  </g>
</svg>
