<svg xmlns="http://www.w3.org/2000/svg" width="32" height="32" viewBox="0 0 32 32">
  <g id="Group_165788" data-name="Group 165788" transform="translate(-0.499 -0.213)">
    <g id="Plots" transform="translate(0.499 0.213)">
      <rect id="Rectangle_18573" data-name="Rectangle 18573" width="32" height="32" fill="none"/>
      <g id="Group_41552" data-name="Group 41552" transform="translate(4 4)">
        <g id="Path" fill="#c3c7b9" stroke-miterlimit="10">
          <path d="M 22.75000381469727 22.75001525878906 L 0.2500038146972656 22.75001525878906 L 0.2500038146972656 0.250004768371582 L 22.75000381469727 0.250004768371582 L 22.75000381469727 22.75001525878906 Z" stroke="none"/>
          <path d="M 0.5000038146972656 0.4999942779541016 L 0.5000038146972656 22.50000381469727 L 22.50000381469727 22.50000381469727 L 22.50000381469727 0.4999942779541016 L 0.5000038146972656 0.4999942779541016 M 3.814697265625e-06 -5.7220458984375e-06 L 23.00000381469727 -5.7220458984375e-06 L 23.00000381469727 23.00000381469727 L 3.814697265625e-06 23.00000381469727 L 3.814697265625e-06 -5.7220458984375e-06 Z" stroke="none" fill="#36512a"/>
        </g>
        <g id="heat-chart-32" transform="translate(0.885 0.885)" fill="#36512a" stroke-miterlimit="10">
          <path d="M 20.98099899291992 20.98099899291992 L 17.05749893188477 20.98099899291992 L 17.05749893188477 12.6348991394043 L 19.21159934997559 12.6348991394043 L 19.21159934997559 18.5768985748291 L 19.21159934997559 18.8268985748291 L 19.46159934997559 18.8268985748291 L 20.98099899291992 18.8268985748291 L 20.98099899291992 20.98099899291992 Z M 13.01959991455078 20.98099899291992 L 7.326699733734131 20.98099899291992 L 7.326699733734131 17.69219970703125 L 7.326699733734131 17.44219970703125 L 7.076699733734131 17.44219970703125 L 4.672599315643311 17.44219970703125 L 4.672599315643311 15.03809928894043 L 4.672599315643311 14.78809928894043 L 4.422599315643311 14.78809928894043 L 0.2499994933605194 14.78809928894043 L 0.2499994933605194 12.6348991394043 L 6.826699733734131 12.6348991394043 L 6.826699733734131 15.03809928894043 L 6.826699733734131 15.28809928894043 L 7.076699733734131 15.28809928894043 L 9.480799674987793 15.28809928894043 L 9.480799674987793 17.69219970703125 L 9.480799674987793 17.94219970703125 L 9.730799674987793 17.94219970703125 L 13.01959991455078 17.94219970703125 L 13.01959991455078 20.98099899291992 Z M 16.55749893188477 12.13582897186279 L 13.51959991455078 12.13496971130371 L 13.51959991455078 9.980799674987793 L 16.55749893188477 9.980799674987793 L 16.55749893188477 12.13582897186279 Z M 20.98099899291992 12.13575839996338 L 19.71159934997559 12.13504123687744 L 19.71159934997559 9.980799674987793 L 20.98099899291992 9.980799674987793 L 20.98099899291992 12.13575839996338 Z M 13.01959991455078 9.481759071350098 L 7.326699733734131 9.480839729309082 L 7.326699733734131 7.076699733734131 L 7.326699733734131 6.826699733734131 L 7.076699733734131 6.826699733734131 L 4.422599315643311 6.826699733734131 L 4.172599315643311 6.826699733734131 L 4.172599315643311 7.076699733734131 L 4.172599315643311 9.480799674987793 L 0.2499994933605194 9.480799674987793 L 0.2499994933605194 2.904099464416504 L 7.076699733734131 2.904099464416504 L 7.326699733734131 2.904099464416504 L 7.326699733734131 2.654099464416504 L 7.326699733734131 0.2499994933605194 L 13.01959991455078 0.2499994933605194 L 13.01959991455078 3.288799524307251 L 10.61549949645996 3.288799524307251 L 10.36549949645996 3.288799524307251 L 10.36549949645996 3.538799524307251 L 10.36549949645996 6.191999435424805 L 10.36549949645996 6.441999435424805 L 10.61549949645996 6.441999435424805 L 13.01959991455078 6.441999435424805 L 13.01959991455078 9.481759071350098 Z M 19.21159934997559 9.481705665588379 L 17.05749893188477 9.480894088745117 L 17.05749893188477 0.2499994933605194 L 19.21159934997559 0.2499994933605194 L 19.21159934997559 9.481705665588379 Z" stroke="none"/>
          <path d="M 20.73099899291992 20.73099899291992 L 20.73099899291992 19.0768985748291 L 18.96159934997559 19.0768985748291 L 18.96159934997559 12.8848991394043 L 17.30749893188477 12.8848991394043 L 17.30749893188477 20.73099899291992 L 20.73099899291992 20.73099899291992 M 12.76959991455078 20.73099899291992 L 12.76959991455078 18.19219970703125 L 9.230799674987793 18.19219970703125 L 9.230799674987793 15.53809928894043 L 6.576699733734131 15.53809928894043 L 6.576699733734131 12.8848991394043 L 0.4999994933605194 12.8848991394043 L 0.4999994933605194 14.53809928894043 L 4.922599315643311 14.53809928894043 L 4.922599315643311 17.19219970703125 L 7.576699733734131 17.19219970703125 L 7.576699733734131 20.73099899291992 L 12.76959991455078 20.73099899291992 M 16.30749893188477 11.88575839996338 L 16.30749893188477 10.23079967498779 L 13.76959991455078 10.23079967498779 L 13.76959991455078 11.88504123687744 L 16.30749893188477 11.88575839996338 M 20.73099899291992 11.88561725616455 L 20.73099899291992 10.23079967498779 L 19.96159934997559 10.23079967498779 L 19.96159934997559 11.88518238067627 L 20.73099899291992 11.88561725616455 M 12.76959991455078 9.231719017028809 L 12.76959991455078 6.691999435424805 L 10.11549949645996 6.691999435424805 L 10.11549949645996 3.038799524307251 L 12.76959991455078 3.038799524307251 L 12.76959991455078 0.4999994933605194 L 7.576699733734131 0.4999994933605194 L 7.576699733734131 3.154099464416504 L 0.4999994933605194 3.154099464416504 L 0.4999994933605194 9.230799674987793 L 3.92259955406189 9.230799674987793 L 3.92259955406189 6.576699733734131 L 7.576699733734131 6.576699733734131 L 7.576699733734131 9.230879783630371 L 12.76959991455078 9.231719017028809 M 18.96159934997559 9.231611251831055 L 18.96159934997559 0.4999994933605194 L 17.30749893188477 0.4999994933605194 L 17.30749893188477 9.230987548828125 L 18.96159934997559 9.231611251831055 M 21.23099899291992 21.23099899291992 L 16.80749893188477 21.23099899291992 L 16.80649948120117 12.38589954376221 L 13.26959991455078 12.3848991394043 L 13.26859951019287 9.731799125671387 L 7.076699733734131 9.730799674987793 L 7.076699733734131 7.076699733734131 L 4.422599315643311 7.076699733734131 L 4.422599315643311 9.730799674987793 L -5.035400363340159e-07 9.730799674987793 L -5.035400363340159e-07 2.654099464416504 L 7.076699733734131 2.654099464416504 L 7.076699733734131 -5.035400363340159e-07 L 13.26959991455078 -5.035400363340159e-07 L 13.26959991455078 3.538799524307251 L 10.61549949645996 3.538799524307251 L 10.61549949645996 6.191999435424805 L 13.26959991455078 6.191999435424805 L 13.26959991455078 9.730799674987793 L 16.80749893188477 9.730799674987793 L 16.80749893188477 12.3848991394043 L 19.46159934997559 12.3848991394043 L 19.46159934997559 18.5768985748291 L 21.23099899291992 18.5768985748291 L 21.23099899291992 21.23099899291992 Z M 13.26959991455078 21.23099899291992 L 7.076699733734131 21.23099899291992 L 7.076699733734131 17.69219970703125 L 4.422599315643311 17.69219970703125 L 4.422599315643311 15.03809928894043 L -5.035400363340159e-07 15.03809928894043 L -5.035400363340159e-07 12.3848991394043 L 7.076699733734131 12.3848991394043 L 7.076699733734131 15.03809928894043 L 9.730799674987793 15.03809928894043 L 9.730799674987793 17.69219970703125 L 13.26959991455078 17.69219970703125 L 13.26959991455078 21.23099899291992 Z M 21.23099899291992 12.38589954376221 L 19.46159934997559 12.3848991394043 L 19.46059989929199 9.731799125671387 L 16.80749893188477 9.730799674987793 L 16.80749893188477 -5.035400363340159e-07 L 19.46159934997559 -5.035400363340159e-07 L 19.46159934997559 9.730799674987793 L 21.23099899291992 9.730799674987793 L 21.23099899291992 12.38589954376221 Z" stroke="none" fill="#b8bfb5"/>
        </g>
      </g>
    </g>
  </g>
</svg>
