<svg xmlns="http://www.w3.org/2000/svg" width="40" height="40" viewBox="0 0 40 40">
  <g id="Health_Services" data-name="Health Services" transform="translate(-118 -495)">
    <rect id="Rectangle_1" data-name="Rectangle 1" width="40" height="40" rx="4" transform="translate(118 495)" fill="rgba(17,68,124,0.2)"/>
    <path id="Hospital-icon" d="M-136.642-2216.028a.306.306,0,0,1-.31-.3v-4.531h2.476a.306.306,0,0,0,.309-.3v-1.813a.305.305,0,0,0-.309-.3h-2.476v-2.417h2.476a.306.306,0,0,0,.309-.3v-1.813a.305.305,0,0,0-.309-.3h-2.476v-2.115a.306.306,0,0,1,.31-.3h3.713a.306.306,0,0,1,.31.3v13.9a.306.306,0,0,1-.31.3Zm-14.05,0a.3.3,0,0,1-.284-.31v-19.806h-.284a.894.894,0,0,1-.854-.928.894.894,0,0,1,.854-.929h12.526a.894.894,0,0,1,.854.929.893.893,0,0,1-.854.928h-.284v19.806a.3.3,0,0,1-.284.31Zm7.009-9.594v6.809a.3.3,0,0,0,.284.31h1.926a.3.3,0,0,0,.284-.31v-6.809a.3.3,0,0,0-.284-.31H-143.4A.3.3,0,0,0-143.682-2225.622Zm-5.125,0v6.809a.3.3,0,0,0,.284.31h1.926a.3.3,0,0,0,.284-.31v-6.809a.3.3,0,0,0-.284-.31h-1.926A.3.3,0,0,0-148.807-2225.622Zm4.773-5.106v1.857h1.708v-5.57h-1.708v1.857h-1.708v-1.857h-1.708v5.57h1.708v-1.857Zm-13.037,14.7a.306.306,0,0,1-.31-.3v-13.9a.306.306,0,0,1,.31-.3h3.713a.306.306,0,0,1,.31.3v2.115h-2.471a.306.306,0,0,0-.31.3V-2226a.306.306,0,0,0,.31.3h2.471v2.417h-2.471a.306.306,0,0,0-.31.3v1.813a.306.306,0,0,0,.31.3h2.471v4.531a.306.306,0,0,1-.31.3Zm20.12-16.009v-1.813h4.023a.917.917,0,0,1,.928.906.917.917,0,0,1-.928.906Zm-20.12,0a.918.918,0,0,1-.929-.906.918.918,0,0,1,.929-.906h4.023v1.813Z" transform="translate(283 2742)" fill="#11447c" stroke="rgba(0,0,0,0)" stroke-miterlimit="10" stroke-width="1"/>
  </g>
</svg>
