<svg xmlns="http://www.w3.org/2000/svg" xmlns:xlink="http://www.w3.org/1999/xlink" width="58" height="58" viewBox="0 0 58 58">
  <defs>
    <filter id="Rectangle_1" x="0" y="0" width="58" height="58" filterUnits="userSpaceOnUse">
      <feOffset dy="3" input="SourceAlpha"/>
      <feGaussianBlur stdDeviation="3" result="blur"/>
      <feFlood flood-opacity="0.161"/>
      <feComposite operator="in" in2="blur"/>
      <feComposite in="SourceGraphic"/>
    </filter>
  </defs>
  <g id="Group_165974" data-name="Group 165974" transform="translate(-109 -489)">
    <g transform="matrix(1, 0, 0, 1, 109, 489)" filter="url(#Rectangle_1)">
      <g id="Rectangle_1-2" data-name="Rectangle 1" transform="translate(9 6)" fill="#11447c" stroke="#ede9df" stroke-width="2">
        <rect width="40" height="40" rx="20" stroke="none"/>
        <rect x="1" y="1" width="38" height="38" rx="19" fill="none"/>
      </g>
    </g>
    <g id="Group_165808" data-name="Group 165808" transform="translate(-112.496 398.25)">
      <g id="Group_165807" data-name="Group 165807" transform="translate(237.496 104.75)">
        <path id="Path_42978" data-name="Path 42978" d="M242.138,114.073h-3.714a.306.306,0,0,0-.309.3V128.27a.306.306,0,0,0,.309.3h3.714a.306.306,0,0,0,.309-.3v-4.531h-2.471a.306.306,0,0,1-.309-.3v-1.812a.306.306,0,0,1,.309-.3h2.471v-2.416h-2.471a.306.306,0,0,1-.309-.3v-1.812a.306.306,0,0,1,.309-.3h2.471v-2.114A.306.306,0,0,0,242.138,114.073Zm-4.642-2.416a.917.917,0,0,0,.928.906h4.023V110.75h-4.023A.917.917,0,0,0,237.5,111.656Zm25.072,2.416h-3.714a.306.306,0,0,0-.309.3v2.114h2.476a.306.306,0,0,1,.309.3V118.6a.306.306,0,0,1-.309.3h-2.476v2.416h2.476a.306.306,0,0,1,.309.3v1.812a.306.306,0,0,1-.309.3h-2.476v4.531a.306.306,0,0,0,.309.3h3.714a.306.306,0,0,0,.309-.3V114.375A.306.306,0,0,0,262.568,114.073Zm0-3.323h-4.023v1.812h4.023a.906.906,0,1,0,0-1.812Z" transform="translate(-237.496 -106.6)" fill="#ede9df"/>
        <path id="Path_42979" data-name="Path 42979" d="M259.385,104.75H246.858a.932.932,0,0,0,0,1.857h.285v19.806a.3.3,0,0,0,.285.309h11.388a.3.3,0,0,0,.285-.309V106.607h.285a.932.932,0,0,0,0-1.857Zm-7.578,19.187a.3.3,0,0,1-.285.309H249.6a.3.3,0,0,1-.285-.309v-6.808a.3.3,0,0,1,.285-.309h1.926a.3.3,0,0,1,.285.309Zm.569-11.914v1.857h-1.708v-5.57h1.708v1.857h1.708v-1.857h1.708v5.57h-1.708v-1.857Zm4.555,11.914a.3.3,0,0,1-.285.309h-1.926a.3.3,0,0,1-.285-.309v-6.808a.3.3,0,0,1,.285-.309h1.926a.3.3,0,0,1,.285.309Z" transform="translate(-240.119 -104.75)" fill="#ede9df"/>
      </g>
    </g>
  </g>
</svg>
