<svg xmlns="http://www.w3.org/2000/svg" xmlns:xlink="http://www.w3.org/1999/xlink" width="58" height="58" viewBox="0 0 58 58">
  <defs>
    <filter id="Rectangle_1" x="0" y="0" width="58" height="58" filterUnits="userSpaceOnUse">
      <feOffset dy="3" input="SourceAlpha"/>
      <feGaussianBlur stdDeviation="3" result="blur"/>
      <feFlood flood-opacity="0.161"/>
      <feComposite operator="in" in2="blur"/>
      <feComposite in="SourceGraphic"/>
    </filter>
  </defs>
  <g id="Group_165975" data-name="Group 165975" transform="translate(-109 -549)">
    <g transform="matrix(1, 0, 0, 1, 109, 549)" filter="url(#Rectangle_1)">
      <g id="Rectangle_1-2" data-name="Rectangle 1" transform="translate(9 6)" fill="#7d6e0f" stroke="#ede9df" stroke-width="2">
        <rect width="40" height="40" rx="20" stroke="none"/>
        <rect x="1" y="1" width="38" height="38" rx="19" fill="none"/>
      </g>
    </g>
    <g id="old-museum-relic-svgrepo-com" transform="translate(125 564)">
      <g id="Group_165688" data-name="Group 165688" transform="translate(0 0)">
        <rect id="Rectangle_150269" data-name="Rectangle 150269" width="0.682" height="2.251" transform="translate(14.536 15.174)" fill="#ede9df" opacity="0.35"/>
        <rect id="Rectangle_150270" data-name="Rectangle 150270" width="0.682" height="2.251" transform="translate(14.536 7.45)" fill="#ede9df" opacity="0.35"/>
        <rect id="Rectangle_150271" data-name="Rectangle 150271" width="0.682" height="2.251" transform="translate(6.816 15.174)" fill="#ede9df" opacity="0.35"/>
        <rect id="Rectangle_150272" data-name="Rectangle 150272" width="0.682" height="2.251" transform="translate(14.536 3.282)" fill="#ede9df" opacity="0.35"/>
        <rect id="Rectangle_150273" data-name="Rectangle 150273" width="0.682" height="2.251" transform="translate(10.502 11.005)" fill="#ede9df" opacity="0.35"/>
        <rect id="Rectangle_150274" data-name="Rectangle 150274" width="0.682" height="2.251" transform="translate(10.502 15.174)" fill="#ede9df" opacity="0.35"/>
        <rect id="Rectangle_150275" data-name="Rectangle 150275" width="0.682" height="2.251" transform="translate(18.153 15.174)" fill="#ede9df" opacity="0.35"/>
        <rect id="Rectangle_150276" data-name="Rectangle 150276" width="0.682" height="2.251" transform="translate(18.153 11.005)" fill="#ede9df" opacity="0.35"/>
        <path id="Path_42792" data-name="Path 42792" d="M25.583,43.587h-.591V38.618a.413.413,0,0,0-.417-.408h-.132l-.342-4.83a.407.407,0,0,0-.165-.3l-.916-.678a.422.422,0,0,0-.424-.046.408.408,0,0,0-.244.343L22,37.733H20.662l-.337-1.581a.414.414,0,0,0-.384-.324l-.591-.034a.419.419,0,0,0-.31.111.4.4,0,0,0-.131.3v.919h-.348v-4.8a.4.4,0,0,0-.152-.315l-.821-.66V28.579a.412.412,0,0,0-.353-.4l-1.112-.17a.434.434,0,0,0-.265.046l-2.8,1.506-1.06.26a.41.41,0,0,0-.313.35L11.459,32.1,7.3,34.985a.4.4,0,0,0-.176.333v3.046H5.179a.417.417,0,0,0-.4.308l-1.136,4.4L1.4,44.249a.409.409,0,0,0-.213.284L.741,46.855H.417A.413.413,0,0,0,0,47.263v1.532a.413.413,0,0,0,.417.408H25.583A.413.413,0,0,0,26,48.795V44A.413.413,0,0,0,25.583,43.587ZM8.342,45.833a.413.413,0,0,1-.417.408H6.4a.413.413,0,0,1-.417-.408V42.77a.413.413,0,0,1,.417-.408H7.925a.413.413,0,0,1,.417.408Zm3.684,0a.413.413,0,0,1-.417.408h-1.53a.413.413,0,0,1-.417-.408V42.77a.413.413,0,0,1,.417-.408h1.53a.413.413,0,0,1,.417.408Zm0-4.169a.413.413,0,0,1-.417.408h-1.53a.413.413,0,0,1-.417-.408V38.6a.413.413,0,0,1,.417-.408h1.53a.413.413,0,0,1,.417.408Zm4.032,4.169a.413.413,0,0,1-.417.408H14.112a.413.413,0,0,1-.417-.408V42.77a.413.413,0,0,1,.417-.408h1.529a.413.413,0,0,1,.417.408Zm0-7.726a.413.413,0,0,1-.417.408H14.112a.413.413,0,0,1-.417-.408V35.045a.413.413,0,0,1,.417-.408h1.529a.413.413,0,0,1,.417.408Zm0-4.169a.413.413,0,0,1-.417.408H14.112a.413.413,0,0,1-.417-.408V30.876a.413.413,0,0,1,.417-.408h1.529a.413.413,0,0,1,.417.408Zm3.615,11.894a.413.413,0,0,1-.417.408H17.727a.413.413,0,0,1-.417-.408V42.77a.413.413,0,0,1,.417-.408h1.529a.413.413,0,0,1,.417.408v3.063Zm0-4.169a.413.413,0,0,1-.417.408H17.727a.413.413,0,0,1-.417-.408V38.6a.413.413,0,0,1,.417-.408h1.529a.413.413,0,0,1,.417.408v3.063Z" transform="translate(0 -28.001)" fill="#ede9df"/>
      </g>
    </g>
  </g>
</svg>
