<svg xmlns="http://www.w3.org/2000/svg" width="40" height="40" viewBox="0 0 40 40">
  <g id="Historical_Services" data-name="Historical Services" transform="translate(-118 -555)">
    <rect id="Rectangle_1" data-name="Rectangle 1" width="40" height="40" rx="4" transform="translate(118 555)" fill="rgba(125,110,15,0.2)"/>
    <path id="Historical-icon" d="M-157.583-2277.8a.413.413,0,0,1-.418-.408v-1.532a.413.413,0,0,1,.418-.409h.324l.448-2.322a.409.409,0,0,1,.213-.283l2.236-1.175,1.137-4.4a.415.415,0,0,1,.4-.308h1.948v-3.046a.406.406,0,0,1,.176-.334l4.157-2.889.223-1.929a.409.409,0,0,1,.312-.349l1.06-.26,2.8-1.507a.427.427,0,0,1,.265-.045l1.112.17a.41.41,0,0,1,.353.4v2.768l.822.661a.4.4,0,0,1,.152.315v4.8h.348v-.919a.4.4,0,0,1,.13-.3.421.421,0,0,1,.311-.112l.59.035a.414.414,0,0,1,.384.324l.337,1.58h1.333l.356-5.031a.409.409,0,0,1,.244-.344.423.423,0,0,1,.423.046l.917.678a.405.405,0,0,1,.165.3l.342,4.83h.132a.412.412,0,0,1,.417.408v4.969h.591A.413.413,0,0,1-132-2283v4.8a.412.412,0,0,1-.417.408Zm16.892-6.432v3.063a.413.413,0,0,0,.418.409h1.529a.413.413,0,0,0,.417-.409v-3.063a.413.413,0,0,0-.417-.408h-1.529A.413.413,0,0,0-140.691-2284.231Zm-3.614,0v3.063a.413.413,0,0,0,.417.409h1.529a.413.413,0,0,0,.418-.409v-3.063a.413.413,0,0,0-.418-.408h-1.529A.412.412,0,0,0-144.305-2284.231Zm-4.033,0v3.063a.413.413,0,0,0,.418.409h1.529a.413.413,0,0,0,.418-.409v-3.063a.413.413,0,0,0-.418-.408h-1.529A.413.413,0,0,0-148.338-2284.231Zm-3.684,0v3.063a.413.413,0,0,0,.417.409h1.53a.413.413,0,0,0,.417-.409v-3.063a.412.412,0,0,0-.417-.408h-1.53A.413.413,0,0,0-152.022-2284.231Zm11.331-4.17v3.063a.413.413,0,0,0,.418.409h1.529a.413.413,0,0,0,.417-.409v-3.063a.413.413,0,0,0-.417-.408h-1.529A.413.413,0,0,0-140.691-2288.4Zm-7.647,0v3.063a.413.413,0,0,0,.418.409h1.529a.413.413,0,0,0,.418-.409v-3.063a.413.413,0,0,0-.418-.408h-1.529A.413.413,0,0,0-148.338-2288.4Zm4.033-3.556v3.063a.413.413,0,0,0,.417.409h1.529a.413.413,0,0,0,.418-.409v-3.063a.413.413,0,0,0-.418-.408h-1.529A.412.412,0,0,0-144.305-2291.956Zm0-4.169v3.063a.412.412,0,0,0,.417.408h1.529a.413.413,0,0,0,.418-.408v-3.063a.413.413,0,0,0-.418-.409h-1.529A.412.412,0,0,0-144.305-2296.125Zm4.459,14.549v-2.251h.681v2.251Zm-3.617,0v-2.251h.682v2.251Zm-4.035,0v-2.251h.682v2.251Zm-3.686,0v-2.251h.681v2.251Zm11.337-4.168v-2.251h.681v2.251Zm-7.652,0v-2.251h.682v2.251Zm4.035-3.556v-2.25h.682v2.25Zm0-4.168v-2.25h.682v2.25Z" transform="translate(283 2863)" fill="#7d6e0f"/>
  </g>
</svg>
