<svg xmlns="http://www.w3.org/2000/svg" xmlns:xlink="http://www.w3.org/1999/xlink" width="58" height="58" viewBox="0 0 58 58">
  <defs>
    <filter id="Rectangle_1" x="0" y="0" width="58" height="58" filterUnits="userSpaceOnUse">
      <feOffset dy="3" input="SourceAlpha"/>
      <feGaussianBlur stdDeviation="3" result="blur"/>
      <feFlood flood-opacity="0.161"/>
      <feComposite operator="in" in2="blur"/>
      <feComposite in="SourceGraphic"/>
    </filter>
  </defs>
  <g id="Group_165976" data-name="Group 165976" transform="translate(-109 -609)">
    <g transform="matrix(1, 0, 0, 1, 109, 609)" filter="url(#Rectangle_1)">
      <g id="Rectangle_1-2" data-name="Rectangle 1" transform="translate(9 6)" fill="#1d5592" stroke="#ede9df" stroke-width="2">
        <rect width="40" height="40" rx="20" stroke="none"/>
        <rect x="1" y="1" width="38" height="38" rx="19" fill="none"/>
      </g>
    </g>
    <g id="Group_165821" data-name="Group 165821" transform="translate(-282.364 693.505)">
      <path id="Path_43009" data-name="Path 43009" d="M412.093-5.369h17.036V19.95l.084.078h1.493l.173.194v.294l-.258.212h-20l-.258-.2V20.2l.165-.165h1.494l.07-.07ZM421.42-2.29l-.01.01.035.041.016-.016a.143.143,0,0,0-.045-.029,1.55,1.55,0,0,0-.125-.447c-.041-.157-.1-.31-.148-.473.15-.107.287-.2.42-.3s.266-.2.433-.325h-1.058c-.1-.3-.191-.6-.287-.888,0-.007-.029-.006-.056-.012l-.3.895c-.335.016-.679-.012-1.046.016l.844.613c-.052.163-.107.316-.148.473a1.387,1.387,0,0,0-.12.451l-.01-.01-.041.035.016.016a.143.143,0,0,0,.03-.045,1.611,1.611,0,0,0,.281-.156c.173-.134.348-.268.52-.4l.564.452C421.285-2.4,421.308-2.249,421.42-2.29Zm-.652,17.1v4.923a1.106,1.106,0,0,0,0,.174.57.57,0,0,0,.052.126h1.914c.111-.064.073-.165.073-.25q0-2.363,0-4.727v-.245Zm-.307,5.16V14.81a19.489,19.489,0,0,0-2.034.017v4.9a1.377,1.377,0,0,0,0,.2c.005.036.038.067.059.1h1.91Zm3.238-7.36V9.974h-2.5l-.07.06v2.572Zm-3.586,0V10.036l-.062-.062h-2.512v2.631Zm-3.586-.063V10.036l-.06-.06c-.861-.03-2.309-.019-2.515.018V12.6h2.513Zm10.762-2.564h-2.519l-.061.061v2.492c.049.1.13.078.2.078h2.378Zm-6.163-7.227V5.329c.783.031,2.375.02,2.573-.017V2.751ZM417.539-.886V1.692c.748.031,2.371.02,2.573-.016V-.886Zm-3.591,2.578h2.578c.031-.764.02-2.375-.016-2.573h-2.561ZM423.7-.881h-2.578c-.031.775-.02,2.375.017,2.573H423.7ZM427.285,1.7V-.882c-.751-.031-2.372-.02-2.573.016V1.7Zm-7.169,1.059h-2.578c-.031.754-.02,2.373.016,2.573h2.562Zm4.591,2.574h2.577c.03-.654.019-2.375-.014-2.574h-2.562ZM413.951,6.376V8.967h2.514l.069-.069V7.658c0-.381,0-.762,0-1.143,0-.067.005-.133-.073-.175-.013.011-.029.035-.045.035C415.6,6.376,414.78,6.376,413.951,6.376Zm3.584,2.589h2.577c.03-.659.019-2.375-.015-2.574h-2.562Zm3.586,0H423.7c.03-.673.019-2.375-.015-2.574h-2.562ZM427.29,6.39h-2.582V8.9c.046.09.123.076.2.076h2.385Zm-13.337-3.64V5.333h2.48c.128-.045.1-.128.1-.2q0-1.082,0-2.164V2.751Zm3.6-7.129-.044-.006-.228.661h-.727c.118.094.205.168.3.235s.19.128.286.192a6.218,6.218,0,0,0-.2.713l.55-.406c.249.068.411.284.647.4a3.825,3.825,0,0,1-.207-.727,5.926,5.926,0,0,0,.582-.413h-.731Zm6.2,1.388.559.412c-.035-.265-.165-.483-.209-.721.1-.068.2-.129.293-.2s.171-.14.285-.235h-.725c-.1-.211-.137-.445-.254-.692-.118.252-.112.507-.265.7h-.706l.583.415a5.421,5.421,0,0,1-.2.721A3.037,3.037,0,0,1,423.751-2.99Zm2.771-.693-.194-.561-.2.572h-.558l.423.311c.015.2-.114.374-.155.59l.487-.348.474.348-.177-.578a.839.839,0,0,0,.123-.064c.039-.03.069-.073.107-.1s.074-.03.1-.056.082-.046.077-.112Zm-12.091.914.49-.356a.806.806,0,0,0,.094.092c.118.083.239.162.37.25-.029-.211-.168-.381-.145-.578l.432-.319H415.1l-.193-.567-.193.573h-.557l.45.346Z" transform="translate(0 -64.742)" fill="#fff"/>
      <path id="Path_43010" data-name="Path 43010" d="M468.331-69.658v-2.823h.887v1.033h.991v-1.03c.3-.022.6,0,.9-.012v2.829h-.884v-1.074h-1v1.077Z" transform="translate(-55.079 -0.965)" fill="#fff"/>
      <path id="Path_43011" data-name="Path 43011" d="M534.182-72.571a1.749,1.749,0,0,0,.143-.256.7.7,0,0,1,.31-.377,1.251,1.251,0,0,1,.438-.209,1.117,1.117,0,0,0,.324-.049.513.513,0,0,1,.308-.037,2.168,2.168,0,0,1,.752.162,1.127,1.127,0,0,1,.616.7,1.784,1.784,0,0,1,.091.854,1.4,1.4,0,0,1-.333.778,1.326,1.326,0,0,1-.553.339.871.871,0,0,1-.327.056,2.021,2.021,0,0,0-.228.044.644.644,0,0,1-.3-.042,1.525,1.525,0,0,0-.286-.031,1.162,1.162,0,0,1-.286-.088,1.2,1.2,0,0,1-.615-.7,1.883,1.883,0,0,1-.089-.854C534.151-72.382,534.179-72.484,534.182-72.571Zm1.287,1.31c.079,0,.179,0,.278,0a.551.551,0,0,0,.477-.483c0-.231,0-.462,0-.67a.789.789,0,0,0-.39-.39.793.793,0,0,0-.6.132c0,.012,0,.041-.019.055a.44.44,0,0,0-.136.368c.008.206,0,.413,0,.6A.793.793,0,0,0,535.469-71.261Z" transform="translate(-117.598 0)" fill="#fff"/>
      <path id="Path_43012" data-name="Path 43012" d="M663.312-70.948v.451h1.528v.7h-2.42v-2.808c.19-.036,1.674-.048,2.373-.016v.682h-1.48v.4H664.6v.592Z" transform="translate(-239.5 -0.82)" fill="#fff"/>
      <path id="Path_43013" data-name="Path 43013" d="M600.224-71.574v2.094h-.891v-2.082h-.873l-.07-.07v-.614l.059-.059h2.667v.731Z" transform="translate(-178.66 -1.14)" fill="#fff"/>
      <path id="Path_43014" data-name="Path 43014" d="M721.31-69.45v-2.822h.884c.02.335.005.68.008,1.024s0,.694,0,1.05h1.433a2.264,2.264,0,0,1,.011.37c0,.123,0,.247,0,.378Z" transform="translate(-295.457 -1.172)" fill="#fff"/>
    </g>
  </g>
</svg>
