<svg xmlns="http://www.w3.org/2000/svg" width="40" height="40" viewBox="0 0 40 40">
  <g id="Hospitality_Area" data-name="Hospitality Area" transform="translate(-118 -615)">
    <rect id="Rectangle_1" data-name="Rectangle 1" width="40" height="40" rx="4" transform="translate(118 615)" fill="rgba(29,85,146,0.2)"/>
    <path id="Hospital-icon" d="M249.621-2399.013l-.257-.2v-.326l.165-.165h1.494l.07-.069v-25.334h17.035v25.32l.085.078H269.7l.174.195v.293l-.258.212Zm10.147-1a1.119,1.119,0,0,0,0,.174.614.614,0,0,0,.051.126h1.914c.111-.065.073-.166.073-.251q0-2.362,0-4.726v-.246h-2.043Zm-2.341-4.9v4.9a1.326,1.326,0,0,0,0,.2.311.311,0,0,0,.059.1h1.91l.062-.063v-5.155c-.27-.011-.615-.017-.945-.017C258.016-2404.949,257.55-2404.937,257.427-2404.915Zm6.281-4.788v2.492c.049.1.13.078.2.078h2.378v-2.632h-2.519Zm-3.582-.005v2.572H262.7v-2.632h-2.5Zm-3.587,2.572h2.574v-2.57l-.062-.062h-2.512Zm-3.587-2.612v2.611h2.513l.062-.062v-2.507l-.06-.06c-.339-.012-.77-.017-1.18-.017C253.656-2409.783,253.076-2409.771,252.951-2409.748Zm10.757-1.1c.046.09.123.077.2.077h2.385v-2.583h-2.581Zm-10.758.071h2.515l.069-.069v-1.241c0-.381,0-.761,0-1.143,0-.068.005-.133-.073-.176-.014.011-.029.035-.045.035-.818,0-1.637,0-2.466,0Zm7.17,0H262.7c.03-.673.019-2.375-.015-2.574h-2.562Zm-3.586,0h2.577c.03-.66.019-2.375-.015-2.574h-2.561Zm3.59-3.636c.783.031,2.375.02,2.573-.017v-2.561h-2.573Zm-7.173,0h2.479c.128-.045.1-.128.1-.2q0-1.083,0-2.164v-.218h-2.582Zm10.756,0h2.577c.03-.654.019-2.375-.014-2.575h-2.562Zm-7.153,0h2.561v-2.573h-2.578C256.507-2416.233,256.519-2414.614,256.555-2414.414Zm-.016-3.636c.748.031,2.371.02,2.573-.016v-2.562h-2.573Zm7.173-2.558v2.562h2.573v-2.578c-.3-.013-.739-.018-1.171-.018C264.465-2420.642,263.832-2420.629,263.712-2420.608Zm-3.57,2.558H262.7v-2.573h-2.578C260.094-2419.848,260.105-2418.249,260.141-2418.05Zm-7.194,0h2.578c.031-.764.019-2.375-.017-2.573h-2.561Zm7.463-3.973.035.042.015-.016a.136.136,0,0,0-.045-.03h0Zm-1.634.025.016.016a.157.157,0,0,0,.03-.046h0l0-.005Zm1.514-.082c.033.033.068.067.126.048a1.634,1.634,0,0,0-.125-.443c-.041-.156-.1-.31-.148-.473.15-.106.286-.2.42-.3s.266-.2.433-.325h-1.057c-.1-.3-.191-.595-.287-.887,0-.007-.03-.006-.057-.012l-.3.895c-.148.006-.3.005-.451,0-.193,0-.391,0-.595.012l.844.613c-.051.163-.107.316-.148.472a1.44,1.44,0,0,0-.121.445,1.623,1.623,0,0,0,.277-.154c.173-.134.347-.267.52-.4l.564.452h.012A.134.134,0,0,1,260.29-2422.079Zm3.02-.24c-.036-.264-.165-.482-.21-.721.1-.068.2-.129.293-.2s.171-.14.285-.235h-.725c-.1-.212-.138-.446-.254-.692-.118.252-.113.507-.266.7h-.706l.582.415a5.476,5.476,0,0,1-.2.722,3.042,3.042,0,0,1,.639-.406Zm-7.458-.91c.093.067.19.128.285.192a6.364,6.364,0,0,0-.2.713l.551-.406c.248.067.41.283.646.4a3.892,3.892,0,0,1-.207-.727,5.91,5.91,0,0,0,.582-.412h-.732c-.074-.217-.148-.434-.222-.65l-.044-.006c-.077.22-.152.441-.229.661h-.727C255.672-2423.372,255.759-2423.3,255.852-2423.229Zm-2.244.16-.177.559.491-.356a.817.817,0,0,0,.094.092c.118.083.238.162.37.25-.03-.211-.168-.381-.146-.579l.432-.319H254.1l-.193-.567c-.068.2-.129.383-.193.573h-.556Zm12.2.558-.177-.578a.8.8,0,0,0,.123-.064c.039-.031.068-.073.107-.1s.075-.03.1-.056.082-.046.077-.112h-.512c-.066-.189-.127-.367-.194-.561-.069.2-.131.386-.2.573h-.558l.424.311c.015.2-.114.374-.155.59l.487-.348Zm-8.984-3.1a1.535,1.535,0,0,0-.286-.03,1.155,1.155,0,0,1-.286-.088,1.2,1.2,0,0,1-.616-.7,1.891,1.891,0,0,1-.089-.853c.011-.1.039-.2.041-.287a1.723,1.723,0,0,0,.143-.256.7.7,0,0,1,.31-.377,1.246,1.246,0,0,1,.438-.209,1.126,1.126,0,0,0,.324-.05.516.516,0,0,1,.308-.037,2.189,2.189,0,0,1,.752.162,1.13,1.13,0,0,1,.616.7,1.775,1.775,0,0,1,.09.853,1.4,1.4,0,0,1-.333.778,1.324,1.324,0,0,1-.553.339.905.905,0,0,1-.327.056,1.888,1.888,0,0,0-.228.043l-.069,0A.59.59,0,0,1,256.82-2425.608Zm-.186-2.064c0,.012,0,.041-.019.055a.439.439,0,0,0-.136.367c.008.207,0,.413,0,.6a.793.793,0,0,0,.392.392c.079,0,.178,0,.277,0a.55.55,0,0,0,.477-.482c0-.231,0-.463,0-.67a.785.785,0,0,0-.39-.39l-.1,0h-.09A.568.568,0,0,0,256.633-2427.672Zm5.287,2.053v-2.809c.19-.036,1.673-.048,2.373-.016v.683h-1.48v.4H264.1v.591h-1.285v.452h1.528v.7Zm-2.246,0v-2.082H258.8l-.069-.07v-.614l.059-.059h2.667v.732h-.893v2.094Zm5.18,0v-2.822h.885c.02.335,0,.679.007,1.024s0,.695,0,1.05h1.433a2.134,2.134,0,0,1,.011.37c0,.123,0,.247,0,.378Zm-12.6,0v-2.823h.887v1.033h.991v-1.03c.18-.013.358-.013.536-.011.12,0,.24,0,.362,0v2.83h-.884v-1.074h-1v1.076Z" transform="translate(-121.364 3048.505)" fill="#1d5592" stroke="rgba(0,0,0,0)" stroke-miterlimit="10" stroke-width="1"/>
  </g>
</svg>
