<svg xmlns="http://www.w3.org/2000/svg" xmlns:xlink="http://www.w3.org/1999/xlink" width="58" height="58" viewBox="0 0 58 58">
  <defs>
    <filter id="Rectangle_1" x="0" y="0" width="58" height="58" filterUnits="userSpaceOnUse">
      <feOffset dy="3" input="SourceAlpha"/>
      <feGaussianBlur stdDeviation="3" result="blur"/>
      <feFlood flood-opacity="0.161"/>
      <feComposite operator="in" in2="blur"/>
      <feComposite in="SourceGraphic"/>
    </filter>
  </defs>
  <g id="Group_165977" data-name="Group 165977" transform="translate(-109 -669)">
    <g transform="matrix(1, 0, 0, 1, 109, 669)" filter="url(#Rectangle_1)">
      <g id="Rectangle_1-2" data-name="Rectangle 1" transform="translate(9 6)" fill="#8c32c2" stroke="#ede9df" stroke-width="2">
        <rect width="40" height="40" rx="20" stroke="none"/>
        <rect x="1" y="1" width="38" height="38" rx="19" fill="none"/>
      </g>
    </g>
    <g id="Group_165815" data-name="Group 165815" transform="translate(92.846 379.538)">
      <g id="Group_165814" data-name="Group 165814" transform="translate(33.154 307.5)">
        <g id="Group_165813" data-name="Group 165813">
          <path id="Path_42984" data-name="Path 42984" d="M58.421,315.989H51.012v12.246a.278.278,0,0,0,.278.278h6.68a.278.278,0,0,0,.278-.278V317.658h.172a.835.835,0,1,0,0-1.67Zm-2.292,8.489a.278.278,0,0,1-.278.278H53.067a.278.278,0,0,1-.278-.278v-1.67a.278.278,0,0,1,.278-.278H55.85a.278.278,0,0,1,.278.278Zm0-3.9a.278.278,0,0,1-.278.278H53.067a.278.278,0,0,1-.278-.278v-1.67a.278.278,0,0,1,.278-.278H55.85a.278.278,0,0,1,.278.278ZM41.081,301.5H38.809a.279.279,0,0,0-.277.255l-.1,7.252a.278.278,0,0,0,.277.3h2.48a.278.278,0,0,0,.277-.3l-.1-7.252A.279.279,0,0,0,41.081,301.5Zm6.123,0H44.932a.279.279,0,0,0-.277.255l-.1,7.252a.278.278,0,0,0,.277.3h2.48a.278.278,0,0,0,.277-.3l-.1-7.252A.279.279,0,0,0,47.2,301.5Z" transform="translate(-35.492 -307.5)" fill="#ede9df"/>
          <path id="Path_42985" data-name="Path 42985" d="M47.348,315.616H45.586L45.41,313.5a.278.278,0,0,0-.277-.255h-2.8a.278.278,0,0,0-.277.255l-.176,2.111H39.463l-.176-2.111a.278.278,0,0,0-.277-.255H36.2a.278.278,0,0,0-.277.255l-.176,2.111h-1.74a.835.835,0,1,0,0,1.67H47.348a.835.835,0,1,0,0-1.67Zm-.278,3.061h-12.8a.278.278,0,0,0-.278.278v11.967a.278.278,0,0,0,.278.278h12.8a.278.278,0,0,0,.278-.278V318.955A.278.278,0,0,0,47.07,318.677ZM39.8,326.394a.278.278,0,0,1-.278.278H36.737a.278.278,0,0,1-.278-.278v-1.67a.278.278,0,0,1,.278-.278H39.52a.278.278,0,0,1,.278.278Zm0-3.9a.278.278,0,0,1-.278.278H36.737a.278.278,0,0,1-.278-.278v-1.67a.278.278,0,0,1,.278-.278H39.52a.278.278,0,0,1,.278.278Zm5.08,3.9a.278.278,0,0,1-.278.278H41.817a.278.278,0,0,1-.278-.278v-1.67a.278.278,0,0,1,.278-.278H44.6a.278.278,0,0,1,.278.278Zm0-3.9a.278.278,0,0,1-.278.278H41.817a.278.278,0,0,1-.278-.278v-1.67a.278.278,0,0,1,.278-.278H44.6a.278.278,0,0,1,.278.278Z" transform="translate(-33.154 -310.049)" fill="#ede9df"/>
        </g>
      </g>
    </g>
  </g>
</svg>
