<svg xmlns="http://www.w3.org/2000/svg" width="40" height="40" viewBox="0 0 40 40">
  <g id="Industrial" transform="translate(-118 -675)">
    <rect id="Rectangle_1" data-name="Rectangle 1" width="40" height="40" rx="4" transform="translate(118 675)" fill="rgba(140,50,194,0.2)"/>
    <path id="Industrial-icon" d="M-157.887-2394.886a.278.278,0,0,1-.278-.278v-11.968a.278.278,0,0,1,.278-.278h12.8a.277.277,0,0,1,.278.278v11.968a.277.277,0,0,1-.278.278Zm7.271-6.477v1.67a.279.279,0,0,0,.279.278h2.783a.278.278,0,0,0,.278-.278v-1.67a.278.278,0,0,0-.278-.278h-2.783A.278.278,0,0,0-150.616-2401.364Zm-5.08,0v1.67a.279.279,0,0,0,.278.278h2.784a.278.278,0,0,0,.278-.278v-1.67a.278.278,0,0,0-.278-.278h-2.784A.278.278,0,0,0-155.7-2401.364Zm5.08-3.9v1.669a.279.279,0,0,0,.279.279h2.783a.278.278,0,0,0,.278-.279v-1.669a.278.278,0,0,0-.278-.278h-2.783A.279.279,0,0,0-150.616-2405.26Zm-5.08,0v1.669a.279.279,0,0,0,.278.279h2.784a.278.278,0,0,0,.278-.279v-1.669a.278.278,0,0,0-.278-.278h-2.784A.278.278,0,0,0-155.7-2405.26Zm12.494,10.235a.279.279,0,0,1-.278-.279v-12.245h7.409a.835.835,0,0,1,.834.835.834.834,0,0,1-.834.834h-.173v10.576a.278.278,0,0,1-.278.279Zm1.5-5.706v1.67a.278.278,0,0,0,.278.278h2.783a.278.278,0,0,0,.279-.278v-1.67a.279.279,0,0,0-.279-.278h-2.783A.278.278,0,0,0-141.7-2400.731Zm0-3.9v1.67a.278.278,0,0,0,.278.278h2.783a.279.279,0,0,0,.279-.278v-1.67a.278.278,0,0,0-.279-.278h-2.783A.278.278,0,0,0-141.7-2404.627Zm-16.439-4.174a.847.847,0,0,1-.858-.835.847.847,0,0,1,.858-.835h1.741l.176-2.11a.278.278,0,0,1,.277-.255h2.805a.279.279,0,0,1,.277.255l.176,2.11h2.412l.175-2.11a.279.279,0,0,1,.277-.255h2.805a.278.278,0,0,1,.277.255l.176,2.11h1.762a.835.835,0,0,1,.835.835.835.835,0,0,1-.835.835Zm8.479-5.428a.278.278,0,0,1-.277-.3l.1-7.252a.278.278,0,0,1,.277-.255h2.271a.279.279,0,0,1,.278.255l.1,7.252a.277.277,0,0,1-.277.3Zm-6.123,0a.277.277,0,0,1-.277-.3l.1-7.252a.279.279,0,0,1,.277-.255h2.272a.278.278,0,0,1,.277.255l.1,7.252a.277.277,0,0,1-.277.3Z" transform="translate(285 3103.076)" fill="#8c32c2" stroke="rgba(0,0,0,0)" stroke-miterlimit="10" stroke-width="1"/>
  </g>
</svg>
