<svg xmlns="http://www.w3.org/2000/svg" width="40" height="40" viewBox="0 0 40 40">
  <g id="Investment" transform="translate(-469 -75)">
    <rect id="Rectangle_1" data-name="Rectangle 1" width="40" height="40" rx="4" transform="translate(469 75)" fill="rgba(227,100,5,0.2)"/>
    <path id="Investment-icon" d="M-485-1794.338a.339.339,0,0,1-.333-.344v-5.164h2.666a.34.34,0,0,0,.334-.345v-2.066a.34.34,0,0,0-.334-.345h-2.666v-2.754h2.666a.339.339,0,0,0,.334-.345v-2.066a.339.339,0,0,0-.334-.344h-2.666v-2.41a.339.339,0,0,1,.333-.345h4a.339.339,0,0,1,.333.345v15.837a.339.339,0,0,1-.333.344Zm-16.4,0a.354.354,0,0,1-.371-.333V-1816h-.37a1.06,1.06,0,0,1-1.111-1,1.06,1.06,0,0,1,1.111-1h16.286a1.06,1.06,0,0,1,1.111,1,1.06,1.06,0,0,1-1.111,1h-.37v21.329a.354.354,0,0,1-.371.333Zm8.512-7.5v4.5a.354.354,0,0,0,.371.333h3.7a.353.353,0,0,0,.37-.333v-4.5a.353.353,0,0,0-.37-.334h-3.7A.354.354,0,0,0-492.888-1801.836Zm-6.662,0v4.5a.353.353,0,0,0,.37.333h3.7a.353.353,0,0,0,.37-.333v-4.5a.353.353,0,0,0-.37-.334h-3.7A.353.353,0,0,0-499.549-1801.836Zm3.623-7.642a.805.805,0,0,0-.479,1.1,2.652,2.652,0,0,0,1.649,1.354v.127a.883.883,0,0,0,.925.833.883.883,0,0,0,.926-.833v-.18a2.034,2.034,0,0,0,1.3-1.532,1.993,1.993,0,0,0-1.213-2.175l-1.506-.7a.369.369,0,0,1-.229-.432.379.379,0,0,1,.375-.308.914.914,0,0,1,.894.479.965.965,0,0,0,1.217.432.8.8,0,0,0,.481-1.1,2.58,2.58,0,0,0-1.319-1.226v-.307a.883.883,0,0,0-.926-.833.884.884,0,0,0-.925.833v.124a2.091,2.091,0,0,0-1.615,1.6,2,2,0,0,0,1.2,2.22l1.506.7a.386.386,0,0,1,.234.431c-.022.119-.095.268-.383.307a.913.913,0,0,1-.895-.479.931.931,0,0,0-.849-.5A1.032,1.032,0,0,0-495.926-1809.478ZM-507-1794.338a.339.339,0,0,1-.334-.344v-15.837a.34.34,0,0,1,.334-.345h4a.339.339,0,0,1,.333.345v2.41h-2.66a.339.339,0,0,0-.333.344v2.066a.339.339,0,0,0,.333.345h2.66v2.754h-2.66a.339.339,0,0,0-.333.345v2.066a.339.339,0,0,0,.333.345h2.66v5.164a.338.338,0,0,1-.333.344Zm21.668-18.247v-2.066H-481a1.017,1.017,0,0,1,1,1.033,1.017,1.017,0,0,1-1,1.033Zm-21.668,0a1.017,1.017,0,0,1-1-1.033,1.017,1.017,0,0,1,1-1.033h4.332v2.066Z" transform="translate(983 1901)" fill="#e36405" stroke="rgba(0,0,0,0)" stroke-miterlimit="10" stroke-width="1"/>
  </g>
</svg>
