<svg xmlns="http://www.w3.org/2000/svg" width="40" height="40" viewBox="0 0 40 40">
  <g id="Land_with_special_uses" data-name="Land with special uses" transform="translate(-469 -135)">
    <rect id="Rectangle_1" data-name="Rectangle 1" width="40" height="40" rx="4" transform="translate(469 135)" fill="rgba(67,135,209,0.2)"/>
    <path id="Land-icon" d="M-1228.209-1309.93h2.922c.163,2.286.326,4.567.49,6.881l-3.413.476Zm-19.146-9.859,4.373.516c-.725,5.469-1.449,10.915-2.176,16.394l-2.2.308Zm15.57,16.821,2.813-5.735.043.012v6.118Zm-10.521-16.223,3.8.446c.005.113.014.212.014.31q0,4.388,0,8.774a.958.958,0,0,1-.082.4q-1.389,2.867-2.791,5.728c-.02.041-.044.08-.078.141l-3.018.418C-1243.742-1308.39-1243.026-1313.778-1242.306-1319.192Zm5.811,15.57c2.01-5.193,4.006-10.351,6.01-15.531l1.561-.093c.005.112.014.21.014.307q0,4.165,0,8.329a.876.876,0,0,1-.07.374q-1.708,3.5-3.427,7c-.024.049-.054.1-.1.169Zm11.891-6.3h3.064c.156,2.111.311,4.223.469,6.357l-3.051.426C-1224.284-1305.416-1224.443-1307.659-1224.6-1309.922Zm-13.948,2.175.054.011v3.932l-2.12.3Zm17.7-2.171h1.491v6.116l-1.029.142C-1220.549-1305.746-1220.7-1307.82-1220.856-1309.918Zm-16.952,6.112v-.31c0-1.643,0-3.287,0-4.93a1.29,1.29,0,0,1,.067-.435q1.679-4.656,3.37-9.309c.013-.034.026-.068.056-.146l3.083-.172-5.954,15.386Zm9.6-6.831v-8.287l8.852,6.484v1.8Zm-9.58-.81v-7.279l2.732-.158c-.908,2.511-1.8,4.979-2.692,7.447Zm13.829-5.206c.588-2.651,1.173-5.29,1.766-7.961l2.837-.392v11.726Zm-4.254-3.118v-4.009l5.3-.734-1.647,7.422Zm-9.567-5.226,1.675.212a9.725,9.725,0,0,1,2.517.337,19.749,19.749,0,0,0,2.4.372c-.058.076-.036.047,0,0,.017,0,.023-.011.016-.021h0l2.251.323v3.843l-8.856.523Zm-9.576,4.523v-3.3l8.855-1.228v5.571Zm16.18-3.623c.118-.153.064-.082.009-.011l-.008.011h0l-.016.021h0Z" transform="translate(1722.36 1469.007)" fill="#4387d1" stroke="rgba(0,0,0,0)" stroke-miterlimit="10" stroke-width="1"/>
  </g>
</svg>
