<svg id="License-32px" xmlns="http://www.w3.org/2000/svg" width="32" height="32" viewBox="0 0 32 32">
  <rect id="Rectangle_18505" data-name="Rectangle 18505" width="32" height="32" fill="none"/>
  <g id="license-svgrepo-com_1_" data-name="license-svgrepo-com (1)" transform="translate(-44 4)">
    <g id="Group_165798" data-name="Group 165798" transform="translate(50)">
      <g id="Group_165797" data-name="Group 165797">
        <path id="Path_42930" data-name="Path 42930" d="M69.2,5.416a.491.491,0,0,0-.143-.348L64.134.144A.491.491,0,0,0,63.786,0H50.492A.492.492,0,0,0,50,.492V23.633a.492.492,0,0,0,.492.492H68.709a.492.492,0,0,0,.492-.492V5.416Zm-.984,17.725H50.985V.985H63.294V5.416a.492.492,0,0,0,.492.492h4.431Z" transform="translate(-50)" fill="#36512a"/>
        <path id="Subtraction_25" data-name="Subtraction 25" d="M-721.029-359.45a2.912,2.912,0,0,1-1.127-.24,2.9,2.9,0,0,1-1.126.24,2.056,2.056,0,0,1-1.8-.961,2.449,2.449,0,0,1-.076-2.282,2.457,2.457,0,0,1,.076-2.285,2.057,2.057,0,0,1,1.8-.958,2.9,2.9,0,0,1,1.128.24,2.9,2.9,0,0,1,1.129-.24,2.054,2.054,0,0,1,1.8.958,2.454,2.454,0,0,1,.076,2.285,2.452,2.452,0,0,1-.076,2.282A2.058,2.058,0,0,1-721.029-359.45Zm-2.111-3h0v.986h1.97v-.986Zm.492-1.477h0v.985h.985v-.985Z" transform="translate(735.449 381.694)" fill="#36512a"/>
        <rect id="Rectangle_150416" data-name="Rectangle 150416" width="5.911" height="0.985" transform="translate(2.172 19.481)" fill="#848f6c"/>
        <rect id="Rectangle_150417" data-name="Rectangle 150417" width="0.985" height="0.985" transform="translate(7.098 21.17)" fill="#848f6c"/>
        <rect id="Rectangle_150418" data-name="Rectangle 150418" width="0.985" height="0.985" transform="translate(5.69 21.17)" fill="#848f6c"/>
        <rect id="Rectangle_150419" data-name="Rectangle 150419" width="0.985" height="0.985" transform="translate(2.172 21.17)" fill="#848f6c"/>
        <rect id="Rectangle_150420" data-name="Rectangle 150420" width="2.956" height="0.985" transform="translate(2.172 2.028)" fill="#848f6c"/>
        <rect id="Rectangle_150421" data-name="Rectangle 150421" width="5.911" height="0.985" transform="translate(2.172 3.436)" fill="#848f6c"/>
        <rect id="Rectangle_150422" data-name="Rectangle 150422" width="7.882" height="0.985" transform="translate(5.69 7.377)" fill="#848f6c"/>
        <rect id="Rectangle_150423" data-name="Rectangle 150423" width="14.778" height="0.985" transform="translate(2.172 9.347)" fill="#848f6c"/>
        <rect id="Rectangle_150424" data-name="Rectangle 150424" width="14.778" height="0.985" transform="translate(2.172 11.317)" fill="#848f6c"/>
        <rect id="Rectangle_150425" data-name="Rectangle 150425" width="11.823" height="0.985" transform="translate(2.172 13.288)" fill="#848f6c"/>
        <rect id="Rectangle_150426" data-name="Rectangle 150426" width="0.985" height="0.985" transform="translate(15.965 13.288)" fill="#848f6c"/>
        <rect id="Rectangle_150427" data-name="Rectangle 150427" width="0.985" height="0.985" transform="translate(14.557 13.288)" fill="#848f6c"/>
      </g>
    </g>
  </g>
</svg>
