<svg id="Masged" xmlns="http://www.w3.org/2000/svg" width="32" height="32" viewBox="0 0 32 32">
  <rect id="Rectangle_18610" data-name="Rectangle 18610" width="32" height="32" fill="none"/>
  <g id="Group_41624" data-name="Group 41624" transform="translate(-779 -6533.725)">
    <g id="Group_41624-2" data-name="Group 41624" transform="translate(783 6539)">
      <g id="Group_41625" data-name="Group 41625" transform="translate(0 0)">
        <path id="Path_37920" data-name="Path 37920" d="M95.476,607.992a.17.17,0,0,1-.171-.168v-5.666H71v5.666a.171.171,0,0,1-.342,0v-5.834a.17.17,0,0,1,.171-.168H95.476a.17.17,0,0,1,.171.168v5.834a.17.17,0,0,1-.171.168" transform="translate(-70.66 -584.575)" fill="#36512a"/>
        <path id="Path_37921" data-name="Path 37921" d="M111.939,366.056a.168.168,0,0,1-.168-.161,11.007,11.007,0,1,0-22.014,0,.168.168,0,0,1-.336-.014,12.066,12.066,0,0,1,3.48-8.042,11,11,0,0,1,15.728,0,12.066,12.066,0,0,1,3.479,8.042.168.168,0,0,1-.161.175h-.007" transform="translate(-88.48 -349.676)" fill="#36512a"/>
        <path id="Path_37922" data-name="Path 37922" d="M111.94,578.153H89.589a.168.168,0,0,1,0-.337H111.94a.168.168,0,0,1,0,.337" transform="translate(-88.481 -561.773)" fill="#36512a"/>
        <path id="Path_37923" data-name="Path 37923" d="M198.084,366.057a.168.168,0,0,1-.168-.16c-.269-5.307-2.028-8.027-3.456-9.375a6.22,6.22,0,0,0-2.983-1.651,8.819,8.819,0,0,0-3.133,2.135c-1.439,1.49-3.146,4.24-3.1,8.881a.168.168,0,0,1-.167.17h0a.168.168,0,0,1-.168-.167c-.044-4.765,1.722-7.6,3.211-9.131a8.839,8.839,0,0,1,3.3-2.221.17.17,0,0,1,.074-.007,6.341,6.341,0,0,1,3.207,1.746c1.473,1.389,3.286,4.183,3.561,9.6a.168.168,0,0,1-.16.177h-.009" transform="translate(-179.177 -349.677)" fill="#36512a"/>
        <path id="Path_37924" data-name="Path 37924" d="M272.233,366.055a.168.168,0,0,1-.167-.148,20.347,20.347,0,0,1,.589-8.477,9.982,9.982,0,0,1,1.293-2.834.169.169,0,0,1,.239-.032c.106.083,2.6,2.141,2.137,11.1a.168.168,0,0,1-.336-.017,23.233,23.233,0,0,0-.837-8.732,5.808,5.808,0,0,0-1.042-1.955,10.891,10.891,0,0,0-1.138,2.589,20.03,20.03,0,0,0-.57,8.318.168.168,0,0,1-.147.187h-.021" transform="translate(-261.798 -349.676)" fill="#36512a"/>
        <path id="Path_37925" data-name="Path 37925" d="M95.06,650.775H70.828a.168.168,0,1,1,0-.337H95.06a.168.168,0,1,1,0,.337" transform="translate(-70.66 -630.755)" fill="#36512a"/>
        <path id="Path_37938" data-name="Path 37938" d="M314.9,313.472a.168.168,0,0,1-.168-.168V311.34a.168.168,0,1,1,.337,0V313.3a.168.168,0,0,1-.168.168" transform="translate(-302.502 -308.492)" fill="#36512a"/>
        <path id="Path_37941" data-name="Path 37941" d="M280.492,260.7a2.041,2.041,0,0,1-1.847-2.906.173.173,0,0,1,.325.034,1.545,1.545,0,0,0,3.045,0,.173.173,0,0,1,.325-.034,2.04,2.04,0,0,1-1.847,2.906" transform="translate(-268.159 -258.017)" fill="#36512a"/>
        <g id="Rectangle_150428" data-name="Rectangle 150428" transform="translate(1 20.725)" fill="#848f6c" stroke="#36512a" stroke-width="0.5">
          <rect width="3" height="3" stroke="none"/>
          <rect x="0.25" y="0.25" width="2.5" height="2.5" fill="none"/>
        </g>
        <g id="Rectangle_150429" data-name="Rectangle 150429" transform="translate(5 20.725)" fill="#848f6c" stroke="#36512a" stroke-width="0.5">
          <rect width="3" height="3" stroke="none"/>
          <rect x="0.25" y="0.25" width="2.5" height="2.5" fill="none"/>
        </g>
        <g id="Rectangle_150430" data-name="Rectangle 150430" transform="translate(9 20.725)" fill="#848f6c" stroke="#36512a" stroke-width="0.5">
          <rect width="3" height="3" stroke="none"/>
          <rect x="0.25" y="0.25" width="2.5" height="2.5" fill="none"/>
        </g>
        <g id="Rectangle_150431" data-name="Rectangle 150431" transform="translate(13 20.725)" fill="#848f6c" stroke="#36512a" stroke-width="0.5">
          <rect width="3" height="3" stroke="none"/>
          <rect x="0.25" y="0.25" width="2.5" height="2.5" fill="none"/>
        </g>
        <g id="Rectangle_150432" data-name="Rectangle 150432" transform="translate(17 20.725)" fill="#848f6c" stroke="#36512a" stroke-width="0.5">
          <rect width="3" height="3" stroke="none"/>
          <rect x="0.25" y="0.25" width="2.5" height="2.5" fill="none"/>
        </g>
        <g id="Rectangle_150433" data-name="Rectangle 150433" transform="translate(21 20.725)" fill="#848f6c" stroke="#36512a" stroke-width="0.5">
          <rect width="3" height="3" stroke="none"/>
          <rect x="0.25" y="0.25" width="2.5" height="2.5" fill="none"/>
        </g>
      </g>
      <path id="Subtraction_13" data-name="Subtraction 13" d="M21.975,10.987H0c0-.039,0-.077,0-.116V10.8A10.988,10.988,0,0,1,10.984,0l.2,0a10.988,10.988,0,0,1,10.8,10.984Z" transform="translate(1.296 4.941)" fill="rgba(54,81,42,0.25)"/>
    </g>
    <g id="Rectangle_18619" data-name="Rectangle 18619" transform="translate(783 6556)" fill="#36512a" stroke="#36512a" stroke-width="1">
      <rect width="25" height="3" stroke="none"/>
      <rect x="0.5" y="0.5" width="24" height="2" fill="none"/>
    </g>
  </g>
</svg>
