<svg xmlns="http://www.w3.org/2000/svg" width="40" height="40" viewBox="0 0 40 40">
  <g id="Mixed_Landuse" data-name="Mixed Landuse" transform="translate(-469 -195)">
    <rect id="Rectangle_1" data-name="Rectangle 1" width="40" height="40" rx="4" transform="translate(469 195)" fill="rgba(255,152,49,0.2)"/>
    <path id="MixedLanduse-icon" d="M-496.3-1916.47a.3.3,0,0,1-.3-.3v-12.1a.3.3,0,0,1,.3-.3h12.7a.3.3,0,0,1,.3.3v12.1a.3.3,0,0,1-.3.3Zm7.3-5.141v1.814a.3.3,0,0,0,.3.3h3.024a.3.3,0,0,0,.3-.3v-1.814a.3.3,0,0,0-.3-.3H-488.7A.3.3,0,0,0-489-1921.611Zm-5.52,0v1.814a.3.3,0,0,0,.3.3h3.024a.3.3,0,0,0,.3-.3v-1.814a.3.3,0,0,0-.3-.3h-3.024A.3.3,0,0,0-494.522-1921.611Zm5.52-4.838v1.814a.3.3,0,0,0,.3.3h3.024a.3.3,0,0,0,.3-.3v-1.814a.3.3,0,0,0-.3-.3H-488.7A.3.3,0,0,0-489-1926.449Zm-5.52,0v1.814a.3.3,0,0,0,.3.3h3.024a.3.3,0,0,0,.3-.3v-1.814a.3.3,0,0,0-.3-.3h-3.024A.3.3,0,0,0-494.522-1926.449Zm-12.965,9.979a.3.3,0,0,1-.3-.3v-19.354h-.3a.908.908,0,0,1-.908-.907.908.908,0,0,1,.908-.907h10.282a.907.907,0,0,1,.907.907.907.907,0,0,1-.907.907h-.3v19.354a.3.3,0,0,1-.3.3Zm5.362-17.994v14.394a.3.3,0,0,0,.3.3h1.559a.3.3,0,0,0,.3-.3v-14.394a.3.3,0,0,0-.3-.3h-1.559A.3.3,0,0,0-502.125-1934.464Zm-3.816,0v14.394a.3.3,0,0,0,.3.3h1.559a.3.3,0,0,0,.3-.3v-14.394a.3.3,0,0,0-.3-.3h-1.559A.3.3,0,0,0-505.941-1934.464Zm9.34,3.78v-1.814h2.268v-1.663h-1.058a.3.3,0,0,1-.3-.3v-4.234a.3.3,0,0,1,.3-.3H-483.9a.3.3,0,0,1,.3.3v4.234a.3.3,0,0,1-.3.3h-1.058v1.663h1.361a.907.907,0,0,1,.907.907.907.907,0,0,1-.907.907Zm4.083-1.814h5.746v-1.663h-5.746Z" transform="translate(985 2143)" fill="#f38a21" stroke="rgba(0,0,0,0)" stroke-miterlimit="10" stroke-width="1"/>
  </g>
</svg>
