<svg id="Municipalities-32px" xmlns="http://www.w3.org/2000/svg" width="32" height="32" viewBox="0 0 32 32">
  <g id="Group_41457" data-name="Group 41457" transform="translate(4.794 4.109)">
    <g id="Municipalities" transform="translate(0 0)">
      <rect id="Rectangle_150410" data-name="Rectangle 150410" width="2" height="3" transform="translate(6.206 12.891)" fill="#c3c7b9"/>
      <rect id="Rectangle_150412" data-name="Rectangle 150412" width="2" height="9" transform="translate(1.206 13.891)" fill="#c3c7b9"/>
      <rect id="Rectangle_150413" data-name="Rectangle 150413" width="3" height="9" transform="translate(19.206 13.891)" fill="#c3c7b9"/>
      <rect id="Rectangle_150411" data-name="Rectangle 150411" width="2" height="3" transform="translate(15.206 12.891)" fill="#c3c7b9"/>
      <path id="Path_37560" data-name="Path 37560" d="M23.051,14.2a.463.463,0,0,0-.463-.463H19.857V11.205a.463.463,0,0,0-.463-.463H17.847V9.75h.134a.463.463,0,1,0,0-.925h-1.14a5.355,5.355,0,0,0-4.853-4.859V2.915h2.518a.463.463,0,0,0,.463-.463V.463A.463.463,0,0,0,14.506,0h-2.98a.463.463,0,0,0-.463.463v3.5A5.351,5.351,0,0,0,6.189,8.825H5.03a.463.463,0,0,0,0,.925H5.2v.993H3.656a.463.463,0,0,0-.463.463v2.534H.463a.462.462,0,0,0-.014.924v8.557a.463.463,0,0,0,.463.463H22.14a.463.463,0,0,0,.463-.463V14.663a.462.462,0,0,0,.448-.462ZM14.043,1.99H11.988V.925h2.055ZM6.129,9.75H9.418a.463.463,0,1,0,0-.925h-2.3a4.422,4.422,0,0,1,8.794,0H13.568a.463.463,0,1,0,0,.925h3.354v.993H6.129ZM1.373,14.664h1.82V16h-.36a.463.463,0,1,0,0,.925h.36v1.331h-.36a.463.463,0,0,0,0,.925h.36V20.51h-.36a.463.463,0,0,0,0,.925h.36v1.323H1.373Zm2.746-3H18.932v11.09H17.457V17.213a.463.463,0,0,0-.463-.463H15.057a.463.463,0,0,0-.463.463v5.545H12.946V21.191a1.431,1.431,0,0,0-2.862,0v1.567h-1.6V17.213a.463.463,0,0,0-.463-.463H6.083a.463.463,0,0,0-.463.463v5.545h-1.5Zm2.427,11.09V17.676H7.558v5.082Zm4.463,0V21.191a.506.506,0,0,1,1.012,0v1.567Zm4.511,0V17.676h1.012v5.082Zm6.158,0h-1.82V21.435h.36a.463.463,0,0,0,0-.925h-.36V19.178h.36a.463.463,0,0,0,0-.925h-.36V16.922h.36a.463.463,0,0,0,0-.925h-.36V14.664h1.82Zm0,0" transform="translate(0 0)" fill="#36512a"/>
      <path id="Path_37674" data-name="Path 37674" d="M23.051,14.2a.463.463,0,0,0-.463-.463H19.857V11.205a.463.463,0,0,0-.463-.463H17.847V9.75h.134a.463.463,0,1,0,0-.925h-1.14a5.355,5.355,0,0,0-4.853-4.859V2.915h2.518a.463.463,0,0,0,.463-.463V.463A.463.463,0,0,0,14.506,0h-2.98a.463.463,0,0,0-.463.463v3.5A5.351,5.351,0,0,0,6.189,8.825H5.03a.463.463,0,0,0,0,.925H5.2v.993H3.656a.463.463,0,0,0-.463.463v2.534H.463a.462.462,0,0,0-.014.924v8.557a.463.463,0,0,0,.463.463H22.14a.463.463,0,0,0,.463-.463V14.663a.462.462,0,0,0,.448-.462ZM6.129,9.75H16.922v.993H6.129ZM1.373,14.664h1.82V16h-.36a.463.463,0,1,0,0,.925h.36v1.331h-.36a.463.463,0,0,0,0,.925h.36V20.51h-.36a.463.463,0,0,0,0,.925h.36v1.323H1.373Zm2.746-3H18.932v11.09H17.457V17.213a.463.463,0,0,0-.463-.463H15.057a.463.463,0,0,0-.463.463v5.545H12.946V21.191a1.431,1.431,0,0,0-2.862,0v1.567h-1.6V17.213a.463.463,0,0,0-.463-.463H6.083a.463.463,0,0,0-.463.463v5.545h-1.5Zm17.559,11.09h-1.82V21.435h.36a.463.463,0,0,0,0-.925h-.36V19.178h.36a.463.463,0,0,0,0-.925h-.36V16.922h.36a.463.463,0,0,0,0-.925h-.36V14.664h1.82Zm0,0" transform="translate(0 0)" fill="rgba(54,81,42,0.25)"/>
      <path id="Path_37561" data-name="Path 37561" d="M6.269,16.685h2.4a.573.573,0,0,0,.573-.573V13.757a.573.573,0,0,0-.573-.573h-2.4a.573.573,0,0,0-.573.573v2.355A.573.573,0,0,0,6.269,16.685Zm.573-2.355H8.1v1.209H6.842Zm0,0" transform="translate(-0.265 -0.595)" fill="#36512a"/>
      <path id="Path_37562" data-name="Path 37562" d="M10.791,20.405h2.4a.573.573,0,0,0,.573-.573V14.957a1.773,1.773,0,0,0-3.546,0v4.875A.573.573,0,0,0,10.791,20.405Zm.573-1.146V16.685h1.254v2.575Zm.627-4.929a.628.628,0,0,1,.627.627v.582H11.364v-.582A.628.628,0,0,1,11.991,14.33Zm0,0" transform="translate(-0.476 -1.188)" fill="#36512a"/>
      <path id="Path_37563" data-name="Path 37563" d="M15.363,16.685h2.4a.573.573,0,0,0,.573-.573V13.757a.573.573,0,0,0-.573-.573h-2.4a.573.573,0,0,0-.573.573v2.355A.573.573,0,0,0,15.363,16.685Zm.573-2.355H17.19v1.209H15.936Zm0,0" transform="translate(-0.689 -0.595)" fill="#36512a"/>
      <path id="Path_37564" data-name="Path 37564" d="M11.661,8.958a.573.573,0,1,0,.63.318.579.579,0,0,0-.63-.318Zm0,0" transform="translate(-0.258 -0.204)" fill="#36512a"/>
    </g>
  </g>
  <rect id="Rectangle_18511" data-name="Rectangle 18511" width="32" height="32" fill="none"/>
</svg>
