<svg id="NOCs-32px" xmlns="http://www.w3.org/2000/svg" width="32" height="32" viewBox="0 0 32 32">
  <g id="Group_41480" data-name="Group 41480" transform="translate(-940 -4795)">
    <g id="license-svgrepo-com" transform="translate(943.692 4801.769)">
      <g id="Group_41044" data-name="Group 41044" transform="translate(0 0)">
        <g id="Group_41043" data-name="Group 41043">
          <path id="Path_36940" data-name="Path 36940" d="M24.092,64.134H.382A.383.383,0,0,0,0,64.517V76.781a.383.383,0,0,0,.766,0V64.9H23.708V78.186H20.566a.383.383,0,0,0-.383.383v3.142H.765V79.233a.383.383,0,1,0-.766,0v2.861a.383.383,0,0,0,.383.383H20.566a.388.388,0,0,0,.271-.112l3.526-3.526a.388.388,0,0,0,.112-.271V64.517A.383.383,0,0,0,24.092,64.134ZM20.949,81.17V78.952h2.217Z" transform="translate(0.001 -64.134)" fill="#36512a"/>
        </g>
      </g>
      <g id="Group_41046" data-name="Group 41046" transform="translate(2.044 1.635)">
        <g id="Group_41045" data-name="Group 41045" transform="translate(0 0)">
          <path id="Path_36941" data-name="Path 36941" d="M54.1,103.844l-.661-1.144v-1.321a.383.383,0,0,0-.192-.332l-1.144-.661-.661-1.144a.383.383,0,0,0-.332-.192H49.789l-1.144-.661a.383.383,0,0,0-.383,0l-1.144.661H45.8a.383.383,0,0,0-.332.192l-.661,1.144-1.144.661a.383.383,0,0,0-.192.332V102.7l-.661,1.144a.383.383,0,0,0,0,.383l.661,1.144v1.321a.383.383,0,0,0,.192.332l1.144.661.661,1.144a.383.383,0,0,0,.332.192h.639v4.008a.387.387,0,0,0,.613.307l1.405-1.054,1.405,1.054a.387.387,0,0,0,.613-.307v-4.008h.639a.383.383,0,0,0,.332-.192l.661-1.144,1.144-.661a.383.383,0,0,0,.192-.332v-1.321l.661-1.144A.383.383,0,0,0,54.1,103.844Zm-4.394,8.418-1.022-.766a.383.383,0,0,0-.46,0l-1.022.766v-3.193l1.06.612a.387.387,0,0,0,.383,0l1.06-.612v3.193Zm3.018-7.185a.384.384,0,0,0-.051.192v1.2l-1.042.6a.382.382,0,0,0-.14.14l-.6,1.042h-1.2a.383.383,0,0,0-.192.051l-1.041.6-1.042-.6a.384.384,0,0,0-.192-.051h-1.2l-.6-1.042a.383.383,0,0,0-.14-.14l-1.041-.6v-1.2a.383.383,0,0,0-.051-.192l-.6-1.042.6-1.042a.384.384,0,0,0,.051-.192v-1.2l1.042-.6a.383.383,0,0,0,.14-.14l.6-1.042h1.2a.383.383,0,0,0,.192-.051l1.041-.6,1.042.6a.384.384,0,0,0,.192.051h1.2l.6,1.042a.383.383,0,0,0,.14.14l1.042.6v1.2a.383.383,0,0,0,.051.192l.6,1.041Z" transform="translate(-42.756 -98.338)" fill="#36512a"/>
        </g>
      </g>
      <path id="Subtraction_24" data-name="Subtraction 24" d="M-757.63-362.645a4.067,4.067,0,0,1-4.063-4.062,4.067,4.067,0,0,1,4.063-4.063,4.067,4.067,0,0,1,4.062,4.063A4.066,4.066,0,0,1-757.63-362.645Zm-1.814-3.938v1.921a.384.384,0,0,0,.383.383h2.861a.384.384,0,0,0,.383-.383v-1.921l.176.16a.38.38,0,0,0,.257.1.387.387,0,0,0,.313-.157.388.388,0,0,0-.054-.508l-2.248-2.044a.384.384,0,0,0-.258-.1.383.383,0,0,0-.258.1l-.789.718v-.026a.383.383,0,0,0-.383-.382.383.383,0,0,0-.383.383v.723l-.692.629a.388.388,0,0,0-.053.508.386.386,0,0,0,.313.157.38.38,0,0,0,.256-.1l.175-.159Zm1.431,1.538h-.664v-2.234l1.048-.952,1.052.957a.4.4,0,0,0,0,.059v2.17h-.664V-366.3a.383.383,0,0,0-.383-.382.383.383,0,0,0-.383.382v1.252Z" transform="translate(765.371 374.039)" fill="#36512a"/>
      <g id="Group_41052" data-name="Group 41052" transform="translate(14.307 5.314)">
        <g id="Group_41051" data-name="Group 41051">
          <path id="Path_36944" data-name="Path 36944" d="M303.72,175.3h-4.047a.383.383,0,0,0,0,.766h4.047a.383.383,0,1,0,0-.766Z" transform="translate(-299.29 -175.299)" fill="#36512a"/>
        </g>
      </g>
      <g id="Group_41054" data-name="Group 41054" transform="translate(19.826 5.314)">
        <g id="Group_41053" data-name="Group 41053">
          <path id="Path_36945" data-name="Path 36945" d="M416.954,175.3h-1.84a.383.383,0,1,0,0,.766h1.84a.383.383,0,0,0,0-.766Z" transform="translate(-414.731 -175.299)" fill="#36512a"/>
        </g>
      </g>
      <g id="Group_41056" data-name="Group 41056" transform="translate(14.307 7.358)">
        <g id="Group_41055" data-name="Group 41055">
          <path id="Path_36946" data-name="Path 36946" d="M307.031,218.054h-7.358a.383.383,0,0,0,0,.767h7.358a.383.383,0,0,0,0-.767Z" transform="translate(-299.29 -218.054)" fill="#36512a"/>
        </g>
      </g>
      <g id="Group_41058" data-name="Group 41058" transform="translate(14.307 9.402)">
        <g id="Group_41057" data-name="Group 41057" transform="translate(0 0)">
          <path id="Path_36947" data-name="Path 36947" d="M302.249,260.81h-2.575a.383.383,0,1,0,0,.767h2.575a.383.383,0,0,0,0-.767Z" transform="translate(-299.29 -260.81)" fill="#36512a"/>
        </g>
      </g>
      <g id="Group_41060" data-name="Group 41060" transform="translate(18.354 9.402)">
        <g id="Group_41059" data-name="Group 41059" transform="translate(0 0)">
          <path id="Path_36948" data-name="Path 36948" d="M387.641,260.81H384.33a.383.383,0,0,0,0,.767h3.311a.383.383,0,0,0,0-.767Z" transform="translate(-383.947 -260.81)" fill="#36512a"/>
        </g>
      </g>
      <g id="Group_41062" data-name="Group 41062" transform="translate(16.147 12.263)">
        <g id="Group_41061" data-name="Group 41061">
          <path id="Path_36949" data-name="Path 36949" d="M341.832,320.668h-3.679a.383.383,0,1,0,0,.766h3.679a.383.383,0,0,0,0-.766Z" transform="translate(-337.77 -320.668)" fill="#36512a"/>
        </g>
      </g>
    </g>
    <rect id="Rectangle_18505" data-name="Rectangle 18505" width="32" height="32" transform="translate(940 4795)" fill="none"/>
  </g>
</svg>
