<svg id="Original_Districts-32px" data-name="Original Districts-32px" xmlns="http://www.w3.org/2000/svg" width="32" height="32" viewBox="0 0 32 32">
  <g id="Group_41475" data-name="Group 41475">
    <g id="Group_41174" data-name="Group 41174" transform="translate(5.538 3.692)">
      <g id="Original_Districts" data-name="Original Districts" transform="translate(0)">
        <path id="Exclusion_1" data-name="Exclusion 1" d="M0,20.418H0L3.159,5.1,6.319,2.885,7.448,0,14.9,1.332V7.324L18.055,9.1,16.7,17.311,8.576,19.086,7.448,17.311,6.319,18.2,0,20.418ZM12.341,15.9c-.727,0-1.319.352-1.319.785s.592.785,1.319.785,1.318-.352,1.318-.785S13.068,15.9,12.341,15.9ZM6.012,9.092c-.727,0-1.318.352-1.318.785s.591.785,1.318.785,1.319-.352,1.319-.785S6.739,9.092,6.012,9.092Zm5.8-5.759c-.727,0-1.319.352-1.319.785s.592.785,1.319.785,1.318-.352,1.318-.785S12.541,3.334,11.814,3.334Z" transform="translate(1.111 2.914)" fill="#36512a" stroke="#707070" stroke-width="0.3" opacity="0.25"/>
        <path id="XMLID_45_" d="M15.534,12.508a2.467,2.467,0,0,1,.538,4.874v1.634a.538.538,0,1,1-1.076,0V17.381a2.467,2.467,0,0,1,.538-4.874ZM6.868,7.816a2.466,2.466,0,1,1,3,2.407v1.634a.538.538,0,1,1-1.076,0V10.223A2.471,2.471,0,0,1,6.868,7.816Zm5.457-5.349a2.466,2.466,0,1,1,3,2.407V6.507a.538.538,0,0,1-1.076,0V4.874A2.471,2.471,0,0,1,12.325,2.466Zm9.1,6.834-.9-.326-.742-5.082a1.925,1.925,0,0,0-.944-1.411.538.538,0,0,0-.544.928.836.836,0,0,1,.423.638l.789,5.4a.538.538,0,0,0,.349.428l1.2.436c.825.3.906.5.885.651l-1.295,8.866a.924.924,0,0,1-.816.786L11.671,22.4a.23.23,0,0,1-.2-.041,1.212,1.212,0,0,1-.393-.756l-.043-.261a.538.538,0,0,0-.714-.417L3.114,23.53c-.1.037-.232-.061-.269-.092a.661.661,0,0,1-.251-.548l2.5-14.974a1.093,1.093,0,0,1,.453-.788.538.538,0,0,0-.4-1A2.064,2.064,0,0,0,4.033,7.74l-2.5,14.973a1.712,1.712,0,0,0,.624,1.552,1.419,1.419,0,0,0,.906.351,1.225,1.225,0,0,0,.418-.074l6.628-2.4a2.076,2.076,0,0,0,.763,1.1,1.3,1.3,0,0,0,1.028.2l8.161-1.78a1.983,1.983,0,0,0,1.652-1.682l1.295-8.866C23.181,9.936,21.9,9.474,21.425,9.3ZM8.258,4.357a.538.538,0,0,0,.619-.442l.273-1.636a1.213,1.213,0,0,1,.393-.756.231.231,0,0,1,.2-.041l1.333.291A.538.538,0,0,0,11.3.721L9.969.43a1.3,1.3,0,0,0-1.028.2A2.214,2.214,0,0,0,8.089,2.1L7.816,3.737A.538.538,0,0,0,8.258,4.357Z" transform="translate(-2.052 0.308)" fill="#36512a"/>
      </g>
    </g>
    <rect id="Rectangle_18495" data-name="Rectangle 18495" width="32" height="32" fill="none"/>
  </g>
</svg>
