<svg id="Other_Structure" data-name="Other Structure" xmlns="http://www.w3.org/2000/svg" width="32" height="32" viewBox="0 0 32 32">
  <rect id="Rectangle_18611" data-name="Rectangle 18611" width="32" height="32" fill="none"/>
  <g id="Group_41562" data-name="Group 41562" transform="translate(3.001 7)">
    <path id="Subtraction_27" data-name="Subtraction 27" d="M-908-272h-9v-9h9v9Zm-8.364-1.462v.328h7.774v-.328Zm0-.742h0v.328h7.774v-.328Zm0-.742v.328h7.774v-.328Zm0-.742h0v.328h7.774v-.328Zm0-.742v.327h7.774v-.327Zm0-.742h0v.328h7.774v-.328Zm0-.742v.328h7.774v-.328Zm0-.742h0v.328h7.774v-.328Zm0-.742v.327h7.774v-.327Zm0-.742h0v.328h7.774v-.328Z" transform="translate(925 290)" fill="#36512a"/>
    <path id="Path_42936" data-name="Path 42936" d="M12.8,8.812h0V5.723l5.547-3.169v9.533H20.3s.026-7.579,0-7.658,4.436,0,4.436,0V17.791H17.08V8.812H12.8" fill="#c3c7b9"/>
    <path id="Path_42935" data-name="Path 42935" d="M.945,17.553v-4.99a20.2,20.2,0,0,0,2.812,0C3.784,12.432,3.65.257,3.65.257l6.722,2.3V8.67H7.721v8.883Z" transform="translate(0.079 0.185)" fill="#c3c7b9"/>
    <path id="Path_37774" data-name="Path 37774" d="M1.131,12.866H3.45v4.8H1.131Zm16.994-.557h4.341V17.67H18.126Zm-10-3.154h8.794V17.67H8.125Zm5.733-.965H16.2v.519H13.858Zm6.419-3.636h4.267V17.67H22.912V11.864H20.277ZM13,5.724,18.31,2.779v9.084h-.63V17.67h-.316V8.709h-.724V7.745H13.413v.964H13ZM3.9.61l6.178,1.972V8.709H7.68V17.67H3.9ZM3.45,0V12.42H.686v5.25H0v.445H25.6V17.67h-.612V4.108H19.832v7.755H18.756V2.023l-6.2,3.438V8.709H10.518V2.257Z" fill="#36512a"/>
  </g>
</svg>
