<svg id="Park" xmlns="http://www.w3.org/2000/svg" width="32" height="32" viewBox="0 0 32 32">
  <rect id="Rectangle_18621" data-name="Rectangle 18621" width="32" height="32" fill="none"/>
  <g id="Group_41649" data-name="Group 41649" transform="translate(-834 -6863)">
    <g id="Group_41647" data-name="Group 41647" transform="translate(838 6868)">
      <g id="Group_41648" data-name="Group 41648" transform="translate(0.936)">
        <path id="Path_55" data-name="Path 55" d="M22.067,488.613H.331a.327.327,0,1,1,0-.655H22.067a.327.327,0,1,1,0,.655" transform="translate(0 -466.66)" fill="#36512a"/>
        <path id="Path_65" data-name="Path 65" d="M4.114,154.257a.329.329,0,0,1-.332-.327v-5.093a.329.329,0,0,1,.332-.327H6.458a.329.329,0,0,1,.332.327v2.778a.332.332,0,0,1-.663,0v-2.451H4.445v4.766a.329.329,0,0,1-.332.327" transform="translate(-3.615 -142.027)" fill="#36512a"/>
        <path id="Path_66" data-name="Path 66" d="M57.154,69.857a.329.329,0,0,1-.332-.327V63.973a.329.329,0,0,1,.332-.327H59.5a.329.329,0,0,1,.332.327V68.14a.332.332,0,0,1-.663,0V64.3H57.485v5.229a.329.329,0,0,1-.332.327" transform="translate(-54.31 -60.868)" fill="#36512a"/>
        <path id="Path_67" data-name="Path 67" d="M112.537,3.433a.329.329,0,0,1-.332-.327V.655h-1.681V3.105a.332.332,0,0,1-.663,0V.327A.329.329,0,0,1,110.193,0h2.344a.329.329,0,0,1,.332.327V3.105a.329.329,0,0,1-.332.327" transform="translate(-105.005)" fill="#36512a"/>
        <path id="Path_68" data-name="Path 68" d="M164.167,64.3h-.938a.327.327,0,1,1,0-.655h.938a.327.327,0,1,1,0,.655" transform="translate(-155.698 -60.868)" fill="#36512a"/>
        <g id="park-svgrepo-com" transform="translate(0 3.533)">
          <g id="Group_165702" data-name="Group 165702" transform="translate(14.404 0.475)">
            <g id="Group_165701" data-name="Group 165701" transform="translate(0 0)">
              <path id="Path_42863" data-name="Path 42863" d="M326.7,80.047a1.981,1.981,0,0,0-2.086-1.947,2.641,2.641,0,0,0-2.206,1.115,1.68,1.68,0,0,0-1.405,1.7,1.661,1.661,0,0,0,1.595,1.715H326.5a1.266,1.266,0,0,0,1.219-1.3A1.28,1.28,0,0,0,326.7,80.047Z" transform="translate(-321 -78.1)" fill="#36512a"/>
            </g>
          </g>
          <g id="Group_165704" data-name="Group 165704" transform="translate(4.647 16.633)">
            <g id="Group_165703" data-name="Group 165703">
              <path id="Path_42864" data-name="Path 42864" d="M78.477,481.6a.378.378,0,0,0-.377.377v.377a.377.377,0,1,0,.755,0v-.377A.378.378,0,0,0,78.477,481.6Z" transform="translate(-78.1 -481.6)" fill="#36512a"/>
            </g>
          </g>
          <g id="Group_165706" data-name="Group 165706" transform="translate(3.172 16.633)">
            <g id="Group_165705" data-name="Group 165705">
              <path id="Path_42865" data-name="Path 42865" d="M43.777,481.6a.378.378,0,0,0-.377.377v.377a.377.377,0,1,0,.755,0v-.377A.381.381,0,0,0,43.777,481.6Z" transform="translate(-43.4 -481.6)" fill="#36512a"/>
            </g>
          </g>
          <g id="Group_165708" data-name="Group 165708" transform="translate(1.666 16.633)">
            <g id="Group_165707" data-name="Group 165707">
              <path id="Path_42866" data-name="Path 42866" d="M9.077,481.6a.378.378,0,0,0-.377.377v.377a.377.377,0,1,0,.755,0v-.377A.381.381,0,0,0,9.077,481.6Z" transform="translate(-8.7 -481.6)" fill="#36512a"/>
            </g>
          </g>
          <g id="Group_165710" data-name="Group 165710" transform="translate(9.974 16.633)">
            <g id="Group_165709" data-name="Group 165709">
              <path id="Path_42867" data-name="Path 42867" d="M217.277,481.6a.378.378,0,0,0-.377.377v.377a.377.377,0,1,0,.755,0v-.377A.378.378,0,0,0,217.277,481.6Z" transform="translate(-216.9 -481.6)" fill="#36512a"/>
            </g>
          </g>
          <g id="Group_165712" data-name="Group 165712" transform="translate(8.581 16.633)">
            <g id="Group_165711" data-name="Group 165711">
              <path id="Path_42868" data-name="Path 42868" d="M182.577,481.6a.378.378,0,0,0-.377.377v.377a.377.377,0,1,0,.755,0v-.377A.378.378,0,0,0,182.577,481.6Z" transform="translate(-182.2 -481.6)" fill="#36512a"/>
            </g>
          </g>
          <g id="Group_165714" data-name="Group 165714" transform="translate(7.188 16.633)">
            <g id="Group_165713" data-name="Group 165713">
              <path id="Path_42869" data-name="Path 42869" d="M147.877,481.6a.378.378,0,0,0-.377.377v.377a.377.377,0,1,0,.755,0v-.377A.378.378,0,0,0,147.877,481.6Z" transform="translate(-147.5 -481.6)" fill="#36512a"/>
            </g>
          </g>
          <g id="Group_165716" data-name="Group 165716" transform="translate(21.123 16.633)">
            <g id="Group_165715" data-name="Group 165715">
              <path id="Path_42870" data-name="Path 42870" d="M494.977,481.6a.378.378,0,0,0-.377.377v.377a.377.377,0,1,0,.755,0v-.377A.378.378,0,0,0,494.977,481.6Z" transform="translate(-494.6 -481.6)" fill="#36512a"/>
            </g>
          </g>
          <g id="Group_165718" data-name="Group 165718" transform="translate(19.618 16.633)">
            <g id="Group_165717" data-name="Group 165717">
              <path id="Path_42871" data-name="Path 42871" d="M460.277,481.6a.378.378,0,0,0-.377.377v.377a.377.377,0,1,0,.755,0v-.377A.378.378,0,0,0,460.277,481.6Z" transform="translate(-459.9 -481.6)" fill="#36512a"/>
            </g>
          </g>
          <g id="Group_165720" data-name="Group 165720" transform="translate(11.367 16.633)">
            <g id="Group_165719" data-name="Group 165719">
              <path id="Path_42872" data-name="Path 42872" d="M251.977,481.6a.378.378,0,0,0-.377.377v.377a.377.377,0,1,0,.755,0v-.377A.378.378,0,0,0,251.977,481.6Z" transform="translate(-251.6 -481.6)" fill="#36512a"/>
            </g>
          </g>
          <g id="Group_165722" data-name="Group 165722" transform="translate(14.852 16.633)">
            <g id="Group_165721" data-name="Group 165721">
              <path id="Path_42873" data-name="Path 42873" d="M338.777,481.6a.378.378,0,0,0-.377.377v.377a.377.377,0,1,0,.755,0v-.377A.378.378,0,0,0,338.777,481.6Z" transform="translate(-338.4 -481.6)" fill="#36512a"/>
            </g>
          </g>
          <g id="Group_165724" data-name="Group 165724" transform="translate(16.245 16.633)">
            <g id="Group_165723" data-name="Group 165723">
              <path id="Path_42874" data-name="Path 42874" d="M373.477,481.6a.378.378,0,0,0-.377.377v.377a.377.377,0,1,0,.755,0v-.377A.378.378,0,0,0,373.477,481.6Z" transform="translate(-373.1 -481.6)" fill="#36512a"/>
            </g>
          </g>
          <g id="Group_165726" data-name="Group 165726" transform="translate(11.39 8.869)">
            <g id="Group_165725" data-name="Group 165725">
              <path id="Path_42875" data-name="Path 42875" d="M268.381,320.654v-.815h.81a.4.4,0,1,0,0-.81h-.81v-.81h.81a.4.4,0,1,0,0-.81h-.81V317a.4.4,0,1,0-.81,0v.4h-4.846V317a.4.4,0,1,0-.81,0v.4h-.81a.4.4,0,0,0,0,.81h.81v.81h-.81a.4.4,0,1,0,0,.81h.81v.815a1.677,1.677,0,0,0-1.615,1.671v.745a.405.405,0,0,0,.4.4h1.21v1.615a.4.4,0,1,0,.81,0v-1.615h4.846v1.615a.4.4,0,1,0,.81,0v-1.615h1.21a.405.405,0,0,0,.4-.4v-.745A1.677,1.677,0,0,0,268.381,320.654Zm-.81-.009h-4.846v-.81h4.846Zm0-1.615h-4.846v-.81h4.846Z" transform="translate(-260.3 -316.6)" fill="#36512a"/>
            </g>
          </g>
          <g id="Group_165728" data-name="Group 165728" transform="translate(11.367 0.571)">
            <g id="Group_165727" data-name="Group 165727" transform="translate(0 0)">
              <path id="Path_42876" data-name="Path 42876" d="M142.151,4.3a1.9,1.9,0,0,0-1.649.965,1.624,1.624,0,0,0-1.33-.693.272.272,0,0,0,0,.543A1.086,1.086,0,0,1,140.255,6.2a.272.272,0,0,0,.543,0,1.358,1.358,0,0,1,1.355-1.355.272.272,0,1,0,0-.543Z" transform="translate(-138.9 -4.3)" fill="#36512a"/>
            </g>
          </g>
          <g id="Group_165730" data-name="Group 165730" transform="translate(0 1.085)">
            <g id="Group_165729" data-name="Group 165729">
              <path id="Path_42877" data-name="Path 42877" d="M6.363,186.6a6.3,6.3,0,0,0-.456,12.6v3.631a.456.456,0,0,0,.911,0V199.2a6.3,6.3,0,0,0-.456-12.6Zm1.686,8.883L6.819,196.7v2.068a.456.456,0,0,0-.911,0V196.7l-1.231-1.221a.449.449,0,0,1,0-.639.458.458,0,0,1,.644,0l1.042,1.034,1.042-1.034a.458.458,0,0,1,.644,0A.449.449,0,0,1,8.049,195.483Z" transform="translate(0 -186.6)" fill="#36512a"/>
            </g>
          </g>
        </g>
      </g>
      <path id="Path_69" data-name="Path 69" d="M5,93.878H29" transform="translate(-5 -71.924)" fill="#36512a"/>
    </g>
  </g>
</svg>
