<svg xmlns="http://www.w3.org/2000/svg" width="32" height="32" viewBox="0 0 32 32">
  <g id="ProgressNOCs_" data-name="ProgressNOCs " transform="translate(-98 -407)">
    <rect id="Rectangle_150518" data-name="Rectangle 150518" width="32" height="32" rx="4" transform="translate(98 407)" fill="#0086b4" opacity="0.1"/>
    <g id="license-svgrepo-com" transform="translate(102 414)">
      <path id="Union_60" data-name="Union 60" d="M-101.616-2963.656a.383.383,0,0,1-.383-.383v-2.861a.384.384,0,0,1,.383-.384.384.384,0,0,1,.383.384v2.479h19.417v-3.143a.384.384,0,0,1,.383-.383h3.143v-13.285h-22.943v11.88a.384.384,0,0,1-.383.384.384.384,0,0,1-.383-.384v-12.263a.384.384,0,0,1,.383-.383h23.71a.383.383,0,0,1,.382.383v14.052a.386.386,0,0,1-.112.271l-3.526,3.526a.389.389,0,0,1-.271.112Zm20.567-1.309,2.218-2.217h-2.218Zm-15.227-.71v-4.007h-.639a.384.384,0,0,1-.332-.193l-.661-1.144-1.144-.661a.382.382,0,0,1-.192-.331v-1.321l-.661-1.145a.382.382,0,0,1,0-.383l.661-1.145v-1.32a.385.385,0,0,1,.192-.333l1.144-.66.661-1.145a.385.385,0,0,1,.332-.192h1.321l1.144-.66a.383.383,0,0,1,.383,0l1.145.66H-91.6a.384.384,0,0,1,.331.192l.661,1.145,1.145.66a.385.385,0,0,1,.192.333v1.32l.661,1.145a.382.382,0,0,1,0,.383l-.661,1.145v1.321a.382.382,0,0,1-.192.331l-1.144.661-.661,1.145a.386.386,0,0,1-.332.193h-.639v4.007a.386.386,0,0,1-.613.306l-1.406-1.053-1.4,1.053a.367.367,0,0,1-.223.076A.387.387,0,0,1-96.277-2965.675Zm2.248-1.533,1.021.766v-3.191l-1.06.611a.387.387,0,0,1-.382,0l-1.061-.611v3.191l1.022-.766a.377.377,0,0,1,.229-.077A.382.382,0,0,1-94.028-2967.207Zm-3.267-10.638a.381.381,0,0,1-.14.14l-1.041.6v1.2a.386.386,0,0,1-.051.191l-.6,1.041.6,1.042a.387.387,0,0,1,.051.192v1.2l1.041.6a.367.367,0,0,1,.14.14l.6,1.04h1.2a.388.388,0,0,1,.192.051l1.041.6,1.042-.6a.385.385,0,0,1,.192-.051h1.2l.6-1.04a.361.361,0,0,1,.14-.14l1.041-.6v-1.2a.387.387,0,0,1,.051-.192l.6-1.042-.6-1.041a.384.384,0,0,1-.051-.191v-1.2l-1.041-.6a.374.374,0,0,1-.14-.14l-.6-1.041h-1.2a.4.4,0,0,1-.192-.05l-1.042-.6-1.041.6a.4.4,0,0,1-.192.05h-1.2Zm11.826,8.876a.384.384,0,0,1-.383-.384.384.384,0,0,1,.383-.383h3.679a.383.383,0,0,1,.382.383.383.383,0,0,1-.382.384Zm-12.852-5.7a4.067,4.067,0,0,1,4.063-4.062,4.066,4.066,0,0,1,4.062,4.062,4.066,4.066,0,0,1-4.062,4.063A4.067,4.067,0,0,1-98.321-2974.668Zm2.248.126v1.918a.385.385,0,0,0,.383.384h2.861a.385.385,0,0,0,.383-.384v-1.92l.176.16a.382.382,0,0,0,.257.1.384.384,0,0,0,.313-.157.386.386,0,0,0-.054-.507L-94-2977a.383.383,0,0,0-.257-.1.385.385,0,0,0-.258.1l-.789.719v-.026a.383.383,0,0,0-.383-.383.383.383,0,0,0-.383.383v.722l-.692.63a.388.388,0,0,0-.053.507.385.385,0,0,0,.313.157.378.378,0,0,0,.256-.1l.175-.159h0Zm12.811,2.711a.384.384,0,0,1-.383-.384.384.384,0,0,1,.383-.383h3.311a.384.384,0,0,1,.383.383.384.384,0,0,1-.383.384Zm-4.046,0a.384.384,0,0,1-.383-.384.384.384,0,0,1,.383-.383h2.575a.383.383,0,0,1,.383.383.383.383,0,0,1-.383.384Zm-7.334-1.175h-.663v-2.234l1.048-.952,1.052.957a.438.438,0,0,0,0,.058v2.171h-.664v-1.252a.384.384,0,0,0-.383-.384.384.384,0,0,0-.383.384v1.252h0Zm7.334-.869a.384.384,0,0,1-.383-.383.384.384,0,0,1,.383-.384h7.358a.383.383,0,0,1,.383.384.383.383,0,0,1-.383.383Zm5.518-2.044a.383.383,0,0,1-.383-.383.384.384,0,0,1,.383-.384h1.84a.384.384,0,0,1,.383.384.383.383,0,0,1-.383.383Zm-5.518,0a.383.383,0,0,1-.383-.383.384.384,0,0,1,.383-.384h4.046a.383.383,0,0,1,.383.384.382.382,0,0,1-.383.383Z" transform="translate(102 2982)" fill="#0086b4"/>
    </g>
  </g>
</svg>
