<svg xmlns="http://www.w3.org/2000/svg" width="40" height="40" viewBox="0 0 40 40">
  <g id="Public_Utility" data-name="Public Utility" transform="translate(-468.501 -252)">
    <rect id="Rectangle_1" data-name="Rectangle 1" width="40" height="40" rx="4" transform="translate(468.501 252)" fill="rgba(54,118,188,0.2)"/>
    <g id="Utilities-icon" transform="translate(929.351 272.262)">
      <path id="Union_54" data-name="Union 54" d="M-952.578-1983.338a3.172,3.172,0,0,1-.293-.579,3.2,3.2,0,0,1-.211-1.145c0-.027,0-.055,0-.082a7.239,7.239,0,0,1,1.24-3.757,9.288,9.288,0,0,1,1.749-2.121.15.15,0,0,1,.2,0,9.4,9.4,0,0,1,1.755,2.124,7.281,7.281,0,0,1,1.237,3.834,3.122,3.122,0,0,1-3.093,3.148A3.071,3.071,0,0,1-952.578-1983.338Zm4.39-1.9a2.565,2.565,0,0,1-1.669,1.777c-.182.066-.141.376.05.376h.009a2,2,0,0,0,1.934-2.054v-.031a.177.177,0,0,0-.17-.19A.164.164,0,0,0-948.188-1985.238Zm6.993-14.647h-3.117l3.117-5.954h4.156l-3.117,4.466H-936l-7.273,7.443Zm-17.55,4.431c0-.38-.324-1-1.948-2.16a3.54,3.54,0,0,1-1.659-2.7c0-2.86,3.668-4.4,3.668-6.7a2.1,2.1,0,0,0-.014-.249,3.407,3.407,0,0,1,.975,2.255c0,2.007-2.621,3.222-2.621,5.062a3.056,3.056,0,0,0,.813,1.733,4.034,4.034,0,0,1,1.1,2.157,1.829,1.829,0,0,1-.436,1.156A4.2,4.2,0,0,0-958.745-1995.454Zm.932-2.706a5.349,5.349,0,0,0,1.042-2.416,1.694,1.694,0,0,0-.227-.833c-.037.806-1.389,2.187-1.449,2.187a1.6,1.6,0,0,1-.446-1.049.993.993,0,0,1,.08-.394c.06-.138,1.411-1.8,1.411-2.911a.991.991,0,0,0-.085-.427l-.1-.179a5.5,5.5,0,0,1,2.362,3.264,3.448,3.448,0,0,1,.055.613,5.067,5.067,0,0,1-1.678,3.412c-.024.025-.055.059-.079.059A3.613,3.613,0,0,1-957.812-1998.16Z" transform="translate(509 1994.326)" fill="#3676bc"/>
      <path id="Union_53" data-name="Union 53" d="M9.5,11.206l9.5,7.72Zm0,0L0,18.926ZM9.5,0V0Z" transform="translate(-450.494 -12.936)" fill="none" stroke="#3676bc" stroke-width="1"/>
    </g>
  </g>
</svg>
