<svg xmlns="http://www.w3.org/2000/svg" width="40" height="40" viewBox="0 0 40 40">
  <g id="Recreational_Services" data-name="Recreational Services" transform="translate(-469 -377)">
    <rect id="Rectangle_1" data-name="Rectangle 1" width="40" height="40" rx="4" transform="translate(469 377)" fill="rgba(84,73,0,0.2)"/>
    <path id="Religious-icon" d="M-475.414-2094.4c-.466,0-.933,0-1.4,0a.647.647,0,0,0-.122-.265l-.027.265H-506a1.347,1.347,0,0,1,.08-.488c.143-1.283.261-2.57.4-3.853a5.7,5.7,0,0,0,.136-.955l-.244-.059a.552.552,0,0,1,0-.428l.28-.058v-8.935c.009-.263-.279-.411-.323-.661a5.152,5.152,0,0,1-.013-.553c.161-.011.323-.016.488-.021v-3.815c.61-.007,1.22,0,1.822,0v3.821a3.686,3.686,0,0,1,.489.022v.391c.011.33-.338.553-.3.887v8.842a.588.588,0,0,1,.32.279l-.1.236-.192.049c.093.965.185,1.931.305,2.893l.292-.007v-2.894h1v-5.684c0-.219-.176-.385-.217-.592-.012-.131-.009-.266-.009-.4.122-.009.25-.016.374-.022v-2.556a1.572,1.572,0,0,0-.135-.506l.2-.05c.13-.644.189-1.3.366-1.937.073-.458.156-.914.22-1.373l.086.1a1.629,1.629,0,0,0,.1.463c.172.811.233,1.65.445,2.45.018.086.035.173.053.261l.17.151a.382.382,0,0,1-.166.2v2.8c.112,0,.226.014.339.023a1.305,1.305,0,0,1-.211.835c-.034,1.281-.012,2.562-.012,3.848.313.005.626,0,.941,0,.261,0,.522,0,.784,0a4.114,4.114,0,0,1,.049-.515h.6v-1.627l-.221-.015a.421.421,0,0,1,.218-.163,17.015,17.015,0,0,0,.04-1.831h1.251c.022-.084-.013-.195.067-.255.1-.009.2-.008.3-.008h.112a6.707,6.707,0,0,1,3.322-3.173,5.139,5.139,0,0,1,1.138-.419,6.987,6.987,0,0,1,1.569-.269v-.464a2.428,2.428,0,0,0,.3-.509c-.183-.27.149-.558,0-.847.038-.154.084-.306.134-.456.009.114.017.229.026.343.086.086.042.193.012.289.03.1.05.2.072.3a.288.288,0,0,1-.015.343c.106.334.427.61.294,1a10.194,10.194,0,0,1,1.369.209,9.365,9.365,0,0,1,1.342.475,6.781,6.781,0,0,1,2.731,2.227,8.591,8.591,0,0,1,.6.958h.4c.074.062.042.171.065.255h1.236c.031.617.006,1.238.014,1.856h.185v.146h-.186c0,.543.009,1.086-.006,1.631h.644a4.679,4.679,0,0,1,.049.514h1.013q.026-1.921,0-3.843a1.377,1.377,0,0,1-.217-.854c.122-.009.25-.015.376-.02v-2.562c.024-.149-.086-.255-.163-.365l.233-.167c.076-.579.176-1.156.282-1.728.159-.543.185-1.116.316-1.668.033.259.075.518.131.772.181.717.253,1.457.389,2.184.042.2.036.467.266.547-.011.108.014.245-.113.282-.008.9,0,1.805,0,2.709h.336a1.241,1.241,0,0,1-.064.576,1.089,1.089,0,0,0-.159.421v5.686c.322,0,.644,0,.966.015,0,.962.007,1.925-.007,2.887l.366-.02c.078-.954.167-1.91.313-2.855-.193-.018-.288-.19-.331-.365a2.169,2.169,0,0,1,.358-.221v-8.915c.016-.193-.166-.314-.234-.48a1.344,1.344,0,0,1-.1-.742c.174,0,.346,0,.521-.016v-3.868h0l0-.019v.019c.592-.03,1.187-.024,1.78,0v3.9a.911.911,0,0,0,.171,0,.408.408,0,0,1,.305.053,1.222,1.222,0,0,1-.324,1.067c-.011,3.011,0,6.021,0,9.028q.17.059.337.129v.289l-.262.151c.129,1.119.235,2.239.35,3.359a1.269,1.269,0,0,0,.077.405c.062.5.1,1.009.161,1.513-.4.006-.8.008-1.2.008Zm-8.491-.739c-.01.1.041.158.155.172.029-1.767,0-3.539.012-5.3-.052-.654.055-1.313-.031-1.966a.23.23,0,0,0-.138.255h0Zm-11.143.138h.223v-7.2h-.223Zm9.707-2.5a.421.421,0,0,0-.19.268l-.009.013c-.028.4-.01.794,0,1.192.267.011.534.011.8,0a9.957,9.957,0,0,0-.02-1.3l-.258-.22a.43.43,0,0,0-.107-.014A.415.415,0,0,0-485.342-2097.5Zm-1.623,1.479h.743c-.009-.412.015-.825-.009-1.236-.045-.25-.3-.319-.521-.3-.084.1-.22.188-.21.337h0C-486.976-2096.82-486.965-2096.421-486.965-2096.022Zm-2.91,0h.8v-1.118a.842.842,0,0,0-.122-.354,3.364,3.364,0,0,0-.425-.061c-.081.092-.163.185-.244.278h-.013Zm1.423-1.052v1.048c.269,0,.538.006.807,0,0-.366.018-.743,0-1.114a.71.71,0,0,0-.226-.412c-.134.021-.292-.012-.406.074v0A.659.659,0,0,0-488.452-2097.077Zm-2.538-.472c-.193.014-.284.19-.349.346.046.39.013.784.022,1.176h.8a8.432,8.432,0,0,0-.008-1.168.378.378,0,0,0-.148-.286.375.375,0,0,0-.229-.077A.378.378,0,0,0-490.99-2097.549Zm-1.736,1.521h.779c-.007-.412.015-.824-.008-1.236-.06-.261-.347-.3-.573-.3-.081.1-.209.2-.2.346l0,0C-492.736-2096.821-492.726-2096.426-492.726-2096.028Zm-1.441-1.238h0c-.024.411,0,.825-.008,1.238h.742c0-.4.007-.795,0-1.192.013-.149-.121-.245-.206-.343-.023,0-.048,0-.072,0A.408.408,0,0,0-494.167-2097.266Zm11.944-.078.139.053c.008-.2.011-.4.011-.593h-.15Zm-14.515.04.148-.068c-.037-.175.1-.485-.148-.535Zm6.691-2.957v1.706h1.15c0-.6.013-1.2-.005-1.8-.058-.268-.277-.594-.591-.545a.6.6,0,0,0-.553.637v0Zm-1.044.209a.4.4,0,0,0-.218.328h.009c-.023.388,0,.779-.009,1.167h.8c.013-.347.021-.695,0-1.043-.022-.155-.04-.343-.189-.432a.4.4,0,0,0-.215-.064A.393.393,0,0,0-491.09-2100.053Zm2.811.031h0a2.227,2.227,0,0,0-.139.238,7.469,7.469,0,0,0-.038,1.22h.806c.01-.351.019-.7,0-1.054a.771.771,0,0,0-.224-.476c-.023,0-.046,0-.069,0A.82.82,0,0,0-488.28-2100.022Zm-8.443.573.136-.089v-.5l-.149-.009h0C-496.738-2099.846-496.738-2099.647-496.723-2099.449Zm14.5-.594v.556h.148v-.558h-.148Zm-14.463-2.786a3.741,3.741,0,0,0-.032,1.037l.089.121a3.119,3.119,0,0,0,0-1.17h-.062Zm14.476,1.069.136.048c0-.375.013-.751,0-1.126h-.136v0C-482.217-2102.475-482.223-2102.119-482.207-2101.76Zm-13.552-.44h.258c-.007-.61.016-1.214-.014-1.819l-.039.184,0,0h-.207Zm12.511,0h.223v-1.63h-.223Zm-5.728-3.116a11.717,11.717,0,0,0-.023,1.206h.814c0-.394.009-.787,0-1.181-.013-.213-.233-.319-.412-.366C-488.749-2105.576-488.956-2105.518-488.977-2105.317Zm-.653-.293a.429.429,0,0,0-.323.356c-.023.38,0,.761-.008,1.142h.853a5.453,5.453,0,0,0-.07-1.331.429.429,0,0,0-.349-.18A.447.447,0,0,0-489.631-2105.61Zm3.732-.036a.412.412,0,0,0-.244.4v1.13h.706v-1.116a.39.39,0,0,0-.128-.323.389.389,0,0,0-.257-.1A.371.371,0,0,0-485.9-2105.646Zm-2.129.3v.006c-.023.408.007.817-.016,1.219h.788c-.009-.41.015-.822-.009-1.232-.029-.2-.23-.254-.388-.323C-487.786-2105.58-487.97-2105.507-488.027-2105.343Zm-2.87,1.226h.781v-1.179a.559.559,0,0,0-.116-.263l-.3-.09c-.094.041-.186.079-.281.122l0-.005A4.8,4.8,0,0,0-490.9-2104.117Zm-.9-1.329,0,0a5.953,5.953,0,0,0-.062,1.327h.809c-.009-.4.017-.8-.011-1.2a.407.407,0,0,0-.323-.306.409.409,0,0,0-.073-.006A.4.4,0,0,0-491.792-2105.447Zm-2.732.13,0,0c-.028.4,0,.8-.011,1.2h.743c-.006-.4.012-.793-.006-1.19a.749.749,0,0,0-.359-.365C-494.312-2105.6-494.514-2105.515-494.525-2105.317Zm-.751-.27h0a.818.818,0,0,0-.122.353v1.116h.71v-1.25a.439.439,0,0,0-.249-.237.441.441,0,0,0-.151-.027A.434.434,0,0,0-495.275-2105.587Zm2.518,1.468h.78v-1.038a.522.522,0,0,0-.262-.455c-.211-.105-.418.066-.521.244l0,0C-492.75-2104.955-492.757-2104.537-492.757-2104.119Zm-.888,0h.743v-1.232c-.113-.129-.233-.32-.432-.292a.378.378,0,0,0-.311.405h0Zm10.1-1.261h0c.007.418,0,.836,0,1.256h.509a1.993,1.993,0,0,0,.2-.816c0-.244,0-.6-.278-.684a.222.222,0,0,0-.094-.021C-483.35-2105.647-483.456-2105.483-483.546-2105.382Zm-.837,1.257h.693c-.008-.376.012-.752,0-1.126a.437.437,0,0,0-.271-.4.369.369,0,0,0-.269.08.368.368,0,0,0-.134.246h0A4.508,4.508,0,0,0-484.383-2104.125Zm-11.864-.741a1.059,1.059,0,0,1,.5.741h.207c-.008-.409.014-.817-.007-1.22-.073-.165-.274-.4-.466-.258v-.008C-496.305-2105.49-496.233-2105.124-496.247-2104.866Zm10.994.738h.706c-.013-.4.023-.8-.015-1.2a.366.366,0,0,0-.239-.293.366.366,0,0,0-.371.075h0A5.343,5.343,0,0,0-485.252-2104.128Zm-1.847-1.174v.01c-.025.387,0,.776-.008,1.164h.779c-.007-.392.014-.783-.009-1.174a.436.436,0,0,0-.33-.366A.506.506,0,0,0-487.1-2105.3Zm4.562-.267c-.266.185-.178.545-.187.819a1,1,0,0,1,.693-.2,1.1,1.1,0,0,0-.036-.5.36.36,0,0,0-.3-.2A.214.214,0,0,0-482.537-2105.569Zm-14.523.661a3.978,3.978,0,0,1,.671-.041,1.769,1.769,0,0,0-.036-.528c-.113-.113-.3-.251-.453-.114h0C-497.122-2105.454-497.049-2105.14-497.06-2104.907Zm-8.167-9.428-.07-.2a1.4,1.4,0,0,0,.292-.4c.111-.733.235-1.451.355-2.175.173-.691.232-1.4.384-2.1.053.11.094.225.139.338.121.732.244,1.464.365,2.2.174.654.244,1.328.366,1.994l.189-.008c.02.094.037.187.054.283q-.76.071-1.524.071Q-504.952-2114.327-505.228-2114.336Zm29.141,0c-.089-.133-.106-.366.121-.35.031-.178.06-.358.1-.535.229-.829.244-1.708.48-2.532.094-.524.153-1.053.268-1.571.051.244.082.5.134.752.231.826.252,1.708.48,2.533.086.419.138.845.217,1.264.027.151.314.143.245.326l-.122.122C-474.8-2114.374-475.447-2114.359-476.087-2114.34Z" transform="translate(979 2503.656)" fill="#544900"/>
  </g>
</svg>
