<svg xmlns="http://www.w3.org/2000/svg" width="40" height="40" viewBox="0 0 40 40">
  <g id="Recreational_Services" data-name="Recreational Services" transform="translate(-469 -321)">
    <rect id="Rectangle_1" data-name="Rectangle 1" width="40" height="40" rx="4" transform="translate(469 321)" fill="rgba(80,178,49,0.2)"/>
    <path id="Recreational-icon" d="M-481.79-2040.548v-2.182h-6.547v2.182a.547.547,0,0,1-.547.547.548.548,0,0,1-.547-.547v-2.182h-1.634a.547.547,0,0,1-.547-.546v-1.006a2.266,2.266,0,0,1,2.182-2.258v-1.1h-1.094a.547.547,0,0,1-.547-.547.547.547,0,0,1,.547-.546h1.094v-1.094h-1.094a.543.543,0,0,1-.33-.111,8.623,8.623,0,0,1-6.934,4.424v4.905a.613.613,0,0,1-.616.611.614.614,0,0,1-.616-.611v-4.905a8.552,8.552,0,0,1-7.98-8.492,8.571,8.571,0,0,1,8.6-8.527,8.6,8.6,0,0,1,3.937.948,1.468,1.468,0,0,0-1.456-1.312.367.367,0,0,1-.367-.366.368.368,0,0,1,.367-.367,2.195,2.195,0,0,1,1.8.936,2.56,2.56,0,0,1,2.227-1.3.372.372,0,0,1,.372.367.367.367,0,0,1-.367.367,1.834,1.834,0,0,0-1.831,1.831.365.365,0,0,1-.079.227,8.512,8.512,0,0,1,4,7.2,8.4,8.4,0,0,1-.584,3.084h.961v-.547a.548.548,0,0,1,.547-.547.547.547,0,0,1,.547.547v.547h6.547v-.547a.548.548,0,0,1,.547-.547.548.548,0,0,1,.547.547v.547h1.094a.547.547,0,0,1,.547.547.548.548,0,0,1-.547.547H-480.7v1.094h1.094a.547.547,0,0,1,.547.546.547.547,0,0,1-.547.547H-480.7v1.1a2.266,2.266,0,0,1,2.182,2.258v1.006a.547.547,0,0,1-.547.546H-480.7v2.182a.548.548,0,0,1-.547.547A.548.548,0,0,1-481.79-2040.548Zm-16-5.545v-2.793l1.662-1.649a.605.605,0,0,0,0-.863.618.618,0,0,0-.869,0l-1.409,1.4-1.408-1.4a.619.619,0,0,0-.87,0,.607.607,0,0,0,0,.863l1.662,1.649v2.793a.614.614,0,0,1,.616-.61A.613.613,0,0,1-497.788-2046.092Zm9.452-.461h6.547v-1.094h-6.547Zm0-2.182h6.547v-1.094h-6.547Zm9.872,8.224v-.51a.51.51,0,0,1,.509-.509.51.51,0,0,1,.51.509v.51a.51.51,0,0,1-.51.509A.51.51,0,0,1-478.464-2040.511Zm-2.033,0v-.51a.51.51,0,0,1,.509-.509.51.51,0,0,1,.51.509v.51a.51.51,0,0,1-.51.509A.51.51,0,0,1-480.5-2040.511Zm-4.557,0v-.51a.51.51,0,0,1,.51-.509.51.51,0,0,1,.509.509v.51a.51.51,0,0,1-.509.509A.51.51,0,0,1-485.054-2040.511Zm-1.882,0v-.51a.51.51,0,0,1,.509-.509.51.51,0,0,1,.51.509v.51a.51.51,0,0,1-.51.509A.51.51,0,0,1-486.936-2040.511Zm-4.708,0v-.51a.51.51,0,0,1,.51-.509.51.51,0,0,1,.509.509v.51a.51.51,0,0,1-.509.509A.51.51,0,0,1-491.644-2040.511Zm-1.882,0v-.51a.51.51,0,0,1,.51-.509.51.51,0,0,1,.509.509v.51a.51.51,0,0,1-.509.509A.51.51,0,0,1-493.526-2040.511Zm-1.882,0v-.51a.51.51,0,0,1,.51-.509.51.51,0,0,1,.509.509v.51a.51.51,0,0,1-.509.509A.51.51,0,0,1-495.408-2040.511Zm-1.882,0v-.51a.51.51,0,0,1,.509-.509.51.51,0,0,1,.51.509v.51a.51.51,0,0,1-.51.509A.51.51,0,0,1-497.29-2040.511Zm-3.433,0v-.51a.51.51,0,0,1,.509-.509.51.51,0,0,1,.51.509v.51a.51.51,0,0,1-.51.509A.51.51,0,0,1-500.722-2040.511Zm-1.993,0v-.51a.51.51,0,0,1,.509-.509.514.514,0,0,1,.51.509v.51a.51.51,0,0,1-.51.509A.51.51,0,0,1-502.715-2040.511Zm-2.034,0v-.51a.51.51,0,0,1,.509-.509.514.514,0,0,1,.51.509v.51a.51.51,0,0,1-.51.509A.51.51,0,0,1-504.749-2040.511Zm19.362-16.725a2.244,2.244,0,0,1-2.155-2.316,2.271,2.271,0,0,1,1.9-2.3,3.568,3.568,0,0,1,2.981-1.506,2.677,2.677,0,0,1,2.818,2.63,1.729,1.729,0,0,1,1.381,1.736,1.71,1.71,0,0,1-1.647,1.757Z" transform="translate(981 2393)" fill="#50b231"/>
  </g>
</svg>
