<svg xmlns="http://www.w3.org/2000/svg" width="32" height="32" viewBox="0 0 32 32">
  <g id="RejectedLicense" transform="translate(-98 -646)">
    <rect id="Rectangle_150522" data-name="Rectangle 150522" width="32" height="32" rx="4" transform="translate(98 646)" fill="#d31510" opacity="0.1"/>
    <path id="Union_56" data-name="Union 56" d="M-103.507-3193.874a.493.493,0,0,1-.493-.493v-23.14a.492.492,0,0,1,.493-.492h13.293a.489.489,0,0,1,.348.143l4.924,4.923a.5.5,0,0,1,.143.348h0v18.217a.493.493,0,0,1-.492.493Zm.492-.985h17.232v-17.232h-4.432a.492.492,0,0,1-.492-.492v-4.431h-12.308ZM-90.707-3196a2.913,2.913,0,0,1-1.126.24,2.057,2.057,0,0,1-1.8-.961,2.45,2.45,0,0,1-.076-2.282,2.455,2.455,0,0,1,.076-2.285,2.055,2.055,0,0,1,1.8-.958,2.9,2.9,0,0,1,1.128.24,2.9,2.9,0,0,1,1.129-.24,2.053,2.053,0,0,1,1.8.958A2.457,2.457,0,0,1-87.7-3199a2.455,2.455,0,0,1-.076,2.282,2.06,2.06,0,0,1-1.8.961A2.914,2.914,0,0,1-90.707-3196Zm-.985-1.772h1.97v-.985h-1.97Zm.492-1.478h.985v-.985H-91.2Zm-5.7,3.4v-.985h.985v.985Zm-1.408,0v-.985h.985v.985Zm-3.519,0v-.985h.986v.985Zm0-1.689v-.985h5.911v.985Zm13.793-6.193v-.985h.985v.985Zm-1.408,0v-.985h.985v.985Zm-12.386,0v-.985h11.823v.985Zm0-1.97v-.985H-87.05v.985Zm0-1.97v-.986H-87.05v.986Zm3.519-1.971v-.985h7.881v.985Zm-3.519-3.941v-.985h5.911v.985Zm0-1.407v-.986h2.956v.986Z" transform="translate(208 3868)" fill="#d31510"/>
  </g>
</svg>
