<svg xmlns="http://www.w3.org/2000/svg" width="32" height="32" viewBox="0 0 32 32">
  <g id="RejectedNOCs_" data-name="RejectedNOCs " transform="translate(-98 -448)">
    <rect id="Rectangle_150502" data-name="Rectangle 150502" width="32" height="32" rx="4" transform="translate(98 448)" fill="#d31510" opacity="0.1"/>
    <g id="license-svgrepo-com" transform="translate(102 455)">
      <path id="Union_59" data-name="Union 59" d="M-101.616-3004.656a.383.383,0,0,1-.383-.383v-2.861a.384.384,0,0,1,.383-.383.384.384,0,0,1,.383.383v2.479h19.417v-3.143a.384.384,0,0,1,.383-.383h3.143v-13.285h-22.943v11.88a.384.384,0,0,1-.383.383.384.384,0,0,1-.383-.383v-12.263a.384.384,0,0,1,.383-.384h23.71a.383.383,0,0,1,.382.384v14.052a.386.386,0,0,1-.112.271l-3.526,3.526a.389.389,0,0,1-.271.112Zm20.567-1.309,2.218-2.217h-2.218Zm-11.8-.4-1.406-1.054-1.4,1.054a.372.372,0,0,1-.223.075.387.387,0,0,1-.39-.381v-4.008h-.639a.384.384,0,0,1-.332-.192l-.661-1.144-1.144-.661a.382.382,0,0,1-.192-.331v-1.321l-.661-1.145a.382.382,0,0,1,0-.383l.661-1.145v-1.321a.383.383,0,0,1,.192-.332l1.144-.661.661-1.144a.383.383,0,0,1,.332-.192h1.321l1.144-.66a.383.383,0,0,1,.383,0l1.145.66H-91.6a.382.382,0,0,1,.331.192l.661,1.144,1.145.661a.383.383,0,0,1,.192.332V-3017l.661,1.144a.384.384,0,0,1,0,.384l-.661,1.145v1.321a.382.382,0,0,1-.192.331l-1.144.661-.661,1.145a.385.385,0,0,1-.332.192h-.639v4.008a.387.387,0,0,1-.39.381A.368.368,0,0,1-92.853-3006.368Zm-1.175-1.839,1.021.766v-3.192l-1.06.612a.387.387,0,0,1-.382,0l-1.061-.612v3.192l1.022-.766a.38.38,0,0,1,.229-.077A.384.384,0,0,1-94.028-3008.207Zm-3.267-10.638a.388.388,0,0,1-.14.14l-1.041.6v1.2a.386.386,0,0,1-.051.192l-.6,1.041.6,1.042a.385.385,0,0,1,.051.192v1.2l1.041.6a.381.381,0,0,1,.14.14l.6,1.041h1.2a.388.388,0,0,1,.192.051l1.041.6,1.042-.6a.385.385,0,0,1,.192-.051h1.2l.6-1.041a.374.374,0,0,1,.14-.14l1.041-.6v-1.2a.385.385,0,0,1,.051-.192l.6-1.042-.6-1.041a.384.384,0,0,1-.051-.192v-1.2l-1.041-.6a.381.381,0,0,1-.14-.14l-.6-1.041h-1.2a.383.383,0,0,1-.192-.051l-1.042-.6-1.041.6a.383.383,0,0,1-.192.051h-1.2Zm11.826,8.875a.384.384,0,0,1-.383-.383.384.384,0,0,1,.383-.384h3.679a.383.383,0,0,1,.382.384.383.383,0,0,1-.382.383Zm-12.852-5.7a4.067,4.067,0,0,1,4.063-4.062,4.066,4.066,0,0,1,4.062,4.063,4.066,4.066,0,0,1-4.062,4.062A4.066,4.066,0,0,1-98.321-3015.668Zm2.248.126v1.918a.384.384,0,0,0,.383.384h2.861a.384.384,0,0,0,.383-.384v-1.921l.176.16a.383.383,0,0,0,.257.1.384.384,0,0,0,.313-.157.387.387,0,0,0-.054-.508L-94-3018a.384.384,0,0,0-.257-.1.386.386,0,0,0-.258.1l-.789.718v-.026a.384.384,0,0,0-.383-.383.384.384,0,0,0-.383.383v.723l-.692.629a.389.389,0,0,0-.053.508.385.385,0,0,0,.313.157.379.379,0,0,0,.256-.1l.175-.158,0,0Zm12.811,2.711a.384.384,0,0,1-.383-.383.384.384,0,0,1,.383-.384h3.311a.384.384,0,0,1,.383.384.384.384,0,0,1-.383.383Zm-4.046,0a.384.384,0,0,1-.383-.383.384.384,0,0,1,.383-.384h2.575a.383.383,0,0,1,.383.384.383.383,0,0,1-.383.383Zm-7.334-1.176h-.663v-2.234l1.048-.952,1.052.957a.446.446,0,0,0,0,.058v2.17h-.664v-1.252a.384.384,0,0,0-.383-.383.384.384,0,0,0-.383.383v1.252h0Zm7.334-.868a.384.384,0,0,1-.383-.383.384.384,0,0,1,.383-.384h7.358a.383.383,0,0,1,.383.384.383.383,0,0,1-.383.383Zm5.518-2.044a.384.384,0,0,1-.383-.383.384.384,0,0,1,.383-.384h1.84a.384.384,0,0,1,.383.384.384.384,0,0,1-.383.383Zm-5.518,0a.384.384,0,0,1-.383-.383.384.384,0,0,1,.383-.384h4.046a.383.383,0,0,1,.383.384.383.383,0,0,1-.383.383Z" transform="translate(102 3023)" fill="#d31510"/>
    </g>
  </g>
</svg>
