<svg xmlns="http://www.w3.org/2000/svg" width="40" height="40" viewBox="0 0 40 40">
  <g id="Residential" transform="translate(-469 -435)">
    <rect id="Rectangle_1" data-name="Rectangle 1" width="40" height="40" rx="4" transform="translate(469 435)" fill="rgba(255,255,0,0.5)"/>
    <path id="Residential-icon" d="M-485-2154.338a.327.327,0,0,1-.333-.32v-4.792h2.666a.327.327,0,0,0,.334-.32v-1.917a.327.327,0,0,0-.334-.32h-2.666v-2.555h2.666a.327.327,0,0,0,.334-.32v-1.917a.327.327,0,0,0-.334-.32h-2.666v-2.236a.327.327,0,0,1,.333-.32h4a.327.327,0,0,1,.333.32v14.7a.327.327,0,0,1-.333.32Zm-14.739,0a.312.312,0,0,1-.287-.333V-2176h-.287a.939.939,0,0,1-.861-1,.939.939,0,0,1,.861-1h12.632a.939.939,0,0,1,.861,1,.939.939,0,0,1-.861,1h-.287v21.329a.312.312,0,0,1-.287.333Zm4.2-6.832V-2156a.313.313,0,0,0,.287.333h2.516a.313.313,0,0,0,.287-.333v-5.166a.313.313,0,0,0-.287-.333h-2.516A.313.313,0,0,0-495.542-2161.17Zm-2.816-6.665v2.667a.312.312,0,0,0,.287.333h8.149a.313.313,0,0,0,.287-.333v-2.667a.313.313,0,0,0-.287-.333h-8.149A.312.312,0,0,0-498.358-2167.835Zm0-6v2.666a.312.312,0,0,0,.287.333h8.149a.312.312,0,0,0,.287-.333v-2.666a.313.313,0,0,0-.287-.334h-8.149A.313.313,0,0,0-498.358-2173.834Zm-8.642,19.5a.327.327,0,0,1-.334-.32v-14.7a.327.327,0,0,1,.334-.32h4a.326.326,0,0,1,.333.32v2.236h-2.66a.327.327,0,0,0-.333.32v1.917a.327.327,0,0,0,.333.32h2.66v2.555h-2.66a.327.327,0,0,0-.333.32v1.917a.327.327,0,0,0,.333.32h2.66v4.792a.326.326,0,0,1-.333.32Zm21.668-16.932v-1.916H-481a.98.98,0,0,1,1,.958.98.98,0,0,1-1,.958Zm-21.668,0a.98.98,0,0,1-1-.958.98.98,0,0,1,1-.958h4.332v1.916Z" transform="translate(983 2621)" fill="#393900" stroke="rgba(0,0,0,0)" stroke-miterlimit="10" stroke-width="1"/>
  </g>
</svg>
