<svg id="Riyadh_District-32px" data-name="Riyadh District-32px" xmlns="http://www.w3.org/2000/svg" width="32" height="32" viewBox="0 0 32 32">
  <path id="Path_42925" data-name="Path 42925" d="M6.939,7.235c-.047.031-.484.219-.484.219L6.282,8,5.2,8.079s-.156.453-.156.5a8.761,8.761,0,0,1-.8.594,7.256,7.256,0,0,0-1.312-.281c-.031.078-.375,1.719-.375,1.719s3.172,4.016,3.172,4.078l.375,1h0s.8.594.828.609.734.7.8.781a8.442,8.442,0,0,1,.531,1.188c.031.172.109.578.109.578s-.125,1.109-.109,1.172.438.7.453.75a6.7,6.7,0,0,0,.672.656c.063.031.563.234.563.234a5.793,5.793,0,0,1,.422.547,7.623,7.623,0,0,1,.5,1.094c0,.141.266.516.313.656s.156.375.219.516a10.739,10.739,0,0,0,.762.9l.491,1.294.446.535.357-.759V25.372h0l2.321.312a3.094,3.094,0,0,1,.937,0c.312.089,1.562.223,1.562.357a3.749,3.749,0,0,0,.179.625l.357-.625L19.8,24.47a5.3,5.3,0,0,0,1.16-.516,24.2,24.2,0,0,1,3.481-.367l3.079-.937a14.018,14.018,0,0,0,1.607-1.227c.045-.156-.089-1.852,0-1.986a3.434,3.434,0,0,0,0-1.17c-.045-.168-1.026-.749-1.026-.749l-2.9.268s-.4-1.548-.536-1.488A10.181,10.181,0,0,1,23.1,15.063a6.2,6.2,0,0,1-.446-.937,13.93,13.93,0,0,0-.669-1.74c-.089-.134-.893-1.026-1.026-1.2s-.714-.491-.714-.893-.045-1.071-.223-1.116a5.414,5.414,0,0,0-1.2.4s-.312-.741-.536-.683-1.2-.058-1.562,0a6.829,6.829,0,0,1-1.607-.312c-.134-.031-1.562-1.273-1.651-1.344s-1.881-.963-2.056-1.1A11.493,11.493,0,0,0,9.759,5.067c-.312-.089-1.383-.491-1.383-.491l-.937.491L5.2,5.513Z" fill="#c3c7b9" stroke="#36512a" stroke-width="1"/>
  <rect id="Rectangle_18498" data-name="Rectangle 18498" width="32" height="32" fill="none"/>
  <path id="Path_42926" data-name="Path 42926" d="M160.839,112.746a.239.239,0,0,1-.046.157.157.157,0,0,0,0,.138.385.385,0,0,1,0,.115c0,.023,0,.111,0,.127s.019.061.008.081a1.735,1.735,0,0,1-.038.18.572.572,0,0,0-.023.223.82.82,0,0,1-.019.265,2.039,2.039,0,0,0-.023.361c0,.031-.073.422-.073.434s-.027.119-.027.138-.008.1-.027.119-.027.092-.031.1-.138.215-.138.215a.354.354,0,0,1,0,.107c-.012.023-.073.161-.088.188a.051.051,0,0,0,.015.065c.015.012.1.088.119.1a.051.051,0,0,0,.065,0,.119.119,0,0,1,.1.008.182.182,0,0,0,.084.023c.031,0,.176-.008.176-.008s-.23.169-.242.173-.088.069-.107.069-.065.046-.069.058a.337.337,0,0,1-.035.081.474.474,0,0,0-.05.115.631.631,0,0,1-.034.127.06.06,0,0,0,0,.058.324.324,0,0,0,.088.027l-.035.407.407.495-.8,2-2.666.012-.307.161-.027-.368-.921.048c-.01-.042-.022-.09-.022-.09a.091.091,0,0,0-.046.015.131.131,0,0,1-.058.019c-.019,0-.088.008-.1.008s-.035-.019-.046-.031a.391.391,0,0,1-.035-.054.054.054,0,0,1,.035-.054.43.43,0,0,0,.111-.054.048.048,0,0,0-.008-.058c-.015-.019-.038-.034-.019-.069a.145.145,0,0,0,.012-.084c0-.015,0-.038-.027-.042a.038.038,0,0,1-.011-.069c.031-.019.023-.042,0-.069a.144.144,0,0,1-.038-.077.2.2,0,0,0-.015-.069c-.008-.015-.081-.15-.081-.15l-.012-.057a.9.9,0,0,0,0-.124c-.005-.026-.046-.153-.051-.169s-.031-.256,0-.281a.033.033,0,0,0-.015-.061h-.082l-.092-.143-.087-.01.005-.082h0a1.233,1.233,0,0,0-.02-.21,1.372,1.372,0,0,0-.113-.194,1.96,1.96,0,0,0-.143-.179.185.185,0,0,1-.031-.169c.005-.015.092-.174.1-.21s.01-.051-.031-.082a1.309,1.309,0,0,0-.179-.087s-.01-.179-.01-.2a.13.13,0,0,0-.026-.092c-.031-.051-.021-.072.02-.072s.02-.067.02-.082-.005-.082-.005-.128-.056-.128-.092-.133a.107.107,0,0,1-.061-.041s-.01-.072-.015-.118a.465.465,0,0,0-.092-.174.073.073,0,0,1-.015-.077.364.364,0,0,1,.118-.061c.025-.005.005-.056-.021-.061a.046.046,0,0,1-.036-.051c0-.025-.051-.025-.092-.025s-.02-.046-.026-.072a.313.313,0,0,0-.1-.138c-.046-.031.01-.072.051-.072s.046-.02.046-.066-.061-.051-.107-.061a1.1,1.1,0,0,0-.179-.005.277.277,0,0,1-.128-.092.959.959,0,0,0-.036-.123.074.074,0,0,0-.1-.041c-.046.026-.072.026-.092-.036a.175.175,0,0,1,.005-.123c.005-.015.005-.133-.077-.138s-.148-.01-.179-.015-.092-.031-.092-.056a.166.166,0,0,0-.036-.118.258.258,0,0,1-.046-.123s-.005-.112-.005-.133-.025-.056-.087-.056-.086-.075-.086-.075a.369.369,0,0,1-.027-.107c0-.019-.015-.065-.042-.069s-.058.034-.058.034l-.28,0a1.383,1.383,0,0,1-.269-.1c-.011-.011-.035-.025-.056-.045a.134.134,0,0,1-.02-.024c-.023-.034-.008-.05-.008-.05a.2.2,0,0,1,.054-.042c.031-.015.046,0,.058-.023s.046,0,.054.038.107.081.142.008a.106.106,0,0,0,0-.111s.1-.012.119-.019.035,0,.061-.027.019-.165.019-.165l.054-.029a.312.312,0,0,1,0-.147.16.16,0,0,1,.007-.023.081.081,0,0,0,.006-.02.19.19,0,0,0-.011-.038.262.262,0,0,1-.009-.027.548.548,0,0,1-.016-.181v0l.01-.054a.139.139,0,0,1,.019-.029l.01-.014a.277.277,0,0,0,.035-.082.136.136,0,0,0,0-.082.224.224,0,0,1-.012-.066.1.1,0,0,1,.012-.044.084.084,0,0,0,.007-.02.31.31,0,0,0,0-.042V111.9c0-.005,0-.01,0-.014l.322-.023a.472.472,0,0,1,.05.008s.107.215.107.226.023.073.054.081a2.381,2.381,0,0,0,.284,0c.031,0,.027-.035.031-.054a.107.107,0,0,1,.077-.058.315.315,0,0,1,.176.015.094.094,0,0,0,.1-.011c.019-.015.1-.165.123-.188a.037.037,0,0,0-.019-.061c-.027,0-.054-.008-.058-.023s0-.107,0-.107a.353.353,0,0,0,.084-.019c.019-.012,0-.065-.012-.061a.317.317,0,0,1-.084.027c-.031,0-.023-.05-.023-.05a1.025,1.025,0,0,1,.069-.077.1.1,0,0,1,.042-.019c.012,0,.065,0,.092,0a.146.146,0,0,0,.077-.038c.011-.012.146-.15.184-.184a.11.11,0,0,1,.111-.012c.012.008.023.05.042.065s.088-.008.123-.015.035-.077.035-.107a.106.106,0,0,1,.073-.077c.023,0,.265.015.265.015s.1-.134.127-.157a.317.317,0,0,1,.134-.034.9.9,0,0,0,.1,0,.755.755,0,0,0,.15-.05.534.534,0,0,0,.088-.111l.334.142.1-.276s-.265-.353-.3-.384a.533.533,0,0,1-.107-.153c0-.031-.084-.3-.107-.464a4.481,4.481,0,0,1,.015-.614l.38-.046.184.157s.038-.529.038-.56a2.337,2.337,0,0,1,.107-.3.088.088,0,0,0-.019-.092.62.62,0,0,0-.1-.057s.134-.1.161-.111.046.012.054.023a.584.584,0,0,1,.054.081c0,.015.035.084.012.119s.008.081.023.107a.308.308,0,0,1,.015.115.306.306,0,0,0,.061.115c.019.019.081.088.081.088a.517.517,0,0,1,.1.027.534.534,0,0,0,.165.008.255.255,0,0,0,.092-.031s.05.015.061.038a.064.064,0,0,1-.012.077c-.023.019-.019.042-.008.046s.111.054.111.054a.367.367,0,0,1,.1.023c.008.011.292.222.318.238a.439.439,0,0,1,.088.081c.019.023.065,0,.065,0l.115-.081.111.111.038-.038s.357.165.384.184.081.008.084-.008.077-.019.092,0,.107.012.13.015.069.023.081-.023.061-.023.077,0a.8.8,0,0,0,.061.081s.115.015.153.015.031.054.042.061.169.142.192.157.046.023.069,0,.107,0,.123,0a.113.113,0,0,0,.077-.027c.035-.027.061.035.069.05s.088.249.107.284-.008.061-.038.081-.015.035,0,.046.035.069.05.088,0,.061-.012.088a.043.043,0,0,0,.019.058.327.327,0,0,1,.081.054c.012.015.012.069-.015.073s-.019.035.019.042.019.05-.012.054-.038.058-.038.069a.2.2,0,0,1-.027.088c-.019.027.012.069.015.084s.092.142.092.142-.008.027-.015.05a.174.174,0,0,0,0,.065l.046.069-.18.153s0,.046,0,.069a.154.154,0,0,1-.038.1c-.027.027,0,.046.019.061a.817.817,0,0,0,.073.054l.05.1a.189.189,0,0,1,0,.1.288.288,0,0,0-.012.115.585.585,0,0,1-.008.165.145.145,0,0,0-.027.065c0,.027.027.031.046.027a.661.661,0,0,1,.1-.019,1.366,1.366,0,0,0,.176-.058s.023.134.023.15a1.564,1.564,0,0,0,.1.157.276.276,0,0,1,0,.115.27.27,0,0,0,.038.119c.008.012.023.065.035.1" transform="translate(-141.066 -96.652)" fill="#36512a" stroke="#848f6c" stroke-width="1.5"/>
</svg>
