<svg id="Riyadh-32px" xmlns="http://www.w3.org/2000/svg" width="32" height="32" viewBox="0 0 32 32">
  <g id="Group_41459" data-name="Group 41459" transform="translate(3.75 3.75)">
    <g id="riyadh" transform="translate(0 0)">
      <path id="Path_37550" data-name="Path 37550" d="M17.776,10.662a7.114,7.114,0,0,0-1.406.141,2.984,2.984,0,0,1-.174-1,3.777,3.777,0,0,0-.751-2.253l-.4-.527a.2.2,0,0,1-.04-.119.988.988,0,0,0-.988-.988.2.2,0,0,1-.2-.2.988.988,0,0,0-.988-.988A4.177,4.177,0,0,1,9.592,3.2L8.633,2.025A4.45,4.45,0,0,0,5.176.387,1.1,1.1,0,0,0,4.183,1a.318.318,0,0,1-.286.177H2.877a.909.909,0,0,0-.5,1.67l.5.321a.654.654,0,0,1,.294.553.716.716,0,0,1-.339.625A2.383,2.383,0,0,1,1.5,4.734h0a1.107,1.107,0,0,0-.788.326,1.122,1.122,0,0,0-.328.813,4.842,4.842,0,0,0,.69,2.49l1.468,2.447a1.493,1.493,0,0,1,.213.77,2.292,2.292,0,0,0,.5,1.427,4.95,4.95,0,0,1,1.08,3.08,4.447,4.447,0,0,0,1.314,3.167,2.274,2.274,0,0,1,.662,1.6,3.05,3.05,0,0,0,.194,1.072l.79,2.1a1.329,1.329,0,0,0,2.572-.466.252.252,0,0,1,.252-.252h.838a1.732,1.732,0,0,1,1.234.511.963.963,0,0,0,.675.279.951.951,0,0,0,.835-.5,7.11,7.11,0,1,0,4.071-12.937ZM13.033,23.145a.17.17,0,0,1-.279.116,2.517,2.517,0,0,0-1.793-.743h-.838a1.044,1.044,0,0,0-1.042,1.043.538.538,0,0,1-1.043.189l-.79-2.1a2.253,2.253,0,0,1-.143-.793,3.075,3.075,0,0,0-.9-2.161,3.656,3.656,0,0,1-1.078-2.6,5.738,5.738,0,0,0-1.254-3.573,1.5,1.5,0,0,1-.327-.933,2.285,2.285,0,0,0-.325-1.175L1.755,7.958a4.074,4.074,0,0,1-.577-2.11.322.322,0,0,1,.1-.23.344.344,0,0,1,.26-.094h0a3.169,3.169,0,0,0,1.752-.53,1.505,1.505,0,0,0,.675-1.327A1.431,1.431,0,0,0,3.3,2.5l-.492-.316a.119.119,0,0,1,.065-.221H3.9a1.1,1.1,0,0,0,.993-.614.318.318,0,0,1,.286-.177A3.663,3.663,0,0,1,8.021,2.526L8.98,3.7a4.963,4.963,0,0,0,3.856,1.827.2.2,0,0,1,.2.2.988.988,0,0,0,.988.988.2.2,0,0,1,.2.2.994.994,0,0,0,.2.593l.4.527A2.982,2.982,0,0,1,15.4,9.806a3.775,3.775,0,0,0,.2,1.2,7.1,7.1,0,0,0-2.564,12.064C13.038,23.094,13.033,23.119,13.033,23.145Zm4.742.954A6.323,6.323,0,1,1,24.1,17.776,6.323,6.323,0,0,1,17.776,24.1Z" transform="translate(-0.387 -0.387)" fill="#36512a"/>
      <path id="Subtraction_23" data-name="Subtraction 23" d="M-570.252-143.537a7,7,0,0,1,7,7,7,7,0,0,1-7,7,7,7,0,0,1-7-7A7,7,0,0,1-570.252-143.537Z" transform="translate(587.501 153.787)" fill="#36512a"/>
      <path id="Intersection_2" data-name="Intersection 2" d="M-571.123-118.424v-.865h-6.058v-.866h6.923a1.3,1.3,0,0,1,1.3,1.3.433.433,0,0,1-.433.433Zm-1-2.733h-.535a.43.43,0,0,1-.34-.166.432.432,0,0,1-.067-.122,1.171,1.171,0,0,1-1.066.685h-.56v-.53a1.149,1.149,0,0,1-.155.191,1.161,1.161,0,0,1-.824.343h0a1.776,1.776,0,0,1-1.261-.522l-.037-.037.612-.612.037.037a.916.916,0,0,0,.649.269.306.306,0,0,0,.306-.306v-.179l-.807.268-.433-1.3.822-.274.418,1.257v-1.2h.865v1.425a1.136,1.136,0,0,1-.039.3h.41a.306.306,0,0,0,.306-.306.91.91,0,0,0-.269-.649l-.037-.037.612-.612.037.037a1.76,1.76,0,0,1,.512,1.066l.325-1.3.84.21-.3,1.193h.311v.2l.108-.108.038.037a.914.914,0,0,0,.649.269.306.306,0,0,0,.306-.306v-.034l-.37.123-.432-1.3.821-.274.075.221a.432.432,0,0,1,.2-.141.433.433,0,0,1,.483.15l1.3,1.731-.692.519-.55-.733a1.171,1.171,0,0,1-1.14.905A1.778,1.778,0,0,1-572.122-121.157Z" transform="translate(590.431 137.675)" fill="#f2efe9"/>
    </g>
  </g>
  <g id="Group_41472" data-name="Group 41472" transform="translate(3.75 3.75)">
    <g id="riyadh-2" data-name="riyadh" transform="translate(0 0)">
      <path id="Path_37550-2" data-name="Path 37550" d="M17.776,10.662a7.114,7.114,0,0,0-1.406.141,2.984,2.984,0,0,1-.174-1,3.777,3.777,0,0,0-.751-2.253l-.4-.527a.2.2,0,0,1-.04-.119.988.988,0,0,0-.988-.988.2.2,0,0,1-.2-.2.988.988,0,0,0-.988-.988A4.177,4.177,0,0,1,9.592,3.2L8.633,2.025A4.45,4.45,0,0,0,5.176.387,1.1,1.1,0,0,0,4.183,1a.318.318,0,0,1-.286.177H2.877a.909.909,0,0,0-.5,1.67l.5.321a.654.654,0,0,1,.294.553.716.716,0,0,1-.339.625A2.383,2.383,0,0,1,1.5,4.734h0a1.107,1.107,0,0,0-.788.326,1.122,1.122,0,0,0-.328.813,4.842,4.842,0,0,0,.69,2.49l1.468,2.447a1.493,1.493,0,0,1,.213.77,2.292,2.292,0,0,0,.5,1.427,4.95,4.95,0,0,1,1.08,3.08,4.447,4.447,0,0,0,1.314,3.167,2.274,2.274,0,0,1,.662,1.6,3.05,3.05,0,0,0,.194,1.072l.79,2.1a1.329,1.329,0,0,0,2.572-.466.252.252,0,0,1,.252-.252h.838a1.732,1.732,0,0,1,1.234.511.963.963,0,0,0,.675.279.951.951,0,0,0,.835-.5,7.11,7.11,0,1,0,4.071-12.937Zm0,13.437A6.323,6.323,0,1,1,24.1,17.776,6.323,6.323,0,0,1,17.776,24.1Z" transform="translate(-0.387 -0.387)" fill="rgba(54,81,42,0.25)"/>
    </g>
  </g>
  <rect id="Rectangle_18494" data-name="Rectangle 18494" width="32" height="32" fill="none"/>
</svg>
