<svg xmlns="http://www.w3.org/2000/svg" xmlns:xlink="http://www.w3.org/1999/xlink" width="40" height="40" viewBox="0 0 40 40">
  <defs>
    <clipPath id="clip-path">
      <rect id="Rectangle_150363" data-name="Rectangle 150363" width="20.917" height="28.021" fill="#615a5a"/>
    </clipPath>
  </defs>
  <g id="Road_network" data-name="Road network" transform="translate(-469 -495)">
    <rect id="Rectangle_1" data-name="Rectangle 1" width="40" height="40" rx="4" transform="translate(469 495)" fill="rgba(127,127,127,0.2)"/>
    <g id="RoadNetwork-icon" transform="translate(479 501)" clip-path="url(#clip-path)">
      <path id="Path_42878" data-name="Path 42878" d="M9.766,0h1.255V2.721H9.766ZM9.73,4.259h1.255V6.98H9.73ZM9.7,8.518h1.255v2.714H9.7ZM5,7.11v3.824a2.139,2.139,0,0,0,.813,1.843l10.113,8.764L15.933,7.11h-2L17.37,1.146,20.918,7.11H18.937v20.91H15.925V25.6L3.657,14.9A3.977,3.977,0,0,1,2,11.145V7.11H0L3.439,1.146,6.987,7.11Z" transform="translate(0 0)" fill="#615a5a" fill-rule="evenodd"/>
    </g>
  </g>
</svg>
