<svg xmlns="http://www.w3.org/2000/svg" xmlns:xlink="http://www.w3.org/1999/xlink" width="58" height="58" viewBox="0 0 58 58">
  <defs>
    <filter id="Rectangle_1" x="0" y="0" width="58" height="58" filterUnits="userSpaceOnUse">
      <feOffset dy="3" input="SourceAlpha"/>
      <feGaussianBlur stdDeviation="3" result="blur"/>
      <feFlood flood-opacity="0.161"/>
      <feComposite operator="in" in2="blur"/>
      <feComposite in="SourceGraphic"/>
    </filter>
  </defs>
  <g id="Group_165986" data-name="Group 165986" transform="translate(-460 -549)">
    <g transform="matrix(1, 0, 0, 1, 460, 549)" filter="url(#Rectangle_1)">
      <g id="Rectangle_1-2" data-name="Rectangle 1" transform="translate(9 6)" fill="#753302" stroke="#ede9df" stroke-width="1">
        <rect width="40" height="40" rx="20" stroke="none"/>
        <rect x="0.5" y="0.5" width="39" height="39" rx="19.5" fill="none"/>
      </g>
    </g>
    <path id="Path_42944" data-name="Path 42944" d="M28.319,11H27V9.666A1.668,1.668,0,0,0,25.333,8H23.667A1.668,1.668,0,0,0,22,9.666V13H10V9.666A1.668,1.668,0,0,0,8.333,8H6.667A1.668,1.668,0,0,0,5,9.666V11H3.681A1.683,1.683,0,0,0,2,12.681v6.638A1.683,1.683,0,0,0,3.681,21H5v1.334A1.668,1.668,0,0,0,6.667,24H8.333A1.668,1.668,0,0,0,10,22.334V19H22v3.334A1.668,1.668,0,0,0,23.667,24h1.666A1.668,1.668,0,0,0,27,22.334V21h1.319A1.683,1.683,0,0,0,30,19.319V12.681A1.683,1.683,0,0,0,28.319,11ZM4,19V13H5v6Zm4,3H7V10H8V22Zm2-5V15H22v2Zm15,5H24V10h1V22Zm3-3H27V13h1Z" transform="translate(473 559)" fill="#ede9df"/>
  </g>
</svg>
