<svg id="Stone_Structure" data-name="Stone Structure" xmlns="http://www.w3.org/2000/svg" width="32" height="32" viewBox="0 0 32 32">
  <g id="Stone_Structure-2" data-name="Stone Structure" transform="translate(4 5)">
    <g id="Group_165800" data-name="Group 165800">
      <path id="Path_37869" data-name="Path 37869" d="M20.2,10.879h.839V10.21h1.24v.669h1.089V10.21H24.6V21.027Q22.4,20.4,20.2,20Zm-15.789,0H3.568V10.21H2.329v.669H1.24V10.21H0V21.059q2.2-.622,4.407-1.026Zm17.977.779h0a.8.8,0,0,1,.8.8v2.375h-1.6V12.457a.8.8,0,0,1,.8-.8m-20.13,0h0a.8.8,0,0,1,.8.8v2.375h-1.6V12.457a.8.8,0,0,1,.8-.8m6.2-8.574h0a.761.761,0,0,1,.759.759V6.1H7.691V3.842a.761.761,0,0,1,.759-.759m2.513,0h0a.761.761,0,0,1,.759.759V6.1H10.2V3.842a.761.761,0,0,1,.759-.759m2.513,0h0a.761.761,0,0,1,.759.759V6.1H12.716V3.842a.761.761,0,0,1,.759-.759m2.513,0h0a.761.761,0,0,1,.759.759V6.1H15.229V3.842a.761.761,0,0,1,.759-.759M8.86,1.346h2.193V0h2.5V1.346h2.193V0h2.5V6.636h1.275V19.881a43.692,43.692,0,0,0-4.543-.509v-5.4a2.669,2.669,0,1,0-5.338,0v5.414a44.81,44.81,0,0,0-4.543.527V6.636H6.364V0h2.5Z" fill="#36512a" fill-rule="evenodd"/>
      <path id="Path_42937" data-name="Path 42937" d="M22.384,11.658h0a.8.8,0,0,1,.8.8v2.375h-1.6V12.457a.8.8,0,0,1,.8-.8m-20.13,0h0a.8.8,0,0,1,.8.8v2.375h-1.6V12.457a.8.8,0,0,1,.8-.8m6.2-8.574h0a.761.761,0,0,1,.759.759V6.1H7.691V3.842a.761.761,0,0,1,.759-.759m2.513,0h0a.761.761,0,0,1,.759.759V6.1H10.2V3.842a.761.761,0,0,1,.759-.759m2.513,0h0a.761.761,0,0,1,.759.759V6.1H12.716V3.842a.761.761,0,0,1,.759-.759m2.513,0h0a.761.761,0,0,1,.759.759V6.1H15.229V3.842a.761.761,0,0,1,.759-.759" transform="translate(-0.017)" fill="#c3c7b9" fill-rule="evenodd"/>
    </g>
  </g>
  <rect id="Rectangle_18612" data-name="Rectangle 18612" width="32" height="32" fill="none"/>
</svg>
