<svg id="Towers" xmlns="http://www.w3.org/2000/svg" width="32" height="32" viewBox="0 0 32 32">
  <path id="Path_37916" data-name="Path 37916" d="M-.192-4.421,7.774-8.768v9.7H-.192Z" transform="translate(12.408 27.652)" fill="#36512a"/>
  <path id="Path_42941" data-name="Path 42941" d="M4.083-5.814-.192-8.768V.392L4.083-2.172Z" transform="translate(14.566 19.679)" fill="#848f6c"/>
  <path id="Path_42942" data-name="Path 42942" d="M1.031-9.275l-1.223.507v6.156l1.223.649Z" transform="translate(16.192 12.679)" fill="#848f6c"/>
  <path id="Path_37870" data-name="Path 37870" d="M1.171,22,2.7,21.1l.585-.344.586-.345,5.27-3.1.586-.344.586-.346,1.1-.648V28.249L1.171,28.4ZM3.874,8.69,4.48,9.1l.586.394.585.394,1.991,1.338.585.394.586.392.331.224V16l-5.27,3.1Zm1.776-.166V2.74L7.642,1.8V9.863ZM8.813,0,4.48,2.054V7.737L2.7,6.543V19.791L0,21.381v8.146l12.59-.184V13.974l-2.275,1.338V11.659l-1.5-1.01Z" transform="translate(10 1)" fill="#36512a"/>
  <rect id="Rectangle_18613" data-name="Rectangle 18613" width="32" height="32" fill="none"/>
</svg>
