<svg xmlns="http://www.w3.org/2000/svg" width="32" height="32" viewBox="0 0 32 32">
  <g id="Under_Construction" data-name="Under Construction" transform="translate(474 -2892)">
    <rect id="Rectangle_150545" data-name="Rectangle 150545" width="32" height="32" rx="4" transform="translate(-474 2892)" fill="#818a6d" opacity="0.1"/>
    <g id="Group_165989" data-name="Group 165989" transform="translate(-972.816 2496.648)" opacity="0">
      <path id="Path_43052" data-name="Path 43052" d="M516.549,444.22H506.133a2.318,2.318,0,0,0,0,4.635h10.416a2.318,2.318,0,1,0,0-4.635Zm0,4.108H506.133a1.79,1.79,0,0,1,0-3.581h10.416a1.79,1.79,0,1,1,0,3.581Z" transform="translate(0 -26.078)" fill="#e39000" stroke="#c47c00" stroke-width="0.2"/>
      <path id="Path_43053" data-name="Path 43053" d="M508.225,446.813a1.266,1.266,0,1,0,1.267,1.266A1.268,1.268,0,0,0,508.225,446.813Zm0,2.005a.739.739,0,1,1,.739-.739A.74.74,0,0,1,508.225,448.818Z" transform="translate(-1.868 -27.619)" fill="#e39000" stroke="#c47c00" stroke-width="0.2"/>
      <path id="Path_43054" data-name="Path 43054" d="M516.419,446.813a1.266,1.266,0,1,0,1.267,1.266A1.267,1.267,0,0,0,516.419,446.813Zm0,2.005a.739.739,0,1,1,.739-.739A.74.74,0,0,1,516.419,448.818Z" transform="translate(-6.739 -27.619)" fill="#e39000" stroke="#c47c00" stroke-width="0.2"/>
      <path id="Path_43055" data-name="Path 43055" d="M524.612,446.813a1.266,1.266,0,1,0,1.266,1.266A1.268,1.268,0,0,0,524.612,446.813Zm0,2.005a.739.739,0,1,1,.739-.739A.74.74,0,0,1,524.612,448.818Z" transform="translate(-11.61 -27.619)" fill="#e39000" stroke="#c47c00" stroke-width="0.2"/>
      <path id="Path_43056" data-name="Path 43056" d="M532.806,446.813a1.266,1.266,0,1,0,1.266,1.266A1.267,1.267,0,0,0,532.806,446.813Zm0,2.005a.739.739,0,1,1,.739-.739A.74.74,0,0,1,532.806,448.818Z" transform="translate(-16.481 -27.619)" fill="#e39000" stroke="#c47c00" stroke-width="0.2"/>
      <path id="Path_43057" data-name="Path 43057" d="M530.156,427.063l-2.073-1.731h-2.794v3.877h4.867Zm-.527,1.619h-3.813v-2.823h2.076l1.737,1.451Z" transform="translate(-12.765 -14.85)" fill="#e39000" stroke="#c47c00" stroke-width="0.2"/>
      <rect id="Rectangle_150549" data-name="Rectangle 150549" width="2.741" height="0.527" transform="translate(505.819 411.706)" fill="#e39000" stroke="#c47c00" stroke-width="0.2"/>
      <rect id="Rectangle_150550" data-name="Rectangle 150550" width="2.741" height="0.527" transform="translate(505.819 413.371)" fill="#e39000" stroke="#c47c00" stroke-width="0.2"/>
      <rect id="Rectangle_150551" data-name="Rectangle 150551" width="2.741" height="0.527" transform="translate(505.819 415.035)" fill="#e39000" stroke="#c47c00" stroke-width="0.2"/>
      <path id="Path_43058" data-name="Path 43058" d="M537.248,404.717a.535.535,0,1,0-.757,0A.536.536,0,0,0,537.248,404.717Z" transform="translate(-19.331 -2.052)" fill="#e39000" stroke="#c47c00" stroke-width="0.2"/>
      <path id="Path_43059" data-name="Path 43059" d="M526.13,412.787a1.184,1.184,0,0,0-.981-1.849c-.015,0-.028,0-.043,0l-5.248-8.638c0-.006,0-.012,0-.018a1.934,1.934,0,0,0-3.719-.748l-7.71,7.707H505.69l-1.142,1.142v6.04l.58.614h-.663v.527h14.524v-.527h-.663l.58-.612v-4.746l-2.917-2.437H513.26l4.915-4.915,5.869,7.371a1.139,1.139,0,0,0,.047.945h-2.068l-.624-.628h-1.221l-.065.169a3.016,3.016,0,0,0-.192,1.078,3.124,3.124,0,1,0,6.248,0,3.034,3.034,0,0,0-.024-.384C526.143,412.85,526.135,412.819,526.13,412.787Zm-.323-.663a.658.658,0,1,1-.658-.658A.659.659,0,0,1,525.807,412.123Zm-1.228-1.033a1.2,1.2,0,0,0-.223.158l-5.707-7.167a1.92,1.92,0,0,0,1.05-1.024Zm-7.65-9.8a1.409,1.409,0,0,1,1.992,1.992,1.443,1.443,0,0,1-1.984.007l-.015-.015A1.41,1.41,0,0,1,516.928,401.291Zm-11.853,14.928v-5.613l.833-.833h2.522l1.878,1.9v5.374h-4.455Zm5.76.824v-6.737a.532.532,0,0,1,.532-.532h.413v7.268Zm7.543-5.112v4.29l-.779.822h-5.293v-7.268h3.49Zm-7.012-2.683a1.06,1.06,0,0,0-1.059,1.059v.614l-1.4-1.409,7.09-7.088a1.919,1.919,0,0,0,.387,1.029l-4.026,4.023a.264.264,0,0,0,.373.373l4.026-4.023a1.91,1.91,0,0,0,.811.363l-5.058,5.058Zm11.678,6.621a2.6,2.6,0,0,1-2.6-2.6,2.559,2.559,0,0,1,.1-.72h.631l.624.628h2.809a1.147,1.147,0,0,0,1.026.025c0,.023,0,.045,0,.067A2.6,2.6,0,0,1,523.046,415.867Z" transform="translate(-0.386 0)" fill="#e39000" stroke="#c47c00" stroke-width="0.2"/>
    </g>
    <g id="Group_165993" data-name="Group 165993" transform="translate(-594.191 2615.499)">
      <g id="Group_166010" data-name="Group 166010" transform="translate(125.125 282.572)">
        <g id="Group_166003" data-name="Group 166003" transform="translate(0 5.607)">
          <g id="Group_165996" data-name="Group 165996">
            <g id="Group_165993-2" data-name="Group 165993" transform="translate(0 6.351)">
              <path id="Path_43060" data-name="Path 43060" d="M125.574,313.56a.449.449,0,0,1-.449-.449v-2.93a2.753,2.753,0,0,1,1.685-2.541l2.456-1.037a.449.449,0,1,1,.349.826l-2.457,1.037a1.857,1.857,0,0,0-1.137,1.714v2.93A.449.449,0,0,1,125.574,313.56Z" transform="translate(-125.125 -306.567)" fill="#818a6d" stroke="#6f775e" stroke-width="0.2"/>
            </g>
            <g id="Group_165994" data-name="Group 165994" transform="translate(10.06 6.35)">
              <path id="Path_43061" data-name="Path 43061" d="M149.63,313.559a.449.449,0,0,1-.449-.449v-2.93a1.858,1.858,0,0,0-1.137-1.714l-2.457-1.038a.448.448,0,1,1,.349-.826l2.457,1.038a2.753,2.753,0,0,1,1.684,2.541v2.93A.449.449,0,0,1,149.63,313.559Z" transform="translate(-145.313 -306.567)" fill="#818a6d" stroke="#6f775e" stroke-width="0.2"/>
            </g>
            <g id="Group_165995" data-name="Group 165995" transform="translate(3.535)">
              <path id="Path_43062" data-name="Path 43062" d="M136.1,299.926a2.157,2.157,0,0,1-.89-.192l-1.719-.777a2.163,2.163,0,0,1-1.269-1.966v-2.717a.449.449,0,1,1,.9,0v2.717a1.262,1.262,0,0,0,.742,1.149l1.719.778a1.258,1.258,0,0,0,1.039,0l1.72-.778a1.263,1.263,0,0,0,.741-1.149v-2.681a.449.449,0,1,1,.9,0v2.681a2.163,2.163,0,0,1-1.268,1.966l-1.719.778A2.165,2.165,0,0,1,136.1,299.926Z" transform="translate(-132.219 -293.824)" fill="#818a6d" stroke="#6f775e" stroke-width="0.2"/>
            </g>
          </g>
          <g id="Group_165997" data-name="Group 165997" transform="translate(3.867 4.547)">
            <path id="Path_43063" data-name="Path 43063" d="M135.257,306.474a.44.44,0,0,1-.176-.036l-1.923-.826a.448.448,0,0,1-.19-.671l1.272-1.8a.448.448,0,1,1,.733.517l-.953,1.352,1.053.452.972-1.633a.449.449,0,0,1,.771.459l-1.174,1.97A.45.45,0,0,1,135.257,306.474Z" transform="translate(-132.886 -302.947)" fill="#818a6d" stroke="#6f775e" stroke-width="0.2"/>
          </g>
          <g id="Group_165998" data-name="Group 165998" transform="translate(6.922 4.547)">
            <path id="Path_43064" data-name="Path 43064" d="M140.637,306.474a.45.45,0,0,1-.386-.219l-1.174-1.97a.449.449,0,0,1,.77-.459l.973,1.633,1.054-.452-.953-1.352a.448.448,0,1,1,.733-.517l1.272,1.8a.448.448,0,0,1-.19.671l-1.923.826A.44.44,0,0,1,140.637,306.474Z" transform="translate(-139.015 -302.947)" fill="#818a6d" stroke="#6f775e" stroke-width="0.2"/>
          </g>
          <g id="Group_165999" data-name="Group 165999" transform="translate(5.79 7.176)">
            <path id="Path_43065" data-name="Path 43065" d="M138.324,310.532a.447.447,0,0,1-.35-.168l-1.132-1.412a.448.448,0,0,1,.7-.561l1.131,1.412a.448.448,0,0,1-.35.729Z" transform="translate(-136.744 -308.223)" fill="#818a6d" stroke="#6f775e" stroke-width="0.2"/>
          </g>
          <g id="Group_166000" data-name="Group 166000" transform="translate(5.968 8.587)">
            <path id="Path_43066" data-name="Path 43066" d="M137.549,317.028a.435.435,0,0,1-.083-.008.448.448,0,0,1-.358-.523l.954-5.075a.448.448,0,1,1,.881.165l-.954,5.075A.449.449,0,0,1,137.549,317.028Z" transform="translate(-137.1 -311.055)" fill="#818a6d" stroke="#6f775e" stroke-width="0.2"/>
          </g>
          <g id="Group_166001" data-name="Group 166001" transform="translate(6.922 7.176)">
            <path id="Path_43067" data-name="Path 43067" d="M139.463,310.533a.449.449,0,0,1-.35-.729l1.132-1.412a.449.449,0,0,1,.7.562l-1.132,1.411A.448.448,0,0,1,139.463,310.533Z" transform="translate(-139.015 -308.224)" fill="#818a6d" stroke="#6f775e" stroke-width="0.2"/>
          </g>
          <g id="Group_166002" data-name="Group 166002" transform="translate(6.922 8.587)">
            <path id="Path_43068" data-name="Path 43068" d="M140.417,317.028a.449.449,0,0,1-.441-.366l-.954-5.075a.448.448,0,1,1,.881-.165l.954,5.075a.448.448,0,0,1-.358.523A.433.433,0,0,1,140.417,317.028Z" transform="translate(-139.015 -311.055)" fill="#818a6d" stroke="#6f775e" stroke-width="0.2"/>
          </g>
        </g>
        <g id="Group_166008" data-name="Group 166008" transform="translate(2.34)">
          <g id="Group_166004" data-name="Group 166004" transform="translate(0 4.246)">
            <path id="Path_43069" data-name="Path 43069" d="M139.518,291.99h-9.249a.449.449,0,0,1,0-.9h9.249a.449.449,0,0,1,0,.9Z" transform="translate(-129.82 -291.092)" fill="#818a6d" stroke="#6f775e" stroke-width="0.2"/>
          </g>
          <g id="Group_166005" data-name="Group 166005" transform="translate(0.784)">
            <path id="Path_43070" data-name="Path 43070" d="M139.523,287.715a.449.449,0,0,1-.449-.449c0-1.89-1.049-3.8-3.392-3.8s-3.391,1.907-3.391,3.8a.449.449,0,1,1-.9,0c0-2.261,1.342-4.694,4.288-4.694s4.289,2.433,4.289,4.694A.449.449,0,0,1,139.523,287.715Z" transform="translate(-131.394 -282.572)" fill="#818a6d" stroke="#6f775e" stroke-width="0.2"/>
          </g>
          <g id="Group_166006" data-name="Group 166006" transform="translate(3.39 0.204)">
            <path id="Path_43071" data-name="Path 43071" d="M137.072,287.921a.449.449,0,0,1-.449-.449V283.43a.449.449,0,1,1,.9,0v4.042A.449.449,0,0,1,137.072,287.921Z" transform="translate(-136.623 -282.981)" fill="#818a6d" stroke="#6f775e" stroke-width="0.2"/>
          </g>
          <g id="Group_166007" data-name="Group 166007" transform="translate(5.859 0.204)">
            <path id="Path_43072" data-name="Path 43072" d="M142.025,287.921a.449.449,0,0,1-.449-.449V283.43a.449.449,0,1,1,.9,0v4.042A.449.449,0,0,1,142.025,287.921Z" transform="translate(-141.576 -282.981)" fill="#818a6d" stroke="#6f775e" stroke-width="0.2"/>
          </g>
        </g>
        <g id="Group_166009" data-name="Group 166009" transform="translate(0 18.053)">
          <path id="Path_43073" data-name="Path 43073" d="M132.5,321.028a18.594,18.594,0,0,1-7.108-1.374.449.449,0,0,1,.372-.817,18.028,18.028,0,0,0,6.737,1.294,18.748,18.748,0,0,0,6.825-1.3.449.449,0,0,1,.363.821A19.31,19.31,0,0,1,132.5,321.028Z" transform="translate(-125.125 -318.797)" fill="#818a6d" stroke="#6f775e" stroke-width="0.2"/>
        </g>
      </g>
      <g id="Group_166011" data-name="Group 166011" transform="translate(137.519 285.192)">
        <path id="Path_43074" data-name="Path 43074" d="M156.424,288.728h-5.98a.449.449,0,0,1,0-.9h5.98a.449.449,0,0,1,0,.9Z" transform="translate(-149.995 -287.83)" fill="#818a6d" stroke="#6f775e" stroke-width="0.2"/>
      </g>
      <g id="Group_166012" data-name="Group 166012" transform="translate(140.746 298.293)">
        <path id="Path_43075" data-name="Path 43075" d="M161.1,315.016h-4.184a.449.449,0,0,1,0-.9H161.1a.449.449,0,0,1,0,.9Z" transform="translate(-156.47 -314.119)" fill="#818a6d" stroke="#6f775e" stroke-width="0.2"/>
      </g>
      <g id="Group_166013" data-name="Group 166013" transform="translate(146.36 285.192)">
        <path id="Path_43076" data-name="Path 43076" d="M168.184,300.4a.449.449,0,0,1-.449-.449V288.279a.449.449,0,1,1,.9,0v11.671A.449.449,0,0,1,168.184,300.4Z" transform="translate(-167.736 -287.83)" fill="#818a6d" stroke="#6f775e" stroke-width="0.2"/>
      </g>
      <g id="Group_166014" data-name="Group 166014" transform="translate(143.5 295.433)">
        <path id="Path_43077" data-name="Path 43077" d="M163.875,312.137a1.879,1.879,0,1,1,1.879-1.879A1.881,1.881,0,0,1,163.875,312.137Zm0-2.861a.981.981,0,1,0,.982.981A.983.983,0,0,0,163.875,309.277Z" transform="translate(-161.996 -308.379)" fill="#818a6d" stroke="#6f775e" stroke-width="0.2"/>
      </g>
      <g id="Group_166015" data-name="Group 166015" transform="translate(143.5 283.762)">
        <path id="Path_43078" data-name="Path 43078" d="M165.305,287.288a.449.449,0,0,1-.449-.449.982.982,0,0,0-1.964,0,.448.448,0,1,1-.9,0,1.879,1.879,0,1,1,3.758,0A.449.449,0,0,1,165.305,287.288Z" transform="translate(-161.996 -284.96)" fill="#818a6d" stroke="#6f775e" stroke-width="0.2"/>
      </g>
      <g id="Group_166016" data-name="Group 166016" transform="translate(143.5 285.192)">
        <path id="Path_43079" data-name="Path 43079" d="M162.444,300.4a.448.448,0,0,1-.448-.449V288.279a.448.448,0,1,1,.9,0v11.671A.448.448,0,0,1,162.444,300.4Z" transform="translate(-161.996 -287.83)" fill="#818a6d" stroke="#6f775e" stroke-width="0.2"/>
      </g>
      <g id="Group_166024" data-name="Group 166024" transform="translate(139.342 288.516)">
        <g id="Group_166017" data-name="Group 166017" transform="translate(3.659)">
          <path id="Path_43080" data-name="Path 43080" d="M161.942,295.4h-.5a.449.449,0,0,1,0-.9h.5a.449.449,0,0,1,0,.9Z" transform="translate(-160.996 -294.5)" fill="#818a6d" stroke="#6f775e" stroke-width="0.2"/>
        </g>
        <g id="Group_166018" data-name="Group 166018" transform="translate(1.684)">
          <path id="Path_43081" data-name="Path 43081" d="M158.27,295.4h-.79a.449.449,0,0,1,0-.9h.79a.449.449,0,0,1,0,.9Z" transform="translate(-157.032 -294.5)" fill="#818a6d" stroke="#6f775e" stroke-width="0.2"/>
        </g>
        <g id="Group_166019" data-name="Group 166019" transform="translate(0)">
          <path id="Path_43082" data-name="Path 43082" d="M154.1,295.9a.449.449,0,0,1-.449-.449v-.5a.449.449,0,0,1,.449-.449h.5a.449.449,0,0,1,0,.9h-.05v.049A.449.449,0,0,1,154.1,295.9Z" transform="translate(-153.653 -294.5)" fill="#818a6d" stroke="#6f775e" stroke-width="0.2"/>
        </g>
        <g id="Group_166020" data-name="Group 166020" transform="translate(0 2.008)">
          <path id="Path_43083" data-name="Path 43083" d="M154.1,300.434a.449.449,0,0,1-.449-.449v-1.006a.449.449,0,1,1,.9,0v1.006A.449.449,0,0,1,154.1,300.434Z" transform="translate(-153.653 -298.53)" fill="#818a6d" stroke="#6f775e" stroke-width="0.2"/>
        </g>
        <g id="Group_166021" data-name="Group 166021" transform="translate(0 4.525)">
          <path id="Path_43084" data-name="Path 43084" d="M154.6,304.975h-.5a.449.449,0,0,1-.449-.449v-.5a.449.449,0,1,1,.9,0v.05h.05a.449.449,0,0,1,0,.9Z" transform="translate(-153.653 -303.579)" fill="#818a6d" stroke="#6f775e" stroke-width="0.2"/>
        </g>
        <g id="Group_166022" data-name="Group 166022" transform="translate(1.683 5.023)">
          <path id="Path_43085" data-name="Path 43085" d="M158.27,305.477h-.79a.449.449,0,0,1,0-.9h.79a.449.449,0,0,1,0,.9Z" transform="translate(-157.031 -304.579)" fill="#818a6d" stroke="#6f775e" stroke-width="0.2"/>
        </g>
        <g id="Group_166023" data-name="Group 166023" transform="translate(3.659 5.023)">
          <path id="Path_43086" data-name="Path 43086" d="M161.942,305.477h-.5a.449.449,0,0,1,0-.9h.5a.449.449,0,0,1,0,.9Z" transform="translate(-160.996 -304.579)" fill="#818a6d" stroke="#6f775e" stroke-width="0.2"/>
        </g>
      </g>
    </g>
  </g>
</svg>
