<svg xmlns="http://www.w3.org/2000/svg" width="40" height="40" viewBox="0 0 40 40">
  <g id="Utility_networks" data-name="Utility networks" transform="translate(-469 -615)">
    <rect id="Rectangle_1" data-name="Rectangle 1" width="40" height="40" rx="4" transform="translate(469 615)" fill="rgba(42,102,167,0.2)"/>
    <g id="Group_165826" data-name="Group 165826" transform="translate(430.965 4.967)">
      <path id="Utilitynetworks-icon" d="M-443.57-1712.327c0-.043,0-.085,0-.129h0c0,.044,0,.087,0,.131l-.49-.688a2.75,2.75,0,0,0-.481-.649c-1.43-1.057-2.877-2.09-4.323-3.126-.339-.243-.482-.238-.835.014-.858.611-1.711,1.228-2.567,1.841-.08.058-.167.107-.251.16l0-.136,0,0c0,.045,0,.089,0,.132-.463.342-.921.69-1.39,1.024a1.493,1.493,0,0,0-.591.791,1.122,1.122,0,0,1-1.151.814,1.112,1.112,0,0,1-1.028-.849,1.1,1.1,0,0,1,.895-1.322c.29-.058.585-.093.87-.168a1.215,1.215,0,0,0,.385-.22c.255-.187.5-.386.81-.627l-2.161-.957c-.224.148-.45.289-.666.442-.64.455-1.275.916-1.914,1.372a2.533,2.533,0,0,1-.23.131l-.014.005.023,0a2.076,2.076,0,0,0-.717,1.022,1.078,1.078,0,0,1-1.394.583,1.112,1.112,0,0,1-.643-1.423.852.852,0,0,1,.734-.619,3.492,3.492,0,0,0,1.787-.743c.757-.582,1.548-1.12,2.312-1.694a.883.883,0,0,1,1.022-.086c.785.386,1.583.746,2.377,1.114a.78.78,0,0,0,.842-.083q1.088-.787,2.188-1.56a.828.828,0,0,0,.394-.752c-.011-.387-.014-.776-.008-1.163a.741.741,0,0,0-.485-.749c-1.157-.5-2.309-1.023-3.479-1.5a2.007,2.007,0,0,0-.9-.073,1.223,1.223,0,0,1-1.235-.6,1.156,1.156,0,0,1,.247-1.345,1.1,1.1,0,0,1,1.67.2,2.277,2.277,0,0,0,1.073.854c1.233.533,2.459,1.082,3.687,1.623.4.176.472.284.469.726,0,.7,0,1.394-.009,2.091a.749.749,0,0,0,.333.661c.648.462,1.3.923,1.941,1.391a.86.86,0,0,0,.9.112c.474-.205.944-.419,1.414-.634a.742.742,0,0,0,.461-.736c0-1.245.006-2.489-.021-3.733a1.38,1.38,0,0,0-.25-.649,1.15,1.15,0,0,1,.318-1.71,1.145,1.145,0,0,1,1.352.184,1.091,1.091,0,0,1,.129,1.4,1.849,1.849,0,0,0-.308,1.121c0,1.164-.031,2.328-.057,3.493a.75.75,0,0,0,.4.714c.975.58,1.949,1.159,2.92,1.747a2.11,2.11,0,0,0,1.1.316.992.992,0,0,1,1.038.841,1.13,1.13,0,0,1-.6,1.245,1.05,1.05,0,0,1-1.464-.611,1.686,1.686,0,0,0-.83-.958c-.9-.533-1.795-1.07-2.682-1.621a.9.9,0,0,0-.922-.086c-.46.205-.94.366-1.475.572.2.156.35.277.5.391.208.153.427.293.631.452a1.2,1.2,0,0,0,.931.3,1.8,1.8,0,0,1,.524.09l.009.013-.01-.021a1.11,1.11,0,0,1,.619,1.13,1.033,1.033,0,0,1-.811.925,1.162,1.162,0,0,1-.322.047A1,1,0,0,1-443.57-1712.327Zm.025-.207.009,0-.009,0Zm-11.354-.024.011.013-.012-.021A.03.03,0,0,0-454.9-1712.558Zm12.57-.031h0l-.006-.009Zm-17.334-.5-.005-.009A.035.035,0,0,0-459.664-1713.085Zm3.078-.031h.119s0,0,0,0h-.121Zm17.624-.007.007,0,.013-.013Zm-17.634,0a.041.041,0,0,0-.02-.022Zm-.025-.015,0-.01h0Zm-4.737-.226a.023.023,0,0,0,.01,0l.008,0ZM-444.582-1713.841Zm5.334-.185.008-.008Zm-5.98-.229.013-.014-.014.009Zm-16.061-.036.008.013-.006-.016Zm16.042-.078,0,.027,0-.027h0Zm.887-.462-.006.017.006-.01a.035.035,0,0,0,0-.007Zm3.555-.085.014-.01-.017.007Zm4.114-1.815a2.437,2.437,0,0,0-1-1.178c-.87-.613-1.723-1.251-2.592-1.866a.818.818,0,0,1-.391-.746c.019-.986.007-1.971.02-2.957a.88.88,0,0,0-.409-.806c-.788-.539-1.569-1.091-2.348-1.642a.659.659,0,0,0-.729-.046c-.2.1-.4.229-.6.331a1.419,1.419,0,0,0-.826,1.373c0,1.075-.022,2.151.01,3.225a1.67,1.67,0,0,0,.3.759,1.168,1.168,0,0,1-.228,1.647,1.194,1.194,0,0,1-1.344-.045,1.1,1.1,0,0,1-.346-1.211.466.466,0,0,1,.066-.166,2.647,2.647,0,0,0,.433-1.951c0-1.125.005-2.25-.01-3.375a.769.769,0,0,1,.5-.794c.432-.2.842-.447,1.259-.68a.809.809,0,0,0,.438-.733q.011-.821,0-1.642a.818.818,0,0,0-.391-.7q-1.019-.678-2.03-1.368a.5.5,0,0,0-.584-.019c-.681.411-1.374.8-2.041,1.238a1.179,1.179,0,0,0-.361.523,1.142,1.142,0,0,1-1.028.783,1.061,1.061,0,0,1-1.181-1,1.015,1.015,0,0,1,.9-1.2,4.825,4.825,0,0,0,2.173-.834c.3-.181.6-.354.9-.525a.7.7,0,0,0,.392-.652c-.009-1.464,0-2.927-.033-4.389a1.849,1.849,0,0,0-.306-.759,1.27,1.27,0,0,1-.2-.91,1.028,1.028,0,0,1,.767-.864,1.092,1.092,0,0,1,1.175.305.974.974,0,0,1,.171,1.217,3.386,3.386,0,0,0-.444,2.17c-.014,1.035,0,2.07-.008,3.106a.915.915,0,0,0,.461.84c.542.351,1.064.732,1.648,1.137,0-.909.029-1.755-.016-2.6a1.846,1.846,0,0,0-.334-.866,1.117,1.117,0,0,1,.162-1.484,1.174,1.174,0,0,1,1.508-.014,1.087,1.087,0,0,1,.174,1.481,1.537,1.537,0,0,0-.363,1.1q.041,2.807.063,5.614a.91.91,0,0,0,.4.785c1.758,1.272,3.506,2.558,5.272,3.817a1.7,1.7,0,0,0,.8.256,1.222,1.222,0,0,1,1.193.82,1.126,1.126,0,0,1-.756,1.4,1.119,1.119,0,0,1-1.4-.788,1.115,1.115,0,0,0-.492-.706c-.389-.266-.77-.545-1.226-.868,0,.694.029,1.3-.008,1.9a1.081,1.081,0,0,0,.563,1.076c.773.507,1.513,1.066,2.257,1.615a1.678,1.678,0,0,0,1.021.346,1.061,1.061,0,0,1,1.094.907,1.112,1.112,0,0,1-.686,1.2,1.447,1.447,0,0,1-.477.087A.941.941,0,0,1-436.693-1716.731Zm.215-.265h0l0-.008Zm-.376-.4.006.012-.006-.021A.03.03,0,0,0-436.853-1717.4Zm-26.985.723a1.072,1.072,0,0,1,.992-1.58,1.325,1.325,0,0,0,.93-.329q1.482-1.23,2.965-2.459a.938.938,0,0,0,.377-.832c-.034-.494-.062-.989-.1-1.566-.532.382-1,.729-1.481,1.059a1.275,1.275,0,0,0-.621.849,1.027,1.027,0,0,1-1.133.727,1.024,1.024,0,0,1-.991-.873,1.1,1.1,0,0,1,.532-1.219,1.015,1.015,0,0,1,.459-.09,1.737,1.737,0,0,0,1.091-.34q2.647-1.917,5.29-3.84a.839.839,0,0,0,.365-.715c0-1.961.007-3.922-.018-5.883a1.457,1.457,0,0,0-.3-.751,1.2,1.2,0,0,1-.069-1.365,1.151,1.151,0,0,1,1.3-.43,1.116,1.116,0,0,1,.786,1.079,1.088,1.088,0,0,1-.207.57,1.708,1.708,0,0,0-.373,1.106c0,.339.015.676.03,1.013a.621.621,0,0,0,.07.172,1.208,1.208,0,0,0,.2-.093c.526-.377,1.057-.746,1.567-1.145a.654.654,0,0,0,.228-.439c.019-1.125.026-2.25,0-3.374a1.58,1.58,0,0,0-.287-.7,1.2,1.2,0,0,1-.011-1.421,1.14,1.14,0,0,1,1.4-.3,1.091,1.091,0,0,1,.557,1.31.447.447,0,0,1-.063.166,3.069,3.069,0,0,0-.443,2.164c-.016.825,0,1.652.016,2.478a1.008,1.008,0,0,1-.481.951c-.794.531-1.561,1.1-2.349,1.642a.952.952,0,0,0-.449.878c.017.886.014,1.771,0,2.657a.756.756,0,0,0,.459.759c1.189.611,1.3.614,2.447-.05.749-.434,1.495-.872,2.249-1.3a1.909,1.909,0,0,0,.779-.794,1.13,1.13,0,0,1,1.946-.178,1.089,1.089,0,0,1,.105,1.134,1.045,1.045,0,0,1-1.032.64,2.745,2.745,0,0,0-1.544.454c-1.006.584-2.032,1.136-3.031,1.732a.968.968,0,0,1-1.082.023c-.554-.311-1.138-.572-1.7-.867a.673.673,0,0,0-.8.077c-.55.427-1.105.85-1.667,1.261a.9.9,0,0,0-.418.833c.032.646.042,1.293.055,1.939a.621.621,0,0,0,.4.6c.98.44,1.953.895,2.94,1.316a1.63,1.63,0,0,0,.635.043,4.3,4.3,0,0,1,.733-.033,1.025,1.025,0,0,1,.857.944,1.119,1.119,0,0,1-.667,1.158.984.984,0,0,1-1.261-.29,2.616,2.616,0,0,0-1.233-.887c-.835-.347-1.665-.708-2.492-1.075a.765.765,0,0,0-.859.113c-.979.784-1.956,1.57-2.944,2.342a1.738,1.738,0,0,0-.6.864,1.017,1.017,0,0,1-.94.753q-.062,0-.122,0A1.048,1.048,0,0,1-463.838-1716.673Z" transform="translate(506.814 2356.085)" fill="#2a66a7" stroke="rgba(0,0,0,0)" stroke-miterlimit="10" stroke-width="1"/>
    </g>
  </g>
</svg>
