<svg id="walls" xmlns="http://www.w3.org/2000/svg" width="32" height="32" viewBox="0 0 32 32">
  <g id="Group_41603" data-name="Group 41603" transform="translate(5 5)">
    <g id="Group_41622" data-name="Group 41622" transform="translate(0 0)">
      <path id="Path_37854" data-name="Path 37854" d="M22,11c0,3.233,0,6.465,0,9.7,0,1.267-.028,1.3-1.313,1.3q-9.7.009-19.4,0C.082,22,.008,21.935.006,20.778q-.015-9.763,0-19.525C.009.1.1.008,1.272.006q9.7-.012,19.4,0c1.274,0,1.324.056,1.328,1.3C22,4.539,22,7.772,22,11M11.116.817v0c-3.063,0-6.127-.009-9.19,0C.888.824.829.885.824,1.931Q.8,6.137.824,10.344c0,.962.029.973.914.629a10.141,10.141,0,0,1,8.963.743,16.535,16.535,0,0,0,2.668,1.295,7.421,7.421,0,0,0,6.805-.805,2.052,2.052,0,0,0,1.037-1.919c-.057-2.717-.015-5.436-.021-8.154,0-1.3-.013-1.31-1.271-1.313-2.934-.007-5.868,0-8.8,0" transform="translate(0 0)" fill="#36512a"/>
      <path id="Path_37855" data-name="Path 37855" d="M8.512,4.98c.9,0,1.809.006,2.713,0,.8-.007.718.561.727,1.079.009.5,0,.97-.7.968q-2.777-.008-5.555,0c-.793,0-.724-.561-.734-1.082-.009-.5.02-.974.711-.969.947.005,1.895,0,2.842,0M8.434,6.6V6.592c.773,0,1.547.009,2.32,0,.382-.006.81.021.835-.55s-.369-.6-.773-.612c-.214-.008-.43-.007-.644-.007-1.2,0-2.407-.017-3.609.009-.468.01-1.137-.188-1.123.649.014.809.659.486,1.062.512.642.042,1.288.011,1.933.011" transform="translate(-3.674 -3.69)" fill="#36512a"/>
      <path id="Path_37856" data-name="Path 37856" d="M37.277,7.017c-.906,0-1.812-.01-2.717,0-.685.011-.75-.428-.733-.946s-.11-1.1.7-1.1c1.854,0,3.709,0,5.563-.006.682,0,.755.425.733.946-.021.5.109,1.1-.7,1.1-.949,0-1.9,0-2.846,0m0-1.6c-.772,0-1.544.006-2.315,0-.44-.005-.754.083-.73.633.021.487.325.539.7.539q2.379,0,4.759,0c.425,0,.847-.11.727-.625a.937.937,0,0,0-.7-.516c-.809-.066-1.627-.024-2.442-.026" transform="translate(-25.066 -3.68)" fill="#36512a"/>
      <path id="Path_37857" data-name="Path 37857" d="M56.5,33.848c.861,0,1.722.026,2.582-.008.739-.029.844.39.826.982-.016.533.038,1.074-.742,1.071-1.851-.008-3.7,0-5.552-.014-.782-.005-.7-.594-.714-1.109-.017-.533.089-.938.759-.925.946.018,1.893,0,2.84,0m-.12.342c-.688,0-1.376-.009-2.063,0-.418.008-.908-.07-.929.587-.021.631.408.656.864.656,1.5,0,3.009,0,4.513,0,.4,0,.779-.02.795-.588.018-.649-.407-.654-.858-.654q-1.161,0-2.321,0" transform="translate(-39.198 -25.077)" fill="#36512a"/>
      <path id="Path_37858" data-name="Path 37858" d="M8.346,26.108c-.816,0-1.634-.032-2.449.009-.726.037-1.006-.251-.981-.973.031-.895.127-1.056,1.025-1.078,1.074-.027,2.149-.007,3.223-.007.559,0,1.118-.01,1.676.005a1.115,1.115,0,0,1,.983,1.738c-.12.188-.5.263-.77.291-.468.047-.944.016-1.417.017H8.346Zm.047-.34v0h2.323c.453,0,.874-.014.858-.66-.014-.569-.39-.59-.793-.59-1.548,0-3.1,0-4.645,0-.446,0-.751.129-.736.654.016.551.388.592.8.593H8.393" transform="translate(-3.642 -17.824)" fill="#36512a"/>
      <path id="Path_37859" data-name="Path 37859" d="M37.283,26.143c-.9,0-1.81-.016-2.714.005-.684.016-.763-.4-.746-.929.016-.507-.1-1.107.7-1.11,1.853-.006,3.705,0,5.558,0,.779,0,.736.531.75,1.067.015.59-.089,1.011-.83.983-.9-.034-1.809-.008-2.714-.008Zm.051-1.582c-.817,0-1.635,0-2.452,0-.39,0-.748.126-.654.566.054.253.366.637.571.643q2.514.078,5.031,0c.214-.007.537-.374.6-.625.1-.431-.245-.582-.641-.582q-1.226,0-2.452,0" transform="translate(-25.063 -17.863)" fill="#36512a"/>
      <path id="Path_37860" data-name="Path 37860" d="M27.668,14.778c.9,0,1.805.013,2.707,0,.684-.013.739.422.735.937s.054,1.084-.731,1.073c-1.847-.026-3.693-.061-5.54-.076-.7-.006-.716-.479-.716-.97s0-.976.709-.966c.945.014,1.89,0,2.836,0v0m.094.329v0c-.857,0-1.715,0-2.572,0-.429,0-.617.2-.618.622s.194.622.619.622c1.629,0,3.258,0,4.887.006.379,0,.66-.084.677-.561.018-.5-.2-.7-.678-.695-.771.01-1.543,0-2.315,0" transform="translate(-17.877 -10.947)" fill="#36512a"/>
      <path id="Path_37861" data-name="Path 37861" d="M56.366,16.757c-.858,0-1.716-.02-2.572.007-.655.021-.943-.243-.921-.908.019-.585-.018-1.125.835-1.111,1.8.029,3.6.024,5.406,0,.779-.01.759.483.774,1.027.016.591-.1,1.013-.822,1-.9-.021-1.8-.005-2.7-.005v-.008m.032-.418v0c.813,0,1.625-.005,2.438,0,.462,0,.72-.16.7-.672-.014-.456-.264-.583-.66-.582q-2.438,0-4.875,0c-.412,0-.632.164-.644.6-.015.523.283.653.728.65.77-.005,1.54,0,2.309,0" transform="translate(-39.181 -10.927)" fill="#36512a"/>
      <path id="Path_37862" data-name="Path 37862" d="M65.05,4.955c.344,0,.689-.008,1.033,0a1.116,1.116,0,0,1,.99,1.735.871.871,0,0,1-.637.3c-.989.033-1.98,0-2.969.021-.78.015-.755-.508-.765-1.047-.01-.568.04-1.048.8-1.014.516.023,1.033,0,1.549,0Zm-.183,1.611V6.551a7.706,7.706,0,0,0,1.408-.027.761.761,0,0,0,.489-.561.758.758,0,0,0-.532-.521,18.92,18.92,0,0,0-2.567,0,.823.823,0,0,0-.564.513c-.112.433.22.6.61.612s.771,0,1.157,0" transform="translate(-46.465 -3.67)" fill="#36512a"/>
      <path id="Path_37863" data-name="Path 37863" d="M27.7,33.843c.9,0,1.808.024,2.711-.008.756-.026.814.432.814,1,0,.554-.013,1.063-.773,1.046-.945-.022-1.89-.031-2.834-.066-.092,0-.178-.152-.267-.233.1-.049.2-.139.3-.14.818-.015,1.635-.015,2.453-.016.423,0,.761-.062.762-.618s-.329-.628-.756-.628c-1.549,0-3.1,0-4.648,0a1.413,1.413,0,0,0-.623.118,2.308,2.308,0,0,0-.471.44c-.032-.121-.13-.3-.083-.352.166-.2.367-.5.58-.519.682-.069,1.374-.032,2.063-.036.258,0,.517,0,.775,0Z" transform="translate(-17.989 -25.071)" fill="#36512a"/>
      <path id="Path_37864" data-name="Path 37864" d="M64.979,26.141c-.387,0-.774.006-1.161,0-1.127-.02-1.241-.174-1.176-1.277.032-.548.264-.774.79-.77.989.007,1.978.006,2.967,0,.8,0,.706.572.713,1.088s-.014.971-.713.95c-.473-.014-.946,0-1.419,0Zm-.1-.344v0h1.281c.427,0,.6-.218.6-.641,0-.455-.256-.595-.65-.6-.812,0-1.623-.006-2.435,0-.376,0-.669.1-.675.569-.007.51.279.671.725.675.385,0,.769,0,1.153,0" transform="translate(-46.411 -17.854)" fill="#36512a"/>
      <path id="Path_37865" data-name="Path 37865" d="M7.369,16.7c-.556,0-1.112-.01-1.667,0-.783.017-.731-.531-.746-1.056-.015-.552.139-.9.786-.884,1.026.025,2.053.008,3.079,0,.8,0,.682.587.71,1.088.03.538-.084.935-.753.9-.469-.023-.94,0-1.409,0V16.7M7.344,15.1v.006a7.6,7.6,0,0,0-1.416.028.764.764,0,0,0-.46.585c0,.207.284.573.465.586.857.064,1.72.034,2.582.033a.489.489,0,0,0,.524-.681.887.887,0,0,0-.538-.533A5.077,5.077,0,0,0,7.344,15.1" transform="translate(-3.672 -10.938)" fill="#36512a"/>
      <path id="Path_37866" data-name="Path 37866" d="M45.172,43.26c.428,0,.857-.01,1.285,0,1.115.032,1.419.433,1.153,1.533-.024.1-.149.172-.228.257-.044-.108-.144-.228-.124-.323.2-.947-.32-1.078-1.09-1.048-.94.038-1.884.006-2.826-.01-.109,0-.216-.1-.324-.154.118-.084.234-.237.355-.242.6-.025,1.2-.011,1.8-.011Z" transform="translate(-31.88 -32.055)" fill="#36512a"/>
      <path id="Path_37867" data-name="Path 37867" d="M64.8,43.23c.388,0,.777-.025,1.162.009a3.372,3.372,0,0,1,.682.207,2.33,2.33,0,0,1-.623.208c-.688.027-1.379.039-2.066,0-.707-.037-1.067.193-.953.958.019.126-.093.272-.145.409a1.514,1.514,0,0,1-.19-.431c-.114-1.189.018-1.331,1.229-1.362.3-.008.6,0,.9,0" transform="translate(-46.413 -32.03)" fill="#36512a"/>
      <path id="Path_37868" data-name="Path 37868" d="M7.236,33.848a13.079,13.079,0,0,1,1.418.016,1.085,1.085,0,0,1,.6.348c.074.079-.02.314-.038.479-.117-.059-.232-.122-.351-.175A2.758,2.758,0,0,0,8.1,34.2c-.511-.051-1.033.01-1.548-.025-.818-.056-1.484.026-1.369,1.112.008.07-.131.156-.2.235-.058-.053-.143-.1-.169-.161-.35-.883.05-1.494,1-1.519.473-.013.947,0,1.42,0Z" transform="translate(-3.477 -25.075)" fill="#36512a"/>
    </g>
  </g>
  <rect id="Rectangle_18614" data-name="Rectangle 18614" width="32" height="32" fill="none"/>
</svg>
