<svg width="60" height="60" viewBox="0 0 60 60" fill="none" xmlns="http://www.w3.org/2000/svg">
<mask id="mask0_32_7541" style="mask-type:luminance" maskUnits="userSpaceOnUse" x="0" y="0" width="60" height="60">
<path d="M30 60C46.5685 60 60 46.5685 60 30C60 13.4315 46.5685 0 30 0C13.4315 0 0 13.4315 0 30C0 46.5685 13.4315 60 30 60Z" fill="white"/>
</mask>
<g mask="url(#mask0_32_7541)">
<path d="M29.6852 66.3822C49.7787 66.3822 66.0677 50.0932 66.0677 29.9997C66.0677 9.90619 49.7787 -6.38281 29.6852 -6.38281C9.59174 -6.38281 -6.69727 9.90619 -6.69727 29.9997C-6.69727 50.0932 9.59174 66.3822 29.6852 66.3822Z" fill="#E9E0D3"/>
<path d="M44.947 38.0402L38.482 35.0252C38.482 35.0252 36.8395 34.3727 34.822 35.1452L35.0395 34.7927L17.122 25.2527L2.9845 23.9102C1.6795 25.7702 0.14201 25.0727 -1.46299 26.8877C-3.45799 29.1377 -2.82799 30.8702 -4.58299 32.7827C-4.92049 33.1577 -5.2955 33.4877 -5.7005 33.7877C-5.7005 33.7877 -16.613 47.4677 -16.1705 48.2027C-15.3755 49.5302 -3.85549 59.5877 -0.712992 62.3177L-0.960493 63.9152L0.824499 66.1802C2.1145 67.4627 3.3445 68.8202 4.6945 70.0427C9.0445 73.9877 14.6395 76.5452 20.467 77.2427C22.5895 77.4977 25.087 77.3552 26.377 75.6452C27.1195 74.6627 27.277 73.3801 27.4945 72.1726C27.697 71.0252 27.9745 69.8852 28.312 68.7677C28.9345 66.7052 27.277 65.6777 28.327 63.7952C29.5195 61.6652 32.8045 64.9277 34.9645 63.7952C36.247 63.1202 41.512 66.3977 42.577 65.4077C46.9045 61.3952 45.577 62.7302 53.6845 60.7427C54.6145 60.5177 62.332 43.4252 63.262 43.2002C60.7495 40.4852 44.9545 38.0402 44.9545 38.0402H44.947Z" fill="#66C4A5"/>
<path d="M36.6528 34.7707C36.1128 34.7932 35.4903 34.8907 34.8228 35.1457L35.0403 34.7932L33.3828 33.9082" stroke="white" stroke-width="2" stroke-linecap="round" stroke-linejoin="round"/>
<path d="M30.3669 32.3105L17.1219 25.253L6.54688 24.248" stroke="white" stroke-width="2" stroke-linecap="round" stroke-linejoin="round" stroke-dasharray="4.56 4.56"/>
<path d="M4.8439 24.0902L2.97641 23.9102C2.53391 24.5402 2.06141 24.8777 1.56641 25.1177" stroke="white" stroke-width="2" stroke-linecap="round" stroke-linejoin="round"/>
<path d="M-2.13867 61.0879C-1.57617 61.5829 -1.09617 62.0029 -0.728668 62.3179L-0.97617 63.9154L0.186333 65.3854" stroke="white" stroke-width="2" stroke-linecap="round" stroke-linejoin="round"/>
<path d="M28.6484 63.3912C30.0359 62.1687 32.9759 64.8462 34.9634 63.8037C36.2459 63.1287 41.5109 66.4062 42.5759 65.4162C46.9034 61.4037 45.5759 62.7387 53.6834 60.7512C54.3584 60.5862 58.6709 51.3987 61.3034 46.3887" stroke="white" stroke-width="2" stroke-linecap="round" stroke-linejoin="round" stroke-dasharray="5 5"/>
<path d="M58.1764 40.8832C52.6714 39.2332 44.9464 38.0407 44.9464 38.0407L38.5039 35.0332" stroke="white" stroke-width="2" stroke-linecap="round" stroke-linejoin="round" stroke-dasharray="5.01 5.01"/>
<path d="M72.6739 -0.330764C70.2964 -0.608264 67.6189 0.809236 65.0464 -1.02076C64.9264 -1.10326 64.8139 -1.19326 64.6939 -1.29076C62.5714 -3.06826 62.3539 -8.61076 56.6839 -8.89576C54.8464 -8.98576 53.1064 -8.14576 51.8614 -6.78826C47.2564 -1.80826 39.7864 -6.08326 35.7439 -1.75576C33.2389 0.921736 31.5064 6.08924 28.4689 8.15174C28.0189 8.45924 27.5764 8.66174 27.1489 8.78924L25.5664 26.0092L35.0689 29.6917C36.7189 30.3292 37.8664 31.9492 37.7164 33.7042C37.6339 34.6717 37.9264 35.8567 38.5639 37.4092C38.5639 37.4092 39.4639 39.5992 43.4389 40.4842C45.8239 41.0167 49.5814 41.5792 52.0939 44.2867C56.7364 43.1392 61.3789 41.9167 65.7364 40.1542C67.1539 37.5967 77.3389 20.8267 77.3389 20.8267C77.3389 20.8267 70.3639 1.75424 72.6739 -0.345764V-0.330764Z" fill="#F49C21"/>
<path d="M62.1446 -5.43826C61.1096 -7.16326 59.6396 -8.74576 56.6771 -8.89576C54.8396 -8.98576 53.0996 -8.14576 51.8546 -6.78826C47.2496 -1.80826 39.7796 -6.08326 35.7371 -1.75576C33.6971 0.426736 32.1746 4.25174 30.0371 6.71174" stroke="white" stroke-width="2" stroke-linecap="round" stroke-linejoin="round" stroke-dasharray="4.62 4.62"/>
<path d="M28.7916 7.91992C28.6866 8.00242 28.5741 8.08492 28.4691 8.15992C28.0191 8.46742 27.5766 8.66992 27.1491 8.79742L26.9766 10.6649" stroke="white" stroke-width="2" stroke-linecap="round" stroke-linejoin="round"/>
<path d="M26.5639 15.1562L25.9414 21.8988" stroke="white" stroke-width="2" stroke-linecap="round" stroke-linejoin="round" stroke-dasharray="6.02 6.02"/>
<path d="M25.7389 24.1484L25.5664 26.0159L27.3139 26.6909" stroke="white" stroke-width="2" stroke-linecap="round" stroke-linejoin="round"/>
<path d="M30.5234 27.9375L35.0684 29.7C36.7184 30.3375 37.8659 31.9575 37.7159 33.7125C37.6334 34.68 37.9259 35.865 38.5634 37.4175C38.5634 37.4175 39.4634 39.6075 43.4384 40.4925C45.0134 40.845 47.1809 41.205 49.1984 42.195" stroke="white" stroke-width="2" stroke-linecap="round" stroke-linejoin="round" stroke-dasharray="4.59 4.59"/>
<path d="M50.6836 43.0723C51.1786 43.4248 51.6586 43.8298 52.0936 44.3023C52.7011 44.1523 53.3086 44.0023 53.9161 43.8448" stroke="white" stroke-width="2" stroke-linecap="round" stroke-linejoin="round"/>
<path d="M57.4629 42.9137C60.2829 42.1337 63.0579 41.2562 65.7354 40.1762C66.7629 38.3237 72.3954 29.0087 75.4179 24.0137" stroke="white" stroke-width="2" stroke-linecap="round" stroke-linejoin="round" stroke-dasharray="4.9 4.9"/>
<path d="M38.5648 37.4246C38.4373 36.3671 38.4223 35.5046 38.5048 34.7696C38.9098 31.2371 37.4023 27.8021 34.8223 25.3496C33.3598 23.9621 32.1148 22.2896 31.6723 20.3996C30.6598 16.0721 39.8323 3.60708 38.7223 -0.652915C36.2623 0.0820849 40.4923 -4.32791 20.8348 -3.32291C16.5373 -3.57041 13.3798 4.97959 9.32226 5.55709C6.39726 5.96959 -8.31024 22.9421 -5.12274 29.3321C-6.25524 32.0621 -0.975235 25.1246 -2.77523 28.1396C-2.84273 28.2521 3.08226 24.2921 3.01476 24.3896C6.79475 26.5646 7.70976 29.8646 9.44976 31.8971C11.1523 33.8846 13.3198 33.7796 15.5323 32.6921C18.4723 31.2446 20.8948 31.9496 22.8898 34.6046C24.1948 36.3296 26.1448 36.5921 27.9598 37.3421C29.6473 38.0396 31.5148 38.0096 33.2173 37.3421C35.8948 36.2921 38.5648 37.4246 38.5648 37.4246Z" fill="#1A8150"/>
<path d="M36.748 36.9663C37.828 37.1088 38.563 37.4238 38.563 37.4238C38.4805 36.7188 38.443 36.1038 38.4505 35.5488" stroke="white" stroke-width="2" stroke-linecap="round" stroke-linejoin="round"/>
<path d="M38.4591 32.1133C38.0766 29.5558 36.7491 27.1708 34.8216 25.3408C33.3591 23.9533 32.1141 22.2808 31.6716 20.3908C30.8691 16.9483 36.4941 8.37578 38.2791 2.86328" stroke="white" stroke-width="2" stroke-linecap="round" stroke-linejoin="round" stroke-dasharray="4.58 4.58"/>
<path d="M38.7139 1.20539C38.8414 0.48539 38.8564 -0.144609 38.7214 -0.654609C37.8139 -0.384609 37.8139 -0.812109 37.1914 -1.41211" stroke="white" stroke-width="2" stroke-linecap="round" stroke-linejoin="round"/>
<path d="M33.6143 -2.91872C31.2368 -3.39122 27.3443 -3.65372 20.8268 -3.31622C16.5293 -3.56372 13.3718 4.98628 9.3143 5.56378C6.8543 5.90878 -3.9157 17.9463 -5.4082 25.5663" stroke="white" stroke-width="2" stroke-linecap="round" stroke-linejoin="round" stroke-dasharray="5.24 5.24"/>
<path d="M-2.43918 27.5153C-2.49168 27.6353 -2.60417 27.8378 -2.77667 28.1378C-2.81417 28.1978 -1.26918 27.1778 0.238317 26.1953" stroke="white" stroke-width="2" stroke-linecap="round" stroke-linejoin="round" stroke-dasharray="3.82 3.82"/>
<path d="M1.4375 25.4014C2.345 24.8014 3.03499 24.3514 3.01249 24.3889C3.58999 24.7189 4.1 25.0789 4.5575 25.4539" stroke="white" stroke-width="2" stroke-linecap="round" stroke-linejoin="round"/>
<path d="M6.86914 28.0117C7.85164 29.4292 8.53413 30.8392 9.44913 31.8967C11.1516 33.8842 13.3191 33.7792 15.5316 32.6917C18.4716 31.2442 20.8941 31.9492 22.8891 34.6042C24.1941 36.3292 26.1441 36.5917 27.9591 37.3417C29.6466 38.0392 31.5141 38.0092 33.2166 37.3417C33.8316 37.1017 34.4466 36.9742 35.0241 36.9217" stroke="white" stroke-width="2" stroke-linecap="round" stroke-linejoin="round" stroke-dasharray="4.61 4.61"/>
</g>
</svg>
