<svg width="45" height="40" viewBox="0 0 45 40" fill="none" xmlns="http://www.w3.org/2000/svg">
<g clip-path="url(#clip0_11_2675)">
<path d="M43.5176 38.3433L42.2047 33.4614C42.1305 33.1841 41.9008 32.9757 41.618 32.9298L41.1657 32.8538C35.3944 10.9454 36.8876 0.595257 30.3424 0.73479C23.5904 0.877855 27.5592 15.1102 21.9082 15.1208C17.464 15.1296 19.3371 6.57221 14.7268 6.87247C11.9825 7.05086 11.7634 10.1453 11.1096 12.7346C10.6625 14.5009 9.8108 16.8782 8.02606 19.5964L7.83699 19.5823C6.89867 19.5152 6.06638 20.1846 5.93209 21.1154L4.90012 28.0868H3.65434C3.29385 28.0868 2.98815 28.3482 2.92984 28.7032L1.36952 38.4157C1.29707 38.8608 1.64165 39.2653 2.09401 39.2653H42.809C43.2914 39.2653 43.6431 38.8078 43.5176 38.3415V38.3433Z" fill="#65C3A5"/>
<path d="M30.3422 0.73479C23.5902 0.877855 27.559 15.1102 21.9079 15.1208C17.4638 15.1296 19.3369 6.57221 14.7266 6.87247C11.9823 7.05086 11.7632 10.1453 11.1094 12.7346C10.6623 14.5009 9.81059 16.8782 8.02585 19.5964L7.83677 19.5823C6.89846 19.5152 6.06617 20.1846 5.93187 21.1154L4.8999 28.0868H26.9671C28.0397 28.0868 29.0151 28.7085 29.4657 29.6799C29.8544 30.5153 30.6231 31.0858 31.5067 31.2342L41.1654 32.8521C35.3942 10.9454 36.8874 0.595257 30.3422 0.73479Z" fill="#65C3A5"/>
<path d="M36.3466 25.2433C36.2265 24.3531 35.4649 23.6925 34.5672 23.6925H24.1344L23.7492 21.9969C23.5725 21.2268 22.9134 20.6616 22.1253 20.6051L7.83677 19.5842C6.89846 19.5171 6.06617 20.1865 5.93187 21.1173L4.8999 28.0887H26.9671C28.0397 28.0887 29.0151 28.7104 29.4657 29.6818C29.8544 30.5172 30.6231 31.0877 31.5066 31.2361L37.3362 32.2128L36.3466 25.2433Z" fill="#FFC83F"/>
<path d="M11.2245 24.6071C10.8199 24.6071 10.4912 24.2786 10.4912 23.8741C10.4912 23.4696 10.8199 23.1411 11.2245 23.1411C11.6292 23.1411 11.9579 23.4696 11.9579 23.8741C11.9579 24.2786 11.6292 24.6071 11.2245 24.6071Z" fill="#FFAA64"/>
<path d="M14.9833 24.6071C14.5787 24.6071 14.25 24.2786 14.25 23.8741C14.25 23.4696 14.5787 23.1411 14.9833 23.1411C15.388 23.1411 15.7167 23.4696 15.7167 23.8741C15.7167 24.2786 15.388 24.6071 14.9833 24.6071Z" fill="#FFAA64"/>
<path d="M18.9252 24.6071C18.5206 24.6071 18.1919 24.2786 18.1919 23.8741C18.1919 23.4696 18.5206 23.1411 18.9252 23.1411C19.3299 23.1411 19.6586 23.4696 19.6586 23.8741C19.6586 24.2786 19.3299 24.6071 18.9252 24.6071Z" fill="#FFAA64"/>
<path d="M44.4752 39.076L42.7911 32.8164C42.7169 32.5391 42.4872 32.3307 42.2045 32.283L37.9883 31.5765L37.0747 25.1421C36.905 23.8969 35.8271 22.9573 34.569 22.9573H28.3577C27.9531 22.9573 27.6244 23.2858 27.6244 23.6903C27.6244 24.0948 27.9531 24.4233 28.3577 24.4233H34.569C35.0973 24.4233 35.5497 24.8171 35.6222 25.3453L36.4703 31.3222L31.6303 30.5115C30.9712 30.402 30.4128 29.9746 30.1319 29.3723C29.5646 28.1465 28.3224 27.3552 26.9688 27.3552H25.7213L24.4649 21.834C24.2157 20.7407 23.2986 19.9529 22.1783 19.8734L7.88978 18.8526C6.57332 18.759 5.39645 19.7074 5.20737 21.0091L4.67902 24.5734C4.61894 24.9743 4.89637 25.347 5.29749 25.4053C5.69685 25.4636 6.07147 25.1881 6.12978 24.7871L6.65813 21.2193C6.73765 20.6718 7.2342 20.2726 7.78552 20.3115L22.074 21.3324C22.5441 21.3659 22.9293 21.6962 23.0336 22.1554L24.2157 27.3517H3.02858C2.66809 27.3517 2.36239 27.6131 2.30408 27.9681L0.508737 39.1502C0.445123 39.5493 0.717251 39.9256 1.11661 39.9909C1.51597 40.0545 1.89235 39.7825 1.95773 39.3833L3.65412 28.823H26.9671C27.7516 28.823 28.4708 29.2804 28.7995 29.9905C29.2819 31.0325 30.2485 31.7691 31.3847 31.9598L41.4959 33.6536L43.0562 39.4593C43.1446 39.786 43.4397 40.0015 43.7648 40.0015C44.2472 40.0015 44.5989 39.544 44.4734 39.0778L44.4752 39.076Z" fill="#083F2F"/>
<path d="M9.54559 16.9752C9.9149 17.143 10.3496 16.9805 10.5175 16.6114C11.067 15.4033 11.5053 14.1598 11.8198 12.9146C12.4825 10.2971 12.6574 7.74132 14.7743 7.60355C16.4531 7.49581 16.9832 8.89821 17.7077 11.1961C18.3633 13.2714 19.1779 15.8537 21.9009 15.8537C28.4196 15.8537 24.4155 1.59481 30.3581 1.46764C33.9011 1.39346 34.691 4.85529 36.4669 14.5643C37.3681 19.4956 38.1597 23.6622 39.3967 28.8214C39.4903 29.2135 39.8844 29.4572 40.2802 29.3636C40.6743 29.27 40.9164 28.8744 40.8227 28.4805C37.8523 16.0974 37.2373 8.0875 35.4261 3.78671C34.3163 1.15325 32.6942 -0.0477887 30.3263 -0.000100221C22.894 0.158861 26.5748 14.3771 21.9062 14.3859C20.3671 14.3912 19.8211 13.0153 19.1072 10.7528C18.4322 8.61208 17.591 5.94859 14.6789 6.13758C13.3784 6.22236 12.3835 6.87233 11.7226 8.06808C10.6376 10.0304 10.8391 12.36 9.18334 16.002C9.01547 16.3712 9.17804 16.8057 9.54735 16.9734L9.54559 16.9752Z" fill="#083F2F"/>
<path d="M30.1192 6.90912L30.1405 6.81728C30.2288 6.42164 29.9814 6.02953 29.5856 5.94122C29.1915 5.85291 28.7975 6.10018 28.7091 6.49582L28.6879 6.59296C28.5872 7.04865 28.9335 7.48315 29.4053 7.48315C29.7429 7.48315 30.045 7.25 30.121 6.90735L30.1192 6.90912Z" fill="#083F2F"/>
<path d="M28.9428 9.36415C28.5417 9.30057 28.1671 9.57434 28.1034 9.97351C27.8879 11.337 27.6405 12.7624 27.2005 13.9052C27.0149 14.3873 27.3736 14.9013 27.8843 14.9013C28.1794 14.9013 28.4569 14.7229 28.5682 14.4315C29.0612 13.1545 29.3245 11.6408 29.5524 10.1996C29.616 9.80042 29.3422 9.42421 28.9428 9.36062V9.36415Z" fill="#083F2F"/>
<path d="M11.2241 24.6071C10.8194 24.6071 10.4907 24.2786 10.4907 23.8741C10.4907 23.4696 10.8194 23.1411 11.2241 23.1411C11.6287 23.1411 11.9574 23.4696 11.9574 23.8741C11.9574 24.2786 11.6287 24.6071 11.2241 24.6071Z" fill="#083F2F"/>
<path d="M14.9828 24.6071C14.5782 24.6071 14.2495 24.2786 14.2495 23.8741C14.2495 23.4696 14.5782 23.1411 14.9828 23.1411C15.3875 23.1411 15.7162 23.4696 15.7162 23.8741C15.7162 24.2786 15.3875 24.6071 14.9828 24.6071Z" fill="#083F2F"/>
<path d="M18.9252 24.6071C18.5206 24.6071 18.1919 24.2786 18.1919 23.8741C18.1919 23.4696 18.5206 23.1411 18.9252 23.1411C19.3299 23.1411 19.6586 23.4696 19.6586 23.8741C19.6586 24.2786 19.3299 24.6071 18.9252 24.6071Z" fill="#083F2F"/>
</g>
<defs>
<clipPath id="clip0_11_2675">
<rect width="44" height="40" fill="white" transform="translate(0.5)"/>
</clipPath>
</defs>
</svg>
