<svg width="33" height="34" viewBox="0 0 33 34" fill="none" xmlns="http://www.w3.org/2000/svg">
<path d="M16.0697 6.84106H11.1326L11.1422 0.565489C11.1422 0.253331 10.8893 0 10.5777 0H0.564543C0.252906 0 0 0.253331 0 0.565489V13.5176L0.0467456 15.5983C0.0539372 15.9056 0.304446 16.1506 0.611289 16.1506H16.0709C16.3825 16.1506 16.6354 15.8972 16.6354 15.5851V7.40535C16.6354 7.09319 16.3825 6.83986 16.0709 6.83986L16.0697 6.84106ZM15.5064 15.0232H1.16385L1.13028 13.502V1.12737H10.0131L10.0036 7.40294C10.0036 7.7151 10.2565 7.96843 10.5681 7.96843H15.5064V15.0232Z" fill="#033726"/>
<path d="M32.2377 12.4937H26.0889C25.7832 12.4937 25.5339 12.7362 25.5243 13.0423L25.4344 21.1728L17.2252 21.3721C16.9183 21.3794 16.6738 21.6303 16.6738 21.9376V33.4346C16.6738 33.7468 16.9267 34.0001 17.2384 34.0001H30.1725L32.2485 33.9545C32.5553 33.9485 32.8011 33.6964 32.8011 33.389V13.0591C32.8011 12.747 32.5482 12.4937 32.2365 12.4937H32.2377ZM31.6732 32.8355L30.1545 32.8692H17.8029V22.4887L25.9966 22.2906C26.2962 22.2834 26.5384 22.0421 26.5479 21.7419L26.6378 13.6246H31.6732V32.8355Z" fill="#033726"/>
<path d="M1.20086 17.1699H0.0717773V32.8583C0.0717773 33.1704 0.324683 33.4237 0.63632 33.4237H15.7687V32.2928H1.20086V17.1699Z" fill="#033726"/>
<path d="M31.8709 6.80045H33V0.577696C33 0.265538 32.7471 0.012207 32.4355 0.012207H12.3301V1.14318H31.8721V6.80045H31.8709Z" fill="#033726"/>
<path d="M2.27588 23.4946H3.40497V24.6256H2.27588V23.4946Z" fill="#033726"/>
<path d="M6.7915 23.4946H7.92059V24.6256H6.7915V23.4946Z" fill="#033726"/>
<path d="M4.53418 23.4946H5.66327V24.6256H4.53418V23.4946Z" fill="#033726"/>
<path d="M9.04932 23.4946H10.1784V24.6256H9.04932V23.4946Z" fill="#033726"/>
<path d="M11.3066 23.4946H12.4357V24.6256H11.3066V23.4946Z" fill="#033726"/>
<path d="M13.5649 23.4946H14.694V24.6256H13.5649V23.4946Z" fill="#033726"/>
<path d="M20.019 13.5835H21.1481V14.7145H20.019V13.5835Z" fill="#033726"/>
<path d="M20.019 15.8457H21.1481V16.9767H20.019V15.8457Z" fill="#033726"/>
<path d="M20.019 18.1064H21.1481V19.2374H20.019V18.1064Z" fill="#033726"/>
<path d="M20.019 11.3228H21.1481V12.4537H20.019V11.3228Z" fill="#033726"/>
<path d="M20.019 6.80029H21.1481V7.93126H20.019V6.80029Z" fill="#033726"/>
<path d="M20.019 2.27734H21.1481V3.40832H20.019V2.27734Z" fill="#033726"/>
<path d="M20.019 4.53809H21.1481V5.66906H20.019V4.53809Z" fill="#033726"/>
<path d="M20.019 9.06104H21.1481V10.192H20.019V9.06104Z" fill="#033726"/>
</svg>
