<svg id="Cemeteries" xmlns="http://www.w3.org/2000/svg" xmlns:xlink="http://www.w3.org/1999/xlink" width="64" height="64" viewBox="0 0 64 64">
  <defs>
    <clipPath id="clip-path">
      <rect id="Rectangle_156009" data-name="Rectangle 156009" width="30.846" height="36.78" fill="none"/>
    </clipPath>
  </defs>
  <rect id="Rectangle_156008" data-name="Rectangle 156008" width="64" height="64" fill="none"/>
  <g id="Group_184945" data-name="Group 184945" transform="translate(16.605 13.609)">
    <g id="Group_184944" data-name="Group 184944" clip-path="url(#clip-path)">
      <path id="Path_85065" data-name="Path 85065" d="M47.8,2.735h0a9.988,9.988,0,0,0-6.847,2.7s-.785.943-1.155,1.447a9.691,9.691,0,0,0-1.747,5.872l-.016,16.391H57.5l.323-1.086V12.758A10.023,10.023,0,0,0,47.8,2.735" transform="translate(-32.376 -2.328)" fill="#958374"/>
      <path id="Path_85066" data-name="Path 85066" d="M66.676,35.7a.916.916,0,0,1-.908-.8,6.082,6.082,0,0,0-5.125-5.214s-.6,0-.9,0a6.057,6.057,0,0,0-5.852,5.432.95.95,0,0,1-.94.8h.032a.917.917,0,0,0-.917.917l.112,15.254h15.2l.216-1.086V36.62a.917.917,0,0,0-.917-.917" transform="translate(-44.318 -25.273)" fill="#e9f3e8"/>
      <path id="Path_85067" data-name="Path 85067" d="M89.762,87.778l-4.816-.012a.434.434,0,0,1-.434-.434V80.608a.434.434,0,0,1,.434-.434l.388-.1h4.559a.434.434,0,0,1,.434.434v6.368l-.132.472a.434.434,0,0,1-.434.434" transform="translate(-71.938 -68.157)" fill="#ffc941"/>
      <path id="Path_85068" data-name="Path 85068" d="M48.933,180.265H27.078l-.569.075a.362.362,0,0,0-.362.362v1.661H49.171l.123-1.086v-.651a.362.362,0,0,0-.362-.362" transform="translate(-22.257 -153.444)" fill="#6d5a4b"/>
      <path id="Path_85069" data-name="Path 85069" d="M37.79,194.371H14.633a2.09,2.09,0,0,0-.839.174s-.354.287-.52.437a1.86,1.86,0,0,0-.6,1.487H39.646c0-.4-.059-1.085-.059-1.085a2.1,2.1,0,0,0-1.8-1.013" transform="translate(-10.788 -165.452)" fill="#e9f3e8"/>
      <path id="Path_85070" data-name="Path 85070" d="M33.019,208.476H4.507l-.689.063a.362.362,0,0,0-.362.362l.011,4.436a.362.362,0,0,0,.362.362l29.108.059a.362.362,0,0,0,.362-.362l.083-.723v-3.835a.362.362,0,0,0-.362-.362" transform="translate(-2.942 -177.458)" fill="#6d5a4b"/>
      <path id="Path_85071" data-name="Path 85071" d="M30.077,206.147v-.407H.769a.769.769,0,0,0-.769.769v4.631a.769.769,0,0,0,.769.769H30.077a.769.769,0,0,0,.769-.769v-4.631a.769.769,0,0,0-.769-.769v.768l-.018.042a.05.05,0,0,0,.018,0v-.046l-.018.042.017-.041-.037.025a.044.044,0,0,0,.02.016l.017-.041-.037.025.038-.026h-.046a.048.048,0,0,0,.008.026l.038-.026h-.046v4.631h.046l-.042-.018a.047.047,0,0,0,0,.018h.046l-.042-.018.041.017-.025-.037a.043.043,0,0,0-.016.02l.041.017-.025-.037.026.038V211.1a.048.048,0,0,0-.026.008l.026.038V211.1H.769v.046l.018-.042a.05.05,0,0,0-.018,0v.046l.018-.042-.017.041.037-.025a.045.045,0,0,0-.019-.016l-.017.041.037-.025-.038.025H.814a.047.047,0,0,0-.008-.025l-.038.025H.814v-4.631H.768l.042.018a.05.05,0,0,0,0-.018H.768l.042.018-.041-.017.025.037a.044.044,0,0,0,.016-.02l-.041-.017.025.037-.026-.038v.046a.048.048,0,0,0,.026-.008l-.026-.038v.046H30.077Z" transform="translate(0 -175.129)" fill="#033726"/>
      <path id="Path_85072" data-name="Path 85072" d="M26.339,191.635H11.5A2.505,2.505,0,0,0,9,194.141a.407.407,0,0,0,.814,0,1.691,1.691,0,0,1,1.692-1.692H26.339a.407.407,0,1,0,0-.814Z" transform="translate(-7.659 -163.123)" fill="#033726"/>
      <path id="Path_85073" data-name="Path 85073" d="M120.709,194.141a2.505,2.505,0,0,0-2.506-2.506H107.55a.407.407,0,1,0,0,.814H118.2a1.691,1.691,0,0,1,1.692,1.692.407.407,0,1,0,.814,0Z" transform="translate(-91.202 -163.123)" fill="#033726"/>
      <path id="Path_85074" data-name="Path 85074" d="M46.9,180.036V178.3a.769.769,0,0,0-.769-.769H23.629a.769.769,0,0,0-.769.769v1.737a.407.407,0,0,0,.814,0V178.3h-.046l.042.018a.05.05,0,0,0,0-.018h-.046l.042.018-.041-.017.025.037a.043.043,0,0,0,.016-.02l-.041-.017.025.037-.026-.038v.046a.048.048,0,0,0,.026-.008l-.026-.038v.046H46.135V178.3l-.018.042a.05.05,0,0,0,.018,0V178.3l-.018.042.017-.041-.037.025a.043.043,0,0,0,.019.016l.017-.041-.037.025.038-.026H46.09a.048.048,0,0,0,.008.026l.038-.026H46.09v1.737a.407.407,0,0,0,.814,0" transform="translate(-19.459 -151.116)" fill="#033726"/>
      <path id="Path_85075" data-name="Path 85075" d="M48.774,1.159A10.432,10.432,0,0,0,33.56,10.43V26.6a.407.407,0,0,0,.814,0V10.43A9.62,9.62,0,0,1,48.4,1.883a.407.407,0,1,0,.374-.723Z" transform="translate(-28.567 0)" fill="#033726"/>
      <path id="Path_85076" data-name="Path 85076" d="M85.721,26.6V10.429a10.434,10.434,0,0,0-15.214-9.27.407.407,0,0,0,.374.723,9.616,9.616,0,0,1,14.026,8.547V26.6a.407.407,0,1,0,.814,0Z" transform="translate(-59.83 0.001)" fill="#033726"/>
      <path id="Path_85077" data-name="Path 85077" d="M149.977,41.193V25.019a10.405,10.405,0,0,0-3.479-7.776.407.407,0,0,0-.543.607,9.591,9.591,0,0,1,3.207,7.169V41.193a.407.407,0,1,0,.814,0Z" transform="translate(-124.124 -14.589)" fill="#033726"/>
      <path id="Path_85078" data-name="Path 85078" d="M48.152,117.821v8.727a.407.407,0,0,0,.814,0v-8.727a.407.407,0,1,0-.814,0" transform="translate(-40.988 -99.945)" fill="#033726"/>
      <path id="Path_85079" data-name="Path 85079" d="M64.67,49.167V33.909a1.323,1.323,0,0,0-1.324-1.324.509.509,0,0,1-.5-.444h0a6.487,6.487,0,0,0-12.861,0h0a.509.509,0,0,1-.5.444,1.324,1.324,0,0,0-1.324,1.324v7.658a.407.407,0,1,0,.814,0V33.909a.505.505,0,0,1,.04-.2.514.514,0,0,1,.185-.225.505.505,0,0,1,.284-.087,1.323,1.323,0,0,0,1.312-1.152h0a5.673,5.673,0,0,1,11.247,0h0A1.323,1.323,0,0,0,63.346,33.4a.509.509,0,0,1,.509.51V49.167a.407.407,0,1,0,.814,0Z" transform="translate(-40.988 -22.563)" fill="#033726"/>
      <path id="Path_85080" data-name="Path 85080" d="M86.917,80.14v5.011H81.8v-7h5.12v2.569a.407.407,0,1,0,.814,0V77.742a.407.407,0,0,0-.407-.407H81.39a.407.407,0,0,0-.407.407v7.816a.407.407,0,0,0,.407.407h5.934a.407.407,0,0,0,.407-.407V80.14a.407.407,0,1,0-.814,0Z" transform="translate(-68.934 -65.829)" fill="#033726"/>
      <path id="Path_85081" data-name="Path 85081" d="M81.39,145.269h5.934a.407.407,0,1,0,0-.814H81.39a.407.407,0,0,0,0,.814" transform="translate(-68.934 -122.962)" fill="#033726"/>
      <path id="Path_85082" data-name="Path 85082" d="M81.39,63.557h5.934a.407.407,0,1,0,0-.814H81.39a.407.407,0,0,0,0,.814" transform="translate(-68.934 -53.408)" fill="#033726"/>
      <path id="Path_85083" data-name="Path 85083" d="M81.39,159.861h5.934a.407.407,0,1,0,0-.814H81.39a.407.407,0,0,0,0,.814" transform="translate(-68.934 -135.383)" fill="#033726"/>
    </g>
  </g>
</svg>
