<svg id="Commercial_Service" data-name="Commercial Service" xmlns="http://www.w3.org/2000/svg" width="64" height="64" viewBox="0 0 64 64">
  <rect id="Rectangle_156003" data-name="Rectangle 156003" width="64" height="64" fill="none"/>
  <g id="Group_184935" data-name="Group 184935" transform="translate(20365.779 16719.379)">
    <rect id="Rectangle_155955" data-name="Rectangle 155955" width="8.914" height="2.761" transform="translate(-20348.629 -16699.404)" fill="#e9f3e8"/>
    <path id="Path_84884" data-name="Path 84884" d="M3636.044,64.709V62h4.389v2.724h-4.389Z" transform="translate(-23971.119 -16758.035)" fill="#e8ded3"/>
    <path id="Path_84885" data-name="Path 84885" d="M3630.573,78.559v10.4a1.022,1.022,0,0,0-.3.577L3628.436,99.9l-.011,0h-6.012V78.559Z" transform="translate(-23959.73 -16771.865)" fill="#e8ded3"/>
    <path id="Path_84886" data-name="Path 84886" d="M3566.72,180.482v.07h-2.663v-5.461h2.663Z" transform="translate(-23910.975 -16852.52)" fill="#958374"/>
    <path id="Path_84887" data-name="Path 84887" d="M3583.068,180.506v.046h-2.823v-5.461h2.823Z" transform="translate(-23924.5 -16852.52)" fill="#958374"/>
    <path id="Path_84888" data-name="Path 84888" d="M3660.8,140.319a1.021,1.021,0,0,1,.709-.286h10a1.023,1.023,0,0,1,1.01.863l1.907,10.772a2.044,2.044,0,0,1-2.043,2.043h-11.749a2.044,2.044,0,0,1-2.044-2.043l.072-.4L3660.5,140.9a1.02,1.02,0,0,1,.3-.577" transform="translate(-23989.959 -16823.229)" fill="#ffc941"/>
    <path id="Path_84889" data-name="Path 84889" d="M3545.827,77.5h-2.663v5.461h-4.114V58.281h13.714V82.958h-4.115V77.5Z" transform="translate(-23890.082 -16754.926)" fill="#e9f3e8"/>
    <path id="Path_84890" data-name="Path 84890" d="M3553.317,99.14h8.149a.523.523,0,1,0,0-1.046h-8.149a.523.523,0,1,0,0,1.046" transform="translate(-23901.563 -16788.189)" fill="#6d5a4b"/>
    <path id="Path_84891" data-name="Path 84891" d="M3553.317,121.924h8.149a.523.523,0,1,0,0-1.046h-8.149a.523.523,0,1,0,0,1.046" transform="translate(-23901.563 -16807.225)" fill="#6d5a4b"/>
    <path id="Path_84892" data-name="Path 84892" d="M3561.465,144.712a.523.523,0,1,0,0-1.046h-8.149a.523.523,0,1,0,0,1.046Z" transform="translate(-23901.563 -16826.266)" fill="#6d5a4b"/>
    <path id="Path_84893" data-name="Path 84893" d="M3553.317,76.35h8.149a.523.523,0,1,0,0-1.046h-8.149a.523.523,0,1,0,0,1.046" transform="translate(-23901.563 -16769.148)" fill="#6d5a4b"/>
    <path id="Path_84894" data-name="Path 84894" d="M3633.566,144.217h3.65a.523.523,0,1,0,0-1.046h-3.65a.523.523,0,0,0,0,1.046" transform="translate(-23968.613 -16825.852)" fill="#6d5a4b"/>
    <path id="Path_84895" data-name="Path 84895" d="M3633.566,163.042h2.119a.523.523,0,1,0,0-1.046h-2.119a.523.523,0,0,0,0,1.046" transform="translate(-23968.613 -16841.58)" fill="#6d5a4b"/>
    <path id="Path_84896" data-name="Path 84896" d="M3635.1,182.306h-1.536a.523.523,0,0,0,0,1.046h1.536a.523.523,0,0,0,0-1.046" transform="translate(-23968.613 -16858.547)" fill="#6d5a4b"/>
    <path id="Path_84897" data-name="Path 84897" d="M3633.566,123.907h3.5a.523.523,0,1,0,0-1.046h-3.5a.523.523,0,0,0,0,1.046" transform="translate(-23968.613 -16808.881)" fill="#6d5a4b"/>
    <path id="Path_84898" data-name="Path 84898" d="M3633.566,104.094h3.5a.523.523,0,1,0,0-1.046h-3.5a.523.523,0,0,0,0,1.046" transform="translate(-23968.613 -16792.33)" fill="#6d5a4b"/>
    <path id="Path_84899" data-name="Path 84899" d="M3570.5,46.168a1.538,1.538,0,0,0-1.526-1.3h-1.1V43.838a3.9,3.9,0,0,0-7.8,0v1.031h-1.1a1.555,1.555,0,0,0-.186.013v-9.6a.523.523,0,0,0-.523-.523h-1.006v-2.2a.523.523,0,0,0-.523-.523h-1.651v-.955a.523.523,0,1,0-1.046,0v.955h-1.692a.523.523,0,0,0-.523.523v2.2h-1.2V31.943a.523.523,0,0,0-.523-.523h-1.877V29.181a.523.523,0,0,0-.523-.523h-4.014V27.28a.523.523,0,0,0-1.046,0v1.379h-3.854a.523.523,0,0,0-.523.523V31.42h-1.876a.523.523,0,0,0-.523.523V56.619a.523.523,0,0,0,.523.523h19.145a2.57,2.57,0,0,0,2.564,2.45h11.75a2.57,2.57,0,0,0,2.566-2.566.458.458,0,0,0-.009-.091Zm-9.381-2.33a2.854,2.854,0,0,1,5.709,0v1.031h-5.709Zm-8.25-10.76h3.343v1.678h-3.343Zm4.871,2.724v9.68a1.541,1.541,0,0,0-.292.686l-1.758,9.929h-5.062V35.8Zm-18.427-6.1h7.868V31.42h-7.868Zm-2.4,2.761h12.668V56.1h-3.068V51.159a.523.523,0,0,0-.523-.523h-5.486a.523.523,0,0,0-.523.523V56.1h-3.068Zm6.777,19.216h1.777V56.1h-1.777Zm-1.046,4.415h-1.617V51.681h1.617Zm27.2,2.45H3558.1a1.523,1.523,0,0,1-1.521-1.478l1.9-10.723v-.01a.5.5,0,0,1,.493-.421h1.1V47.62a.523.523,0,1,0,1.046,0V45.914h5.708V47.62a.523.523,0,1,0,1.045,0V45.914h1.1a.5.5,0,0,1,.494.421v.01l1.9,10.723a1.522,1.522,0,0,1-1.52,1.478" transform="translate(-23887.424 -16728.588)" fill="#033726"/>
  </g>
</svg>
