<svg id="Cultural_Service" data-name="Cultural Service" xmlns="http://www.w3.org/2000/svg" xmlns:xlink="http://www.w3.org/1999/xlink" width="64" height="64" viewBox="0 0 64 64">
  <defs>
    <clipPath id="clip-path">
      <rect id="Rectangle_156011" data-name="Rectangle 156011" width="35.981" height="29.659" fill="none"/>
    </clipPath>
  </defs>
  <rect id="Rectangle_155997" data-name="Rectangle 155997" width="64" height="64" fill="none"/>
  <g id="Group_184948" data-name="Group 184948" transform="translate(14 17)">
    <g id="Group_184947" data-name="Group 184947" clip-path="url(#clip-path)">
      <path id="Path_85084" data-name="Path 85084" d="M19.265,17.9l5.63,1.57,3.248-2.919,2.191-1.164,4.071-.347s2.206.122,2.458.143a41.182,41.182,0,0,0,3.5-5.149c.145-.379,1.012-2.874,1.012-2.874l1.172.155.292,5.605s1.072,5.632,1.072,5.829,1.167,6.287,1.161,6.708S41.838,31.9,41.838,31.9s-4.064,1.243-6.166,1.047-11.319-.393-11.585-.393-4.8-.066-4.822-.393-.81-11.906-.81-11.906Z" transform="translate(-15.142 -5.875)" fill="#e9f3e8"/>
      <path id="Path_85085" data-name="Path 85085" d="M36.168,29.65l-.359-.01q-.273-5.185-.547-10.369c-.059-1.11-.134-2.219-.184-3.328-.012-.27-.111-.348-.369-.338-.472.017-.946.022-1.418,0-.273-.014-.379.1-.455.341a18.861,18.861,0,0,1-.878,2.247,4.043,4.043,0,0,1-1.38,1.75c-.637.43-1.306.8-1.972,1.179a4.28,4.28,0,0,1-2.989.53c-.3-.055-.6-.117-.9-.176a15.238,15.238,0,0,0-1.883-.344.911.911,0,0,0-.944.512,3.952,3.952,0,0,0-.414,1.027c-.043.2-.135.259-.332.287-.645.092-1.188.036-1.389-.722-.077-.291-.293-.356-.589-.351-2.249.035-4.5.029-6.745.09a1.185,1.185,0,0,1-1.3-.665.481.481,0,0,0-.533-.27q-3.33.168-6.661.312a.482.482,0,0,0-.386.2q-.947,1.181-1.9,2.354a.9.9,0,0,0-.184.454c-.2,1.287-.4,2.574-.6,3.861-.073.474-.139.95-.208,1.425l-.359-.011q.421-2.765.842-5.53c.05-.328.324-.511.509-.749a1.107,1.107,0,0,0,.26-.616q.322-3.934.667-7.866c.136-1.578.283-3.156.414-4.734.023-.273.075-.518.352-.623s.487.086.662.273.3.378.458.566a1.461,1.461,0,0,0,.9.6c.364.061.474.4.621.678.285.54.286.544.634.052.436-.617.737-1.314,1.131-1.956.174-.284.335-.583.68-.7.163-.053.155-.181.166-.307Q8.894,5.214,9.2,1.7c.057-.646-.042-.559.63-.584a1.646,1.646,0,0,1,1.665.918,1.367,1.367,0,0,1,.183.883.372.372,0,0,0,.263.477,1.414,1.414,0,0,1,.842.888c.156.392.3.788.464,1.176a1.144,1.144,0,0,0,1.31.814.755.755,0,0,1,.831.406c.229.391.383.395.7.1a7.049,7.049,0,0,1,1.051-.83,2.292,2.292,0,0,1,1.572-.362.837.837,0,0,0,.191.017A1.356,1.356,0,0,1,20.57,6.845c.036.215.157.19.3.089a9.022,9.022,0,0,0,.775-.561,1.985,1.985,0,0,1,1.611-.556c.4.047.484-.136.535-.485.234-1.592.5-3.179.744-4.77.037-.246.132-.314.368-.31.716.013,1.431,0,2.147.006a.987.987,0,0,1,.931.912q.231,4.536.463,9.072c0,.051.01.1.021.207a2.167,2.167,0,0,0,.553-.873.553.553,0,0,1,.6-.39c1.43-.047,2.861-.1,4.29-.179.363-.02.478.06.475.445-.013,1.776.021,3.552.01,5.328,0,.379.084.519.484.493.531-.034.525-.006.553.523q.352,6.775.71,13.55c.005.1.02.2.031.3m-33.9-7.28.121.055c.314-.4.634-.786.941-1.187a.585.585,0,0,1,.481-.254c2.144-.091,4.289-.172,6.431-.3.611-.038,1.068.061,1.338.652A.419.419,0,0,0,12,21.6q2.281-.041,4.561-.061c.208,0,.291-.079.308-.29.068-.853.2-1.7.217-2.557A2.984,2.984,0,0,1,18.6,16.071c.141-.088.283-.175.415-.275a1.446,1.446,0,0,0,.713-1.364c-.111-1.4-.128-2.807-.191-4.21-.058-1.289-.137-2.576-.182-3.866-.011-.323-.136-.379-.429-.417a2.627,2.627,0,0,0-2.172.739,12.616,12.616,0,0,1-2,1.661,7.545,7.545,0,0,0-2.942,3.2.783.783,0,0,1-.895.51,1.327,1.327,0,0,0-1.319.484,1.647,1.647,0,0,1-1.78.5,5.344,5.344,0,0,0-.636-.139,1.829,1.829,0,0,1-1.606-1.237.529.529,0,0,0-.4-.377,1.651,1.651,0,0,1-.99-.677c-.143-.18-.281-.364-.428-.54-.074-.088-.169-.182-.292-.148-.144.039-.11.187-.12.294q-.148,1.583-.288,3.166-.3,3.319-.589,6.639c-.069.786-.134,1.573-.2,2.36M34.045,12.316h-.011c0-.869-.009-1.738.005-2.606,0-.27-.083-.352-.351-.338-1.148.061-2.3.138-3.446.139-.57,0-.962.116-1.173.695a2.345,2.345,0,0,1-.639.854,1.086,1.086,0,0,1-.614.371,1.273,1.273,0,0,0-1.076.858,2.467,2.467,0,0,1-1.578,1.3,17.174,17.174,0,0,1-3.678.72,1.3,1.3,0,0,0-.975.446A10.008,10.008,0,0,1,18.4,16.685a1.934,1.934,0,0,0-.89,1.46c-.1,1.043-.185,2.086-.288,3.129-.02.206.04.274.243.269a13.387,13.387,0,0,0,1.455-.031,1,1,0,0,1,1.266.754c.111.38.4.34.7.34s.281-.237.355-.409c.055-.129.1-.263.158-.391.419-.92.763-1.11,1.776-1,.739.083,1.448.309,2.178.435a3.985,3.985,0,0,0,2.41-.127,14.446,14.446,0,0,0,2.874-1.674,2.557,2.557,0,0,0,.673-.775,16.21,16.21,0,0,0,1.061-2.459c.338-.927.338-.939,1.319-.943.3,0,.363-.111.358-.383-.014-.856-.005-1.712-.005-2.568M20.1,14.589c.36-.24.6-.568,1.016-.594a13.722,13.722,0,0,0,1.783-.231,16.338,16.338,0,0,0,2.447-.623,1.728,1.728,0,0,0,1.114-1.492c-.1-1.028-.115-2.063-.17-3.1-.032-.586-.081-1.171-.107-1.756-.011-.252-.122-.292-.344-.241a.857.857,0,0,0-.723.645A9.51,9.51,0,0,1,24.474,9a.867.867,0,0,1-.81.541q-.727.012-1.455-.006a1.482,1.482,0,0,1-1.436-1.012c-.1-.237-.2-.472-.276-.714-.144-.436-.269-.879-.414-1.315-.05-.151-.115-.381-.3-.336-.157.039-.073.269-.067.411q.105,2.486.225,4.971c.048.993.1,1.986.162,3.047m-8.8-2.977a2.25,2.25,0,0,0,.139-.192,8.281,8.281,0,0,1,3.21-3.462,2.6,2.6,0,0,0,.673-.5c.067-.074.161-.138.049-.253-.318-.325-.6-.653-1.154-.582a1.133,1.133,0,0,1-1.1-.63,8.184,8.184,0,0,1-.655-1.507,1.179,1.179,0,0,0-.767-.788.569.569,0,0,1-.415-.688,1.325,1.325,0,0,0-.644-1.366c-.151-.108-.324-.209-.495-.105-.192.116-.091.319-.069.489a4.2,4.2,0,0,0,1.054,2.051,1.317,1.317,0,0,1,.293.877c0,1.124-.12,2.243-.085,3.368.02.638.02,1.278-.006,1.916a6.809,6.809,0,0,0-.03,1.375m15.5-.167a2.117,2.117,0,0,1,.9-.349.437.437,0,0,0,.4-.532c-.109-1.809-.188-3.619-.281-5.428q-.1-1.969-.212-3.937c-.023-.411-.286-.55-.857-.588-.417-.028-.506.143-.537.516C26.1,2.55,25.97,3.973,25.8,5.391c-.049.4.043.606.432.667.241.038.314.162.323.411.035,1.058.1,2.116.153,3.173.031.582.067,1.163.1,1.8M10.895,8.257h.069c0-.4-.01-.791,0-1.186.009-.272-.117-.358-.37-.354a.8.8,0,0,0-.886.713c-.1.434-.177.874-.286,1.305a.668.668,0,0,1-.561.562,1,1,0,0,0-.79.587c-.3.532-.617,1.057-.9,1.6-.157.3-.613.623-.482.83.141.222.642.214.984.311a1.6,1.6,0,0,0,1.829-.5,1.03,1.03,0,0,1,1.025-.437c.287.047.373-.1.37-.375-.011-1.019,0-2.038,0-3.058M25.456,6.231a21.006,21.006,0,0,0-2.669-.021c-.553.044-.891.466-1.3.759-.806.586-.793.6-.325,1.52a1.065,1.065,0,0,0,.842.64,10.059,10.059,0,0,0,1.716.024.5.5,0,0,0,.422-.342,8.081,8.081,0,0,0,.531-1.431,1.548,1.548,0,0,1,.778-1.149M9.688,1.646l-.127.017q-.309,3.511-.618,7.023L9.05,8.7a10.929,10.929,0,0,0,.355-1.516.957.957,0,0,1,.915-.783,1.99,1.99,0,0,1,.382-.011c.231.022.324-.07.321-.3-.006-.434,0-.868.012-1.3A.582.582,0,0,0,10.9,4.4,4.193,4.193,0,0,1,9.688,1.646M24.763,5.8c.241-.063.65.2.7-.381.11-1.384.263-2.765.4-4.148.064-.663.062-.653-.634-.651-.254,0-.351.08-.39.339-.21,1.4-.443,2.794-.664,4.191-.1.644-.1.644.6.65" transform="translate(-0.237 -0.206)" fill="#083f2f"/>
      <path id="Path_85086" data-name="Path 85086" d="M36.168,29.65l-.359-.01q-.273-5.185-.547-10.369c-.059-1.11-.134-2.219-.184-3.328-.012-.27-.111-.348-.369-.338-.472.017-.946.022-1.418,0-.273-.014-.379.1-.455.341a18.861,18.861,0,0,1-.878,2.247,4.043,4.043,0,0,1-1.38,1.75c-.637.43-1.306.8-1.972,1.179a4.28,4.28,0,0,1-2.989.53c-.3-.055-.6-.117-.9-.176a15.238,15.238,0,0,0-1.883-.344.911.911,0,0,0-.944.512,3.952,3.952,0,0,0-.414,1.027c-.043.2-.135.259-.332.287-.645.092-1.188.036-1.389-.722-.077-.291-.293-.356-.589-.351-2.249.035-4.5.029-6.745.09a1.185,1.185,0,0,1-1.3-.665.481.481,0,0,0-.533-.27q-3.33.168-6.661.312a.482.482,0,0,0-.386.2q-.947,1.181-1.9,2.354a.9.9,0,0,0-.184.454c-.2,1.287-.4,2.574-.6,3.861-.073.474-.139.95-.208,1.425l-.359-.011q.421-2.765.842-5.53c.05-.328.324-.511.509-.749a1.107,1.107,0,0,0,.26-.616q.322-3.934.667-7.866c.136-1.578.283-3.156.414-4.734.023-.273.075-.518.352-.623s.487.086.662.273.3.378.458.566a1.461,1.461,0,0,0,.9.6c.364.061.474.4.621.678.285.54.286.544.634.052.436-.617.737-1.314,1.131-1.956.174-.284.335-.583.68-.7.163-.053.155-.181.166-.307Q8.894,5.214,9.2,1.7c.057-.646-.042-.559.63-.584a1.646,1.646,0,0,1,1.665.918,1.367,1.367,0,0,1,.183.883.372.372,0,0,0,.263.477,1.414,1.414,0,0,1,.842.888c.156.392.3.788.464,1.176a1.144,1.144,0,0,0,1.31.814.755.755,0,0,1,.831.406c.229.391.383.395.7.1a7.049,7.049,0,0,1,1.051-.83,2.292,2.292,0,0,1,1.572-.362.837.837,0,0,0,.191.017A1.356,1.356,0,0,1,20.57,6.845c.036.215.157.19.3.089a9.022,9.022,0,0,0,.775-.561,1.985,1.985,0,0,1,1.611-.556c.4.047.484-.136.535-.485.234-1.592.5-3.179.744-4.77.037-.246.132-.314.368-.31.716.013,1.431,0,2.147.006a.987.987,0,0,1,.931.912q.231,4.536.463,9.072c0,.051.01.1.021.207a2.167,2.167,0,0,0,.553-.873.553.553,0,0,1,.6-.39c1.43-.047,2.861-.1,4.29-.179.363-.02.478.06.475.445-.013,1.776.021,3.552.01,5.328,0,.379.084.519.484.493.531-.034.525-.006.553.523q.352,6.775.71,13.55C36.143,29.447,36.158,29.548,36.168,29.65Zm-33.9-7.28.121.055c.314-.4.634-.786.941-1.187a.585.585,0,0,1,.481-.254c2.144-.091,4.289-.172,6.431-.3.611-.038,1.068.061,1.338.652A.419.419,0,0,0,12,21.6q2.281-.041,4.561-.061c.208,0,.291-.079.308-.29.068-.853.2-1.7.217-2.557A2.984,2.984,0,0,1,18.6,16.071c.141-.088.283-.175.415-.275a1.446,1.446,0,0,0,.713-1.364c-.111-1.4-.128-2.807-.191-4.21-.058-1.289-.137-2.576-.182-3.866-.011-.323-.136-.379-.429-.417a2.627,2.627,0,0,0-2.172.739,12.616,12.616,0,0,1-2,1.661,7.545,7.545,0,0,0-2.942,3.2.783.783,0,0,1-.895.51,1.327,1.327,0,0,0-1.319.484,1.647,1.647,0,0,1-1.78.5,5.344,5.344,0,0,0-.636-.139,1.829,1.829,0,0,1-1.606-1.237.529.529,0,0,0-.4-.377,1.651,1.651,0,0,1-.99-.677c-.143-.18-.281-.364-.428-.54-.074-.088-.169-.182-.292-.148-.144.039-.11.187-.12.294q-.148,1.583-.288,3.166-.3,3.319-.589,6.639C2.4,20.8,2.336,21.584,2.269,22.37ZM34.045,12.316h-.011c0-.869-.009-1.738.005-2.606,0-.27-.083-.352-.351-.338-1.148.061-2.3.138-3.446.139-.57,0-.962.116-1.173.695a2.345,2.345,0,0,1-.639.854,1.086,1.086,0,0,1-.614.371,1.273,1.273,0,0,0-1.076.858,2.467,2.467,0,0,1-1.578,1.3,17.174,17.174,0,0,1-3.678.72,1.3,1.3,0,0,0-.975.446A10.008,10.008,0,0,1,18.4,16.685a1.934,1.934,0,0,0-.89,1.46c-.1,1.043-.185,2.086-.288,3.129-.02.206.04.274.243.269a13.387,13.387,0,0,0,1.455-.031,1,1,0,0,1,1.266.754c.111.38.4.34.7.34s.281-.237.355-.409c.055-.129.1-.263.158-.391.419-.92.763-1.11,1.776-1,.739.083,1.448.309,2.178.435a3.985,3.985,0,0,0,2.41-.127,14.446,14.446,0,0,0,2.874-1.674,2.557,2.557,0,0,0,.673-.775,16.21,16.21,0,0,0,1.061-2.459c.338-.927.338-.939,1.319-.943.3,0,.363-.111.358-.383C34.036,14.028,34.045,13.172,34.045,12.316ZM20.1,14.589c.36-.24.6-.568,1.016-.594a13.722,13.722,0,0,0,1.783-.231,16.338,16.338,0,0,0,2.447-.623,1.728,1.728,0,0,0,1.114-1.492c-.1-1.028-.115-2.063-.17-3.1-.032-.586-.081-1.171-.107-1.756-.011-.252-.122-.292-.344-.241a.857.857,0,0,0-.723.645A9.51,9.51,0,0,1,24.474,9a.867.867,0,0,1-.81.541q-.727.012-1.455-.006a1.482,1.482,0,0,1-1.436-1.012c-.1-.237-.2-.472-.276-.714-.144-.436-.269-.879-.414-1.315-.05-.151-.115-.381-.3-.336-.157.039-.073.269-.067.411q.105,2.486.225,4.971C19.99,12.534,20.047,13.527,20.1,14.589Zm-8.8-2.977a2.25,2.25,0,0,0,.139-.192,8.281,8.281,0,0,1,3.21-3.462,2.6,2.6,0,0,0,.673-.5c.067-.074.161-.138.049-.253-.318-.325-.6-.653-1.154-.582a1.133,1.133,0,0,1-1.1-.63,8.184,8.184,0,0,1-.655-1.507,1.179,1.179,0,0,0-.767-.788.569.569,0,0,1-.415-.688,1.325,1.325,0,0,0-.644-1.366c-.151-.108-.324-.209-.495-.105-.192.116-.091.319-.069.489a4.2,4.2,0,0,0,1.054,2.051,1.317,1.317,0,0,1,.293.877c0,1.124-.12,2.243-.085,3.368.02.638.02,1.278-.006,1.916A6.809,6.809,0,0,0,11.306,11.612Zm15.5-.167a2.117,2.117,0,0,1,.9-.349.437.437,0,0,0,.4-.532c-.109-1.809-.188-3.619-.281-5.428q-.1-1.969-.212-3.937c-.023-.411-.286-.55-.857-.588-.417-.028-.506.143-.537.516C26.1,2.55,25.97,3.973,25.8,5.391c-.049.4.043.606.432.667.241.038.314.162.323.411.035,1.058.1,2.116.153,3.173C26.736,10.225,26.773,10.806,26.81,11.444ZM10.895,8.257h.069c0-.4-.01-.791,0-1.186.009-.272-.117-.358-.37-.354a.8.8,0,0,0-.886.713c-.1.434-.177.874-.286,1.305a.668.668,0,0,1-.561.562,1,1,0,0,0-.79.587c-.3.532-.617,1.057-.9,1.6-.157.3-.613.623-.482.83.141.222.642.214.984.311a1.6,1.6,0,0,0,1.829-.5,1.03,1.03,0,0,1,1.025-.437c.287.047.373-.1.37-.375C10.888,10.3,10.895,9.276,10.895,8.257ZM25.456,6.231a21.006,21.006,0,0,0-2.669-.021c-.553.044-.891.466-1.3.759-.806.586-.793.6-.325,1.52a1.065,1.065,0,0,0,.842.64,10.059,10.059,0,0,0,1.716.024.5.5,0,0,0,.422-.342,8.081,8.081,0,0,0,.531-1.431A1.548,1.548,0,0,1,25.456,6.231ZM9.688,1.646l-.127.017q-.309,3.511-.618,7.023L9.05,8.7a10.929,10.929,0,0,0,.355-1.516.957.957,0,0,1,.915-.783,1.99,1.99,0,0,1,.382-.011c.231.022.324-.07.321-.3-.006-.434,0-.868.012-1.3A.582.582,0,0,0,10.9,4.4,4.193,4.193,0,0,1,9.688,1.646ZM24.763,5.8c.241-.063.65.2.7-.381.11-1.384.263-2.765.4-4.148.064-.663.062-.653-.634-.651-.254,0-.351.08-.39.339-.21,1.4-.443,2.794-.664,4.191C24.066,5.8,24.071,5.8,24.763,5.8Z" transform="translate(-0.237 -0.206)" fill="none" stroke="#033726" stroke-miterlimit="10" stroke-width="0.5"/>
      <path id="Path_85087" data-name="Path 85087" d="M2.492,164.052l.083.008-.083-.008" transform="translate(-2.045 -134.604)" fill="#8e5f33"/>
      <path id="Path_85088" data-name="Path 85088" d="M108.784,41.566c-.057-1.061-.114-2.054-.161-3.047q-.119-2.485-.225-4.971c-.006-.142-.089-.372.067-.411.182-.045.247.185.3.336.146.436.27.879.414,1.315.08.242.181.477.276.714a1.482,1.482,0,0,0,1.436,1.012q.728.017,1.455.006a.867.867,0,0,0,.81-.541,9.5,9.5,0,0,0,.646-1.8.857.857,0,0,1,.723-.645c.221-.052.332-.012.344.241.027.586.076,1.171.108,1.756.056,1.032.072,2.068.17,3.1a1.728,1.728,0,0,1-1.114,1.492,16.346,16.346,0,0,1-2.447.623,13.724,13.724,0,0,1-1.783.231c-.416.025-.656.354-1.016.594" transform="translate(-88.917 -27.184)" fill="#b7a99a"/>
      <path id="Path_85089" data-name="Path 85089" d="M55.842,17.28a6.785,6.785,0,0,1,.03-1.375c.026-.638.026-1.278.006-1.916-.035-1.125.087-2.244.085-3.368a1.317,1.317,0,0,0-.294-.877,4.2,4.2,0,0,1-1.054-2.051c-.022-.17-.123-.374.069-.49.171-.1.344,0,.495.105a1.325,1.325,0,0,1,.644,1.366.568.568,0,0,0,.415.688,1.18,1.18,0,0,1,.767.788,8.169,8.169,0,0,0,.655,1.507,1.132,1.132,0,0,0,1.1.63c.558-.071.836.257,1.154.583.113.115.018.179-.048.253a2.6,2.6,0,0,1-.673.5,8.281,8.281,0,0,0-3.21,3.462,2.339,2.339,0,0,1-.139.192" transform="translate(-44.774 -5.875)" fill="#958374"/>
      <path id="Path_85090" data-name="Path 85090" d="M40.056,37.811c0,1.019-.007,2.039,0,3.058,0,.276-.083.422-.37.375a1.03,1.03,0,0,0-1.025.437,1.6,1.6,0,0,1-1.829.5c-.342-.1-.843-.089-.984-.311-.131-.206.325-.529.482-.83.283-.542.6-1.067.9-1.6a1,1,0,0,1,.79-.586.669.669,0,0,0,.561-.562c.109-.432.185-.872.285-1.305a.8.8,0,0,1,.887-.713c.253,0,.379.082.37.354-.013.395,0,.791,0,1.186h-.069" transform="translate(-29.398 -29.76)" fill="#ffc941"/>
      <path id="Path_85091" data-name="Path 85091" d="M119.406,33.3a1.548,1.548,0,0,0-.778,1.149,8.067,8.067,0,0,1-.531,1.431.5.5,0,0,1-.422.342,10.041,10.041,0,0,1-1.716-.024,1.065,1.065,0,0,1-.842-.64c-.468-.922-.481-.934.325-1.52.4-.294.742-.715,1.3-.759a21,21,0,0,1,2.669.021" transform="translate(-94.188 -27.279)" fill="#958374"/>
      <path id="Path_85092" data-name="Path 85092" d="M49.243,8.025a4.192,4.192,0,0,0,1.211,2.751.582.582,0,0,1,.137.387c-.009.434-.018.869-.013,1.3,0,.233-.09.324-.321.3a1.991,1.991,0,0,0-.383.011.957.957,0,0,0-.915.783,10.894,10.894,0,0,1-.355,1.516l-.107-.012.618-7.023.127-.017" transform="translate(-39.792 -6.584)" fill="#ffc941"/>
      <path id="Path_85093" data-name="Path 85093" d="M133.691,7.507c-.692-.006-.7-.007-.6-.65.221-1.4.454-2.793.664-4.191.039-.259.136-.338.39-.339.7,0,.7-.012.634.651-.133,1.383-.287,2.764-.4,4.148-.046.583-.455.318-.7.381" transform="translate(-109.165 -1.909)" fill="#b7a99a"/>
      <path id="Path_85094" data-name="Path 85094" d="M36.9,89.431c-.059-1.11-.134-2.218-.184-3.328-.012-.27-.111-.348-.369-.338-.472.017-.946.022-1.418,0-.273-.014-.379.1-.455.341A18.891,18.891,0,0,1,33.6,88.35a4.043,4.043,0,0,1-1.38,1.75c-.637.43-1.306.8-1.972,1.179a4.28,4.28,0,0,1-2.989.53c-.3-.055-.6-.117-.9-.176a15.233,15.233,0,0,0-1.883-.344.911.911,0,0,0-.944.512,3.952,3.952,0,0,0-.414,1.027c-.043.2-.135.259-.332.287-.645.092-1.188.036-1.389-.722-.077-.291-.293-.356-.589-.351-2.248.035-4.5.029-6.745.09a1.185,1.185,0,0,1-1.3-.666.481.481,0,0,0-.533-.27q-3.33.168-6.661.312a.481.481,0,0,0-.386.2q-.947,1.181-1.9,2.354a.9.9,0,0,0-.184.453c-.2,1.288-.4,2.574-.6,3.862-.073.474-.139,1.153-.208,1.628l.037-.194c.028,0,.055.208.083.211.141,0,.281-.006.422-.006H36.952c.166,0,.332-.01.5-.016-.182-3.456-.363-7.116-.548-10.572m-27.248,6.6c-.343-.011-.687-.012-1.03,0-.257.008-.245-.155-.243-.327s-.023-.344.238-.331c.2.01.407,0,.61,0,.14,0,.281.011.42,0,.264-.027.39.039.387.347s-.152.321-.381.314m4.385,0c-.332-.011-.665-.015-1,0-.279.013-.264-.159-.267-.348s.016-.33.261-.313c.191.014.383,0,.574,0,.141,0,.281.005.421,0,.235-.012.41-.01.41.326s-.16.342-.4.334m4.529,0c-.191-.013-.383,0-.574,0-.14,0-.282-.01-.421,0-.259.023-.392-.032-.392-.346s.158-.32.384-.314c.332.008.664.014,1,0,.277-.013.264.157.267.346s-.015.33-.259.314m4.427,0c-.2-.011-.408,0-.613,0a4.164,4.164,0,0,0-.421,0c-.267.028-.387-.043-.386-.35s.162-.316.386-.311c.344.008.69.012,1.034,0,.261-.009.243.159.243.329s.018.344-.243.33" transform="translate(-1.876 -70.367)" fill="#958374"/>
      <path id="Path_85095" data-name="Path 85095" d="M12.38,47.132a.584.584,0,0,1,.481-.254c2.144-.091,4.289-.172,6.431-.3.611-.038,1.068.061,1.338.652a.42.42,0,0,0,.42.271q2.28-.041,4.561-.061c.208,0,.291-.079.308-.29.068-.853.2-1.7.217-2.557a2.984,2.984,0,0,1,1.515-2.625c.141-.089.283-.175.415-.275a1.446,1.446,0,0,0,.713-1.364c-.111-1.4-.128-2.807-.191-4.21-.058-1.289-.137-2.576-.182-3.866-.011-.323-.136-.379-.429-.417a2.627,2.627,0,0,0-2.172.739,12.632,12.632,0,0,1-2,1.661,7.544,7.544,0,0,0-2.943,3.2.783.783,0,0,1-.894.51,1.327,1.327,0,0,0-1.319.484,1.647,1.647,0,0,1-1.78.5,5.343,5.343,0,0,0-.636-.139,1.829,1.829,0,0,1-1.606-1.237.529.529,0,0,0-.4-.377,1.651,1.651,0,0,1-.99-.677c-.143-.18-.281-.364-.428-.54-.074-.088-.169-.182-.292-.148-.144.039-.11.187-.12.294q-.148,1.583-.289,3.166-.3,3.32-.589,6.64c-.069.786-.134,1.573-.2,2.36l.121.055c.314-.395.634-.786.941-1.187m11.053-4.986c-.317.011-.374-.117-.385-.4-.013-.339.127-.4.426-.4s.4.074.4.388c0,.373-.151.4-.441.411m3.094-4.82c.152-.01.215.208.245.343.044.2-.139.135-.235.137s-.28.057-.27-.108c.009-.148.1-.363.26-.373m-.485-.781c.163,0,.253.221.265.368.014.164-.163.109-.262.1s-.272.066-.242-.126c.022-.137.1-.35.239-.347m-.451.775c.17,0,.254.221.266.372.014.167-.164.116-.265.113s-.274.056-.244-.134c.022-.141.1-.353.243-.351m-.513,6.172c.329-.008.4.115.4.419s-.094.414-.411.411-.382-.088-.383-.42.086-.4.392-.411M23.615,37.3c.156-.006.228.227.255.374.033.185-.148.126-.244.129s-.277.053-.259-.117c.016-.152.1-.381.249-.386m-.483-.748c.174-.011.209.244.329.442h-.592c.059-.195.117-.433.263-.442m-.444.75c.155-.009.226.225.26.369.045.193-.141.127-.234.132s-.276.051-.264-.111.1-.381.239-.39M21.9,43.509c.37-.015.374.129.386.409.015.329-.116.395-.42.407-.367.014-.4-.146-.412-.451-.012-.36.154-.353.445-.364m-1.656-2.163c.278.012.382.043.382.383s-.067.42-.386.416c-.286,0-.4-.068-.4-.383s.076-.43.405-.416m-1.565,2.147c.38-.033.387.164.4.454.02.37-.171.346-.455.359-.391.017-.374-.153-.393-.439-.025-.374.182-.351.445-.374m-1.647-2.145c.292-.006.405.071.4.384s-.059.4-.409.4c-.369,0-.38-.122-.4-.407-.018-.333.133-.368.406-.373M15.469,43.51c.364-.007.381.116.4.4.024.371-.149.4-.451.41-.333.009-.392-.121-.4-.422-.011-.362.133-.385.452-.391m-1.651-2.142c.367-.088.407.107.416.4.01.316-.118.377-.4.38-.306,0-.427-.071-.421-.4s.1-.46.409-.376" transform="translate(-9.286 -26.099)" fill="#b7a99a"/>
      <path id="Path_85096" data-name="Path 85096" d="M95.782,58.368a1.934,1.934,0,0,0-.89,1.459c-.1,1.043-.185,2.087-.288,3.129-.02.206.04.274.243.269a13.341,13.341,0,0,0,1.455-.031,1,1,0,0,1,1.266.755c.111.38.4.34.7.34s.281-.237.355-.409c.055-.129.1-.263.158-.39.419-.92.763-1.11,1.776-1,.739.083,1.448.309,2.178.435a3.981,3.981,0,0,0,2.41-.127,14.423,14.423,0,0,0,2.874-1.674,2.557,2.557,0,0,0,.673-.775,16.2,16.2,0,0,0,1.061-2.459c.338-.927.338-.939,1.319-.943.3,0,.363-.111.358-.383-.014-.856-.005-1.712-.005-2.568h-.011c0-.869-.009-1.738.005-2.606,0-.27-.083-.352-.351-.338-1.148.061-2.3.138-3.446.139-.57,0-.962.116-1.173.695a2.345,2.345,0,0,1-.639.854,1.086,1.086,0,0,1-.614.37,1.273,1.273,0,0,0-1.076.858,2.467,2.467,0,0,1-1.577,1.3,17.152,17.152,0,0,1-3.678.72,1.3,1.3,0,0,0-.975.446,10.008,10.008,0,0,1-2.109,1.931m8.583,1.9c-.221,0-.285-.081-.283-.292.009-.74.012-1.48,0-2.22,0-.241.112-.262.3-.267.216-.006.292.07.283.287-.014.369,0,.74,0,1.11s-.011.715,0,1.071c.01.232-.067.313-.3.311m0-3.572c.176-.006.291.287.314.46.028.206-.19.116-.309.122s-.323.08-.3-.107.133-.47.3-.475m-1.358,3.568c-.171,0-.3-.014-.293-.239q.012-1.146,0-2.292c0-.225.125-.233.295-.237.192-.005.28.054.274.259-.01.382,0,.764,0,1.146s-.008.739,0,1.108c.006.21-.091.259-.278.255m0-3.562c.169.007.286.29.3.472s-.189.113-.31.1-.333.086-.311-.12c.019-.175.135-.462.32-.455m-1.369,3.562c-.239,0-.306-.083-.3-.311q.016-1.089,0-2.178c0-.223.084-.278.292-.279s.288.079.281.291c-.013.369,0,.739,0,1.108s-.008.714,0,1.07c.007.2-.042.3-.272.3m-.026-3.557c.2,0,.292.284.313.461s-.165.111-.289.123c-.141.014-.352.083-.325-.14.02-.165.144-.445.3-.444" transform="translate(-77.619 -41.889)" fill="#ffc941"/>
      <path id="Path_85097" data-name="Path 85097" d="M142.768,7.685c.241.038.315.162.323.411.035,1.058.1,2.116.153,3.173.031.582.067,1.163.1,1.8a2.12,2.12,0,0,1,.9-.349.437.437,0,0,0,.4-.532c-.109-1.809-.188-3.619-.281-5.428q-.1-1.969-.212-3.937c-.023-.411-.286-.55-.857-.588-.417-.028-.506.143-.537.516-.119,1.424-.25,2.847-.422,4.265-.049.4.043.606.432.667m.647-3.372a2.309,2.309,0,0,1,.329.422,3.236,3.236,0,0,0-.545,0Zm.018,1.426a1.208,1.208,0,0,1,.327.505H143.2c0-.208.134-.334.234-.505" transform="translate(-116.776 -1.833)" fill="#ffc941"/>
      <path id="Path_85098" data-name="Path 85098" d="M111.886,142.933c.139-.015.281,0,.421,0,.2,0,.409-.009.613,0-.2-.011-.408,0-.613,0-.14,0-.282-.011-.421,0" transform="translate(-91.802 -117.27)" fill="#5a4227"/>
      <path id="Path_85099" data-name="Path 85099" d="M63.165,139.29c-.14.007-.281,0-.421,0-.191,0-.384.011-.574,0,.191.013.383,0,.574,0,.141,0,.281.005.421,0" transform="translate(-51.009 -114.286)" fill="#5a4227"/>
      <path id="Path_85100" data-name="Path 85100" d="M38.589,139.285c-.138.014-.279,0-.42,0-.2,0-.407.008-.61,0,.2.01.407,0,.61,0,.14,0,.281.011.42,0" transform="translate(-30.817 -114.282)" fill="#5a4227"/>
      <path id="Path_85101" data-name="Path 85101" d="M87.438,142.934c.139-.013.281,0,.421,0,.192,0,.384-.01.574,0-.191-.013-.383,0-.574,0-.14,0-.282-.01-.421,0" transform="translate(-71.742 -117.271)" fill="#5a4227"/>
    </g>
  </g>
</svg>
