<svg xmlns="http://www.w3.org/2000/svg" width="61.263" height="56.633" viewBox="0 0 61.263 56.633">
  <g id="density" transform="translate(-1.369 -3.867)">
    <path id="Path_84140" data-name="Path 84140" d="M54,26H10L2,60H62Z" fill="#146048" stroke="#033726" stroke-width="1"/>
    <path id="Path_84141" data-name="Path 84141" d="M37.18,43H6L2,60H62L56.824,38H37.18Z" fill="#d5ead3" stroke="#033726" stroke-width="1"/>
    <g id="Group_184717" data-name="Group 184717">
      <path id="Path_84181" data-name="Path 84181" d="M39,19a2.006,2.006,0,0,0-2-2H34a2.006,2.006,0,0,0-2,2v4a8.979,8.979,0,0,0,7-3.349Z" transform="translate(0.25 -1.038)" fill="#5a806d"/>
      <path id="Path_84182" data-name="Path 84182" d="M30,17H27a2.006,2.006,0,0,0-2,2v.651A8.979,8.979,0,0,0,32,23V19A2.006,2.006,0,0,0,30,17Z" transform="translate(0.25 -1.038)" fill="#95a99b"/>
      <circle id="Ellipse_1648" data-name="Ellipse 1648" cx="2" cy="2" r="2" transform="translate(26.75 11.962)" fill="#95a99b"/>
      <circle id="Ellipse_1649" data-name="Ellipse 1649" cx="2" cy="2" r="2" transform="translate(33.75 11.962)" fill="#5a806d"/>
      <circle id="Ellipse_1650" data-name="Ellipse 1650" cx="1.5" cy="1.5" r="1.5" transform="translate(30.75 8.962)" fill="#64a089"/>
    </g>
    <path id="Path_84142" data-name="Path 84142" d="M27,51h8v9H62L56.824,38H37.18v5H27Z" fill="#65c3a5" stroke="#033726" stroke-width="1"/>
    <path id="Subtraction_17" data-name="Subtraction 17" d="M18998,15402h0c-.941-1.338-1.973-2.675-2.967-3.968l-.043-.056-.008-.009a60.56,60.56,0,0,1-5.482-7.964,19,19,0,0,1-2.5-9.133,11,11,0,1,1,22,0c0,6.315-4.033,11.7-7.934,16.9l-.008.011c-1.092,1.455-2.123,2.83-3.059,4.217Zm0-28a7,7,0,1,0,7,7A7.01,7.01,0,0,0,18998,15374Z" transform="translate(-18966 -15366)" fill="#ffc941"/>
    <g id="Group_184715" data-name="Group 184715">
      <path id="Path_84145" data-name="Path 84145" d="M56,55.25h1.5v1.5H56Z" fill="#64a089"/>
      <path id="Path_84146" data-name="Path 84146" d="M53,51.25h1.5v1.5H53Z" fill="#64a089"/>
      <path id="Path_84147" data-name="Path 84147" d="M49,55.25h1.5v1.5H49Z" fill="#64a089"/>
      <path id="Path_84148" data-name="Path 84148" d="M48,49.25h1.5v1.5H48Z" fill="#64a089"/>
      <path id="Path_84149" data-name="Path 84149" d="M54,46.25h1.5v1.5H54Z" fill="#64a089"/>
      <path id="Path_84150" data-name="Path 84150" d="M44,45.25h1.5v1.5H44Z" fill="#64a089"/>
      <path id="Path_84151" data-name="Path 84151" d="M43,52.25h1.5v1.5H43Z" fill="#64a089"/>
      <path id="Path_84152" data-name="Path 84152" d="M39,47.25h1.5v1.5H39Z" fill="#64a089"/>
      <path id="Path_84153" data-name="Path 84153" d="M50,43.25h1.5v1.5H50Z" fill="#64a089"/>
      <path id="Path_84154" data-name="Path 84154" d="M42,41.25h1.5v1.5H42Z" fill="#64a089"/>
      <path id="Path_84155" data-name="Path 84155" d="M10,46.25h1.5v1.5H10Z" fill="#64a089"/>
      <path id="Path_84156" data-name="Path 84156" d="M14,50.25h1.5v1.5H14Z" fill="#64a089"/>
      <path id="Path_84157" data-name="Path 84157" d="M7,54.25H8.5v1.5H7Z" fill="#64a089"/>
      <path id="Path_84158" data-name="Path 84158" d="M21,53.25h1.5v1.5H21Z" fill="#64a089"/>
      <path id="Path_84159" data-name="Path 84159" d="M28,55.25h1.5v1.5H28Z" fill="#64a089"/>
      <path id="Path_84160" data-name="Path 84160" d="M12,28.25h1.5v1.5H12Z" fill="#64a089"/>
      <path id="Path_84161" data-name="Path 84161" d="M17,30.25h1.5v1.5H17Z" fill="#64a089"/>
      <path id="Path_84162" data-name="Path 84162" d="M14,33.25h1.5v1.5H14Z" fill="#64a089"/>
      <path id="Path_84163" data-name="Path 84163" d="M19,34.25h1.5v1.5H19Z" fill="#64a089"/>
      <path id="Path_84164" data-name="Path 84164" d="M12,37.25h1.5v1.5H12Z" fill="#64a089"/>
      <path id="Path_84165" data-name="Path 84165" d="M49,29.25h1.5v1.5H49Z" fill="#64a089"/>
      <path id="Path_84166" data-name="Path 84166" d="M44,31.25h1.5v1.5H44Z" fill="#64a089"/>
    </g>
  </g>
</svg>
