<svg width="39" height="41" viewBox="0 0 39 41" fill="none" xmlns="http://www.w3.org/2000/svg">
<path fill-rule="evenodd" clip-rule="evenodd" d="M1.47377 0.661377H26.2298C26.4518 0.661377 26.6433 0.739739 26.8002 0.895089L31.3345 5.38649C31.4913 5.54184 31.5704 5.73156 31.5704 5.95152V39.5373C31.5704 39.9773 31.2082 40.3375 30.7626 40.3375H1.47377C1.02965 40.3375 0.666016 39.9786 0.666016 39.5373V1.4615C0.666016 1.02157 1.02826 0.661377 1.47377 0.661377Z" fill="#E9F3E8"/>
<path fill-rule="evenodd" clip-rule="evenodd" d="M26.564 0.731445C26.65 0.769939 26.7291 0.82493 26.7999 0.896419L31.3342 5.38782C31.4063 5.45931 31.4619 5.53767 31.5007 5.62153H26.9678C26.7458 5.62153 26.564 5.44143 26.564 5.22147V0.731445Z" fill="#65C3A5"/>
<path d="M31.572 40.3389C35.3057 40.3389 38.3325 37.3407 38.3325 33.6423C38.3325 29.9439 35.3057 26.9458 31.572 26.9458C27.8383 26.9458 24.8115 29.9439 24.8115 33.6423C24.8115 37.3407 27.8383 40.3389 31.572 40.3389Z" fill="#FFC941"/>
<path fill-rule="evenodd" clip-rule="evenodd" d="M37.6648 33.6422C37.6648 36.9705 34.9321 39.6775 31.572 39.6775C28.2119 39.6775 25.4791 36.9705 25.4791 33.6422C25.4791 30.3139 28.2132 27.6069 31.572 27.6069C34.9307 27.6069 37.6648 30.3139 37.6648 33.6422ZM27.3291 39.6761H1.47395C1.399 39.6761 1.33516 39.6129 1.33516 39.5372V1.46139C1.33516 1.38578 1.399 1.32254 1.47395 1.32254H25.8968V5.22141C25.8968 5.80706 26.377 6.28136 26.9683 6.28136H30.9044V26.3132C28.606 26.5167 26.6061 27.7623 25.3889 29.5673H6.63833C6.26915 29.5673 5.97075 29.8629 5.97075 30.2286C5.97075 30.5943 6.26915 30.8899 6.63833 30.8899H24.6824C24.3354 31.7409 24.1439 32.6688 24.1439 33.6394C24.1439 33.935 24.162 34.2278 24.1967 34.5138H6.51203C6.14285 34.5138 5.84445 34.8107 5.84445 35.1751C5.84445 35.5394 6.14285 35.8363 6.51203 35.8363H24.4826C24.9794 37.4063 25.9954 38.7522 27.3278 39.6747L27.3291 39.6761ZM27.2334 2.25876V4.9602H29.9606L27.2334 2.25876ZM39 33.6422C39 37.6992 35.6677 41 31.572 41C31.3832 41 31.1958 40.9931 31.0099 40.9794C30.9294 40.9931 30.8475 41 30.7656 41H1.47395C0.66064 41 0 40.3442 0 39.5386V1.46139C0 0.655769 0.662028 0 1.47395 0H26.2299C26.6296 0 26.9905 0.148476 27.2736 0.428931L31.8079 4.91895C32.0896 5.19941 32.2395 5.55685 32.2395 5.95279V26.3146C36.0243 26.6501 39 29.8079 39 33.6422ZM6.57587 24.6223C6.20669 24.6223 5.90829 24.9178 5.90829 25.2835C5.90829 25.6492 6.20669 25.9448 6.57587 25.9448H25.79C26.1591 25.9448 26.4575 25.6492 26.4575 25.2835C26.4575 24.9178 26.1591 24.6223 25.79 24.6223H6.57587Z" fill="#033726"/>
<path fill-rule="evenodd" clip-rule="evenodd" d="M18.2564 20.6243H6.30243L6.50784 20.7838C6.67439 20.913 6.70354 21.1509 6.57446 21.3158C6.44539 21.4808 6.20389 21.5097 6.03735 21.3818L4.96033 20.5487C4.93396 20.5295 4.91037 20.5061 4.88816 20.4786C4.7577 20.3136 4.78824 20.0758 4.95478 19.9466L6.03735 19.1093C6.20389 18.9801 6.444 19.0103 6.57446 19.1753C6.70493 19.3403 6.67439 19.5781 6.50784 19.7074L6.30243 19.8668H18.2564L18.051 19.7074C17.8845 19.5781 17.8553 19.3403 17.9844 19.1753C18.1135 19.0103 18.355 18.9815 18.5215 19.1093L19.6041 19.9466C19.7706 20.0758 19.7998 20.3136 19.6707 20.4786C19.6499 20.5061 19.6249 20.5281 19.5985 20.5487L18.5215 21.3818C18.355 21.5111 18.1149 21.4808 17.9844 21.3158C17.8539 21.1509 17.8845 20.913 18.051 20.7838L18.2564 20.6243Z" fill="#A79BA7"/>
<path fill-rule="evenodd" clip-rule="evenodd" d="M21.0167 17.1295V6.23849L20.8557 6.44196C20.7252 6.60693 20.4851 6.6358 20.3186 6.50795C20.152 6.37872 20.1229 6.14088 20.2519 5.97591L21.093 4.90908C21.1124 4.88296 21.136 4.85959 21.1638 4.83759C21.3303 4.70836 21.5704 4.73861 21.7009 4.90358L22.5461 5.97591C22.6766 6.14088 22.6461 6.37872 22.4795 6.50795C22.313 6.63718 22.0729 6.60693 21.9424 6.44196L21.7814 6.23849V17.1295L21.9424 16.926C22.0729 16.761 22.313 16.7322 22.4795 16.86C22.6461 16.9879 22.6752 17.2271 22.5461 17.3921L21.7009 18.4644C21.5704 18.6294 21.3303 18.6582 21.1638 18.5304C21.136 18.5098 21.1138 18.485 21.093 18.4589L20.2519 17.3921C20.1215 17.2271 20.152 16.9893 20.3186 16.86C20.4851 16.7308 20.7252 16.761 20.8557 16.926L21.0167 17.1295Z" fill="#A79BA7"/>
<path fill-rule="evenodd" clip-rule="evenodd" d="M5.66967 4.73184H18.319C18.5827 4.73184 18.7992 4.94631 18.7992 5.20752V17.7579C18.7992 18.0191 18.5827 18.2335 18.319 18.2335H5.66967C5.40597 18.2335 5.18945 18.0191 5.18945 17.7579V5.20614C5.18945 4.94493 5.40597 4.73047 5.66967 4.73047V4.73184Z" fill="#65C3A5"/>
<path fill-rule="evenodd" clip-rule="evenodd" d="M5.18945 5.20614V9.49682L7.11031 7.59413L10.0013 4.73047H5.66967C5.40597 4.73047 5.18945 4.94493 5.18945 5.20614Z" fill="#0E6847"/>
<path fill-rule="evenodd" clip-rule="evenodd" d="M18.7977 10.9843L13.9248 15.8111L15.9303 18.2307H18.3175C18.5812 18.2307 18.7977 18.0163 18.7977 17.7551V10.9829V10.9843Z" fill="#033726"/>
<path fill-rule="evenodd" clip-rule="evenodd" d="M9.45863 4.73218H10.544L7.62661 7.62196L13.9513 15.2492L18.7978 10.4485V11.5236L14.4412 15.839L16.4259 18.2325H15.4363L7.08394 8.1595L5.18945 10.0361V8.96099L9.45863 4.73218Z" fill="white"/>
<path d="M33.8688 31.2486L30.8598 34.1659L29.78 33.1059C29.4303 32.7636 28.8682 32.7663 28.5226 33.1114C28.177 33.4578 28.1798 34.0146 28.5282 34.357L30.2311 36.0273C30.5767 36.3669 31.1319 36.3683 31.4802 36.0301L35.1151 32.5051C35.4649 32.1642 35.4704 31.606 35.1262 31.2596C34.782 30.9131 34.2213 30.9076 33.8702 31.2472L33.8688 31.2486Z" fill="#033726"/>
</svg>
