<svg width="44" height="35" viewBox="0 0 44 35" fill="none" xmlns="http://www.w3.org/2000/svg">
<g clip-path="url(#clip0_2549_9465)">
<path fill-rule="evenodd" clip-rule="evenodd" d="M0.664062 14.9819C7.66654 11.2799 15.776 10.2952 21.9991 12.6716C28.2237 15.0481 36.3332 14.0634 43.3357 10.3643V29.73C36.3332 33.4321 28.2237 34.4182 21.9991 32.0374C15.776 29.6609 7.66804 30.6456 0.664062 34.3477V14.9819Z" fill="#E9F3E8"/>
<path fill-rule="evenodd" clip-rule="evenodd" d="M43.3342 15.9692V29.7297C36.3317 33.4318 28.2222 34.4179 21.9977 32.04C15.7746 29.6621 7.66657 30.6468 0.662598 34.3488V20.5884C7.66508 16.8863 15.7746 15.9016 21.9977 18.2781C28.2222 20.656 36.3317 19.6684 43.3342 15.9692Z" fill="#E9F3E8"/>
<path fill-rule="evenodd" clip-rule="evenodd" d="M28.746 13.9517C33.509 14.0884 38.667 12.8289 43.3358 10.3628V23.6089C37.4897 24.8904 36.821 20.9811 33.331 23.503C29.0706 26.579 25.437 23.675 28.0115 21.3867C30.945 18.7854 27.615 17.2217 28.746 13.9502V13.9517Z" fill="#65C3A5"/>
<path fill-rule="evenodd" clip-rule="evenodd" d="M16.4612 30.8261C11.3705 30.4175 5.72781 31.6711 0.664062 34.3488V19.323C2.5265 17.4213 5.58121 16.8378 7.54986 18.7881C8.82889 20.0505 9.25972 22.3255 12.8769 22.3667C17.7133 22.4225 19.4844 27.559 17.2585 29.9384C17.0012 30.2117 16.7349 30.513 16.4612 30.8275V30.8261Z" fill="#65C3A5"/>
<path d="M26.0114 13.0535C31.7213 13.9397 37.9325 12.4774 43.0217 9.78939C43.4659 9.55424 43.997 9.87757 43.997 10.3626H44V29.7298C44 29.9928 43.8384 30.2236 43.6081 30.3235C40.0118 32.2194 36.1299 33.4142 32.3481 33.8228C28.6023 34.2269 24.9477 33.8625 21.7599 32.6456C18.6454 31.4566 15.1449 31.1877 11.7955 31.5521C8.16632 31.9431 4.43545 33.0938 0.976847 34.9221C0.532554 35.1572 0 34.8354 0 34.3489V14.9817C0 14.7186 0.161561 14.4879 0.39044 14.388C3.70394 12.642 7.25829 11.4913 10.7528 11.0004C13.6803 10.5918 16.566 10.6433 19.2392 11.1959M21.4428 13.2563C19.3933 12.3877 16.7964 12.0336 14.5629 12.0321C13.3737 12.0321 12.1605 12.1188 10.9398 12.2908C7.70408 12.7419 4.41301 13.7913 1.3269 15.3726V17.9416C3.40475 16.5939 6.13783 16.4705 8.01972 18.3296C8.37426 18.6808 8.654 19.0762 8.94421 19.4862H8.9472C9.68619 20.5341 10.503 21.6878 12.883 21.7142C18.2564 21.7745 20.3283 27.5003 17.8017 30.3147C19.3499 30.5293 20.8384 30.8981 22.2371 31.4316C25.2185 32.5706 28.6592 32.9101 32.2015 32.5265C35.7095 32.1459 39.3117 31.0583 42.6716 29.3374V24.3949C40.1151 24.7932 38.5802 24.2156 37.3117 23.735C36.1209 23.2882 35.2174 22.9473 33.7199 24.0289C31.7124 25.481 29.7871 25.7132 28.4572 25.3105C26.3958 24.6815 25.7211 22.549 27.5671 20.9089C29.8709 18.8675 27.3951 17.486 27.9022 14.5658C27.1917 14.5202 23.4039 14.0896 21.4413 13.2578L21.4428 13.2563ZM16.1786 30.153L16.7724 29.4946C18.6139 27.5238 17.1225 23.0619 12.8725 23.0149C9.80288 22.9811 8.78414 21.5379 7.85666 20.2313L7.85965 20.2284C7.56645 19.8242 7.35103 19.4994 7.02193 19.1879C5.35994 17.6197 2.89015 18.1444 1.32839 19.595V33.279C5.93438 31.0363 11.1821 29.8224 16.1786 30.153ZM29.2456 14.6113C29.0302 15.6225 29.2964 16.4749 29.5448 17.2597C30.0205 18.7837 30.4363 20.1108 28.4557 21.87C27.4056 22.8032 27.7377 23.7262 28.8477 24.0642C29.8305 24.3655 31.3115 24.1524 32.939 22.9796C35.0169 21.4776 36.2107 21.9259 37.7829 22.5181C38.9363 22.9546 40.3335 23.4793 42.6716 23.0781V11.4325C38.4979 13.4635 33.8097 14.651 29.2456 14.6113Z" fill="#083F2F"/>
<path d="M26.0848 11.7453V8.98089L23.6928 7.86836L23.2964 6.92924L24.1865 4.48078L22.1954 2.52466L19.7016 3.40058L18.7487 3.01259L17.6163 0.661133H14.8025L13.67 3.01259L12.7171 3.40058L10.2249 2.52466L8.23379 4.48078L9.12388 6.92924L8.72745 7.86836L6.33545 8.98089V11.7453L8.72745 12.8579L9.12388 13.797L8.23379 16.244L10.2249 18.2001L12.7171 17.3256L13.673 17.7151L14.8054 20.0651H17.6193L18.7517 17.7151L19.7076 17.3256L22.1984 18.2001L24.1895 16.244L23.2994 13.7955L23.6958 12.8564L26.0878 11.7439L26.0848 11.7453ZM16.2101 13.9998C14.1652 13.9998 12.5077 12.3714 12.5077 10.3624C12.5077 8.35334 14.1652 6.72496 16.2101 6.72496C18.2551 6.72496 19.9126 8.35334 19.9126 10.3624C19.9126 12.3714 18.2551 13.9998 16.2101 13.9998Z" fill="#FFCB5A" stroke="#083F2F" stroke-miterlimit="10"/>
<path d="M16.2098 5.68604C13.5814 5.68604 11.4497 7.77883 11.4497 10.3625C11.4497 12.9462 13.5799 15.039 16.2098 15.039C18.8396 15.039 20.9698 12.9462 20.9698 10.3625C20.9669 7.78177 18.8381 5.68897 16.2098 5.68604Z" fill="#FBA61F"/>
</g>
<defs>
<clipPath id="clip0_2549_9465">
<rect width="44" height="35" fill="white"/>
</clipPath>
</defs>
</svg>
