<svg xmlns="http://www.w3.org/2000/svg" width="55.751" height="57.437" viewBox="0 0 55.751 57.437">
  <g id="District-Icon" transform="translate(0.25 0.25)">
    <g id="Group_184433" data-name="Group 184433" transform="translate(0.309 5.727)">
      <rect id="Rectangle_155717" data-name="Rectangle 155717" width="10.18" height="22.268" transform="translate(38.174 26.722)" fill="#e8ded3"/>
      <path id="Path_82105" data-name="Path 82105" d="M328.2,336.819s-1.5-2.355-2.678-2.463-4.071-.644-4.071-.644-1.928-3.748-4.071-3.963a6.937,6.937,0,0,0-4.178,1.285l-1.286,2.035s-1.821-2.571-3.107-2.035a5.334,5.334,0,0,0-2.143,2.035s-2.143-3.32-5.142-3.32-4.5,3.963-4.5,3.963l-1.821-.642s-2.357-2.357-4.392-1.071-1.714,4.179-1.714,4.179Z" transform="translate(-275.669 -286.637)" fill="#63c3a5"/>
      <ellipse id="Ellipse_1556" data-name="Ellipse 1556" cx="5.408" cy="6.362" rx="5.408" ry="6.362" transform="translate(1.909 20.996)" fill="#63c3a5"/>
      <ellipse id="Ellipse_1557" data-name="Ellipse 1557" cx="3.817" cy="4.772" rx="3.817" ry="4.772" transform="translate(0 35.63)" fill="#63c3a5"/>
      <path id="Path_82107" data-name="Path 82107" d="M-996.972-18459l-17.269,3.246v39.971a6.132,6.132,0,0,1,3.064,0,12.2,12.2,0,0,1,4.039,2.365,5.053,5.053,0,0,1,2.507-.836c.975.141,0-22.145,0-22.145h2.646v-3.48h5.014Z" transform="translate(1038.265 18459)" fill="#e8ded3"/>
      <path id="Path_82106" data-name="Path 82106" d="M287.135,299.789l3.447,2.035s2.04,3.322,1.178,5.893-4.625,4.392-4.625,4.392l-2.874-1.178-.536-1.822L286.51,306Z" transform="translate(-273.72 -275.746)" fill="#63c3a5"/>
    </g>
    <g id="Group_184419" data-name="Group 184419" transform="translate(26.64 11.016)">
      <g id="Group_184418" data-name="Group 184418">
        <path id="Path_81983" data-name="Path 81983" d="M36.524,20.365H31V13h5.524Z" transform="translate(-31 -13)" fill="#958374"/>
      </g>
    </g>
    <g id="Group_184421" data-name="Group 184421" transform="translate(26.64 20.195)">
      <g id="Group_184420" data-name="Group 184420">
        <path id="Path_81984" data-name="Path 81984" d="M36.524,30.365H31V23h5.524Z" transform="translate(-31 -23)" fill="#958374"/>
      </g>
    </g>
    <g id="Group_184423" data-name="Group 184423" transform="translate(26.64 29.377)">
      <g id="Group_184422" data-name="Group 184422">
        <path id="Path_81985" data-name="Path 81985" d="M36.524,40.365H31V33h5.524Z" transform="translate(-31 -33)" fill="#958374"/>
      </g>
    </g>
    <g id="Group_184425" data-name="Group 184425" transform="translate(26.64 38.557)">
      <g id="Group_184424" data-name="Group 184424">
        <path id="Path_81986" data-name="Path 81986" d="M36.524,50.365H31V43h5.524Z" transform="translate(-31 -43)" fill="#958374"/>
      </g>
    </g>
    <g id="Group_184427" data-name="Group 184427" transform="translate(33.744 11.016)">
      <g id="Group_184426" data-name="Group 184426">
        <path id="Path_81987" data-name="Path 81987" d="M44.524,20.365H39V13h5.524Z" transform="translate(-39 -13)" fill="#958374"/>
      </g>
    </g>
    <g id="Group_184417" data-name="Group 184417" transform="translate(12.397 16.518)">
      <path id="Path_81982" data-name="Path 81982" d="M15,19v9.206h3.682v3.682h5.524V19Z" transform="translate(-15 -19)" fill="#ffc941"/>
    </g>
    <g id="Group_184428" data-name="Group 184428">
      <path id="Path_81988" data-name="Path 81988" d="M54.469,56.1V28.55H52.686V24.877H50.9v-5.51H49.122V15.694H47.34v3.673H45.557v5.51H43.775V4.471l-5.347,1.1V2.837H36.646v3.1l-1.782.367V1H33.081V6.675L31.3,7.043V2.837H29.517V7.411l-5.347,1.1v5.344H8.129v1.837H9.911V26.8a5.31,5.31,0,0,0-.891-.084c-3.439,0-6.238,3.3-6.238,7.347,0,3.694,2.329,6.751,5.347,7.263v1.2a3.912,3.912,0,0,0-2.673-1.113C3,41.407,1,43.878,1,46.917c0,2.661,1.534,4.887,3.565,5.4V56.1H1v1.837H56.251V56.1Zm-39.21-.918a2.718,2.718,0,0,1,2.673-2.755,2.67,2.67,0,0,1,2.33,1.4l.276.5.958-.07a2.564,2.564,0,0,1,.845.159l.866.3.27-.9a4.408,4.408,0,0,1,8.159-.857l.557,1.04.836-.817a2.653,2.653,0,0,1,3.667,0l.836.817.557-1.04a4.405,4.405,0,0,1,8.139.8l.25.793.79-.18A4.375,4.375,0,0,1,51.777,56.1H15.431a2.825,2.825,0,0,1-.173-.918Zm37.428-24.8v24A6.3,6.3,0,0,0,50.9,53.067V32.224H38.428v17.7A6.331,6.331,0,0,0,37.09,51.21a4.046,4.046,0,0,0-.444-.225v-20.6ZM41.993,48.754a6.038,6.038,0,0,0-1.782.279V34.06h3.565V49.02A6.088,6.088,0,0,0,41.993,48.754ZM45.557,34.06h3.565V52.514a5.935,5.935,0,0,0-1.48-.057,6.357,6.357,0,0,0-2.084-2.538Zm-7.129-5.51V26.714H50.9V28.55ZM47.34,21.2h1.782v3.673H47.34ZM41.993,6.712V24.877H36.646V28.55H34.863V50.6a4.338,4.338,0,0,0-2.226.605,6.131,6.131,0,0,0-6.685-2.192v-39Zm-30.3,8.981H24.17V49.912a6.332,6.332,0,0,0-2.1,2.561,4.381,4.381,0,0,0-.577-.043,4.423,4.423,0,0,0-3.566-1.839,4.53,4.53,0,0,0-4.456,4.592,4.732,4.732,0,0,0,.1.918H9.911V52.766l5.347-6.427v-2.26c3.017-.512,5.347-3.57,5.347-7.263a7.635,7.635,0,0,0-3.225-6.428h1.443V28.55H17.041v1.637a5.429,5.429,0,0,0-2.673-.719c-.153,0-.31.01-.469.026a6.558,6.558,0,0,0-2.2-2.062ZM15.258,34.06a8.445,8.445,0,0,0-.451-2.727c2.251.275,4.016,2.628,4.016,5.483,0,3.039-2,5.51-4.456,5.51a4.029,4.029,0,0,1-3.009-1.459A7.449,7.449,0,0,0,15.258,34.06Zm-5.347,7.88a5.939,5.939,0,0,0,3.565,2.141V45.66L9.911,49.946ZM4.565,34.06c0-3.039,2-5.51,4.456-5.51s4.456,2.471,4.456,5.51c0,2.661-1.534,4.887-3.565,5.4V33.142H8.129v6.317C6.1,38.947,4.565,36.722,4.565,34.06ZM2.782,46.917c0-2.026,1.2-3.673,2.673-3.673s2.673,1.648,2.673,3.673-1.2,3.673-2.673,3.673S2.782,48.943,2.782,46.917Zm3.565,5.4a4.1,4.1,0,0,0,1.782-1V56.1H6.347Z" transform="translate(-1 -1)" fill="#033726" stroke="#e8ded3" stroke-width="0.5"/>
      <path id="Path_81989" data-name="Path 81989" d="M23,19h1.841v1.841H23Z" transform="translate(-3.416 -2.471)" fill="#5d554f"/>
      <path id="Path_81990" data-name="Path 81990" d="M19,19h1.841v1.841H19Z" transform="translate(-2.977 -2.471)" fill="#5d554f"/>
      <path id="Path_81991" data-name="Path 81991" d="M15,19h1.841v1.841H15Z" transform="translate(-2.538 -2.471)" fill="#5d554f"/>
      <path id="Path_81992" data-name="Path 81992" d="M19,23h1.841v1.841H19Z" transform="translate(-2.977 -2.798)" fill="#5d554f"/>
      <path id="Path_81993" data-name="Path 81993" d="M15,23h1.841v1.841H15Z" transform="translate(-2.538 -2.798)" fill="#5d554f"/>
      <path id="Path_81994" data-name="Path 81994" d="M23,23h1.841v1.841H23Z" transform="translate(-3.416 -2.798)" fill="#5d554f"/>
      <path id="Path_81995" data-name="Path 81995" d="M23,27h1.841v1.841H23Z" transform="translate(-3.416 -3.125)" fill="#5d554f"/>
      <path id="Path_81996" data-name="Path 81996" d="M15,27h1.841v1.841H15Z" transform="translate(-2.538 -3.125)" fill="#5d554f"/>
      <path id="Path_81997" data-name="Path 81997" d="M19,27h1.841v1.841H19Z" transform="translate(-2.977 -3.125)" fill="#5d554f"/>
      <path id="Path_81998" data-name="Path 81998" d="M23,31h1.841v1.841H23Z" transform="translate(-3.416 -3.452)" fill="#5d554f"/>
    </g>
  </g>
</svg>
