<svg id="Districts" xmlns="http://www.w3.org/2000/svg" width="64" height="64" viewBox="0 0 64 64">
  <rect id="Rectangle_156006" data-name="Rectangle 156006" width="64" height="64" fill="none"/>
  <g id="Group_184949" data-name="Group 184949" transform="translate(21555 16549.416)">
    <g id="Group_184433" data-name="Group 184433" transform="translate(-21540.799 -16532.682)">
      <rect id="Rectangle_155717" data-name="Rectangle 155717" width="6.638" height="14.521" transform="translate(24.893 17.425)" fill="#e8ded3"/>
      <path id="Path_82105" data-name="Path 82105" d="M314.594,334.352s-.978-1.536-1.746-1.606-2.655-.42-2.655-.42-1.257-2.444-2.655-2.584a4.524,4.524,0,0,0-2.724.838l-.838,1.327s-1.188-1.677-2.026-1.327a3.478,3.478,0,0,0-1.4,1.327s-1.4-2.165-3.353-2.165-2.934,2.584-2.934,2.584l-1.187-.419s-1.537-1.537-2.864-.7a3.05,3.05,0,0,0-1.118,2.725Z" transform="translate(-280.337 -301.629)" fill="#63c3a5"/>
      <ellipse id="Ellipse_1556" data-name="Ellipse 1556" cx="3.526" cy="4.149" rx="3.526" ry="4.149" transform="translate(1.245 13.691)" fill="#63c3a5"/>
      <ellipse id="Ellipse_1557" data-name="Ellipse 1557" cx="2.489" cy="3.112" rx="2.489" ry="3.112" transform="translate(0 23.234)" fill="#63c3a5"/>
      <path id="Path_82107" data-name="Path 82107" d="M-1002.98-18459l-11.261,2.117v26.063a4.013,4.013,0,0,1,2,0,7.99,7.99,0,0,1,2.634,1.543,3.281,3.281,0,0,1,1.635-.545c.636.092,0-14.439,0-14.439h1.725v-2.27h3.269Z" transform="translate(1029.907 18458.998)" fill="#e8ded3"/>
      <path id="Path_82106" data-name="Path 82106" d="M285.948,299.789l2.247,1.327s1.33,2.166.768,3.843-3.016,2.864-3.016,2.864l-1.874-.768-.349-1.188,1.816-2.025Z" transform="translate(-277.201 -284.111)" fill="#63c3a5"/>
    </g>
    <g id="Group_184419" data-name="Group 184419" transform="translate(-21523.629 -16529.232)">
      <g id="Group_184418" data-name="Group 184418">
        <path id="Path_81983" data-name="Path 81983" d="M34.6,17.8H31V13h3.6Z" transform="translate(-31 -13)" fill="#958374"/>
      </g>
    </g>
    <g id="Group_184421" data-name="Group 184421" transform="translate(-21523.629 -16523.248)">
      <g id="Group_184420" data-name="Group 184420">
        <path id="Path_81984" data-name="Path 81984" d="M34.6,27.8H31V23h3.6Z" transform="translate(-31 -23)" fill="#958374"/>
      </g>
    </g>
    <g id="Group_184423" data-name="Group 184423" transform="translate(-21523.629 -16517.258)">
      <g id="Group_184422" data-name="Group 184422">
        <path id="Path_81985" data-name="Path 81985" d="M34.6,37.8H31V33h3.6Z" transform="translate(-31 -33)" fill="#958374"/>
      </g>
    </g>
    <g id="Group_184425" data-name="Group 184425" transform="translate(-21523.629 -16511.273)">
      <g id="Group_184424" data-name="Group 184424">
        <path id="Path_81986" data-name="Path 81986" d="M34.6,47.8H31V43h3.6Z" transform="translate(-31 -43)" fill="#958374"/>
      </g>
    </g>
    <g id="Group_184427" data-name="Group 184427" transform="translate(-21518.996 -16529.232)">
      <g id="Group_184426" data-name="Group 184426">
        <path id="Path_81987" data-name="Path 81987" d="M42.6,17.8H39V13h3.6Z" transform="translate(-39 -13)" fill="#958374"/>
      </g>
    </g>
    <g id="Group_184417" data-name="Group 184417" transform="translate(-21532.916 -16525.645)">
      <path id="Path_81982" data-name="Path 81982" d="M15,19v6h2.4v2.4H21V19Z" transform="translate(-15 -19)" fill="#ffc941"/>
    </g>
    <g id="Group_184428" data-name="Group 184428" transform="translate(-21541 -16536.416)">
      <path id="Path_81988" data-name="Path 81988" d="M35.866,36.931V18.965H34.7v-2.4H33.541V12.977H32.379v-2.4H31.217v2.4H30.055V16.57H28.893V3.264l-3.487.719V2.2H24.244V4.222l-1.162.24V1H21.919V4.7l-1.162.24V2.2H19.6V5.181L16.108,5.9V9.384H5.649v1.2H6.811v7.241a3.463,3.463,0,0,0-.581-.054c-2.242,0-4.068,2.149-4.068,4.791a4.611,4.611,0,0,0,3.487,4.736v.78a2.551,2.551,0,0,0-1.743-.726C2.3,27.349,1,28.961,1,30.942a3.5,3.5,0,0,0,2.324,3.521v2.468H1v1.2H37.028v-1.2Zm-25.568-.6a1.773,1.773,0,0,1,1.743-1.8,1.741,1.741,0,0,1,1.52.914l.18.329.625-.046a1.672,1.672,0,0,1,.551.1l.565.2.176-.586a2.874,2.874,0,0,1,5.321-.559l.363.678.545-.533a1.73,1.73,0,0,1,2.391,0l.545.533.363-.678a2.872,2.872,0,0,1,5.307.519l.163.517.515-.117a2.853,2.853,0,0,1,2.939,1.125H10.41a1.842,1.842,0,0,1-.113-.6ZM34.7,20.163V35.815a4.109,4.109,0,0,0-1.162-.863V21.361H25.406V32.9a4.128,4.128,0,0,0-.873.841,2.639,2.639,0,0,0-.289-.147V20.163ZM27.73,32.14a3.937,3.937,0,0,0-1.162.182V22.558h2.324v9.755A3.97,3.97,0,0,0,27.73,32.14Zm2.324-9.582h2.324V34.592a3.87,3.87,0,0,0-.965-.037A4.146,4.146,0,0,0,30.055,32.9Zm-4.649-3.593v-1.2h8.135v1.2Zm5.811-4.791h1.162v2.4H31.217ZM27.73,4.725V16.57H24.244v2.4H23.082V33.347a2.829,2.829,0,0,0-1.452.395,4,4,0,0,0-4.359-1.429V6.88ZM7.973,10.582h8.135V32.9a4.129,4.129,0,0,0-1.366,1.67,2.856,2.856,0,0,0-.376-.028,2.884,2.884,0,0,0-2.326-1.2,2.954,2.954,0,0,0-2.905,2.994,3.086,3.086,0,0,0,.065.6H6.811V34.756L10.3,30.565V29.091a4.611,4.611,0,0,0,3.487-4.736,4.979,4.979,0,0,0-2.1-4.192h.941v-1.2H11.46v1.068a3.54,3.54,0,0,0-1.743-.469c-.1,0-.2.007-.306.017a4.276,4.276,0,0,0-1.438-1.344ZM10.3,22.558A5.507,5.507,0,0,0,10,20.78a3.4,3.4,0,0,1,2.618,3.575c0,1.982-1.3,3.593-2.905,3.593A2.627,2.627,0,0,1,7.755,27,4.857,4.857,0,0,0,10.3,22.558ZM6.811,27.7a3.873,3.873,0,0,0,2.324,1.4v1.029L6.811,32.917ZM3.324,22.558c0-1.982,1.3-3.593,2.905-3.593s2.905,1.611,2.905,3.593a3.5,3.5,0,0,1-2.324,3.521V21.96H5.649v4.119A3.5,3.5,0,0,1,3.324,22.558ZM2.162,30.942c0-1.321.782-2.4,1.743-2.4s1.743,1.074,1.743,2.4-.782,2.4-1.743,2.4S2.162,32.263,2.162,30.942Zm2.324,3.521a2.673,2.673,0,0,0,1.162-.653v3.121H4.487Z" transform="translate(-1 -1)" fill="#033726" stroke="#e8ded3" stroke-width="0.5"/>
      <path id="Path_81989" data-name="Path 81989" d="M23,19h1.2v1.2H23Z" transform="translate(-10.23 -8.222)" fill="#5d554f"/>
      <path id="Path_81990" data-name="Path 81990" d="M19,19h1.2v1.2H19Z" transform="translate(-8.552 -8.222)" fill="#5d554f"/>
      <path id="Path_81991" data-name="Path 81991" d="M15,19h1.2v1.2H15Z" transform="translate(-6.874 -8.222)" fill="#5d554f"/>
      <path id="Path_81992" data-name="Path 81992" d="M19,23h1.2v1.2H19Z" transform="translate(-8.552 -9.827)" fill="#5d554f"/>
      <path id="Path_81993" data-name="Path 81993" d="M15,23h1.2v1.2H15Z" transform="translate(-6.874 -9.827)" fill="#5d554f"/>
      <path id="Path_81994" data-name="Path 81994" d="M23,23h1.2v1.2H23Z" transform="translate(-10.23 -9.827)" fill="#5d554f"/>
      <path id="Path_81995" data-name="Path 81995" d="M23,27h1.2v1.2H23Z" transform="translate(-10.23 -11.431)" fill="#5d554f"/>
      <path id="Path_81996" data-name="Path 81996" d="M15,27h1.2v1.2H15Z" transform="translate(-6.874 -11.431)" fill="#5d554f"/>
      <path id="Path_81997" data-name="Path 81997" d="M19,27h1.2v1.2H19Z" transform="translate(-8.552 -11.431)" fill="#5d554f"/>
      <path id="Path_81998" data-name="Path 81998" d="M23,31h1.2v1.2H23Z" transform="translate(-10.23 -13.036)" fill="#5d554f"/>
    </g>
  </g>
</svg>
