<svg id="edit_2_" data-name="edit (2)" xmlns="http://www.w3.org/2000/svg" width="22.965" height="16.075" viewBox="0 0 22.965 16.075">
  <g id="Group_183616" data-name="Group 183616" transform="translate(2.297)">
    <path id="Path_81182" data-name="Path 81182" d="M23.474,31.3a2.3,2.3,0,1,1,0-1.148H39.047a.574.574,0,1,1,0,1.148ZM22.4,30.725a1.148,1.148,0,1,1-1.148-1.148A1.148,1.148,0,0,1,22.4,30.725Z" transform="translate(-18.953 -28.429)" fill="#7e7165" fill-rule="evenodd"/>
  </g>
  <g id="Group_183617" data-name="Group 183617" transform="translate(0 1.722)">
    <path id="Path_81183" data-name="Path 81183" d="M.574,43.791H2.369a2.314,2.314,0,0,1,0-1.148H.574a.574.574,0,1,0,0,1.148Z" transform="translate(0 -42.643)" fill="#7e7165"/>
  </g>
  <g id="Group_183618" data-name="Group 183618" transform="translate(0 11.483)">
    <path id="Path_81184" data-name="Path 81184" d="M13.707,124.913a2.3,2.3,0,0,0-4.448,0H.574a.574.574,0,0,0,0,1.148H9.258a2.3,2.3,0,0,0,4.448,0h8.684a.574.574,0,1,0,0-1.148Zm-2.224,1.722a1.148,1.148,0,1,0-1.148-1.148A1.148,1.148,0,0,0,11.483,126.636Z" transform="translate(0 -123.191)" fill="#7e7165" fill-rule="evenodd"/>
  </g>
  <g id="Group_183619" data-name="Group 183619" transform="translate(0 5.741)">
    <path id="Path_81185" data-name="Path 81185" d="M20.6,77.532a2.3,2.3,0,0,0-4.448,0H.574a.574.574,0,0,0,0,1.148H16.148a2.3,2.3,0,0,0,4.448,0h1.795a.574.574,0,0,0,0-1.148Zm-2.224,1.722a1.148,1.148,0,1,0-1.148-1.148A1.148,1.148,0,0,0,18.372,79.255Z" transform="translate(0 -75.81)" fill="#7e7165" fill-rule="evenodd"/>
  </g>
</svg>
