<svg id="Educational_Service" data-name="Educational Service" xmlns="http://www.w3.org/2000/svg" width="64" height="64" viewBox="0 0 64 64">
  <rect id="Rectangle_156000" data-name="Rectangle 156000" width="64" height="64" fill="none"/>
  <g id="Group_184932" data-name="Group 184932" transform="translate(21064.109 16721.223)">
    <path id="Path_85028" data-name="Path 85028" d="M1925.148,72.151a19.19,19.19,0,0,1-6.478,3.549,32.316,32.316,0,0,1-10,1.4,12.918,12.918,0,0,1-2.636-.247,4.333,4.333,0,0,1-3.308-3.463l-.741-4L1901.5,66.8l-.677-3.664,22.421-3.859,1.775-.3.907,5.014.729,4.015a4.434,4.434,0,0,1-1.51,4.147" transform="translate(-22944.92 -16758.83)" fill="#74c1a7"/>
    <path id="Path_85029" data-name="Path 85029" d="M1931.332,99.005a19.2,19.2,0,0,1-6.479,3.549,32.315,32.315,0,0,1-10,1.4,12.92,12.92,0,0,1-2.636-.247,4.332,4.332,0,0,1-3.308-3.463l-.741-4,.011-.011a4.325,4.325,0,0,0,3.308,3.463,12.973,12.973,0,0,0,2.642.247,32.321,32.321,0,0,0,10-1.4,19.191,19.191,0,0,0,6.478-3.549,4.415,4.415,0,0,0,1.5-4.147l.729,4.015a4.418,4.418,0,0,1-1.5,4.147" transform="translate(-22951.102 -16785.686)" fill="#033726"/>
    <path id="Path_85030" data-name="Path 85030" d="M1906.418,75.283a13.145,13.145,0,0,1-2.694-.253,4.722,4.722,0,0,1-3.629-3.79l-1.9-10.246a.415.415,0,0,1,.816-.149l1.895,10.246a3.9,3.9,0,0,0,2.987,3.136,12.472,12.472,0,0,0,2.55.236,31.651,31.651,0,0,0,9.878-1.373,18.981,18.981,0,0,0,6.34-3.469,4.014,4.014,0,0,0,1.362-3.756l-1.637-9.034a.415.415,0,0,1,.816-.149l1.637,9.034a4.835,4.835,0,0,1-1.637,4.532,19.788,19.788,0,0,1-6.622,3.63,32.423,32.423,0,0,1-10.137,1.413.062.062,0,0,0-.029-.006" transform="translate(-22942.701 -16756.609)" fill="#033726"/>
    <path id="Path_85031" data-name="Path 85031" d="M1888.352,34.446l14.025-8.534a.465.465,0,0,0-.161-.856L1885.28,22.03a2.739,2.739,0,0,0-1.9.356l-14.025,8.534a.465.465,0,0,0,.161.856l16.937,3.021a2.707,2.707,0,0,0,1.9-.35" transform="translate(-22918.217 -16727.66)" fill="#033726"/>
    <path id="Path_85032" data-name="Path 85032" d="M1884.732,33.056a2.987,2.987,0,0,1-.551-.052l-16.937-3.021a.877.877,0,0,1-.3-1.614l14.025-8.534a3.128,3.128,0,0,1,2.182-.408l16.937,3.021a.881.881,0,0,1,.3,1.62L1886.363,32.6a3.1,3.1,0,0,1-1.631.459M1882.6,20.2a2.285,2.285,0,0,0-1.2.339l-14.031,8.534a.042.042,0,0,0-.023.052c.005.034.029.04.04.04l16.937,3.021a2.318,2.318,0,0,0,1.608-.3l14.025-8.534a.043.043,0,0,0,.023-.052c-.006-.034-.029-.04-.04-.04L1883,20.237a2.371,2.371,0,0,0-.4-.034" transform="translate(-22916.014 -16725.465)" fill="#033726"/>
    <path id="Path_85033" data-name="Path 85033" d="M1911.9,98.154a13.161,13.161,0,0,1-2.7-.253,4.722,4.722,0,0,1-3.63-3.79.415.415,0,1,1,.816-.149,3.894,3.894,0,0,0,2.986,3.136,12.985,12.985,0,0,0,2.55.236,31.654,31.654,0,0,0,9.878-1.373,18.989,18.989,0,0,0,6.34-3.469,4.012,4.012,0,0,0,1.361-3.756.415.415,0,0,1,.816-.149,4.834,4.834,0,0,1-1.637,4.532,19.788,19.788,0,0,1-6.621,3.63,32.427,32.427,0,0,1-10.137,1.413c0-.006-.011-.006-.023-.006" transform="translate(-22948.914 -16783.496)" fill="#033726"/>
    <path id="Path_85034" data-name="Path 85034" d="M1867.051,141.11a11.58,11.58,0,0,1-2.136,7.948.5.5,0,0,0,.167.729c.781.448,1.614,1.04,2.395,1.482a.5.5,0,0,0,.683-.2,10.757,10.757,0,0,0,.592-9.827" transform="translate(-22914.578 -16828.045)" fill="#e9f3e8"/>
    <path id="Path_85035" data-name="Path 85035" d="M1865.562,149.539a.876.876,0,0,1-.442-.115c-.414-.236-.844-.511-1.258-.775-.379-.241-.77-.494-1.137-.706a.917.917,0,0,1-.442-.609.889.889,0,0,1,.155-.718,11.174,11.174,0,0,0,2.056-7.661.413.413,0,1,1,.821-.086,12.03,12.03,0,0,1-2.211,8.236c-.023.011-.023.034-.023.057a.09.09,0,0,0,.046.063c.385.224.787.477,1.172.729.407.258.827.528,1.217.752a.1.1,0,0,0,.126-.04,10.288,10.288,0,0,0,.574-9.442.414.414,0,0,1,.747-.356,11.135,11.135,0,0,1-.609,10.211.913.913,0,0,1-.792.459" transform="translate(-22912.424 -16825.842)" fill="#033726"/>
    <path id="Path_85036" data-name="Path 85036" d="M1873.692,128.12a2.142,2.142,0,0,0,2.648-1.1,2.03,2.03,0,0,0-1.1-2.607c-2.32-.856-4.169,2.693-1.545,3.7" transform="translate(-22920.973 -16813.865)" fill="#033726"/>
    <path id="Path_85037" data-name="Path 85037" d="M1901.917,21.416l-14.025,8.534a2.74,2.74,0,0,1-1.9.356l-16.943-3.021a.466.466,0,0,1-.161-.856l7.363-4.48,6.662-4.055a2.739,2.739,0,0,1,1.9-.356l5.123.913,11.82,2.108a.466.466,0,0,1,.161.856" transform="translate(-22917.822 -16723.879)" fill="#74c1a7"/>
    <path id="Path_85038" data-name="Path 85038" d="M1884.263,28.542a2.987,2.987,0,0,1-.552-.052l-16.937-3.021a.881.881,0,0,1-.3-1.62l14.025-8.529a3.157,3.157,0,0,1,2.182-.408l16.937,3.021a.881.881,0,0,1,.3,1.62l-14.025,8.529a3.1,3.1,0,0,1-1.631.459m-2.137-12.853a2.286,2.286,0,0,0-1.2.339L1866.9,24.562a.042.042,0,0,0-.023.052c.006.034.029.04.041.04l16.936,3.021a2.317,2.317,0,0,0,1.608-.3l14.025-8.534a.042.042,0,0,0,.023-.052c-.005-.034-.028-.04-.04-.04l-16.937-3.027a2.443,2.443,0,0,0-.408-.034" transform="translate(-22915.611 -16721.66)" fill="#033726"/>
    <path id="Path_85039" data-name="Path 85039" d="M1881.538,67.118a.416.416,0,0,1-.413-.4c-.075-1.677-.081-2.493-.081-3.279s0-1.585-.08-3.239a.408.408,0,0,1,.3-.419c2.068-.569,4.17-1.246,6.2-1.9s4.147-1.338,6.231-1.912a.411.411,0,1,1,.218.792c-2.067.569-4.169,1.246-6.2,1.9-1.935.626-3.934,1.269-5.916,1.826.063,1.459.063,2.211.063,2.946,0,.775,0,1.585.08,3.239a.412.412,0,0,1-.4.431c0,.011-.006.011-.012.011" transform="translate(-22928.182 -16756.285)" fill="#033726"/>
    <path id="Path_85040" data-name="Path 85040" d="M1872.162,126.419a2.363,2.363,0,0,1-.844-.155,2.183,2.183,0,0,1-1.39-2.929,2.521,2.521,0,0,1,3.228-1.551,2.338,2.338,0,0,1,1.3,1.281,2.424,2.424,0,0,1,.034,1.878,2.556,2.556,0,0,1-2.332,1.476m.126-3.963a1.75,1.75,0,0,0-1.585,1.177,1.364,1.364,0,0,0,.913,1.861,1.73,1.73,0,0,0,2.119-.873,1.589,1.589,0,0,0-.029-1.223,1.517,1.517,0,0,0-.833-.833,1.721,1.721,0,0,0-.586-.109" transform="translate(-22918.748 -16811.623)" fill="#033726"/>
    <path id="Path_85041" data-name="Path 85041" d="M1962.76,49.288a2.506,2.506,0,0,0,1.717.494,2.61,2.61,0,0,0,2-.994c.976-1.43-.9-2.55-2.4-2.424-1.562.138-2.447,1.993-1.321,2.923" transform="translate(-22996.682 -16748.195)" fill="#033726"/>
    <path id="Path_85042" data-name="Path 85042" d="M1962.093,47.973a2.873,2.873,0,0,1-1.821-.592,1.8,1.8,0,0,1-.563-1.987,2.443,2.443,0,0,1,2.108-1.671,3.161,3.161,0,0,1,2.895,1.263,1.614,1.614,0,0,1-.121,1.8,3,3,0,0,1-2.321,1.177,1.755,1.755,0,0,1-.178.006m-1.292-1.229a2.116,2.116,0,0,0,1.43.4,2.182,2.182,0,0,0,1.677-.815.808.808,0,0,0,.092-.925,2.382,2.382,0,0,0-2.108-.856,1.6,1.6,0,0,0-1.39,1.091.979.979,0,0,0,.3,1.1" transform="translate(-22994.459 -16745.967)" fill="#033726"/>
    <path id="Path_85043" data-name="Path 85043" d="M1949.386,153.907a1.881,1.881,0,0,1-1.6.787c-3.331-.1-6.708-.2-10.028-.3-3.779,1.109-7.96,2.418-11.739,3.526l-.77-6.168-.62-4.922c3.6.086,7.191.052,10.792.138l11.1-3.383a1.859,1.859,0,0,1,.954-.04,1.925,1.925,0,0,1,1.292.982,13.958,13.958,0,0,1,1.66,4.428,6.962,6.962,0,0,1-1.039,4.956" transform="translate(-22964.977 -16830.055)" fill="#ffc941"/>
    <path id="Path_85044" data-name="Path 85044" d="M1905.526,165.975a4.529,4.529,0,0,0-.62,2.676,12.066,12.066,0,0,0,1.229,5.054,4.94,4.94,0,0,0,1.333,1.78,2.277,2.277,0,0,0,2.108.419,2.392,2.392,0,0,0,1.344-1.533,7.08,7.08,0,0,0,.253-2.085,13.633,13.633,0,0,0-.327-4.072,5.228,5.228,0,0,0-2.332-3.113,2.52,2.52,0,0,0-2.986.873" transform="translate(-22948.355 -16848.084)" fill="#e9f3e8"/>
    <path id="Path_85045" data-name="Path 85045" d="M1923.765,156.086a.413.413,0,0,1-.115-.81c1.89-.551,3.911-1.166,5.864-1.763s3.986-1.212,5.875-1.769a.48.48,0,0,1,.126-.017c1.786.057,3.59.109,5.393.161l4.635.138a1.471,1.471,0,0,0,1.258-.615,6.465,6.465,0,0,0,.965-4.652,13.8,13.8,0,0,0-1.62-4.3,1.5,1.5,0,0,0-1.757-.741l-11.1,3.383a.489.489,0,0,1-.132.017c-1.8-.04-3.624-.057-5.387-.069s-3.6-.023-5.4-.069a.413.413,0,0,1-.4-.425.405.405,0,0,1,.425-.4c1.8.04,3.624.057,5.387.069,1.746.012,3.555.023,5.335.069l11.039-3.366a2.316,2.316,0,0,1,2.734,1.149,14.466,14.466,0,0,1,1.706,4.56,7.319,7.319,0,0,1-1.108,5.255,2.315,2.315,0,0,1-1.953.959l-4.635-.138c-1.781-.052-3.561-.1-5.33-.161-1.872.551-3.871,1.154-5.806,1.746-1.958.6-3.98,1.212-5.869,1.763a.3.3,0,0,1-.121.023" transform="translate(-22962.732 -16827.809)" fill="#033726"/>
    <path id="Path_85046" data-name="Path 85046" d="M1984.586,160.239a14.1,14.1,0,0,1,1.562,8.517l-3.727.666a7.944,7.944,0,0,0-.029-4.439,23.931,23.931,0,0,0-1.694-4.158Z" transform="translate(-23012.225 -16844.164)" fill="#fff"/>
    <path id="Path_85047" data-name="Path 85047" d="M1906.73,174.237a2.865,2.865,0,0,1-1.729-.615,5.248,5.248,0,0,1-1.453-1.924,12.448,12.448,0,0,1-1.275-5.232,4.926,4.926,0,0,1,.695-2.917,2.934,2.934,0,0,1,3.526-1.005,5.669,5.669,0,0,1,2.533,3.36,13.875,13.875,0,0,1,.345,4.2,7.475,7.475,0,0,1-.27,2.211,2.765,2.765,0,0,1-1.591,1.792,2.427,2.427,0,0,1-.781.132m-3.084-10.223a4,4,0,0,0-.546,2.435,11.621,11.621,0,0,0,1.189,4.882,4.4,4.4,0,0,0,1.212,1.637,1.857,1.857,0,0,0,1.717.362,1.975,1.975,0,0,0,1.091-1.275,6.78,6.78,0,0,0,.229-1.964,13.394,13.394,0,0,0-.31-3.951,4.769,4.769,0,0,0-2.137-2.866,2.105,2.105,0,0,0-2.447.741" transform="translate(-22946.137 -16845.885)" fill="#033726"/>
    <path id="Path_85048" data-name="Path 85048" d="M1924.1,195.683a.4.4,0,0,1-.27-.1,7.288,7.288,0,0,1-2.487-6.065.415.415,0,0,1,.563-.35,2.315,2.315,0,0,0,2.625-.505.415.415,0,1,1,.609.563,3.084,3.084,0,0,1-2.992.879,6.492,6.492,0,0,0,2.234,4.853.416.416,0,0,1-.281.729" transform="translate(-22962.182 -16868)" fill="#033726"/>
    <path id="Path_85049" data-name="Path 85049" d="M1927.021,191.2c.379,2.7.218,4.882-.729,6.323a6.889,6.889,0,0,1-2.349-5.715,2.732,2.732,0,0,0,3.078-.609" transform="translate(-22964.377 -16870.246)" fill="#033726"/>
    <path id="Path_85050" data-name="Path 85050" d="M1980.262,167.631a.407.407,0,0,1-.31-.144.4.4,0,0,1-.081-.4,7.579,7.579,0,0,0-.034-4.2,23.628,23.628,0,0,0-1.666-4.083.407.407,0,0,1,.006-.373.428.428,0,0,1,.3-.218l3.888-.586a.413.413,0,0,1,.425.213,14.575,14.575,0,0,1,1.614,8.77.408.408,0,0,1-.339.35l-3.728.666a.4.4,0,0,1-.08.006m-1.108-8.684a21.911,21.911,0,0,1,1.482,3.727,8.8,8.8,0,0,1,.2,4.02l2.785-.5a13.658,13.658,0,0,0-1.418-7.707Z" transform="translate(-23010.061 -16841.957)" fill="#033726"/>
  </g>
</svg>
