<svg id="Gardens" xmlns="http://www.w3.org/2000/svg" width="64" height="64" viewBox="0 0 64 64">
  <rect id="Rectangle_156010" data-name="Rectangle 156010" width="64" height="64" fill="none"/>
  <g id="Group_184946" data-name="Group 184946" transform="translate(21244.207 16722.504)">
    <path id="Path_84939" data-name="Path 84939" d="M1442.151,29.844l-2.213-3.142h1.621a.723.723,0,0,0,.592-1.14l-4.155-5.9a.62.62,0,0,0-1.014,0l-4.155,5.9a.724.724,0,0,0,.591,1.14h1.621l-2.213,3.142a.724.724,0,0,0,.591,1.14h1.574l-2.166,3.076a.723.723,0,0,0,.591,1.14h8.141a.723.723,0,0,0,.592-1.14l-2.166-3.076h1.574a.724.724,0,0,0,.592-1.14" transform="translate(-22663.328 -16725.371)" fill="#54a88e"/>
    <path id="Path_84940" data-name="Path 84940" d="M1626.713,29.844,1624.5,26.7h1.621a.723.723,0,0,0,.592-1.14l-4.155-5.9a.62.62,0,0,0-1.014,0l-4.155,5.9a.724.724,0,0,0,.592,1.14h1.621l-2.213,3.142a.724.724,0,0,0,.592,1.14h1.575l-2.166,3.076a.724.724,0,0,0,.592,1.14h8.141a.723.723,0,0,0,.591-1.14l-2.166-3.076h1.574a.723.723,0,0,0,.591-1.14" transform="translate(-22822.418 -16725.371)" fill="#54a88e"/>
    <path id="Path_84941" data-name="Path 84941" d="M1523.16,79.883a5.827,5.827,0,1,1-5.827,5.827,5.827,5.827,0,0,1,5.827-5.827" transform="translate(-22736.287 -16777.51)" fill="#74c1a7"/>
    <rect id="Rectangle_155964" data-name="Rectangle 155964" width="36.163" height="3.744" transform="translate(-21231.207 -16677.461)" fill="#958374"/>
    <path id="Path_84942" data-name="Path 84942" d="M1429.672,228.625v-2.638h-1.13v3.744h36.163v-1.106Z" transform="translate(-22659.75 -16903.449)" fill="#6d5a4b"/>
    <rect id="Rectangle_155965" data-name="Rectangle 155965" width="1.059" height="1.059" transform="translate(-21208.887 -16675.908)" fill="#fff"/>
    <rect id="Rectangle_155966" data-name="Rectangle 155966" width="1.06" height="1.059" transform="translate(-21206.768 -16675.908)" fill="#fff"/>
    <path id="Path_84943" data-name="Path 84943" d="M1588.167,106.148a3.169,3.169,0,0,0-.8.1,3.162,3.162,0,1,0-6.132-.016,3.161,3.161,0,1,0,1.261,5.529,1.929,1.929,0,0,0,3.677,0,3.161,3.161,0,1,0,1.993-5.615Z" transform="translate(-22788.016 -16796.84)" fill="#e2fc85"/>
    <path id="Path_84944" data-name="Path 84944" d="M1587.142,138.978a1.929,1.929,0,0,1-3.677,0,3.191,3.191,0,0,1-5.083-1.784,3.066,3.066,0,0,1,.145-1.782,3.147,3.147,0,0,0-1.112,3.1,3.191,3.191,0,0,0,5.083,1.784,1.929,1.929,0,0,0,3.677,0,3.2,3.2,0,0,0,4.951-1.337A3.19,3.19,0,0,1,1587.142,138.978Z" transform="translate(-22788.016 -16825.375)" fill="#8edf78"/>
    <path id="Path_84945" data-name="Path 84945" d="M1451.273,106.148a3.169,3.169,0,0,0-.8.1,3.162,3.162,0,1,0-6.132-.016,3.161,3.161,0,1,0,1.261,5.529,1.929,1.929,0,0,0,3.677,0,3.161,3.161,0,1,0,1.993-5.615Z" transform="translate(-22670.016 -16796.84)" fill="#e2fc85"/>
    <path id="Path_84946" data-name="Path 84946" d="M1450.248,138.978a1.929,1.929,0,0,1-3.677,0,3.191,3.191,0,0,1-5.083-1.784,3.069,3.069,0,0,1,.145-1.782,3.147,3.147,0,0,0-1.112,3.1,3.191,3.191,0,0,0,5.083,1.784,1.929,1.929,0,0,0,3.676,0,3.2,3.2,0,0,0,4.951-1.337A3.19,3.19,0,0,1,1450.248,138.978Z" transform="translate(-22670.016 -16825.375)" fill="#8edf78"/>
    <path id="Path_84947" data-name="Path 84947" d="M1531.254,106.827l-.986-.387.036-.092c.052-.134.106-.273.169-.413a2.3,2.3,0,0,1,.1-.216l.027-.051a2.373,2.373,0,0,1,.134-.231l.024-.039.9.56-.028.045a1.5,1.5,0,0,0-.08.135l-.005.01-.037.07a1.313,1.313,0,0,0-.06.119l-.01.024c-.053.117-.1.24-.151.37Z" transform="translate(-22747.436 -16799.504)" fill="#fff"/>
    <path id="Path_84948" data-name="Path 84948" d="M1540.275,95.446l-.7-.8a4.219,4.219,0,0,1,1.013-.656l.442.963a3.164,3.164,0,0,0-.759.491" transform="translate(-22755.461 -16789.67)" fill="#fff"/>
    <rect id="Rectangle_155967" data-name="Rectangle 155967" width="1.06" height="1.06" transform="translate(-21227.656 -16701.131) rotate(-54.845)" fill="#fff"/>
    <rect id="Rectangle_155968" data-name="Rectangle 155968" width="1.059" height="1.059" transform="translate(-21208.887 -16688.623)" fill="#fff"/>
    <rect id="Rectangle_155969" data-name="Rectangle 155969" width="1.059" height="1.059" transform="translate(-21227.947 -16688.623)" fill="#fff"/>
    <path id="Path_84949" data-name="Path 84949" d="M1522.688,77.105a5.267,5.267,0,0,1,4.936,3.371l.987-.385a6.359,6.359,0,0,0-11.846,0l.987.385A5.267,5.267,0,0,1,1522.688,77.105Z" transform="translate(-22735.795 -16774.203)" fill="#033726"/>
    <path id="Path_84950" data-name="Path 84950" d="M1464.565,27.485a1.249,1.249,0,0,0-.088-1.3l-1.594-2.263h.569a1.253,1.253,0,0,0,1.025-1.975l-4.155-5.9a1.15,1.15,0,0,0-1.88,0l-4.155,5.9a1.253,1.253,0,0,0,1.024,1.975h.569l-1.267,1.8.866.61,1.7-2.409h2.205V22.863h-4.07a.194.194,0,0,1-.158-.305l4.155-5.9a.091.091,0,0,1,.148,0l4.155,5.9a.194.194,0,0,1-.159.305H1460.4v1.059h1.191l2.023,2.873a.194.194,0,0,1-.158.305h-3.55v1.06h1.669l2.039,2.9a.194.194,0,0,1-.158.305h-1.7a3.608,3.608,0,0,0-2.029-.515,3.691,3.691,0,1,0-7.376,0,3.729,3.729,0,0,0-3.744,4.341,5.213,5.213,0,0,1-1.4.347V32.356l1.928-1.928-.749-.749-1.709,1.709-1.5-1.5-.749.749,1.717,1.717v3.183a5.243,5.243,0,0,1-1.505-.368,3.729,3.729,0,0,0-3.809-4.324,3.691,3.691,0,1,0-7.376,0,3.594,3.594,0,0,0-1.972.517h-1.645a.194.194,0,0,1-.159-.305l2.039-2.9h1.67V27.1h-3.55a.194.194,0,0,1-.159-.305l2.023-2.873h1.191V22.863h-3.056a.194.194,0,0,1-.159-.305l4.155-5.9a.09.09,0,0,1,.148,0l4.155,5.9a.194.194,0,0,1-.158.305h-4.07v1.059h2.2l1.7,2.409.866-.61-1.267-1.8h.569A1.253,1.253,0,0,0,1439,21.948l-4.155-5.9a1.15,1.15,0,0,0-1.88,0l-4.155,5.9a1.253,1.253,0,0,0,1.025,1.975h.569l-1.594,2.263a1.253,1.253,0,0,0,1.025,1.975h.585l-1.609,2.286a1.253,1.253,0,0,0,1.025,1.975h.506a3.655,3.655,0,0,0-.633,2.765,3.732,3.732,0,0,0,3.667,3.026v5.861h-4.838v1.059h15.425V44.073h-6.12V38.8a2.47,2.47,0,0,0,1.385-1.028,3.738,3.738,0,0,0,5.074-1.593,6.3,6.3,0,0,0,1.84.424v7.472h-3.205v1.059h21.763V44.073h-4.793V38.211a3.73,3.73,0,0,0,3.622-3.025,3.648,3.648,0,0,0-.633-2.765h.551a1.253,1.253,0,0,0,1.025-1.975l-1.609-2.286h.585A1.249,1.249,0,0,0,1464.565,27.485ZM1434.44,38.055a3.606,3.606,0,0,0,.68-.286,2.469,2.469,0,0,0,1.527,1.065v5.238h-2.207Zm9.173-3.15a2.661,2.661,0,0,1-2.234,2.234,3.346,3.346,0,0,1-2.649-1.066,2.582,2.582,0,0,1-.883,1.591V34.722l1.469-1.469-.82-.82-1.25,1.25-1.179-1.18-.82.82,1.4,1.4v3.013c-.624-.263-.831-1-1.024-1.662a3.3,3.3,0,0,1-2.739,1.05,2.631,2.631,0,0,1-.6-5,3.763,3.763,0,0,1,2.52.048,3.829,3.829,0,0,1-.1-2.462,2.63,2.63,0,0,1,4.914.083,3.958,3.958,0,0,1-.142,2.417,3.683,3.683,0,0,1,2.676-.047,2.656,2.656,0,0,1,1.461,2.74m3.594,1.692a6.264,6.264,0,0,0,1.741-.406,3.738,3.738,0,0,0,5.067,1.579,2.471,2.471,0,0,0,1.527,1.065v5.238h-8.334Zm9.535,7.475V38.8a2.472,2.472,0,0,0,1.386-1.028,3.605,3.605,0,0,0,.725.3v6Zm5.766-9.167a2.662,2.662,0,0,1-2.234,2.234,3.348,3.348,0,0,1-2.649-1.066,2.582,2.582,0,0,1-.883,1.591V34.722l1.469-1.4-.82-.82-1.25,1.179-1.179-1.179-.82.82,1.4,1.4v3.014c-.624-.263-.831-1-1.024-1.663a3.3,3.3,0,0,1-2.74,1.05,2.631,2.631,0,0,1-.6-5,3.764,3.764,0,0,1,2.52.048,3.828,3.828,0,0,1-.1-2.462,2.631,2.631,0,0,1,4.914.083,3.959,3.959,0,0,1-.143,2.417,3.685,3.685,0,0,1,2.676-.047A2.657,2.657,0,0,1,1462.508,34.905Z" transform="translate(-22659.75 -16722.064)" fill="#033726"/>
  </g>
</svg>
