<svg width="49" height="42" viewBox="0 0 49 42" fill="none" xmlns="http://www.w3.org/2000/svg">
<path d="M48.6033 31.8321L48.0491 31.9791L47.5225 32.3611C47.3519 32.3574 47.0803 32.3483 47.0234 32.6072C44.9554 33.4228 42.7076 33.2391 40.6084 33.9647C39.6524 34.2953 38.4358 35.4176 37.4229 35.5811C36.4945 35.7317 35.5458 35.8052 34.6375 36.0311C33.4154 36.3342 32.6686 36.9899 31.8539 37.9965C31.4704 38.4704 31.1181 38.97 30.7511 39.4586C30.7144 38.4612 30.7235 36.3232 30.7456 35.3313C30.7823 34.9198 30.8171 34.5065 30.8538 34.0951C31.0722 33.8508 30.863 33.6193 30.83 33.3842C31.0483 32.936 30.9969 32.453 31.0208 31.9791C31.1548 31.4702 31.1731 30.9541 31.1456 30.4324C31.1382 30.223 31.1327 30.0136 31.1254 29.8042C31.208 29.7712 31.2869 29.7234 31.2924 29.6297C31.3493 28.7903 31.5273 27.9601 31.4667 27.1133C31.4759 26.4061 31.6649 25.7081 31.597 24.9954C31.7768 24.808 31.7823 24.5693 31.7952 24.3323C31.8282 23.6913 31.8153 23.0428 31.9034 22.411C32.03 21.5091 31.8924 20.7284 31.1915 20.0892C30.8777 19.8027 30.4703 19.5492 30.0813 19.3637C29.6666 18.9192 29.8446 17.3248 29.7767 16.2741C29.7657 16.1051 29.7088 16.1915 29.8281 15.6863C29.8116 15.6514 29.7932 15.6184 29.7767 15.5835C29.7529 15.5431 29.7272 15.5026 29.7033 15.4622L29.707 15.4549C29.0629 15.0691 28.6244 14.2958 27.7216 14.3932C27.5564 14.4116 27.4262 14.3418 27.2995 14.2444C26.6408 13.7356 25.7417 13.7411 25.0921 13.2121C24.6132 13.1111 24.27 12.8558 24.1269 12.369C23.8994 12.2165 23.6058 12.0494 23.8535 11.7408C24.4682 10.9785 24.7508 10.0344 25.2774 9.22801C25.5894 8.89554 25.9931 8.64206 26.1747 8.19755C27.1748 8.12959 28.1711 8.1351 29.1712 8.26184C29.5492 8.30959 29.7492 8.46573 29.7932 8.80187C29.8685 9.37129 30.1841 9.55313 30.7181 9.47231C30.8685 9.45027 31.0263 9.46313 31.1786 9.45945C31.9658 9.44109 32.1108 9.57334 32.208 10.3962C32.2172 10.4807 32.2135 10.6332 32.241 10.6387C32.8246 10.7599 32.7108 11.1989 32.7236 11.6104C32.7402 12.1174 33.2448 11.7059 33.4466 11.9502C33.5237 12.0439 33.9402 11.8749 33.6264 12.2367C34.0632 12.3047 33.7898 13.1148 34.41 12.9899C34.5953 12.9531 34.6302 13.1019 34.7146 13.2011C34.8999 13.416 35.0375 13.6621 35.4045 13.6529C35.61 13.6474 35.7899 13.8587 35.6247 14.0956C35.4357 14.3675 35.577 14.4318 35.799 14.5328C36.2339 14.7312 36.3477 15.0894 36.1165 15.4402C36.0504 15.5412 35.9844 15.6735 35.8687 15.4788C35.81 15.3796 36.2945 15.6514 36.1715 15.8278C36.0724 15.971 35.5311 15.8204 35.6853 15.8351C36.0688 15.8682 35.9752 16.1841 36.0834 16.3715C36.1495 16.4853 36.1165 16.6874 36.2027 16.7554C36.7569 17.1962 36.911 17.8703 37.2413 18.4434C37.4413 18.7906 37.6854 19.1102 37.9184 19.4353C38.0523 19.6208 38.3001 19.5951 38.434 19.5382C38.6542 19.4482 38.823 19.472 39.012 19.5657C39.0395 19.6006 39.0671 19.6337 39.0946 19.6686C39.0249 19.8229 38.8193 19.8817 38.8028 20.1076C39.045 20.26 39.5166 20.0286 39.5919 20.4547C39.6359 20.7027 39.7717 20.8497 39.9056 21.0205C40.4451 21.7075 40.9883 22.3889 41.5296 23.0741C41.5626 23.3698 41.6654 23.6086 42.003 23.6527C42.0287 23.649 42.047 23.6582 42.0617 23.6784C42.4048 23.976 42.7957 23.9594 43.1994 23.8474C43.3352 23.8658 43.471 23.8841 43.6049 23.9007C43.6911 24.0586 43.7994 24.0623 43.9223 23.9411C43.9884 23.9484 44.0563 23.9576 44.1224 23.9649C44.2013 24.1505 44.3077 24.156 44.438 24.0164C44.5389 24.0274 44.6398 24.0384 44.7426 24.0494C44.8398 24.3103 45.0068 24.0807 45.1389 24.1082C45.1793 24.1119 45.2215 24.1156 45.2618 24.1211C45.3995 24.3948 45.5885 24.3121 45.783 24.1945C45.8509 24.2019 45.9169 24.2092 45.9848 24.2166C46.3041 24.4444 46.6528 24.4793 47.0216 24.3654C47.0895 24.3727 47.1574 24.3782 47.2253 24.3856C47.6583 24.505 48.6767 24.8081 48.684 25.1864C48.7262 27.1647 48.5446 29.8612 48.6015 31.8395L48.6033 31.8321Z" fill="#3A8969"/>
<path d="M6.24167 20.6021C6.24167 20.5323 6.23983 20.4625 6.238 20.3946C6.59214 20.2182 6.91143 19.9537 7.3408 19.9703C7.53898 19.9776 7.68394 19.8895 7.66743 19.6709C7.59954 18.7984 7.65275 17.88 6.92794 17.2113C6.65453 16.9597 6.62149 16.5078 6.13339 16.4233C5.56823 16.326 5.47649 16.0688 5.70953 15.5288C5.79394 15.3304 5.90037 15.121 5.5976 15.0365C5.17006 14.9171 5.12052 14.6104 5.14254 14.2412C5.15171 14.0924 5.19024 13.9161 5.0673 13.8003C4.79022 13.5395 5.07095 13.5083 5.21408 13.4348C5.56823 13.253 5.90954 13.4495 6.25634 13.4844C6.51507 13.6699 6.4435 13.3981 6.50222 13.3062C6.52607 13.3007 6.54811 13.3062 6.56646 13.3246C6.5793 13.354 6.59398 13.3834 6.60682 13.4146C6.61416 13.3852 6.6215 13.3577 6.62884 13.3283H6.66186C6.73526 13.4789 6.80683 13.6314 6.88023 13.7838C6.90041 13.793 6.92243 13.7985 6.94445 13.7985C7.21969 14.1751 7.83073 14.0006 8.05093 14.469C8.07478 14.7096 8.14634 14.8437 8.39223 14.6343C8.46746 14.57 8.58856 14.4616 8.64178 14.4855C9.08033 14.6784 9.61614 14.5773 9.99781 14.9024C10.2125 15.0861 10.4015 15.0512 10.6456 15.0163C10.9502 14.9722 11.2107 14.6416 11.5557 14.8712C11.7135 15.2368 11.3979 15.7566 11.919 16.0064C11.919 16.3591 11.7061 16.7099 11.9172 17.0626C11.9594 17.384 11.9869 17.7091 12.0511 18.0269C12.1318 18.431 12.442 18.5724 12.7704 18.3392C12.9613 18.2032 13.1172 18.0894 13.3686 18.1702C13.5227 18.2198 13.7081 18.1408 13.7796 18.0196C14.0347 17.5879 14.4439 17.6706 14.8292 17.6559C14.9834 17.6632 15.1357 17.6742 15.2898 17.6742C15.9779 17.6797 16.0623 17.7624 16.0073 18.4292C15.9797 18.7561 16.0807 18.9655 16.4091 19.107C16.8642 19.3017 16.9908 19.849 17.0257 20.198C17.055 20.4846 16.9816 20.874 16.978 21.2212C16.9743 21.4453 16.9302 21.6106 16.6642 21.6657C16.477 21.7042 16.3027 21.8089 16.3743 22.0606C16.5174 22.5657 16.2605 22.7531 15.8036 22.7917C15.5485 22.8137 15.321 22.9147 15.2659 23.1866C15.2072 23.4841 15.51 23.4805 15.7027 23.5925C15.365 23.9066 14.8714 24.0462 14.8164 24.5715L14.8219 24.566C14.7925 24.555 14.754 24.5256 14.7356 24.5348C14.2622 24.7938 14.0365 25.5249 13.2989 25.2806C13.2805 25.2751 13.2438 25.3173 13.2182 25.3393C12.864 25.6241 12.6291 25.659 12.6566 25.0859C12.6603 25.0161 12.5943 24.9077 12.5319 24.8783C12.297 24.7681 12.3062 24.6064 12.3484 24.3824C12.4364 23.9103 12.2658 23.7284 11.8291 23.936C11.3667 24.1564 11.0033 23.7119 10.5813 23.8735C10.5428 23.8882 10.4382 23.7854 10.3942 23.7174C10.1244 23.2913 9.7134 23.1737 9.24548 23.1756H9.24365C9.20695 23.1443 9.17025 23.1113 9.13355 23.08C8.88033 22.7476 8.6271 22.4151 8.37204 22.0826C8.24727 21.921 8.10965 21.7759 7.89313 21.7447C7.82523 21.662 7.74999 21.594 7.63439 21.5959C7.61604 21.5775 7.59403 21.5665 7.57017 21.561C7.52246 21.5389 7.47659 21.5169 7.42888 21.4948C7.40686 21.4802 7.38116 21.471 7.35364 21.4691C7.30776 21.4489 7.26189 21.4287 7.21785 21.4085C7.18115 21.3736 7.14262 21.3387 7.10592 21.3057C6.94812 20.9401 6.49671 21.2854 6.31505 20.975C6.31138 20.9493 6.30406 20.9273 6.28938 20.9071C6.27654 20.806 6.26184 20.7068 6.24899 20.6058L6.24167 20.6021Z" fill="#45997A"/>
<path d="M7.0583 1.84432C7.08582 1.83146 7.11333 1.8186 7.14086 1.8039C7.17939 1.78003 7.21611 1.75431 7.25465 1.73043C7.88587 1.59083 8.47305 1.28592 9.12996 1.24367C9.21804 1.23816 9.3318 1.16101 9.37951 1.08387C9.67861 0.578736 10.1227 0.650372 10.5906 0.742214C11.1943 0.859771 11.7998 0.964471 12.4072 1.05999C12.7595 1.11509 13.0402 1.30061 13.3247 1.49348C14.3008 2.1529 15.2697 2.80498 16.4386 3.12275C17.1872 3.32664 17.7084 3.97321 18.3249 4.42874C19.7965 5.51615 21.2498 6.62927 22.7012 7.74423C22.9398 7.92791 23.1949 7.94444 23.4701 7.96649C24.2683 8.03078 25.0647 8.10609 25.8629 8.17772C25.8353 8.59285 25.3399 8.70122 25.2647 9.08512C25.028 9.16961 24.9564 9.38452 24.8573 9.58474C24.5032 10.3048 24.1362 11.0156 23.6884 11.6824C23.4903 11.9763 23.3013 12.0736 23.0481 11.7816C22.8058 11.5024 22.4976 11.4399 22.1654 11.4969C21.7305 11.5704 21.5214 11.3481 21.4388 10.9734C21.3526 10.5913 21.1232 10.2956 20.9177 9.98333C20.7929 9.79414 20.6351 9.77393 20.4351 9.89333C19.8938 10.2148 19.5818 10.1376 19.2075 9.59392C19.1139 9.458 19.0038 9.41024 18.8607 9.49106C18.5359 9.67474 18.2019 9.68944 17.8588 9.55351H17.8698C17.6625 9.0943 17.0092 8.82796 16.4092 8.99328C16.189 9.05389 15.978 9.13288 15.7651 9.03001C15.0532 8.68836 14.4605 9.03552 13.8586 9.34228C13.721 9.34595 13.5834 9.34962 13.4458 9.3533C13.3393 9.20268 13.4072 9.09981 13.5394 9.01899C13.7063 8.91797 13.7779 8.76184 13.7338 8.58183C13.5503 7.83423 14.0201 7.49442 14.5688 7.18216C15.0862 6.88826 15.6037 6.58519 16.0973 6.25272C16.5321 5.95883 16.5193 5.7531 16.1211 5.42063C15.978 5.30124 15.7982 5.18552 15.7266 5.02571C15.5248 4.57753 15.244 4.46181 14.7577 4.57018C14.3412 4.66202 14.1797 3.90341 13.6439 4.13301C13.51 4.19179 13.3467 4.20097 13.1962 4.20281C12.7723 4.20649 12.3173 4.24322 11.9448 4.04301C11.2053 3.64441 10.3851 3.78401 9.61623 3.61319C9.49145 3.58563 9.32079 3.60033 9.21804 3.66829C8.76847 3.96219 8.2345 3.74911 7.77209 3.93647C7.68402 3.97137 7.59594 3.92361 7.5464 3.85198C7.17574 3.32664 6.59773 2.86376 7.01793 2.09596C7.05647 2.02616 7.04545 1.92881 7.0583 1.84432Z" fill="#286B4E"/>
<path d="M7.08777 10.6647C7.37219 10.8888 7.7043 10.8815 8.03827 10.865C8.51535 10.9494 8.93374 11.4233 9.47505 11.0762C9.53009 11.0413 9.59982 11.0137 9.6567 11.0817C9.97599 11.4564 10.4494 11.2617 10.8329 11.4013L10.8274 11.3976C10.8384 11.5262 10.9448 11.5629 11.0348 11.6144C11.1577 11.7172 11.2513 11.8917 11.4586 11.7926C11.6439 12.2958 11.5926 12.8891 12.0238 13.3043C12.6055 13.5743 12.6165 13.5927 12.0752 13.9692C11.8109 14.1529 11.7963 14.4119 11.7449 14.6727C11.4513 14.6268 11.1816 14.5809 10.877 14.7407C10.6035 14.8839 10.2934 14.9115 9.95213 14.6782C9.43834 14.3274 8.84014 14.0978 8.20342 14.4541C8.05295 13.8792 7.4988 13.9545 7.10428 13.7727C7.08226 13.6073 7.07676 13.4384 7.03639 13.2767C7.00336 13.1481 6.93731 13.014 6.76482 13.0379C6.61252 13.0581 6.46572 13.0967 6.50425 13.3079C6.44553 13.3979 6.5171 13.6716 6.25837 13.4861C6.0235 12.9589 5.03446 13.0802 4.4436 13.769C4.98124 13.769 4.97024 14.1217 4.9574 14.4982C4.95006 14.7627 5.02162 15.0162 5.31704 15.1136C5.60513 15.2091 5.62347 15.3487 5.46934 15.6058C5.29318 15.8979 5.52071 16.5904 5.81063 16.5812C6.41617 16.5628 6.59049 17.0367 6.79967 17.3857C7.0162 17.7457 7.46393 17.9992 7.42356 18.4988C7.39787 18.824 7.35383 19.1436 7.44374 19.4669C7.49879 19.6671 7.44375 19.7681 7.19419 19.7809C6.78867 19.8012 6.45472 20.0234 6.15195 20.2861C5.79597 20.242 5.6565 19.9297 5.72623 19.6946C5.93358 18.9948 5.3574 18.6072 5.14638 18.0856C5.02528 17.7861 4.85463 17.428 4.46379 17.3196C4.43443 17.3122 4.38672 17.2663 4.39222 17.2535C4.61241 16.6179 3.90412 16.5573 3.74631 16.1899C3.54814 15.7289 3.2362 15.3432 3.03986 14.8876C2.90775 14.5845 2.72425 14.32 2.39579 14.1896C2.33341 14.1657 2.23432 14.1106 2.23615 14.0739C2.27285 13.3906 1.57741 13.1353 1.37006 12.575C1.21593 12.1581 0.938846 11.7338 0.540661 11.4546C0.3957 11.3535 0.456266 11.2084 0.415897 11.0854C0.410392 10.9513 0.40487 10.8172 0.39753 10.6831C0.392025 10.5435 0.38469 10.4021 0.379185 10.2625C0.37368 10.0935 0.366345 9.92449 0.36084 9.7555C0.362675 9.68387 0.366352 9.61223 0.368187 9.54059C0.81775 9.44692 1.26731 9.35324 1.71687 9.25772C2.4637 9.09975 2.83985 9.24854 3.19583 9.90061C3.37565 10.2294 3.572 10.3121 3.94083 10.2C4.40324 10.0586 4.87481 9.92633 5.37575 10.1798C5.63631 10.3102 5.89506 10.1284 6.05837 9.86939C6.17397 9.6857 6.27856 9.48182 6.53913 9.4763C6.73363 9.8749 6.35747 10.527 7.08961 10.6647H7.08777Z" fill="#286B4E"/>
<path d="M30.8285 33.3846C30.8615 33.6216 31.0707 33.8512 30.8524 34.0955C30.79 34.0036 30.7037 33.8346 30.6707 34.0955C30.6212 34.5069 30.612 34.922 30.5844 35.3353C30.478 36.6395 30.6101 38.5057 30.5019 39.8099C29.7734 40.2764 29.289 42.341 28.8523 41.6302C28.7403 41.4465 28.6908 41.362 28.4541 41.4061C27.4944 41.5806 26.643 39.3635 25.7218 39.1817C25.2117 39.0806 24.6796 38.9282 24.175 38.9741C23.4979 39.0366 22.8061 38.3239 22.1859 38.7335C21.9455 38.8914 21.7528 38.7371 21.5767 38.6233C21.4005 38.5094 21.2629 38.3404 21.1069 38.1953C21.2831 38.153 21.3455 37.9804 21.4739 37.8812C21.6134 37.703 21.584 37.4899 21.5638 37.2934C21.5161 36.7993 21.4409 36.307 21.8262 35.8974C21.8959 35.7909 21.9657 35.6825 22.0354 35.576C22.4116 35.6476 22.4483 35.2306 22.707 35.1039C23.1125 34.9055 23.2648 34.5253 23.1015 34.0679C23.074 33.9926 23.0116 33.9375 23.0666 33.8365C23.2979 33.414 23.5511 33.3313 24.0025 33.5407C24.1566 33.6124 24.3163 33.6712 24.4741 33.7373C24.8282 33.7373 25.1842 33.763 25.5365 33.7318C25.8227 33.7061 26.1512 33.8475 26.3897 33.5683C26.3842 33.5499 26.3824 33.5316 26.3879 33.5132C26.4595 33.5022 26.531 33.4911 26.6008 33.4801C26.7512 33.4838 26.9035 33.4875 27.054 33.4911C27.876 33.4948 28.6761 33.3185 29.4798 33.177C29.733 33.1403 29.9973 33.1421 30.234 33.0613C30.5789 32.9438 30.7863 32.9879 30.8248 33.3883L30.8285 33.3846Z" fill="#286B4E"/>
<path d="M22.0372 35.5738C21.9675 35.6804 21.8978 35.7888 21.828 35.8953C21.5711 35.9467 21.3454 36.1286 21.3491 36.349C21.3583 36.8596 21.2867 37.3831 21.4757 37.8809C21.3473 37.9783 21.2849 38.1528 21.1087 38.195C20.9326 38.1068 20.7546 38.0187 20.5766 37.9305C20.5344 37.8203 20.4922 37.7101 20.3509 37.6917H20.3527C20.294 37.5044 20.1399 37.4915 19.9802 37.5025C19.7968 37.5154 19.6848 37.4603 19.672 37.2564C19.6573 37.0231 19.5545 36.8504 19.2921 36.8707C19.0242 36.8909 18.9783 37.0947 18.9765 37.317C18.6444 37.3611 18.5655 36.9607 18.2811 36.9184C18.193 36.7457 18.0829 36.5896 17.8774 36.5639C17.3508 36.4996 17.1471 36.1855 17.0865 35.6822C17.0498 35.3773 16.9783 34.9787 16.5269 35.0375C16.1562 35.0871 16.0755 34.8942 16.0535 34.615C16.0259 34.255 16.2626 34.2183 16.5507 34.1999C17.1911 34.1613 17.3783 33.805 17.0737 33.2521C17.0425 33.1951 17.0388 33.1235 17.0223 33.0592C17.1287 32.8902 17.1764 32.7212 17.0333 32.5467C16.925 32.0875 17.3067 31.834 17.4774 31.4924C17.6499 31.4263 17.4443 31.0314 17.7618 31.1269C18.1288 31.2371 18.2572 30.9946 18.4719 30.7944C19.0426 30.2636 19.5435 29.549 20.5069 29.808C20.606 29.8337 20.705 29.7786 20.7326 29.6556C21.2555 29.2882 21.4922 29.7235 21.7785 30.0266C22.1106 30.3205 22.1253 30.6419 21.8959 31.0111C21.7675 31.215 21.6757 31.474 21.8409 31.6798C22.184 32.1114 22.4758 32.6 22.9896 32.8719C23.0776 33.006 23.3914 33.118 23.2611 33.2429C22.8244 33.6635 23.0152 34.1981 22.8996 34.672C22.8739 34.773 22.7675 34.8832 22.6685 34.931C22.3767 35.0724 22.217 35.3314 22.0354 35.5738H22.0372Z" fill="#3A8969"/>
<path d="M18.2865 36.9186C18.5709 36.9608 18.6498 37.3613 18.9819 37.3172C19.1728 37.387 19.3948 36.902 19.4517 37.2106C19.5691 37.848 19.9746 37.6919 20.3545 37.6937H20.3526C20.3912 37.8958 21.3031 38.2209 21.3417 38.4248C21.0407 38.7866 21.9454 39.5416 22.2151 39.9898C22.3527 40.2194 21.0297 40.8182 20.9398 41.0459C20.8095 41.3766 20.0572 40.899 19.8003 41.1672C19.659 41.3141 19.4719 41.2113 19.4443 41.0441C19.3214 40.302 18.681 39.8263 18.4663 39.1595C18.2094 38.3642 17.681 37.8811 17.0204 37.4604C16.7855 37.3117 16.6993 37.0343 16.624 36.7716C16.9286 36.509 17.2094 36.4704 17.6039 36.6724C17.7929 36.7698 17.9984 37.0251 18.2865 36.9167V36.9186Z" fill="#45997A"/>
<path d="M16.6185 36.6267C16.569 36.6322 16.4828 36.6598 16.4736 36.6414C16.191 36.1583 15.7873 35.7359 15.6717 35.1719C15.5524 34.5952 15.2992 34.0956 14.9487 33.6345C14.9964 33.3884 15.1616 33.3976 15.3488 33.449C15.391 33.5114 15.435 33.5739 15.4772 33.6364C15.6332 33.8476 15.7836 33.8513 15.9249 33.6198C15.9726 33.5537 16.0699 33.4802 16.0626 33.4214C15.9616 32.7565 16.3745 32.6022 16.903 32.5508H16.9011C16.9011 32.7161 16.903 32.8832 16.9048 33.0504C16.8846 33.0945 16.8369 33.1478 16.8479 33.1808C16.9922 33.6388 16.8216 33.9131 16.336 34.0037C15.9818 34.0698 15.8368 34.3307 15.868 34.6301C15.8974 34.9148 15.958 35.2877 16.3983 35.2289C16.7085 35.1885 16.7984 35.3483 16.9085 35.5926C17.1066 36.0334 16.9507 36.342 16.6259 36.6212L16.6185 36.6267Z" fill="#45997A"/>
<path d="M43.2011 23.8404C42.7974 23.9524 42.4066 23.969 42.0635 23.6714C42.447 23.6934 42.8305 23.7302 43.2011 23.8404Z" fill="#4C8984"/>
<path d="M47.0216 24.3563C46.6528 24.4702 46.306 24.4353 45.9849 24.2075C46.3353 24.2204 46.684 24.2516 47.0216 24.3563Z" fill="#4C8984"/>
<path d="M42.0051 23.646C41.6675 23.6019 41.5648 23.3631 41.5317 23.0674C41.7354 23.2217 41.8785 23.4274 42.0051 23.646Z" fill="#4C8984"/>
<path d="M45.7848 24.1877C45.5921 24.3053 45.4031 24.3879 45.2637 24.1143C45.438 24.1381 45.6105 24.1639 45.7848 24.1877Z" fill="#4C8984"/>
<path d="M45.141 24.1015C45.0107 24.0758 44.8419 24.3036 44.7446 24.0427C44.8841 24.0152 45.0144 24.0354 45.141 24.1015Z" fill="#4C8984"/>
<path d="M44.4416 24.0092C44.3113 24.1488 44.203 24.1433 44.126 23.9578C44.2379 23.9321 44.3425 23.9523 44.4416 24.0092Z" fill="#4C8984"/>
<path d="M43.9244 23.9359C43.8014 24.0571 43.695 24.0535 43.6069 23.8955C43.7134 23.9084 43.8179 23.9231 43.9244 23.9359Z" fill="#4C8984"/>
<path d="M39.0122 19.5607C39.0526 19.546 39.115 19.5056 39.1296 19.5203C39.1939 19.5772 39.1498 19.625 39.0948 19.6654C39.0672 19.6305 39.0397 19.5974 39.0122 19.5625V19.5607Z" fill="#2F7670"/>
<path d="M26.3912 33.5113C26.3857 33.5296 26.3875 33.548 26.393 33.5664C25.7471 33.4709 25.1012 33.5554 24.4535 33.5535C23.925 33.3515 23.4773 33.0117 23.0002 32.7214C22.791 32.4992 22.5928 32.2659 22.3708 32.0565C22.0093 31.7112 21.8754 31.3548 22.1617 30.8809C22.4002 30.486 22.2332 30.1664 21.868 29.9313C21.5212 29.4923 21.1763 29.0514 20.824 28.6161C20.6643 28.4196 20.5597 28.2047 20.6019 27.9548C20.7175 27.2642 20.7524 26.5717 20.7359 25.8719C20.7212 25.2676 20.4863 25.0765 19.8753 25.2308C19.6624 25.2841 19.4881 25.2657 19.4991 24.992C19.5358 24.1728 19.4973 24.1306 18.6587 24.2334C18.2403 24.2849 17.9302 24.2022 17.7945 23.7338C17.6275 23.157 17.6568 22.4994 17.1302 22.0568C17.0788 22.0127 17.1119 21.8621 17.1137 21.7629C17.121 21.5094 17.1871 21.2412 17.1302 21.0024C17.0201 20.5451 17.2843 20.2199 17.4421 19.8544C17.4899 19.7442 17.5578 19.6285 17.7137 19.7148C18.2349 20.005 18.789 19.7864 19.3248 19.7975C19.5964 19.803 20.0184 19.6964 19.6643 19.2299C19.556 19.0866 19.6258 18.9709 19.7322 18.8717C19.9671 18.6531 20.167 18.4033 20.5414 18.3831C20.8974 18.3629 21.235 18.1608 21.3891 17.8651C21.6001 17.461 21.8937 17.4151 22.2717 17.4482C22.4938 17.4684 22.7158 17.4849 22.9378 17.4849C23.2443 17.4867 23.481 17.3122 23.4241 17.0238C23.3452 16.6326 23.314 16.2028 23.0387 15.8758C22.3818 15.0933 22.4204 14.6066 23.2846 14.0041C23.5966 13.7873 23.6516 13.5228 23.3654 13.2914C23.0773 13.0581 23.0388 12.8028 23.1213 12.4832C23.1287 12.4685 23.1433 12.452 23.1397 12.4428C23.1305 12.4189 23.114 12.3969 23.0993 12.3748L23.0956 12.3822C23.4112 12.3197 23.692 12.643 24.0186 12.463C24.1269 13.0563 24.5306 13.2932 25.0866 13.3483C25.6334 13.6312 26.0517 14.2208 26.7894 14.061C26.8463 14.0482 26.9399 14.1382 26.9931 14.2006C27.2628 14.5111 27.5931 14.6249 27.9986 14.5533C28.0922 14.5368 28.2463 14.5441 28.2849 14.6011C28.6005 15.0695 29.1803 15.1429 29.5767 15.4846C29.7198 16.5885 29.606 17.7053 29.762 18.8092C29.8134 19.1821 29.9602 19.4191 30.2868 19.6193C31.2024 20.1814 31.8594 20.9032 31.7438 22.1045C31.652 23.0652 31.6391 24.0332 31.5914 24.9975C31.6575 25.7102 31.4685 26.4064 31.4612 27.1154C31.14 27.9861 31.1823 28.9027 31.1199 29.8082C31.1272 30.0176 31.1327 30.227 31.14 30.4364C30.8556 30.8662 30.9474 31.364 30.8942 31.8361C30.7529 32.951 30.9272 32.7361 29.9162 32.918C29.7675 32.9455 29.6207 32.9823 29.4721 33.0153C28.6629 33.1568 27.8188 33.1255 27.0536 33.4929C26.9031 33.4892 26.7508 33.4856 26.6004 33.4819C26.5123 33.3809 26.4444 33.4121 26.3875 33.5149L26.3912 33.5113Z" fill="#FFC83F"/>
<path d="M6.66016 13.3281C6.79594 13.3306 6.86874 13.4824 6.87853 13.7837C6.80513 13.6312 6.73355 13.4787 6.66016 13.3281Z" fill="#1F8E85"/>
<path d="M6.56494 13.3266C6.58711 13.3156 6.60927 13.3174 6.62958 13.3302C6.6222 13.3578 6.61296 13.3872 6.60557 13.4147C6.59264 13.3854 6.57787 13.356 6.56494 13.3247V13.3266Z" fill="#1F8E85"/>
<path d="M11.998 16.8256C12.0531 16.5537 11.9613 16.2672 12.0806 16.0008C12.1375 15.7161 12.1154 15.4975 11.6861 15.6132C11.7595 15.3285 11.8347 15.0989 11.8696 14.8565C11.9136 14.5516 11.9118 14.1677 12.3118 14.0005C12.4935 13.9252 12.6733 13.7654 12.6421 13.5284C12.6036 13.2327 12.3228 13.2786 12.1265 13.2088C11.9687 13.0398 11.9264 12.8286 11.8732 12.6119C11.7998 12.3106 11.7852 11.969 11.4604 11.789C11.3815 11.6089 11.1998 11.5557 11.0512 11.4638C10.987 11.4087 10.9448 11.2857 10.8273 11.394L10.8328 11.3977C10.6842 11.0358 10.3392 11.1736 10.0842 11.1295C9.74469 11.0726 9.9392 10.9367 9.99241 10.8081C10.0823 10.764 10.1796 10.7236 10.0933 10.595V10.6079C10.9044 10.347 11.653 9.94477 12.409 9.56454C12.7485 9.39372 13.0678 9.25963 13.4476 9.34596C13.5853 9.34229 13.7229 9.33861 13.8605 9.33494C14.6147 9.29453 15.3431 9.14207 16.1285 9.18983C16.756 9.2284 17.3267 9.22473 17.8717 9.54617H17.8607C18.0735 9.85109 18.3231 9.98151 18.6791 9.75557C18.8699 9.63434 19.0516 9.58842 19.0828 9.92456C19.1066 10.2001 19.2809 10.224 19.5433 10.257C19.9397 10.3066 20.2883 10.4279 20.5892 10.0293C20.6773 9.91354 20.7948 10.0972 20.8498 10.1891C21.0058 10.4517 21.1764 10.7089 21.2553 11.012C21.3911 11.53 21.6994 11.8275 22.259 11.6934C22.7049 11.5869 22.8885 11.9359 23.149 12.1508C23.1765 12.1728 23.1197 12.2978 23.1031 12.3749L23.1068 12.3676C23.0352 12.3676 23.0022 12.408 22.9857 12.4704C22.9582 12.5476 22.916 12.6247 22.905 12.7037C22.8132 13.3576 22.4811 13.5909 21.9783 13.1739C21.2076 12.5347 20.6443 12.937 20.0223 13.3245C19.9378 13.3778 19.8406 13.4494 19.8039 13.5339C19.6442 13.9234 19.4167 14.2081 18.9525 14.2283C18.8662 14.2319 18.7543 14.3054 18.8332 14.4432H18.8442C18.7066 14.3568 18.6754 14.4634 18.6387 14.5589C18.3928 14.6397 18.169 14.7518 18.0332 14.9887C17.7744 15.1651 17.6075 15.391 17.6387 15.7235L17.6442 15.7179C17.3414 15.683 17.1487 15.7712 17.1891 16.1239C17.2074 16.2818 17.1561 16.37 16.9799 16.4031C16.5671 16.4821 16.4716 16.7025 16.756 17.0111C16.6001 17.2627 16.1762 17.0184 16.145 17.4133V17.4023C15.8808 17.4446 15.6184 17.4886 15.356 17.5309C15.3028 17.5309 15.2477 17.5309 15.1945 17.5309C15.0697 17.5162 14.9431 17.5015 14.8183 17.4868C14.4128 17.4997 13.9816 17.4133 13.6953 17.8358C13.6256 17.9405 13.4972 18.0158 13.3357 17.957C13.1063 17.8744 12.921 17.946 12.7338 18.1132C12.4659 18.3538 12.2788 18.2785 12.2145 17.913C12.1485 17.5456 12.187 17.158 11.9999 16.8145L11.998 16.8256Z" fill="#3A8969"/>
<path d="M15.5709 33.5368C15.5195 33.4872 15.4663 33.4358 15.415 33.3862C15.1214 33.219 14.9856 32.9802 15.0241 32.6312C15.0553 32.3429 15.0718 32.0471 14.7489 31.8671C14.6571 31.8157 14.7305 31.7183 14.7911 31.654C14.903 31.5842 15.0645 31.6228 15.147 31.4887C15.1782 31.4502 15.2113 31.4134 15.2425 31.3748C15.7269 31.0626 15.4627 30.5299 15.6113 30.1184C15.6994 30.1129 15.7856 30.1221 15.8242 30.2158C16.0242 30.6952 16.382 30.6273 16.7618 30.4932C17.3435 30.2874 17.3398 30.2874 17.349 30.8826C17.3508 31.0516 17.371 31.2205 17.382 31.3914C17.1288 31.6008 17.0187 31.902 16.8792 32.1849C16.804 32.2547 16.7343 32.3796 16.6554 32.3851C15.9049 32.4365 15.8535 32.9729 15.8351 33.5368C15.7471 33.6066 15.6608 33.6195 15.5728 33.5368H15.5709Z" fill="#286B4E"/>
<path d="M14.6751 33.2085C14.587 32.8099 14.354 32.5381 14.0016 32.325C13.4346 31.9797 13.064 31.3258 12.3043 31.2707C12.1887 31.2633 12.0401 31.1513 11.9777 31.0448C11.6236 30.4368 11.0822 29.9794 10.6987 29.4008C10.5207 29.1326 10.3648 28.8828 10.5464 28.4787C10.6455 28.2583 10.3905 27.8542 10.2455 27.5548C10.0895 27.2315 10.0895 26.9008 10.2437 26.6198C10.6657 25.8428 10.1446 25.2293 9.88219 24.6066C9.74641 24.2852 9.61612 23.8756 9.26198 23.646C9.19592 23.6037 9.21426 23.4531 9.32436 23.3851C9.62346 23.3833 9.91155 23.4219 10.1097 23.679C10.5464 24.2503 11.1501 24.2723 11.7593 24.1199C12.141 24.0244 12.2016 24.164 12.119 24.4579C12.0603 24.6654 12.0419 24.816 12.264 24.9244C12.4199 24.9997 12.464 25.1412 12.4658 25.3083C12.4658 25.4957 12.5906 25.7198 12.7319 25.7032C13.2402 25.6445 13.8108 25.6243 14.2145 25.3671C14.4108 25.2422 14.6494 24.862 14.8182 24.5626L14.8127 24.5681C15.1705 24.3072 15.4568 23.9638 15.8421 23.7323C16.0807 23.5872 16.0385 23.4494 15.7577 23.3705C15.6568 23.3429 15.4329 23.3943 15.4788 23.1702C15.5137 23.0049 15.677 23.0159 15.8127 22.9902C16.444 22.8727 16.5651 22.7294 16.5614 22.0792C16.5614 21.9543 16.5834 21.8808 16.7009 21.8532C16.7945 21.8312 16.8348 21.8918 16.8972 21.9634C17.2734 22.3988 17.4165 22.9278 17.5559 23.4641C17.8073 24.4377 17.8752 24.4762 18.901 24.3789C19.1726 24.3532 19.4625 24.3458 19.3634 24.7977C19.2423 25.3487 19.4331 25.503 20.0258 25.38C20.3066 25.3212 20.5286 25.3855 20.5231 25.7069C20.5139 26.1845 20.5616 26.6566 20.5047 27.1415C20.4497 27.608 20.2166 28.1279 20.5836 28.576C20.8589 28.9122 21.1561 29.2244 20.7414 29.6543C20.4625 29.7094 20.2533 29.3475 19.9671 29.5092C19.3781 29.8416 18.7321 30.0951 18.3119 30.6755C18.011 31.0925 17.7725 31.076 17.6037 30.5874C17.4514 30.1447 17.2055 30.0657 16.8275 30.2641C16.4642 30.4551 16.1614 30.4845 15.9229 30.0676C15.8476 29.9371 15.6604 29.7626 15.6127 30.1171C15.4292 30.1171 15.376 30.2439 15.4036 30.3853C15.4696 30.7343 15.3081 31.0319 15.2201 31.3478C15.1797 31.3754 15.1375 31.4029 15.0971 31.4305C14.9613 31.4599 14.8072 31.4305 14.7044 31.5591C14.365 31.6858 14.3797 31.8236 14.6512 32.0422C14.9375 32.2718 14.9357 32.9606 14.6806 33.2049L14.6751 33.2085Z" fill="#5FB290"/>
<path d="M2.22153 8.58401C2.28208 8.59503 2.34447 8.60789 2.40502 8.61891C2.52796 8.6832 2.63622 8.67769 2.71696 8.55095C2.75549 8.52156 2.79402 8.49033 2.83256 8.46094C2.87109 8.42972 2.90963 8.40033 2.95 8.3691C3.4491 8.03112 3.92621 7.66927 4.18126 7.09985C4.35191 6.72146 4.69321 6.68656 5.02717 6.62595C5.61986 6.51757 6.22722 6.45145 6.27493 5.63405C6.28777 5.40261 6.5465 5.37322 6.73734 5.29608C6.98139 5.19872 7.13552 5.09219 6.87312 4.7836C6.30429 4.1205 5.66939 3.52904 5.05835 2.91186C4.95376 2.80533 4.80329 2.73369 4.75926 2.56103C4.98495 2.39571 5.2657 2.37735 5.51342 2.27448C5.63085 2.29101 5.7428 2.2855 5.8217 2.17713H5.82537C6.02722 2.18815 6.20703 2.1257 6.36851 2.00814C6.39787 2.0063 6.42357 1.99528 6.44559 1.97508C6.68596 1.93283 6.80889 2.01182 6.75201 2.27632C6.71714 2.44347 6.67679 2.61062 6.64926 2.77778C6.60706 3.03677 7.39792 4.18112 7.63279 4.13336C8.11906 4.03601 8.62917 4.13703 9.09892 3.95335C9.9173 3.63007 10.732 3.91294 11.4899 4.10764C12.0697 4.25643 12.6294 4.45297 13.2257 4.40521C13.6698 4.37031 14.0918 4.26929 14.4258 4.68808C14.5065 4.78911 14.6735 4.82034 14.8111 4.78727C15.2166 4.68625 15.4515 4.86442 15.6185 5.22077C15.6717 5.33649 15.7983 5.42465 15.9047 5.50915C16.3194 5.83611 16.3249 5.88937 15.8644 6.17592C15.2992 6.52859 14.7249 6.86657 14.1542 7.2119C13.7267 7.46905 13.4514 7.80336 13.5377 8.34522C13.5946 8.69973 13.4294 8.90546 13.101 9.0524C12.4 9.36467 11.7082 9.70081 11.0238 10.0498C10.699 10.2151 10.2935 10.2519 10.0898 10.6174V10.6045C9.9797 10.6394 9.93198 10.7037 9.98886 10.8176C9.75949 10.7625 9.55032 10.8176 9.35949 10.9425C9.20168 11.0472 9.04204 11.0674 8.87873 10.9682C8.61083 10.8029 8.32274 10.8415 8.03282 10.8709C7.69886 10.8874 7.36673 10.8929 7.08231 10.6707C6.80523 10.3768 6.77037 10.0131 6.76487 9.63101C6.75753 9.22323 6.59605 9.15159 6.25474 9.37936C6.11162 9.47488 6.00152 9.59978 5.91161 9.75224C5.78867 9.96164 5.57215 10.0976 5.34829 9.98184C4.85102 9.72469 4.37026 9.87714 3.90235 10.0112C3.60509 10.0976 3.48213 10.0241 3.33533 9.77612C2.92247 9.07628 2.47292 8.91648 1.65453 9.07812C1.22332 9.16445 0.797608 9.32977 0.342541 9.25078C0.342541 8.9624 0.340702 8.67585 0.338867 8.38747C0.371896 8.37645 0.404933 8.36543 0.437962 8.35257C0.50769 8.36175 0.575584 8.37094 0.645312 8.38196C0.71504 8.38747 0.786585 8.39482 0.856313 8.40033C0.887507 8.40768 0.918705 8.40951 0.951734 8.40768C1.11504 8.5087 1.28938 8.53993 1.47471 8.49033C1.5683 8.49952 1.66186 8.51054 1.75544 8.51972C1.90224 8.5932 2.04904 8.66483 2.21785 8.58769L2.22153 8.58401Z" fill="#5FB290"/>
<path d="M10.0915 10.6135C10.2952 10.248 10.7025 10.2094 11.0255 10.046C11.7099 9.69879 12.4017 9.36082 13.1026 9.04856C13.4311 8.90161 13.5962 8.69588 13.5394 8.34137C13.4513 7.79951 13.7283 7.4652 14.1559 7.20805C14.7266 6.86456 15.3009 6.52658 15.8661 6.17207C16.3248 5.88553 16.3211 5.83226 15.9064 5.5053C15.8 5.42081 15.6734 5.33264 15.6202 5.21692C15.455 4.86057 15.2202 4.6824 14.8128 4.78342C14.6752 4.81649 14.5082 4.78526 14.4275 4.68424C14.0935 4.26544 13.6715 4.36646 13.2274 4.40136C12.631 4.44912 12.0714 4.25258 11.4915 4.1038C10.7337 3.91093 9.92082 3.62806 9.1006 3.9495C8.63085 4.13502 8.12073 4.03216 7.63447 4.12951C7.39776 4.17727 6.60874 3.03292 6.65094 2.77393C6.67847 2.60494 6.71699 2.43962 6.75369 2.27247C6.80874 2.0098 6.68764 1.93082 6.44727 1.97123C6.60874 1.73428 6.85095 1.86286 7.0583 1.83898C7.04545 1.92347 7.05647 2.02082 7.01793 2.09062C6.59773 2.85842 7.17574 3.3213 7.5464 3.84664C7.59594 3.91827 7.68585 3.96603 7.77209 3.93113C8.2345 3.74378 8.76847 3.95869 9.21804 3.66295C9.32079 3.59499 9.49145 3.5803 9.61623 3.60785C10.3869 3.77868 11.2053 3.63724 11.9448 4.03767C12.3173 4.23788 12.7705 4.20115 13.1962 4.19747C13.3467 4.19747 13.5081 4.18462 13.6439 4.12767C14.1797 3.89807 14.3394 4.65852 14.7577 4.56484C15.2458 4.45647 15.5248 4.57219 15.7266 5.02038C15.7982 5.18018 15.978 5.2959 16.1211 5.4153C16.5193 5.74776 16.5321 5.95349 16.0973 6.24738C15.6037 6.57985 15.088 6.88293 14.5688 7.17682C14.0201 7.48908 13.5503 7.8289 13.7338 8.57649C13.7779 8.7565 13.7063 8.91263 13.5394 9.01366C13.4072 9.09448 13.3393 9.19734 13.4458 9.34796C13.0659 9.26163 12.7466 9.39572 12.4072 9.56654C11.6512 9.94677 10.9025 10.3472 10.0915 10.6099V10.6135Z" fill="#E9F3E8"/>
<path d="M6.15024 20.2843C6.45118 20.0198 6.78512 19.7994 7.19248 19.7792C7.44204 19.7663 7.49708 19.6653 7.44203 19.4651C7.35212 19.1418 7.39616 18.8222 7.42185 18.4971C7.46222 17.9974 7.01449 17.7439 6.79796 17.3839C6.58878 17.0349 6.41448 16.561 5.80895 16.5794C5.51902 16.5886 5.29147 15.8961 5.46763 15.604C5.62176 15.3469 5.60525 15.2073 5.31533 15.1118C5.01991 15.0144 4.94651 14.7609 4.95569 14.4964C4.9667 14.1199 4.97953 13.769 4.44189 13.7672C5.03458 13.0784 6.02179 12.9572 6.25666 13.4843C5.90986 13.4494 5.56855 13.2529 5.2144 13.4347C5.07128 13.5082 4.79238 13.5394 5.06762 13.8003C5.19056 13.916 5.15203 14.0923 5.14286 14.2411C5.12084 14.6103 5.17038 14.9171 5.59792 15.0365C5.90069 15.1209 5.79426 15.3322 5.70985 15.5287C5.47681 16.0688 5.56855 16.3277 6.13371 16.4233C6.62181 16.5059 6.65669 16.9596 6.92826 17.2113C7.65307 17.8799 7.59986 18.7965 7.66775 19.6708C7.68427 19.8894 7.5393 19.9775 7.34112 19.9702C6.91175 19.9537 6.59246 20.2182 6.23832 20.3945C6.20896 20.3578 6.17777 20.3229 6.14841 20.2861L6.15024 20.2843Z" fill="#E9F3E8"/>
<path d="M7.08774 10.6648C6.3556 10.5271 6.72993 9.87499 6.53726 9.4764C6.27486 9.48007 6.17027 9.6858 6.0565 9.86948C5.89502 10.1285 5.63447 10.3103 5.3739 10.1799C4.87296 9.92643 4.40137 10.0587 3.93896 10.2001C3.57014 10.3122 3.37381 10.2295 3.19398 9.90071C2.838 9.25047 2.46183 9.09985 1.715 9.25782C1.26544 9.35333 0.815881 9.44701 0.366318 9.54069C0.252551 9.44885 0.25072 9.34966 0.347973 9.24496C0.80304 9.32394 1.22873 9.15863 1.65994 9.0723C2.47833 8.90882 2.9279 9.07046 3.34076 9.77029C3.48756 10.0183 3.6105 10.0917 3.90776 10.0054C4.37567 9.86948 4.85643 9.71886 5.3537 9.97602C5.57756 10.0917 5.7941 9.95581 5.91704 9.74642C6.00695 9.59396 6.11705 9.46905 6.26018 9.37354C6.60148 9.14577 6.76296 9.21557 6.7703 9.62518C6.77764 10.0091 6.81066 10.3709 7.08774 10.6648Z" fill="#E9F3E8"/>
<path d="M14.8148 24.5642C14.646 24.8636 14.4075 25.2438 14.2111 25.3687C13.8074 25.6277 13.2368 25.6461 12.7285 25.7049C12.589 25.7214 12.4643 25.4991 12.4624 25.31C12.4624 25.141 12.4165 25.0014 12.2606 24.9261C12.0385 24.8177 12.0587 24.6671 12.1156 24.4595C12.1982 24.1656 12.1395 24.026 11.756 24.1215C11.1468 24.274 10.5449 24.2501 10.1063 23.6807C9.90817 23.4217 9.62008 23.3831 9.32098 23.3868C9.29162 23.3151 9.26227 23.2435 9.23291 23.1719C9.70082 23.1719 10.1119 23.2876 10.3816 23.7137C10.4238 23.7817 10.5302 23.8846 10.5688 23.8699C10.9908 23.7082 11.3541 24.1527 11.8165 23.9323C12.2533 23.7248 12.4239 23.9084 12.3358 24.3787C12.2936 24.6009 12.2844 24.7626 12.5193 24.8746C12.5817 24.904 12.6478 25.0142 12.6441 25.0822C12.6166 25.6571 12.8514 25.6204 13.2056 25.3357C13.2331 25.3136 13.268 25.2714 13.2863 25.2769C14.0221 25.5212 14.2497 24.7901 14.7231 24.5311C14.7414 24.5219 14.78 24.5513 14.8093 24.5624L14.8148 24.5642Z" fill="#E9F3E8"/>
<path d="M16.6184 36.627C16.9432 36.3478 17.101 36.0392 16.901 35.5983C16.7909 35.354 16.701 35.1924 16.3909 35.2346C15.9505 35.2934 15.8899 34.9205 15.8606 34.6358C15.8294 34.3346 15.9743 34.0738 16.3285 34.0095C16.8154 33.9201 16.986 33.6458 16.8404 33.1866C16.8294 33.1517 16.8771 33.1002 16.8973 33.0562C16.9395 33.058 16.9799 33.0598 17.0221 33.0617C17.0386 33.126 17.0423 33.1976 17.0735 33.2545C17.3781 33.8074 17.1909 34.1638 16.5505 34.2023C16.2643 34.2207 16.0257 34.2574 16.0532 34.6175C16.0753 34.8967 16.156 35.0895 16.5267 35.0399C16.9781 34.9812 17.0496 35.3797 17.0863 35.6847C17.1469 36.188 17.3505 36.5021 17.8772 36.5663C18.0845 36.5921 18.1946 36.7482 18.2809 36.9209C17.9928 37.0292 17.7873 36.7739 17.5983 36.6766C17.2038 36.4745 16.923 36.5131 16.6184 36.7757C16.6184 36.7261 16.6147 36.6766 16.6129 36.6288L16.6184 36.627Z" fill="#E9F3E8"/>
<path d="M30.2632 39.2477C30.3696 37.9435 30.4779 36.6394 30.5843 35.3352C30.6375 35.3352 30.6889 35.3334 30.7421 35.3315C30.7201 36.3253 30.5146 37.3061 30.5531 38.3017C30.5898 38.6581 30.8889 39.0952 30.2632 39.2477Z" fill="#E9F3E8"/>
<path d="M15.3468 33.4488C15.1614 33.3974 14.9944 33.3882 14.9467 33.6343C14.8568 33.4929 14.7651 33.3496 14.6752 33.2063C14.9302 32.9621 14.9321 32.2751 14.6458 32.0436C14.3742 31.825 14.3577 31.6873 14.699 31.5605C14.7302 31.5918 14.7596 31.6212 14.7908 31.6505C14.7302 31.7148 14.6568 31.8122 14.7486 31.8636C15.0715 32.0436 15.055 32.3394 15.0238 32.6277C14.9853 32.9767 15.1211 33.2155 15.4147 33.3827C15.3926 33.4047 15.3706 33.4268 15.3468 33.447V33.4488Z" fill="#E9F3E8"/>
<path d="M25.2646 9.08349C25.3417 8.69959 25.8353 8.59305 25.8628 8.17793C25.9748 8.0567 26.0794 8.05854 26.1766 8.1963C25.9931 8.64081 25.5913 8.8943 25.2793 9.22676C25.2738 9.17901 25.2702 9.13125 25.2646 9.08533V9.08349Z" fill="#E9F3E8"/>
<path d="M6.30811 20.9712C6.48793 21.2798 6.94115 20.9363 7.09896 21.3018C6.82188 21.2247 6.44389 21.39 6.30811 20.9712Z" fill="#E9F3E8"/>
<path d="M20.47 38.3036C20.4314 38.0997 20.3911 37.8958 20.3525 37.6919C20.492 37.7103 20.5361 37.8186 20.5783 37.9307C20.5544 38.0593 20.6039 38.208 20.47 38.3054V38.3036Z" fill="#E9F3E8"/>
<path d="M6.37029 2.0079C6.20881 2.12546 6.02899 2.18791 5.82715 2.17689C5.97211 2.00239 6.14826 1.93076 6.37029 2.0079Z" fill="#E9F3E8"/>
<path d="M2.2212 8.58345C2.05238 8.6606 1.90559 8.58896 1.75879 8.51549C1.92393 8.46773 2.08725 8.42732 2.2212 8.58345Z" fill="#E9F3E8"/>
<path d="M1.47803 8.48631C1.29087 8.53407 1.11839 8.50284 0.955078 8.40365C1.1349 8.3908 1.32573 8.32467 1.47803 8.48631Z" fill="#E9F3E8"/>
<path d="M0.3577 9.75537C0.363242 9.92436 0.370625 10.0933 0.376166 10.2623C0.256108 10.097 0.252419 9.92803 0.3577 9.75537Z" fill="#E9F3E8"/>
<path d="M0.394492 10.6831C0.400033 10.8172 0.40557 10.9513 0.412958 11.0854C0.291053 10.9568 0.28921 10.8227 0.394492 10.6831Z" fill="#E9F3E8"/>
<path d="M7.62891 21.5923C7.74451 21.5923 7.81975 21.6584 7.88764 21.7411C7.75552 21.7723 7.68395 21.6988 7.62891 21.5923Z" fill="#E9F3E8"/>
<path d="M6.24235 20.6021C6.25528 20.7031 6.27005 20.8023 6.28298 20.9033C6.14999 20.8188 6.15185 20.7159 6.24235 20.6021Z" fill="#E9F3E8"/>
<path d="M2.71867 8.55236C2.6361 8.6791 2.52968 8.68278 2.40674 8.62033C2.49849 8.54318 2.60857 8.54685 2.71867 8.55236Z" fill="#E9F3E8"/>
<path d="M5.82342 2.17886C5.74452 2.28723 5.63441 2.29091 5.51514 2.27621C5.5922 2.166 5.70598 2.16416 5.82342 2.17886Z" fill="#E9F3E8"/>
<path d="M0.859927 8.39666C0.790199 8.39115 0.718654 8.3838 0.648926 8.37829C0.727829 8.2938 0.797539 8.31033 0.859927 8.39666Z" fill="#E9F3E8"/>
<path d="M7.21045 21.4048C7.25632 21.425 7.30222 21.4452 7.34626 21.4654C7.30038 21.4452 7.25449 21.425 7.21045 21.4048Z" fill="#E9F3E8"/>
<path d="M7.42188 21.4912C7.46958 21.5133 7.51546 21.5353 7.56317 21.5573C7.49711 21.5757 7.45307 21.5482 7.42188 21.4912Z" fill="#E9F3E8"/>
<path d="M2.95191 8.36896C2.91338 8.40018 2.87484 8.42957 2.83447 8.4608C2.84548 8.39467 2.88585 8.36528 2.95191 8.36896Z" fill="#E9F3E8"/>
<path d="M0.442033 8.34846C0.408786 8.35948 0.375532 8.37234 0.342285 8.38336C0.360756 8.33009 0.39401 8.31907 0.442033 8.34846Z" fill="#E9F3E8"/>
<path d="M24.0224 12.4629C23.6976 12.6429 23.415 12.3196 23.0994 12.3821C23.1159 12.3049 23.1728 12.18 23.1453 12.158C22.8847 11.9431 22.7012 11.5941 22.2553 11.7006C21.6957 11.8329 21.3874 11.5371 21.2516 11.0191C21.1727 10.7161 21.002 10.4589 20.8461 10.1962C20.791 10.1026 20.6736 9.92072 20.5855 10.0364C20.2846 10.435 19.9359 10.3138 19.5396 10.2642C19.2772 10.2311 19.1047 10.2073 19.079 9.93174C19.0497 9.59744 18.8662 9.64152 18.6753 9.76275C18.3194 9.98868 18.0698 9.85643 17.8569 9.55335C18.2001 9.68928 18.5322 9.67458 18.8588 9.4909C19.002 9.41008 19.1102 9.45784 19.2056 9.59376C19.5799 10.1375 19.8901 10.2146 20.4332 9.89317C20.6332 9.77377 20.791 9.79398 20.9158 9.98317C21.1213 10.2954 21.3507 10.5912 21.4369 10.9732C21.5213 11.3479 21.7287 11.5702 22.1636 11.4967C22.4957 11.4416 22.804 11.5041 23.0462 11.7814C23.2994 12.0735 23.4884 11.9761 23.6866 11.6822C24.1361 11.0136 24.5013 10.3028 24.8554 9.58458C24.9545 9.38437 25.0261 9.16946 25.2628 9.08496C25.2683 9.13272 25.272 9.17864 25.2775 9.2264C24.749 10.0328 24.4664 10.9769 23.8536 11.7392C23.604 12.0478 23.8976 12.2149 24.1251 12.3674C24.0903 12.4004 24.0554 12.4317 24.0205 12.4647L24.0224 12.4629Z" fill="#E9F3E8"/>
<path d="M31.5953 24.996C31.643 24.0316 31.6541 23.0636 31.7477 22.103C31.8633 20.9017 31.2082 20.1798 30.2907 19.6177C29.9641 19.4175 29.8173 19.1806 29.7659 18.8077C29.6118 17.7037 29.7237 16.5869 29.5806 15.483C29.6228 15.4738 29.6631 15.4628 29.7054 15.4536L29.7017 15.461C29.698 15.5032 29.6943 15.5455 29.6925 15.5877C29.7145 16.3904 29.7347 17.1931 29.7641 17.994C29.7696 18.1538 29.7072 18.343 29.8907 18.4605C30.054 18.7232 29.8632 19.1108 30.1916 19.3165C30.5806 19.502 30.8779 19.8032 31.1917 20.0898C31.8944 20.729 32.0321 21.5097 31.9036 22.4115C31.8137 23.0453 31.8284 23.6918 31.7954 24.3329C31.7825 24.5698 31.777 24.8086 31.5972 24.996H31.5953Z" fill="#E9F3E8"/>
<path d="M29.7052 15.4536C29.663 15.4628 29.6227 15.4738 29.5805 15.483C29.1841 15.1413 28.6042 15.0679 28.2886 14.5995C28.2501 14.5425 28.0941 14.5352 28.0024 14.5517C27.5969 14.6233 27.2666 14.5095 26.9968 14.199C26.9436 14.1366 26.8482 14.0484 26.7932 14.0594C26.0555 14.2211 25.6371 13.6315 25.0903 13.3467C25.0903 13.3008 25.0903 13.2549 25.0922 13.209C25.7417 13.738 26.6409 13.7325 27.2996 14.2413C27.4262 14.3386 27.5583 14.4084 27.7216 14.3901C28.6244 14.2927 29.063 15.066 29.7071 15.4518L29.7052 15.4536Z" fill="#E9F3E8"/>
<path d="M31.1235 29.8046C31.1878 28.9009 31.1437 27.9843 31.4648 27.1118C31.5254 27.9586 31.3474 28.7888 31.2905 29.6283C31.285 29.722 31.2061 29.7697 31.1235 29.8028V29.8046Z" fill="#E9F3E8"/>
<path d="M29.4761 33.0118C29.6247 32.9787 29.7715 32.942 29.9201 32.9144C30.9312 32.7326 30.7569 32.9456 30.8982 31.8325C30.9385 31.8821 30.9789 31.9299 31.0193 31.9795C30.9954 32.4534 31.0468 32.9383 30.8284 33.3846C30.7917 32.9861 30.5844 32.9401 30.2376 33.0577C30.0009 33.1385 29.7366 33.1385 29.4834 33.1734C29.4816 33.1183 29.4779 33.065 29.4761 33.0099V33.0118Z" fill="#E9F3E8"/>
<path d="M31.019 31.9792C30.9787 31.9296 30.9383 31.8819 30.8979 31.8323C30.9493 31.3602 30.8594 30.8643 31.1438 30.4326C31.1714 30.9543 31.153 31.4704 31.019 31.9792Z" fill="#E9F3E8"/>
<path d="M29.8282 15.6834C29.8484 16.6092 29.8704 17.5331 29.8906 18.4589C29.7071 18.3432 29.7695 18.154 29.7639 17.9923C29.7346 17.1896 29.7144 16.3888 29.6924 15.5861C29.7199 15.5824 29.7493 15.5806 29.7768 15.5806C29.7933 15.6155 29.8117 15.6485 29.8282 15.6834Z" fill="#E9F3E8"/>
<path d="M30.7418 35.3319C30.6886 35.3319 30.6372 35.3337 30.584 35.3355C30.6097 34.9223 30.6207 34.5053 30.6702 34.0957C30.7014 33.8349 30.7895 34.0038 30.8519 34.0957C30.8152 34.5071 30.7803 34.9204 30.7436 35.3319H30.7418Z" fill="#E9F3E8"/>
<path d="M25.0903 13.2087C25.0903 13.2546 25.0903 13.3006 25.0884 13.3465C24.5324 13.2932 24.1288 13.0563 24.0205 12.4611C24.0554 12.4281 24.0902 12.3968 24.1251 12.3638C24.2682 12.8505 24.6095 13.1077 25.0903 13.2069V13.2087Z" fill="#E9F3E8"/>
<path d="M29.7774 15.5822C29.7497 15.5822 29.7201 15.584 29.6924 15.5877C29.6961 15.5454 29.6998 15.5032 29.7035 15.4609C29.7293 15.5013 29.7534 15.5418 29.7774 15.5822Z" fill="#E9F3E8"/>
<path d="M23.1231 12.4834C23.0424 12.8012 23.0809 13.0584 23.3672 13.2916C23.6534 13.5231 23.5984 13.7876 23.2865 14.0043C22.4222 14.6068 22.3836 15.0936 23.0406 15.8761C23.3158 16.203 23.347 16.6328 23.4259 17.0241C23.4846 17.3125 23.2461 17.487 22.9396 17.4851C22.7176 17.4851 22.4956 17.4686 22.2736 17.4484C21.8974 17.4135 21.6038 17.4612 21.3909 17.8653C21.2368 18.1592 20.8973 18.3631 20.5432 18.3833C20.1689 18.4054 19.9688 18.6534 19.734 18.8719C19.6275 18.9711 19.5578 19.0868 19.6661 19.2301C20.0202 19.6967 19.5982 19.8032 19.3266 19.7977C18.7908 19.7885 18.2366 20.0053 17.7155 19.715C17.5614 19.6287 17.4917 19.7444 17.444 19.8546C17.2861 20.2202 17.0201 20.5453 17.132 21.0027C17.1889 21.2396 17.1229 21.5078 17.1155 21.7631C17.1137 21.8641 17.0806 22.0148 17.132 22.057C17.6568 22.4997 17.6293 23.1573 17.7963 23.734C17.9321 24.2024 18.2422 24.2851 18.6605 24.2337C19.4973 24.1308 19.5376 24.1749 19.5009 24.9923C19.4881 25.266 19.6642 25.2843 19.8771 25.2311C20.4881 25.0786 20.723 25.2678 20.7377 25.8721C20.7542 26.5719 20.7194 27.2644 20.6038 27.9551C20.5615 28.2049 20.6661 28.4198 20.8258 28.6163C21.1781 29.0498 21.523 29.4925 21.8699 29.9315C21.8405 29.9627 21.8111 29.9958 21.7818 30.027C21.4955 29.7258 21.2588 29.2886 20.7359 29.656C21.1506 29.228 20.8533 28.9139 20.5781 28.5778C20.2111 28.1296 20.4441 27.6116 20.4991 27.1432C20.556 26.6601 20.5083 26.1862 20.5175 25.7086C20.523 25.3872 20.301 25.3229 20.0202 25.3817C19.4275 25.5047 19.2385 25.3505 19.3578 24.7994C19.4569 24.3457 19.1688 24.3549 18.8954 24.3806C17.8715 24.478 17.8018 24.4394 17.5504 23.4659C17.4109 22.9295 17.2696 22.3987 16.8916 21.9652C16.8292 21.8935 16.7889 21.8329 16.6953 21.855C16.5779 21.8825 16.5558 21.9541 16.5558 22.0809C16.5595 22.7311 16.4384 22.8744 15.8072 22.992C15.6714 23.0177 15.5081 23.0067 15.4732 23.172C15.4273 23.3961 15.6512 23.3446 15.7521 23.3722C16.0329 23.4512 16.0769 23.5889 15.8365 23.734C15.4512 23.9655 15.1649 24.309 14.8071 24.5698C14.8622 24.0445 15.3558 23.9049 15.6934 23.5908C15.5026 23.4806 15.198 23.4824 15.2567 23.1848C15.3099 22.913 15.5374 22.8138 15.7943 22.7899C16.2494 22.7495 16.5081 22.564 16.365 22.0588C16.2934 21.8072 16.4678 21.7025 16.6549 21.6639C16.9192 21.6107 16.965 21.4453 16.9687 21.2194C16.9742 20.8741 17.0458 20.4847 17.0164 20.1963C16.9816 19.8491 16.8549 19.2999 16.3999 19.1052C16.0714 18.9638 15.9705 18.7544 15.998 18.4274C16.0531 17.7588 15.9705 17.6762 15.2806 17.6725C15.1264 17.6725 14.9741 17.6596 14.82 17.6541C14.8182 17.6008 14.8163 17.5476 14.8145 17.4943C14.9393 17.509 15.0659 17.5237 15.1906 17.5384C15.2439 17.5384 15.2989 17.5384 15.3521 17.5384C15.6145 17.4961 15.8769 17.4521 16.1393 17.4098C16.0861 17.8378 16.2916 18.2511 16.2109 18.6864C16.1925 18.7893 16.31 18.8885 16.4035 18.9013C16.7614 18.9472 16.8659 19.1934 16.9357 19.4965C16.9962 19.7555 17.0825 20.0144 17.3614 19.6232C17.4403 19.5112 17.6219 19.4028 17.7155 19.4689C18.1761 19.8032 18.6752 19.5663 19.1541 19.6048C19.4019 19.625 19.6863 19.6379 19.4532 19.2356C19.3523 19.0593 19.4459 18.8848 19.5725 18.7727C19.8459 18.5303 20.0606 18.2107 20.4991 18.1941C20.8111 18.1813 21.134 18.0086 21.2625 17.7331C21.4662 17.3014 21.8332 17.2959 22.191 17.2537C22.4075 17.2298 22.6314 17.2812 22.8534 17.2941C23.1782 17.3125 23.3066 17.1618 23.202 16.8533C23.0571 16.4234 22.9874 15.9605 22.6185 15.6262C22.4754 15.4958 22.4038 15.2975 22.38 15.0752C22.3121 14.4525 22.7525 14.177 23.1525 13.8739C23.2956 13.7655 23.3855 13.6719 23.2974 13.4974C23.2314 13.3651 23.1415 13.2659 22.9745 13.3706C22.446 13.7031 21.9983 13.4551 21.5451 13.1814C21.3909 13.0877 21.2386 12.8747 21.0478 12.9739C20.6294 13.1906 20.1267 13.3412 19.8881 13.771C19.6422 14.2156 19.3009 14.4103 18.8275 14.4488C18.7486 14.3111 18.8605 14.2376 18.9468 14.2339C19.411 14.2156 19.6386 13.9308 19.7982 13.5396C19.8331 13.4533 19.9321 13.3816 20.0166 13.3302C20.6368 12.9426 21.2019 12.5404 21.9726 13.1796C22.4754 13.5965 22.8075 13.3633 22.8993 12.7094C22.9103 12.6285 22.9525 12.5532 22.98 12.4761C23.0277 12.4779 23.0736 12.4797 23.1213 12.4834H23.1231Z" fill="#E9F3E8"/>
<path d="M14.8182 17.4961C14.8182 17.5494 14.8219 17.6027 14.8237 17.6559C14.4384 17.6706 14.0292 17.588 13.7741 18.0196C13.7025 18.1409 13.5172 18.2217 13.3631 18.1702C13.1135 18.0894 12.9575 18.2015 12.7649 18.3392C12.4383 18.5725 12.1282 18.4311 12.0456 18.027C11.9814 17.7092 11.9557 17.3841 11.9116 17.0626C11.9391 16.9837 11.9685 16.9047 11.996 16.8257C12.1814 17.1692 12.1447 17.5567 12.2107 17.9241C12.2768 18.2896 12.4621 18.365 12.73 18.1243C12.9172 17.9553 13.1025 17.8855 13.3319 17.9682C13.4934 18.027 13.6218 17.9517 13.6915 17.847C13.9778 17.4227 14.409 17.509 14.8145 17.498L14.8182 17.4961Z" fill="#E9F3E8"/>
<path d="M8.20161 14.4524C8.83834 14.0979 9.43654 14.3256 9.95032 14.6765C10.2916 14.9097 10.6036 14.8822 10.8751 14.7389C11.1816 14.5773 11.4495 14.625 11.7449 14.671C11.6807 14.7371 11.6165 14.8032 11.5541 14.8693C11.2109 14.6397 10.9485 14.9704 10.6439 15.0144C10.3999 15.0493 10.2109 15.0842 9.9962 14.9006C9.61453 14.5754 9.07872 14.6765 8.64016 14.4836C8.58879 14.4616 8.46768 14.5699 8.39061 14.6324C8.14473 14.8418 8.07317 14.7077 8.04932 14.4671C8.1007 14.4616 8.15023 14.456 8.20161 14.4505V14.4524Z" fill="#E9F3E8"/>
<path d="M11.5521 14.8711C11.6164 14.8049 11.6806 14.7388 11.743 14.6727C11.7944 14.4119 11.809 14.1529 12.0732 13.9692C12.6146 13.5926 12.6036 13.5743 12.0219 13.3042C12.0549 13.273 12.0898 13.2436 12.1228 13.2124C12.3191 13.2822 12.5999 13.2363 12.6384 13.532C12.6696 13.769 12.4898 13.9288 12.3081 14.0041C11.9081 14.1694 11.9099 14.5551 11.8659 14.86C11.831 15.1007 11.7558 15.3321 11.6824 15.6168C12.1118 15.5011 12.1338 15.7197 12.0769 16.0044C12.0219 16.0044 11.9687 16.0081 11.9136 16.0081C11.3925 15.7583 11.7081 15.2403 11.5503 14.8729L11.5521 14.8711Z" fill="#E9F3E8"/>
<path d="M8.20164 14.4525C8.15027 14.458 8.10073 14.4635 8.04935 14.469C7.82732 14.0006 7.21811 14.1769 6.94287 13.7985C6.99608 13.7894 7.0493 13.7802 7.10251 13.771C7.49703 13.9528 8.05118 13.8775 8.20164 14.4525Z" fill="#E9F3E8"/>
<path d="M7.10224 13.7727C7.04902 13.7819 6.99581 13.791 6.9426 13.8002C6.92058 13.8002 6.89856 13.7947 6.87838 13.7855C6.86859 13.4843 6.79579 13.3324 6.66001 13.33C6.66001 13.33 6.62699 13.33 6.62883 13.33C6.60864 13.3171 6.58846 13.3153 6.56461 13.3263C6.54626 13.308 6.52606 13.3024 6.50037 13.308C6.46183 13.0967 6.60864 13.0581 6.76094 13.0379C6.93526 13.0141 7.00131 13.1481 7.03251 13.2767C7.07288 13.4384 7.08022 13.6074 7.1004 13.7727H7.10224Z" fill="#E9F3E8"/>
<path d="M11.9154 16.0065C11.9705 16.0065 12.0237 16.0028 12.0787 16.001C11.9595 16.2673 12.0531 16.5539 11.9962 16.8257C11.9687 16.9047 11.9393 16.9837 11.9118 17.0627C11.7007 16.71 11.9154 16.3573 11.9136 16.0065H11.9154Z" fill="#E9F3E8"/>
<path d="M17.8701 9.55196C17.3233 9.23235 16.7544 9.23602 16.1269 9.19561C15.3415 9.14602 14.6131 9.29847 13.8589 9.34072C14.4608 9.03397 15.0534 8.68681 15.7654 9.02846C15.9782 9.13132 16.1893 9.05234 16.4094 8.99172C17.0095 8.82641 17.6627 9.09275 17.8701 9.55196Z" fill="#E9F3E8"/>
<path d="M20.7362 29.6558C20.7087 29.7788 20.6096 29.8339 20.5105 29.8082C19.5472 29.5492 19.0462 30.2638 18.4756 30.7946C18.2609 30.9948 18.1306 31.2373 17.7654 31.1271C17.448 31.0316 17.6535 31.4265 17.481 31.4926C17.448 31.4595 17.415 31.4246 17.3801 31.3916C17.3691 31.2226 17.3508 31.0536 17.3471 30.8828C17.3379 30.2858 17.3397 30.2876 16.7599 30.4934C16.3819 30.6275 16.0222 30.6954 15.8222 30.216C15.7837 30.1223 15.6975 30.1131 15.6094 30.1187C15.6589 29.7641 15.8443 29.9386 15.9195 30.0691C16.1599 30.486 16.4608 30.4566 16.8241 30.2656C17.2003 30.0672 17.448 30.1462 17.6003 30.5889C17.7691 31.0775 18.0077 31.0959 18.3086 30.6771C18.727 30.0966 19.3729 29.8431 19.9637 29.5107C20.25 29.349 20.4592 29.7109 20.7381 29.6558H20.7362Z" fill="#E9F3E8"/>
<path d="M15.2147 31.3513C15.3028 31.0354 15.4643 30.7378 15.3982 30.3888C15.3707 30.2473 15.4239 30.1206 15.6074 30.1206C15.4588 30.5321 15.723 31.0647 15.2386 31.377L15.2129 31.3531L15.2147 31.3513Z" fill="#E9F3E8"/>
<path d="M14.6992 31.5627C14.802 31.4341 14.9561 31.4635 15.0919 31.4341C15.1103 31.4525 15.1286 31.469 15.1469 31.4873C15.0644 31.6214 14.9029 31.5829 14.791 31.6527C14.7598 31.6214 14.7304 31.5921 14.6992 31.5608V31.5627Z" fill="#E9F3E8"/>
<path d="M15.0917 31.4342C15.1339 31.4067 15.1742 31.3791 15.2146 31.3516L15.2403 31.3754C15.2091 31.414 15.1761 31.4508 15.1449 31.4893C15.1266 31.471 15.1082 31.4526 15.0898 31.4361L15.0917 31.4342Z" fill="#E9F3E8"/>
<path d="M9.99231 10.8119C9.94093 10.9405 9.74459 11.0764 10.0841 11.1334C10.3391 11.1756 10.6841 11.0397 10.8327 11.4015C10.4492 11.2619 9.97581 11.4566 9.65652 11.0819C9.59964 11.0158 9.52991 11.0415 9.47487 11.0764C8.93356 11.4236 8.51334 10.9497 8.03809 10.8652C8.32617 10.8376 8.61426 10.7991 8.884 10.9625C9.04547 11.0617 9.20697 11.0415 9.36477 10.9368C9.55561 10.8101 9.76478 10.7568 9.99415 10.8101L9.99231 10.8119Z" fill="#E9F3E8"/>
<path d="M10.0914 10.6006C10.1776 10.7292 10.0803 10.7696 9.99044 10.8137C9.93355 10.6998 9.98127 10.6355 10.0914 10.6006Z" fill="#E9F3E8"/>
<path d="M11.4585 11.791C11.7814 11.971 11.798 12.3127 11.8714 12.6139C11.9246 12.8307 11.9668 13.0419 12.1246 13.2109C12.0916 13.2421 12.0567 13.2715 12.0237 13.3027C11.5943 12.8894 11.6457 12.2961 11.4585 11.791Z" fill="#E9F3E8"/>
<path d="M11.0513 11.4673C11.1999 11.5591 11.3816 11.6124 11.4605 11.7924C11.2531 11.8916 11.1596 11.7171 11.0366 11.6142C11.0421 11.5646 11.0458 11.5169 11.0513 11.4673Z" fill="#E9F3E8"/>
<path d="M11.0511 11.4675C11.0456 11.5171 11.042 11.5648 11.0365 11.6144C10.9447 11.563 10.8383 11.5263 10.8291 11.3977C10.9447 11.2893 10.9887 11.4124 11.053 11.4675H11.0511Z" fill="#E9F3E8"/>
<path d="M23.0005 32.7216C23.4775 33.0118 23.9253 33.3516 24.4537 33.5536C24.4611 33.6143 24.4684 33.6749 24.4758 33.7355C24.318 33.6712 24.1583 33.6106 24.0042 33.539C23.5528 33.3296 23.2996 33.4122 23.0684 33.8347C23.0133 33.9357 23.0757 33.9908 23.1032 34.0661C23.2665 34.5235 23.1142 34.9037 22.7087 35.1021C22.45 35.2288 22.4133 35.6458 22.0371 35.5742C22.2188 35.3317 22.3784 35.0727 22.6702 34.9313C22.7674 34.8835 22.8757 34.7733 22.9014 34.6723C23.017 34.1984 22.8261 33.6639 23.2629 33.2432C23.3931 33.1183 23.0775 33.0081 22.9913 32.8722C22.9949 32.8208 22.9986 32.7712 23.0023 32.7197L23.0005 32.7216Z" fill="#E9F3E8"/>
<path d="M29.4761 33.0117C29.4779 33.0668 29.4816 33.1201 29.4834 33.1752C28.6797 33.3166 27.8797 33.493 27.0576 33.4893C27.8228 33.1219 28.6669 33.1532 29.4761 33.0117Z" fill="#E9F3E8"/>
<path d="M21.4776 37.8811C21.2868 37.3833 21.3583 36.8598 21.351 36.3492C21.3473 36.1306 21.573 35.9469 21.8299 35.8955C21.4446 36.3051 21.5198 36.7974 21.5675 37.2915C21.5877 37.4899 21.6171 37.7011 21.4776 37.8793V37.8811Z" fill="#E9F3E8"/>
<path d="M24.4776 33.7359C24.4702 33.6753 24.4629 33.6146 24.4556 33.554C25.1015 33.554 25.7492 33.4695 26.3951 33.5669C26.1547 33.8461 25.8281 33.7047 25.5418 33.7304C25.1895 33.7616 24.8336 33.7359 24.4794 33.7359H24.4776Z" fill="#6BDBD1"/>
<path d="M26.3916 33.5114C26.4485 33.4085 26.5164 33.3773 26.6045 33.4783C26.5329 33.4893 26.4613 33.5003 26.3916 33.5114Z" fill="#6BDBD1"/>
<path d="M23.0002 32.7214C22.9965 32.7729 22.9929 32.8224 22.9892 32.8739C22.4773 32.602 22.1855 32.1134 21.8405 31.6818C21.6754 31.4742 21.769 31.2171 21.8956 31.0132C22.1268 30.644 22.1121 30.3225 21.7781 30.0286C21.8075 29.9974 21.8368 29.9643 21.8662 29.9331C22.2314 30.1664 22.3984 30.4878 22.1598 30.8827C21.8736 31.3567 22.0075 31.713 22.369 32.0583C22.5892 32.2677 22.7892 32.501 22.9984 32.7233L23.0002 32.7214Z" fill="#E9F3E8"/>
<path d="M20.3545 37.6941C19.9728 37.6923 19.5691 37.8484 19.4517 37.2111C19.3948 36.9025 19.1728 37.3874 18.9819 37.3176C18.9819 37.0953 19.0297 36.8914 19.2957 36.8712C19.5581 36.851 19.6609 37.0237 19.6756 37.257C19.6884 37.4609 19.7985 37.516 19.9838 37.5031C20.1416 37.4921 20.2958 37.5031 20.3563 37.6941H20.3545Z" fill="#E9F3E8"/>
<path d="M17.3801 31.3915C17.4131 31.4246 17.4462 31.4594 17.481 31.4925C17.3104 31.8342 16.9287 32.0858 17.037 32.5469C16.9911 32.5469 16.9452 32.5487 16.8975 32.5505L16.8993 32.5524C16.892 32.4293 16.8847 32.3062 16.8755 32.1832C17.0168 31.9021 17.125 31.599 17.3783 31.3896L17.3801 31.3915Z" fill="#E9F3E8"/>
<path d="M16.8975 32.5525C16.9433 32.5525 16.9892 32.5507 17.0369 32.5488C17.18 32.7233 17.1323 32.8923 17.0259 33.0613C16.9837 33.0595 16.9433 33.0576 16.9011 33.0558C16.9011 32.8886 16.8993 32.7215 16.8975 32.5543V32.5525Z" fill="#E9F3E8"/>
<path d="M16.877 32.1851C16.8843 32.3081 16.8916 32.4312 16.9008 32.5543C16.3742 32.6039 15.9613 32.7582 16.0604 33.4249C16.0696 33.4819 15.9723 33.5553 15.9228 33.6233C15.8916 33.5957 15.8622 33.5682 15.8311 33.5388C15.8494 32.9749 15.9008 32.4385 16.6513 32.3871C16.7302 32.3816 16.7999 32.2567 16.8751 32.1869L16.877 32.1851Z" fill="#E9F3E8"/>
<path d="M15.9228 33.6216C15.7815 33.853 15.6311 33.8494 15.4751 33.6381C15.5063 33.6051 15.5393 33.5702 15.5705 33.5371C15.6568 33.6198 15.7448 33.6087 15.8329 33.5371C15.8641 33.5647 15.8935 33.5922 15.9247 33.6216H15.9228Z" fill="#E9F3E8"/>
<path d="M15.4751 33.6384C15.4329 33.5759 15.3889 33.5135 15.3467 33.451C15.3705 33.4308 15.3926 33.4088 15.4146 33.3867C15.466 33.4363 15.5192 33.4877 15.5705 33.5373C15.5393 33.5704 15.5063 33.6053 15.4751 33.6384Z" fill="#E9F3E8"/>
<path d="M22.9819 12.4779C22.9966 12.4155 23.0315 12.3732 23.103 12.3751C23.1159 12.3971 23.1342 12.4191 23.1434 12.443C23.1471 12.454 23.1306 12.4706 23.1251 12.4834C23.0774 12.4816 23.0315 12.4798 22.9838 12.4761L22.9819 12.4779Z" fill="#E9F3E8"/>
<path d="M18.8295 14.4508C19.3029 14.4103 19.6423 14.2156 19.8901 13.773C20.1286 13.3431 20.6314 13.1925 21.0497 12.9758C21.2387 12.8766 21.3929 13.0915 21.547 13.1833C21.9984 13.457 22.448 13.705 22.9764 13.3725C23.1434 13.2678 23.2333 13.367 23.2994 13.4993C23.3875 13.6738 23.2994 13.7675 23.1544 13.8758C22.7562 14.1771 22.314 14.4544 22.3819 15.0771C22.4058 15.2975 22.4773 15.4978 22.6205 15.6282C22.9893 15.9643 23.059 16.4254 23.204 16.8552C23.3086 17.1638 23.1801 17.3162 22.8553 17.296C22.6333 17.2832 22.4094 17.2317 22.1929 17.2556C21.8333 17.296 21.4663 17.3015 21.2644 17.735C21.136 18.0105 20.8112 18.1832 20.5011 18.1961C20.0625 18.2126 19.8478 18.5322 19.5744 18.7747C19.4478 18.8867 19.3543 19.0612 19.4552 19.2375C19.6882 19.6417 19.4038 19.627 19.1561 19.6068C18.679 19.5682 18.178 19.8051 17.7175 19.4708C17.6239 19.4029 17.4422 19.5131 17.3633 19.6251C17.0844 20.0164 16.9982 19.7574 16.9376 19.4984C16.8679 19.1953 16.7651 18.951 16.4055 18.9032C16.3119 18.8904 16.1926 18.7912 16.2128 18.6883C16.2936 18.2548 16.088 17.8416 16.1412 17.4117V17.4228C16.3706 17.3658 16.6037 17.3181 16.8294 17.2501C16.9413 17.217 17.1046 17.116 17.0092 17.0021C16.7229 16.6586 16.8826 16.5833 17.222 16.5613C17.3211 16.5539 17.378 16.4566 17.3541 16.3758C17.2642 16.0708 17.5156 15.9294 17.6386 15.7274L17.6331 15.7329C17.8771 15.5492 17.9891 15.292 18.0276 14.9981C18.3157 14.9761 18.5524 14.8787 18.6331 14.5665C18.7469 14.6106 18.8111 14.5665 18.8386 14.4544H18.8276L18.8295 14.4508Z" fill="#5FB290"/>
<path d="M17.6423 15.7253C17.5194 15.9292 17.268 16.0706 17.3579 16.3737C17.3818 16.4545 17.3249 16.5537 17.2258 16.5592C16.8863 16.5813 16.7267 16.6566 17.0129 17.0001C17.1065 17.114 16.9451 17.2132 16.8331 17.2481C16.6074 17.316 16.3744 17.3638 16.145 17.4207C16.1762 17.0258 16.6001 17.2683 16.756 17.0185C16.4735 16.7099 16.5671 16.4913 16.9799 16.4105C17.1561 16.3774 17.2074 16.2892 17.1891 16.1313C17.1469 15.7786 17.3414 15.6904 17.6442 15.7253H17.6423Z" fill="#E9F3E8"/>
<path d="M18.6368 14.5645C18.5542 14.8767 18.3193 14.9741 18.0312 14.9961C18.167 14.7592 18.3909 14.6471 18.6368 14.5645Z" fill="#E9F3E8"/>
<path d="M18.0316 14.9961C17.9949 15.2918 17.8829 15.5471 17.637 15.7308C17.6058 15.3984 17.7728 15.1724 18.0316 14.9961Z" fill="#E9F3E8"/>
<path d="M18.8408 14.4525C18.8132 14.5664 18.749 14.6104 18.6353 14.5645C18.672 14.469 18.7013 14.3625 18.8408 14.4525Z" fill="#E9F3E8"/>
</svg>
