<svg id="Government_Service" data-name="Government Service" xmlns="http://www.w3.org/2000/svg" width="64" height="64" viewBox="0 0 64 64">
  <rect id="Rectangle_156001" data-name="Rectangle 156001" width="64" height="64" fill="none"/>
  <g id="Group_184933" data-name="Group 184933" transform="translate(20853.148 16719.461)">
    <rect id="Rectangle_155956" data-name="Rectangle 155956" width="8.597" height="14.328" transform="translate(-20838.744 -16684.139)" fill="#e9f3e8"/>
    <rect id="Rectangle_155957" data-name="Rectangle 155957" width="8.597" height="14.328" transform="translate(-20812.096 -16684.139)" fill="#e9f3e8"/>
    <rect id="Rectangle_155958" data-name="Rectangle 155958" width="2.866" height="2.866" transform="translate(-20809.227 -16675.541)" fill="#54a88e"/>
    <rect id="Rectangle_155959" data-name="Rectangle 155959" width="2.866" height="2.866" transform="translate(-20809.227 -16681.271)" fill="#54a88e"/>
    <path id="Path_84918" data-name="Path 84918" d="M2484.871,20.483l-2.866,2.866,2.866,2.866h-8.6V20.483Z" transform="translate(-23297.396 -16725.541)" fill="#ffc941"/>
    <path id="Path_84919" data-name="Path 84919" d="M2433.314,74.814a8.6,8.6,0,0,0-8.56,7.794h17.119a8.6,8.6,0,0,0-8.56-7.794" transform="translate(-23254.438 -16770.846)" fill="#74c1a7"/>
    <rect id="Rectangle_155960" data-name="Rectangle 155960" width="4.728" height="11.463" transform="translate(-20819.688 -16684.139)" fill="#74c1a7"/>
    <rect id="Rectangle_155961" data-name="Rectangle 155961" width="4.728" height="11.463" transform="translate(-20827.281 -16684.139)" fill="#74c1a7"/>
    <path id="Path_84920" data-name="Path 84920" d="M2422.75,126.933h-4.728V115.47h4.728Zm-12.322-11.463h4.729v11.463h-4.729Zm18.054,0v-3.3l-11.893-2.866-11.892,2.866v3.3h2.865v11.463H2404.7V129.8h23.785v-2.866h-2.866V115.47Z" transform="translate(-23237.709 -16799.609)" fill="#958374"/>
    <rect id="Rectangle_155962" data-name="Rectangle 155962" width="2.866" height="2.866" transform="translate(-20835.879 -16675.541)" fill="#54a88e"/>
    <rect id="Rectangle_155963" data-name="Rectangle 155963" width="2.866" height="2.866" transform="translate(-20835.879 -16681.271)" fill="#54a88e"/>
    <path id="Path_84921" data-name="Path 84921" d="M2423.134,80.622a8.195,8.195,0,0,1,16.317,0,.4.4,0,1,0,.8-.074,9,9,0,0,0-17.922,0,.4.4,0,1,0,.8.074Z" transform="translate(-23252.412 -16768.822)" fill="#033726"/>
    <path id="Path_84922" data-name="Path 84922" d="M2473.849,52.957v3.3a.4.4,0,1,0,.806,0v-3.3a.4.4,0,0,0-.806,0" transform="translate(-23295.371 -16752.283)" fill="#033726"/>
    <path id="Path_84923" data-name="Path 84923" d="M2474.251,24.192v.4h8.6a.4.4,0,0,0,.285-.688l-2.581-2.581,2.581-2.581a.4.4,0,0,0-.285-.688h-8.6a.4.4,0,0,0-.4.4v5.731a.4.4,0,0,0,.4.4v-.4h.4V18.864h7.221l-2.178,2.178a.4.4,0,0,0,0,.57l2.178,2.178h-7.625v.4h0Z" transform="translate(-23295.371 -16723.52)" fill="#033726"/>
    <path id="Path_84924" data-name="Path 84924" d="M2426.458,113.449v-.4h-23.382v-2.575l3.024-.729,8.465-2.04,8.466,2.04,3.024.729v2.978h.4v0h.4v-3.3a.4.4,0,0,0-.309-.392l-3.333-.8-8.56-2.063a.4.4,0,0,0-.189,0l-8.56,2.063-3.333.8a.4.4,0,0,0-.308.392v3.3a.4.4,0,0,0,.4.4h23.785a.4.4,0,0,0,.4-.4Z" transform="translate(-23235.686 -16797.586)" fill="#033726"/>
    <path id="Path_84925" data-name="Path 84925" d="M2436.766,144.371v11.463a.4.4,0,1,0,.806,0V144.371a.4.4,0,0,0-.806,0" transform="translate(-23264.451 -16828.508)" fill="#033726"/>
    <path id="Path_84926" data-name="Path 84926" d="M2420.324,155.833V144.37a.4.4,0,0,0-.806,0v11.463a.4.4,0,0,0,.806,0" transform="translate(-23250.07 -16828.508)" fill="#033726"/>
    <path id="Path_84927" data-name="Path 84927" d="M2482.473,144.371v11.463a.4.4,0,1,0,.806,0V144.371a.4.4,0,0,0-.806,0" transform="translate(-23302.563 -16828.508)" fill="#033726"/>
    <path id="Path_84928" data-name="Path 84928" d="M2466.031,155.833V144.37a.4.4,0,1,0-.806,0v11.463a.4.4,0,1,0,.806,0" transform="translate(-23288.182 -16828.508)" fill="#033726"/>
    <path id="Path_84929" data-name="Path 84929" d="M2511.737,155.833V144.37a.4.4,0,0,0-.806,0v11.463a.4.4,0,0,0,.806,0" transform="translate(-23326.293 -16828.508)" fill="#033726"/>
    <path id="Path_84930" data-name="Path 84930" d="M2528.179,144.371v11.463a.4.4,0,1,0,.806,0V144.371a.4.4,0,0,0-.806,0" transform="translate(-23340.676 -16828.508)" fill="#033726"/>
    <path id="Path_84931" data-name="Path 84931" d="M2375.341,158.3h-6.761V144.773h5.328a.4.4,0,1,0,0-.806h-5.731a.4.4,0,0,0-.4.4V158.7a.4.4,0,0,0,.4.4h7.164a.4.4,0,1,0,0-.806Z" transform="translate(-23206.922 -16828.508)" fill="#033726"/>
    <path id="Path_84932" data-name="Path 84932" d="M2545.83,144.773h5.329V158.3h-5.329a.4.4,0,1,0,0,.806h5.731a.4.4,0,0,0,.4-.4V144.37a.4.4,0,0,0-.4-.4h-5.731a.4.4,0,1,0,0,.806Z" transform="translate(-23355.059 -16828.508)" fill="#033726"/>
    <path id="Path_84933" data-name="Path 84933" d="M2548.7,164.484v-.4h-2.463v-2.06h2.06v2.463h.4v0h.4v-2.866a.4.4,0,0,0-.4-.4h-2.866a.4.4,0,0,0-.4.4v2.866a.4.4,0,0,0,.4.4h2.866a.4.4,0,0,0,.4-.4Z" transform="translate(-23355.059 -16842.891)" fill="#033726"/>
    <path id="Path_84934" data-name="Path 84934" d="M2388.291,164.484v-.4h-2.463v-2.06h2.06v2.463h.4v0h.4v-2.866a.4.4,0,0,0-.4-.4h-2.866a.4.4,0,0,0-.4.4v2.866a.4.4,0,0,0,.4.4h2.866a.4.4,0,0,0,.4-.4Z" transform="translate(-23221.307 -16842.891)" fill="#033726"/>
    <path id="Path_84935" data-name="Path 84935" d="M2548.7,198.98v-.4h-2.463v-2.06h2.06v2.463h.4v0h.4v-2.866a.4.4,0,0,0-.4-.4h-2.866a.4.4,0,0,0-.4.4v2.866a.4.4,0,0,0,.4.4h2.866a.4.4,0,0,0,.4-.4Z" transform="translate(-23355.059 -16871.656)" fill="#033726"/>
    <path id="Path_84936" data-name="Path 84936" d="M2388.291,198.98v-.4h-2.463v-2.06h2.06v2.463h.4v0h.4v-2.866a.4.4,0,0,0-.4-.4h-2.866a.4.4,0,0,0-.4.4v2.866a.4.4,0,0,0,.4.4h2.866a.4.4,0,0,0,.4-.4Z" transform="translate(-23221.307 -16871.656)" fill="#033726"/>
    <path id="Path_84937" data-name="Path 84937" d="M2403.076,216.228v-2.463h22.979v2.06H2409.2a.4.4,0,1,0,0,.806h17.262a.4.4,0,0,0,.4-.4v-2.866a.4.4,0,0,0-.4-.4h-23.785a.4.4,0,0,0-.4.4v2.866a.4.4,0,0,0,.806,0" transform="translate(-23235.686 -16886.037)" fill="#033726"/>
    <path id="Path_84938" data-name="Path 84938" d="M2418.533,230.206H2411.3a.4.4,0,0,0,0,.806h7.236a.4.4,0,0,0,0-.806" transform="translate(-23242.877 -16900.42)" fill="#033726"/>
  </g>
</svg>
