<svg id="Layer_Visibility-off" data-name="Layer Visibility-off" xmlns="http://www.w3.org/2000/svg" width="25.716" height="21.512" viewBox="0 0 25.716 21.512">
  <path id="Icon_ionic-md-eye-off" data-name="Icon ionic-md-eye-off" d="M14.8,9.026a5.69,5.69,0,0,1,5.709,5.664,5.448,5.448,0,0,1-.409,2.073l3.333,3.305a13.392,13.392,0,0,0,3.916-5.378,13.519,13.519,0,0,0-17.1-7.7l2.465,2.448A5.644,5.644,0,0,1,14.8,9.026ZM3.393,5.94,6,8.522l.527.521A13.328,13.328,0,0,0,2.25,14.69,13.539,13.539,0,0,0,19.8,22.231l.482.476,3.344,3.305,1.451-1.44L4.838,4.5ZM9.7,12.2l1.77,1.753a3.209,3.209,0,0,0-.09.734A3.406,3.406,0,0,0,14.8,18.079a3.219,3.219,0,0,0,.739-.09l1.77,1.753A5.679,5.679,0,0,1,9.1,14.679,5.6,5.6,0,0,1,9.7,12.2Zm4.919-.88,3.6,3.569.022-.179a3.406,3.406,0,0,0-3.423-3.395Z" transform="translate(-2.25 -4.5)" fill="#918278"/>
  <path id="Icon_ionic-md-eye" data-name="Icon ionic-md-eye" d="M15.108,7.383A13.827,13.827,0,0,0,2.25,16.051a13.871,13.871,0,0,0,25.716,0A13.827,13.827,0,0,0,15.108,7.383Zm0,14.448a5.781,5.781,0,1,1,5.844-5.78A5.828,5.828,0,0,1,15.108,21.831Zm0-9.248a3.467,3.467,0,1,0,3.507,3.467A3.5,3.5,0,0,0,15.108,12.583Z" transform="translate(-2.25 -5.383)" fill="#918278" opacity="0"/>
</svg>
