<svg width="33" height="41" viewBox="0 0 33 41" fill="none" xmlns="http://www.w3.org/2000/svg">
<path d="M29.8713 39.8894H2.16946C1.29909 39.8894 0.593262 39.1849 0.593262 38.3162V2.1652C0.593262 1.29651 1.29909 0.592041 2.16946 0.592041H29.8713C30.7417 0.592041 31.4475 1.29651 31.4475 2.1652V38.3162C31.4475 39.1849 30.7417 39.8894 29.8713 39.8894Z" fill="#E9F3E8"/>
<path d="M25.1212 10.649H6.91695C6.57053 10.649 6.28906 10.368 6.28906 10.0223V7.76339C6.28906 7.41764 6.57053 7.13672 6.91695 7.13672H25.1212C25.4676 7.13672 25.7491 7.41764 25.7491 7.76339V10.0223C25.7491 10.368 25.4676 10.649 25.1212 10.649Z" fill="#65C3A5"/>
<path d="M29.8713 0H2.16945C0.972861 0 0 0.97098 0 2.16526V38.3163C0 39.5105 0.972861 40.4815 2.16945 40.4815H29.8713C31.0679 40.4815 32.0408 39.5105 32.0408 38.3163V2.16526C32.0408 0.97098 31.0679 0 29.8713 0ZM30.8543 38.3163C30.8543 38.8565 30.414 39.2973 29.8713 39.2973H2.16945C1.62817 39.2973 1.18649 38.8579 1.18649 38.3163V2.16526C1.18649 1.62502 1.62672 1.18419 2.16945 1.18419H29.8713C30.4126 1.18419 30.8543 1.62358 30.8543 2.16526V38.3163Z" fill="#033726"/>
<path d="M26.3423 7.76344C26.3423 7.09211 25.7953 6.54468 25.1212 6.54468H6.91693C6.2443 6.54468 5.6958 7.09067 5.6958 7.76344V10.0223C5.6958 10.6937 6.24286 11.2411 6.91693 11.2411H19.6507C19.9783 11.2411 20.2439 10.976 20.2439 10.649C20.2439 10.322 19.9783 10.0569 19.6507 10.0569H6.91693C6.89816 10.0569 6.88372 10.0411 6.88372 10.0238V7.76489C6.88372 7.74616 6.89961 7.73175 6.91693 7.73175H25.1212C25.1399 7.73175 25.1544 7.7476 25.1544 7.76489V10.0238C25.1544 10.0425 25.1385 10.0569 25.1212 10.0569H22.3758C22.0482 10.0569 21.7826 10.322 21.7826 10.649C21.7826 10.976 22.0482 11.2411 22.3758 11.2411H25.1212C25.7938 11.2411 26.3423 10.6951 26.3423 10.0223V7.76344Z" fill="#033726"/>
<path d="M9.24488 31.456C8.76134 32.5293 9.08466 33.0537 9.44262 33.3029C10.2784 33.8892 11.3118 32.9643 11.8098 32.5192L11.8156 32.5149C11.9758 32.8793 12.2443 33.1689 12.5921 33.3447C13.4582 33.7826 14.1828 33.349 14.7082 32.7972C14.8323 33.0234 14.9882 33.2222 15.1744 33.385C15.6421 33.7956 16.3161 33.9382 17.0248 33.9382C17.6614 33.9382 18.3268 33.823 18.8984 33.6847C19.2174 33.6069 19.4122 33.287 19.3357 32.9687C19.2592 32.6503 18.9374 32.4558 18.6184 32.5322C17.3539 32.839 16.3335 32.8246 15.9567 32.4933C15.6305 32.2066 15.567 31.7096 15.5583 31.4387C15.5497 31.178 15.3721 30.9547 15.1195 30.8855C14.8669 30.8178 14.5999 30.9215 14.4628 31.1434C13.8638 32.0971 13.4539 32.45 13.1305 32.2858C13.005 32.2224 12.9169 32.1072 12.8722 31.9458C12.8029 31.6995 12.8462 31.3869 12.9819 31.1679C13.1536 30.8898 13.067 30.5239 12.7884 30.3525C12.5099 30.1811 12.1432 30.2675 11.9715 30.5455C11.7145 30.9619 11.384 31.3119 11.0203 31.6361C10.6046 32.0092 10.3563 32.1749 10.2105 32.2484C10.2697 32.0265 10.4689 31.5943 11.0376 30.7602C11.6308 29.8915 12.2327 29.0228 12.8649 28.1743L12.8765 28.1584C13.0627 27.9092 13.0237 27.5577 12.7856 27.3546C12.5488 27.1514 12.1952 27.1673 11.9758 27.3891C10.6248 28.7606 8.43512 29.4074 6.39847 29.0401C6.07659 28.9825 5.76771 29.1957 5.70853 29.5169C5.64935 29.8382 5.86442 30.1465 6.1863 30.2055C7.5532 30.4519 8.94898 30.3237 10.2004 29.8728C10.1932 29.8843 10.1051 30.0168 10.0532 30.0932C9.83812 30.4087 9.47727 30.9359 9.24488 31.4531V31.456Z" fill="#033726"/>
<path d="M14.1987 14.3198C13.8711 14.3198 13.6055 14.5849 13.6055 14.9119C13.6055 15.2389 13.8711 15.504 14.1987 15.504H16.0203C16.3479 15.504 16.6135 15.2389 16.6135 14.9119C16.6135 14.5849 16.3479 14.3198 16.0203 14.3198H14.1987Z" fill="#033726"/>
<path d="M6.2905 15.5055H11.2443C11.5719 15.5055 11.8375 15.2404 11.8375 14.9134C11.8375 14.5864 11.5719 14.3213 11.2443 14.3213H6.2905C5.96285 14.3213 5.69727 14.5864 5.69727 14.9134C5.69727 15.2404 5.96285 15.5055 6.2905 15.5055Z" fill="#033726"/>
<path d="M6.2905 18.2411H16.0191C16.3467 18.2411 16.6123 17.976 16.6123 17.649C16.6123 17.322 16.3467 17.0569 16.0191 17.0569H6.2905C5.96285 17.0569 5.69727 17.322 5.69727 17.649C5.69727 17.976 5.96285 18.2411 6.2905 18.2411Z" fill="#033726"/>
<path d="M16.6136 20.3848C16.6136 20.0578 16.348 19.7927 16.0204 19.7927H11.2441C10.9165 19.7927 10.6509 20.0578 10.6509 20.3848C10.6509 20.7118 10.9165 20.9769 11.2441 20.9769H16.0204C16.348 20.9769 16.6136 20.7118 16.6136 20.3848Z" fill="#033726"/>
<path d="M6.2905 20.9784H8.3618C8.68945 20.9784 8.95504 20.7133 8.95504 20.3863C8.95504 20.0593 8.68945 19.7942 8.3618 19.7942H6.2905C5.96285 19.7942 5.69727 20.0593 5.69727 20.3863C5.69727 20.7133 5.96285 20.9784 6.2905 20.9784Z" fill="#033726"/>
<path d="M6.2905 23.714H13.7024C14.0301 23.714 14.2956 23.4489 14.2956 23.1219C14.2956 22.7949 14.0301 22.5298 13.7024 22.5298H6.2905C5.96285 22.5298 5.69727 22.7949 5.69727 23.1219C5.69727 23.4489 5.96285 23.714 6.2905 23.714Z" fill="#033726"/>
<path d="M24.1281 24.439H22.2012V29.6699C22.2012 29.9738 22.5577 30.141 22.7915 29.9465L23.8972 29.0274C24.03 28.9164 24.2248 28.9164 24.3576 29.0274L25.4633 29.9465C25.6986 30.141 26.0536 29.9753 26.0536 29.6699V24.439H24.1267H24.1281Z" fill="#FFC941"/>
<path d="M26.0549 24.4402V29.6711C26.0549 29.9751 25.6998 30.1422 25.4645 29.9477L24.3574 29.0286C24.3271 29.0041 24.2939 28.9854 24.2593 28.9709V24.4402H26.0534H26.0549Z" fill="#E5AD30"/>
<path d="M24.1282 25.7066C25.8987 25.7066 27.334 24.2741 27.334 22.507C27.334 20.7399 25.8987 19.3074 24.1282 19.3074C22.3577 19.3074 20.9224 20.7399 20.9224 22.507C20.9224 24.2741 22.3577 25.7066 24.1282 25.7066Z" fill="#FFC941"/>
<path d="M22.129 30.5917C22.269 30.658 22.4177 30.6897 22.5635 30.6897C22.7958 30.6897 23.0239 30.609 23.213 30.4534L24.1281 29.6927L25.0432 30.4534C25.3507 30.7084 25.7664 30.7617 26.1272 30.5917C26.4895 30.4231 26.7133 30.0702 26.7133 29.6711V25.3709C27.4985 24.665 27.9921 23.6421 27.9921 22.5069C27.9921 20.3791 26.2586 18.6489 24.1267 18.6489C21.9948 18.6489 20.2612 20.3791 20.2612 22.5069C20.2612 23.6421 20.7563 24.665 21.5401 25.3709V29.6711C21.5401 30.0702 21.7653 30.4231 22.1261 30.5917H22.129ZM25.3969 29.0358L24.7805 28.523C24.4024 28.2089 23.8553 28.2089 23.4771 28.523L22.8608 29.0358V26.1503C23.2577 26.2886 23.685 26.3649 24.1296 26.3649C24.5741 26.3649 24.9999 26.2886 25.3983 26.1503V29.0358H25.3969ZM24.1281 19.9628C25.5326 19.9628 26.6757 21.1037 26.6757 22.5055C26.6757 23.9072 25.5326 25.0482 24.1281 25.0482C22.7237 25.0482 21.5805 23.9072 21.5805 22.5055C21.5805 21.1037 22.7237 19.9628 24.1281 19.9628Z" fill="#033726"/>
</svg>
