<?xml version="1.0" encoding="UTF-8"?>
<svg id="Layer_1" data-name="Layer 1" xmlns="http://www.w3.org/2000/svg" viewBox="0 0 341.64 432.47">
  <defs>
    <style>
      .cls-1 {
        fill: #65c3a5;
      }

      .cls-2 {
        fill: #e5ad30;
      }

      .cls-3 {
        fill: #e9f3e8;
      }

      .cls-4 {
        fill: #033726;
      }

      .cls-5 {
        fill: #ffc941;
      }
    </style>
  </defs>
  <g>
    <path class="cls-3" d="M318.51,426.14H23.13c-9.28,0-16.8-7.52-16.8-16.8V23.13c0-9.28,7.52-16.8,16.8-16.8h295.38c9.28,0,16.8,7.52,16.8,16.8v386.2c0,9.28-7.52,16.8-16.8,16.8h0Z"/>
    <path class="cls-1" d="M267.87,113.76H73.77c-3.69,0-6.69-2.99-6.69-6.69v-24.13c0-3.69,2.99-6.69,6.69-6.69h194.1c3.69,0,6.69,2.99,6.69,6.69v24.13c0,3.69-3,6.69-6.69,6.69Z"/>
    <g>
      <path class="cls-4" d="M318.51,0H23.13C10.38,0,0,10.38,0,23.13v386.2c0,12.76,10.38,23.13,23.13,23.13h295.38c12.76,0,23.13-10.38,23.13-23.13V23.13c0-12.76-10.38-23.13-23.13-23.13ZM328.99,409.34c0,5.78-4.7,10.48-10.48,10.48H23.13c-5.78,0-10.48-4.7-10.48-10.48V23.13c0-5.78,4.7-10.48,10.48-10.48h295.38c5.78,0,10.48,4.7,10.48,10.48v386.2h0Z"/>
      <path class="cls-4" d="M280.89,82.94c0-7.18-5.84-13.02-13.02-13.02H73.77c-7.18,0-13.02,5.84-13.02,13.02v24.13c0,7.18,5.84,13.02,13.02,13.02h135.78c3.49,0,6.33-2.83,6.33-6.33s-2.83-6.33-6.33-6.33H73.77c-.2,0-.36-.16-.36-.36v-24.13c0-.2.16-.36.36-.36h194.1c.2,0,.36.16.36.36v24.13c0,.2-.16.36-.36.36h-29.28c-3.49,0-6.33,2.83-6.33,6.33s2.83,6.33,6.33,6.33h29.28c7.18,0,13.02-5.84,13.02-13.02v-24.13Z"/>
      <path class="cls-4" d="M98.58,336.05c-5.16,11.47-1.7,17.06,2.1,19.74,8.91,6.26,19.93-3.62,25.23-8.37l.06-.05c1.71,3.89,4.58,6.98,8.28,8.86,9.23,4.68,16.96.04,22.56-5.85,1.32,2.42,2.99,4.53,4.96,6.27,4.99,4.38,12.17,5.9,19.74,5.9,6.79,0,13.88-1.23,19.98-2.71,3.4-.83,5.48-4.25,4.66-7.64-.83-3.4-4.25-5.48-7.64-4.66-13.49,3.28-24.36,3.12-28.38-.41-3.48-3.06-4.16-8.37-4.25-11.27-.09-2.78-1.99-5.18-4.68-5.9-2.69-.72-5.53.39-7.01,2.75-6.38,10.19-10.76,13.96-14.21,12.21-1.34-.68-2.27-1.9-2.76-3.64-.74-2.64-.27-5.98,1.17-8.31,1.84-2.97.91-6.87-2.06-8.71-2.97-1.84-6.87-.91-8.71,2.06-2.74,4.44-6.27,8.19-10.14,11.65-4.44,3.98-7.09,5.76-8.63,6.54.63-2.38,2.76-6.98,8.82-15.89,6.32-9.28,12.75-18.57,19.48-27.63l.13-.17c1.98-2.67,1.56-6.42-.96-8.58-2.53-2.16-6.3-2-8.63.37-14.4,14.65-37.75,21.57-59.47,17.64-3.44-.62-6.73,1.66-7.35,5.1-.62,3.44,1.66,6.73,5.1,7.35,14.57,2.64,29.45,1.27,42.8-3.55-.08.12-1.02,1.54-1.57,2.35-2.3,3.37-6.13,9.01-8.62,14.53h0Z"/>
      <path class="cls-4" d="M151.4,152.98c-3.49,0-6.33,2.83-6.33,6.33s2.83,6.33,6.33,6.33h19.42c3.49,0,6.33-2.83,6.33-6.33s-2.83-6.33-6.33-6.33h-19.42Z"/>
      <path class="cls-4" d="M67.08,165.64h52.82c3.49,0,6.33-2.83,6.33-6.33s-2.83-6.33-6.33-6.33h-52.82c-3.49,0-6.33,2.83-6.33,6.33s2.83,6.33,6.33,6.33Z"/>
      <path class="cls-4" d="M67.08,194.87h103.74c3.49,0,6.33-2.83,6.33-6.33s-2.83-6.33-6.33-6.33h-103.74c-3.49,0-6.33,2.83-6.33,6.33s2.83,6.33,6.33,6.33h0Z"/>
      <path class="cls-4" d="M177.15,217.77c0-3.49-2.83-6.33-6.33-6.33h-50.92c-3.49,0-6.33,2.83-6.33,6.33s2.83,6.33,6.33,6.33h50.92c3.49,0,6.33-2.83,6.33-6.33Z"/>
      <path class="cls-4" d="M67.08,224.1h22.08c3.49,0,6.33-2.83,6.33-6.33s-2.83-6.33-6.33-6.33h-22.08c-3.49,0-6.33,2.83-6.33,6.33s2.83,6.33,6.33,6.33Z"/>
      <path class="cls-4" d="M67.08,253.34h79.03c3.49,0,6.33-2.83,6.33-6.33s-2.83-6.33-6.33-6.33h-79.03c-3.49,0-6.33,2.83-6.33,6.33s2.83,6.33,6.33,6.33Z"/>
    </g>
  </g>
  <g>
    <g>
      <path class="cls-5" d="M257.27,261.08h-20.55v55.89c0,3.25,3.79,5.03,6.3,2.95l11.8-9.81c1.42-1.18,3.49-1.18,4.91,0l11.8,9.81c2.5,2.08,6.3.3,6.3-2.95v-55.89h-20.55Z"/>
      <path class="cls-2" d="M277.82,261.09v55.89c0,3.25-3.79,5.04-6.29,2.95l-11.8-9.81c-.32-.26-.67-.47-1.05-.62v-48.41h19.14Z"/>
      <circle class="cls-5" cx="257.27" cy="240.43" r="34.19"/>
    </g>
    <path class="cls-4" d="M235.95,326.81c1.49.7,3.07,1.04,4.64,1.04,2.48,0,4.92-.86,6.92-2.53l9.76-8.12,9.76,8.12c3.27,2.72,7.7,3.29,11.56,1.48,3.86-1.81,6.25-5.58,6.25-9.83v-45.94c8.37-7.55,13.64-18.47,13.64-30.6,0-22.72-18.49-41.21-41.21-41.21s-41.21,18.49-41.21,41.21c0,12.13,5.27,23.05,13.64,30.6v45.94c0,4.26,2.4,8.03,6.25,9.84h0ZM270.8,310.18l-6.58-5.47c-4.03-3.35-9.87-3.35-13.89,0l-6.58,5.47v-30.83c4.24,1.48,8.79,2.29,13.53,2.29s9.29-.81,13.53-2.29v30.83ZM257.27,213.27c14.98,0,27.17,12.19,27.17,27.17s-12.19,27.17-27.17,27.17-27.17-12.19-27.17-27.17c0-14.98,12.19-27.17,27.17-27.17Z"/>
  </g>
</svg>