<?xml version="1.0" encoding="UTF-8"?>
<svg id="Layer_1" data-name="Layer 1" xmlns="http://www.w3.org/2000/svg" viewBox="0 0 334.26 524.34">
  <defs>
    <style>
      .cls-1 {
        fill: #65c3a5;
      }

      .cls-2 {
        fill: #e5ad30;
      }

      .cls-3 {
        fill: #e9f3e8;
      }

      .cls-4 {
        fill: #033726;
      }

      .cls-5 {
        fill: #ff6b43;
      }

      .cls-6 {
        fill: #ffc941;
      }
    </style>
  </defs>
  <g>
    <g>
      <path class="cls-3" d="M311.62,518.15H22.63c-9.08,0-16.44-7.36-16.44-16.44V123.86c0-9.08,7.36-16.44,16.44-16.44h288.99c9.08,0,16.44,7.36,16.44,16.44v377.85c0,9.08-7.36,16.44-16.44,16.44h0Z"/>
      <path class="cls-1" d="M262.08,212.52H72.18c-3.61,0-6.54-2.93-6.54-6.54v-23.61c0-3.61,2.93-6.54,6.54-6.54h189.9c3.61,0,6.54,2.93,6.54,6.54v23.61c0,3.62-2.93,6.54-6.54,6.54Z"/>
      <g>
        <path class="cls-4" d="M311.62,101.22H22.63c-12.48,0-22.63,10.15-22.63,22.63v377.85c0,12.48,10.15,22.63,22.63,22.63h288.99c12.48,0,22.63-10.15,22.63-22.63V123.86c0-12.48-10.15-22.63-22.63-22.63ZM321.87,501.71c0,5.65-4.6,10.25-10.25,10.25H22.63c-5.65,0-10.25-4.6-10.25-10.25V123.86c0-5.65,4.6-10.25,10.25-10.25h288.99c5.65,0,10.25,4.6,10.25,10.25v377.85h0Z"/>
        <path class="cls-4" d="M274.81,182.37c0-7.02-5.71-12.74-12.74-12.74H72.18c-7.02,0-12.74,5.71-12.74,12.74v23.61c0,7.02,5.71,12.74,12.74,12.74h132.84c3.42,0,6.19-2.77,6.19-6.19s-2.77-6.19-6.19-6.19H72.18c-.19,0-.35-.16-.35-.35v-23.61c0-.19.16-.35.35-.35h189.9c.19,0,.35.16.35.35v23.61c0,.19-.16.35-.35.35h-28.64c-3.42,0-6.19,2.77-6.19,6.19s2.77,6.19,6.19,6.19h28.64c7.02,0,12.74-5.71,12.74-12.74v-23.61Z"/>
        <path class="cls-4" d="M96.44,430c-5.04,11.22-1.67,16.7,2.06,19.31,8.72,6.12,19.5-3.54,24.69-8.19l.06-.05c1.67,3.81,4.48,6.83,8.1,8.67,9.03,4.58,16.59.04,22.07-5.72,1.29,2.37,2.92,4.44,4.86,6.14,4.88,4.29,11.91,5.78,19.31,5.78,6.64,0,13.58-1.2,19.55-2.65,3.32-.81,5.36-4.15,4.56-7.48-.81-3.32-4.15-5.36-7.48-4.56-13.2,3.2-23.83,3.05-27.76-.4-3.4-2.99-4.07-8.19-4.16-11.02-.09-2.72-1.95-5.07-4.58-5.77-2.63-.71-5.41.38-6.86,2.69-6.24,9.97-10.53,13.66-13.9,11.95-1.31-.67-2.22-1.86-2.7-3.56-.73-2.58-.27-5.85,1.14-8.13,1.8-2.91.89-6.72-2.02-8.52-2.91-1.8-6.72-.89-8.52,2.01-2.68,4.35-6.13,8.01-9.92,11.4-4.34,3.89-6.93,5.64-8.44,6.4.62-2.32,2.7-6.83,8.63-15.55,6.18-9.08,12.47-18.17,19.06-27.04l.13-.17c1.94-2.61,1.53-6.28-.94-8.4-2.47-2.12-6.16-1.96-8.44.36-14.09,14.33-36.93,21.1-58.18,17.26-3.36-.61-6.59,1.63-7.19,4.99s1.63,6.59,4.99,7.19c14.26,2.58,28.81,1.24,41.87-3.47-.08.12-.99,1.51-1.53,2.3-2.25,3.3-6,8.82-8.43,14.22h0Z"/>
        <path class="cls-4" d="M148.12,250.9c-3.42,0-6.19,2.77-6.19,6.19s2.77,6.19,6.19,6.19h19c3.42,0,6.19-2.77,6.19-6.19s-2.77-6.19-6.19-6.19h-19Z"/>
        <path class="cls-4" d="M65.63,263.28h51.68c3.42,0,6.19-2.77,6.19-6.19s-2.77-6.19-6.19-6.19h-51.68c-3.42,0-6.19,2.77-6.19,6.19s2.77,6.19,6.19,6.19Z"/>
        <path class="cls-4" d="M65.63,291.88h101.49c3.42,0,6.19-2.77,6.19-6.19s-2.77-6.19-6.19-6.19h-101.49c-3.42,0-6.19,2.77-6.19,6.19s2.77,6.19,6.19,6.19h0Z"/>
        <path class="cls-4" d="M173.32,314.29c0-3.42-2.77-6.19-6.19-6.19h-49.82c-3.42,0-6.19,2.77-6.19,6.19s2.77,6.19,6.19,6.19h49.82c3.42,0,6.19-2.77,6.19-6.19Z"/>
        <path class="cls-4" d="M65.63,320.48h21.61c3.42,0,6.19-2.77,6.19-6.19s-2.77-6.19-6.19-6.19h-21.61c-3.42,0-6.19,2.77-6.19,6.19s2.77,6.19,6.19,6.19Z"/>
        <path class="cls-4" d="M65.63,349.08h77.32c3.42,0,6.19-2.77,6.19-6.19s-2.77-6.19-6.19-6.19h-77.32c-3.42,0-6.19,2.77-6.19,6.19s2.77,6.19,6.19,6.19Z"/>
      </g>
    </g>
    <g>
      <g>
        <path class="cls-6" d="M251.71,356.66h-20.1v54.68c0,3.18,3.71,4.92,6.16,2.89l11.54-9.6c1.39-1.16,3.41-1.16,4.81,0l11.54,9.6c2.45,2.04,6.16.3,6.16-2.89v-54.68h-20.1Z"/>
        <path class="cls-2" d="M271.81,356.66v54.68c0,3.18-3.71,4.93-6.16,2.89l-11.54-9.6c-.31-.26-.66-.46-1.03-.6v-47.36h18.72Z"/>
        <circle class="cls-6" cx="251.71" cy="336.46" r="33.45"/>
      </g>
      <path class="cls-4" d="M230.85,420.96c1.46.69,3.01,1.02,4.54,1.02,2.42,0,4.81-.84,6.77-2.47l9.55-7.94,9.55,7.94c3.2,2.66,7.54,3.22,11.31,1.45,3.77-1.77,6.12-5.46,6.12-9.62v-44.94c8.19-7.39,13.35-18.07,13.35-29.94,0-22.23-18.09-40.32-40.32-40.32s-40.32,18.09-40.32,40.32c0,11.87,5.16,22.55,13.35,29.94v44.94c0,4.17,2.34,7.85,6.12,9.62h0ZM264.94,404.7l-6.44-5.35c-3.94-3.28-9.66-3.28-13.59,0l-6.44,5.35v-30.17c4.15,1.45,8.6,2.24,13.23,2.24s9.08-.8,13.23-2.24v30.17ZM251.71,309.88c14.66,0,26.58,11.92,26.58,26.58s-11.92,26.58-26.58,26.58-26.58-11.92-26.58-26.58c0-14.66,11.92-26.58,26.58-26.58Z"/>
    </g>
  </g>
  <g>
    <g>
      <circle class="cls-5" cx="167.13" cy="80.49" r="74.53"/>
      <path class="cls-4" d="M167.13,160.98c-44.38,0-80.49-36.1-80.49-80.49S122.75,0,167.13,0s80.49,36.1,80.49,80.49-36.11,80.49-80.49,80.49ZM167.13,11.92c-37.81,0-68.56,30.76-68.56,68.56s30.76,68.56,68.56,68.56,68.56-30.76,68.56-68.56S204.94,11.92,167.13,11.92Z"/>
    </g>
    <g>
      <path class="cls-3" d="M158.09,125.2c-7.34,0-13.31-6.56-13.31-14.63v-19.6h-6.36c-5.12-.02-9.67-3.08-11.62-7.79-2.1-4.68-1.2-10.34,2.35-14.26l28.71-31.34c2.32-2.59,5.7-4.1,9.24-4.1s6.95,1.51,9.32,4.15l28.63,31.27c2.24,2.44,3.49,5.62,3.5,8.95,0,1.9-.39,3.73-1.15,5.46-1.9,4.58-6.45,7.64-11.55,7.66h-6.42v19.6c0,8.06-5.97,14.63-13.32,14.63h-18.03Z"/>
      <path class="cls-4" d="M167.13,39.44h0c1.85,0,3.62.79,4.86,2.17l28.68,31.32c1.24,1.35,1.93,3.11,1.93,4.94,0,1.04-.22,2.08-.64,3.03-1.03,2.48-3.44,4.1-6.12,4.11h-12.36v25.56c0,4.78-3.3,8.66-7.35,8.66h-18.04c-4.05,0-7.35-3.88-7.35-8.66v-25.56h-12.32c-2.68-.02-5.09-1.64-6.12-4.11-1.2-2.68-.7-5.81,1.27-7.98l28.68-31.31c1.24-1.38,3.01-2.17,4.87-2.17M167.14,27.51h-.01c-5.24,0-10.25,2.24-13.74,6.14l-28.6,31.22c-5.15,5.69-6.47,13.8-3.43,20.76,2.9,6.84,9.56,11.27,17,11.32h.47v13.64c0,11.35,8.65,20.59,19.27,20.59h18.04c10.63,0,19.27-9.23,19.27-20.59v-13.64h.44c7.57-.05,14.26-4.55,17.13-11.47.99-2.25,1.55-4.88,1.55-7.6,0-4.86-1.82-9.47-5.09-13.02l-28.65-31.29c-3.41-3.8-8.41-6.04-13.64-6.04h0Z"/>
    </g>
  </g>
</svg>