<svg xmlns="http://www.w3.org/2000/svg" xmlns:xlink="http://www.w3.org/1999/xlink" width="60" height="60" viewBox="0 0 60 60">
  <defs>
    <clipPath id="clip-path">
      <circle id="Ellipse_1653" data-name="Ellipse 1653" cx="30" cy="30" r="30" transform="translate(-16578 -15803)" fill="#c0b0a5" style="mix-blend-mode: color-burn;isolation: isolate"/>
    </clipPath>
  </defs>
  <g id="Map_Analysis-Icon" data-name="Map Analysis-Icon" transform="translate(16578 15803)" clip-path="url(#clip-path)" style="isolation: isolate">
    <path id="Path_84211" data-name="Path 84211" d="M-16702.9-15728.8h0l-24.687-18.67s.689-19.8,10.482-23.729,30.445,8.786,30.445,8.786l.594,14.024.715,19.588h-17.549" transform="translate(168.464 -14.307)" fill="#63c3a5"/>
    <path id="Path_84212" data-name="Path 84212" d="M-16741.369-15759.278v15.689s7.75-6.863,13.561-6.324a24.872,24.872,0,0,1,10.764,4.09s7.178-.365,10.953-4.09,5.074-6.428,4.139-10.814-10.461-1.779-7.879-6.73,8.4-6.781,8.287-10.227-5.166-6.135-5.166-6.135h-15.068Z" transform="translate(160 -18.863)" fill="#e38b24"/>
    <path id="Path_84213" data-name="Path 84213" d="M-16716.012-15784.113s6.887,2.9,4.953,7.318-5.492,2.906-7.645,7.643-2.9,7-1.613,10.01,4.949,7.105,9.258,6.781,9.9-1.832,16.469,1.291,7.855,6.027,7.855,6.027v-38.533Z" transform="translate(169.409 -19)" fill="none"/>
    <path id="Path_84214" data-name="Path 84214" d="M-16741.309-15745.371v-9.205s5.525-6.608,11.24-6.1,7.855-.507,11.834,4.082,1.631,7.854,8.975,8.568,11.629-1.734,13.873,2.652-3.16,12.243-3.16,12.243l-23.871-.409Z" transform="translate(163.392 -9.981)" fill="#f69b0e"/>
    <path id="Path_84215" data-name="Path 84215" d="M-16722.023-15783.869c.512,0,3.166-.034,1.943,3.229s-.41,3.626-2.795,6.953-4.936,3.759-6.748,6.356-1.256,4.314-1.984,6.48-2.654,3.367-4.283,3.062-5.4-2.48-5.4-2.48v-23.6Z" transform="translate(163.401 -18.886)" fill="#a59c96"/>
    <path id="Path_84216" data-name="Path 84216" d="M-16687.332-15749.133s-4.8-9.77-14.572-11.26-10.93,1.82-14.986-1.16-6.045-6.457-2.236-11.178,4.8-11.178,1.824-11.094,29.309,0,29.309,0Z" transform="translate(169.308 -18.867)" fill="#1c8150"/>
  </g>
</svg>
