<svg id="Masjids" xmlns="http://www.w3.org/2000/svg" width="64" height="64" viewBox="0 0 64 64">
  <rect id="Rectangle_155998" data-name="Rectangle 155998" width="64" height="64" fill="none"/>
  <g id="Group_184930" data-name="Group 184930" transform="translate(21427.436 16723.791)">
    <rect id="Rectangle_155970" data-name="Rectangle 155970" width="6.803" height="2.126" transform="translate(-21413.039 -16701.457)" fill="#74c1a7"/>
    <rect id="Rectangle_155971" data-name="Rectangle 155971" width="5.244" height="24.802" transform="translate(-21412.258 -16699.334)" fill="#e9f3e8"/>
    <path id="Path_84951" data-name="Path 84951" d="M1002.465,37.741a2.622,2.622,0,0,1,2.622,2.622v1.2h-5.244v-1.2a2.622,2.622,0,0,1,2.622-2.622" transform="translate(-22412.102 -16743.023)" fill="#ffc941"/>
    <path id="Path_84952" data-name="Path 84952" d="M1057.48,47.78a8.149,8.149,0,0,1,16.3,0Z" transform="translate(-22461.094 -16744.631)" fill="#ffc941"/>
    <rect id="Rectangle_155972" data-name="Rectangle 155972" width="16.298" height="2.126" transform="translate(-21403.615 -16696.85)" fill="#74c1a7"/>
    <rect id="Rectangle_155973" data-name="Rectangle 155973" width="6.803" height="2.126" transform="translate(-21384.693 -16701.457)" fill="#74c1a7"/>
    <rect id="Rectangle_155974" data-name="Rectangle 155974" width="18.424" height="2.126" transform="translate(-21404.676 -16694.727)" fill="#74c1a7"/>
    <rect id="Rectangle_155975" data-name="Rectangle 155975" width="23.101" height="18.07" transform="translate(-21407.014 -16692.598)" fill="#e9f3e8"/>
    <path id="Path_84953" data-name="Path 84953" d="M1090.125,172.5h3.826v-6.8c0-3.968-3.826-5.6-3.826-5.6s-3.827,1.63-3.827,5.6v6.8Z" transform="translate(-22485.586 -16847.031)" fill="#6d5a4b"/>
    <path id="Path_84954" data-name="Path 84954" d="M1154.743,181.029h1.793v-3.188a1.924,1.924,0,1,0-3.586,0v3.188Z" transform="translate(-22542.244 -16859.879)" fill="#6d5a4b"/>
    <path id="Path_84955" data-name="Path 84955" d="M1048.552,181.029h-1.793v-3.188a1.924,1.924,0,1,1,3.586,0v3.188Z" transform="translate(-22451.98 -16859.879)" fill="#6d5a4b"/>
    <rect id="Rectangle_155976" data-name="Rectangle 155976" width="5.244" height="24.802" transform="translate(-21383.912 -16699.334)" fill="#e9f3e8"/>
    <path id="Path_84956" data-name="Path 84956" d="M1191.436,37.741a2.622,2.622,0,0,0-2.622,2.622v1.2h5.244v-1.2a2.622,2.622,0,0,0-2.622-2.622" transform="translate(-22572.727 -16743.023)" fill="#ffc941"/>
    <path id="Path_84957" data-name="Path 84957" d="M1014.671,89.344v1.417a.4.4,0,0,0,.8,0V89.344a.4.4,0,0,0-.8,0" transform="translate(-22424.705 -16786.549)" fill="#033726"/>
    <path id="Path_84958" data-name="Path 84958" d="M1015.144,26.039v1.417a.4.4,0,1,0,.8,0V26.039a.4.4,0,1,0-.8,0" transform="translate(-22425.105 -16732.74)" fill="#033726"/>
    <path id="Path_84959" data-name="Path 84959" d="M1014.671,113.91v1.417a.4.4,0,0,0,.8,0V113.91a.4.4,0,0,0-.8,0" transform="translate(-22424.705 -16807.432)" fill="#033726"/>
    <path id="Path_84960" data-name="Path 84960" d="M997.988,39.313v-1.2a2.224,2.224,0,1,1,4.448,0v1.2a.4.4,0,0,0,.8,0v-1.2a3.02,3.02,0,1,0-6.039,0v1.2a.4.4,0,0,0,.8,0" transform="translate(-22409.848 -16740.77)" fill="#033726"/>
    <path id="Path_84961" data-name="Path 84961" d="M992.393,63.124v.4h6.8a.4.4,0,0,0,.4-.4V61a.4.4,0,0,0-.4-.4h-6.8a.4.4,0,0,0-.4.4v2.126a.4.4,0,0,0,.4.4v-.4h.4V61.4H998.8v1.33h-6.405v.4h0Z" transform="translate(-22405.43 -16762.453)" fill="#033726"/>
    <path id="Path_84962" data-name="Path 84962" d="M1055.624,45.526a7.751,7.751,0,1,1,15.5,0,.4.4,0,0,0,.8,0,8.547,8.547,0,1,0-17.094,0,.4.4,0,0,0,.8,0Z" transform="translate(-22458.838 -16742.375)" fill="#033726"/>
    <path id="Path_84963" data-name="Path 84963" d="M1055.624,93.832V92.1h15.5v1.728a.4.4,0,0,0,.8,0V91.706a.4.4,0,0,0-.4-.4h-16.3a.4.4,0,0,0-.4.4v2.126a.4.4,0,0,0,.8,0" transform="translate(-22458.838 -16788.557)" fill="#033726"/>
    <path id="Path_84964" data-name="Path 84964" d="M1048.537,108v-1.728h17.628V108a.4.4,0,1,0,.8,0v-2.126a.4.4,0,0,0-.4-.4h-18.424a.4.4,0,0,0-.4.4V108a.4.4,0,0,0,.8,0" transform="translate(-22452.814 -16800.604)" fill="#033726"/>
    <path id="Path_84965" data-name="Path 84965" d="M1152.489,178.775v.4h1.793a.4.4,0,0,0,.4-.4v-3.188a3.018,3.018,0,0,0-.323-1.374,3.279,3.279,0,0,0-.511-.734,3.925,3.925,0,0,0-.8-.664,3.123,3.123,0,0,0-.4-.218.4.4,0,0,0-.312,0,2.941,2.941,0,0,0-.328.173,3.853,3.853,0,0,0-1.056.925,3.132,3.132,0,0,0-.46.819,3.045,3.045,0,0,0-.191,1.072v3.188a.4.4,0,0,0,.4.4h1.793v-.8h-1.4v-2.79a2.221,2.221,0,0,1,.238-1.015,2.482,2.482,0,0,1,.387-.555,3.129,3.129,0,0,1,.636-.527c.091-.057.167-.1.218-.125l.058-.028.013-.006h0l-.067-.155.066.155h0l-.067-.155.066.155-.156-.366-.156.366a2.424,2.424,0,0,1,.275.15,3.035,3.035,0,0,1,.818.737,2.3,2.3,0,0,1,.326.6,2.247,2.247,0,0,1,.133.771v2.79h-1.4Z" transform="translate(-22539.988 -16857.627)" fill="#033726"/>
    <path id="Path_84966" data-name="Path 84966" d="M1046.3,178.775v-.4h-1.4v-2.79a2.219,2.219,0,0,1,.238-1.015,2.479,2.479,0,0,1,.388-.555,3.125,3.125,0,0,1,.636-.527c.091-.057.167-.1.218-.125l.058-.028.013-.006h0l-.067-.155.066.156h0l-.067-.155.066.156-.156-.366-.156.366a2.407,2.407,0,0,1,.275.15,3.037,3.037,0,0,1,.818.737,2.3,2.3,0,0,1,.326.6,2.248,2.248,0,0,1,.132.771v2.79h-1.4v.8h1.793a.4.4,0,0,0,.4-.4v-3.188a3.015,3.015,0,0,0-.323-1.374,3.271,3.271,0,0,0-.511-.734,3.932,3.932,0,0,0-.8-.664,3.111,3.111,0,0,0-.4-.218.4.4,0,0,0-.312,0,2.929,2.929,0,0,0-.328.173,3.853,3.853,0,0,0-1.056.925,3.121,3.121,0,0,0-.46.819,3.04,3.04,0,0,0-.191,1.072v3.188a.4.4,0,0,0,.4.4h1.793Z" transform="translate(-22449.729 -16857.627)" fill="#033726"/>
    <path id="Path_84967" data-name="Path 84967" d="M1092.095,170.248v-6.8a5.985,5.985,0,0,0-.641-2.728,6.527,6.527,0,0,0-1.02-1.465,7.908,7.908,0,0,0-1.614-1.339,6.18,6.18,0,0,0-.794-.432.4.4,0,0,0-.311,0,5.817,5.817,0,0,0-.646.341,7.777,7.777,0,0,0-2.128,1.864,6.217,6.217,0,0,0-.916,1.629,6.039,6.039,0,0,0-.378,2.13v6.8a.4.4,0,0,0,.8,0v-6.8a5.188,5.188,0,0,1,.555-2.37,5.736,5.736,0,0,1,.9-1.287,7.124,7.124,0,0,1,1.45-1.2c.207-.13.381-.225.5-.286.06-.031.107-.053.138-.068l.034-.016.007,0h0l-.011-.026.011.026h0l-.011-.026.011.026-.083-.195.083.195h0l-.083-.195.083.195h0l-.149-.349.148.349h0l-.149-.349.148.349-.156-.366-.156.366.112-.264-.113.264h0l.112-.264-.113.264.028-.065-.028.064h0l.028-.065-.028.064a5.264,5.264,0,0,1,.574.307,6.974,6.974,0,0,1,1.9,1.673,5.408,5.408,0,0,1,.789,1.414,5.242,5.242,0,0,1,.323,1.838v6.8a.4.4,0,0,0,.8,0" transform="translate(-22483.332 -16844.781)" fill="#033726"/>
    <path id="Path_84968" data-name="Path 84968" d="M1203.642,89.344v1.417a.4.4,0,0,0,.8,0V89.344a.4.4,0,0,0-.8,0" transform="translate(-22585.33 -16786.549)" fill="#033726"/>
    <path id="Path_84969" data-name="Path 84969" d="M1109.157,27.928v1.417a.4.4,0,1,0,.8,0V27.928a.4.4,0,1,0-.8,0" transform="translate(-22505.016 -16734.344)" fill="#033726"/>
    <path id="Path_84970" data-name="Path 84970" d="M1203.17,26.039v1.417a.4.4,0,1,0,.8,0V26.039a.4.4,0,1,0-.8,0" transform="translate(-22584.928 -16732.74)" fill="#033726"/>
    <path id="Path_84971" data-name="Path 84971" d="M1203.642,113.91v1.417a.4.4,0,0,0,.8,0V113.91a.4.4,0,0,0-.8,0" transform="translate(-22585.33 -16807.432)" fill="#033726"/>
    <path id="Path_84972" data-name="Path 84972" d="M1200.733,146.582h-1.417a.4.4,0,0,0,0,.8h1.417a.4.4,0,1,0,0-.8" transform="translate(-22581.313 -16835.541)" fill="#033726"/>
    <path id="Path_84973" data-name="Path 84973" d="M1010.345,147.378h1.417a.4.4,0,1,0,0-.8h-1.417a.4.4,0,1,0,0,.8" transform="translate(-22420.689 -16835.541)" fill="#033726"/>
    <path id="Path_84974" data-name="Path 84974" d="M1191.407,198.292v5.936h-4.846a.4.4,0,1,0,0,.8h5.243a.4.4,0,0,0,.4-.4v-6.334a.4.4,0,1,0-.8,0" transform="translate(-22570.471 -16879.156)" fill="#033726"/>
    <path id="Path_84975" data-name="Path 84975" d="M1186.958,81.9V75.57h4.448V95.576a.4.4,0,1,0,.8,0v-20.4a.4.4,0,0,0-.4-.4h-5.243a.4.4,0,0,0-.4.4V81.9a.4.4,0,1,0,.8,0" transform="translate(-22570.471 -16774.5)" fill="#033726"/>
    <path id="Path_84976" data-name="Path 84976" d="M997.192,198.292v6.334a.4.4,0,0,0,.4.4h5.244a.4.4,0,1,0,0-.8h-4.846v-5.936a.4.4,0,0,0-.8,0" transform="translate(-22409.848 -16879.156)" fill="#033726"/>
    <path id="Path_84977" data-name="Path 84977" d="M1003.231,81.9V75.172a.4.4,0,0,0-.4-.4H997.59a.4.4,0,0,0-.4.4v19.1a.4.4,0,0,0,.8,0V75.57h4.448V81.9a.4.4,0,0,0,.8,0" transform="translate(-22409.848 -16774.5)" fill="#033726"/>
    <path id="Path_84978" data-name="Path 84978" d="M1045.339,120.45h9.913v17.274h-22.305V120.45h9.9a.4.4,0,1,0,0-.8h-10.3a.4.4,0,0,0-.4.4v18.07a.4.4,0,0,0,.4.4h23.1a.4.4,0,0,0,.4-.4v-18.07a.4.4,0,0,0-.4-.4h-10.311a.4.4,0,0,0,0,.8Z" transform="translate(-22439.561 -16812.65)" fill="#033726"/>
    <path id="Path_84979" data-name="Path 84979" d="M1048.139,138.874h18.424a.4.4,0,0,0,0-.8h-18.424a.4.4,0,1,0,0,.8" transform="translate(-22452.814 -16828.311)" fill="#033726"/>
    <path id="Path_84980" data-name="Path 84980" d="M1192.2,39.313v-1.2a3.02,3.02,0,1,0-6.039,0v1.2a.4.4,0,1,0,.8,0v-1.2a2.224,2.224,0,1,1,4.448,0v1.2a.4.4,0,1,0,.8,0Z" transform="translate(-22570.471 -16740.77)" fill="#033726"/>
    <path id="Path_84981" data-name="Path 84981" d="M1188.166,63.124v-.4h-6.4V61.4h6.007v1.728h.4v0h.4V61a.4.4,0,0,0-.4-.4h-6.8a.4.4,0,0,0-.4.4v2.126a.4.4,0,0,0,.4.4h6.8a.4.4,0,0,0,.4-.4Z" transform="translate(-22566.059 -16762.453)" fill="#033726"/>
    <path id="Path_84982" data-name="Path 84982" d="M1102.58,9.634a1.013,1.013,0,0,1-.288.576h0a1.018,1.018,0,0,1-1.442,0h0a1.018,1.018,0,0,1,0-1.442h0a1.012,1.012,0,0,1,.576-.288.4.4,0,1,0-.112-.788,1.815,1.815,0,1,0,1.54,3.08h0a1.81,1.81,0,0,0,.514-1.027.4.4,0,0,0-.788-.112Z" transform="translate(-22497.025 -16717.479)" fill="#033726"/>
  </g>
</svg>
