<svg width="57" height="58" viewBox="0 0 57 58" fill="none" xmlns="http://www.w3.org/2000/svg">
<path d="M21.6219 6.16758C23.2166 6.16758 24.5094 4.8748 24.5094 3.28008C24.5094 1.68536 23.2166 0.392578 21.6219 0.392578C20.0272 0.392578 18.7344 1.68536 18.7344 3.28008C18.7344 4.8748 20.0272 6.16758 21.6219 6.16758Z" fill="#F26331"/>
<path d="M20.3828 19.3526L36.8753 2.45508L42.6428 8.22258H45.1178L56.2478 19.3526H20.3828Z" fill="#5F3D33"/>
<path d="M24.2977 18.5273C23.8402 18.5273 23.4727 18.1598 23.4727 17.7023C23.4727 17.4848 23.5552 17.2748 23.7052 17.1248L36.2977 4.21734C36.6127 3.89484 37.1377 3.88734 37.4677 4.20234C37.7902 4.51734 37.7977 5.04234 37.4827 5.37234L24.8902 18.2798C24.7327 18.4373 24.5227 18.5273 24.2977 18.5273Z" fill="#6E4E47"/>
<path d="M49.1016 35.3574H55.8516C55.8516 37.4874 54.1266 39.2124 51.9966 39.2124H49.1016V35.3574Z" fill="#361F1E"/>
<path d="M48.9498 50.3434L47.1648 56.5759L45.2373 47.8984H42.5373C40.8348 47.8984 39.4473 46.5184 39.4473 44.8084V44.2084L43.3023 43.0684H43.3098C43.4523 44.8984 44.6223 46.4959 46.3323 47.1784L48.1248 47.8909L48.9423 50.3434H48.9498Z" fill="#361F1E"/>
<path d="M49.1005 45.0027V35.3577H31.738L28.843 27.6402H30.7705C32.9005 27.6402 34.6255 25.9152 34.6255 23.7852L18.2305 24.7527L24.9805 28.6077L26.3305 42.1077C26.3905 42.7827 26.6005 43.4352 26.9455 44.0202C27.7405 45.4227 29.188 46.3377 30.8005 46.4427L30.8455 46.9227L31.723 56.5752L34.618 45.9627L34.528 45.6552L39.4405 44.2077L43.2955 43.0677H43.303C43.4455 44.8977 44.6155 46.4952 46.3255 47.1777L48.118 47.8902L48.9355 50.3427L51.0055 56.5752V45.9627L49.078 44.9952L49.1005 45.0027Z" fill="#7A5136"/>
<path d="M30.8762 46.4425H30.8087C29.1962 46.33 27.7487 45.4225 26.9537 44.02C26.6087 43.435 26.3987 42.7825 26.3387 42.1075C26.2862 41.575 26.6762 41.11 27.2087 41.0575C27.7412 41.005 28.2062 41.395 28.2587 41.9275C28.2962 42.325 28.4162 42.715 28.6262 43.0525C29.0987 43.9 29.9687 44.4475 30.9437 44.515C31.4762 44.53 31.8962 44.98 31.8737 45.5125C31.8512 46.045 31.4087 46.465 30.8762 46.4425Z" fill="#663E2D"/>
<path d="M33.3581 45.9635C32.8256 45.9635 32.3906 45.5285 32.3906 44.996C32.3906 44.5685 32.6756 44.1935 33.0806 44.0735L42.9056 41.1785C43.4156 41.0135 43.9556 41.291 44.1206 41.801C44.2856 42.311 44.0081 42.851 43.4981 43.016C43.4831 43.016 43.4606 43.0235 43.4456 43.031L33.6206 45.926C33.5306 45.9485 33.4406 45.9635 33.3506 45.9635H33.3581Z" fill="#663E2D"/>
<path d="M50.0613 47.5218C49.9113 47.5218 49.7613 47.4843 49.6338 47.4168L48.2388 46.7043C47.7588 46.4643 47.5713 45.8868 47.8113 45.4068C48.0513 44.9268 48.6288 44.7393 49.1088 44.9793L50.5038 45.6918C50.9763 45.9318 51.1713 46.5093 50.9313 46.9893C50.7663 47.3193 50.4288 47.5218 50.0613 47.5218Z" fill="#663E2D"/>
<path d="M47.2022 37.2846H31.0697C30.6647 37.2846 30.3047 37.0371 30.1697 36.6621L27.1322 28.5546C26.9372 28.0596 27.1772 27.4971 27.6722 27.3021C28.1672 27.1071 28.7297 27.3471 28.9247 27.8421C28.9247 27.8571 28.9322 27.8646 28.9397 27.8796L31.7447 35.3571H47.2097C47.7422 35.3571 48.1772 35.7921 48.1772 36.3246C48.1772 36.8571 47.7422 37.2921 47.2097 37.2921L47.2022 37.2846Z" fill="#8A5E4D"/>
<path d="M21.5314 26.4856C20.9989 26.5006 20.5564 26.0806 20.5414 25.5481C20.5264 25.0156 20.9464 24.5731 21.4789 24.5581L33.4264 23.8531C33.9589 23.8231 34.4164 24.2281 34.4464 24.7606C34.4764 25.2931 34.0714 25.7506 33.5389 25.7806L21.5914 26.4856H21.5314Z" fill="#8A5E4D"/>
<path d="M30.8079 46.4362L30.8529 46.9162H30.7629L27.8679 55.6087L26.9004 44.0362L26.9379 44.0137C27.7329 45.4162 29.1804 46.3312 30.7929 46.4362H30.8079Z" fill="#361F1E"/>
<path d="M7.19141 19.352L11.3164 16.052H13.7914L17.0914 12.752L25.3114 19.3445H7.19891L7.19141 19.352Z" fill="#7A5136"/>
<path d="M14.4734 18.528C14.0159 18.528 13.6484 18.1605 13.6484 17.703C13.6484 17.4855 13.7384 17.2755 13.8884 17.118L16.6259 14.3805C16.9484 14.058 17.4734 14.058 17.7884 14.3805C18.1109 14.703 18.1109 15.228 17.7884 15.543L15.0509 18.2805C14.8934 18.438 14.6834 18.5205 14.4659 18.5205L14.4734 18.528Z" fill="#5F3D33"/>
<path d="M3.74805 26.9199H5.90805V59.3424H3.74805V26.9199Z" fill="#7A5136"/>
<path d="M9.47125 32.0048L4.82875 27.3623L0.18625 32.0048L-1.34375 30.4748L4.05625 25.0748C4.47625 24.6548 5.15875 24.6548 5.58625 25.0748L10.9862 30.4748L9.45625 32.0048H9.47125Z" fill="#025437"/>
<path d="M9.47125 38.4852L4.82875 33.8427L0.18625 38.4852L-1.34375 36.9552L4.05625 31.5552C4.47625 31.1352 5.15875 31.1352 5.58625 31.5552L10.9862 36.9552L9.45625 38.4852H9.47125Z" fill="#025437"/>
<path d="M9.47125 44.9716L4.82875 40.3291L0.18625 44.9716L-1.34375 43.4416L4.05625 38.0416C4.47625 37.6216 5.15875 37.6216 5.58625 38.0416L10.9862 43.4416L9.45625 44.9716H9.47125Z" fill="#025437"/>
<path d="M9.47125 51.452L4.82875 46.8095L0.18625 51.452L-1.34375 49.922L4.05625 44.522C4.47625 44.102 5.15875 44.102 5.58625 44.522L10.9862 49.922L9.45625 51.452H9.47125Z" fill="#025437"/>
<path d="M15.7793 31.2402H17.9393V59.3352H15.7793V31.2402Z" fill="#7A5136"/>
<path d="M21.5005 36.3251L16.858 31.6826L12.2155 36.3251L10.6855 34.7951L16.0855 29.3951C16.5055 28.9751 17.188 28.9751 17.6155 29.3951L23.0155 34.7951L21.4855 36.3251H21.5005Z" fill="#025437"/>
<path d="M21.5005 42.8134L16.858 38.1709L12.2155 42.8134L10.6855 41.2834L16.0855 35.8834C16.5055 35.4634 17.188 35.4634 17.6155 35.8834L23.0155 41.2834L21.4855 42.8134H21.5005Z" fill="#025437"/>
<path d="M21.5005 49.2919L16.858 44.6494L12.2155 49.2919L10.6855 47.7619L16.0855 42.3619C16.5055 41.9419 17.188 41.9419 17.6155 42.3619L23.0155 47.7619L21.4855 49.2919H21.5005Z" fill="#025437"/>
<path d="M21.5005 55.7802L16.858 51.1377L12.2155 55.7802L10.6855 54.2502L16.0855 48.8502C16.5055 48.4302 17.188 48.4302 17.6155 48.8502L23.0155 54.2502L21.4855 55.7802H21.5005Z" fill="#025437"/>
<path d="M16.2578 19.3527L24.9128 10.2852L34.2128 19.3527H16.2578Z" fill="#EDAD54"/>
<path d="M20.1141 18.5265C19.6566 18.5265 19.2891 18.159 19.2891 17.7015C19.2891 17.4915 19.3716 17.289 19.5141 17.1315L24.3591 12.054C24.6741 11.724 25.1991 11.709 25.5216 12.024C25.8516 12.339 25.8666 12.864 25.5516 13.1865L20.7066 18.264C20.5491 18.429 20.3316 18.519 20.1066 18.519L20.1141 18.5265Z" fill="#DD952E"/>
</svg>
