<?xml version="1.0" encoding="UTF-8"?>
<svg id="Layer_1" data-name="Layer 1" xmlns="http://www.w3.org/2000/svg" viewBox="0 0 471.29 386.81">
  <defs>
    <style>
      .cls-1 {
        fill: #65c3a5;
      }

      .cls-2 {
        fill: #958374;
      }

      .cls-3 {
        fill: #becebc;
      }

      .cls-4 {
        fill: #b7a99a;
      }

      .cls-5 {
        fill: #e9f3e8;
      }

      .cls-6 {
        fill: #033726;
      }

      .cls-7 {
        fill: #083f2f;
      }

      .cls-8 {
        fill: #5a4227;
      }

      .cls-9 {
        fill: #8e5f33;
      }

      .cls-10 {
        fill: #ffc941;
      }
    </style>
  </defs>
  <path class="cls-5" d="M56.81,158.25l72.63,20.26,41.89-37.66,28.26-15.01,52.51-4.48s28.45,1.57,31.71,1.85c3.25.28,43.26-61.52,45.14-66.42s13.05-37.07,13.05-37.07l15.12,2,3.76,72.31s13.83,72.66,13.83,75.19,15.06,81.11,14.98,86.54c-.08,5.43-41.69,83.13-41.69,83.13,0,0-52.43,16.04-79.54,13.51-27.11-2.53-146.02-5.06-149.45-5.06s-61.89-.84-62.21-5.06c-.31-4.22-10.44-153.59-10.44-153.59l10.44-30.42Z"/>
  <path class="cls-7" d="M467.16,382.97c-1.54-.04-3.09-.09-4.63-.13-2.35-44.59-4.69-89.18-7.06-133.77-.76-14.31-1.73-28.62-2.37-42.94-.16-3.48-1.43-4.48-4.76-4.36-6.09.22-12.21.29-18.29-.02-3.52-.18-4.89,1.26-5.87,4.4-3.12,9.91-6.97,19.55-11.33,28.98-4.13,8.95-9.37,16.88-17.8,22.58-8.22,5.55-16.85,10.31-25.44,15.21-12.11,6.91-24.86,9.37-38.56,6.84-3.89-.72-7.76-1.51-11.64-2.28-8.08-1.58-16.02-3.87-24.29-4.44-5.52-.38-9.51,1.67-12.18,6.61-2.29,4.23-4.31,8.56-5.34,13.25-.55,2.53-1.74,3.34-4.28,3.7-8.32,1.19-15.32.47-17.92-9.32-1-3.76-3.79-4.59-7.6-4.53-29.01.45-58.02.37-87.02,1.16-7.79.21-13.38-1.35-16.76-8.58-1.36-2.91-3.68-3.64-6.87-3.48-28.64,1.44-57.28,2.76-85.93,4.03-2.21.1-3.65.95-4.97,2.61-8.15,10.16-16.34,20.27-24.56,30.37-1.41,1.73-2.04,3.68-2.37,5.85-2.54,16.61-5.15,33.21-7.71,49.81-.94,6.12-1.79,12.25-2.68,18.38-1.54-.05-3.08-.1-4.63-.15,3.62-23.78,7.23-47.56,10.86-71.34.65-4.23,4.18-6.59,6.56-9.66,1.87-2.41,3.09-4.77,3.35-7.95,2.77-33.83,5.69-67.65,8.61-101.47,1.76-20.36,3.65-40.71,5.34-61.07.29-3.53.97-6.68,4.54-8.04,3.76-1.43,6.29,1.11,8.54,3.52,2.13,2.28,3.92,4.88,5.9,7.3,3.07,3.76,6.44,6.9,11.61,7.76,4.7.78,6.11,5.15,8.01,8.75,3.68,6.97,3.69,7.02,8.18.67,5.63-7.96,9.51-16.95,14.59-25.24,2.25-3.67,4.32-7.52,8.77-8.97,2.1-.69,2-2.34,2.14-3.97,2.67-30.2,5.32-60.41,8.01-90.61.74-8.33-.55-7.21,8.13-7.54,9.83-.37,16.86,3.21,21.48,11.84,1.93,3.6,3.04,7.36,2.37,11.4-.52,3.12.39,5.1,3.39,6.15,5.57,1.96,8.77,6.2,10.87,11.46,2.01,5.05,3.85,10.17,5.99,15.16,3.16,7.37,8.2,11.79,16.9,10.5,4.62-.69,8.17.87,10.72,5.23,2.96,5.05,4.94,5.09,9.1,1.28,4.26-3.9,8.62-7.66,13.56-10.71,6.25-3.85,12.91-5.74,20.28-4.67.81.12,1.65.29,2.46.22,11.91-1.04,19.34,3.83,21.36,16,.46,2.78,2.02,2.45,3.83,1.15,3.34-2.41,6.96-4.5,10-7.24,5.99-5.37,12.81-8.12,20.78-7.17,5.1.6,6.24-1.75,6.9-6.26,3.02-20.54,6.49-41.01,9.59-61.54.48-3.17,1.7-4.06,4.75-4,9.23.17,18.46.02,27.7.07,6.13.04,11.7,5.59,12.01,11.77,1.98,39.01,3.98,78.02,5.98,117.03.03.65.13,1.3.27,2.68,3.63-3.39,5.68-7.28,7.14-11.26,1.45-3.97,3.9-4.91,7.75-5.04,18.45-.61,36.91-1.31,55.34-2.31,4.68-.26,6.17.78,6.13,5.74-.16,22.91.27,45.82.13,68.73-.03,4.89,1.09,6.7,6.24,6.36,6.85-.44,6.78-.08,7.13,6.74,3.03,58.27,6.09,116.53,9.15,174.8.07,1.31.26,2.62.4,3.93ZM29.84,289.07c.52.24,1.04.47,1.56.71,4.06-5.1,8.18-10.14,12.14-15.31,1.62-2.12,3.43-3.16,6.2-3.28,27.66-1.18,55.33-2.22,82.96-3.92,7.88-.48,13.77.79,17.26,8.41.98,2.14,2.6,3.54,5.41,3.49,19.61-.35,39.23-.59,58.84-.78,2.68-.03,3.75-1.02,3.97-3.74.88-11,2.6-21.98,2.81-32.98.28-15.18,7.07-26.02,19.55-33.87,1.81-1.14,3.65-2.26,5.36-3.55,5.81-4.4,9.88-9.14,9.2-17.6-1.44-18.06-1.65-36.21-2.46-54.31-.75-16.62-1.77-33.24-2.35-49.87-.14-4.16-1.75-4.89-5.54-5.38-11.05-1.43-19.96,2.41-28.01,9.54-8.38,7.42-15.99,15.81-25.82,21.43-17.05,9.75-29.07,24.15-37.96,41.27-2.65,5.1-5.86,7.4-11.54,6.58-6.72-.97-12.36.59-17.02,6.24-5.96,7.22-14.11,8.5-22.96,6.4-2.73-.65-5.44-1.49-8.2-1.8-10.2-1.13-16.98-6.48-20.72-15.96-.92-2.32-2.3-4.35-5.13-4.87-5.53-1-9.4-4.52-12.77-8.73-1.85-2.32-3.62-4.7-5.53-6.97-.95-1.14-2.18-2.35-3.77-1.91-1.86.51-1.42,2.4-1.55,3.8-1.27,13.61-2.51,27.23-3.72,40.85-2.54,28.55-5.08,57.1-7.59,85.65-.89,10.15-1.73,20.3-2.6,30.44ZM439.77,159.37h-.15c0-11.21-.11-22.42.07-33.62.05-3.48-1.07-4.55-4.53-4.36-14.81.78-29.63,1.78-44.45,1.8-7.36,0-12.41,1.49-15.13,8.96-1.56,4.29-4.85,7.81-8.24,11.01-2.3,2.18-4.82,4.56-7.93,4.78-7.38.51-10.99,5.24-13.89,11.07-4.29,8.63-11.18,14.01-20.35,16.77-15.51,4.68-31.28,8.07-47.44,9.29-5.1.38-9.32,1.84-12.58,5.75-7.95,9.52-16.82,17.95-27.2,24.91-6.46,4.33-10.73,10.7-11.48,18.83-1.25,13.45-2.39,26.92-3.72,40.36-.26,2.66.51,3.54,3.13,3.47,6.26-.18,12.61.46,18.77-.39,8.45-1.17,13.92,1.45,16.34,9.73,1.43,4.9,5.14,4.38,9.05,4.39,4.01,0,3.63-3.06,4.58-5.28.71-1.67,1.29-3.39,2.04-5.04,5.41-11.86,9.84-14.32,22.9-12.85,9.53,1.07,18.68,3.99,28.1,5.62,10.49,1.82,20.97,2.97,31.09-1.64,13.08-5.96,25.66-12.77,37.08-21.59,3.58-2.77,6.46-6.06,8.68-10,5.71-10.09,9.74-20.89,13.69-31.73,4.36-11.96,4.36-12.11,17.01-12.17,3.86-.02,4.68-1.44,4.62-4.94-.18-11.04-.07-22.08-.07-33.13ZM259.92,188.68c4.64-3.09,7.75-7.33,13.11-7.66,7.73-.47,15.4-1.5,23-2.98,10.67-2.08,21.28-4.33,31.56-8.04,7.42-2.68,15.09-11.82,14.38-19.24-1.27-13.26-1.48-26.62-2.2-39.93-.41-7.56-1.04-15.1-1.39-22.66-.15-3.25-1.58-3.77-4.43-3.1-4.69,1.1-8,3.3-9.33,8.32-2.11,7.96-4.65,15.78-8.33,23.22-2.22,4.48-5.56,6.89-10.44,6.98-6.26.11-12.52.07-18.78-.08-9.04-.21-15.17-4.71-18.53-13.05-1.23-3.05-2.53-6.09-3.56-9.21-1.86-5.63-3.46-11.34-5.34-16.96-.65-1.95-1.49-4.92-3.84-4.34-2.02.5-.94,3.47-.87,5.3.9,21.38,1.87,42.75,2.9,64.13.61,12.81,1.35,25.62,2.08,39.31ZM146.42,150.27c1.05-1.43,1.49-1.91,1.79-2.47,9.82-18.58,22.91-34.1,41.42-44.66,3.12-1.78,6.22-3.75,8.68-6.5.86-.96,2.08-1.78.63-3.27-4.1-4.19-7.68-8.43-14.88-7.51-6.01.76-10.78-2.71-14.18-8.12-3.83-6.09-5.95-12.84-8.45-19.44-1.87-4.96-4.7-8.51-9.9-10.17-4.19-1.34-6.05-4.58-5.35-8.87,1.28-7.86-2.27-13.28-8.31-17.62-1.95-1.4-4.18-2.69-6.38-1.36-2.47,1.49-1.18,4.12-.89,6.31,1.37,10.43,7.31,18.58,13.6,26.46,2.74,3.43,3.78,6.96,3.79,11.32.02,14.49-1.55,28.94-1.1,43.45.26,8.23.26,16.49-.08,24.72-.23,5.53-1.33,11.03-.38,17.74ZM346.43,148.11c3.96-2.79,7.68-3.77,11.56-4.5,3.58-.67,5.44-2.5,5.18-6.86-1.41-23.33-2.43-46.68-3.62-70.03-.87-16.93-1.77-33.86-2.74-50.79-.3-5.3-3.69-7.1-11.06-7.59-5.38-.36-6.53,1.85-6.93,6.66-1.53,18.37-3.22,36.73-5.45,55.02-.63,5.21.55,7.82,5.57,8.61,3.11.49,4.06,2.09,4.17,5.31.45,13.65,1.26,27.29,1.98,40.94.39,7.5.87,15,1.35,23.23ZM141.13,107c.3,0,.59,0,.89,0,0-5.1-.12-10.21.04-15.3.11-3.51-1.51-4.62-4.77-4.57-6.53.11-9.93,2.68-11.44,9.2-1.3,5.6-2.28,11.27-3.68,16.84-.94,3.72-3.24,6.83-7.23,7.25-5.1.54-7.91,3.55-10.19,7.57-3.9,6.86-7.96,13.64-11.62,20.63-2.02,3.87-7.91,8.04-6.22,10.7,1.82,2.87,8.28,2.75,12.69,4.01,9.17,2.61,17.32,1.26,23.59-6.42,3.5-4.28,7.57-6.57,13.22-5.64,3.71.61,4.81-1.27,4.77-4.83-.15-13.15-.06-26.3-.06-39.45ZM328.96,80.86c-11.6-.55-23.01-1.18-34.43-.27-7.14.57-11.5,6.01-16.71,9.8-10.4,7.56-10.23,7.71-4.2,19.61,2.32,4.58,5.66,7.56,10.86,8.26,7.37.99,14.76.58,22.14.31,2.72-.1,4.3-2.02,5.45-4.41,2.85-5.95,5.18-12.1,6.85-18.46,1.6-6.07,3.59-11.67,10.04-14.83ZM125.56,21.72c-.55.07-1.1.14-1.64.22-2.66,30.2-5.31,60.4-7.97,90.6.46.05.92.11,1.39.16,2.76-6.21,2.75-13.11,4.58-19.56,1.78-6.29,5.32-9.45,11.81-10.1,1.63-.16,3.31-.29,4.93-.14,2.98.28,4.18-.9,4.14-3.9-.07-5.6.05-11.2.16-16.8.04-1.93-.6-3.51-1.76-4.99-8.21-10.43-16.11-21.02-15.63-35.48ZM320.03,75.36c3.12-.81,8.39,2.61,8.99-4.92,1.41-17.86,3.39-35.67,5.11-53.51.82-8.55.79-8.42-8.18-8.4-3.27,0-4.53,1.03-5.03,4.37-2.71,18.04-5.72,36.04-8.56,54.07-1.31,8.3-1.25,8.31,7.68,8.39Z"/>
  <path class="cls-1" d="M455.47,249.07c-.76-14.31-1.73-28.62-2.37-42.94-.16-3.48-1.43-4.48-4.76-4.36-6.09.22-12.21.29-18.29-.02-3.52-.18-4.89,1.26-5.87,4.4-3.12,9.91-6.97,19.55-11.33,28.98-4.13,8.95-9.37,16.88-17.8,22.58-8.22,5.55-16.85,10.31-25.44,15.21-12.11,6.91-24.86,9.37-38.56,6.84-3.89-.72-7.76-1.52-11.64-2.28-8.08-1.58-16.02-3.87-24.29-4.44-5.52-.38-9.51,1.67-12.18,6.61-2.29,4.23-4.31,8.56-5.34,13.25-.56,2.53-1.74,3.34-4.28,3.7-8.32,1.19-15.32.47-17.92-9.32-1-3.76-3.79-4.59-7.6-4.53-29.01.45-58.02.37-87.02,1.16-7.79.21-13.38-1.35-16.76-8.58-1.36-2.91-3.68-3.64-6.87-3.48-28.64,1.44-57.28,2.76-85.93,4.03-2.21.1-3.65.95-4.97,2.61-8.15,10.15-16.34,20.27-24.56,30.37-1.41,1.73-2.04,3.68-2.37,5.85-2.54,16.61-5.15,33.21-7.71,49.81-.94,6.12-1.79,14.87-2.68,21l.47-2.5c.36.03.71,2.68,1.07,2.72,1.81-.03,3.63-.07,5.44-.07,146.73,0,293.47,0,440.2,0,2.14,0,4.28-.14,6.42-.21-2.35-44.59-4.69-91.8-7.06-136.38ZM103.96,334.21c-4.43-.14-8.86-.15-13.29,0-3.31.11-3.16-2-3.13-4.23.02-2.17-.3-4.44,3.07-4.27,2.62.13,5.25.02,7.87.02,1.8,0,3.62.14,5.41-.04,3.41-.35,5.03.51,4.99,4.48-.04,3.92-1.95,4.15-4.92,4.05ZM160.53,334.21c-4.28-.14-8.57-.19-12.85,0-3.6.17-3.41-2.05-3.45-4.49-.04-2.41.21-4.26,3.37-4.04,2.46.18,4.94.03,7.41.03,1.81,0,3.63.07,5.44-.02,3.03-.16,5.29-.13,5.29,4.2,0,4.24-2.07,4.41-5.21,4.31ZM218.96,334.2c-2.46-.16-4.94-.03-7.41-.03-1.81,0-3.63-.13-5.43.03-3.34.3-5.06-.42-5.05-4.46.01-4.04,2.04-4.13,4.95-4.06,4.28.11,8.57.19,12.84-.01,3.57-.16,3.41,2.03,3.44,4.47.03,2.41-.19,4.26-3.35,4.05ZM276.06,334.19c-2.63-.14-5.27-.03-7.9-.02-1.81,0-3.64-.15-5.43.04-3.45.36-4.99-.56-4.98-4.51.01-4.05,2.09-4.08,4.98-4.01,4.44.11,8.9.15,13.34,0,3.36-.12,3.14,2.05,3.13,4.25,0,2.19.24,4.44-3.13,4.26Z"/>
  <path class="cls-9" d="M9.4,383.03c.36.03.71.07,1.07.1-.36-.03-.71-.07-1.07-.1Z"/>
  <path class="cls-4" d="M259.92,188.68c-.73-13.69-1.47-26.5-2.08-39.31-1.02-21.37-1.99-42.75-2.9-64.13-.08-1.83-1.15-4.8.87-5.3,2.35-.58,3.19,2.39,3.84,4.34,1.88,5.62,3.48,11.34,5.34,16.96,1.03,3.12,2.33,6.16,3.56,9.21,3.35,8.34,9.49,12.83,18.53,13.05,6.26.15,12.52.18,18.78.08,4.89-.08,8.23-2.5,10.44-6.98,3.68-7.44,6.22-15.26,8.33-23.22,1.33-5.02,4.64-7.22,9.33-8.32,2.86-.67,4.29-.15,4.43,3.1.35,7.56.98,15.1,1.39,22.66.72,13.31.93,26.67,2.2,39.93.71,7.43-6.95,16.56-14.38,19.24-10.28,3.71-20.9,5.96-31.56,8.04-7.6,1.48-15.27,2.51-23,2.98-5.36.33-8.47,4.57-13.11,7.66Z"/>
  <path class="cls-2" d="M146.42,150.27c-.95-6.71.16-12.21.38-17.74.34-8.23.33-16.49.08-24.72-.45-14.51,1.12-28.95,1.1-43.45,0-4.36-1.05-7.89-3.79-11.32-6.29-7.87-12.23-16.02-13.6-26.46-.29-2.19-1.58-4.82.89-6.31,2.21-1.33,4.44-.04,6.38,1.36,6.03,4.34,9.59,9.76,8.31,17.62-.7,4.29,1.16,7.53,5.35,8.87,5.2,1.66,8.02,5.21,9.9,10.17,2.49,6.6,4.62,13.35,8.45,19.44,3.4,5.41,8.17,8.89,14.18,8.12,7.2-.91,10.78,3.32,14.88,7.51,1.45,1.48.23,2.31-.63,3.27-2.45,2.75-5.55,4.72-8.68,6.5-18.51,10.56-31.59,26.08-41.42,44.66-.3.56-.74,1.04-1.79,2.47Z"/>
  <path class="cls-10" d="M141.13,107c0,13.15-.09,26.3.06,39.45.04,3.56-1.07,5.44-4.77,4.83-5.65-.92-9.73,1.36-13.22,5.64-6.27,7.68-14.42,9.03-23.59,6.42-4.41-1.26-10.87-1.15-12.69-4.01-1.69-2.66,4.2-6.83,6.22-10.7,3.66-6.99,7.72-13.77,11.62-20.63,2.28-4.02,5.09-7.03,10.19-7.57,3.99-.42,6.3-3.53,7.23-7.25,1.4-5.57,2.39-11.24,3.68-16.84,1.51-6.52,4.91-9.1,11.44-9.2,3.26-.05,4.88,1.05,4.77,4.57-.17,5.1-.04,10.2-.04,15.3-.3,0-.59,0-.89,0Z"/>
  <path class="cls-2" d="M328.96,80.86c-6.45,3.16-8.44,8.76-10.04,14.83-1.67,6.36-4,12.51-6.85,18.46-1.14,2.39-2.72,4.31-5.45,4.41-7.38.28-14.77.68-22.14-.31-5.2-.7-8.53-3.68-10.86-8.26-6.03-11.9-6.2-12.05,4.2-19.61,5.21-3.79,9.57-9.23,16.71-9.8,11.42-.91,22.83-.28,34.43.27Z"/>
  <path class="cls-10" d="M125.56,21.72c-.49,14.47,7.42,25.05,15.63,35.48,1.17,1.48,1.8,3.07,1.76,4.99-.11,5.6-.23,11.2-.16,16.8.04,3-1.16,4.18-4.14,3.9-1.63-.15-3.3-.03-4.93.14-6.49.65-10.03,3.81-11.81,10.1-1.83,6.45-1.82,13.35-4.58,19.56-.46-.05-.92-.11-1.39-.16,2.66-30.2,5.31-60.4,7.97-90.6.55-.07,1.1-.14,1.64-.22Z"/>
  <path class="cls-4" d="M320.03,75.36c-8.93-.08-8.99-.09-7.68-8.39,2.85-18.02,5.85-36.02,8.56-54.07.5-3.34,1.76-4.36,5.03-4.37,8.98-.02,9.01-.15,8.18,8.4-1.72,17.84-3.7,35.65-5.11,53.51-.6,7.53-5.87,4.11-8.99,4.92Z"/>
  <path class="cls-4" d="M43.54,274.46c1.63-2.12,3.43-3.16,6.2-3.28,27.66-1.18,55.33-2.22,82.96-3.92,7.88-.48,13.77.79,17.26,8.41.98,2.14,2.6,3.54,5.41,3.49,19.61-.35,39.23-.59,58.84-.78,2.68-.03,3.75-1.02,3.97-3.74.88-11,2.6-21.97,2.81-32.98.28-15.18,7.07-26.02,19.55-33.87,1.81-1.14,3.65-2.26,5.36-3.55,5.81-4.4,9.87-9.14,9.2-17.6-1.44-18.06-1.65-36.21-2.46-54.31-.75-16.62-1.77-33.24-2.35-49.87-.15-4.16-1.75-4.89-5.54-5.38-11.05-1.43-19.96,2.41-28.01,9.53-8.38,7.42-15.99,15.81-25.82,21.43-17.05,9.75-29.07,24.15-37.96,41.27-2.65,5.1-5.86,7.4-11.54,6.58-6.72-.97-12.36.59-17.02,6.24-5.96,7.22-14.11,8.5-22.96,6.4-2.73-.65-5.44-1.49-8.2-1.8-10.2-1.13-16.98-6.48-20.72-15.96-.92-2.32-2.3-4.35-5.13-4.87-5.53-1-9.4-4.52-12.77-8.73-1.85-2.32-3.62-4.7-5.53-6.97-.95-1.14-2.18-2.35-3.77-1.91-1.86.51-1.42,2.4-1.55,3.8-1.27,13.61-2.51,27.23-3.72,40.85-2.54,28.55-5.08,57.1-7.59,85.65-.89,10.15-1.73,20.3-2.6,30.44.52.24,1.04.47,1.56.71,4.06-5.1,8.18-10.14,12.14-15.31ZM186.13,210.14c-4.08.14-4.83-1.51-4.97-5.18-.16-4.37,1.64-5.14,5.5-5.13,3.9.01,5.15.96,5.15,5,.03,4.81-1.94,5.18-5.68,5.31ZM226.04,147.96c1.97-.12,2.77,2.69,3.16,4.43.57,2.56-1.79,1.75-3.03,1.77-1.31.02-3.61.73-3.48-1.39.12-1.91,1.29-4.68,3.36-4.81ZM219.78,137.89c2.1.05,3.26,2.85,3.42,4.75.18,2.12-2.1,1.4-3.38,1.34-1.22-.06-3.51.85-3.12-1.62.28-1.76,1.29-4.52,3.08-4.47ZM213.97,147.89c2.2.03,3.27,2.85,3.44,4.8.18,2.16-2.11,1.49-3.42,1.46-1.25-.03-3.53.72-3.15-1.73.28-1.82,1.28-4.55,3.14-4.53ZM207.36,227.51c4.25-.11,5.16,1.48,5.2,5.41.04,4.1-1.22,5.34-5.31,5.31-4.11-.04-4.93-1.14-4.94-5.42-.01-4.45,1.11-5.2,5.05-5.3ZM188.47,147.65c2.02-.08,2.94,2.93,3.29,4.83.43,2.39-1.91,1.63-3.15,1.66-1.29.03-3.57.69-3.35-1.51.2-1.96,1.32-4.91,3.21-4.98ZM182.24,138.01c2.24-.14,2.7,3.14,4.24,5.7h-7.63c.76-2.51,1.5-5.58,3.39-5.7ZM176.52,147.68c2-.12,2.91,2.9,3.35,4.76.59,2.49-1.82,1.63-3.02,1.71-1.31.08-3.57.66-3.41-1.44.14-1.95,1.25-4.92,3.08-5.03ZM166.34,227.73c4.77-.19,4.82,1.66,4.99,5.27.19,4.25-1.5,5.09-5.42,5.25-4.73.19-5.17-1.88-5.31-5.82-.16-4.64,1.98-4.55,5.74-4.7ZM144.98,199.83c3.59.15,4.92.56,4.93,4.94,0,4.27-.87,5.42-4.98,5.36-3.69-.05-5.21-.88-5.18-4.94.03-3.98.98-5.55,5.23-5.36ZM124.79,227.52c4.9-.42,4.99,2.12,5.2,5.86.26,4.77-2.2,4.46-5.86,4.63-5.04.22-4.83-1.97-5.07-5.66-.32-4.82,2.35-4.53,5.74-4.83ZM103.54,199.85c3.77-.08,5.23.92,5.14,4.95-.09,3.91-.76,5.11-5.27,5.12-4.76.01-4.91-1.58-5.11-5.26-.24-4.29,1.72-4.74,5.24-4.82ZM83.39,227.74c4.69-.1,4.91,1.5,5.15,5.2.31,4.79-1.93,5.17-5.81,5.28-4.3.12-5.05-1.56-5.17-5.44-.15-4.66,1.71-4.96,5.83-5.04ZM62.09,200.11c4.74-1.13,5.25,1.38,5.37,5.14.12,4.08-1.53,4.86-5.2,4.9-3.95.05-5.51-.92-5.44-5.19.07-4.15,1.23-5.94,5.27-4.85Z"/>
  <path class="cls-3" d="M237.95,215.73c-6.46,4.33-10.73,10.7-11.48,18.83-1.25,13.45-2.39,26.92-3.72,40.36-.26,2.66.51,3.54,3.13,3.47,6.26-.18,12.61.46,18.77-.39,8.45-1.17,13.92,1.45,16.34,9.73,1.43,4.9,5.14,4.38,9.05,4.39,4.01,0,3.63-3.06,4.58-5.28.71-1.67,1.29-3.39,2.04-5.04,5.41-11.86,9.84-14.32,22.9-12.85,9.53,1.07,18.68,3.99,28.1,5.62,10.49,1.82,20.97,2.97,31.09-1.64,13.08-5.96,25.66-12.77,37.08-21.59,3.58-2.77,6.46-6.06,8.68-10,5.71-10.09,9.74-20.89,13.69-31.73,4.36-11.96,4.36-12.11,17.01-12.16,3.86-.02,4.68-1.44,4.62-4.94-.18-11.04-.07-22.08-.07-33.13h-.15c0-11.21-.11-22.42.07-33.62.05-3.48-1.07-4.55-4.53-4.36-14.81.78-29.63,1.78-44.45,1.8-7.36,0-12.41,1.49-15.13,8.96-1.56,4.29-4.85,7.81-8.24,11.01-2.3,2.18-4.82,4.56-7.92,4.78-7.38.51-10.99,5.24-13.89,11.07-4.29,8.63-11.18,14.01-20.35,16.77-15.51,4.68-31.28,8.07-47.44,9.29-5.1.38-9.32,1.84-12.58,5.75-7.95,9.52-16.82,17.95-27.2,24.91ZM348.67,240.29c-2.85-.03-3.68-1.04-3.65-3.77.12-9.54.16-19.09-.01-28.63-.05-3.11,1.44-3.37,3.92-3.44,2.79-.07,3.76.91,3.66,3.7-.18,4.77-.05,9.54-.05,14.32,0,4.61-.15,9.22.05,13.82.13,3-.87,4.04-3.92,4.01ZM348.73,194.22c2.26-.07,3.75,3.71,4.05,5.93.36,2.66-2.45,1.5-3.99,1.57-1.55.08-4.17,1.03-3.92-1.38.24-2.34,1.71-6.06,3.86-6.13ZM331.21,240.25c-2.21-.04-3.81-.18-3.78-3.08.1-9.86.1-19.72.01-29.58-.03-2.9,1.61-3,3.8-3.06,2.47-.07,3.61.7,3.54,3.35-.13,4.93-.04,9.86-.04,14.79,0,4.77-.1,9.53.04,14.29.08,2.71-1.17,3.34-3.58,3.29ZM331.25,194.3c2.18.09,3.68,3.74,3.88,6.09.18,2.22-2.44,1.45-4,1.32-1.51-.13-4.29,1.11-4-1.54.25-2.26,1.74-5.96,4.13-5.86ZM313.59,240.25c-3.08.03-3.94-1.08-3.9-4.01.14-9.36.14-18.73,0-28.1-.04-2.87,1.08-3.58,3.77-3.6,2.85-.02,3.72,1.02,3.63,3.75-.16,4.76-.04,9.53-.04,14.3,0,4.6-.11,9.21.04,13.8.09,2.62-.54,3.83-3.5,3.87ZM313.26,194.37c2.52.02,3.76,3.66,4.03,5.95.29,2.45-2.13,1.43-3.72,1.58-1.81.18-4.54,1.07-4.19-1.81.26-2.13,1.85-5.74,3.88-5.72Z"/>
  <path class="cls-6" d="M467.16,382.97l.11-3.72c-1.54-.04-3.09-.09-4.63-.13l-.11,3.72,3.71-.2c-2.35-44.59-4.69-89.18-7.06-133.77-.76-14.35-1.73-28.64-2.37-42.91-.05-1.03-.17-2.01-.47-3.01-.23-.74-.58-1.51-1.1-2.2-.78-1.06-1.96-1.85-3.09-2.23-1.14-.39-2.22-.48-3.3-.49-.21,0-.43,0-.66.01h.02c-3.12.11-6.24.18-9.34.18-2.89,0-5.77-.06-8.62-.21-.25-.01-.5-.02-.75-.02-1.06,0-2.11.12-3.14.45-1.55.47-2.96,1.52-3.86,2.73-.92,1.22-1.43,2.51-1.86,3.83-3.06,9.73-6.85,19.22-11.15,28.54-1.99,4.31-4.21,8.29-6.88,11.83-2.67,3.54-5.78,6.63-9.63,9.23-8.03,5.43-16.58,10.14-25.2,15.06-8.53,4.86-17.19,7.32-26.34,7.32-3.17,0-6.4-.3-9.71-.91-3.84-.71-7.7-1.5-11.6-2.27-7.86-1.53-15.96-3.88-24.75-4.5-.5-.03-1.01-.05-1.51-.05-2.96,0-5.82.66-8.29,2.15-2.47,1.48-4.44,3.72-5.91,6.45-2.35,4.36-4.55,9-5.7,14.22-.09.4-.18.61-.21.67v.02s.16.11.16.11l-.16-.13-.02.02.17.11-.16-.13.39.32-.29-.4-.09.09.39.32-.29-.4.15.21-.13-.22h-.02s.15.22.15.22l-.13-.22-.04.02c-.11.05-.45.15-1.04.24-1.72.25-3.32.39-4.75.39-1.26,0-2.37-.12-3.31-.34-1.42-.36-2.42-.9-3.33-1.83-.9-.94-1.77-2.4-2.41-4.81-.34-1.28-.87-2.47-1.63-3.5-1.14-1.56-2.78-2.61-4.39-3.13-1.62-.53-3.22-.66-4.8-.66-.13,0-.28,0-.45,0h.03c-28.96.45-57.99.37-87.06,1.17-.41.01-.81.02-1.2.02-3.26,0-5.73-.43-7.53-1.34-.91-.46-1.69-1.04-2.44-1.84-.74-.81-1.46-1.86-2.12-3.27-.87-1.9-2.31-3.53-4.08-4.46-1.76-.94-3.62-1.19-5.37-1.19-.32,0-.65,0-1,.03h.02c-28.63,1.44-57.26,2.76-85.91,4.03-1.54.06-3.08.43-4.42,1.16-1.35.72-2.42,1.74-3.29,2.83-8.14,10.15-16.33,20.25-24.54,30.35-.97,1.18-1.68,2.48-2.18,3.77-.5,1.3-.79,2.6-.99,3.86-2.53,16.6-5.15,33.19-7.71,49.81-.95,6.16-1.8,12.3-2.68,18.41l3.68.53.12-3.72c-1.54-.05-3.08-.1-4.63-.15l-.12,3.72,3.68.56c3.62-23.78,7.23-47.56,10.86-71.34.09-.61.28-1.13.57-1.68.43-.83,1.16-1.72,2.09-2.73.93-1.01,2.07-2.13,3.16-3.53,1.05-1.36,2.01-2.8,2.74-4.45.73-1.65,1.22-3.48,1.38-5.47,2.77-33.82,5.69-67.64,8.61-101.46,1.76-20.34,3.65-40.69,5.34-61.08.12-1.63.37-2.89.71-3.57.16-.35.32-.56.52-.75.2-.19.45-.37.94-.56.38-.14.62-.17.8-.17.34,0,.7.1,1.37.56.65.45,1.46,1.26,2.33,2.2,1.88,2,3.63,4.53,5.74,7.11,1.64,2,3.45,3.97,5.71,5.62,2.25,1.65,4.98,2.93,8.17,3.46.65.11,1.05.3,1.45.57.58.4,1.19,1.12,1.83,2.23.64,1.1,1.27,2.51,2.06,4.02.95,1.79,1.65,3.16,2.45,4.35.41.6.84,1.18,1.54,1.77.35.29.78.59,1.32.82.54.23,1.19.38,1.84.37.61,0,1.2-.13,1.69-.31.86-.33,1.43-.78,1.91-1.2.71-.64,1.24-1.3,1.83-2.07.58-.77,1.2-1.64,1.92-2.65,5.92-8.4,9.82-17.46,14.73-25.44,1.16-1.9,2.17-3.61,3.23-4.86,1.08-1.26,2.08-2.04,3.53-2.52.95-.31,1.88-.82,2.62-1.54.56-.53.99-1.17,1.27-1.77.43-.91.58-1.73.66-2.37.08-.65.1-1.15.13-1.5,2.67-30.2,5.32-60.41,8.01-90.61.19-2.16.26-3.72.35-4.56.03-.31.07-.51.09-.56h0s-1.28-.39-1.28-.39l1.12.7c.12-.19.15-.32.16-.32l-1.28-.38,1.12.7-1.86-1.16,1.39,1.69c.19-.16.36-.36.47-.53l-1.86-1.16,1.39,1.69-1.29-1.56.84,1.85.45-.29-1.29-1.56.84,1.85-.45-.99.28,1.06.17-.06-.45-.99.28,1.06h.01c.1-.03.71-.09,1.62-.11.92-.03,2.17-.04,3.74-.1.41-.02.81-.02,1.21-.02,4.08,0,7.3.8,9.97,2.34,2.67,1.56,4.93,3.92,6.88,7.56,1.37,2.56,2.13,4.94,2.13,7.26,0,.58-.05,1.17-.15,1.77h0c-.12.7-.19,1.41-.19,2.14,0,.85.1,1.72.35,2.59.37,1.3,1.14,2.56,2.16,3.5,1.02.95,2.22,1.58,3.5,2.03,2.2.78,3.81,1.93,5.2,3.47,1.38,1.54,2.51,3.51,3.44,5.86,1.98,4.98,3.83,10.13,6.03,15.25,1.55,3.61,3.59,6.83,6.5,9.22,2.9,2.4,6.69,3.78,10.92,3.76,1.11,0,2.26-.09,3.43-.26h0c.53-.08,1.02-.12,1.46-.12,1.26,0,2.14.26,2.98.76.83.51,1.67,1.34,2.53,2.79.9,1.52,1.76,2.79,2.93,3.87.58.54,1.26,1.03,2.07,1.39.8.36,1.72.57,2.62.56,1.57,0,2.89-.55,4-1.21,1.12-.67,2.12-1.49,3.19-2.46,4.21-3.85,8.39-7.45,13-10.28,4.66-2.86,9.29-4.41,14.28-4.41,1.15,0,2.31.08,3.51.26.58.08,1.44.26,2.6.27.23,0,.47,0,.7-.03h.02c.94-.08,1.83-.12,2.68-.12,2.23,0,4.16.28,5.78.79,2.44.78,4.22,2,5.69,3.9,1.46,1.9,2.61,4.61,3.23,8.34.2,1.13.52,2.26,1.41,3.38.44.55,1.06,1.06,1.77,1.38.7.33,1.46.47,2.12.46,1.08,0,1.9-.3,2.58-.6.68-.31,1.25-.68,1.79-1.06h0c3.13-2.28,6.87-4.42,10.31-7.49,2.36-2.11,4.78-3.71,7.29-4.78,2.51-1.07,5.12-1.63,7.96-1.63.85,0,1.72.05,2.61.16h0c.65.08,1.28.12,1.89.12,1.33,0,2.64-.2,3.88-.73.92-.4,1.77-.99,2.44-1.7,1.01-1.07,1.61-2.29,2-3.47.39-1.19.61-2.38.8-3.62,3.01-20.49,6.48-40.95,9.59-61.52.08-.57.19-.92.25-1.04l.02-.04h0s-.64-.39-.64-.39l.48.57.16-.18-.64-.39.48.57-.58-.68.39.8.18-.12-.58-.68.39.8-.2-.4.16.41h.03s-.2-.41-.2-.41l.16.41v-.02s0,.02,0,.02h0s0-.02,0-.02v.02s.35-.08.94-.08h.14s.05,0,.05,0c3.63.07,7.26.08,10.87.08,4.03,0,8.04-.02,12.04-.02,1.61,0,3.22,0,4.83.01,1.93,0,4,.93,5.61,2.51,1.61,1.57,2.63,3.71,2.72,5.73,1.98,39.01,3.98,78.02,5.98,117.03.05.91.15,1.55.28,2.86l.76,7.47,5.48-5.13c4.16-3.89,6.53-8.39,8.09-12.69.26-.72.53-1.18.75-1.47.34-.42.53-.55,1.03-.75.5-.19,1.36-.34,2.6-.38,18.46-.61,36.94-1.31,55.42-2.32.37-.02.7-.03.99-.03.72,0,1.17.07,1.3.11h.04s.04-.09.04-.09l-.05.1h0s.04-.1.04-.1l-.05.1.36-.73-.61.53.25.2.36-.73-.61.53.4-.35-.48.23.09.12.4-.35-.48.23s.07.17.13.53c.05.35.09.88.09,1.56v.23s3.72-.06,3.72-.06l-3.72-.03c-.03,3.76-.04,7.52-.04,11.27,0,15.93.19,31.83.19,47.7,0,3.26,0,6.51-.03,9.77h0s0,.2,0,.2c0,1.23.06,2.39.29,3.55.17.87.45,1.75.93,2.61.36.64.84,1.27,1.42,1.79.88.79,1.94,1.31,2.99,1.6,1.06.29,2.11.38,3.22.39.44,0,.89-.02,1.33-.04h.02c1.15-.08,2.06-.12,2.7-.12.39,0,.68.02.85.04l.15.02h.02s.22-.86.22-.86l-.42.78.2.09.22-.87-.42.78.8-1.46-1.43.85c.09.18.41.5.64.61l.8-1.46-1.43.85.74-.44-.8.32.06.12.74-.44-.8.32h0c.02.06.12.49.18,1.2.07.71.12,1.69.18,2.9,3.03,58.27,6.09,116.53,9.15,174.8.08,1.55.29,2.92.41,4.12l3.7-.38.11-3.72-.11,3.72,3.7-.38c-.15-1.42-.33-2.67-.38-3.74-3.06-58.27-6.13-116.53-9.15-174.8-.07-1.41-.13-2.58-.25-3.68-.1-.83-.22-1.62-.52-2.5-.23-.65-.58-1.36-1.13-2.01-.41-.48-.92-.91-1.45-1.22-.81-.48-1.62-.7-2.36-.83-.75-.12-1.45-.15-2.19-.16-.96,0-1.99.06-3.18.14h.02c-.34.02-.64.03-.89.03-.77,0-1.2-.1-1.3-.14h-.03s-.14.28-.14.28l.19-.26-.05-.04-.14.29.19-.26-.34.45.48-.3-.14-.15-.34.45.48-.3-.1.06.1-.06h0s-.1.06-.1.06l.1-.06s-.09-.19-.16-.63c-.07-.43-.11-1.08-.11-1.91v-.15s0,0,0,0c.02-3.27.03-6.54.03-9.81,0-15.93-.19-31.83-.19-47.7,0-3.74.01-7.48.04-11.22v-.2c0-1.27-.08-2.43-.35-3.58-.21-.86-.53-1.74-1.08-2.57-.41-.62-.93-1.18-1.53-1.63-.9-.68-1.91-1.06-2.86-1.27-.95-.21-1.88-.27-2.83-.27-.46,0-.92.01-1.4.04-18.39,1-36.82,1.7-55.26,2.31-1.1.04-2.18.13-3.28.36-1.63.34-3.34,1.05-4.75,2.31-1.41,1.26-2.41,2.92-3.09,4.8-1.35,3.66-3.1,6.92-6.19,9.82l2.54,2.71,3.7-.38c-.15-1.43-.24-2.1-.25-2.49-2-39.01-3.99-78.02-5.98-117.03-.22-4.16-2.14-7.89-4.93-10.65-2.79-2.75-6.57-4.61-10.78-4.65-1.63-.01-3.25-.02-4.88-.01-4.03,0-8.04.02-12.04.02-3.59,0-7.17-.02-10.73-.08l-.07,3.72.11-3.72h-.37c-.91,0-1.82.06-2.78.31-.71.18-1.46.49-2.15.95-1.05.68-1.86,1.72-2.34,2.75-.49,1.04-.73,2.07-.9,3.16-3.1,20.48-6.57,40.96-9.6,61.55-.13.91-.28,1.65-.44,2.16-.11.38-.23.63-.3.76l-.09.12.03.03-.02-.03h0s.03.03.03.03l-.02-.03-.17.06c-.14.03-.39.07-.77.07-.28,0-.62-.02-1.02-.07h0c-1.18-.14-2.35-.21-3.49-.21-3.84,0-7.49.78-10.87,2.22-3.38,1.44-6.48,3.52-9.34,6.08-2.65,2.4-6.15,4.45-9.69,6.99h0c-.28.2-.49.32-.55.34h-.01s.27.65.27.65l-.16-.68-.11.03.27.65-.16-.68.41,1.77v-1.81c-.19,0-.33.02-.41.04l.41,1.77v-1.81,2.43l1.02-2.19c-.37-.17-.76-.24-1.02-.23v2.43l1.02-2.19-.93,1.98,1.94-1.08c-.09-.18-.45-.65-1.02-.9l-.93,1.98,1.94-1.08-.89.49.94-.39-.05-.1-.89.49.94-.39-.21.09.22-.07v-.02s-.22.09-.22.09l.22-.07-.06-.26c-.51-3.07-1.35-5.83-2.56-8.26-1.8-3.64-4.53-6.53-7.91-8.36-3.38-1.84-7.3-2.63-11.56-2.63-1.08,0-2.19.05-3.32.15h.02s-.1,0-.1,0c-.2,0-.74-.07-1.52-.19-1.55-.23-3.08-.34-4.59-.34-6.59,0-12.66,2.12-18.17,5.52-5.28,3.25-9.81,7.19-14.12,11.13-.85.79-1.54,1.31-1.96,1.55-.21.12-.34.17-.37.18h0s.16.64.16.64v-.65l-.16.02.16.64v-.65,1.01l.41-.92-.41-.08v1.01l.41-.92-.15.34.2-.32-.05-.02-.15.34.2-.32s-.2-.14-.5-.51c-.3-.37-.71-.95-1.16-1.74-1.32-2.26-3-4.12-5.07-5.38-2.07-1.27-4.46-1.86-6.85-1.85-.85,0-1.7.07-2.56.2h0c-.85.12-1.63.18-2.35.18-2.73-.02-4.55-.75-6.21-2.08-1.65-1.34-3.13-3.48-4.37-6.39-2.08-4.86-3.92-9.95-5.96-15.08-1.16-2.91-2.68-5.69-4.82-8.07-2.13-2.38-4.9-4.34-8.27-5.52-.38-.13-.63-.27-.77-.36-.21-.15-.18-.16-.2-.18-.01-.02-.08-.16-.08-.57,0-.23.02-.54.09-.92h0c.17-1.01.25-2.01.25-2.99,0-3.97-1.29-7.56-3-10.77-2.45-4.59-5.7-8.17-9.71-10.49-4.01-2.33-8.66-3.35-13.7-3.35-.49,0-.99,0-1.49.03-2.1.08-3.58.07-4.92.15-.51.03-1,.08-1.54.18-.47.09-.98.22-1.52.47-.48.21-.98.53-1.42.93-.79.71-1.26,1.63-1.5,2.38-.36,1.14-.42,2.03-.51,3.08-.08,1.04-.15,2.23-.28,3.73-2.69,30.21-5.34,60.41-8.01,90.62-.04.5-.06.89-.09,1.13-.02.18-.04.28-.04.29l.65.18-.6-.3-.05.13.65.18-.6-.3,1.19.61-.85-1.03-.34.43,1.19.61-.85-1.03.59.72-.44-.83-.16.11.59.72-.44-.83.12.23-.1-.24h-.02s.12.24.12.24l-.1-.24h-.03c-3,.98-5.26,2.85-6.89,4.8-1.65,1.96-2.8,4-3.89,5.77-5.25,8.6-9.11,17.5-14.46,25.03-1.08,1.53-1.9,2.66-2.37,3.19l-.25.27-.04.03.03.04-.03-.04h0s.03.04.03.04l-.03-.04.97,1.25-.62-1.45c-.23.1-.33.18-.36.2l.97,1.25-.62-1.45,1.02,2.38v-2.58c-.42,0-.79.1-1.02.2l1.02,2.38v-2.58,2.7l1.05-2.49c-.28-.12-.67-.21-1.05-.21v2.7l1.05-2.49-.85,2.02,1.36-1.73c-.09-.07-.26-.19-.5-.29l-.85,2.02,1.36-1.73-.62.8.74-.69-.12-.1-.62.8.74-.69s-.32-.4-.71-1.09c-.4-.69-.91-1.66-1.55-2.86-.86-1.59-1.71-3.73-3.22-5.87-.76-1.06-1.72-2.13-2.98-3-1.25-.88-2.79-1.53-4.49-1.81-1.98-.34-3.52-1.05-5.01-2.13-1.48-1.08-2.89-2.56-4.33-4.32-1.86-2.26-3.68-4.93-6.07-7.49-.93-.98-2.01-2.15-3.46-3.18-1.43-1.02-3.38-1.94-5.67-1.93-1.14,0-2.32.23-3.45.66-1.3.49-2.47,1.21-3.41,2.11-1.43,1.35-2.26,3.02-2.73,4.58-.48,1.57-.65,3.09-.77,4.51-1.7,20.34-3.58,40.69-5.34,61.06-2.92,33.82-5.84,67.65-8.61,101.49-.1,1.2-.36,2.13-.77,3.06-.41.93-1,1.86-1.82,2.92-.92,1.2-2.36,2.54-3.84,4.28-.74.88-1.48,1.87-2.1,3.05-.63,1.17-1.13,2.54-1.36,4.05-3.63,23.78-7.24,47.56-10.86,71.34l-.63,4.14,4.19.13c1.54.05,3.08.1,4.63.15l3.32.11.48-3.29c.89-6.15,1.74-12.27,2.67-18.35,2.55-16.6,5.17-33.2,7.71-49.82.14-.91.32-1.67.57-2.32.25-.65.56-1.2,1-1.75,8.22-10.1,16.42-20.22,24.58-30.39.46-.57.77-.8,1.02-.94.26-.13.54-.24,1.22-.28,28.65-1.27,57.3-2.59,85.95-4.03h.02c.19-.01.39-.02.59-.02,1.03,0,1.6.17,1.86.31.26.16.47.28.85,1.04.93,2,2.06,3.73,3.4,5.17,2,2.18,4.49,3.65,7.12,4.48,2.64.84,5.4,1.09,8.3,1.1.46,0,.93,0,1.41-.02,28.92-.8,57.92-.71,86.97-1.16h.03s.28,0,.28,0c.75,0,1.39.05,1.86.14.73.14,1.02.32,1.19.46.16.15.37.35.6,1.17.59,2.21,1.4,4.14,2.46,5.8,1.59,2.49,3.81,4.31,6.24,5.34,2.43,1.04,4.99,1.37,7.54,1.38,1.92,0,3.85-.19,5.8-.47.79-.11,1.56-.27,2.36-.55,1.19-.4,2.48-1.19,3.37-2.33.9-1.14,1.37-2.43,1.65-3.71.91-4.15,2.75-8.17,4.98-12.27,1-1.83,2.05-2.92,3.21-3.62,1.16-.69,2.53-1.08,4.45-1.08.32,0,.65.01,1,.04,7.75.52,15.54,2.74,23.83,4.37,3.86.76,7.74,1.56,11.68,2.28,3.73.69,7.42,1.03,11.05,1.03,10.51,0,20.55-2.89,30.03-8.3,8.55-4.88,17.27-9.68,25.67-15.36,4.59-3.1,8.31-6.82,11.4-10.91,3.09-4.09,5.55-8.55,7.7-13.19,4.41-9.55,8.32-19.34,11.5-29.43.19-.6.37-1.03.51-1.29.23-.4.27-.37.28-.39.02,0,.22-.13.97-.13h.37c3.01.16,6.01.23,9,.23,3.22,0,6.42-.07,9.61-.19h.02s.35,0,.35,0c.51,0,.81.06.86.07h0s.31-.82.31-.82l-.58.65.27.17.31-.83-.58.65.69-.78-.88.55.19.23.69-.78-.88.55.45-.28-.47.24.02.04.45-.28-.47.24.03-.02h-.03s0,.02,0,.02l.03-.02h-.03s.14.46.17,1.21c.64,14.38,1.62,28.69,2.38,42.97,2.38,44.59,4.71,89.18,7.06,133.77l.18,3.42,3.43.1c1.54.04,3.08.09,4.63.13l4.24.12-.44-4.22-3.7.38ZM29.84,289.07l-1.53,3.39c.52.24,1.04.47,1.56.71l2.64,1.2,1.8-2.27c4.04-5.07,8.17-10.13,12.18-15.37.59-.77,1.05-1.14,1.48-1.38.44-.23.96-.4,1.92-.45,27.65-1.18,55.34-2.22,83.03-3.92.88-.05,1.71-.08,2.5-.08,2.94,0,5.16.42,6.82,1.3.84.45,1.58,1.01,2.29,1.8.71.79,1.4,1.83,2.04,3.23.67,1.46,1.67,2.93,3.19,4.01,1.51,1.1,3.47,1.67,5.45,1.65h.1s.01,0,.01,0h.05s.05,0,.05,0c19.6-.35,39.2-.59,58.81-.78.9-.01,1.79-.09,2.72-.36.69-.2,1.41-.52,2.07-.99,1-.7,1.75-1.75,2.17-2.77.43-1.03.59-2.03.68-3.04.86-10.81,2.6-21.86,2.82-33.21.14-7.06,1.75-12.86,4.69-17.86,2.95-4.99,7.28-9.25,13.13-12.93,1.78-1.12,3.71-2.29,5.62-3.73,2.85-2.17,5.52-4.54,7.53-7.61,2.01-3.06,3.24-6.83,3.22-11.17,0-.68-.03-1.37-.08-2.08-1.42-17.89-1.64-36-2.45-54.19-.75-16.66-1.77-33.27-2.34-49.83-.05-1.27-.2-2.45-.6-3.62-.3-.87-.77-1.74-1.42-2.47-.97-1.11-2.23-1.77-3.36-2.14-1.15-.38-2.24-.55-3.4-.7-1.69-.22-3.35-.33-4.98-.33-5.02,0-9.71,1.04-14.03,2.92-4.32,1.88-8.26,4.58-11.95,7.84-8.57,7.62-16.03,15.77-25.2,20.98-17.79,10.16-30.3,25.21-39.41,42.79-1,1.93-1.97,3.12-2.85,3.77-.89.64-1.72.95-3.27.97-.47,0-1-.04-1.6-.12h0c-1.37-.2-2.73-.3-4.08-.3-3.04,0-6.04.56-8.82,1.87-2.79,1.3-5.32,3.32-7.51,5.99-1.82,2.19-3.76,3.63-5.86,4.58-2.11.94-4.41,1.38-6.98,1.39-2,0-4.14-.28-6.39-.81-2.56-.6-5.41-1.5-8.65-1.87-4.56-.51-8.07-1.9-10.91-4.09-2.83-2.2-5.08-5.29-6.76-9.54-.56-1.4-1.32-2.92-2.6-4.3-1.27-1.37-3.16-2.49-5.33-2.86-2.16-.4-3.94-1.24-5.66-2.5-1.7-1.25-3.31-2.93-4.87-4.89-1.8-2.25-3.59-4.66-5.59-7.04-.49-.57-1.11-1.29-2.03-1.97-.46-.34-1.01-.67-1.67-.93-.66-.26-1.43-.43-2.26-.43-.54,0-1.11.07-1.67.23h.03c-1.06.27-2.17.93-2.9,1.83-.55.67-.87,1.39-1.05,2.01-.26.93-.28,1.65-.3,2.19,0,.53-.01.91-.02,1-1.27,13.62-2.51,27.24-3.72,40.86-2.54,28.55-5.08,57.1-7.59,85.66-.9,10.16-1.74,20.31-2.6,30.45l-.22,2.62,2.4,1.08,1.53-3.39,3.7.32c.86-10.15,1.7-20.3,2.6-30.43,2.52-28.55,5.05-57.1,7.59-85.65,1.21-13.61,2.45-27.22,3.72-40.83.05-.61.04-1.07.05-1.39,0-.24.01-.4.02-.46v-.02s-.85-.14-.85-.14l.8.3.05-.16-.85-.14.8.3-1.82-.68,1.31,1.42c.27-.25.45-.57.51-.74l-1.82-.68,1.31,1.42-1.14-1.23.45,1.64c.11-.02.42-.15.69-.41l-1.14-1.23.45,1.64h.03s-.35-1.24-.35-1.24v1.28s.35-.05.35-.05l-.35-1.24v1.28s0-1.2,0-1.2l-.44,1.13c.08.03.25.08.44.08v-1.2l-.44,1.13.22-.57-.29.54.06.03.22-.57-.29.54.1-.18-.1.18h0s.1-.18.1-.18l-.1.18.24.2c.14.14.33.34.54.59,1.81,2.16,3.57,4.52,5.47,6.9,1.8,2.25,3.82,4.44,6.27,6.25,2.45,1.81,5.37,3.22,8.74,3.83.67.14.89.3,1.25.65.34.35.74,1.01,1.09,1.93,2.06,5.22,5.08,9.55,9.12,12.68,4.04,3.14,9.01,4.99,14.65,5.61,2.29.24,4.86,1.02,7.75,1.72,2.71.64,5.42,1.01,8.11,1.01,3.43,0,6.83-.61,10.01-2.03,3.18-1.41,6.09-3.63,8.56-6.63,1.62-1.96,3.23-3.19,4.93-3.99,1.7-.79,3.53-1.17,5.67-1.17.95,0,1.95.08,3.02.23h0c.9.13,1.78.2,2.65.2,2.84.02,5.57-.82,7.72-2.45,2.16-1.62,3.7-3.8,5-6.3,8.67-16.68,20.19-30.43,36.5-39.76,10.5-6.03,18.26-14.66,26.44-21.87,3.24-2.87,6.54-5.09,9.99-6.59,3.45-1.5,7.06-2.3,11.06-2.31,1.3,0,2.63.09,4.02.27.86.11,1.51.23,1.87.34l.29.1.07.04.23-.37-.33.28.1.09.23-.37-.33.28.27-.23-.32.16.05.07.27-.23-.32.16s.05.1.1.35c.05.25.1.63.12,1.15.58,16.7,1.6,33.32,2.35,49.9.81,18.03,1.02,36.22,2.47,54.44.04.52.06,1.02.06,1.49-.02,3.03-.74,5.12-2.01,7.11-1.28,1.97-3.25,3.83-5.79,5.74-1.5,1.14-3.25,2.21-5.09,3.37-6.63,4.17-11.93,9.27-15.57,15.45-3.65,6.18-5.57,13.38-5.71,21.5-.19,10.66-1.89,21.57-2.79,32.75-.03.46-.11.71-.12.75h0s.82.37.82.37l-.64-.61-.17.24.82.37-.64-.61.87.83-.62-1.03-.26.21.87.83-.62-1.03.37.61-.25-.67-.12.06.37.61-.25-.67.03.07-.02-.07h0s.03.07.03.07l-.02-.07s-.26.06-.73.07c-19.62.19-39.25.43-58.87.78l.07,3.72.03-3.72h-.18c-.73-.01-.93-.14-1.13-.27-.19-.13-.46-.41-.75-1.06-.9-1.96-1.98-3.67-3.26-5.1-1.92-2.15-4.3-3.63-6.81-4.46-2.52-.84-5.14-1.11-7.84-1.11-.98,0-1.96.04-2.96.1-27.57,1.69-55.22,2.74-82.89,3.91-1.8.07-3.57.48-5.13,1.33-1.57.84-2.83,2.05-3.86,3.41-3.91,5.11-8.02,10.13-12.09,15.25l2.91,2.32,1.53-3.39c-.52-.24-1.04-.47-1.57-.71l-1.53,3.39,3.7.32-3.7-.32ZM439.77,159.37v-3.72h-.15v3.72h3.72c0-6.25-.03-12.49-.03-18.71,0-4.96.02-9.91.1-14.85v-.02s0-.28,0-.28c0-.96-.07-1.89-.32-2.86-.19-.72-.49-1.48-.97-2.19-.72-1.08-1.89-1.91-3-2.3-1.13-.41-2.19-.5-3.25-.5-.29,0-.6,0-.92.03h.02c-14.85.78-29.61,1.78-44.26,1.79-1.96,0-3.85.1-5.69.4-2.74.45-5.44,1.41-7.73,3.27-2.3,1.85-4.02,4.48-5.2,7.73-.6,1.66-1.59,3.28-2.85,4.88-1.27,1.6-2.81,3.16-4.44,4.71-1.15,1.09-2.23,2.09-3.21,2.76-.99.68-1.77.97-2.42,1.01-2.22.15-4.26.64-6.08,1.42-2.74,1.17-4.94,2.98-6.67,5.03-1.74,2.06-3.05,4.35-4.21,6.67-1.93,3.88-4.38,6.93-7.36,9.36-2.99,2.43-6.54,4.25-10.73,5.51-15.32,4.63-30.82,7.95-46.65,9.14-2.82.21-5.56.73-8.16,1.84-2.6,1.11-5.01,2.84-6.99,5.23-7.78,9.31-16.38,17.47-26.42,24.21-3.61,2.42-6.69,5.47-8.96,9.11-2.27,3.63-3.73,7.85-4.15,12.47-1.25,13.47-2.39,26.93-3.72,40.34-.04.42-.07.83-.07,1.26,0,.73.07,1.51.34,2.35.2.63.55,1.3,1.04,1.88.74.89,1.77,1.46,2.67,1.72.91.27,1.74.33,2.55.34h.34s.05,0,.05,0c.8-.02,1.6-.03,2.41-.03,2.67,0,5.43.1,8.27.1,2.77,0,5.61-.09,8.5-.49,1.12-.16,2.14-.23,3.07-.23,1.32,0,2.45.15,3.38.42,1.41.42,2.42,1.04,3.36,2.08.93,1.04,1.79,2.57,2.44,4.82.4,1.36.98,2.6,1.8,3.65.61.78,1.35,1.44,2.14,1.93,1.19.74,2.43,1.11,3.55,1.29,1.13.18,2.16.2,3.12.21.71,0,1.38-.01,2.01-.01,1.46,0,2.91-.29,4.17-1.03.94-.55,1.68-1.33,2.16-2.08.73-1.14,1-2.16,1.22-2.91.2-.76.35-1.3.45-1.51.79-1.86,1.36-3.56,2-4.96,1.08-2.36,2.08-4.26,3.05-5.73,1.47-2.21,2.77-3.39,4.25-4.16,1.49-.76,3.42-1.18,6.34-1.18,1.56,0,3.37.12,5.46.36,9.05,1,18.13,3.88,27.88,5.59,5.12.88,10.36,1.65,15.72,1.65,5.78,0,11.71-.91,17.54-3.57,13.23-6.03,26.08-12.97,37.81-22.03,3.96-3.05,7.19-6.75,9.65-11.11,5.9-10.43,9.99-21.43,13.95-32.28,1.09-2.99,1.9-5.19,2.58-6.61.51-1.07.93-1.66,1.22-1.96.23-.23.39-.34.69-.48.44-.2,1.33-.42,2.83-.53,1.49-.12,3.55-.14,6.21-.15,1.15,0,2.23-.1,3.33-.42.82-.24,1.66-.63,2.4-1.22.56-.44,1.04-.99,1.4-1.57.55-.88.83-1.79.99-2.63.16-.85.2-1.66.2-2.49v-.34s0-.05,0-.05c-.08-4.84-.1-9.7-.1-14.56,0-6.15.04-12.32.04-18.5v-3.72h-3.72v3.72h-3.72c0,6.15-.04,12.32-.04,18.5,0,4.89.02,9.78.1,14.69l3.72-.06h-3.72s0,.33,0,.33c0,.65-.05,1.08-.09,1.22v.05s0,0,0,0h-.01s0,0,0,0h.02s-.01,0-.01,0l.88.36-.68-.65-.2.29.88.36-.68-.65.78.74-.53-.94-.25.2.78.74-.53-.94.26.46-.22-.48-.05.02.26.46-.22-.48s-.49.13-1.3.13c-3.17.02-5.61.02-7.78.26-1.62.19-3.15.51-4.61,1.23-1.09.53-2.09,1.29-2.89,2.18-1.21,1.35-2.02,2.87-2.79,4.62-.77,1.76-1.5,3.79-2.42,6.32-3.95,10.82-7.92,21.42-13.44,31.17-1.99,3.51-4.51,6.4-7.72,8.89-11.11,8.58-23.43,15.27-36.35,21.15-4.68,2.13-9.44,2.89-14.46,2.9-4.64,0-9.48-.68-14.45-1.54-9.08-1.56-18.31-4.51-28.32-5.65-2.28-.26-4.35-.4-6.29-.4-2.41,0-4.63.23-6.71.82-3.13.87-5.88,2.66-8.04,5.15-2.18,2.49-3.9,5.58-5.67,9.44-.86,1.89-1.44,3.64-2.07,5.12-.39.92-.57,1.69-.73,2.26-.11.43-.21.74-.27.89l-.05.11h0s.67.46.67.46l-.35-.73-.32.27.67.45-.35-.73.15.32-.11-.33-.04.02.15.32-.11-.33s-.13.04-.48.04c-.74,0-1.41.01-2.01.01-.71,0-1.31-.02-1.76-.08-.33-.04-.58-.11-.74-.17-.24-.1-.29-.14-.42-.27-.12-.14-.34-.46-.56-1.2-.59-2.03-1.37-3.85-2.37-5.46-1.49-2.42-3.56-4.33-5.99-5.52-2.43-1.2-5.14-1.69-7.97-1.69-1.33,0-2.69.11-4.09.3-2.38.33-4.88.42-7.48.42-2.66,0-5.43-.1-8.27-.1-.87,0-1.74,0-2.62.03l.11,3.72-.05-3.72h-.24s-.34-.01-.34-.01h-.06s0,0,0,0l-.29,1.26.68-1.09c-.22-.13-.37-.17-.39-.18l-.29,1.26.68-1.09-1.05,1.69,1.85-.75c-.09-.27-.46-.75-.8-.93l-1.05,1.69,1.85-.75-.94.38,1.01-.16-.07-.22-.94.38,1.01-.16v-.17c0-.12,0-.29.02-.52,1.34-13.48,2.48-26.95,3.72-40.38.33-3.51,1.39-6.55,3.05-9.21,1.66-2.66,3.95-4.96,6.8-6.87,10.72-7.19,19.85-15.88,27.99-25.62,1.28-1.52,2.61-2.47,4.22-3.16,1.6-.69,3.51-1.09,5.79-1.26,16.5-1.24,32.54-4.69,48.24-9.44,4.97-1.5,9.45-3.75,13.28-6.86,3.83-3.11,6.97-7.06,9.33-11.82,1.35-2.73,2.78-4.95,4.42-6.42.82-.74,1.7-1.32,2.72-1.76,1.02-.43,2.2-.73,3.68-.84,2.45-.17,4.48-1.18,6.11-2.3,1.64-1.13,2.96-2.4,4.11-3.49,1.75-1.66,3.54-3.45,5.16-5.49,1.61-2.03,3.06-4.32,4.02-6.95.57-1.56,1.21-2.67,1.86-3.47,1-1.2,2.02-1.84,3.57-2.34,1.54-.49,3.63-.7,6.2-.7,14.98-.01,29.87-1.02,44.65-1.8h.02c.17-.01.33-.02.48-.02.47,0,.71.06.71.06l.28-.92-.59.74.31.19.28-.92-.59.74.87-1.07-1.16.74.3.33.87-1.07-1.16.74.66-.42-.74.28.08.14.66-.42-.74.28h0s.09.41.09,1.03v.2s0-.02,0-.02c-.08,5-.1,9.99-.1,14.97,0,6.25.03,12.49.03,18.71v3.72h3.86v-3.72h-3.72,3.72ZM259.92,188.68l2.06,3.09c2.65-1.78,4.65-3.68,6.42-4.96.88-.65,1.69-1.15,2.46-1.49.78-.34,1.51-.54,2.39-.59,7.91-.49,15.74-1.54,23.48-3.05,10.71-2.09,21.52-4.37,32.12-8.19,4.38-1.61,8.38-4.73,11.49-8.53,1.55-1.91,2.87-4,3.82-6.22.95-2.22,1.56-4.58,1.56-7.02,0-.45-.02-.89-.06-1.32h0c-1.25-13.07-1.46-26.38-2.18-39.79-.41-7.63-1.04-15.16-1.38-22.63-.04-.82-.14-1.6-.36-2.4-.17-.6-.41-1.21-.78-1.8-.54-.89-1.44-1.7-2.41-2.14-.97-.45-1.93-.57-2.76-.57-.96,0-1.82.15-2.68.35h0c-2.68.63-5.26,1.63-7.45,3.45-2.2,1.81-3.82,4.42-4.62,7.54-2.07,7.83-4.54,15.4-8.07,22.52-.9,1.82-1.9,2.98-2.98,3.71-1.09.73-2.34,1.15-4.19,1.19-2.43.04-4.86.06-7.3.06-3.77,0-7.55-.05-11.33-.14-3.93-.1-6.91-1.08-9.33-2.79-2.41-1.72-4.36-4.26-5.84-7.93-1.25-3.11-2.52-6.07-3.48-8.99-1.83-5.52-3.43-11.24-5.35-16.98-.29-.83-.64-2.13-1.43-3.53-.41-.7-.94-1.48-1.82-2.18-.44-.35-.97-.67-1.58-.89-.61-.23-1.29-.35-1.95-.35-.5,0-1.01.06-1.51.19l.93,3.6-.9-3.61c-.67.16-1.37.48-1.98.95-.92.7-1.49,1.69-1.75,2.51-.27.84-.31,1.54-.32,2.15,0,.89.12,1.62.2,2.23.09.59.16,1.08.16,1.23h0c.9,21.38,1.88,42.76,2.9,64.14.62,12.84,1.35,25.65,2.08,39.33l.35,6.51,5.43-3.62-2.06-3.09,3.71-.2c-.73-13.7-1.47-26.5-2.08-39.29-1.02-21.37-1.99-42.74-2.9-64.11h0c-.04-.81-.15-1.44-.23-1.99-.08-.54-.13-.98-.12-1.15v-.06s-.85-.07-.85-.07l.81.23.04-.17-.85-.07.81.23-2.05-.59,1.51,1.47c.33-.34.49-.71.53-.89l-2.05-.59,1.51,1.47-1.56-1.52.53,2.13c.25-.05.71-.27,1.03-.61l-1.56-1.52.53,2.13h.04s-.35-1.38-.35-1.38v1.41s.35-.04.35-.04l-.35-1.37v1.41s0-1.8,0-1.8l-.62,1.68c.2.07.43.11.62.11v-1.8l-.62,1.68.47-1.26-1.03.91s.21.22.57.35l.47-1.26-1.03.91.08-.07-.09.07h0s.08-.07.08-.07l-.09.07s.21.32.37.76c.18.44.35,1,.55,1.59,1.84,5.51,3.44,11.22,5.34,16.95,1.1,3.32,2.43,6.43,3.64,9.43,1.87,4.68,4.67,8.55,8.43,11.21,3.75,2.68,8.36,4.05,13.46,4.16,3.83.09,7.67.14,11.5.14,2.47,0,4.95-.02,7.42-.06,3.03-.04,5.9-.87,8.26-2.48,2.37-1.61,4.15-3.9,5.46-6.56,3.83-7.76,6.45-15.82,8.59-23.91.52-1.91,1.23-2.9,2.19-3.72.97-.81,2.39-1.46,4.39-1.93h0c.52-.13.88-.16.98-.16h.02s.09-1.19.09-1.19l-.53,1.05c.25.13.43.14.44.14l.09-1.19-.53,1.05.82-1.64-1.36,1.23c.14.16.35.31.54.41l.82-1.64-1.36,1.23,1.09-.99-1.31.69.21.3,1.09-.99-1.31.69.55-.29-.59.21.04.09.55-.29-.59.21s.07.25.09.74c.35,7.65.98,15.21,1.39,22.69.72,13.22.92,26.63,2.21,40.08h0c.02.2.03.41.03.62,0,1.18-.31,2.59-.95,4.07-.95,2.23-2.64,4.59-4.65,6.52-2,1.94-4.33,3.45-6.36,4.18-9.96,3.6-20.38,5.82-31.01,7.89-7.45,1.45-14.96,2.46-22.52,2.92-1.81.11-3.47.56-4.93,1.21-2.19.97-3.93,2.3-5.51,3.57-1.58,1.28-3.01,2.51-4.5,3.5l2.06,3.09,3.71-.2-3.71.2ZM146.42,150.27l3,2.19c.49-.67.83-1.11,1.13-1.51.3-.4.62-.82.93-1.41,9.6-18.14,22.19-33.02,39.97-43.17,3.22-1.84,6.69-4,9.61-7.25.13-.16.5-.49,1-1.1.25-.31.53-.71.79-1.27.25-.55.46-1.28.46-2.07,0-.8-.21-1.61-.54-2.26-.33-.66-.74-1.18-1.19-1.64-1.81-1.84-3.68-3.92-6.16-5.68-1.24-.87-2.64-1.66-4.23-2.21-1.59-.55-3.35-.87-5.24-.87-.77,0-1.57.05-2.39.16h0c-.4.05-.79.07-1.16.07-1.83,0-3.4-.54-4.98-1.62-1.57-1.07-3.09-2.74-4.42-4.87-3.5-5.56-5.59-12.04-8.12-18.78-1.05-2.78-2.44-5.36-4.46-7.54-2.01-2.18-4.64-3.86-7.79-4.86-1.23-.4-1.88-.92-2.27-1.43-.39-.52-.63-1.14-.64-2.19,0-.33.03-.7.1-1.1h0c.21-1.27.31-2.5.31-3.7.01-3.78-1.06-7.25-2.9-10.16-1.83-2.92-4.35-5.31-7.22-7.38-.76-.54-1.64-1.15-2.71-1.66-1.06-.51-2.36-.95-3.89-.96-1.27-.01-2.68.36-3.89,1.1h0c-1.07.63-2.02,1.6-2.57,2.71-.56,1.11-.71,2.23-.71,3.13,0,1.05.18,1.9.32,2.59.15.69.27,1.23.31,1.55.76,5.79,2.79,10.91,5.4,15.53,2.61,4.63,5.8,8.78,8.98,12.76,1.12,1.41,1.82,2.72,2.29,4.14.46,1.42.68,2.98.69,4.86v.28c0,12.35-1.18,24.9-1.18,37.72,0,1.85.03,3.7.08,5.57.12,3.82.18,7.64.18,11.45,0,4.34-.08,8.67-.26,13-.14,3.63-.76,7.62-.76,12.3,0,1.92.11,3.95.41,6.11l1.28,9.08,5.4-7.41-3-2.19,3.68-.52c-.25-1.76-.34-3.43-.34-5.07,0-3.98.58-7.79.76-12,.18-4.43.26-8.87.26-13.3,0-3.9-.06-7.8-.18-11.69-.06-1.78-.08-3.55-.08-5.33,0-12.35,1.18-24.9,1.18-37.72v-.28s0,0,0,0c0-2.47-.3-4.86-1.05-7.15-.74-2.29-1.93-4.46-3.55-6.48-3.11-3.89-6.04-7.75-8.31-11.78-2.27-4.03-3.89-8.2-4.51-12.85-.12-.86-.29-1.55-.4-2.1-.12-.54-.17-.94-.16-1.06v-.04s-.5-.05-.5-.05l.48.15.02-.1-.5-.05.48.15-1.02-.31.84.67.19-.36-1.02-.31.84.67-.61-.49.51.6.1-.11-.61-.49.51.6h0s0,0,0,0h0s0-.01,0-.01h0s0,0,0,0l.04-.02h0s-.03-.11-.03-.11l.02.11h.02s-.03-.11-.03-.11l.02.11h0s0,0,0,0h0s0,0,0,0h0s.25.03.67.23c.42.2.98.56,1.59,1,2.34,1.68,4.1,3.43,5.25,5.28,1.15,1.86,1.75,3.78,1.77,6.22,0,.78-.07,1.61-.21,2.5h0c-.13.77-.19,1.54-.19,2.3-.01,2.39.69,4.77,2.15,6.68,1.45,1.92,3.55,3.26,5.93,4.02,2.06.67,3.43,1.59,4.6,2.84,1.16,1.25,2.13,2.92,2.95,5.11,2.45,6.46,4.63,13.48,8.78,20.11,1.75,2.78,3.88,5.23,6.5,7.04,2.61,1.81,5.78,2.94,9.19,2.93.69,0,1.39-.04,2.09-.13h0c.51-.07.99-.1,1.44-.1,1.09,0,1.97.17,2.79.45,1.22.43,2.36,1.15,3.59,2.2,1.22,1.04,2.49,2.4,3.93,3.86h0s1.03-.88,1.03-.88l-1.24.54c.1.23.2.34.2.35l1.03-.89-1.24.54,2.2-.96h-2.39c0,.37.09.73.19.96l2.2-.96h-2.39s2.42,0,2.42,0l-2.21-1c-.1.21-.21.59-.21,1h2.42l-2.21-1,1.42.64-1.26-.92-.15.27,1.42.64-1.26-.92.23.17-.22-.18h0s.23.18.23.18l-.22-.18s-.3.31-.73.78c-1.99,2.24-4.72,4.02-7.74,5.75-19.23,10.96-32.82,27.13-42.86,46.15l.09.05-.09-.05h0s.09.05.09.05l-.09-.05-.07.1c-.16.24-.66.86-1.44,1.92l3.01,2.19,3.68-.52-3.68.52ZM346.43,148.11l2.14,3.04c1.7-1.2,3.29-1.98,4.93-2.56,1.63-.59,3.32-.97,5.17-1.32,1.07-.2,2.11-.5,3.12-.97,1.51-.69,2.97-1.89,3.86-3.5.91-1.6,1.25-3.41,1.25-5.27,0-.33-.01-.66-.03-1h0c-1.41-23.3-2.42-46.64-3.62-70.01-.87-16.94-1.77-33.87-2.74-50.81-.1-1.7-.45-3.34-1.23-4.84-.57-1.12-1.39-2.13-2.34-2.92-1.44-1.2-3.13-1.94-4.94-2.43-1.82-.49-3.79-.74-6.01-.9-.45-.03-.89-.05-1.32-.05-1.42,0-2.77.17-4.07.66-.97.37-1.9.94-2.65,1.68-1.14,1.11-1.79,2.48-2.17,3.77-.39,1.31-.55,2.61-.67,4-1.53,18.34-3.22,36.66-5.43,54.88-.11.94-.18,1.86-.18,2.75,0,1.17.12,2.33.45,3.49.25.86.63,1.72,1.17,2.5.8,1.18,1.95,2.12,3.19,2.75,1.25.64,2.6,1.01,4.05,1.24.5.08.77.18.84.22l.03.02.19-.26-.26.19.07.07.19-.26-.26.19.1-.07-.11.06h0s.1-.06.1-.06l-.11.06s.06.11.11.38c.06.26.11.68.12,1.23.46,13.72,1.26,27.38,1.98,41.01.4,7.53.87,15.03,1.35,23.25l.39,6.67,5.46-3.85-2.14-3.04,3.71-.22c-.48-8.24-.96-15.73-1.35-23.21-.72-13.66-1.52-27.28-1.97-40.87-.03-.98-.13-1.93-.37-2.89-.18-.72-.45-1.46-.86-2.18-.61-1.07-1.57-2.03-2.65-2.64-1.09-.62-2.24-.95-3.42-1.14-.81-.13-1.38-.3-1.72-.46-.26-.12-.38-.21-.45-.28-.1-.1-.14-.14-.24-.39-.09-.25-.18-.75-.18-1.5,0-.51.04-1.13.13-1.85,2.23-18.37,3.93-36.78,5.46-55.16.08-1,.2-1.79.34-2.31.1-.39.2-.61.26-.7l.04-.07-.02-.02.02.03h0s-.02-.03-.02-.03l.02.03s.05-.04.28-.1c.23-.06.64-.12,1.24-.12.24,0,.52,0,.82.03,1.71.11,3.12.3,4.19.56.8.19,1.41.41,1.84.63.65.34.87.59,1.09.92.2.34.42.91.48,1.98.96,16.92,1.87,33.84,2.74,50.77,1.2,23.32,2.21,46.69,3.63,70.06h0c.01.2.02.39.02.56,0,.65-.08,1.08-.16,1.32-.14.37-.16.37-.36.53-.2.15-.72.4-1.64.57-2.02.38-4.13.84-6.32,1.63-2.19.78-4.44,1.89-6.7,3.48l2.14,3.04,3.71-.22-3.71.22ZM141.13,107v3.72c.3,0,.59,0,.89,0h3.72s0-3.72,0-3.72c0-3.08-.04-6.13-.04-9.14,0-2.03.02-4.04.09-6.03h0s0-.47,0-.47c0-1.09-.13-2.17-.5-3.23-.28-.8-.72-1.59-1.31-2.25-.88-1.02-2.06-1.68-3.17-2.01-1.12-.35-2.21-.44-3.3-.44h-.36s.14,3.72.14,3.72l-.06-3.72c-1.87.03-3.62.24-5.28.71-2.48.69-4.76,2.08-6.4,4.1-1.65,2.01-2.66,4.47-3.31,7.27-1.32,5.73-2.31,11.38-3.67,16.77-.35,1.41-.94,2.55-1.6,3.26-.33.36-.67.62-1.05.82-.38.19-.81.33-1.37.39-3.2.32-5.98,1.54-8.11,3.29-2.14,1.75-3.66,3.91-4.93,6.14-3.86,6.81-7.95,13.62-11.68,20.74-.25.49-.74,1.19-1.36,1.95-.93,1.16-2.13,2.44-3.21,3.83-.54.71-1.07,1.45-1.52,2.32-.44.87-.84,1.92-.85,3.27-.01.99.29,2.13.88,3.04.5.78,1.12,1.41,1.77,1.91,1.14.86,2.33,1.35,3.49,1.72,1.75.55,3.52.83,5.19,1.11,1.66.27,3.22.53,4.35.86,3.04.87,6.06,1.36,9.03,1.36,3.43,0,6.82-.67,9.96-2.17,3.15-1.49,6.01-3.79,8.5-6.83,1.28-1.58,2.55-2.7,3.81-3.41,1.27-.71,2.52-1.06,4.12-1.07.56,0,1.16.05,1.81.15h0c.63.1,1.25.16,1.87.16,1.07,0,2.18-.18,3.24-.67.79-.37,1.52-.92,2.08-1.56.85-.98,1.31-2.09,1.57-3.13.26-1.05.33-2.07.33-3.12v-.22c-.07-5.94-.09-11.88-.09-17.83,0-7.18.03-14.38.03-21.58h-3.72v3.72-3.72h-3.72c0,7.18-.03,14.37-.03,21.58,0,5.96.02,11.94.09,17.91l3.72-.04-3.72-.03v.21c0,.57-.05,1.01-.1,1.26l-.05.2-.02.04.85.41-.45-.8c-.21.11-.4.37-.39.38l.85.41-.45-.8.33.59-.15-.66-.18.08.33.59-.15-.66h-.2c-.15.01-.37,0-.67-.05h0c-1.03-.17-2.03-.25-3.02-.25-2.83,0-5.5.73-7.78,2.04-2.29,1.3-4.21,3.1-5.91,5.17-1.89,2.31-3.86,3.84-5.93,4.82-2.07.98-4.29,1.45-6.77,1.45-2.15,0-4.49-.36-7-1.08-1.35-.38-2.69-.63-3.99-.85-1.94-.32-3.78-.6-5.05-.97-.63-.18-1.11-.38-1.36-.52l-.21-.14h0s-.34.29-.34.29l.37-.24-.04-.05-.34.29.37-.24-1.49.94h1.77c.01-.25-.1-.69-.28-.95l-1.49.95h1.77s-1.19,0-1.19,0l1.17.24.02-.24h-1.19l1.17.24-.49-.1.48.14v-.04s-.48-.1-.48-.1l.48.14.02-.05c.06-.16.33-.62.75-1.16.63-.83,1.57-1.88,2.55-3.03.98-1.16,2-2.42,2.81-3.96,3.59-6.86,7.63-13.6,11.55-20.52,1.01-1.79,2.04-3.14,3.15-4.04,1.12-.89,2.3-1.45,4.2-1.67,1.44-.15,2.8-.56,4-1.18,1.81-.93,3.24-2.33,4.28-3.87,1.04-1.55,1.73-3.25,2.17-4.99,1.45-5.75,2.43-11.45,3.7-16.91.32-1.39.72-2.45,1.15-3.23.66-1.17,1.28-1.75,2.23-2.24.95-.48,2.39-.82,4.49-.85h.06s.02,0,.02,0h.08c.54,0,.9.05,1.04.09l.08.03.23-.55-.39.44.16.11.23-.55-.39.44.6-.67-.76.49.16.18.6-.67-.76.49.4-.26-.45.18.04.08.4-.26-.45.18v.03c.03.08.08.32.08.73v.23s0,0,0,0c-.07,2.11-.09,4.2-.09,6.28,0,3.08.04,6.13.04,9.14h3.72v-3.72c-.3,0-.59,0-.89,0h-3.72v3.72h3.72ZM328.96,80.86l.18-3.71c-7.35-.35-14.69-.74-22.08-.74-4.26,0-8.53.13-12.82.47-2.22.18-4.26.74-6.07,1.53-2.73,1.19-4.97,2.84-6.98,4.46-2.01,1.63-3.8,3.24-5.54,4.5-2.94,2.14-5.11,3.71-6.84,5.45-.86.87-1.62,1.83-2.19,2.97-.57,1.14-.87,2.46-.86,3.72.01,1.99.6,3.72,1.38,5.6.8,1.88,1.86,3.96,3.18,6.56,1.33,2.63,3.06,5,5.36,6.82,2.29,1.83,5.14,3.03,8.32,3.44,3.77.5,7.49.66,11.14.66,3.95,0,7.82-.18,11.63-.32,1.1-.04,2.18-.28,3.15-.69,1.46-.61,2.62-1.58,3.49-2.61.88-1.04,1.51-2.14,2.03-3.22,2.94-6.14,5.35-12.51,7.09-19.12.77-2.94,1.6-5.53,2.81-7.56,1.22-2.04,2.7-3.59,5.27-4.87l13.01-6.36-14.47-.69-.18,3.71-1.63-3.34c-3.88,1.88-6.62,4.71-8.41,7.77-1.8,3.07-2.76,6.32-3.59,9.44-1.61,6.11-3.85,12.04-6.61,17.8-.45.95-.93,1.61-1.27,1.91-.17.15-.3.23-.43.29-.13.05-.27.09-.53.11-3.85.14-7.64.32-11.35.32-3.45,0-6.83-.15-10.16-.59-2.01-.28-3.43-.92-4.69-1.9-1.25-.99-2.35-2.41-3.34-4.35-1.32-2.6-2.34-4.61-2.96-6.09-.64-1.48-.81-2.38-.8-2.71,0-.22.02-.25.1-.44.12-.27.61-.93,1.75-1.9,1.12-.96,2.79-2.2,4.98-3.79,2.88-2.11,5.27-4.41,7.63-6.1,1.17-.85,2.32-1.55,3.49-2.06,1.17-.51,2.36-.83,3.7-.94,4.05-.32,8.12-.45,12.23-.45,7.13,0,14.35.38,21.73.73l.18-3.71-1.63-3.34,1.63,3.34ZM125.56,21.72l-.49-3.69c-.55.07-1.09.14-1.64.22l-2.96.39-.26,2.97c-2.66,30.2-5.31,60.4-7.97,90.6l-.32,3.61,3.6.41c.46.05.93.11,1.39.16l2.72.31,1.11-2.5c1.58-3.58,2.31-7.18,2.9-10.56.58-3.39,1.03-6.6,1.85-9.49.38-1.34.83-2.43,1.33-3.3.76-1.31,1.58-2.13,2.67-2.79,1.1-.65,2.56-1.12,4.6-1.33,1.07-.11,2.09-.19,3-.19.43,0,.83.02,1.21.05h0c.38.04.76.06,1.14.06.9,0,1.82-.11,2.77-.44.71-.25,1.42-.65,2.02-1.19.92-.81,1.53-1.88,1.84-2.89.32-1.02.41-2.01.42-3v-.07h0s-.98-.01-.98-.01l.98.02h0s-.98-.02-.98-.02l.98.02v-.07s0-.05,0-.05c-.01-1.16-.02-2.32-.02-3.49,0-4.37.09-8.77.18-13.19v-.24c0-1.35-.24-2.67-.69-3.88-.45-1.21-1.11-2.29-1.86-3.25-3.97-5.04-7.73-9.97-10.44-15.15-2.71-5.19-4.4-10.56-4.41-16.77,0-.38,0-.76.02-1.13l.16-4.4-4.36.57.49,3.69-3.72-.14c-.02.48-.02.94-.02,1.4,0,7.61,2.14,14.29,5.26,20.22,3.12,5.94,7.18,11.21,11.18,16.3.38.48.6.89.75,1.27.14.38.22.75.22,1.26v.11s0-.02,0-.02c-.09,4.42-.18,8.87-.18,13.34,0,1.19,0,2.39.02,3.58l3.72-.05-3.72-.07v.21c0,.42-.05.68-.06.74h0s.81.29.81.29l-.67-.51-.14.24.81.28-.67-.51,1.02.78-.47-1.21c-.12.04-.41.23-.55.42l1.02.78-.47-1.21.19.49-.13-.51-.06.02.19.49-.13-.51h0s-.29.02-.29.02c-.12,0-.27,0-.45-.02h0c-.66-.06-1.3-.08-1.91-.08-1.33,0-2.59.11-3.75.23-1.89.19-3.65.57-5.29,1.2-2.46.93-4.61,2.46-6.23,4.48-1.63,2.01-2.73,4.41-3.5,7.11-1.01,3.56-1.47,7.03-2.03,10.25-.55,3.22-1.2,6.18-2.37,8.82l3.4,1.51.42-3.69c-.46-.05-.93-.11-1.39-.16l-.42,3.69,3.7.33c2.66-30.2,5.31-60.4,7.97-90.6l-3.7-.33.49,3.69c.55-.07,1.09-.14,1.64-.22l-.49-3.69-3.72-.14,3.72.14ZM320.03,75.36l.94,3.6-.06-.22.05.22h0s-.06-.22-.06-.22l.05.22s.1-.02.3-.02c.3,0,.78.04,1.37.1.59.06,1.3.13,2.12.13.74,0,1.6-.06,2.54-.33.7-.2,1.45-.54,2.14-1.04,1.04-.75,1.87-1.86,2.38-3.06.52-1.21.79-2.52.91-4,1.41-17.78,3.38-35.58,5.11-53.45.19-1.98.35-3.54.35-5,0-1.12-.07-2.23-.58-3.5-.37-.94-1.11-1.92-2.01-2.53-.66-.47-1.36-.76-2-.95-.98-.28-1.88-.37-2.85-.44-.97-.06-2.01-.06-3.21-.06-.5,0-1.04,0-1.6,0h0c-1.01,0-1.99.08-3,.33-.76.19-1.54.5-2.27.98-1.1.71-1.97,1.79-2.47,2.87-.52,1.1-.78,2.19-.96,3.35-2.71,18-5.71,35.99-8.56,54.04-.35,2.29-.65,3.99-.66,5.7,0,.57.04,1.16.16,1.79.11.55.3,1.14.61,1.72.53,1.03,1.49,1.92,2.43,2.38.71.37,1.39.57,2.05.7.99.2,1.95.27,3.04.32,1.09.04,2.29.05,3.69.07h.49s.48-.12.48-.12l-.94-3.6.03-3.72c-1.62-.01-2.92-.03-3.86-.08-.71-.04-1.21-.1-1.45-.16l-.16-.04-.02.07.03-.06h0s-.02.06-.02.06l.03-.06-.49,1.18.83-.95-.34-.22-.49,1.18.83-.95-1.1,1.26,1.61-.52c-.04-.15-.25-.53-.51-.74l-1.1,1.26,1.61-.52-.69.22.71-.15-.02-.07-.69.22.71-.15h0s-.02-.14-.02-.31c-.01-.69.21-2.29.57-4.54,2.84-18,5.85-36.01,8.57-54.1.09-.64.22-1.04.28-1.19l.04-.09-.44-.27.33.4.12-.12-.44-.27.33.4-.36-.44.25.52.12-.08-.36-.44.25.52s.46-.13,1.27-.13h0c.56,0,1.08,0,1.57,0,1.37,0,2.43.02,3.12.08.52.04.83.11.86.13h0s.39-1.08.39-1.08l-.73.86c.18.16.34.22.34.22l.39-1.08-.73.86.93-1.1-1.41.41s.19.46.48.69l.93-1.1-1.41.41.1-.03-.1.02h0s.1-.02.1-.02l-.1.02s.05.29.05.75c0,.85-.13,2.32-.32,4.28-1.72,17.8-3.7,35.63-5.12,53.57-.06.81-.19,1.32-.29,1.56l-.08.17v.02s.18.13.18.13l-.17-.15-.02.03.19.13-.17-.15.44.4-.19-.58-.26.17.44.4-.19-.58h-.02s-.2.04-.44.04c-.33,0-.82-.04-1.41-.1-.59-.06-1.28-.13-2.09-.13-.64,0-1.36.05-2.17.26l.94,3.6.03-3.72-.03,3.72ZM459,386.46l-446.86.28,1.52-10.48h444.96l.39,10.21Z"/>
  <path class="cls-10" d="M338.94,78.64c3.11.49,4.06,2.09,4.17,5.31.45,13.65,1.26,27.29,1.98,40.94.39,7.5.87,15,1.35,23.23,3.96-2.79,7.68-3.77,11.56-4.5,3.58-.67,5.44-2.5,5.18-6.86-1.41-23.33-2.43-46.68-3.62-70.03-.87-16.93-1.77-33.86-2.74-50.79-.3-5.3-3.69-7.1-11.06-7.59-5.38-.36-6.53,1.85-6.93,6.66-1.53,18.37-3.22,36.73-5.45,55.02-.63,5.21.55,7.82,5.57,8.61ZM347.28,35.13s2.98,3.03,4.25,5.45c-2.65-.37-7.03,0-7.03,0l2.78-5.45ZM347.52,53.53c2.09,1.65,2.99,3.8,4.22,6.52h-7.23c-.03-2.69,1.72-4.31,3.02-6.52Z"/>
  <path class="cls-8" d="M262.73,334.2c1.79-.19,3.62-.03,5.43-.04,2.64,0,5.28-.12,7.9.02-2.63-.14-5.27-.03-7.9-.03-1.81.01-3.64-.14-5.43.04Z"/>
  <path class="cls-8" d="M160.45,325.7c-1.81.09-3.62.02-5.44.02-2.47,0-4.95.15-7.41-.03,2.46.18,4.94.03,7.41.03,1.81-.01,3.63.07,5.44-.03Z"/>
  <path class="cls-8" d="M103.9,325.68c-1.79.18-3.61.03-5.41.04-2.62,0-5.26.11-7.87-.02,2.62.13,5.25.02,7.87.02,1.8-.01,3.62.14,5.41-.04Z"/>
  <path class="cls-8" d="M206.11,334.2c1.8-.16,3.62-.03,5.43-.03,2.47,0,4.95-.13,7.41.03-2.46-.16-4.94-.03-7.41-.03-1.81,0-3.63-.13-5.43.04Z"/>
</svg>