<svg width="41" height="49" viewBox="0 0 41 49" fill="none" xmlns="http://www.w3.org/2000/svg">
<mask id="path-1-inside-1_11_7233" fill="white">
<path fill-rule="evenodd" clip-rule="evenodd" d="M12.4519 1.97712H23.3358V0.925252C23.3358 0.41447 22.9262 0 22.4217 0H13.367C12.8614 0 12.4529 0.415552 12.4529 0.925252V1.97712H12.4519ZM37.9731 28.1266H30.3467C30.0161 33.4941 25.6087 37.7578 20.234 37.7578C14.8635 37.7578 10.4562 33.4941 10.1213 28.1266H0V29.9121C0 30.3526 0.353055 30.7097 0.783974 30.7097H4.24626C5.1561 30.7097 5.92727 31.2757 6.21099 32.1511C6.44139 32.861 6.72511 33.5601 7.06003 34.23C7.47388 35.0535 7.32136 36.0069 6.67711 36.6595L4.22919 39.1441C4.08093 39.2945 4.00307 39.4947 4.00307 39.7079C4.00307 39.9211 4.082 40.1224 4.22919 40.2717L7.62215 43.7152C7.77041 43.8645 7.97093 43.9478 8.17999 43.9478C8.38905 43.9478 8.58958 43.8656 8.73784 43.7152L11.1858 41.2305C11.83 40.578 12.7665 40.4254 13.5814 40.8431C14.2395 41.1818 14.9318 41.4718 15.6283 41.7056C16.4955 41.9934 17.0522 42.7759 17.0522 43.6968V47.2095C17.0522 47.6499 17.4053 48.007 17.8362 48.007H22.636C23.0712 48.007 23.4243 47.6488 23.4243 47.2095V43.6979C23.4243 42.7758 23.9821 41.9945 24.844 41.7056C25.5448 41.4718 26.2338 41.1829 26.8951 40.8431C27.7047 40.4265 28.6455 40.578 29.2908 41.2305L31.7387 43.7152C31.8869 43.8645 32.0832 43.9478 32.2965 43.9478C32.5056 43.9478 32.7018 43.8656 32.8501 43.7152L36.2473 40.2717C36.3913 40.1213 36.4735 39.9211 36.4735 39.7079C36.4735 39.4947 36.3903 39.2934 36.2473 39.1441L33.7951 36.6595C33.1552 36.0069 33.0026 35.0535 33.4122 34.23C33.7471 33.5601 34.0351 32.861 34.2655 32.1511C34.5482 31.2757 35.3194 30.7097 36.2303 30.7097H39.6883C40.1235 30.7097 40.4765 30.3515 40.4765 29.9121V28.1266H38.0243C38.0041 28.1266 37.9913 28.1266 37.9731 28.1266ZM37.9998 19.2647C37.2553 19.2647 36.2399 20.4984 35.6564 23.2547C35.4036 24.4667 35.5306 25.5012 36.0052 26.0932C36.3017 26.4633 36.754 26.6949 37.3598 26.7847V24.1626C37.3598 23.8033 37.6425 23.5133 37.9998 23.5133C38.3529 23.5133 38.6355 23.8044 38.6355 24.1626V26.7847C39.2414 26.6949 39.6979 26.4622 39.9987 26.091C40.4733 25.498 40.6003 24.4634 40.3432 23.2547C39.764 20.4984 38.7486 19.2647 37.9998 19.2647ZM33.8922 18.8989C33.8922 18.8481 33.9359 18.8037 33.9839 18.8037H35.778C35.826 18.8037 35.8697 18.8481 35.8697 18.8989V19.2517C35.5647 19.6738 35.2863 20.1965 35.042 20.8111H33.9839C33.9359 20.8111 33.8922 20.7668 33.8922 20.7159V18.8989ZM27.6513 18.8989V20.7159C27.6513 20.7668 27.6951 20.8111 27.7431 20.8111H29.5329C29.5851 20.8111 29.6289 20.7668 29.6289 20.7159V18.8989C29.6289 18.8481 29.5851 18.8037 29.5329 18.8037H27.7431C27.6951 18.8048 27.6513 18.8481 27.6513 18.8989ZM4.98757 26.828V24.445C4.98757 23.9299 4.57371 23.5101 4.06813 23.5101C3.55828 23.5101 3.14443 23.9289 3.14443 24.445V26.828H4.98757ZM8.13626 26.828H6.26753V24.445C6.26753 23.2135 5.27876 22.2115 4.06813 22.2115C2.85324 22.2115 1.86447 23.2135 1.86447 24.445V26.828H0V7.33275C0 6.77327 0.449052 6.31768 0.9973 6.31768H7.13363C7.68721 6.31768 8.1352 6.77327 8.1352 7.33275V20.1672C8.1 20.5687 8.09146 21.0113 8.1352 21.4626V26.828H8.13626ZM6.28886 11.8789V8.76987C6.28886 8.41059 6.0062 8.12057 5.64888 8.12057C5.29582 8.12057 5.01317 8.41167 5.01317 8.76987V11.8789C5.01317 12.2382 5.29582 12.5282 5.64888 12.5282C6.0062 12.5293 6.28886 12.2382 6.28886 11.8789ZM6.28886 18.4434V15.3332C6.28886 14.9739 6.0062 14.6839 5.64888 14.6839C5.29582 14.6839 5.01317 14.975 5.01317 15.3332V18.4434C5.01317 18.8015 5.29582 19.0927 5.64888 19.0927C6.0062 19.0927 6.28886 18.8015 6.28886 18.4434ZM3.1231 18.4434V15.3332C3.1231 14.9739 2.83617 14.6839 2.48312 14.6839C2.13006 14.6839 1.84314 14.975 1.84314 15.3332V18.4434C1.84314 18.8015 2.13006 19.0927 2.48312 19.0927C2.83511 19.0927 3.1231 18.8015 3.1231 18.4434ZM3.1231 11.8789V8.76987C3.1231 8.41059 2.83617 8.12057 2.48312 8.12057C2.13006 8.12057 1.84314 8.41167 1.84314 8.76987V11.8789C1.84314 12.2382 2.13006 12.5282 2.48312 12.5282C2.83511 12.5293 3.1231 12.2382 3.1231 11.8789ZM14.3334 24.0457C13.8374 24.4872 13.2102 24.7567 12.4519 24.8487V26.8269H14.3334V24.0457ZM13.6806 22.8727C14.2342 22.1974 14.3953 20.967 14.1201 19.4952C13.5451 16.4067 12.5212 15.001 11.8161 15.001C11.11 15.001 10.0914 16.4078 9.51648 19.4952C9.24236 20.9691 9.39915 22.2017 9.95167 22.8748C10.2439 23.2276 10.6439 23.4462 11.1708 23.5371V20.9962C11.1708 20.638 11.4578 20.3469 11.8108 20.3469C12.1681 20.3469 12.4508 20.638 12.4508 20.9962V23.5371C12.983 23.4462 13.3884 23.2276 13.6806 22.8727ZM20.0303 22.2093H15.7573C15.6795 22.2093 15.6133 22.2775 15.6133 22.3586V26.828H20.1775V22.3586C20.1785 22.2775 20.1081 22.2093 20.0303 22.2093ZM23.3358 18.8513V26.828H21.4585V22.3586C21.4585 21.56 20.8185 20.9107 20.0303 20.9107H15.7573C15.6795 20.9107 15.6005 20.9193 15.527 20.9313C15.5355 20.2906 15.4576 19.6954 15.3787 19.2539C15.3531 19.1165 15.3264 18.9834 15.2955 18.8502H23.3358V18.8513ZM23.3358 15.7358V17.5527H14.9776C14.7728 16.8591 14.5424 16.252 14.2811 15.7358H23.3358ZM23.3358 12.6213H12.4519V13.8149C12.7825 13.9318 13.0918 14.1417 13.3884 14.4372H23.3358V12.6213ZM23.3358 11.3227V9.50574H12.4519V11.3227H23.3358ZM33.8922 12.7641V14.5811C33.8922 14.632 33.9359 14.6763 33.9839 14.6763H35.778C35.826 14.6763 35.8697 14.632 35.8697 14.5811V12.7641C35.8697 12.7133 35.826 12.67 35.778 12.67H33.9839C33.9359 12.67 33.8922 12.7144 33.8922 12.7641ZM29.5329 12.67H27.7431C27.6951 12.67 27.6513 12.7144 27.6513 12.7641V14.5811C27.6513 14.632 27.6951 14.6763 27.7431 14.6763H29.5329C29.5851 14.6763 29.6289 14.632 29.6289 14.5811V12.7641C29.6289 12.7144 29.5851 12.67 29.5329 12.67ZM38.7486 9.50574C38.836 9.50574 38.9054 9.57825 38.9054 9.66374V18.1717C38.6185 18.0365 38.3177 17.9661 37.9998 17.9661C37.6425 17.9661 37.3033 18.0549 36.9812 18.2291C36.7465 17.7984 36.2975 17.5062 35.7791 17.5062H33.985C33.232 17.5062 32.6133 18.1317 32.6133 18.9V20.717C32.6133 21.4853 33.232 22.1108 33.985 22.1108H34.6164C34.5429 22.39 34.4725 22.6811 34.4074 22.9841C34.2154 23.9018 34.033 25.604 34.9471 26.8291H24.6168V9.50574H38.7486ZM26.3714 12.7641C26.3714 11.9958 26.9858 11.3714 27.7431 11.3714H29.5329C30.2902 11.3714 30.9088 11.9958 30.9088 12.7641V14.5811C30.9088 15.3494 30.2902 15.9749 29.5329 15.9749H27.7431C26.9858 15.9749 26.3714 15.3494 26.3714 14.5811V12.7641ZM26.3714 18.8989C26.3714 18.1306 26.9858 17.5051 27.7431 17.5051H29.5329C30.2902 17.5051 30.9088 18.1306 30.9088 18.8989V20.7159C30.9088 21.4842 30.2902 22.1097 29.5329 22.1097H27.7431C26.9858 22.1097 26.3714 21.4842 26.3714 20.7159V18.8989ZM32.6122 14.5811V12.7641C32.6122 11.9958 33.2309 11.3714 33.9839 11.3714H35.778C36.5353 11.3714 37.1497 11.9958 37.1497 12.7641V14.5811C37.1497 15.3494 36.5353 15.9749 35.778 15.9749H33.9839C33.2309 15.9749 32.6122 15.3494 32.6122 14.5811ZM23.3358 6.39019H12.4519V8.20714H23.3358V6.39019ZM12.4519 5.09159H23.3358V3.27572H12.4519V5.09159Z"/>
</mask>
<path fill-rule="evenodd" clip-rule="evenodd" d="M12.4519 1.97712H23.3358V0.925252C23.3358 0.41447 22.9262 0 22.4217 0H13.367C12.8614 0 12.4529 0.415552 12.4529 0.925252V1.97712H12.4519ZM37.9731 28.1266H30.3467C30.0161 33.4941 25.6087 37.7578 20.234 37.7578C14.8635 37.7578 10.4562 33.4941 10.1213 28.1266H0V29.9121C0 30.3526 0.353055 30.7097 0.783974 30.7097H4.24626C5.1561 30.7097 5.92727 31.2757 6.21099 32.1511C6.44139 32.861 6.72511 33.5601 7.06003 34.23C7.47388 35.0535 7.32136 36.0069 6.67711 36.6595L4.22919 39.1441C4.08093 39.2945 4.00307 39.4947 4.00307 39.7079C4.00307 39.9211 4.082 40.1224 4.22919 40.2717L7.62215 43.7152C7.77041 43.8645 7.97093 43.9478 8.17999 43.9478C8.38905 43.9478 8.58958 43.8656 8.73784 43.7152L11.1858 41.2305C11.83 40.578 12.7665 40.4254 13.5814 40.8431C14.2395 41.1818 14.9318 41.4718 15.6283 41.7056C16.4955 41.9934 17.0522 42.7759 17.0522 43.6968V47.2095C17.0522 47.6499 17.4053 48.007 17.8362 48.007H22.636C23.0712 48.007 23.4243 47.6488 23.4243 47.2095V43.6979C23.4243 42.7758 23.9821 41.9945 24.844 41.7056C25.5448 41.4718 26.2338 41.1829 26.8951 40.8431C27.7047 40.4265 28.6455 40.578 29.2908 41.2305L31.7387 43.7152C31.8869 43.8645 32.0832 43.9478 32.2965 43.9478C32.5056 43.9478 32.7018 43.8656 32.8501 43.7152L36.2473 40.2717C36.3913 40.1213 36.4735 39.9211 36.4735 39.7079C36.4735 39.4947 36.3903 39.2934 36.2473 39.1441L33.7951 36.6595C33.1552 36.0069 33.0026 35.0535 33.4122 34.23C33.7471 33.5601 34.0351 32.861 34.2655 32.1511C34.5482 31.2757 35.3194 30.7097 36.2303 30.7097H39.6883C40.1235 30.7097 40.4765 30.3515 40.4765 29.9121V28.1266H38.0243C38.0041 28.1266 37.9913 28.1266 37.9731 28.1266ZM37.9998 19.2647C37.2553 19.2647 36.2399 20.4984 35.6564 23.2547C35.4036 24.4667 35.5306 25.5012 36.0052 26.0932C36.3017 26.4633 36.754 26.6949 37.3598 26.7847V24.1626C37.3598 23.8033 37.6425 23.5133 37.9998 23.5133C38.3529 23.5133 38.6355 23.8044 38.6355 24.1626V26.7847C39.2414 26.6949 39.6979 26.4622 39.9987 26.091C40.4733 25.498 40.6003 24.4634 40.3432 23.2547C39.764 20.4984 38.7486 19.2647 37.9998 19.2647ZM33.8922 18.8989C33.8922 18.8481 33.9359 18.8037 33.9839 18.8037H35.778C35.826 18.8037 35.8697 18.8481 35.8697 18.8989V19.2517C35.5647 19.6738 35.2863 20.1965 35.042 20.8111H33.9839C33.9359 20.8111 33.8922 20.7668 33.8922 20.7159V18.8989ZM27.6513 18.8989V20.7159C27.6513 20.7668 27.6951 20.8111 27.7431 20.8111H29.5329C29.5851 20.8111 29.6289 20.7668 29.6289 20.7159V18.8989C29.6289 18.8481 29.5851 18.8037 29.5329 18.8037H27.7431C27.6951 18.8048 27.6513 18.8481 27.6513 18.8989ZM4.98757 26.828V24.445C4.98757 23.9299 4.57371 23.5101 4.06813 23.5101C3.55828 23.5101 3.14443 23.9289 3.14443 24.445V26.828H4.98757ZM8.13626 26.828H6.26753V24.445C6.26753 23.2135 5.27876 22.2115 4.06813 22.2115C2.85324 22.2115 1.86447 23.2135 1.86447 24.445V26.828H0V7.33275C0 6.77327 0.449052 6.31768 0.9973 6.31768H7.13363C7.68721 6.31768 8.1352 6.77327 8.1352 7.33275V20.1672C8.1 20.5687 8.09146 21.0113 8.1352 21.4626V26.828H8.13626ZM6.28886 11.8789V8.76987C6.28886 8.41059 6.0062 8.12057 5.64888 8.12057C5.29582 8.12057 5.01317 8.41167 5.01317 8.76987V11.8789C5.01317 12.2382 5.29582 12.5282 5.64888 12.5282C6.0062 12.5293 6.28886 12.2382 6.28886 11.8789ZM6.28886 18.4434V15.3332C6.28886 14.9739 6.0062 14.6839 5.64888 14.6839C5.29582 14.6839 5.01317 14.975 5.01317 15.3332V18.4434C5.01317 18.8015 5.29582 19.0927 5.64888 19.0927C6.0062 19.0927 6.28886 18.8015 6.28886 18.4434ZM3.1231 18.4434V15.3332C3.1231 14.9739 2.83617 14.6839 2.48312 14.6839C2.13006 14.6839 1.84314 14.975 1.84314 15.3332V18.4434C1.84314 18.8015 2.13006 19.0927 2.48312 19.0927C2.83511 19.0927 3.1231 18.8015 3.1231 18.4434ZM3.1231 11.8789V8.76987C3.1231 8.41059 2.83617 8.12057 2.48312 8.12057C2.13006 8.12057 1.84314 8.41167 1.84314 8.76987V11.8789C1.84314 12.2382 2.13006 12.5282 2.48312 12.5282C2.83511 12.5293 3.1231 12.2382 3.1231 11.8789ZM14.3334 24.0457C13.8374 24.4872 13.2102 24.7567 12.4519 24.8487V26.8269H14.3334V24.0457ZM13.6806 22.8727C14.2342 22.1974 14.3953 20.967 14.1201 19.4952C13.5451 16.4067 12.5212 15.001 11.8161 15.001C11.11 15.001 10.0914 16.4078 9.51648 19.4952C9.24236 20.9691 9.39915 22.2017 9.95167 22.8748C10.2439 23.2276 10.6439 23.4462 11.1708 23.5371V20.9962C11.1708 20.638 11.4578 20.3469 11.8108 20.3469C12.1681 20.3469 12.4508 20.638 12.4508 20.9962V23.5371C12.983 23.4462 13.3884 23.2276 13.6806 22.8727ZM20.0303 22.2093H15.7573C15.6795 22.2093 15.6133 22.2775 15.6133 22.3586V26.828H20.1775V22.3586C20.1785 22.2775 20.1081 22.2093 20.0303 22.2093ZM23.3358 18.8513V26.828H21.4585V22.3586C21.4585 21.56 20.8185 20.9107 20.0303 20.9107H15.7573C15.6795 20.9107 15.6005 20.9193 15.527 20.9313C15.5355 20.2906 15.4576 19.6954 15.3787 19.2539C15.3531 19.1165 15.3264 18.9834 15.2955 18.8502H23.3358V18.8513ZM23.3358 15.7358V17.5527H14.9776C14.7728 16.8591 14.5424 16.252 14.2811 15.7358H23.3358ZM23.3358 12.6213H12.4519V13.8149C12.7825 13.9318 13.0918 14.1417 13.3884 14.4372H23.3358V12.6213ZM23.3358 11.3227V9.50574H12.4519V11.3227H23.3358ZM33.8922 12.7641V14.5811C33.8922 14.632 33.9359 14.6763 33.9839 14.6763H35.778C35.826 14.6763 35.8697 14.632 35.8697 14.5811V12.7641C35.8697 12.7133 35.826 12.67 35.778 12.67H33.9839C33.9359 12.67 33.8922 12.7144 33.8922 12.7641ZM29.5329 12.67H27.7431C27.6951 12.67 27.6513 12.7144 27.6513 12.7641V14.5811C27.6513 14.632 27.6951 14.6763 27.7431 14.6763H29.5329C29.5851 14.6763 29.6289 14.632 29.6289 14.5811V12.7641C29.6289 12.7144 29.5851 12.67 29.5329 12.67ZM38.7486 9.50574C38.836 9.50574 38.9054 9.57825 38.9054 9.66374V18.1717C38.6185 18.0365 38.3177 17.9661 37.9998 17.9661C37.6425 17.9661 37.3033 18.0549 36.9812 18.2291C36.7465 17.7984 36.2975 17.5062 35.7791 17.5062H33.985C33.232 17.5062 32.6133 18.1317 32.6133 18.9V20.717C32.6133 21.4853 33.232 22.1108 33.985 22.1108H34.6164C34.5429 22.39 34.4725 22.6811 34.4074 22.9841C34.2154 23.9018 34.033 25.604 34.9471 26.8291H24.6168V9.50574H38.7486ZM26.3714 12.7641C26.3714 11.9958 26.9858 11.3714 27.7431 11.3714H29.5329C30.2902 11.3714 30.9088 11.9958 30.9088 12.7641V14.5811C30.9088 15.3494 30.2902 15.9749 29.5329 15.9749H27.7431C26.9858 15.9749 26.3714 15.3494 26.3714 14.5811V12.7641ZM26.3714 18.8989C26.3714 18.1306 26.9858 17.5051 27.7431 17.5051H29.5329C30.2902 17.5051 30.9088 18.1306 30.9088 18.8989V20.7159C30.9088 21.4842 30.2902 22.1097 29.5329 22.1097H27.7431C26.9858 22.1097 26.3714 21.4842 26.3714 20.7159V18.8989ZM32.6122 14.5811V12.7641C32.6122 11.9958 33.2309 11.3714 33.9839 11.3714H35.778C36.5353 11.3714 37.1497 11.9958 37.1497 12.7641V14.5811C37.1497 15.3494 36.5353 15.9749 35.778 15.9749H33.9839C33.2309 15.9749 32.6122 15.3494 32.6122 14.5811ZM23.3358 6.39019H12.4519V8.20714H23.3358V6.39019ZM12.4519 5.09159H23.3358V3.27572H12.4519V5.09159Z" fill="#1C6955" stroke="#000F0A" stroke-width="0.8" mask="url(#path-1-inside-1_11_7233)"/>
<path fill-rule="evenodd" clip-rule="evenodd" d="M33.7495 18.8991C33.7495 18.8482 33.7933 18.8038 33.8413 18.8038H35.6353C35.6833 18.8038 35.7271 18.8482 35.7271 18.8991V19.2518C35.422 19.6739 35.1436 20.1966 34.8994 20.8112H33.8413C33.7933 20.8112 33.7495 20.7669 33.7495 20.716V18.8991ZM27.5087 18.8991V20.716C27.5087 20.7669 27.5524 20.8112 27.6004 20.8112H29.3902C29.4425 20.8112 29.4862 20.7669 29.4862 20.716V18.8991C29.4862 18.8482 29.4425 18.8038 29.3902 18.8038H27.6004C27.5524 18.8049 27.5087 18.8482 27.5087 18.8991ZM33.7495 12.7643V14.5812C33.7495 14.6321 33.7933 14.6764 33.8413 14.6764H35.6353C35.6833 14.6764 35.7271 14.6321 35.7271 14.5812V12.7643C35.7271 12.7134 35.6833 12.6701 35.6353 12.6701H33.8413C33.7933 12.6701 33.7495 12.7145 33.7495 12.7643ZM29.3902 12.6701H27.6004C27.5524 12.6701 27.5087 12.7145 27.5087 12.7643V14.5812C27.5087 14.6321 27.5524 14.6764 27.6004 14.6764H29.3902C29.4425 14.6764 29.4862 14.6321 29.4862 14.5812V12.7643C29.4862 12.7145 29.4425 12.6701 29.3902 12.6701ZM38.6059 9.50586C38.6934 9.50586 38.7627 9.57836 38.7627 9.66386V18.1718C38.4758 18.0366 38.175 17.9662 37.8571 17.9662C37.4998 17.9662 37.1606 18.055 36.8385 18.2292C36.6038 17.7985 36.1548 17.5063 35.6364 17.5063H33.8423C33.0893 17.5063 32.4707 18.1318 32.4707 18.9001V20.7171C32.4707 21.4854 33.0893 22.1109 33.8423 22.1109H34.4738C34.4002 22.3901 34.3298 22.6812 34.2647 22.9842C34.0727 23.9019 33.8903 25.6042 34.8044 26.8292H24.4741V9.50586H38.6059ZM26.2287 12.7643C26.2287 11.9959 26.8431 11.3715 27.6004 11.3715H29.3902C30.1475 11.3715 30.7662 11.9959 30.7662 12.7643V14.5812C30.7662 15.3496 30.1475 15.975 29.3902 15.975H27.6004C26.8431 15.975 26.2287 15.3496 26.2287 14.5812V12.7643ZM26.2287 18.8991C26.2287 18.1307 26.8431 17.5052 27.6004 17.5052H29.3902C30.1475 17.5052 30.7662 18.1307 30.7662 18.8991V20.716C30.7662 21.4844 30.1475 22.1098 29.3902 22.1098H27.6004C26.8431 22.1098 26.2287 21.4844 26.2287 20.716V18.8991ZM32.4696 14.5812V12.7643C32.4696 11.9959 33.0882 11.3715 33.8413 11.3715H35.6353C36.3927 11.3715 37.007 11.9959 37.007 12.7643V14.5812C37.007 15.3496 36.3927 15.975 35.6353 15.975H33.8413C33.0882 15.975 32.4696 15.3496 32.4696 14.5812Z" fill="#5F3E1A"/>
<path d="M40.2765 28.4395H40.4765V30.0251C40.4765 30.4644 40.1235 30.8226 39.6883 30.8226H36.2303C35.3194 30.8226 34.5482 31.3886 34.2655 32.2641C34.0351 32.974 33.7471 33.6731 33.4122 34.3429C33.0026 35.1664 33.1552 36.1198 33.7951 36.7724L36.2473 39.257M40.2765 28.4395V28.2395H38.0243H37.9731H30.3467M40.2765 28.4395V30.0251C40.2765 30.3564 40.0106 30.6226 39.6883 30.6226H36.2303C35.2313 30.6226 34.3841 31.2458 34.0752 32.2026M40.2765 28.4395H38.0243H38.0242H38.0241H38.024H38.0239H38.0237H38.0236H38.0235H38.0234H38.0233H38.0232H38.023H38.0229H38.0228H38.0227H38.0226H38.0225H38.0223H38.0222H38.0221H38.022H38.0219H38.0218H38.0217H38.0215H38.0214H38.0213H38.0212H38.0211H38.021H38.0209H38.0207H38.0206H38.0205H38.0204H38.0203H38.0202H38.0201H38.0199H38.0198H38.0197H38.0196H38.0195H38.0194H38.0193H38.0192H38.019H38.0189H38.0188H38.0187H38.0186H38.0185H38.0184H38.0183H38.0182H38.018H38.0179H38.0178H38.0177H38.0176H38.0175H38.0174H38.0173H38.0172H38.0171H38.017H38.0168H38.0167H38.0166H38.0165H38.0164H38.0163H38.0162H38.0161H38.016H38.0159H38.0158H38.0157H38.0155H38.0154H38.0153H38.0152H38.0151H38.015H38.0149H38.0148H38.0147H38.0146H38.0145H38.0144H38.0143H38.0142H38.0141H38.014H38.0139H38.0137H38.0136H38.0135H38.0134H38.0133H38.0132H38.0131H38.013H38.0129H38.0128H38.0127H38.0126H38.0125H38.0124H38.0123H38.0122H38.0121H38.012H38.0119H38.0118H38.0117H38.0116H38.0115H38.0114H38.0113H38.0112H38.0111H38.0109H38.0108H38.0107H38.0106H38.0105H38.0104H38.0103H38.0102H38.0101H38.01H38.0099H38.0098H38.0097H38.0096H38.0095H38.0094H38.0093H38.0092H38.0091H38.009H38.0089H38.0088H38.0087H38.0086H38.0085H38.0084H38.0083H38.0082H38.0081H38.008H38.0079H38.0078H38.0077H38.0076H38.0075H38.0074H38.0073H38.0072H38.0071H38.007H38.0069H38.0068H38.0067H38.0066H38.0065H38.0064H38.0063H38.0062H38.0061H38.0061H38.006H38.0059H38.0058H38.0057H38.0056H38.0055H38.0054H38.0053H38.0052H38.0051H38.005H38.0049H38.0048H38.0047H38.0046H38.0045H38.0044H38.0043H38.0042H38.0041H38.004H38.0039H38.0038H38.0037H38.0036H38.0035H38.0034H38.0033H38.0032H38.0031H38.0031H38.003H38.0029H38.0028H38.0027H38.0026H38.0025H38.0024H38.0023H38.0022H38.0021H38.002H38.0019H38.0018H38.0017H38.0016H38.0015H38.0014H38.0013H38.0012H38.0011H38.001H38.001H38.0009H38.0008H38.0007H38.0006H38.0005H38.0004H38.0003H38.0002H38.0001H38H37.9999H37.9998H37.9997H37.9996H37.9995H37.9994H37.9993H37.9993H37.9992H37.9991H37.999H37.9989H37.9988H37.9987H37.9986H37.9985H37.9984H37.9983H37.9982H37.9981H37.998H37.9979H37.9978H37.9977H37.9977H37.9976H37.9975H37.9974H37.9973H37.9972H37.9971H37.997H37.9969H37.9968H37.9967H37.9966H37.9965H37.9964H37.9963H37.9963H37.9962H37.9961H37.996H37.9959H37.9958H37.9957H37.9956H37.9955H37.9954H37.9953H37.9952H37.9951H37.995H37.9949H37.9949H37.9948H37.9947H37.9946H37.9945H37.9944H37.9943H37.9942H37.9941H37.994H37.9939H37.9938H37.9937H37.9936H37.9935H37.9935H37.9934H37.9933H37.9932H37.9931H37.993H37.9929H37.9928H37.9927H37.9926H37.9925H37.9924H37.9923H37.9922H37.9921H37.9921H37.992H37.9919H37.9918H37.9917H37.9916H37.9915H37.9914H37.9913H37.9912H37.9911H37.991H37.9909H37.9908H37.9907H37.9907H37.9906H37.9905H37.9904H37.9903H37.9902H37.9901H37.99H37.9899H37.9898H37.9897H37.9896H37.9895H37.9894H37.9893H37.9893H37.9892H37.9891H37.989H37.9889H37.9888H37.9887H37.9886H37.9885H37.9884H37.9883H37.9882H37.9881H37.988H37.9879H37.9878H37.9877H37.9876H37.9876H37.9875H37.9874H37.9873H37.9872H37.9871H37.987H37.9869H37.9868H37.9867H37.9866H37.9865H37.9864H37.9863H37.9862H37.9861H37.986H37.9859H37.9858H37.9857H37.9857H37.9856H37.9855H37.9854H37.9853H37.9852H37.9851H37.985H37.9849H37.9848H37.9847H37.9846H37.9845H37.9844H37.9843H37.9842H37.9841H37.984H37.9839H37.9838H37.9837H37.9836H37.9835H37.9834H37.9833H37.9832H37.9832H37.9831H37.983H37.9829H37.9828H37.9827H37.9826H37.9825H37.9824H37.9823H37.9822H37.9821H37.982H37.9819H37.9818H37.9817H37.9816H37.9815H37.9814H37.9813H37.9812H37.9811H37.981H37.9809H37.9808H37.9807H37.9806H37.9805H37.9804H37.9803H37.9802H37.9801H37.98H37.9799H37.9798H37.9797H37.9796H37.9795H37.9794H37.9793H37.9792H37.9791H37.979H37.9789H37.9788H37.9787H37.9786H37.9785H37.9784H37.9783H37.9782H37.9781H37.978H37.9779H37.9778H37.9777H37.9776H37.9775H37.9774H37.9773H37.9772H37.9771H37.977H37.9769H37.9768H37.9767H37.9766H37.9765H37.9764H37.9763H37.9762H37.9761H37.976H37.9759H37.9758H37.9757H37.9756H37.9754H37.9753H37.9752H37.9751H37.975H37.9749H37.9748H37.9747H37.9746H37.9745H37.9744H37.9743H37.9742H37.9741H37.974H37.9739H37.9738H37.9737H37.9736H37.9735H37.9734H37.9732H37.9731H30.5331M30.3467 28.2395C30.0161 33.607 25.6087 37.8708 20.234 37.8708C14.8635 37.8708 10.4562 33.607 10.1213 28.2395M30.3467 28.2395L30.5463 28.2518C30.5425 28.3145 30.5381 28.3771 30.5331 28.4395M30.3467 28.2395V28.4395H30.5331M10.1213 28.2395H0.2V28.4395M10.1213 28.2395V28.4395H9.93501M10.1213 28.2395L9.92165 28.252C9.92556 28.3146 9.93002 28.3771 9.93501 28.4395M0.2 28.4395H0V30.0251C0 30.4655 0.353055 30.8226 0.783974 30.8226H4.24626C5.1561 30.8226 5.92727 31.3886 6.21099 32.2641C6.44139 32.974 6.72511 33.6731 7.06003 34.3429M0.2 28.4395H9.93501M0.2 28.4395V30.0251C0.2 30.358 0.466403 30.6226 0.783974 30.6226H4.24626C5.24421 30.6226 6.09124 31.2458 6.40125 32.2024M7.06003 34.3429C7.47388 35.1664 7.32136 36.1198 6.67711 36.7724M7.06003 34.3429L7.23874 34.2531C7.2388 34.2532 7.23886 34.2534 7.23892 34.2535M7.06003 34.3429L7.23892 34.2535M6.67711 36.7724L4.22919 39.257C4.08093 39.4075 4.00307 39.6077 4.00307 39.8208C4.00307 40.034 4.082 40.2353 4.22919 40.3847L7.62215 43.8281M6.67711 36.7724L6.81958 36.9127L6.81944 36.9129M6.67711 36.7724L6.81944 36.9129M7.62215 43.8281C7.77041 43.9774 7.97093 44.0608 8.17999 44.0608C8.38905 44.0608 8.58958 43.9785 8.73784 43.8281M7.62215 43.8281L7.76408 43.6872L4.37165 40.2443L4.37163 40.2443C4.26326 40.1343 4.20307 39.9843 4.20307 39.8208C4.20307 39.6572 4.26233 39.5083 4.37163 39.3974L4.37166 39.3974L6.81944 36.9129M7.62215 43.8281L7.76461 43.6877L7.76429 43.6874C7.87504 43.7988 8.02441 43.8608 8.17999 43.8608C8.33629 43.8608 8.48525 43.7994 8.59537 43.6877L8.73784 43.8281M8.73784 43.8281L11.1858 41.3434C11.83 40.6909 12.7665 40.5383 13.5814 40.956C14.2395 41.2948 14.9318 41.5848 15.6283 41.8185M8.73784 43.8281L8.5954 43.6877L11.0433 41.2031L11.0434 41.2029C11.7486 40.4886 12.7796 40.3203 13.6726 40.7781L13.6729 40.7782C14.3218 41.1121 15.0047 41.3983 15.6919 41.6289L15.6283 41.8185M15.6283 41.8185C16.4955 42.1064 17.0522 42.8888 17.0522 43.8097V47.3224C17.0522 47.7629 17.4053 48.12 17.8362 48.12H22.636C23.0712 48.12 23.4243 47.7618 23.4243 47.3224V43.8108C23.4243 42.8888 23.9821 42.1075 24.844 41.8185C25.5448 41.5848 26.2338 41.2958 26.8951 40.956C27.7047 40.5394 28.6455 40.6909 29.2908 41.3434L31.7387 43.8281M15.6283 41.8185L15.6913 41.6287C16.6418 41.9442 17.2522 42.8043 17.2522 43.8097V47.3224C17.2522 47.6553 17.5186 47.92 17.8362 47.92H22.636C22.9584 47.92 23.2243 47.6537 23.2243 47.3224V43.8108C23.2243 42.8042 23.8357 41.9456 24.7804 41.6289L24.7807 41.6288C25.4719 41.3982 26.1516 41.1132 26.8037 40.7781C27.6916 40.3213 28.7268 40.4887 29.433 41.2028L29.4332 41.2031L31.8806 43.6872L31.7387 43.8281M31.7387 43.8281C31.8869 43.9774 32.0832 44.0608 32.2965 44.0608C32.5056 44.0608 32.7018 43.9785 32.8501 43.8281L36.2473 40.3847M31.7387 43.8281L31.8811 43.6877L31.8808 43.6874C31.9919 43.7992 32.1372 43.8608 32.2965 43.8608C32.4517 43.8608 32.5967 43.8003 32.7077 43.6877L32.7077 43.6876L36.1029 40.2464L36.2473 40.3847M36.2473 40.3847C36.3913 40.2342 36.4735 40.034 36.4735 39.8208C36.4735 39.6077 36.3903 39.4064 36.2473 39.257M36.2473 40.3847L36.105 40.2442L36.1038 40.2454C36.2119 40.1319 36.2735 39.9815 36.2735 39.8208C36.2735 39.6604 36.211 39.5089 36.1038 39.3964L36.105 39.3975L36.2473 39.257M36.2473 39.257L36.1028 39.3953L33.6528 36.9129L33.6523 36.9124C32.9527 36.199 32.7856 35.1537 33.2331 34.2539L33.2333 34.2535C33.5639 33.5924 33.848 32.9026 34.0752 32.2026M34.0752 32.2026L34.2654 32.264L34.0753 32.2023C34.0753 32.2024 34.0752 32.2025 34.0752 32.2026ZM30.5331 28.4395C30.1063 33.8208 25.6547 38.0708 20.234 38.0708C14.8173 38.0708 10.366 33.8206 9.93501 28.4395M6.40125 32.2024C6.40124 32.2024 6.40123 32.2024 6.40123 32.2023L6.21151 32.2639L6.40125 32.2024ZM6.40125 32.2024C6.62868 32.9032 6.90866 33.5929 7.23892 34.2535M7.23892 34.2535C7.6911 35.1536 7.52377 36.1995 6.81944 36.9129" fill="#033726" stroke="#000F0A" stroke-width="0.4"/>
<path fill-rule="evenodd" clip-rule="evenodd" d="M4.98757 26.8282V24.4452C4.98757 23.9301 4.57371 23.5102 4.06813 23.5102C3.55828 23.5102 3.14443 23.929 3.14443 24.4452V26.8282H4.98757ZM8.13626 26.8282H6.26753V24.4452C6.26753 23.2137 5.27876 22.2116 4.06813 22.2116C2.85324 22.2116 1.86447 23.2137 1.86447 24.4452V26.8282H0V7.33294C0 6.77346 0.449052 6.31787 0.9973 6.31787H7.13363C7.68721 6.31787 8.1352 6.77346 8.1352 7.33294V20.1674C8.1 20.5689 8.09146 21.0115 8.1352 21.4628V26.8282H8.13626ZM6.28886 11.8791V8.77006C6.28886 8.41078 6.0062 8.12076 5.64888 8.12076C5.29582 8.12076 5.01317 8.41186 5.01317 8.77006V11.8791C5.01317 12.2384 5.29582 12.5284 5.64888 12.5284C6.0062 12.5295 6.28886 12.2384 6.28886 11.8791ZM6.28886 18.4435V15.3334C6.28886 14.9741 6.0062 14.6841 5.64888 14.6841C5.29582 14.6841 5.01317 14.9752 5.01317 15.3334V18.4435C5.01317 18.8017 5.29582 19.0928 5.64888 19.0928C6.0062 19.0928 6.28886 18.8017 6.28886 18.4435ZM3.1231 18.4435V15.3334C3.1231 14.9741 2.83617 14.6841 2.48312 14.6841C2.13006 14.6841 1.84314 14.9752 1.84314 15.3334V18.4435C1.84314 18.8017 2.13006 19.0928 2.48312 19.0928C2.83511 19.0928 3.1231 18.8017 3.1231 18.4435ZM3.1231 11.8791V8.77006C3.1231 8.41078 2.83617 8.12076 2.48312 8.12076C2.13006 8.12076 1.84314 8.41186 1.84314 8.77006V11.8791C1.84314 12.2384 2.13006 12.5284 2.48312 12.5284C2.83511 12.5295 3.1231 12.2384 3.1231 11.8791Z" fill="#5F3E1A"/>
<path d="M10.9994 23.3482C10.6299 23.2464 10.3486 23.0659 10.1345 22.8077C9.63969 22.2045 9.47083 21.0481 9.74165 19.5919L10.9994 23.3482ZM10.9994 23.3482V21.0562C10.9994 20.5903 11.3731 20.2069 11.8393 20.2069C12.3107 20.2069 12.6793 20.5912 12.6793 21.0562V23.3489C13.0551 23.247 13.3405 23.0657 13.5547 22.8057C14.051 22.2 14.2237 21.0451 13.952 19.592L13.952 19.5919C13.667 18.0611 13.273 16.9604 12.8712 16.2482C12.6702 15.8918 12.4712 15.6396 12.289 15.4789C12.105 15.3167 11.9541 15.261 11.8447 15.261C11.735 15.261 11.5843 15.3167 11.4008 15.4789C11.219 15.6397 11.0204 15.8919 10.82 16.2484C10.4194 16.9608 10.0266 18.0615 9.74166 19.5918L10.9994 23.3482ZM36.1898 26.0282L36.1898 26.0281C35.7708 25.5056 35.6326 24.5455 35.8807 23.3555C36.1693 21.9925 36.562 21.0203 36.9645 20.3943C37.3754 19.7552 37.7633 19.5248 38.0283 19.5248C38.2958 19.5248 38.6847 19.7556 39.0954 20.3943C39.4979 21.0203 39.8895 21.9926 40.176 23.3558L40.1761 23.3563C40.4283 24.5421 40.2902 25.502 39.8714 26.0257C39.6466 26.3028 39.3154 26.5003 38.8641 26.6039V24.2227C38.8641 23.7585 38.4963 23.3734 38.0283 23.3734C37.5572 23.3734 37.1884 23.7563 37.1884 24.2227V26.6039C36.7379 26.5005 36.4107 26.3039 36.1898 26.0282Z" fill="#1C6955" stroke="#000F0A" stroke-width="0.4"/>
<path fill-rule="evenodd" clip-rule="evenodd" d="M12.2373 1.97712H23.1212V0.925252C23.1212 0.414469 22.7116 0 22.2071 0H13.1525C12.6469 0 12.2384 0.415552 12.2384 0.925252V1.97712H12.2373ZM19.8157 22.2093H15.5428C15.4649 22.2093 15.3988 22.2775 15.3988 22.3586V26.828H19.9629V22.3586C19.964 22.2775 19.8936 22.2093 19.8157 22.2093ZM23.1212 18.8513V26.828H21.2439V22.3586C21.2439 21.56 20.604 20.9107 19.8157 20.9107H15.5428C15.4649 20.9107 15.386 20.9193 15.3124 20.9312C15.3209 20.2906 15.2431 19.6954 15.1641 19.2539C15.1385 19.1165 15.1119 18.9834 15.0809 18.8502H23.1212V18.8513ZM23.1212 15.7358V17.5527H14.7631C14.5583 16.8591 14.3279 16.252 14.0666 15.7358H23.1212ZM23.1212 12.6213H12.2373V13.8149C12.568 13.9318 12.8773 14.1417 13.1738 14.4372H23.1212V12.6213ZM23.1212 11.3227V9.50574H12.2373V11.3227H23.1212ZM23.1212 6.39019H12.2373V8.20714H23.1212V6.39019ZM12.2373 5.09159H23.1212V3.27572H12.2373V5.09159Z" fill="#5F3E1A"/>
</svg>
