<svg width="44" height="44" viewBox="0 0 44 44" fill="none" xmlns="http://www.w3.org/2000/svg">
<g clip-path="url(#clip0_11_7515)">
<path d="M32.5284 15.0615C32.8005 14.3129 33.3094 13.3437 34.5446 12.5298C35.4882 11.9083 36.2922 11.5711 37.4143 11.4917C39.6337 11.3328 42.1766 12.2561 43.4948 14.1717C43.5778 14.2917 43.4648 14.4506 43.3234 14.4136C42.0264 14.0711 37.6988 13.2342 32.4082 15.4905L32.5266 15.0597L32.5284 15.0615Z" fill="#65C3A5"/>
<path d="M43.3234 14.4135C43.129 14.3623 42.8675 14.3005 42.5441 14.2388C41.1623 13.1388 39.2803 12.6304 37.5875 12.7522C36.4654 12.8316 35.6614 13.1689 34.7178 13.7903C34.0763 14.2123 33.631 14.6766 33.3147 15.1303C33.0161 15.2398 32.7139 15.3616 32.4082 15.4905L32.5284 15.0597C32.8005 14.3111 33.3094 13.3419 34.5446 12.528C35.49 11.9065 36.2922 11.5693 37.4143 11.4899C39.6337 11.3327 42.1766 12.2543 43.4966 14.1717C43.5796 14.2917 43.4665 14.4524 43.3252 14.4135H43.3234Z" fill="#65C3A5"/>
<path d="M32.4046 15.2895C32.7421 14.684 33.092 13.7994 32.9241 12.5247C32.7969 11.5502 32.5619 10.8316 31.9752 10.0477C30.8284 8.51351 28.8033 7.37476 26.8101 7.56896C26.6634 7.58309 26.6139 7.77376 26.7358 7.85674C27.7448 8.55588 30.6905 10.9234 32.189 15.6126L32.4046 15.2895Z" fill="#65C3A5"/>
<path d="M32.4043 15.2895L32.1887 15.6126C32.065 15.2277 31.9343 14.8605 31.7929 14.5074C31.8919 14.0625 31.9325 13.5417 31.8512 12.929C31.724 11.9545 31.489 11.2359 30.9023 10.452C29.9887 9.23207 28.5203 8.26104 26.9547 8.01387C26.8734 7.95384 26.8009 7.90088 26.7356 7.85674C26.6154 7.77376 26.6631 7.58309 26.8098 7.56896C28.803 7.37476 30.8281 8.51351 31.9749 10.0477C32.5598 10.8299 32.7948 11.5502 32.9238 12.5247C33.0917 13.7994 32.7418 14.6857 32.4043 15.2895Z" fill="#65C3A5"/>
<path d="M24.7142 43.5233C25.4122 26.8004 30.2044 18.2324 30.2044 18.2324L32.1447 16.0591L32.772 19.3023C32.772 19.3023 29.1566 26.608 29.1477 43.5251H24.7124L24.7142 43.5233Z" fill="#FFC941"/>
<path d="M32.7739 19.3004C32.7739 19.3004 29.1585 26.606 29.1496 43.5231H27.3384C27.3454 26.606 30.9626 19.3004 30.9626 19.3004L30.6587 17.7255L32.1466 16.0571L32.7739 19.2986V19.3004Z" fill="#FFC941"/>
<path d="M32.4082 15.5276C37.2235 16.2055 40.0119 19.5141 40.8778 20.7146C40.9697 20.8417 41.1693 20.7729 41.1658 20.6175C41.1269 19.2828 40.9096 17.9728 40.0472 16.6751C39.0135 15.1215 37.1086 14.1522 35.2178 14.2052C34.6648 14.2211 34.1046 14.3288 33.5974 14.5477C33.1168 14.7543 32.7068 15.1003 32.41 15.5293L32.4082 15.5276Z" fill="#65C3A5"/>
<path d="M41.1658 20.6156C41.1711 20.771 40.9714 20.8398 40.8795 20.7127C40.7311 20.5079 40.5279 20.2396 40.2646 19.9359C40.1126 19.1397 39.8281 18.3505 39.3051 17.5648C38.2713 16.0112 36.3664 15.0419 34.4739 15.0931C33.9208 15.109 33.3607 15.2167 32.8535 15.4356C32.7687 15.4727 32.6874 15.5115 32.6079 15.5574C32.5425 15.5468 32.4754 15.5363 32.4082 15.5274C32.7068 15.0966 33.115 14.7524 33.5974 14.5458C34.1046 14.3286 34.663 14.2192 35.2178 14.2051C37.1086 14.1539 39.0153 15.1214 40.0472 16.675C40.9096 17.9727 41.1269 19.2809 41.1658 20.6174V20.6156Z" fill="#65C3A5"/>
<path d="M32.378 15.6125C28.3562 12.8813 24.0657 13.4604 22.6167 13.7675C22.463 13.7993 22.3605 13.6157 22.4701 13.5027C23.3978 12.5405 24.4386 11.716 25.9494 11.3347C27.7589 10.8774 29.8228 11.4406 31.1888 12.7471C31.5881 13.1302 31.9292 13.5857 32.1589 14.0889C32.3762 14.5656 32.4469 15.0952 32.378 15.6143V15.6125Z" fill="#65C3A5"/>
<path d="M32.3762 15.6122C32.2349 15.5169 32.0935 15.4233 31.9504 15.3368C31.9451 15.3245 31.9398 15.3121 31.9345 15.2997C31.7048 14.7983 31.3637 14.3411 30.9644 13.958C29.5984 12.6497 27.5362 12.0883 25.725 12.5455C24.8344 12.7698 24.1081 13.1476 23.4702 13.619C23.1256 13.6666 22.8358 13.7196 22.6132 13.7673C22.4612 13.8008 22.3587 13.6154 22.4665 13.5025C23.3925 12.5403 24.435 11.7158 25.9459 11.3344C27.7554 10.8771 29.8193 11.4386 31.1852 12.7468C31.5846 13.1299 31.9256 13.5854 32.1554 14.0886C32.3727 14.5653 32.4434 15.0949 32.3745 15.614L32.3762 15.6122Z" fill="#65C3A5"/>
<path d="M20.2985 43.5232C19.9557 21.0182 14.1986 11.1649 14.1986 11.1649L12.8398 10.0703L11.981 12.5491C11.981 12.5491 16.4304 22.0104 15.5805 43.5214H20.2968L20.2985 43.5232Z" fill="#FFC941"/>
<path d="M20.2985 43.5253H18.5297C18.1975 21.7884 12.815 11.8539 12.4492 11.2024L12.8397 10.0742L14.1986 11.1688C14.1986 11.1688 19.9557 21.0221 20.2985 43.5271V43.5253Z" fill="#FFC941"/>
<path d="M12.4969 9.18414C12.117 8.50265 11.7247 7.5069 11.912 6.07331C12.0552 4.97693 12.3202 4.16833 12.9793 3.28734C14.2852 1.54125 16.6001 0.250665 18.8672 0.50843C19.005 0.524319 19.051 0.702635 18.9361 0.780318C17.8671 1.50771 14.4584 4.17186 12.739 9.54783L12.4969 9.18414Z" fill="#65C3A5"/>
<path d="M18.9379 0.78013C18.6923 0.946088 18.3265 1.21268 17.8865 1.5905C16.3191 1.98068 14.8842 2.99055 13.9565 4.22993C13.2974 5.11092 13.0341 5.91952 12.891 7.01414C12.7956 7.73623 12.8486 8.3471 12.9723 8.86263C12.891 9.08508 12.8132 9.31283 12.739 9.54411L12.4969 9.18042C12.117 8.49893 11.7247 7.50495 11.912 6.06959C12.0552 4.97321 12.3202 4.16461 12.9793 3.28539C14.2834 1.5393 16.6001 0.248712 18.8672 0.506476C19.0051 0.522366 19.0528 0.698917 18.9361 0.778365L18.9379 0.78013Z" fill="#65C3A5"/>
<path d="M12.7563 9.34473C9.49071 11.5746 8.23609 15.5611 8.97649 19.3428C9.00123 19.4646 9.15497 19.507 9.23625 19.4134C11.5617 16.6804 13.2475 13.017 12.7563 9.34473Z" fill="#65C3A5"/>
<path d="M9.23627 19.4136C9.15499 19.5089 8.99948 19.4666 8.97651 19.3448C8.89169 18.9087 8.83161 18.4708 8.7998 18.0312C10.4361 15.7908 11.5935 13.0754 11.5953 10.2912C11.9487 9.94872 12.3357 9.63269 12.7563 9.34668C13.2475 13.0189 11.5617 16.6806 9.23627 19.4154V19.4136Z" fill="#65C3A5"/>
<path d="M12.7266 9.33252C16.6636 9.71034 19.6888 12.5969 20.8674 16.2657C20.9063 16.384 20.7897 16.497 20.6731 16.4528C17.3156 15.1799 14.0695 12.7859 12.7266 9.33252Z" fill="#65C3A5"/>
<path d="M20.6729 16.4528C20.2894 16.308 19.906 16.1456 19.5261 15.9708C18.2979 13.4426 16.1351 11.4688 13.4102 10.7432C13.1469 10.2947 12.9155 9.82333 12.7246 9.33252C16.6616 9.71034 19.6869 12.5969 20.8655 16.2657C20.9044 16.3857 20.7877 16.497 20.6711 16.4528H20.6729Z" fill="#65C3A5"/>
<path d="M12.882 8.8609C12.5745 8.01875 12.0038 6.92767 10.6131 6.01314C9.55107 5.31399 8.6481 4.93618 7.38641 4.84437C4.8648 4.66429 1.97388 5.72359 0.50368 7.92342C0.425929 8.03817 0.53372 8.18824 0.668017 8.15117C2.03043 7.78041 6.96408 6.75995 13.0181 9.34465L12.8838 8.8609H12.882Z" fill="#65C3A5"/>
<path d="M13.016 9.3466C12.6502 9.19124 12.288 9.04647 11.9328 8.91758C11.5741 8.40735 11.074 7.88476 10.3531 7.41161C9.29104 6.71246 8.38807 6.33288 7.12639 6.24284C5.19851 6.10513 3.05152 6.69304 1.49297 7.96244C1.14663 8.0313 0.869195 8.09839 0.669517 8.15312C0.536987 8.1902 0.429195 8.04013 0.505179 7.92537C1.97715 5.72555 4.86807 4.66624 7.38791 4.84632C8.6496 4.93636 9.55434 5.31595 10.6146 6.01509C12.0053 6.93139 12.576 8.02071 12.8835 8.86285L13.016 9.3466Z" fill="#65C3A5"/>
<path d="M12.7546 9.58146C17.3684 6.44945 22.2932 7.18743 23.827 7.52641C23.9702 7.55819 24.0691 7.38517 23.9666 7.27747C22.9064 6.1652 21.7207 5.20653 19.9854 4.76868C17.9498 4.25492 15.6296 4.88697 14.0923 6.35764C13.6417 6.78843 13.2582 7.30219 13.0002 7.86539C12.7564 8.40034 12.6768 8.99708 12.7528 9.57969L12.7546 9.58146Z" fill="#65C3A5"/>
<path d="M23.8252 7.52446C23.5354 7.4609 23.1237 7.38145 22.6165 7.31789C21.9044 6.79707 21.0915 6.37688 20.1002 6.12617C18.0646 5.61241 15.7444 6.24446 14.2088 7.71513C13.7582 8.14591 13.3748 8.65968 13.1168 9.22464C13.092 9.27761 13.0691 9.33234 13.0496 9.38707C12.9507 9.45062 12.8535 9.51418 12.7545 9.58127C12.6785 8.99689 12.7563 8.40191 13.0019 7.8652C13.2599 7.30024 13.6434 6.78647 14.094 6.35569C15.6313 4.88502 17.9497 4.25297 19.9854 4.76673C21.7224 5.20458 22.9063 6.16325 23.9666 7.27552C24.0673 7.38321 23.9701 7.55623 23.827 7.52446H23.8252Z" fill="#65C3A5"/>
<path d="M12.7546 9.58479C7.2325 10.3634 4.08005 14.2157 3.17178 15.4957C3.08696 15.6158 2.89788 15.5522 2.90142 15.4057C2.93852 13.8697 3.17178 12.3637 4.1631 10.8754C5.32583 9.12752 7.46929 8.0382 9.59684 8.09646C10.2206 8.11412 10.8497 8.23594 11.4205 8.48135C11.9612 8.71439 12.4206 9.1028 12.7564 9.58655L12.7546 9.58479Z" fill="#65C3A5"/>
<path d="M12.7546 9.58479C12.5266 9.61657 12.3022 9.65364 12.0813 9.69778C11.5883 9.523 11.06 9.43472 10.5369 9.4206C8.40937 9.36233 6.26591 10.4517 5.10318 12.1995C4.64728 12.8828 4.35218 13.5713 4.1631 14.2634C3.71073 14.7648 3.38029 15.1991 3.17178 15.4957C3.08696 15.6158 2.89788 15.554 2.90142 15.4057C2.93852 13.8697 3.17178 12.3655 4.1631 10.8754C5.32583 9.12752 7.46929 8.0382 9.59507 8.09646C10.2188 8.11235 10.8479 8.23594 11.4187 8.48135C11.9594 8.71439 12.4188 9.10104 12.7546 9.58655V9.58479Z" fill="#65C3A5"/>
<path d="M32.3992 15.4907C35.2865 17.4628 36.4069 20.9797 35.7707 24.3271C35.746 24.4577 35.5781 24.5019 35.4933 24.3995C33.4435 21.9737 31.9662 18.7357 32.4009 15.4907H32.3992Z" fill="#65C3A5"/>
<path d="M35.7708 24.3268C35.7461 24.4592 35.5782 24.5016 35.4916 24.3992C35.2354 24.0955 34.988 23.7795 34.753 23.4529C34.9314 20.9317 34.1239 18.4247 32.3232 16.6539C32.3232 16.2672 32.348 15.8806 32.3992 15.4922C35.2866 17.4643 36.4069 20.9812 35.7708 24.3286V24.3268Z" fill="#65C3A5"/>
<path d="M32.4079 15.4907C28.918 15.7361 26.1737 18.2061 25.0322 21.4158C24.988 21.5429 25.1099 21.6629 25.2372 21.6188C28.2323 20.5595 31.1445 18.5115 32.4097 15.4907H32.4079Z" fill="#65C3A5"/>
<path d="M32.4079 15.4925C31.1427 18.5115 28.2306 20.5613 25.2372 21.6206C25.1099 21.6665 24.988 21.5447 25.0322 21.4175C25.1665 21.038 25.3237 20.6707 25.5022 20.3141C27.7058 19.3325 29.7503 17.8 30.9854 15.722C31.4431 15.6037 31.9184 15.526 32.4097 15.4907L32.4079 15.4925Z" fill="#65C3A5"/>
<path d="M32.9753 15.2239C33.1026 14.8761 33.2775 14.4912 33.562 14.0975C33.8465 13.7038 34.237 13.3031 34.8078 12.927C35.2619 12.6286 35.6648 12.4079 36.0801 12.2526C36.4953 12.0972 36.9265 12.0036 37.4478 11.9648C37.5998 11.9542 37.7535 11.9489 37.909 11.9489C38.8862 11.9489 39.9128 12.1661 40.83 12.588C41.7471 13.01 42.5493 13.635 43.1042 14.44L43.3675 14.2582H43.0476C43.0476 14.3217 43.0688 14.3906 43.1042 14.44L43.3675 14.2582L43.0724 14.1346C43.0565 14.1717 43.0476 14.2123 43.0476 14.2582H43.3675L43.0724 14.1346L43.3622 14.2547L43.1819 13.9987C43.1324 14.034 43.0971 14.0799 43.0741 14.1346L43.3639 14.2547L43.1837 13.9987L43.3692 14.2617V13.9404C43.3003 13.9404 43.2332 13.9634 43.1837 13.9987L43.3692 14.2617V13.9404V14.2511L43.4488 13.9492C43.424 13.9422 43.3975 13.9386 43.3692 13.9386V14.2494L43.4488 13.9475C42.7985 13.7762 41.4537 13.4937 39.6354 13.4937C38.6353 13.4937 37.4937 13.5785 36.2462 13.8168C35.9882 13.8662 35.8168 14.1152 35.8663 14.3729C35.9157 14.6307 36.1649 14.802 36.4229 14.7525C37.6068 14.5283 38.6883 14.4471 39.6337 14.4471C41.353 14.4471 42.6182 14.7155 43.2031 14.8691C43.2579 14.8832 43.3127 14.8902 43.3657 14.8902C43.4558 14.8902 43.5442 14.8708 43.6219 14.8355C43.7386 14.7843 43.8304 14.7013 43.8958 14.6025C43.9612 14.5036 44.0001 14.3835 44.0001 14.2547C44.0001 14.1328 43.9612 14.0022 43.8888 13.8963C43.2208 12.9252 42.2754 12.2014 41.2293 11.7176C40.1814 11.2356 39.0258 10.992 37.909 10.9902C37.7323 10.9902 37.5556 10.9973 37.3806 11.0097C36.7798 11.052 36.2479 11.1668 35.7461 11.3539C35.2425 11.5428 34.7742 11.8024 34.283 12.1255C33.6168 12.5633 33.1361 13.0523 32.7898 13.5343C32.4417 14.0163 32.2279 14.4895 32.0812 14.892C31.9911 15.1392 32.1183 15.4128 32.3657 15.5029C32.6131 15.5929 32.887 15.4658 32.9771 15.2186L32.9753 15.2239Z" fill="#033726"/>
<path d="M32.8217 15.5223C32.9719 15.2522 33.1292 14.9238 33.2476 14.5318C33.366 14.1399 33.4455 13.6862 33.4455 13.1689C33.4455 12.9446 33.4314 12.7098 33.3978 12.4627C33.3307 11.9542 33.2335 11.4916 33.0691 11.0485C32.9048 10.6053 32.6751 10.1852 32.3588 9.76144C31.7845 8.99521 31.0176 8.32784 30.1411 7.84762C29.2646 7.36741 28.2751 7.0708 27.2608 7.0708C27.0964 7.0708 26.9303 7.07786 26.7642 7.09552C26.6812 7.10435 26.5981 7.12906 26.5257 7.1679C26.4161 7.22617 26.3313 7.31444 26.2748 7.41154C26.22 7.50865 26.1899 7.61634 26.1899 7.72934C26.1899 7.82291 26.2111 7.92178 26.2571 8.01358C26.303 8.10539 26.3755 8.19013 26.4638 8.25016C27.1442 8.72155 28.8017 10.028 30.2206 12.3956C30.3567 12.6216 30.6483 12.6939 30.8744 12.5598C31.1006 12.4238 31.1731 12.1325 31.0388 11.9065C29.5297 9.39068 27.7679 7.99593 27.0063 7.46804L26.8243 7.72934L27.107 7.58633C27.0841 7.53866 27.0452 7.49452 27.0046 7.46804L26.8225 7.72934L27.1053 7.58633L26.819 7.7311H27.1406C27.1406 7.6852 27.13 7.634 27.1053 7.58633L26.819 7.7311H27.1406H26.8261L27.0664 7.93237C27.1159 7.87234 27.1389 7.80349 27.1406 7.7311H26.8261L27.0664 7.93237L26.8172 7.72404L26.971 8.01005C27.0081 7.99063 27.0417 7.96238 27.0664 7.93237L26.8172 7.72404L26.971 8.01005L26.8225 7.7311L26.8544 8.04536C26.8932 8.04183 26.9356 8.02947 26.9728 8.01005L26.8243 7.7311L26.8561 8.04536C26.9904 8.033 27.1247 8.02594 27.259 8.02594C28.086 8.02594 28.9254 8.26958 29.6817 8.68448C30.438 9.0976 31.1059 9.68199 31.5936 10.3335C31.8622 10.6936 32.0425 11.0238 32.175 11.3804C32.3075 11.7353 32.3906 12.1219 32.4524 12.5862C32.4789 12.7928 32.4913 12.987 32.4913 13.1689C32.4913 13.5891 32.4277 13.9457 32.334 14.2564C32.2404 14.5671 32.1149 14.8302 31.9877 15.058C31.8587 15.2875 31.9417 15.5788 32.1715 15.7059C32.4012 15.8348 32.6928 15.7518 32.82 15.5223H32.8217Z" fill="#033726"/>
<path d="M32.0087 22.9126C32.4646 21.3112 32.8622 20.2961 33.0618 19.8229C33.1643 19.581 33.0512 19.3003 32.8091 19.1979C32.5671 19.0955 32.2861 19.2085 32.1836 19.4504C31.9663 19.9589 31.5563 21.0111 31.0898 22.6513C31.0173 22.9037 31.164 23.1686 31.4185 23.2392C31.6712 23.3116 31.9362 23.165 32.0069 22.9108L32.0087 22.9126Z" fill="#033726"/>
<path d="M29.6268 43.5251C29.6303 35.4973 30.4502 29.6535 31.3037 25.7429C31.3603 25.4851 31.1959 25.2327 30.9397 25.1762C30.6817 25.1197 30.429 25.2839 30.3725 25.5399C29.5048 29.5193 28.6779 35.432 28.6743 43.5251C28.6743 43.7882 28.8881 44.0018 29.1514 44.0018C29.4147 44.0018 29.6285 43.7882 29.6285 43.5251H29.6268Z" fill="#033726"/>
<path d="M25.1911 43.5426C25.7301 30.6085 28.7306 22.5983 30.0258 19.6959V19.6994L30.1707 19.3763C30.2803 19.1362 30.1725 18.8537 29.9339 18.746C29.6936 18.6365 29.4109 18.7442 29.3031 18.9826L29.1564 19.3057V19.3092C27.817 22.307 24.7829 30.439 24.2387 43.5037C24.2281 43.7668 24.4313 43.9892 24.6946 43.9998C24.9579 44.0104 25.1805 43.8074 25.1911 43.5443V43.5426Z" fill="#033726"/>
<path d="M30.2062 28.5781H29.1495C28.8862 28.5781 28.6724 28.7918 28.6724 29.0548C28.6724 29.3179 28.8862 29.5315 29.1495 29.5315H30.2062C30.4695 29.5315 30.6833 29.3179 30.6833 29.0548C30.6833 28.7918 30.4695 28.5781 30.2062 28.5781Z" fill="#033726"/>
<path d="M28.6192 25.1636H28.0909C27.8276 25.1636 27.6138 25.3772 27.6138 25.6403C27.6138 25.9033 27.8276 26.1169 28.0909 26.1169H28.6192C28.8825 26.1169 29.0963 25.9033 29.0963 25.6403C29.0963 25.3772 28.8825 25.1636 28.6192 25.1636Z" fill="#033726"/>
<path d="M29.4113 35.3809H28.3546C28.0913 35.3809 27.8774 35.5945 27.8774 35.8575C27.8774 36.1206 28.0913 36.3342 28.3546 36.3342H29.4113C29.6746 36.3342 29.8884 36.1206 29.8884 35.8575C29.8884 35.5945 29.6746 35.3809 29.4113 35.3809Z" fill="#033726"/>
<path d="M27.524 31.7388H26.4673C26.204 31.7388 25.9902 31.9524 25.9902 32.2155C25.9902 32.4785 26.204 32.6921 26.4673 32.6921H27.524C27.7873 32.6921 28.0012 32.4785 28.0012 32.2155C28.0012 31.9524 27.7873 31.7388 27.524 31.7388Z" fill="#033726"/>
<path d="M26.4689 38.4473H25.4122C25.1489 38.4473 24.9351 38.6609 24.9351 38.924C24.9351 39.187 25.1489 39.4006 25.4122 39.4006H26.4689C26.7322 39.4006 26.946 39.187 26.946 38.924C26.946 38.6609 26.7322 38.4473 26.4689 38.4473Z" fill="#033726"/>
<path d="M16.0589 43.5428C16.1331 41.6625 16.1667 39.874 16.1667 38.1756C16.1667 24.2563 13.8925 16.3539 12.8835 13.5397C12.7952 13.2925 12.5213 13.1637 12.2739 13.2519C12.0265 13.3402 11.8975 13.6139 11.9858 13.861C12.956 16.5728 15.2125 24.3605 15.2125 38.1774C15.2125 39.8634 15.1789 41.6395 15.1047 43.5074C15.0941 43.7705 15.2991 43.9912 15.5624 44.0018C15.8257 44.0124 16.0466 43.8076 16.0572 43.5445L16.0589 43.5428Z" fill="#033726"/>
<path d="M14.5694 13.0241C16.1421 16.6275 19.5596 26.3749 19.8212 43.5303C19.8247 43.7934 20.042 44.0035 20.3053 43.9999C20.5686 43.9964 20.7789 43.7793 20.7754 43.5162C20.5121 26.2389 17.0663 16.3609 15.4441 12.6427C15.3381 12.4009 15.0571 12.2914 14.8168 12.3973C14.5747 12.5033 14.4652 12.784 14.5712 13.0241H14.5694Z" fill="#033726"/>
<path d="M14.6421 23.7532H15.6989C15.9621 23.7532 16.176 23.5396 16.176 23.2765C16.176 23.0134 15.9621 22.7998 15.6989 22.7998H14.6421C14.3789 22.7998 14.165 23.0134 14.165 23.2765C14.165 23.5396 14.3789 23.7532 14.6421 23.7532Z" fill="#033726"/>
<path d="M16.2286 20.3367H16.7569C17.0202 20.3367 17.234 20.123 17.234 19.86C17.234 19.5969 17.0202 19.3833 16.7569 19.3833H16.2286C15.9653 19.3833 15.7515 19.5969 15.7515 19.86C15.7515 20.123 15.9653 20.3367 16.2286 20.3367Z" fill="#033726"/>
<path d="M15.4371 30.554H16.4938C16.7571 30.554 16.9709 30.3403 16.9709 30.0773C16.9709 29.8142 16.7571 29.6006 16.4938 29.6006H15.4371C15.1738 29.6006 14.96 29.8142 14.96 30.0773C14.96 30.3403 15.1738 30.554 15.4371 30.554Z" fill="#033726"/>
<path d="M17.3243 26.9119H18.381C18.6443 26.9119 18.8581 26.6982 18.8581 26.4352C18.8581 26.1721 18.6443 25.9585 18.381 25.9585H17.3243C17.061 25.9585 16.8472 26.1721 16.8472 26.4352C16.8472 26.6982 17.061 26.9119 17.3243 26.9119Z" fill="#033726"/>
<path d="M18.3809 33.6204H19.4376C19.7009 33.6204 19.9147 33.4067 19.9147 33.1437C19.9147 32.8806 19.7009 32.667 19.4376 32.667H18.3809C18.1176 32.667 17.9038 32.8806 17.9038 33.1437C17.9038 33.4067 18.1176 33.6204 18.3809 33.6204Z" fill="#033726"/>
<path d="M15.6988 38.2214H16.7555C17.0188 38.2214 17.2326 38.0078 17.2326 37.7448C17.2326 37.4817 17.0188 37.2681 16.7555 37.2681H15.6988C15.4355 37.2681 15.2217 37.4817 15.2217 37.7448C15.2217 38.0078 15.4355 38.2214 15.6988 38.2214Z" fill="#033726"/>
<path d="M19.0508 41.1238H20.1075C20.3708 41.1238 20.5847 40.9102 20.5847 40.6471C20.5847 40.384 20.3708 40.1704 20.1075 40.1704H19.0508C18.7875 40.1704 18.5737 40.384 18.5737 40.6471C18.5737 40.9102 18.7875 41.1238 19.0508 41.1238Z" fill="#033726"/>
<path d="M13.0392 9.13827L12.8926 8.91935L12.495 9.18418L12.912 8.95289C12.7671 8.69336 12.6257 8.39323 12.5179 8.04013C12.4119 7.68526 12.3395 7.27743 12.3395 6.79897C12.3395 6.59241 12.3536 6.37172 12.3836 6.13691C12.4526 5.61079 12.548 5.17294 12.6982 4.76687C12.8484 4.36081 13.0534 3.98475 13.3591 3.57515C13.9122 2.83364 14.672 2.17334 15.529 1.70372C16.3861 1.23232 17.3385 0.95514 18.2821 0.95514C18.4588 0.95514 18.6355 0.963968 18.8122 0.985154L18.8493 0.665597L18.6956 0.948078C18.7327 0.969264 18.7751 0.981623 18.814 0.985154L18.8511 0.665597L18.6974 0.948078L18.8547 0.6603L18.5684 0.822727C18.5967 0.872161 18.6408 0.918064 18.6974 0.948078L18.8547 0.6603L18.5684 0.822727L18.8493 0.662066H18.526C18.526 0.718562 18.5401 0.773293 18.5684 0.822727L18.8493 0.662066H18.526H18.8582L18.5631 0.511997C18.5383 0.561432 18.526 0.614397 18.526 0.662066H18.8582L18.5631 0.511997L18.8529 0.6603L18.6691 0.390177C18.6285 0.418426 18.5878 0.462563 18.5631 0.511997L18.8529 0.6603L18.6691 0.390177C18.2397 0.681486 17.4693 1.25704 16.5822 2.16451C15.6934 3.07022 14.6879 4.30784 13.7902 5.91975C13.663 6.14927 13.7443 6.44058 13.9758 6.56769C14.2055 6.69481 14.4971 6.6136 14.6243 6.38231C15.4742 4.85515 16.4267 3.68462 17.2643 2.83188C18.1001 1.97737 18.8228 1.44065 19.2063 1.17759C19.2929 1.11933 19.3653 1.03635 19.4113 0.946313C19.4572 0.854506 19.4802 0.757403 19.4802 0.663831C19.4802 0.517294 19.4307 0.376053 19.3335 0.25953C19.2858 0.201268 19.224 0.150068 19.1533 0.111227C19.0826 0.0723858 19.0031 0.0476687 18.9218 0.0388412C18.708 0.0123586 18.4959 0 18.2839 0C17.153 0 16.0503 0.33015 15.0714 0.866865C14.0924 1.40358 13.2371 2.14862 12.5957 3.00313C12.2423 3.47452 11.9861 3.94238 11.804 4.43496C11.622 4.92753 11.5125 5.4413 11.4383 6.01156C11.4012 6.28698 11.3853 6.54827 11.3853 6.79897C11.3853 7.37453 11.4736 7.87946 11.6044 8.31555C11.7351 8.75163 11.9101 9.11709 12.0779 9.41722L12.0974 9.449L12.244 9.66792C12.3907 9.88685 12.6858 9.94687 12.9049 9.80034C13.124 9.6538 13.1841 9.35896 13.0375 9.14004L13.0392 9.13827Z" fill="#033726"/>
<path d="M12.7566 9.3448L12.488 8.95109C11.0867 9.90799 10.0353 11.1739 9.33731 12.6022C8.63931 14.0305 8.29297 15.6194 8.29297 17.2313C8.29297 17.9658 8.36542 18.7038 8.50855 19.4347C8.52269 19.5106 8.55273 19.583 8.5916 19.6465C8.65168 19.7419 8.73474 19.816 8.82662 19.8655C8.91851 19.9149 9.01923 19.9414 9.12526 19.9414C9.21008 19.9414 9.29666 19.9237 9.37972 19.8866C9.46277 19.8496 9.53875 19.7931 9.59883 19.7225C10.652 18.4831 11.5797 17.0583 12.2459 15.5205C12.9121 13.9828 13.3185 12.3285 13.3185 10.6389C13.3185 10.1887 13.2902 9.73497 13.2284 9.28124C13.2072 9.11704 13.1012 8.9758 12.9492 8.90871C12.7972 8.84163 12.6223 8.85751 12.4862 8.95109L12.7548 9.3448L12.283 9.40835C12.3378 9.81972 12.3643 10.2293 12.3643 10.6407C12.3643 12.1767 11.9932 13.7038 11.3712 15.1445C10.7474 16.5834 9.87273 17.9322 8.87257 19.1063L9.12172 19.3182L8.98743 19.0198C8.94325 19.0392 8.90084 19.071 8.87257 19.1063L9.12172 19.3199L8.98743 19.0215L9.12349 19.3234V18.9933C9.07931 18.9933 9.03337 19.0021 8.98743 19.0215L9.12349 19.3234V18.9933V19.3164L9.32317 19.0604C9.26486 19.0145 9.19771 18.9933 9.12349 18.9915V19.3146L9.32317 19.0586L9.12172 19.3182L9.40092 19.1434C9.37972 19.1098 9.35321 19.0798 9.32317 19.0586L9.12172 19.3182L9.40092 19.1434L9.12526 19.3146L9.44333 19.2528C9.43626 19.2158 9.42036 19.1769 9.39915 19.1434L9.12349 19.3146L9.44156 19.2528C9.3108 18.5819 9.24365 17.904 9.24365 17.2331C9.24365 15.7571 9.55996 14.3112 10.1908 13.0223C10.8216 11.7335 11.7617 10.6001 13.0216 9.74027L12.753 9.34656L12.7566 9.3448Z" fill="#033726"/>
<path d="M12.7266 9.3326L12.6806 9.80752C14.5449 9.9876 16.1883 10.7574 17.5171 11.9244C18.8442 13.0914 19.8496 14.6574 20.4133 16.4141L20.7226 16.3152H20.3992C20.3992 16.3487 20.4045 16.3823 20.4151 16.4141L20.7243 16.3152H20.4009H20.7296L20.4275 16.1863C20.4116 16.2251 20.4009 16.2693 20.4009 16.3152H20.7296L20.4275 16.1863L20.7243 16.3134L20.5423 16.0468C20.4911 16.0821 20.4522 16.128 20.4275 16.1863L20.7243 16.3134L20.5423 16.0468L20.7296 16.3187V15.9886C20.6589 15.9886 20.5936 16.0115 20.5423 16.0468L20.7296 16.3187V15.9886V16.3169L20.8463 16.0098C20.8109 15.9956 20.7703 15.9886 20.7296 15.9886V16.3169L20.8463 16.0098C19.2117 15.3901 17.6072 14.4985 16.2572 13.3491C14.9071 12.1998 13.8116 10.8015 13.1736 9.16134L12.7301 9.33436L12.2848 9.50738C12.9899 11.3206 14.1915 12.846 15.6387 14.0748C17.0877 15.3053 18.7841 16.2463 20.507 16.8996C20.5777 16.9261 20.6536 16.9402 20.7296 16.9402C20.8162 16.9402 20.901 16.9208 20.9752 16.889C21.0883 16.8395 21.1802 16.7619 21.2474 16.6648C21.3145 16.5677 21.3552 16.4441 21.3552 16.3134C21.3552 16.2499 21.3446 16.1845 21.3251 16.121C20.7102 14.2089 19.6146 12.4964 18.1497 11.2076C16.6866 9.91875 14.8488 9.05718 12.7743 8.85768C12.6099 8.84179 12.4491 8.91241 12.3484 9.04482C12.2477 9.17723 12.2247 9.35025 12.2848 9.50562L12.7301 9.3326H12.7266Z" fill="#033726"/>
<path d="M12.1557 6.70735C11.8182 6.3313 11.3994 5.95878 10.8763 5.61627C10.3267 5.25434 9.80193 4.9648 9.24177 4.7547C8.68161 4.5446 8.08964 4.41749 7.41992 4.36982C7.22554 4.35569 7.02763 4.34863 6.82972 4.34863C5.5698 4.34863 4.26394 4.62758 3.08353 5.17842C1.90313 5.72926 0.844659 6.55552 0.106024 7.65896C0.0371084 7.76313 0 7.88848 0 8.00853C0 8.09328 0.0176707 8.17449 0.0477108 8.24864C0.0936546 8.3581 0.167871 8.45167 0.266827 8.52229C0.365783 8.59292 0.491245 8.63705 0.625542 8.63705C0.680321 8.63705 0.736867 8.62999 0.78988 8.61587H0.791647C1.42072 8.44461 2.88032 8.11976 4.88948 8.11976C6.08225 8.11976 7.46763 8.23452 8.99084 8.56114C9.24884 8.61587 9.50153 8.45344 9.55807 8.19568C9.61285 7.93791 9.45028 7.68544 9.19229 7.62895C7.59663 7.28644 6.14233 7.16638 4.88948 7.16638C2.77606 7.16638 1.23341 7.50713 0.540723 7.69604H0.54249L0.623775 8.00147V7.68544C0.595502 7.68544 0.567229 7.68897 0.54249 7.69604L0.623775 8.00147V7.68544V8.01736L0.758072 7.71369C0.71743 7.69604 0.669719 7.68544 0.623775 7.68544V8.01736L0.758072 7.71369L0.625542 8.0103L0.897671 7.83198C0.865864 7.78255 0.818153 7.74017 0.758072 7.71369L0.625542 8.0103L0.897671 7.83198L0.623775 8.0103H0.950683C0.950683 7.94144 0.929478 7.88142 0.897671 7.83198L0.623775 8.0103L0.895904 8.19214C0.929478 8.14271 0.950683 8.07562 0.950683 8.0103H0.623775L0.895904 8.19214C1.52145 7.25643 2.43502 6.53433 3.48466 6.04529C4.53253 5.55624 5.70763 5.30554 6.82795 5.30554C7.00289 5.30554 7.17783 5.31083 7.351 5.32319C7.94297 5.36557 8.43422 5.47326 8.90602 5.64981C9.37783 5.82636 9.83727 6.07707 10.3497 6.41428C10.8039 6.71441 11.159 7.02867 11.4435 7.3447C11.6185 7.54067 11.9206 7.55833 12.1168 7.38178C12.3129 7.20699 12.3306 6.90509 12.1539 6.70912L12.1557 6.70735Z" fill="#033726"/>
<path d="M19.899 7.69745C20.1765 7.68333 20.4451 7.67626 20.7031 7.67626C22.0708 7.67626 23.1522 7.86341 23.723 7.99053C23.7671 8.00112 23.8149 8.00641 23.8608 8.00465C23.9509 8.00465 24.0393 7.98523 24.117 7.94992C24.2337 7.89695 24.3238 7.81221 24.3874 7.71511C24.4492 7.618 24.4863 7.50325 24.4863 7.37789C24.4863 7.30374 24.4722 7.22429 24.4439 7.15014C24.4139 7.07599 24.3697 7.00537 24.3149 6.94888C23.7707 6.37862 23.184 5.83484 22.4984 5.37404C21.8128 4.91324 21.0282 4.53896 20.104 4.30591C19.5933 4.17703 19.0667 4.11523 18.5419 4.11523C17.669 4.11523 16.7943 4.28649 15.9779 4.60781C15.1615 4.92913 14.4035 5.40229 13.7655 6.01316C13.2778 6.48102 12.8573 7.04068 12.571 7.66744C12.3572 8.13706 12.2529 8.64376 12.2529 9.15046C12.2529 9.31466 12.2635 9.47885 12.2847 9.64128C12.3059 9.80547 12.412 9.94494 12.5622 10.0138C12.7141 10.0809 12.8873 10.0668 13.0251 9.97319C14.3557 9.07102 15.7093 8.50252 16.9993 8.15472C17.2537 8.08586 17.4039 7.82457 17.335 7.57033C17.2661 7.3161 17.0046 7.16603 16.7501 7.23489C15.37 7.60564 13.914 8.21651 12.488 9.18401L12.7565 9.57772L13.2284 9.51592C13.2124 9.3941 13.2036 9.27228 13.2036 9.15046C13.2036 8.77265 13.2814 8.40189 13.4351 8.06115C13.6631 7.55974 14.0112 7.09365 14.4229 6.69994C14.9654 6.18088 15.6192 5.77128 16.326 5.49233C17.0328 5.21338 17.7909 5.06684 18.5402 5.06684C18.9908 5.06684 19.4378 5.11981 19.869 5.22927C20.6818 5.43407 21.3586 5.75716 21.9647 6.16499C22.5708 6.57106 23.1063 7.06363 23.6222 7.60564L23.8573 7.38143L23.5551 7.49971C23.571 7.54032 23.5957 7.5774 23.6222 7.60388L23.8573 7.37966L23.5551 7.49795L23.8661 7.37436H23.5321C23.5321 7.41497 23.5392 7.45734 23.5551 7.49795L23.8661 7.37436H23.5321H23.8555L23.6187 7.15367C23.5639 7.21194 23.5321 7.28609 23.5321 7.37436H23.8555L23.6187 7.15367L23.859 7.37789L23.723 7.07776C23.6806 7.09718 23.6452 7.12366 23.6187 7.15191L23.859 7.37613L23.723 7.07599L23.8608 7.37966V7.04598C23.8131 7.04598 23.7654 7.05657 23.723 7.07599L23.8608 7.37966V7.04598V7.36377L23.9297 7.05304C23.9085 7.04774 23.8855 7.04598 23.8608 7.04598V7.36377L23.9297 7.05304C23.3042 6.91533 22.1573 6.71759 20.7031 6.71759C20.4292 6.71759 20.1429 6.72466 19.8478 6.74055C19.5845 6.75467 19.383 6.97889 19.3972 7.24195C19.4113 7.50501 19.6357 7.70628 19.899 7.69215V7.69745Z" fill="#033726"/>
<path d="M12.7545 9.58517L12.6874 9.11378C9.83003 9.51631 7.58232 10.7151 5.94248 11.9739C4.30087 13.2327 3.25654 14.5515 2.78296 15.2207L3.04979 15.4096L2.90312 15.1183C2.85364 15.143 2.80947 15.1818 2.78296 15.2207L3.04979 15.4096L2.90312 15.1183L3.05156 15.4149V15.083C3.00385 15.083 2.9526 15.0936 2.90312 15.1183L3.05156 15.4149V15.083V15.406L3.26891 15.1677C3.20529 15.1112 3.13284 15.0847 3.05156 15.083V15.406L3.26891 15.1677L3.04449 15.4131L3.34842 15.2754C3.32899 15.2313 3.30071 15.1942 3.26891 15.1659L3.04449 15.4113L3.34842 15.2736L3.04979 15.4078H3.3767C3.3767 15.3654 3.36786 15.316 3.34666 15.2736L3.04802 15.4078H3.37493H2.92786L3.3714 15.4661C3.37493 15.4361 3.37493 15.4166 3.37493 15.4078H2.92786L3.3714 15.4661C3.37316 15.4467 3.37493 15.4361 3.37493 15.4149C3.3926 14.6681 3.45798 13.9424 3.63292 13.2345C3.80786 12.5265 4.09236 11.8327 4.55533 11.1353C5.07308 10.3567 5.81172 9.71228 6.66344 9.26384C7.51517 8.81541 8.47646 8.56647 9.42891 8.56647C9.47838 8.56647 9.52786 8.56647 9.57734 8.56823C10.1463 8.58412 10.7189 8.69535 11.2242 8.91427C11.6784 9.10848 12.0689 9.43863 12.3569 9.85176L12.7492 9.57987L13.1415 9.30798C12.7581 8.75538 12.2297 8.30694 11.6024 8.03682C10.968 7.76493 10.2806 7.63251 9.60384 7.61309C9.54553 7.61309 9.48722 7.61133 9.42891 7.61133C8.30858 7.61133 7.20063 7.90087 6.21814 8.41817C5.23565 8.93546 4.37509 9.6805 3.76015 10.6056C3.23356 11.3983 2.90312 12.2017 2.70521 13.0032C2.5073 13.8047 2.43838 14.601 2.41895 15.3884L2.89605 15.399L2.42248 15.3372C2.41895 15.3707 2.41895 15.3919 2.41895 15.4025C2.41895 15.4908 2.43838 15.5808 2.47372 15.6603C2.5285 15.7803 2.61686 15.8739 2.71581 15.9339C2.81654 15.9957 2.92786 16.0275 3.04625 16.0275C3.13814 16.0275 3.23356 16.0063 3.32545 15.9622C3.41557 15.918 3.49686 15.8474 3.55694 15.7644C3.98987 15.1518 4.97766 13.9054 6.51854 12.7225C8.06119 11.5396 10.1516 10.4255 12.8164 10.0495C12.9807 10.0265 13.1203 9.92061 13.1875 9.76878C13.2546 9.61695 13.2369 9.44216 13.1433 9.30622L12.751 9.5781L12.7545 9.58517Z" fill="#033726"/>
<path d="M32.4082 15.5275L32.3411 15.9989C34.6542 16.3255 36.4778 17.2806 37.8367 18.3046C39.1938 19.3286 40.0791 20.4197 40.4926 20.9917C40.5527 21.0747 40.6339 21.1453 40.7258 21.1895C40.816 21.2354 40.9149 21.2548 41.0068 21.2548C41.1676 21.2548 41.3196 21.1965 41.4397 21.0853C41.4998 21.0306 41.5528 20.96 41.5882 20.8787C41.6253 20.7975 41.6429 20.7075 41.6429 20.6192V20.6157H41.2224L41.6429 20.6369C41.6429 20.6245 41.6429 20.6175 41.6429 20.6157H41.2224L41.6429 20.6369V20.5998C41.6235 19.9113 41.5564 19.2139 41.3779 18.5112C41.1994 17.8085 40.9078 17.1023 40.4449 16.4085C39.8918 15.5787 39.1213 14.9096 38.2396 14.447C37.3578 13.9844 36.3647 13.7231 35.361 13.7231C35.3098 13.7231 35.2568 13.7231 35.2037 13.7249C34.5959 13.7408 33.9792 13.8591 33.4084 14.1045C32.8394 14.3481 32.3623 14.7542 32.0177 15.2521C31.9241 15.388 31.9064 15.5628 31.9735 15.7146C32.0407 15.8665 32.1803 15.9724 32.3446 15.9954L32.4118 15.524L32.8041 15.7959C33.055 15.4357 33.3943 15.1497 33.7883 14.9802C34.2319 14.7895 34.7337 14.6906 35.2338 14.6765C35.2762 14.6765 35.3204 14.6748 35.3645 14.6748C36.2039 14.6748 37.0503 14.8937 37.7996 15.2891C38.5488 15.6829 39.1991 16.2514 39.655 16.9364C40.0543 17.5384 40.3017 18.1351 40.459 18.746C40.6145 19.3569 40.6764 19.9819 40.6958 20.628L41.1729 20.6139L40.6958 20.591C40.6958 20.6033 40.6958 20.6122 40.6958 20.6175V20.621H41.0121L40.7241 20.4921C40.7046 20.5345 40.6958 20.5804 40.6958 20.621H41.0121L40.7241 20.4921L41.0174 20.6228L40.8478 20.3491C40.7983 20.3791 40.7523 20.4285 40.7241 20.4903L41.0174 20.621L40.8478 20.3473L41.0121 20.6122V20.2997C40.952 20.2997 40.8972 20.3156 40.8478 20.3456L41.0121 20.6104V20.2979V20.621L41.1552 20.3314C41.1075 20.3085 41.058 20.2979 41.0121 20.2979V20.621L41.1552 20.3314L41.0139 20.6139L41.2701 20.4285C41.2436 20.3915 41.2012 20.3544 41.1535 20.3314L41.0121 20.6139L41.2683 20.4285C40.8142 19.8 39.8723 18.6383 38.4145 17.5384C36.9584 16.4385 34.9811 15.4021 32.4772 15.049L32.41 15.5204L32.4082 15.5275Z" fill="#033726"/>
<path d="M32.378 15.6123L32.6466 15.2186C31.3478 14.3359 30.0189 13.785 28.7643 13.4566C27.5097 13.1283 26.3275 13.0188 25.3132 13.0188C24.0798 13.0188 23.0938 13.1795 22.5195 13.2995L22.5831 13.5996V13.2942C22.5619 13.2942 22.5389 13.296 22.5195 13.3013L22.5831 13.6014V13.296V13.6191L22.7156 13.3242C22.675 13.3048 22.6273 13.296 22.5831 13.296V13.6191L22.7156 13.3242L22.5849 13.6138L22.8535 13.4425C22.8234 13.3948 22.7775 13.3525 22.7156 13.3242L22.5849 13.6138L22.8535 13.4425L22.5884 13.612H22.9029C22.9029 13.5467 22.8853 13.492 22.8535 13.4425L22.5884 13.612H22.9029H22.5778L22.88 13.7321C22.8959 13.6932 22.9029 13.6508 22.9029 13.612H22.5778L22.88 13.7321L22.5884 13.6155L22.8146 13.8345C22.8411 13.808 22.8641 13.7727 22.88 13.7321L22.5884 13.6155L22.8146 13.8345C23.2634 13.3666 23.7299 12.9464 24.2548 12.5986C24.7813 12.2508 25.3662 11.9754 26.0678 11.7971C26.4459 11.7017 26.84 11.6541 27.2358 11.6541C27.8949 11.6541 28.5629 11.7829 29.1849 12.0283C29.8069 12.2738 30.3829 12.6339 30.8601 13.0912C31.2223 13.4372 31.5262 13.8468 31.7259 14.2864C31.8602 14.5813 31.9274 14.9044 31.9274 15.2327C31.9274 15.3387 31.9203 15.4464 31.9062 15.5523L32.3797 15.6141L32.8533 15.6759C32.8727 15.5293 32.8816 15.381 32.8816 15.2327C32.8816 14.7755 32.7879 14.3164 32.5935 13.891C32.3356 13.326 31.9574 12.8228 31.5192 12.4026C30.9466 11.8536 30.2663 11.4298 29.5348 11.1421C28.8032 10.8543 28.0186 10.7007 27.2358 10.7007C26.764 10.7007 26.2922 10.7554 25.8345 10.8719C25.0252 11.0767 24.3343 11.4016 23.7282 11.8024C23.1238 12.2031 22.6043 12.6745 22.1272 13.1706C22.0707 13.2289 22.0229 13.2995 21.9929 13.3772C21.9629 13.4531 21.9487 13.5343 21.9487 13.6102C21.9487 13.7797 22.0123 13.9298 22.1219 14.0463C22.1767 14.1046 22.2438 14.1558 22.3233 14.1911C22.4029 14.2264 22.4912 14.2476 22.5831 14.2476C22.6273 14.2476 22.6732 14.2423 22.7174 14.2335C23.2405 14.1222 24.1629 13.9722 25.3132 13.9722C26.2604 13.9722 27.3595 14.0728 28.5222 14.3782C29.685 14.6837 30.9095 15.1904 32.1111 16.006C32.249 16.0996 32.4239 16.1137 32.5741 16.0466C32.7261 15.9796 32.8303 15.8383 32.8515 15.6741L32.378 15.6123Z" fill="#033726"/>
<path d="M32.399 15.4905L32.1304 15.8842C33.2419 16.6434 34.0724 17.6444 34.6308 18.7814C35.1874 19.9202 35.4684 21.1966 35.4684 22.5013C35.4684 23.0786 35.4136 23.6595 35.304 24.2368L35.615 24.2951L35.3465 24.1291C35.3252 24.1627 35.3111 24.1997 35.304 24.2368L35.615 24.2951L35.3465 24.1291L35.6186 24.2986L35.4666 24.0161C35.4207 24.0408 35.3765 24.0797 35.3447 24.1309L35.6168 24.3004L35.4648 24.0179L35.6133 24.2933V23.9808C35.5603 23.9808 35.5108 23.9932 35.4648 24.0179L35.6133 24.2933V23.9808V24.3004L35.744 24.0091C35.7016 23.9896 35.6557 23.9808 35.6133 23.9808V24.3004L35.744 24.0091L35.6133 24.2986L35.8554 24.0938C35.8271 24.0585 35.7865 24.0285 35.7423 24.0091L35.6115 24.2986L35.8536 24.0938C34.9771 23.0575 34.2102 21.8675 33.666 20.5999C33.1199 19.3322 32.7983 17.9905 32.7983 16.6434C32.7983 16.2814 32.8213 15.9177 32.8708 15.5558L32.399 15.4923L31.9272 15.4287C31.8724 15.8348 31.8477 16.2408 31.8477 16.6434C31.8477 18.144 32.2064 19.6112 32.793 20.9777C33.3815 22.3424 34.1979 23.6065 35.1291 24.7082C35.191 24.7806 35.2705 24.8406 35.3535 24.8777C35.4383 24.9165 35.5267 24.9342 35.6133 24.9342C35.7546 24.9342 35.8907 24.8883 36.0056 24.8C36.0621 24.7559 36.1151 24.6994 36.154 24.6341C36.1946 24.5687 36.2229 24.4946 36.2388 24.4169C36.359 23.7813 36.4191 23.1404 36.4191 22.5031C36.4191 21.0624 36.1098 19.643 35.4861 18.3647C34.8623 17.0883 33.9204 15.9531 32.6676 15.0985C32.5315 15.005 32.3566 14.9891 32.2046 15.0562C32.0526 15.1233 31.9484 15.2645 31.9254 15.4287L32.3972 15.4923L32.399 15.4905Z" fill="#033726"/>
<path d="M32.4079 15.4905L32.3743 15.0156C30.526 15.1445 28.8685 15.8666 27.5343 16.9753C26.1984 18.0841 25.1806 19.5742 24.5815 21.2567C24.5568 21.3238 24.5444 21.3979 24.5444 21.4703C24.5444 21.5586 24.5639 21.6451 24.5957 21.721C24.6452 21.8358 24.7247 21.9294 24.8254 21.9964C24.9244 22.0635 25.048 22.1059 25.1806 22.1059C25.2513 22.1059 25.3237 22.0935 25.3909 22.0706H25.3926C26.9353 21.5233 28.4585 20.7235 29.7679 19.6624C31.0773 18.6014 32.1764 17.2737 32.8444 15.6777C32.908 15.5241 32.8885 15.3511 32.7913 15.2169C32.6942 15.0827 32.5351 15.0086 32.3708 15.0192L32.4044 15.4941L31.9644 15.3105C31.3671 16.7352 30.3775 17.9411 29.1653 18.9245C27.9549 19.9061 26.5236 20.66 25.0728 21.1737H25.0746L25.177 21.4668V21.1561C25.1417 21.1561 25.1046 21.1631 25.0746 21.1737L25.177 21.4668V21.1561V21.4756L25.3025 21.1808C25.2654 21.1649 25.2212 21.1561 25.177 21.1561V21.4756L25.3025 21.1808L25.1788 21.4703L25.4386 21.292C25.405 21.2426 25.3591 21.2055 25.3025 21.1808L25.1788 21.4703L25.4386 21.292L25.1735 21.4739H25.4951C25.4951 21.405 25.4721 21.3414 25.4386 21.292L25.1735 21.4739H25.4951H25.1788L25.4774 21.5798C25.488 21.548 25.4951 21.5109 25.4951 21.4739H25.1788L25.4774 21.5798C26.0217 20.0509 26.9459 18.702 28.1404 17.7116C29.3367 16.7211 30.7963 16.0855 32.4379 15.969L32.4044 15.4941L32.4079 15.4905Z" fill="#033726"/>
<path d="M9.54937 43.9998H34.4509C34.7142 43.9998 34.928 43.7861 34.928 43.5231C34.928 43.26 34.7142 43.0464 34.4509 43.0464H9.54937C9.28608 43.0464 9.07227 43.26 9.07227 43.5231C9.07227 43.7861 9.28608 43.9998 9.54937 43.9998Z" fill="#033726"/>
</g>
<defs>
<clipPath id="clip0_11_7515">
<rect width="44" height="44" fill="white"/>
</clipPath>
</defs>
</svg>
