<svg width="38" height="38" viewBox="0 0 38 38" fill="none" xmlns="http://www.w3.org/2000/svg">
<path d="M7.72021 0.59375H31.544V36.814H7.72021V0.59375Z" fill="#E9F3E8"/>
<path d="M19.0012 31.4721C19.0012 30.4146 19.5651 29.4382 20.4793 28.9067C19.63 26.6942 17.1485 25.588 14.9361 26.4359C12.7237 27.2852 11.6175 29.7668 12.4654 31.9792C13.3147 34.1917 15.7962 35.2979 18.0086 34.45C18.3616 34.3148 18.6956 34.1336 19.0012 33.9104V31.4721Z" fill="#FFC941"/>
<path d="M7.34828 3.44727L0.742188 5.04576V6.82682L7.34828 34.7341V3.44727Z" fill="#FFC941"/>
<path d="M27.0168 4.15576H12.1737C11.8465 4.15576 11.5801 4.42218 11.5801 4.74945C11.5801 5.07672 11.8465 5.34314 12.1737 5.34314H27.0168C27.3441 5.34314 27.6105 5.07672 27.6105 4.74945C27.6105 4.42218 27.3441 4.15576 27.0168 4.15576Z" fill="#033726"/>
<path d="M27.0168 6.53052H12.1737C11.8465 6.53052 11.5801 6.79693 11.5801 7.1242C11.5801 7.45148 11.8465 7.71789 12.1737 7.71789H27.0168C27.3441 7.71789 27.6105 7.45148 27.6105 7.1242C27.6105 6.79693 27.3441 6.53052 27.0168 6.53052Z" fill="#033726"/>
<path d="M27.0168 8.90527H12.1737C11.8465 8.90527 11.5801 9.17169 11.5801 9.49896C11.5801 9.82623 11.8465 10.0926 12.1737 10.0926H27.0168C27.3441 10.0926 27.6105 9.82623 27.6105 9.49896C27.6105 9.17169 27.3441 8.90527 27.0168 8.90527Z" fill="#033726"/>
<path d="M27.6105 11.8752C27.6105 11.5479 27.3441 11.2815 27.0168 11.2815H12.1737C11.8465 11.2815 11.5801 11.5479 11.5801 11.8752C11.5801 12.2025 11.8465 12.4689 12.1737 12.4689H27.0168C27.3441 12.4689 27.6105 12.2025 27.6105 11.8752Z" fill="#033726"/>
<path d="M17.9912 28.9661L15.983 30.9325L15.2622 30.2184C15.0296 29.9872 14.6537 29.9899 14.4224 30.2225C14.1912 30.4551 14.1939 30.831 14.4265 31.0623L15.5624 32.1875C15.7923 32.416 16.1642 32.4174 16.3954 32.1902L18.8215 29.8154C19.0555 29.5855 19.0582 29.2096 18.8283 28.9756C18.5984 28.743 18.2238 28.7389 17.9898 28.9675L17.9912 28.9661Z" fill="#033726"/>
<path d="M11.5781 14.2499C11.5781 14.5772 11.8445 14.8436 12.1718 14.8436H23.9518C24.3332 14.3919 24.7727 13.993 25.2595 13.6562H12.1718C11.8445 13.6562 11.5781 13.9227 11.5781 14.2499Z" fill="#033726"/>
<path d="M20.1941 36.8126H8.61009C8.28283 36.8126 8.01642 36.5462 8.01642 36.2189V1.78106C8.01642 1.45379 8.28283 1.18737 8.61009 1.18737H30.5785C30.9058 1.18737 31.1722 1.45379 31.1722 1.78106V12.8136C31.5846 12.9516 31.9822 13.1301 32.3595 13.3451V1.78106C32.3595 0.797893 31.5616 0.00135236 30.5785 0H8.61009C7.62696 0 6.83044 0.797893 6.82908 1.78106V2.88053L1.3806 4.09765C0.431276 4.30727 -0.167805 5.24851 0.0418048 6.19787C0.0431571 6.20599 0.045867 6.2141 0.0472193 6.22086L6.70739 34.7327C6.73579 34.8504 6.77634 34.9653 6.82773 35.0748V36.2189C6.82773 37.2021 7.6256 37.9986 8.60874 38H21.1042C20.9554 37.7444 20.8567 37.4631 20.8107 37.171C20.5916 37.0763 20.3834 36.956 20.1927 36.8126H20.1941ZM1.2048 5.95039C1.13042 5.64205 1.3211 5.33371 1.62807 5.25933C1.63213 5.25933 1.63618 5.25798 1.64024 5.25663L6.82908 4.0963V30.0292L1.2048 5.95039Z" fill="#033726"/>
<path d="M36.2192 29.6869H32.9534V29.1284C32.9534 28.1101 32.4016 27.3446 31.6673 27.3446H31.5402C31.7295 25.8936 32.1772 24.4871 32.8641 23.1942L32.9061 23.1077C35.0846 20.9831 35.1279 17.4954 33.0034 15.3181C30.8789 13.1394 27.3913 13.0962 25.2141 15.2207C24.1484 16.2593 23.5494 17.6847 23.5507 19.1723C23.5521 20.7181 24.2012 22.1921 25.3412 23.2362L25.3831 23.3187C26.0363 24.5764 26.465 25.9395 26.6475 27.3446H26.5204C25.7874 27.3446 25.2344 28.1101 25.2344 29.1284V29.6869H21.9685C20.984 29.6896 20.1875 30.4875 20.1875 31.4707V34.4337C20.1875 35.4182 20.9854 36.2161 21.9685 36.2175V36.8112C21.9685 37.4671 22.5 37.9985 23.1558 37.9985H35.0319C35.6878 37.9985 36.2192 37.4671 36.2192 36.8112V36.2161C37.2037 36.2134 38.0002 35.4155 38.0002 34.4324V31.4693C38.0002 30.4848 37.2024 29.6869 36.2192 29.6856V29.6869ZM35.0319 36.8125H23.1572V36.2188H35.0319V36.8125ZM36.8129 34.4351C36.8129 34.7637 36.5479 35.0301 36.2192 35.0315H21.9699C21.6412 35.0315 21.3762 34.7637 21.3762 34.4351V31.4721C21.3762 31.1434 21.6412 30.877 21.9699 30.8757H26.423V29.1298C26.4109 28.9188 26.465 28.7105 26.5799 28.5334H27.9633L27.9038 27.8829C27.7632 26.1126 27.2709 24.3884 26.4555 22.8115L26.3135 22.5086L26.2188 22.4261C24.4175 20.8601 24.2282 18.1297 25.7942 16.3297C27.3602 14.5283 30.0905 14.339 31.8905 15.905C32.8357 16.7273 33.378 17.92 33.3753 19.1723C33.3794 20.3665 32.8844 21.5092 32.0095 22.322L31.9324 22.3964L31.7958 22.6749C30.9398 24.2883 30.4246 26.0613 30.2853 27.8829L30.2258 28.5334H31.6092C31.7241 28.7105 31.7796 28.9201 31.766 29.1298V30.8757H36.2192C36.5479 30.8757 36.8129 31.1434 36.8129 31.4721V34.4351Z" fill="#033726"/>
<path d="M23.1567 36.219H35.0315V36.8127H23.1567V36.219Z" fill="#FFC941"/>
<path d="M36.2193 30.8745H31.7661V29.1286C31.7783 28.9176 31.7242 28.7093 31.6092 28.5322H30.2258L30.2853 27.8817C30.426 26.06 30.9398 24.2885 31.7958 22.6737L31.9324 22.3951L32.0095 22.3208C32.8845 21.5066 33.3794 20.3653 33.3754 19.1711C33.3754 16.7869 31.4415 14.853 29.056 14.853C26.6719 14.853 24.7381 16.7869 24.7381 19.1725C24.7381 20.4193 25.2777 21.6054 26.2162 22.4249L26.3109 22.5074L26.4528 22.8103C27.2683 24.3872 27.7605 26.1114 27.9012 27.8817L27.9607 28.5322H26.5773C26.4623 28.7093 26.4069 28.9189 26.4204 29.1286V30.8745H21.9672C21.6386 30.8745 21.3735 31.1422 21.3735 31.4708V34.4339C21.3735 34.7625 21.6386 35.0289 21.9672 35.0303H36.2166C36.5452 35.0303 36.8103 34.7625 36.8103 34.4339V31.4708C36.8103 31.1422 36.5452 30.8758 36.2166 30.8745H36.2193ZM23.7509 33.2505C23.7509 33.5778 23.4845 33.8442 23.1572 33.8442C22.83 33.8442 22.5636 33.5778 22.5636 33.2505V32.6569C22.5636 32.3296 22.83 32.0632 23.1572 32.0632C23.4845 32.0632 23.7509 32.3296 23.7509 32.6569V33.2505ZM26.1256 33.2505C26.1256 33.5778 25.8592 33.8442 25.5319 33.8442C25.2047 33.8442 24.9382 33.5778 24.9382 33.2505V32.6569C24.9382 32.3296 25.2047 32.0632 25.5319 32.0632C25.8592 32.0632 26.1256 32.3296 26.1256 32.6569V33.2505ZM28.5016 33.2505C28.5016 33.5778 28.2352 33.8442 27.9079 33.8442C27.5807 33.8442 27.3143 33.5778 27.3143 33.2505V32.6569C27.3143 32.3296 27.5807 32.0632 27.9079 32.0632C28.2352 32.0632 28.5016 32.3296 28.5016 32.6569V33.2505ZM29.0953 17.5158C28.1121 17.5158 27.3143 18.3137 27.3143 19.2969C27.3143 19.6242 27.0479 19.8906 26.7206 19.8906C26.3933 19.8906 26.1269 19.6242 26.1269 19.2969C26.1296 17.6578 27.4576 16.3312 29.0953 16.3285C29.4225 16.3285 29.6889 16.5949 29.6889 16.9221C29.6889 17.2494 29.4225 17.5158 29.0953 17.5158ZM30.8763 33.2505C30.8763 33.5778 30.6099 33.8442 30.2826 33.8442C29.9553 33.8442 29.6889 33.5778 29.6889 33.2505V32.6569C29.6889 32.3296 29.9553 32.0632 30.2826 32.0632C30.6099 32.0632 30.8763 32.3296 30.8763 32.6569V33.2505ZM33.2509 33.2505C33.2509 33.5778 32.9845 33.8442 32.6573 33.8442C32.33 33.8442 32.0636 33.5778 32.0636 33.2505V32.6569C32.0636 32.3296 32.33 32.0632 32.6573 32.0632C32.9845 32.0632 33.2509 32.3296 33.2509 32.6569V33.2505ZM35.6256 33.2505C35.6256 33.5778 35.3592 33.8442 35.032 33.8442C34.7047 33.8442 34.4383 33.5778 34.4383 33.2505V32.6569C34.4383 32.3296 34.7047 32.0632 35.032 32.0632C35.3592 32.0632 35.6256 32.3296 35.6256 32.6569V33.2505Z" fill="#65C3A5"/>
<path d="M23.7503 32.6569V33.2506C23.7503 33.5779 23.4839 33.8443 23.1566 33.8443C22.8294 33.8443 22.563 33.5779 22.563 33.2506V32.6569C22.563 32.3296 22.8294 32.0632 23.1566 32.0632C23.4839 32.0632 23.7503 32.3296 23.7503 32.6569Z" fill="#033726"/>
<path d="M26.1248 32.6569V33.2506C26.1248 33.5779 25.8584 33.8443 25.5312 33.8443C25.2039 33.8443 24.9375 33.5779 24.9375 33.2506V32.6569C24.9375 32.3296 25.2039 32.0632 25.5312 32.0632C25.8584 32.0632 26.1248 32.3296 26.1248 32.6569Z" fill="#033726"/>
<path d="M28.5013 32.6569V33.2506C28.5013 33.5779 28.2349 33.8443 27.9076 33.8443C27.5804 33.8443 27.314 33.5779 27.314 33.2506V32.6569C27.314 32.3296 27.5804 32.0632 27.9076 32.0632C28.2349 32.0632 28.5013 32.3296 28.5013 32.6569Z" fill="#033726"/>
<path d="M30.8758 32.6569V33.2506C30.8758 33.5779 30.6094 33.8443 30.2821 33.8443C29.9549 33.8443 29.6885 33.5779 29.6885 33.2506V32.6569C29.6885 32.3296 29.9549 32.0632 30.2821 32.0632C30.6094 32.0632 30.8758 32.3296 30.8758 32.6569Z" fill="#033726"/>
<path d="M33.2503 32.6569V33.2506C33.2503 33.5779 32.9839 33.8443 32.6566 33.8443C32.3294 33.8443 32.063 33.5779 32.063 33.2506V32.6569C32.063 32.3296 32.3294 32.0632 32.6566 32.0632C32.9839 32.0632 33.2503 32.3296 33.2503 32.6569Z" fill="#033726"/>
<path d="M35.6248 32.6569V33.2506C35.6248 33.5779 35.3584 33.8443 35.0312 33.8443C34.7039 33.8443 34.4375 33.5779 34.4375 33.2506V32.6569C34.4375 32.3296 34.7039 32.0632 35.0312 32.0632C35.3584 32.0632 35.6248 32.3296 35.6248 32.6569Z" fill="#033726"/>
<path d="M23.1472 16.031H12.1718C11.8445 16.031 11.5781 16.2974 11.5781 16.6247C11.5781 16.952 11.8445 17.2184 12.1718 17.2184H22.655C22.7807 16.8073 22.9457 16.4097 23.1472 16.031Z" fill="#033726"/>
<path d="M22.4102 18.4058H12.1718C11.8445 18.4058 11.5781 18.6722 11.5781 18.9994C11.5781 19.3267 11.8445 19.5931 12.1718 19.5931H22.3791C22.371 19.4525 22.3642 19.3132 22.3642 19.1712C22.3642 18.9156 22.3791 18.66 22.4089 18.4058H22.4102Z" fill="#033726"/>
<path d="M12.1733 20.782C11.846 20.782 11.5796 21.0484 11.5796 21.3757C11.5796 21.7029 11.846 21.9694 12.1733 21.9694H22.981C22.8052 21.588 22.6659 21.1904 22.5645 20.782H12.1733Z" fill="#033726"/>
<path d="M12.1733 23.1567C11.846 23.1567 11.5796 23.4232 11.5796 23.7504C11.5796 24.0777 11.846 24.3441 12.1733 24.3441H24.551C24.4888 24.2102 24.4266 24.0763 24.3644 23.9438C24.1169 23.699 23.8897 23.4367 23.6828 23.1567H12.1733Z" fill="#033726"/>
<path d="M20.1883 29.0989C20.5075 28.8582 20.8726 28.6837 21.2621 28.5877C20.1654 26.0236 17.197 24.8349 14.633 25.933C12.069 27.0298 10.8803 29.9982 11.9784 32.5623C13.0751 35.1264 16.0435 36.3151 18.6075 35.217C18.7603 35.1507 18.9104 35.0777 19.0565 34.9979C19.0199 34.8126 19.001 34.6233 19.001 34.434V33.6131C17.3228 34.9249 14.8994 34.6274 13.5877 32.9491C12.2759 31.2708 12.5734 28.8474 14.2517 27.5356C15.9299 26.2238 18.3532 26.5213 19.665 28.1996C19.88 28.4741 20.0558 28.7757 20.1897 29.0975L20.1883 29.0989Z" fill="#033726"/>
<path d="M29.6885 16.9223C29.6885 17.2496 29.4221 17.5146 29.0948 17.516C28.1117 17.516 27.3138 18.3139 27.3138 19.297C27.3138 19.6243 27.0474 19.8907 26.7201 19.8907C26.3929 19.8907 26.1265 19.6243 26.1265 19.297C26.1292 17.658 27.4571 16.3313 29.0948 16.3286C29.4221 16.3286 29.6871 16.595 29.6885 16.9223Z" fill="#033726"/>
<path opacity="0.5" d="M21.1057 37.4063H20.8623C20.8393 37.3292 20.8231 37.2508 20.8122 37.1723C20.5932 37.0777 20.3863 36.9573 20.1942 36.8126H8.61027C8.28301 36.8126 8.01795 36.5462 8.0166 36.2189V35.6252C8.0166 35.9525 8.28301 36.2176 8.61027 36.2189H20.1942C20.3849 36.3623 20.5932 36.4826 20.8122 36.5787C20.8569 36.8708 20.9569 37.1521 21.1057 37.4063Z" fill="#9FA5AA"/>
<path opacity="0.5" d="M31.1723 1.78094V2.37463C31.1723 2.04736 30.9059 1.78229 30.5787 1.78094H8.61027C8.28301 1.78094 8.01795 2.04736 8.0166 2.37463V1.78094C8.0166 1.45367 8.28301 1.18861 8.61027 1.18726H30.5787C30.9059 1.18726 31.171 1.45367 31.1723 1.78094Z" fill="white"/>
<path opacity="0.4" d="M36.8127 33.8416V34.4352C36.8127 34.7639 36.5476 35.0303 36.219 35.0316H21.9696C21.641 35.0316 21.376 34.7639 21.376 34.4352V33.8416C21.376 34.1702 21.641 34.4366 21.9696 34.4379H36.219C36.5476 34.4379 36.8127 34.1702 36.8127 33.8416Z" fill="#72492D"/>
<path opacity="0.5" d="M19.0013 33.0219V33.6156C17.3271 34.93 14.9038 34.6379 13.5893 32.9637C13.0551 32.2835 12.7657 31.4437 12.7671 30.5795C12.7671 30.4808 12.7711 30.3807 12.782 30.282C12.9415 32.4038 14.7902 33.9929 16.912 33.8333C17.6733 33.7765 18.4009 33.4938 19.0013 33.0219Z" fill="#AD9359"/>
</svg>
