<?xml version="1.0" encoding="UTF-8"?>
<svg id="Layer_1" data-name="Layer 1" xmlns="http://www.w3.org/2000/svg" viewBox="0 0 457.67 457.67">
  <defs>
    <style>
      .cls-1 {
        fill: #65c3a5;
      }

      .cls-2 {
        fill: #ad9359;
      }

      .cls-2, .cls-3, .cls-4 {
        opacity: .5;
      }

      .cls-2, .cls-3, .cls-4, .cls-5 {
        isolation: isolate;
      }

      .cls-3 {
        fill: #9fa5aa;
      }

      .cls-6 {
        fill: #e9f3e8;
      }

      .cls-4 {
        fill: #fff;
      }

      .cls-7 {
        fill: #033726;
      }

      .cls-5 {
        fill: #72492d;
        opacity: .4;
      }

      .cls-8 {
        fill: #ffc941;
      }
    </style>
  </defs>
  <path class="cls-6" d="M92.97,7.15h286.94v436.22H92.97V7.15Z"/>
  <path class="cls-8" d="M228.84,379.04c.01-12.73,6.79-24.5,17.8-30.9-10.22-26.65-40.12-39.97-66.77-29.75-26.65,10.22-39.97,40.12-29.75,66.77,10.22,26.65,40.12,39.97,66.77,29.75,4.25-1.63,8.27-3.82,11.95-6.5v-29.37Z"/>
  <path class="cls-8" d="M88.5,41.53L8.94,60.78v21.45l79.56,336.1V41.53Z"/>
  <path class="cls-7" d="M325.38,50.06h-178.78c-3.95,0-7.15,3.2-7.15,7.15s3.2,7.15,7.15,7.15h178.78c3.95,0,7.15-3.2,7.15-7.15s-3.2-7.15-7.15-7.15Z"/>
  <path class="cls-7" d="M325.38,78.66h-178.78c-3.95,0-7.15,3.2-7.15,7.15s3.2,7.15,7.15,7.15h178.78c3.95,0,7.15-3.2,7.15-7.15s-3.2-7.15-7.15-7.15Z"/>
  <path class="cls-7" d="M325.38,107.27h-178.78c-3.95,0-7.15,3.2-7.15,7.15s3.2,7.15,7.15,7.15h178.78c3.95,0,7.15-3.2,7.15-7.15s-3.2-7.15-7.15-7.15Z"/>
  <path class="cls-7" d="M332.53,143.02c0-3.95-3.2-7.15-7.15-7.15h-178.78c-3.95,0-7.15,3.2-7.15,7.15s3.2,7.15,7.15,7.15h178.78c3.95,0,7.15-3.2,7.15-7.15Z"/>
  <path class="cls-7" d="M216.68,348.87l-24.19,23.68-8.68-8.6c-2.81-2.78-7.33-2.76-10.11.05-2.78,2.81-2.76,7.33.05,10.11l13.69,13.56c2.78,2.75,7.24,2.76,10.04.03l29.22-28.6c2.82-2.77,2.85-7.3.09-10.11-2.76-2.81-7.27-2.85-10.09-.1Z"/>
  <path class="cls-7" d="M139.45,171.63c0,3.95,3.2,7.15,7.15,7.15h141.89c4.6-5.44,9.89-10.25,15.75-14.3h-157.63c-3.95,0-7.15,3.2-7.15,7.15Z"/>
  <path class="cls-7" d="M243.21,443.37H103.7c-3.95,0-7.15-3.2-7.15-7.15V21.45c0-3.95,3.2-7.15,7.15-7.15h264.59c3.95,0,7.15,3.2,7.15,7.15v132.88c4.97,1.66,9.76,3.81,14.3,6.41V21.45c-.01-11.84-9.61-21.44-21.45-21.45H103.7c-11.84.01-21.44,9.61-21.45,21.45v13.24l-65.62,14.66C5.19,51.89-2.03,63.21.51,74.65c.02.09.04.19.06.28l80.22,343.39c.34,1.42.83,2.8,1.46,4.12v13.77c.01,11.84,9.61,21.44,21.45,21.45h150.49c-1.79-3.08-2.99-6.47-3.53-9.99-2.65-1.13-5.15-2.58-7.44-4.32ZM14.5,71.67c-.89-3.71,1.39-7.43,5.1-8.32.05-.01.1-.02.14-.03l62.5-13.97v312.32L14.5,71.67Z"/>
  <path class="cls-7" d="M436.22,357.55h-39.33v-6.72c0-12.26-6.65-21.49-15.48-21.49h-1.54c2.27-17.48,7.67-34.42,15.95-49.99l.5-1.04c26.23-25.58,26.76-67.59,1.18-93.82-25.58-26.23-67.59-26.76-93.82-1.18-12.83,12.51-20.05,29.67-20.03,47.59.02,18.61,7.84,36.37,21.56,48.95l.5,1c7.87,15.15,13.03,31.56,15.23,48.48h-1.54c-8.83,0-15.48,9.22-15.48,21.49v6.72h-39.33c-11.85.03-21.45,9.64-21.45,21.49v35.68c0,11.85,9.6,21.46,21.45,21.49v7.15c0,7.9,6.4,14.3,14.29,14.3h143.03c7.9,0,14.3-6.4,14.3-14.29h0v-7.16c11.85-.03,21.45-9.64,21.45-21.49v-35.68c0-11.85-9.6-21.46-21.45-21.49ZM421.92,443.37h-143.02v-7.15h143.02v7.15ZM443.37,414.73c0,3.96-3.19,7.17-7.15,7.19h-171.63c-3.96-.02-7.16-3.23-7.15-7.19v-35.68c0-3.96,3.19-7.17,7.15-7.19h53.63v-21.02c-.15-2.54.51-5.06,1.9-7.19h16.66l-.72-7.83c-1.69-21.32-7.62-42.08-17.45-61.07l-1.72-3.65-1.14-1c-21.69-18.87-23.98-51.74-5.11-73.43,18.87-21.69,51.74-23.98,73.43-5.11,11.39,9.9,17.91,24.26,17.89,39.35.05,14.39-5.91,28.14-16.45,37.94l-.93.89-1.64,3.36c-10.31,19.43-16.51,40.78-18.2,62.71l-.72,7.83h16.66c1.38,2.13,2.05,4.65,1.9,7.19v21.02h53.63c3.96.02,7.16,3.23,7.15,7.19v35.68Z"/>
  <path class="cls-8" d="M278.9,436.22h143.02v7.15h-143.02v-7.15Z"/>
  <path class="cls-1" d="M436.22,371.86h-53.63v-21.02c.15-2.54-.51-5.06-1.9-7.19h-16.66l.72-7.83c1.69-21.93,7.89-43.28,18.2-62.71l1.64-3.36.93-.89c10.53-9.8,16.5-23.55,16.45-37.94,0-28.72-23.29-52-52.01-52s-52,23.29-52,52.01c0,15.02,6.49,29.3,17.81,39.17l1.14,1,1.72,3.65c9.83,18.99,15.76,39.75,17.45,61.07l.72,7.83h-16.66c-1.38,2.13-2.05,4.65-1.9,7.19v21.02h-53.63c-3.96.02-7.16,3.23-7.15,7.19v35.68c0,3.96,3.19,7.17,7.15,7.19h171.63c3.96-.02,7.16-3.23,7.15-7.19v-35.68c0-3.96-3.19-7.17-7.15-7.19h0ZM286.05,400.46c0,3.95-3.2,7.15-7.15,7.15s-7.15-3.2-7.15-7.15v-7.15c0-3.95,3.2-7.15,7.15-7.15s7.15,3.2,7.15,7.15v7.15ZM314.65,400.46c0,3.95-3.2,7.15-7.15,7.15s-7.15-3.2-7.15-7.15v-7.15c0-3.95,3.2-7.15,7.15-7.15s7.15,3.2,7.15,7.15v7.15ZM343.26,400.46c0,3.95-3.2,7.15-7.15,7.15s-7.15-3.2-7.15-7.15v-7.15c0-3.95,3.2-7.15,7.15-7.15s7.15,3.2,7.15,7.15v7.15ZM350.41,210.96c-11.84,0-21.44,9.61-21.45,21.45,0,3.95-3.2,7.15-7.15,7.15s-7.15-3.2-7.15-7.15c.03-19.73,16.02-35.72,35.76-35.76,3.95,0,7.15,3.2,7.15,7.15s-3.2,7.15-7.15,7.15ZM371.86,400.46c0,3.95-3.2,7.15-7.15,7.15s-7.15-3.2-7.15-7.15v-7.15c0-3.95,3.2-7.15,7.15-7.15s7.15,3.2,7.15,7.15v7.15ZM400.47,400.46c0,3.95-3.2,7.15-7.15,7.15s-7.15-3.2-7.15-7.15v-7.15c0-3.95,3.2-7.15,7.15-7.15s7.15,3.2,7.15,7.15v7.15ZM429.07,400.46c0,3.95-3.2,7.15-7.15,7.15s-7.15-3.2-7.15-7.15v-7.15c0-3.95,3.2-7.15,7.15-7.15s7.15,3.2,7.15,7.15v7.15Z"/>
  <g>
    <path class="cls-7" d="M286.05,393.31v7.15c0,3.95-3.2,7.15-7.15,7.15s-7.15-3.2-7.15-7.15v-7.15c0-3.95,3.2-7.15,7.15-7.15s7.15,3.2,7.15,7.15Z"/>
    <path class="cls-7" d="M314.65,393.31v7.15c0,3.95-3.2,7.15-7.15,7.15s-7.15-3.2-7.15-7.15v-7.15c0-3.95,3.2-7.15,7.15-7.15s7.15,3.2,7.15,7.15Z"/>
    <path class="cls-7" d="M343.26,393.31v7.15c0,3.95-3.2,7.15-7.15,7.15s-7.15-3.2-7.15-7.15v-7.15c0-3.95,3.2-7.15,7.15-7.15s7.15,3.2,7.15,7.15Z"/>
    <path class="cls-7" d="M371.86,393.31v7.15c0,3.95-3.2,7.15-7.15,7.15s-7.15-3.2-7.15-7.15v-7.15c0-3.95,3.2-7.15,7.15-7.15s7.15,3.2,7.15,7.15Z"/>
    <path class="cls-7" d="M400.47,393.31v7.15c0,3.95-3.2,7.15-7.15,7.15s-7.15-3.2-7.15-7.15v-7.15c0-3.95,3.2-7.15,7.15-7.15s7.15,3.2,7.15,7.15Z"/>
    <path class="cls-7" d="M429.07,393.31v7.15c0,3.95-3.2,7.15-7.15,7.15s-7.15-3.2-7.15-7.15v-7.15c0-3.95,3.2-7.15,7.15-7.15s7.15,3.2,7.15,7.15Z"/>
    <path class="cls-7" d="M278.79,193.08h-132.19c-3.95,0-7.15,3.2-7.15,7.15s3.2,7.15,7.15,7.15h126.26c1.51-4.95,3.5-9.74,5.93-14.3Z"/>
    <path class="cls-7" d="M269.91,221.68h-123.3c-3.95,0-7.15,3.2-7.15,7.15s3.2,7.15,7.15,7.15h122.94c-.1-1.69-.18-3.38-.18-5.08,0-3.08.19-6.16.54-9.23Z"/>
    <path class="cls-7" d="M146.6,250.29c-3.95,0-7.15,3.2-7.15,7.15s3.2,7.15,7.15,7.15h130.17c-2.12-4.6-3.8-9.39-5.02-14.3h-125.14Z"/>
    <path class="cls-7" d="M146.6,278.89c-3.95,0-7.15,3.2-7.15,7.15s3.2,7.15,7.15,7.15h149.07c-.74-1.62-1.49-3.23-2.25-4.83-2.97-2.94-5.72-6.11-8.2-9.47h-138.62Z"/>
    <path class="cls-7" d="M243.15,350.47c3.85-2.9,8.25-5,12.93-6.15-13.22-30.88-48.96-45.2-79.84-31.98-30.88,13.22-45.2,48.96-31.98,79.84,13.22,30.88,48.96,45.2,79.84,31.98,1.85-.79,3.65-1.67,5.41-2.64-.44-2.24-.66-4.51-.67-6.79v-9.88c-20.21,15.79-49.4,12.21-65.2-8-15.79-20.21-12.21-49.4,8-65.2,20.21-15.79,49.4-12.21,65.2,8,2.58,3.31,4.71,6.95,6.31,10.82Z"/>
    <path class="cls-7" d="M357.56,203.81c-.01,3.94-3.21,7.14-7.15,7.15-11.84,0-21.44,9.61-21.45,21.45,0,3.95-3.2,7.15-7.15,7.15s-7.15-3.2-7.15-7.15c.03-19.73,16.02-35.72,35.76-35.76,3.94.01,7.14,3.21,7.15,7.15Z"/>
  </g>
  <path class="cls-3" d="M254.19,450.52h-2.93c-.27-.92-.48-1.87-.61-2.82-2.64-1.15-5.14-2.6-7.44-4.33H103.7c-3.94-.01-7.14-3.21-7.15-7.15v-7.15c.01,3.94,3.21,7.14,7.15,7.15h139.52c2.3,1.73,4.8,3.18,7.44,4.33.55,3.52,1.75,6.9,3.54,9.98Z"/>
  <path class="cls-4" d="M375.44,21.45v7.15c-.01-3.94-3.21-7.14-7.15-7.15H103.7c-3.94.01-7.14,3.21-7.15,7.15v-7.15c.01-3.94,3.21-7.14,7.15-7.15h264.59c3.94.01,7.14,3.21,7.15,7.15Z"/>
  <path class="cls-5" d="M443.37,407.58v7.15c0,3.96-3.19,7.17-7.15,7.19h-171.63c-3.96-.02-7.16-3.23-7.15-7.19v-7.15c0,3.96,3.19,7.17,7.15,7.19h171.63c3.96-.02,7.16-3.23,7.15-7.19Z"/>
  <path class="cls-2" d="M228.84,397.71v7.15c-20.17,15.83-49.35,12.31-65.18-7.86-6.43-8.19-9.92-18.31-9.9-28.72-.01-1.19.05-2.39.18-3.58,1.92,25.55,24.19,44.7,49.74,42.78,9.17-.69,17.93-4.09,25.17-9.77Z"/>
</svg>