<svg xmlns="http://www.w3.org/2000/svg" width="38.168" height="34.711" viewBox="0 0 38.168 34.711">
  <g id="Group_166129" data-name="Group 166129" transform="translate(0.252 0.286)">
    <g id="Group_166052" data-name="Group 166052">
      <path id="Path_43269" data-name="Path 43269" d="M-10848.129-6774.586a9.229,9.229,0,0,1-.342,3.725c-.607,1.877-2.738,4.651-3.834,6.2s-4.754,6.5-5.242,8.605a46.336,46.336,0,0,0-.217,5.773c-.014,2.6,0,4.453,0,4.453" transform="translate(10860.317 6776.199)" fill="none" stroke="#72635a" stroke-linecap="round" stroke-width="0.5"/>
      <path id="Path_43270" data-name="Path 43270" d="M-10849.418-6747.3v-10.2a11.624,11.624,0,0,1,1.949-5.5c1.337-2.241,5.718-8.071,6.811-10.2s1.219-6.727,1.1-7.514" transform="translate(10854.156 6780.715)" fill="none" stroke="#72635a" stroke-linecap="round" stroke-width="0.5"/>
      <path id="Path_43271" data-name="Path 43271" d="M-10867.443-6672.266s5.1.041,6.037,0,4.67,1.7,6.938,1.83,23.809,0,23.809,0" transform="translate(10867.443 6698.448)" fill="none" stroke="#72635a" stroke-linecap="round" stroke-width="0.5"/>
      <path id="Path_43272" data-name="Path 43272" d="M-10863.719-6663.525h5.07a2.665,2.665,0,0,1,1.207.3c.742.339,6.051,1.831,7.57,1.787s20.76,0,20.76,0" transform="translate(10864.696 6691.516)" fill="none" stroke="#72635a" stroke-linecap="round" stroke-width="0.5"/>
      <path id="Path_43273" data-name="Path 43273" d="M-10845.6-6661.2a2.222,2.222,0,0,0-2.639.61c-1.139,1.347-.953,1.388-.953,2.61" transform="translate(10853.937 6689.847)" fill="none" stroke="#72635a" stroke-linecap="round" stroke-width="0.5"/>
      <path id="Path_43274" data-name="Path 43274" d="M-10863.721-6733.949h36.441" transform="translate(10864.698 6745.29)" fill="none" stroke="#72635a" stroke-linecap="round" stroke-width="0.5"/>
      <path id="Path_43275" data-name="Path 43275" d="M-10757-6767.3v30" transform="translate(10783.787 6770.829)" fill="none" stroke="#72635a" stroke-linecap="round" stroke-width="0.5"/>
      <path id="Path_43276" data-name="Path 43276" d="M-10731.771-6759.69v26.49" transform="translate(10764.297 6763.407)" fill="none" stroke="#72635a" stroke-linecap="round" stroke-width="0.5"/>
      <path id="Path_43277" data-name="Path 43277" d="M-10797.826-6733.948v15.782" transform="translate(10814.711 6745.713)" fill="none" stroke="#72635a" stroke-linecap="round" stroke-width="0.5"/>
      <path id="Path_43278" data-name="Path 43278" d="M-10787.927-6706.587h-9.9" transform="translate(10814.711 6724.566)" fill="none" stroke="#72635a" stroke-linecap="round" stroke-width="0.5"/>
      <path id="Path_43279" data-name="Path 43279" d="M-10788.836-6690.073h-9.315" transform="translate(10815.036 6712.058)" fill="none" stroke="#72635a" stroke-linecap="round" stroke-width="0.5"/>
      <path id="Path_43280" data-name="Path 43280" d="M-10831.043-6726.826h-4.348s-4.342,4.515-4.811,6.518-1.41,4.646-.211,5.622,6.471,1.665,6.471,1.665h2.9Z" transform="translate(10847.235 6739.216)" fill="none"/>
    </g>
    <g id="Group_166054" data-name="Group 166054" transform="translate(0.722 1.104)">
      <g id="Group_166051" data-name="Group 166051">
        <path id="Path_43269-2" data-name="Path 43269" d="M-10847.436-6774.586a8.307,8.307,0,0,1-.366,3.649c-.648,1.846-2.935,4.564-4.109,6.084s-5.1,6.38-5.614,8.442a40.156,40.156,0,0,0-.236,5.666c-.015,2.547,0,4.367,0,4.367" transform="translate(10860.498 6776.315)" fill="none"/>
        <path id="Path_43270-2" data-name="Path 43270" d="M-10849.418-6747.515v-10.137a10.968,10.968,0,0,1,2.091-5.459c1.433-2.229,6.125-8.021,7.3-10.139s1.31-6.685,1.175-7.466" transform="translate(10854.504 6780.715)" fill="none"/>
        <path id="Path_43271-2" data-name="Path 43271" d="M-10867.441-6672.266s5.055.044,5.989,0,4.637,1.827,6.89,1.964,23.623,0,23.623,0" transform="translate(10867.441 6698.165)" fill="none"/>
        <path id="Path_43272-2" data-name="Path 43272" d="M-10863.719-6663.525h5.006a2.411,2.411,0,0,1,1.193.321c.732.364,5.975,1.963,7.477,1.916s20.5,0,20.5,0" transform="translate(10864.771 6690.912)" fill="none"/>
        <path id="Path_43273-2" data-name="Path 43273" d="M-10844.705-6661.175a3.009,3.009,0,0,0-3.291.682c-1.414,1.509-1.186,1.555-1.186,2.924" transform="translate(10854.342 6689.385)" fill="none"/>
        <path id="Path_43274-2" data-name="Path 43274" d="M-10863.721-6733.949h36.143" transform="translate(10864.772 6745.221)" fill="none"/>
        <path id="Path_43275-2" data-name="Path 43275" d="M-10757-6767.3v29.537" transform="translate(10783.625 6771.084)" fill="none"/>
        <path id="Path_43276-2" data-name="Path 43276" d="M-10731.771-6759.69v25.775" transform="translate(10763.708 6763.675)" fill="none"/>
        <path id="Path_43277-2" data-name="Path 43277" d="M-10797.826-6733.948v19.319" transform="translate(10814.608 6743.338)" fill="none"/>
        <path id="Path_43278-2" data-name="Path 43278" d="M-10786.309-6706.587h-11.518" transform="translate(10813.578 6724.455)" fill="none"/>
        <path id="Path_43279-2" data-name="Path 43279" d="M-10786.542-6690.073h-11.609" transform="translate(10813.82 6711.923)" fill="none"/>
      </g>
      <g id="Group_166053" data-name="Group 166053" transform="translate(5.07 11.511)">
        <path id="Path_43281" data-name="Path 43281" d="M-10791.51-6726.826v4.2h8.047v-4.2Z" transform="translate(10803.46 6726.826)" fill="#918278"/>
        <path id="Path_43282" data-name="Path 43282" d="M-10783.951-6702.378H-10792v2.205h8.045Z" transform="translate(10803.946 6708.559)" fill="#918278"/>
        <path id="Path_43283" data-name="Path 43283" d="M-10792-6686.026v3.747s8.045.246,8.045,0v-3.747Z" transform="translate(10803.946 6696.721)" fill="#918278"/>
        <path id="Path_43284" data-name="Path 43284" d="M-10747.786-6727.635v14.563h-3.9v-14.562Z" transform="translate(10773.654 6727.635)" fill="#c0b0a5"/>
        <path id="Path_43280-2" data-name="Path 43280" d="M-10830.428-6726.826h-4.064s-3.674,5.393-4.635,7.418-2.2,3.981-.377,5.025a18.526,18.526,0,0,0,5.012,1.563h4.064Z" transform="translate(10840.438 6726.826)" fill="#7e7165"/>
      </g>
    </g>
  </g>
</svg>
