<svg width="47" height="43" viewBox="0 0 47 43" fill="none" xmlns="http://www.w3.org/2000/svg">
<path d="M46.4834 16.628C46.4833 15.4406 44.9754 14.9321 44.2562 15.8769C44.0216 16.1851 43.6566 16.366 43.2693 16.366H27.0936C25.2375 16.366 23.7328 17.8706 23.7328 19.7267V20.5547C23.7328 21.9535 24.8668 23.0875 26.2656 23.0875H27.8536C28.3754 23.0875 28.7985 23.5105 28.7985 24.0323C28.7985 24.4511 28.5228 24.8199 28.1212 24.9385L27.8622 25.015C27.307 25.1789 26.926 25.6888 26.926 26.2676V27.9768C26.926 29.9611 25.3174 31.5697 23.3331 31.5697H23.0714C20.9426 31.5697 19.2168 33.2955 19.2168 35.4243V38.4587C19.2168 39.458 20.0269 40.2681 21.0262 40.2681H22.7953C23.2415 40.2681 23.5447 40.7214 23.3742 41.1338C23.2037 41.5462 23.5069 41.9995 23.9531 41.9995H42.4846C44.6938 41.9995 46.4847 40.2085 46.4846 37.9992L46.4834 16.628Z" fill="#63C3A5"/>
<path d="M23.5717 16.0083V20.2496C23.5717 21.6842 24.7347 22.8472 26.1694 22.8472H27.6202C28.2536 22.8472 28.767 23.3607 28.767 23.994V24.21C28.767 24.7241 28.3503 25.1408 27.8363 25.1408C27.3222 25.1408 26.9055 25.5575 26.9055 26.0715V28.5756C26.9055 30.4727 25.3677 32.0105 23.4706 32.0105H23.1099C21.0136 32.0105 19.3142 33.7099 19.3142 35.8062V36.6009C19.3142 38.81 17.5233 40.6009 15.3142 40.6009H4.70898C2.49984 40.6009 0.708984 38.81 0.708984 36.6009V15.8339C0.708984 13.5128 2.67812 11.679 4.99337 11.844L10.7445 12.254C11.9494 12.3398 13.0873 11.6915 13.6278 10.6112C14.1338 9.59978 15.1677 8.96094 16.2987 8.96094H19.264C19.9561 8.96094 20.6365 9.14056 21.2385 9.48223L21.5462 9.65691C22.7982 10.3675 23.5717 11.696 23.5717 13.1356V16.0083Z" fill="#FFC941"/>
<path d="M4.5 1C2.29086 1 0.5 2.79086 0.5 5V7.99969C0.5 10.2088 2.29086 11.9997 4.5 11.9997H10.5025C11.6953 11.9997 12.811 11.41 13.4828 10.4243C14.1547 9.4387 15.2704 8.84897 16.4632 8.84897H19.3457C20.0536 8.84897 20.7488 9.03684 21.3604 9.39339L22.2373 9.90467C23.2436 10.4914 23.8625 11.5685 23.8625 12.7333C23.8625 14.5416 25.3284 16.0076 27.1367 16.0076H42.2874C43.7297 16.0076 45.0604 15.2311 45.7699 13.9754L45.9656 13.6291C46.3048 13.0287 46.4831 12.3509 46.4831 11.6613V6.5491C46.4831 4.33996 44.6922 2.5491 42.4831 2.5491H9.31832C8.89054 2.5491 8.54377 2.20232 8.54377 1.77455C8.54377 1.34678 8.19699 1 7.76922 1H4.5Z" fill="#E8DED3"/>
<path d="M46.4834 16.628C46.4833 15.4406 44.9754 14.9321 44.2562 15.8769V15.8769C44.0216 16.1851 43.6566 16.366 43.2693 16.366H27.0936C25.2375 16.366 23.7328 17.8706 23.7328 19.7267V20.5547C23.7328 21.9535 24.8668 23.0875 26.2656 23.0875H27.8536C28.3754 23.0875 28.7985 23.5105 28.7985 24.0324V24.0324C28.7985 24.4511 28.5228 24.8199 28.1212 24.9385L27.8622 25.015C27.307 25.1789 26.926 25.6888 26.926 26.2676V27.9768C26.926 29.9611 25.3174 31.5697 23.3331 31.5697H23.0714C20.9426 31.5697 19.2168 33.2955 19.2168 35.4243V38.4587C19.2168 39.458 20.0269 40.2681 21.0262 40.2681H22.7953C23.2415 40.2681 23.5447 40.7214 23.3742 41.1338V41.1338C23.2037 41.5462 23.5069 41.9995 23.9531 41.9995H42.4846C44.6938 41.9995 46.4847 40.2085 46.4846 37.9992L46.4834 16.628Z" stroke="#033726"/>
<path d="M23.5717 16.0083V20.2496C23.5717 21.6842 24.7347 22.8472 26.1694 22.8472H27.6202C28.2536 22.8472 28.767 23.3607 28.767 23.994V24.21C28.767 24.7241 28.3503 25.1408 27.8363 25.1408V25.1408C27.3222 25.1408 26.9055 25.5575 26.9055 26.0715V28.5756C26.9055 30.4727 25.3677 32.0105 23.4706 32.0105H23.1099C21.0136 32.0105 19.3142 33.7099 19.3142 35.8062V36.6009C19.3142 38.81 17.5233 40.6009 15.3142 40.6009H4.70898C2.49984 40.6009 0.708984 38.81 0.708984 36.6009V15.8339C0.708984 13.5128 2.67812 11.679 4.99337 11.844L10.7445 12.254C11.9494 12.3398 13.0873 11.6915 13.6278 10.6112V10.6112C14.1338 9.59978 15.1677 8.96094 16.2987 8.96094H19.264C19.9561 8.96094 20.6365 9.14056 21.2385 9.48223L21.5462 9.65691C22.7982 10.3675 23.5717 11.696 23.5717 13.1356V16.0083Z" stroke="#033726"/>
<path d="M4.5 1C2.29086 1 0.5 2.79086 0.5 5V7.99969C0.5 10.2088 2.29086 11.9997 4.5 11.9997H10.5025C11.6953 11.9997 12.811 11.41 13.4828 10.4243V10.4243C14.1547 9.4387 15.2704 8.84897 16.4632 8.84897H19.3457C20.0536 8.84897 20.7488 9.03684 21.3604 9.39339L22.2373 9.90467C23.2436 10.4914 23.8625 11.5685 23.8625 12.7333V12.7333C23.8625 14.5416 25.3284 16.0076 27.1367 16.0076H42.2874C43.7297 16.0076 45.0604 15.2311 45.7699 13.9754L45.9656 13.6291C46.3048 13.0287 46.4831 12.3509 46.4831 11.6613V6.5491C46.4831 4.33996 44.6922 2.5491 42.4831 2.5491H9.31832C8.89054 2.5491 8.54377 2.20232 8.54377 1.77455V1.77455C8.54377 1.34678 8.19699 1 7.76922 1H4.5Z" stroke="#033726"/>
<mask id="mask0_32_7283" style="mask-type:luminance" maskUnits="userSpaceOnUse" x="0" y="1" width="46" height="40">
<path d="M39.8603 1.94531H6.5C3.18629 1.94531 0.5 4.63161 0.5 7.94531V34.6906C0.5 38.0043 3.18628 40.6906 6.49999 40.6906H39.8603C43.174 40.6906 45.8603 38.0043 45.8603 34.6906V7.94531C45.8603 4.6316 43.174 1.94531 39.8603 1.94531Z" fill="white"/>
</mask>
<g mask="url(#mask0_32_7283)">
<mask id="mask1_32_7283" style="mask-type:luminance" maskUnits="userSpaceOnUse" x="0" y="1" width="46" height="40">
<path d="M39.8603 1.94531H6.5C3.18629 1.94531 0.5 4.63161 0.5 7.94531V34.6906C0.5 38.0043 3.18628 40.6906 6.49999 40.6906H39.8603C43.174 40.6906 45.8603 38.0043 45.8603 34.6906V7.94531C45.8603 4.6316 43.174 1.94531 39.8603 1.94531Z" fill="white"/>
</mask>
<g mask="url(#mask1_32_7283)">
<g style="mix-blend-mode:multiply">
<mask id="mask2_32_7283" style="mask-type:luminance" maskUnits="userSpaceOnUse" x="0" y="1" width="46" height="40">
<path d="M39.8603 1.94531H6.5C3.18629 1.94531 0.5 4.63161 0.5 7.94531V34.6906C0.5 38.0043 3.18628 40.6906 6.49999 40.6906H39.8603C43.174 40.6906 45.8603 38.0043 45.8603 34.6906V7.94531C45.8603 4.6316 43.174 1.94531 39.8603 1.94531Z" fill="white"/>
</mask>
<g mask="url(#mask2_32_7283)">
<path d="M31.2913 3.1634V2.22673C31.2913 2.07131 31.1653 1.94531 31.0099 1.94531C30.8545 1.94531 30.7285 2.07131 30.7285 2.22673V3.1634C30.7285 3.31882 30.8545 3.44481 31.0099 3.44481C31.1653 3.44481 31.2913 3.31882 31.2913 3.1634Z" fill="#D7D0D6"/>
<path d="M1.70883 26.3135L2.94176 25.0343C2.97954 24.9964 3.0009 24.9464 3.00162 24.8943V13.5799C2.99567 13.5145 2.96281 13.454 2.91015 13.4114C2.8575 13.3688 2.78926 13.3475 2.72021 13.3522H0.727686C0.601938 13.3522 0.5 13.4541 0.5 13.5799C0.5 13.7056 0.601939 13.8076 0.727686 13.8076H1.47173C2.0084 13.8076 2.44346 14.2426 2.44346 14.7793V24.5009C2.44346 24.7031 2.36483 24.8974 2.22421 25.0427L1.8994 25.3783C1.71464 25.5692 1.40002 25.5372 1.25751 25.313L0.992405 24.8959C0.849047 24.6704 0.5 24.772 0.5 25.0392C0.5 25.0899 0.514428 25.1395 0.541597 25.1823L0.844258 25.6591C0.923159 25.7833 0.833876 25.9458 0.686667 25.9458C0.583574 25.9458 0.5 26.0293 0.5 26.1324V26.1735C0.5 26.2992 0.601939 26.4011 0.727688 26.4011H1.48728C1.52853 26.4019 1.56951 26.3946 1.60764 26.3796C1.64577 26.3647 1.68022 26.3424 1.70883 26.3142" fill="#D7D0D6"/>
<path d="M17.7242 3.16379V2.22634C17.7242 2.07113 17.5983 1.94531 17.4431 1.94531C17.2879 1.94531 17.1621 2.07113 17.1621 2.22634V3.16379C17.1621 3.31899 17.2879 3.44481 17.4431 3.44481C17.5983 3.44481 17.7242 3.31899 17.7242 3.16379Z" fill="#D7D0D6"/>
<path d="M12.1011 3.16379V2.22634C12.1011 2.07113 11.9753 1.94531 11.8201 1.94531C11.6649 1.94531 11.5391 2.07113 11.5391 2.22634V3.16379C11.5391 3.31899 11.6649 3.44481 11.8201 3.44481C11.9753 3.44481 12.1011 3.31899 12.1011 3.16379Z" fill="#D7D0D6"/>
<path d="M23.3472 3.16379V2.22634C23.3472 2.07113 23.2214 1.94531 23.0662 1.94531C22.911 1.94531 22.7852 2.07113 22.7852 2.22634V3.16379C22.7852 3.31899 22.911 3.44481 23.0662 3.44481C23.2214 3.44481 23.3472 3.31899 23.3472 3.16379Z" fill="#D7D0D6"/>
<path d="M41.2105 3.16379V2.22634C41.2105 2.07113 41.0847 1.94531 40.9295 1.94531C40.7743 1.94531 40.6484 2.07113 40.6484 2.22634V3.16379C40.6484 3.31899 40.7743 3.44481 40.9295 3.44481C41.0847 3.44481 41.2105 3.31899 41.2105 3.16379Z" fill="#D7D0D6"/>
<path d="M8.19482 3.02524C8.09657 2.90289 8.05422 2.7449 8.07812 2.58982L8.09456 2.48311C8.13813 2.20036 7.91938 1.94531 7.63329 1.94531C7.40294 1.94531 7.20705 2.11336 7.172 2.34103L7.12406 2.65247C7.08841 2.88404 7.15181 3.11992 7.29874 3.30242L7.65983 3.75091C8.22113 4.44807 7.9696 5.48781 7.15171 5.85132C6.25033 6.25193 5.23504 5.59213 5.23504 4.60573V2.46345C5.23504 2.39439 5.27297 2.33091 5.33379 2.2982C5.50551 2.20584 5.43989 1.94531 5.24491 1.94531H5.03314C4.99419 1.94531 4.95583 1.9548 4.92136 1.97294C4.8869 1.99109 4.84854 2.00058 4.80959 2.00058H1.91846C1.904 2.00058 1.89341 1.98696 1.89696 1.97294C1.90051 1.95893 1.88991 1.94531 1.87545 1.94531H1.35953C1.34276 1.94531 1.32814 1.95669 1.32403 1.97294C1.31991 1.98919 1.30529 2.00058 1.28853 2.00058H0.728056C0.602104 2.00058 0.5 2.10268 0.5 2.22863C0.5 2.35458 0.602104 2.45669 0.728056 2.45669H0.883638C1.09552 2.45669 1.26728 2.62845 1.26728 2.84033V5.66742C1.26728 5.8793 1.09552 6.05106 0.883638 6.05106H0.727688C0.601939 6.05106 0.5 6.153 0.5 6.27875C0.5 6.4045 0.601939 6.50644 0.727688 6.50644H0.883638C1.09552 6.50644 1.26728 6.6782 1.26728 6.89008V7.79325C1.26728 8.00512 1.09552 8.17688 0.883638 8.17688H0.727688C0.601939 8.17688 0.5 8.27882 0.5 8.40457C0.5 8.53032 0.601939 8.63226 0.727688 8.63226H0.883638C1.09552 8.63226 1.26728 8.80402 1.26728 9.0159V9.84317C1.26728 10.0551 1.09552 10.2268 0.883638 10.2268H0.727688C0.601939 10.2268 0.5 10.3288 0.5 10.4545C0.5 10.5802 0.601939 10.6822 0.727688 10.6822H0.883638C1.09552 10.6822 1.26728 10.8539 1.26728 11.0658V11.5136C1.26728 11.7255 1.09552 11.8973 0.883638 11.8973H0.727688C0.601939 11.8973 0.5 11.9992 0.5 12.1249C0.5 12.2507 0.601939 12.3526 0.727688 12.3526H2.25378C3.22236 12.3526 4.00755 13.1378 4.00755 14.1064V24.563C4.00755 25.5849 3.73842 26.5888 3.22723 27.4737L2.28642 29.1023C2.11082 29.4063 1.82091 29.6273 1.48131 29.7162L0.672687 29.9278C0.570956 29.9545 0.5 30.0464 0.5 30.1515C0.5 30.3031 0.643329 30.4136 0.789906 30.3752L1.52559 30.1822C1.859 30.0947 2.21147 30.2256 2.40693 30.5095L2.82197 31.1123C3.48069 32.0691 3.11116 33.3889 2.0514 33.8644L0.640141 34.4978C0.554867 34.536 0.5 34.6208 0.5 34.7143C0.5 34.8864 0.67746 35.0012 0.834468 34.9308L3.34629 33.8034C3.93418 33.5395 4.62666 33.7334 4.992 34.2643L5.3156 34.7344C5.36201 34.8019 5.43864 34.8422 5.52051 34.8422C5.69818 34.8422 5.81857 35.023 5.74998 35.1869L5.4094 36.0008C5.2793 36.3117 4.97524 36.5141 4.63823 36.5141H0.727688C0.601939 36.5141 0.5 36.616 0.5 36.7418C0.5 36.8675 0.601939 36.9694 0.727688 36.9694H3.74929C4.34471 36.9694 4.74787 37.576 4.51733 38.125C4.38745 38.4343 4.08474 38.6355 3.74929 38.6355H0.727688C0.601939 38.6355 0.5 38.7374 0.5 38.8632C0.5 38.9889 0.601939 39.0908 0.727688 39.0908H4.70797H4.85668C5.0005 39.0908 5.13906 39.1449 5.24484 39.2424C5.62862 39.5959 5.37848 40.2367 4.85668 40.2367H0.728056C0.602104 40.2367 0.5 40.3388 0.5 40.4647C0.5 40.5907 0.602104 40.6928 0.728056 40.6928H45.6322C45.7582 40.6928 45.8603 40.5907 45.8603 40.4647C45.8603 40.3388 45.7582 40.2367 45.6322 40.2367H42.9053C42.5714 40.2367 42.3007 39.9659 42.3007 39.632C42.3007 39.2984 42.5708 39.0278 42.9044 39.0273L45.6326 39.0234C45.7584 39.0232 45.8603 38.9212 45.8603 38.7954C45.8603 38.6693 45.758 38.5671 45.6319 38.5673L43.1034 38.5715C42.6603 38.5722 42.3007 38.2132 42.3007 37.7701C42.3007 37.3275 42.6595 36.9687 43.1021 36.9687H45.6326C45.7584 36.9687 45.8603 36.8668 45.8603 36.741C45.8603 36.6153 45.7584 36.5133 45.6326 36.5133H43.1362C42.6748 36.5133 42.3007 36.1392 42.3007 35.6777C42.3007 35.2163 42.6748 34.8422 43.1362 34.8422H45.6326C45.7584 34.8422 45.8603 34.7402 45.8603 34.6145C45.8603 34.4887 45.7584 34.3868 45.6326 34.3868H42.6422C42.4536 34.3868 42.3007 34.2339 42.3007 34.0452C42.3007 33.8566 42.4536 33.7037 42.6422 33.7037H43.7221C44.5071 33.7037 45.1435 33.0673 45.1435 32.2823V31.1519C45.1435 30.9538 45.3042 30.7931 45.5023 30.7931H45.633C45.759 30.7931 45.8611 30.691 45.8611 30.5651C45.8611 30.4391 45.759 30.337 45.633 30.337H44.0809C43.0977 30.337 42.3007 29.54 42.3007 28.5568V26.695C42.3007 26.5398 42.1748 26.414 42.0196 26.414C41.8644 26.414 41.7386 26.5398 41.7386 26.695V28.3759C41.7386 29.4594 40.8602 30.3378 39.7767 30.3378H38.6397C37.5562 30.3378 36.6778 29.4594 36.6778 28.3759V26.6954C36.6778 26.54 36.5518 26.414 36.3964 26.414C36.241 26.414 36.115 26.54 36.115 26.6954V28.3759C36.115 29.4594 35.2367 30.3378 34.1531 30.3378H33.013C31.9295 30.3378 31.0511 29.4594 31.0511 28.3759V26.695C31.0511 26.5398 30.9253 26.414 30.7701 26.414C30.6149 26.414 30.4891 26.5398 30.4891 26.695V28.4367C30.4891 29.4866 29.638 30.3378 28.588 30.3378C27.5381 30.3378 26.6869 29.4866 26.6869 28.4367V28.3696C26.6869 27.2827 27.5681 26.4015 28.6551 26.4015H45.6326C45.7584 26.4015 45.8603 26.2995 45.8603 26.1738C45.8603 26.0481 45.7584 25.9461 45.6326 25.9461H44.4109C44.0951 25.9461 43.8391 25.6901 43.8391 25.3743C43.8391 25.0585 44.0951 24.8025 44.4109 24.8025H45.6319C45.758 24.8025 45.8603 24.7002 45.8603 24.5741C45.8603 24.4479 45.758 24.3457 45.6319 24.3457H44.6714C44.2117 24.3457 43.8391 23.973 43.8391 23.5134C43.8391 23.0537 44.2117 22.6811 44.6714 22.6811H45.6326C45.7584 22.6811 45.8603 22.5792 45.8603 22.4534C45.8603 22.3277 45.7584 22.2257 45.6326 22.2257H44.558C44.161 22.2257 43.8391 21.9039 43.8391 21.5068C43.8391 21.32 43.9118 21.1405 44.0419 21.0064L45.7879 19.2056C45.8343 19.1577 45.8603 19.0937 45.8603 19.027C45.8603 18.7966 45.5801 18.6831 45.4197 18.8485L44.8497 19.4364C44.4818 19.8158 43.8391 19.5554 43.8391 19.0269V16.8158C43.8391 16.5053 43.9365 16.2026 44.1175 15.9504L45.8108 13.591C45.843 13.5462 45.8603 13.4923 45.8603 13.4371C45.8603 13.1807 45.5315 13.0748 45.3819 13.2831L43.7439 15.5636C43.5245 15.8691 43.1715 16.0502 42.7954 16.0502H42.3905C41.3096 16.0502 40.4334 15.1739 40.4334 14.093V14.0452C40.4334 12.9379 41.331 12.0402 42.4384 12.0402H45.6326C45.7584 12.0402 45.8603 11.9383 45.8603 11.8125C45.8603 11.6868 45.7584 11.5848 45.6326 11.5848H27.4084C26.6932 11.5848 25.9838 11.457 25.3137 11.2073L19.9991 9.22731C19.6701 9.10473 19.3218 9.04195 18.9706 9.04195H15.2554C14.8638 9.04195 14.6024 8.63822 14.7626 8.28087C14.8497 8.08669 15.0426 7.96172 15.2554 7.96172H20.7374C21.3552 7.96172 21.9655 8.09606 22.5262 8.35543L24.9849 9.49289C24.9927 9.49649 24.9977 9.5043 24.9977 9.51288C24.9977 9.52504 25.0075 9.53491 25.0197 9.53491H25.0531C25.0611 9.53491 25.0691 9.53666 25.0764 9.54005L25.8509 9.89935C26.5803 10.2377 27.396 10.3439 28.1877 10.2036L30.035 9.87612C30.7065 9.7571 31.3933 9.75342 32.0661 9.86525L39.496 11.1004C39.7924 11.1496 40.0923 11.1744 40.3927 11.1744H45.4782C45.6892 11.1744 45.8603 11.0034 45.8603 10.7923C45.8603 10.5813 45.6892 10.4103 45.4782 10.4103H43.8165C42.6878 10.4103 41.7728 9.49528 41.7728 8.36655V7.6269C41.7728 6.49817 42.6878 5.58316 43.8165 5.58316H45.6322C45.7582 5.58316 45.8603 5.48106 45.8603 5.3551C45.8603 5.22915 45.7582 5.12705 45.6322 5.12705H45.5346C45.3547 5.12705 45.2088 4.98122 45.2088 4.80132V4.2377C45.2088 4.05781 45.3547 3.91198 45.5346 3.91198H45.6326C45.7584 3.91198 45.8603 3.81004 45.8603 3.68429C45.8603 3.55854 45.7584 3.4566 45.6326 3.4566H8.95803C8.69454 3.4566 8.44526 3.33708 8.28027 3.13164L8.19482 3.02524ZM42.3007 31.9316C42.3007 31.3029 42.8104 30.7931 43.4391 30.7931C44.0679 30.7931 44.5776 31.3029 44.5776 31.9316V32.1084C44.5776 32.7371 44.0679 33.2469 43.4391 33.2469C42.8104 33.2469 42.3007 32.7371 42.3007 32.1084V31.9316ZM5.23504 7.59896C5.23504 7.37057 5.36953 7.16361 5.57822 7.07085L7.50526 6.21426C8.43323 5.80177 9.5226 6.0652 10.1596 6.85611L10.8285 7.68678C10.8933 7.76713 10.9123 7.87502 10.8791 7.9727C10.8376 8.09478 10.7229 8.17688 10.594 8.17688H5.81297C5.49379 8.17688 5.23504 7.91814 5.23504 7.59896ZM5.23504 9.46491C5.23504 9.00505 5.60783 8.63226 6.06768 8.63226H9.49308C10.0633 8.63226 10.4648 9.19251 10.2816 9.73249C10.1669 10.0703 9.84982 10.2976 9.49309 10.2976H6.06768C5.60783 10.2976 5.23504 9.92476 5.23504 9.46491ZM5.2366 11.3274C5.23574 11.0108 5.49216 10.7537 5.80876 10.7537H9.04718C9.92839 10.7537 10.7116 10.1922 10.9947 9.35769L11.1788 8.81489C11.3517 8.30486 11.8304 7.96172 12.369 7.96172C13.2802 7.96172 13.8885 8.901 13.5159 9.7325L13.0668 10.7347C12.7497 11.4425 12.0464 11.898 11.2708 11.898H5.80876C5.49337 11.898 5.23745 11.6428 5.2366 11.3274ZM11.7549 14.2014C11.7549 15.222 10.9276 16.0494 9.90692 16.0494H6.41763C5.39699 16.0494 4.5696 15.222 4.5696 14.2014C4.5696 13.1808 5.39699 12.3534 6.41763 12.3534H9.90692C10.9276 12.3534 11.7549 13.1808 11.7549 14.2014ZM15.5198 20.5546C16.5464 20.5546 17.3785 21.3867 17.3785 22.4133V23.8499C17.3785 24.083 17.1895 24.272 16.9564 24.272H16.7624C16.6364 24.272 16.5343 24.3741 16.5343 24.5C16.5343 24.626 16.6364 24.7281 16.7624 24.7281H18.7051C19.0407 24.7281 19.3127 25.0001 19.3127 25.3356C19.3127 25.6712 19.0407 25.9432 18.7051 25.9432H17.4396C16.4051 25.9432 15.5665 25.1045 15.5665 24.0701V21.7725C15.5665 21.6171 15.4405 21.4911 15.285 21.4911C15.1296 21.4911 15.0036 21.6171 15.0036 21.7725V23.7186C15.0036 24.9488 14.0063 25.9461 12.7761 25.9461H9.80101C9.46547 25.9461 9.19347 25.6741 9.19347 25.3386C9.19347 25.003 9.46548 24.731 9.80101 24.731H13.1183C13.245 24.731 13.3478 24.6283 13.3478 24.5015C13.3478 24.3747 13.245 24.272 13.1183 24.272H12.9875C12.7885 24.272 12.6272 24.1107 12.6272 23.9117V22.4133C12.6272 21.3867 13.4593 20.5546 14.4859 20.5546H15.5198ZM15.1591 17.6149C15.1591 17.0022 15.6558 16.5055 16.2684 16.5055C16.8811 16.5055 17.3778 17.0022 17.3778 17.6149V18.9906C17.3778 19.6033 16.8811 20.0999 16.2684 20.0999C15.6558 20.0999 15.1591 19.6033 15.1591 18.9906V17.6149ZM26.1249 27.3318C26.1249 27.8455 25.7084 28.262 25.1946 28.262H20.8065C20.2928 28.262 19.8763 27.8455 19.8763 27.3318C19.8763 26.818 20.2928 26.4015 20.8065 26.4015H25.1946C25.7084 26.4015 26.1249 26.818 26.1249 27.3318ZM19.8763 25.3386C19.8763 25.003 20.1483 24.731 20.4838 24.731H25.5173C25.8529 24.731 26.1249 25.003 26.1249 25.3386C26.1249 25.6741 25.8529 25.9461 25.5173 25.9461H20.4838C20.1483 25.9461 19.8763 25.6741 19.8763 25.3386ZM25.3143 28.7167C25.762 28.7167 26.1249 29.0796 26.1249 29.5272C26.1249 29.9749 25.762 30.3378 25.3143 30.3378H16.377C15.9293 30.3378 15.5665 29.9749 15.5665 29.5272C15.5665 29.0796 15.9293 28.7167 16.377 28.7167H18.9962C19.171 28.7167 19.3127 28.8584 19.3127 29.0332V29.069C19.3127 29.224 19.4383 29.3496 19.5933 29.3496C19.7483 29.3496 19.8739 29.224 19.8739 29.069V29.0332C19.8739 28.8584 20.0156 28.7167 20.1904 28.7167H25.3143ZM15.5665 27.3318C15.5665 26.818 15.983 26.4015 16.4967 26.4015H18.3824C18.8962 26.4015 19.3127 26.818 19.3127 27.3318C19.3127 27.8455 18.8962 28.262 18.3824 28.262H16.4967C15.983 28.262 15.5665 27.8455 15.5665 27.3318ZM13.1923 27.3071C13.1923 26.807 13.5978 26.4015 14.098 26.4015C14.5982 26.4015 15.0036 26.807 15.0036 27.3071V27.3564C15.0036 27.8566 14.5982 28.262 14.098 28.262C13.5978 28.262 13.1923 27.8566 13.1923 27.3564V27.3071ZM15.0036 30.1528C15.0036 30.6529 14.5982 31.0584 14.098 31.0584C13.5978 31.0584 13.1923 30.6529 13.1923 30.1528V29.6231C13.1923 29.1229 13.5978 28.7174 14.098 28.7174C14.5982 28.7174 15.0036 29.1229 15.0036 29.6231V30.1528ZM5.94401 20.5546C6.70308 20.5546 7.31842 21.1699 7.31842 21.929V23.7558C7.31842 24.0409 7.08732 24.272 6.80224 24.272H6.51412C6.38816 24.272 6.28606 24.3741 6.28606 24.5C6.28606 24.626 6.38816 24.7281 6.51412 24.7281H8.02311C8.35864 24.7281 8.63065 25.0001 8.63065 25.3356C8.63065 25.6712 8.35864 25.9432 8.02311 25.9432H6.60012C5.47869 25.9432 4.5696 25.0341 4.5696 23.9126V21.929C4.5696 21.1699 5.18495 20.5546 5.94401 20.5546ZM4.5696 18.3027C4.5696 17.3102 5.37423 16.5055 6.36679 16.5055H7.17629C8.16885 16.5055 8.97347 17.3102 8.97347 18.3027C8.97347 19.2953 8.16884 20.0999 7.17629 20.0999H6.36679C5.37423 20.0999 4.5696 19.2953 4.5696 18.3027ZM7.88125 22.4133C7.88125 21.3867 8.71342 20.5546 9.73996 20.5546H10.2087C11.2353 20.5546 12.0675 21.3867 12.0675 22.4133C12.0675 23.4398 11.2353 24.272 10.2087 24.272H9.73996C8.71342 24.272 7.88125 23.4398 7.88125 22.4133ZM14.5978 18.3027C14.5978 19.2953 13.7932 20.0999 12.8007 20.0999H11.3343C10.3417 20.0999 9.53708 19.2953 9.53708 18.3027C9.53708 17.3102 10.3417 16.5055 11.3343 16.5055H12.8007C13.7932 16.5055 14.5978 17.3102 14.5978 18.3027ZM1.8301 3.87813C1.8301 3.09309 2.4665 2.45669 3.25155 2.45669C4.03659 2.45669 4.67299 3.09309 4.67299 3.87813V4.98506C4.67299 5.90285 3.81617 6.58007 2.9232 6.36806C2.28245 6.21593 1.8301 5.64361 1.8301 4.98506V3.87813ZM1.8301 7.47338C1.8301 7.01907 2.25429 6.68389 2.69628 6.78894L4.27872 7.16506C4.50984 7.21999 4.67299 7.42646 4.67299 7.66402C4.67299 7.94727 4.44337 8.17688 4.16013 8.17688H2.53361C2.14507 8.17688 1.8301 7.86192 1.8301 7.47338ZM1.8301 10.0541C1.8301 9.26884 2.46668 8.63226 3.25194 8.63226C4.03719 8.63226 4.67377 9.26884 4.67377 10.0541V10.4762C4.67377 11.2614 4.03719 11.898 3.25194 11.898C2.46668 11.898 1.8301 11.2614 1.8301 10.4762V10.0541ZM7.34826 38.6297C6.18463 38.6314 5.3952 37.4469 5.84463 36.3735L6.10197 35.7589C6.3345 35.2036 6.87771 34.8422 7.47977 34.8422C8.30472 34.8422 8.97347 35.5109 8.97347 36.3359V37.0022C8.97347 37.9001 8.24622 38.6284 7.34826 38.6297ZM7.29328 40.2344C7.14899 40.2344 7.00999 40.1802 6.9039 40.0824C6.51957 39.7281 6.76962 39.0863 7.29232 39.0854L10.4249 39.0802C10.5832 39.0799 10.7347 39.1447 10.8438 39.2594C11.1936 39.6269 10.9332 40.2344 10.4258 40.2344H7.29328ZM10.0062 38.6259C9.74722 38.6263 9.53708 38.4165 9.53708 38.1575V35.3105C9.53708 35.0518 9.74677 34.8422 10.0054 34.8422C10.2641 34.8422 10.4738 35.0518 10.4738 35.3105V38.1575C10.4738 38.4159 10.2646 38.6255 10.0062 38.6259ZM18.0441 36.9687C18.4978 36.9687 18.8657 37.3365 18.8657 37.7903C18.8657 38.2434 18.4987 38.611 18.0455 38.6118L11.8648 38.6223C11.4077 38.6231 11.0366 38.2527 11.0366 37.7955C11.0366 37.3389 11.4068 36.9687 11.8634 36.9687H18.0441ZM11.0363 34.8167C11.0365 33.8809 11.7952 33.1223 12.731 33.1223H12.9046C13.8406 33.1223 14.5994 33.8811 14.5994 34.8171C14.5994 35.7531 13.8406 36.5119 12.9046 36.5119H12.731C11.7949 36.5119 11.036 35.7528 11.0363 34.8167ZM15.1611 34.8167C15.1613 33.8809 15.92 33.1223 16.8558 33.1223H17.1717C18.1077 33.1223 18.8664 33.8811 18.8664 34.8171C18.8664 35.7531 18.1077 36.5119 17.1717 36.5119H16.8558C15.9197 36.5119 15.1608 35.7528 15.1611 34.8167ZM16.1215 39.6521C16.1219 39.9736 15.8614 40.2344 15.5399 40.2344H12.7344C12.5761 40.2344 12.4246 40.1696 12.3153 40.0551C11.9639 39.6868 12.2244 39.0769 12.7334 39.076L15.5389 39.0712C15.8602 39.0707 16.1211 39.3307 16.1215 39.6521ZM22.4957 39.6469C22.4963 39.9712 22.2336 40.2344 21.9092 40.2344H17.2662C16.9444 40.2344 16.6836 39.9736 16.6836 39.6519C16.6836 39.3305 16.9438 39.0698 17.2652 39.0693L21.9083 39.0616C22.2321 39.0611 22.495 39.3231 22.4957 39.6469ZM21.3178 38.609C20.2759 38.6114 19.43 37.7675 19.43 36.7256C19.43 35.6854 20.2733 34.8422 21.3135 34.8422H23.3298C24.1814 34.8422 24.8717 35.5325 24.8717 36.3841C24.8717 36.9268 24.5865 37.4295 24.1207 37.7078L23.206 38.2543C22.8207 38.4845 22.3804 38.6065 21.9316 38.6076L21.3178 38.609ZM26.807 39.6432C26.8077 39.9696 26.5433 40.2344 26.217 40.2344H23.6443C23.3197 40.2344 23.0565 39.9713 23.0565 39.6467C23.0565 39.3224 23.3191 39.0594 23.6433 39.0589L26.2159 39.0543C26.5417 39.0537 26.8064 39.3174 26.807 39.6432ZM33.6173 39.6387C33.6181 39.9675 33.3519 40.2344 33.0231 40.2344H27.9579C27.632 40.2344 27.3679 39.9703 27.3679 39.6445C27.3679 39.319 27.6315 39.055 27.9569 39.0545L33.0222 39.0461C33.3501 39.0456 33.6164 39.3108 33.6173 39.6387ZM41.7402 39.6303C41.741 39.9637 41.471 40.2344 41.1376 40.2344H34.7756C34.4458 40.2344 34.1786 39.9672 34.1786 39.6374C34.1786 39.3081 34.4452 39.041 34.7745 39.0404L41.1365 39.0293C41.4691 39.0287 41.7393 39.2977 41.7402 39.6303ZM41.7417 36.7095C41.7417 37.7395 40.9077 38.5751 39.8777 38.5769L38.2087 38.5798C37.1753 38.5817 36.3366 37.7444 36.3366 36.711C36.3366 35.6789 37.1733 34.8422 38.2054 34.8422H39.8743C40.9057 34.8422 41.7417 35.6782 41.7417 36.7095ZM39.4267 31.9491C39.4267 31.3107 39.9442 30.7931 40.5826 30.7931C41.2211 30.7931 41.7386 31.3107 41.7386 31.9491V33.2301C41.7386 33.8685 41.2211 34.386 40.5826 34.386C39.9442 34.386 39.4267 33.8685 39.4267 33.2301V31.9491ZM31.0536 32.0755C31.054 31.3672 31.6283 30.7931 32.3366 30.7931C33.0452 30.7931 33.6196 31.3676 33.6196 32.0762V35.232C33.6196 35.3874 33.7456 35.5134 33.901 35.5134C34.0564 35.5134 34.1824 35.3874 34.1824 35.232V33.1362C34.1824 31.8421 35.2315 30.7931 36.5255 30.7931H37.0721C38.0642 30.7931 38.8685 31.5974 38.8685 32.5896C38.8685 33.5817 38.0642 34.386 37.0721 34.386H35.3811C35.2553 34.386 35.1534 34.488 35.1534 34.6137C35.1534 34.7395 35.2553 34.8414 35.3811 34.8414H35.4643C35.6361 34.8414 35.7753 34.9806 35.7753 35.1524V35.7783C35.7753 36.2958 35.3558 36.7152 34.8384 36.7152H33.4138C32.1092 36.7152 31.0517 35.6572 31.0524 34.3525L31.0536 32.0755ZM35.0649 37.1713C35.4551 37.1713 35.7714 37.4877 35.7714 37.8778C35.7714 38.2676 35.4558 38.5837 35.0661 38.5843L25.3824 38.6007C24.8754 38.6016 24.6906 37.9333 25.126 37.6736C25.2033 37.6275 25.2916 37.6031 25.3816 37.6031H28.9317C29.0577 37.6031 29.1598 37.501 29.1598 37.3751C29.1598 37.2491 29.0577 37.147 28.9317 37.147H26.5831C25.9466 37.147 25.4307 36.6311 25.4307 35.9946C25.4307 35.3581 25.9466 34.8422 26.5831 34.8422H28.1151C28.2408 34.8422 28.3427 34.7402 28.3427 34.6145C28.3427 34.4887 28.2408 34.3868 28.1151 34.3868H20.9784C20.122 34.3868 19.4277 33.6925 19.4277 32.8361V31.5668C19.4277 31.4114 19.3017 31.2854 19.1463 31.2854C18.9909 31.2854 18.8649 31.4114 18.8649 31.5668V31.9758C18.8649 32.3571 18.5558 32.6662 18.1745 32.6662H11.3341C10.859 32.6662 10.4738 33.0514 10.4738 33.5265C10.4738 34.0016 10.0887 34.3868 9.61355 34.3868H7.35728C6.33139 34.3868 5.37121 33.8819 4.78973 33.0367L3.67645 31.4186C2.97683 30.4017 2.92396 29.0733 3.54056 28.004C4.11234 27.0124 5.16991 26.4015 6.31451 26.4015H11.6969C12.2107 26.4015 12.6272 26.818 12.6272 27.3318C12.6272 27.8455 12.2107 28.262 11.6969 28.262H8.80526C8.29494 28.262 7.88125 27.8484 7.88125 27.338V26.6954C7.88125 26.54 7.75526 26.414 7.59984 26.414C7.44442 26.414 7.31842 26.54 7.31842 26.6954V27.5657C7.31842 28.2018 7.83406 28.7174 8.47013 28.7174H11.2272C12.0004 28.7174 12.6272 29.3442 12.6272 30.1174C12.6272 30.8907 13.254 31.5175 14.0272 31.5175H16.6188C16.7456 31.5175 16.8484 31.4147 16.8484 31.2879C16.8484 31.1612 16.7456 31.0584 16.6188 31.0584H15.6991C15.6258 31.0584 15.5665 30.999 15.5665 30.9258C15.5665 30.8525 15.6258 30.7931 15.6991 30.7931H25.1883C25.7056 30.7931 26.1249 31.2124 26.1249 31.7297C26.1249 32.2469 25.7056 32.6662 25.1883 32.6662H22.1799C22.054 32.6662 21.9519 32.7683 21.9519 32.8943C21.9519 33.0202 22.054 33.1223 22.1799 33.1223H28.4677C29.5858 33.1223 30.4922 34.0287 30.4922 35.1468C30.4922 36.2649 31.3986 37.1713 32.5167 37.1713H35.0649ZM30.4922 31.7297C30.4922 32.2469 30.0729 32.6662 29.5557 32.6662H27.6242C27.107 32.6662 26.6877 32.2469 26.6877 31.7297C26.6877 31.2124 27.107 30.7931 27.6242 30.7931H29.5557C30.0729 30.7931 30.4922 31.2124 30.4922 31.7297ZM19.7985 24.272C18.772 24.272 17.9398 23.4398 17.9398 22.4133C17.9398 21.3867 18.772 20.5546 19.7985 20.5546H21.836C22.4792 20.5546 23.0006 21.076 23.0006 21.7192C23.0006 22.3623 23.522 22.8837 24.1652 22.8837H27.5864C27.9698 22.8837 28.2806 23.1945 28.2806 23.5779C28.2806 23.9612 27.9698 24.272 27.5864 24.272H19.7985ZM17.9398 18.2998C17.9398 17.3072 18.7444 16.5026 19.737 16.5026H21.2034C22.1959 16.5026 23.0006 17.3072 23.0006 18.2998C23.0006 19.2923 22.1959 20.097 21.2034 20.097H19.737C18.7444 20.097 17.9398 19.2923 17.9398 18.2998ZM34.2474 25.3386C34.2476 25.674 33.9757 25.9461 33.6402 25.9461H27.2941C26.9588 25.9461 26.6869 25.6743 26.6869 25.3389C26.6869 25.0036 26.9588 24.7318 27.2941 24.7318H33.6402C33.9754 24.7318 34.2471 25.0034 34.2474 25.3386ZM34.2477 22.4147C34.2477 23.4421 33.4149 24.2749 32.3876 24.2749H30.7036C29.6762 24.2749 28.8434 23.4421 28.8434 22.4147C28.8434 21.3874 29.6762 20.5546 30.7036 20.5546H32.3876C33.4149 20.5546 34.2477 21.3874 34.2477 22.4147ZM26.6869 18.3027C26.6869 17.3102 27.4915 16.5055 28.4841 16.5055H29.5758C30.5684 16.5055 31.373 17.3102 31.373 18.3027C31.373 19.2953 30.5684 20.0999 29.5758 20.0999H28.4841C27.4915 20.0999 26.6869 19.2953 26.6869 18.3027ZM34.247 18.9443C34.247 19.5825 33.7296 20.0999 33.0914 20.0999C32.4532 20.0999 31.9358 19.5825 31.9358 18.9443V17.6611C31.9358 17.0229 32.4532 16.5055 33.0914 16.5055C33.7296 16.5055 34.247 17.0229 34.247 17.6611V18.9443ZM40.4334 17.9266C40.4334 17.1418 41.0696 16.5055 41.8544 16.5055C42.6393 16.5055 43.2755 17.1418 43.2755 17.9266V19.0338C43.2755 19.9516 42.4186 20.6286 41.5257 20.4164C40.8854 20.2641 40.4334 19.692 40.4334 19.0338V17.9266ZM40.4334 21.5223C40.4334 21.068 40.8576 20.7328 41.2996 20.8379L42.8812 21.2139C43.1124 21.2688 43.2755 21.4753 43.2755 21.7129C43.2755 21.9961 43.0459 22.2257 42.7626 22.2257H41.1369C40.7483 22.2257 40.4334 21.9108 40.4334 21.5223ZM40.4334 24.1029C40.4334 23.3181 41.0696 22.6819 41.8544 22.6819C42.6393 22.6819 43.2755 23.3181 43.2755 24.1029V24.5258C43.2755 25.3106 42.6393 25.9469 41.8544 25.9469C41.0696 25.9469 40.4334 25.3106 40.4334 24.5258V24.1029ZM34.8098 14.0467C34.8098 12.9385 35.7081 12.0402 36.8162 12.0402H37.8641C38.9722 12.0402 39.8706 12.9385 39.8706 14.0467C39.8706 15.1548 38.9722 16.0531 37.8641 16.0531H36.8162C35.7081 16.0531 34.8098 15.1548 34.8098 14.0467ZM34.8098 17.6496C34.8098 17.0198 35.3204 16.5092 35.9502 16.5092C36.58 16.5092 37.0906 17.0198 37.0906 17.6496V17.8233C37.0906 18.4531 36.58 18.9637 35.9502 18.9637C35.3204 18.9637 34.8098 18.4531 34.8098 17.8233V17.6496ZM34.8102 19.7602C34.81 19.5723 34.9623 19.4198 35.1502 19.4198H36.2321C37.0166 19.4198 37.6527 18.7838 37.6527 17.9992V17.6149C37.6527 17.0022 38.1493 16.5055 38.762 16.5055C39.3747 16.5055 39.8713 17.0022 39.8713 17.6149V18.3027C39.8713 19.2953 39.0667 20.0999 38.0741 20.0999H35.1502C34.9626 20.0999 34.8104 19.9479 34.8102 19.7602ZM34.8098 21.3938C34.8098 20.9323 35.1839 20.5582 35.6454 20.5582H39.035C39.4964 20.5582 39.8706 20.9323 39.8706 21.3938C39.8706 21.8553 39.4964 22.2294 39.035 22.2294H35.6454C35.1839 22.2294 34.8098 21.8553 34.8098 21.3938ZM34.8098 23.4784C34.8098 23.0401 35.1651 22.6848 35.6034 22.6848H39.077C39.5153 22.6848 39.8706 23.0401 39.8706 23.4784C39.8706 23.9167 39.5153 24.272 39.077 24.272H35.6034C35.1651 24.272 34.8098 23.9167 34.8098 23.4784ZM34.8098 25.343C34.8098 25.0075 35.0818 24.7355 35.4173 24.7355H39.263C39.5986 24.7355 39.8706 25.0075 39.8706 25.343C39.8706 25.6785 39.5986 25.9505 39.263 25.9505H35.4173C35.0818 25.9505 34.8098 25.6785 34.8098 25.343ZM29.1854 13.1348C29.1854 12.5303 29.6755 12.0402 30.28 12.0402H33.1516C33.7561 12.0402 34.2462 12.5303 34.2462 13.1348C34.2462 13.7393 33.7561 14.2294 33.1516 14.2294H30.28C29.6755 14.2294 29.1854 13.7393 29.1854 13.1348ZM29.1854 15.3689C29.1854 14.9915 29.4914 14.6855 29.8689 14.6855H33.5628C33.9402 14.6855 34.2462 14.9915 34.2462 15.3689C34.2462 15.7464 33.9402 16.0524 33.5628 16.0524H29.8689C29.4914 16.0524 29.1854 15.7464 29.1854 15.3689ZM26.5445 13.0803C26.5433 12.5062 27.0083 12.0402 27.5824 12.0402C28.1556 12.0402 28.6203 12.5049 28.6203 13.0781V13.1917C28.6203 13.7648 28.1557 14.2294 27.5825 14.2294C27.0103 14.2294 26.546 13.7661 26.5448 13.1939L26.5445 13.0803ZM23.5604 12.801C23.5596 11.957 24.4013 11.3716 25.1923 11.6659C25.6661 11.8422 25.9803 12.2944 25.9803 12.7999V13.364C25.9803 14.0938 26.572 14.6855 27.3018 14.6855H27.9399C28.3174 14.6855 28.6234 14.9915 28.6234 15.3689C28.6234 15.7464 28.3174 16.0524 27.9399 16.0524H25.6087C24.4788 16.0524 23.5625 15.137 23.5615 14.0071L23.5604 12.801ZM23.5587 17.7934C23.5587 17.085 24.133 16.5107 24.8414 16.5107C25.5498 16.5107 26.1241 17.085 26.1241 17.7934V18.8224C26.1241 19.5308 25.5498 20.1051 24.8414 20.1051C24.133 20.1051 23.5587 19.5308 23.5587 18.8224V17.7934ZM23.5611 21.4971C23.5598 20.9798 23.9788 20.5597 24.4961 20.5597H27.3408C27.8572 20.5597 28.2759 20.9784 28.2759 21.4948C28.2759 22.0112 27.8572 22.4298 27.3408 22.4298H24.4961C23.9806 22.4298 23.5624 22.0126 23.5611 21.4971ZM20.849 11.5933C20.8489 10.8431 21.597 10.323 22.3002 10.5844C22.7217 10.7411 23.0013 11.1434 23.0013 11.5931V13.519C23.0013 14.9165 21.8685 16.0494 20.471 16.0494H18.333C18.1163 16.0494 17.9406 15.8738 17.9406 15.6571C17.9406 15.4404 18.1163 15.2647 18.333 15.2647H19.395C20.1983 15.2647 20.8495 14.6134 20.8493 13.8101L20.849 11.5933ZM19.1791 9.49733C19.3111 9.49733 19.4421 9.52094 19.5658 9.56705C19.9988 9.72849 20.2859 10.142 20.2859 10.6041V13.6355C20.2859 14.2834 19.7607 14.8086 19.1129 14.8086C18.465 14.8086 17.9398 14.2834 17.9398 13.6355V11.4834C17.9398 11.3282 17.814 11.2024 17.6588 11.2024C17.5036 11.2024 17.3778 11.3282 17.3778 11.4834V13.6259C17.3778 14.9644 16.2927 16.0494 14.9542 16.0494H14.1642C13.1436 16.0494 12.3162 15.222 12.3162 14.2014V12.7308C12.3162 12.5224 12.4852 12.3534 12.6937 12.3534C12.8424 12.3534 12.9773 12.266 13.0381 12.1303L13.5783 10.9253C13.9678 10.0565 14.8312 9.49733 15.7834 9.49733H19.1791ZM30.2738 8.31193C30.2738 8.73936 29.9671 9.1052 29.5463 9.17986L27.6812 9.51076C27.3169 9.5754 26.9414 9.52668 26.6056 9.37117L26.0722 9.12415C25.7583 8.97878 25.5574 8.66434 25.5574 8.3184C25.5574 7.828 25.9549 7.43045 26.4453 7.43045H29.3923C29.8791 7.43045 30.2738 7.82511 30.2738 8.31193ZM35.8978 7.4822C35.8976 8.65498 34.8447 9.54712 33.6878 9.35484L31.0684 8.91951C31.0513 8.91667 31.0339 8.91679 31.0168 8.91988C30.9242 8.93664 30.8389 8.86544 30.8389 8.77128V7.87488C30.8389 7.37793 30.4361 6.97508 29.9391 6.97508H26.2549C25.8705 6.97508 25.5589 6.66349 25.5589 6.27912C25.5589 5.89475 25.8705 5.58316 26.2549 5.58316H33.9991C35.0478 5.58316 35.898 6.43345 35.8978 7.4822ZM38.835 6.81851C38.8342 5.21391 40.1347 3.91271 41.7393 3.91271H44.0365C44.3718 3.91271 44.6437 4.18455 44.6437 4.51988C44.6437 4.85521 44.3718 5.12705 44.0365 5.12705H40.7197C40.5938 5.12705 40.4917 5.22915 40.4917 5.3551C40.4917 5.48106 40.5938 5.58316 40.7197 5.58316H40.8504C41.0486 5.58316 41.2092 5.74378 41.2092 5.94192V9.32776C41.2092 9.92562 40.7245 10.4103 40.1267 10.4103C40.0669 10.4103 40.0073 10.4053 39.9484 10.3955L39.9298 10.3924C39.2989 10.287 38.8364 9.74123 38.8361 9.10154L38.835 6.81851ZM34.5237 4.52144C34.5229 4.1855 34.7949 3.91271 35.1309 3.91271H36.3988C37.4326 3.91271 38.2707 4.75078 38.2707 5.78458V9.04785C38.2707 9.6076 37.7682 10.0334 37.216 9.94161C36.779 9.86893 36.4586 9.49087 36.4586 9.04785V6.00489C36.4586 5.77197 36.6474 5.58316 36.8804 5.58316H37.074C37.2 5.58316 37.3021 5.48106 37.3021 5.3551C37.3021 5.22915 37.2 5.12705 37.074 5.12705H35.1309C34.7962 5.12705 34.5246 4.85616 34.5237 4.52144ZM27.7131 4.52143C27.7122 4.1855 27.9843 3.91271 28.3202 3.91271H33.3522C33.6875 3.91271 33.9593 4.18455 33.9593 4.51988C33.9593 4.85521 33.6875 5.12705 33.3522 5.12705H28.3202C27.9855 5.12705 27.7139 4.85616 27.7131 4.52143ZM19.591 4.52143C19.5901 4.1855 19.8622 3.91271 20.1981 3.91271H26.5415C26.8768 3.91271 27.1487 4.18455 27.1487 4.51988C27.1487 4.85521 26.8768 5.12705 26.5415 5.12705H20.1981C19.8634 5.12705 19.5918 4.85616 19.591 4.52143ZM19.5906 6.39413C19.5899 5.94684 19.9524 5.5839 20.3996 5.5839H23.8085C24.4631 5.5839 24.9938 6.11455 24.9938 6.76915C24.9938 7.63497 24.0956 8.20861 23.3101 7.84452L22.3028 7.37766C22.0532 7.26196 21.7814 7.20203 21.5062 7.20203H20.3996C19.9533 7.20203 19.5912 6.84051 19.5906 6.39413ZM13.9689 4.51951C13.9689 4.18398 14.2409 3.91198 14.5765 3.91198H18.4214C18.7569 3.91198 19.0289 4.18398 19.0289 4.51951C19.0289 4.85504 18.7569 5.12705 18.4214 5.12705H14.5765C14.2409 5.12705 13.9689 4.85504 13.9689 4.51951ZM13.9689 6.3937C13.9689 5.94605 14.3318 5.58316 14.7795 5.58316H18.2184C18.666 5.58316 19.0289 5.94605 19.0289 6.3937C19.0289 6.84135 18.666 7.20424 18.2184 7.20424H14.7795C14.3318 7.20424 13.9689 6.84135 13.9689 6.3937ZM11.9483 3.91198C12.7526 3.91198 13.4046 4.56396 13.4046 5.36823V5.95108C13.4046 6.64196 12.8445 7.20203 12.1536 7.20203C11.7747 7.20203 11.4163 7.03032 11.1788 6.7351L10.8135 6.28093C10.0471 5.32804 10.7254 3.91198 11.9483 3.91198Z" fill="#D7D0D6"/>
<path d="M34.5941 3.1634V2.22673C34.5941 2.07131 34.4681 1.94531 34.3127 1.94531C34.1572 1.94531 34.0312 2.07131 34.0312 2.22673V3.1634C34.0312 3.31882 34.1572 3.44481 34.3127 3.44481C34.4681 3.44481 34.5941 3.31882 34.5941 3.1634Z" fill="#D7D0D6"/>
<path d="M28.9703 3.16379V2.22634C28.9703 2.07113 28.8444 1.94531 28.6892 1.94531C28.534 1.94531 28.4082 2.07113 28.4082 2.22634V3.16379C28.4082 3.31899 28.534 3.44481 28.6892 3.44481C28.8444 3.44481 28.9703 3.31899 28.9703 3.16379Z" fill="#D7D0D6"/>
</g>
</g>
</g>
</g>
</svg>
