<?xml version="1.0" encoding="UTF-8"?>
<svg id="Layer_1" data-name="Layer 1" xmlns="http://www.w3.org/2000/svg" viewBox="0 0 436.73 449.2">
  <defs>
    <style>
      .cls-1 {
        fill: #65c3a5;
      }

      .cls-2 {
        fill: #e9f3e8;
      }

      .cls-3 {
        fill: #033726;
      }

      .cls-4 {
        fill: #ffc941;
      }
    </style>
  </defs>
  <g id="multi_parcel_auction-land-seperate-star-auction-reserve" data-name="multi parcel auction-land-seperate-star-auction-reserve">
    <path class="cls-2" d="M347.34,283.53l-115.7,2.84v147.74H8.39v-228.18h204.28v-108.15h-72.82l.15-90.15,289.28-1.93v228.03l-80.52,1.93-1.42,47.88Z"/>
    <polygon class="cls-1" points="345.29 170.82 347.34 283.53 231.64 286.37 231.64 438.29 402.61 438.29 430.09 437.69 426.63 170.82 345.29 170.82"/>
    <polygon class="cls-4" points="139.84 97.77 139.99 7.62 139.99 7.39 7.49 7.39 7.49 178.44 8.09 205.92 212.67 205.92 212.67 97.77 139.84 97.77"/>
    <g>
      <path class="cls-3" d="M212.68,90.38h-65.33l.13-82.91c0-4.13-3.34-7.47-7.47-7.47H7.47C3.34,0,0,3.34,0,7.47v171.13l.61,27.49c.09,4.06,3.41,7.3,7.47,7.3h204.59c4.13,0,7.47-3.34,7.47-7.47v-108.06c0-4.13-3.34-7.47-7.47-7.47ZM205.21,198.48H15.41l-.44-20.09V14.89h117.55l-.13,82.91c0,4.13,3.34,7.47,7.47,7.47h65.35v93.21Z"/>
      <path class="cls-3" d="M426.64,165.06h-81.37c-4.04,0-7.35,3.21-7.47,7.25l-1.19,107.43-108.65,2.63c-4.05.1-7.29,3.41-7.29,7.47v151.9c0,4.13,3.34,7.47,7.47,7.47h171.17l27.48-.61c4.06-.09,7.31-3.4,7.31-7.47V172.53c0-4.13-3.34-7.47-7.47-7.47ZM419.17,433.82l-20.09.44h-163.46v-137.14l108.44-2.62c3.97-.09,7.18-3.28,7.29-7.25l1.19-107.25h66.64v253.82Z"/>
      <path class="cls-3" d="M15.89,226.84H.96v207.27c0,4.13,3.34,7.47,7.47,7.47h200.26v-14.94H15.89v-199.8Z"/>
      <path class="cls-3" d="M421.79,89.83h14.94V7.61c0-4.13-3.34-7.47-7.47-7.47H163.17v14.94h258.62v74.75Z"/>
      <path class="cls-3" d="M30.13,310.4h14.94v14.94h-14.94v-14.94Z"/>
      <path class="cls-3" d="M89.88,310.4h14.94v14.94h-14.94v-14.94Z"/>
      <path class="cls-3" d="M60.01,310.4h14.94v14.94h-14.94v-14.94Z"/>
      <path class="cls-3" d="M119.76,310.4h14.94v14.94h-14.94v-14.94Z"/>
      <path class="cls-3" d="M149.64,310.4h14.94v14.94h-14.94v-14.94Z"/>
      <path class="cls-3" d="M179.51,310.4h14.94v14.94h-14.94v-14.94Z"/>
      <path class="cls-3" d="M264.94,179.46h14.94v14.94h-14.94v-14.94Z"/>
      <path class="cls-3" d="M264.94,209.34h14.94v14.94h-14.94v-14.94Z"/>
      <path class="cls-3" d="M264.94,239.21h14.94v14.94h-14.94v-14.94Z"/>
      <path class="cls-3" d="M264.94,149.58h14.94v14.94h-14.94v-14.94Z"/>
      <path class="cls-3" d="M264.94,89.83h14.94v14.94h-14.94v-14.94Z"/>
      <path class="cls-3" d="M264.94,30.08h14.94v14.94h-14.94v-14.94Z"/>
      <path class="cls-3" d="M264.94,59.95h14.94v14.94h-14.94v-14.94Z"/>
      <path class="cls-3" d="M264.94,119.71h14.94v14.94h-14.94v-14.94Z"/>
    </g>
  </g>
</svg>