<svg xmlns="http://www.w3.org/2000/svg" width="58.812" height="54.599" viewBox="0 0 58.812 54.599">
  <g id="Plots-Icon" transform="translate(0.5)">
    <g id="Group_184227" data-name="Group 184227">
      <path id="Path_81517" data-name="Path 81517" d="M29.952,22.5c.027-.146-.033-.211-.192-.18H10.02c-.148-.027-.258,0-.262.172a4.342,4.342,0,0,0-.179.6c-.361,2.435-.728,4.869-1.066,7.306-.343,2.471-.658,4.947-.983,7.421-.06.2.051.234.224.21,2.107.015,4.213.046,6.32.043q9.2-.01,18.406-.043c.168.021.287-.007.222-.21-.3-1.8-.578-3.6-.905-5.4-.6-3.311-1.229-6.617-1.845-9.926" transform="translate(6.061 16.024)" fill="#015e43" stroke="#032d20" stroke-width="1"/>
      <path id="Path_81518" data-name="Path 81518" d="M20.361,27.871a82.237,82.237,0,0,0,7.608-10.661,13.866,13.866,0,0,0,2.023-8.316A8.762,8.762,0,0,0,24.044.77a9.437,9.437,0,0,0-10.41,1.909C9.982,6.143,9.991,10.43,11.613,14.653c1.89,4.912,5.377,8.965,8.748,13.218m.07-23.853a3.447,3.447,0,0,1,3.451,3.7A3.515,3.515,0,1,1,16.863,7.5a3.431,3.431,0,0,1,3.568-3.481" transform="translate(8.528 0)" fill="#958374"/>
      <path id="Path_81519" data-name="Path 81519" d="M38.857,27.5a30.375,30.375,0,0,0-1.095-5.156l-.211-.022H21.436c-.137-.01-.287-.031-.222.184.782,5.129,1.745,10.228,2.751,15.319-.018.141.013.239.2.206q8.168,0,16.334,0c.186.034.226-.055.2-.206a1.373,1.373,0,0,0,.018-.32c-.607-3.338-1.163-6.684-1.85-10.007" transform="translate(17.099 16.026)" fill="#006c51" stroke="#032d20" stroke-width="1"/>
      <path id="Path_81520" data-name="Path 81520" d="M2.682,27.747c1.469-.067,2.943-.019,4.415-.019,1.546,0,3.095-.019,4.643.01.582.012.768-.182.826-.73.143-1.35.372-2.692.564-4.038.5-3.472.979-6.947,1.494-10.416.07-.466.112-.694-.533-.687-2.945.033-5.888.024-8.833.007-.464,0-.616.112-.683.581-.2,1.378-.5,2.744-.75,4.115C3.18,20.014,2.543,23.459,1.89,26.9c-.121.636.034.88.791.845" transform="translate(1.495 8.524)" fill="#015e43" stroke="#032d20" stroke-width="1"/>
      <path id="Path_81521" data-name="Path 81521" d="M26.323,26.921c.07.376.058.835.77.823,2.641-.043,5.283-.029,7.926-.007.573,0,.6-.234.52-.66Q34.186,19.8,32.859,12.523c-.072-.4-.164-.655-.683-.651-2.827.017-5.655.009-8.538.009.361,2.072.7,4.072,1.06,6.07.533,2.991,1.066,5.983,1.624,8.971" transform="translate(19.067 8.527)" fill="#28816a" stroke="#032d20" stroke-width="1"/>
      <path id="Path_81522" data-name="Path 81522" d="M9.558,27.744q13-.018,26-.014c.219,0,.578.151.54-.3q-1.19-6.7-2.381-13.4c-.125-.694-.045-1.7-.482-1.991-.538-.361-1.523-.074-2.3-.158a1.582,1.582,0,0,0-1.687.878A80.174,80.174,0,0,1,22.8,21.3c-.808.943-1.337.947-2.144.007a71.055,71.055,0,0,1-6.193-8.184,2.306,2.306,0,0,0-2.506-1.242c-.493.055-.759.046-.836.661-.3,2.342-.719,4.668-1.05,7.007-.343,2.407-.632,4.821-.945,7.234-.159.442-.623.967.428.966" transform="translate(7.171 8.511)" fill="#ffc83f" stroke="#032d20" stroke-width="1"/>
      <path id="Path_81523" data-name="Path 81523" d="M13.367,22.319l-10.216,0-.211.022c-.267.041-.2.251-.233.412-.356,1.931-.721,3.861-1.066,5.794Q.817,33.183.011,37.824c-.034.153.005.246.2.208H11.095c.192.04.213-.067.2-.206L13.553,22.5c.033-.149-.025-.213-.186-.182" transform="translate(0 16.024)" fill="#28816a" stroke="#032d20" stroke-width="1"/>
    </g>
  </g>
</svg>
