<svg xmlns="http://www.w3.org/2000/svg" xmlns:xlink="http://www.w3.org/1999/xlink" width="60" height="60" viewBox="0 0 60 60">
  <defs>
    <clipPath id="clip-path">
      <circle id="Ellipse_1639" data-name="Ellipse 1639" cx="30" cy="30" r="30" transform="translate(-14415 -15334)" fill="#fff" stroke="#707070" stroke-width="1"/>
    </clipPath>
    <clipPath id="clip-path-2">
      <rect id="Rectangle_155832" data-name="Rectangle 155832" width="73.291" height="49.932" fill="none"/>
    </clipPath>
  </defs>
  <g id="Plots_and_plans-Icon" data-name="Plots and plans-Icon" transform="translate(14415 15334)">
    <g id="Mask_Group_41122" data-name="Mask Group 41122" clip-path="url(#clip-path)">
      <g id="Group_184698" data-name="Group 184698" transform="translate(-14422 -15329)">
        <g id="Group_184697" data-name="Group 184697" clip-path="url(#clip-path-2)">
          <path id="Path_84100" data-name="Path 84100" d="M37.078,10.582l-.906-.218L26.753,6.49l-5.189,8.144,6.5,1.036,7.759,1.57,5.25,1.842a4.956,4.956,0,0,0,.219-.717c.847-3.485,1.091-8.613-4.218-7.783" transform="translate(22.247 8.72)" fill="#ffc941"/>
          <path id="Path_84101" data-name="Path 84101" d="M42.912,16.7c-.158-1.91-8.572-3.778-8.572-3.778l-5.252-1.842-.993,9.658,11.4,6.888-.372-5.21a14.973,14.973,0,0,0,.372-1.678c.089-1.277,3.462-3.452,3.413-4.038" transform="translate(28.985 14.881)" fill="#54a88e"/>
          <path id="Path_84102" data-name="Path 84102" d="M29.886,8.836c-1.7-.544-3.937-3.581-3.937-3.581-1.217-1.181-2.487-2.976-2.972-1.219l-.238,4.218a2.8,2.8,0,0,1-.865,1.591L16.3,12.759a1.97,1.97,0,0,1-1.27.356L3.807,12.34c-1.286-.089-1.276,1.27-1.276,2.77L2.3,16.115A2.486,2.486,0,0,0,3.751,18.26l5.018,1.933c.069.035,4.73,3.14,4.8,3.173l7.45,1.884a1.957,1.957,0,0,0,1.351.052l6.554-1.448c.2-.066,2.631-1.537,2.836-1.537l5.975.581c.768,0,1.115,1.608,1.524.851L40.4,22.077c.746-1.39,1.839-3.021.53-3.614,0,0-8.1-1.1-8.787-3.79-.215-.851-.532-1.277-.683-2.151L30.6,9.886c-.1-.581-.226-.891-.717-1.05" transform="translate(2.377 4.436)" fill="#bbb"/>
          <path id="Path_84103" data-name="Path 84103" d="M36.98,22.227l1.341-9.051L24.229,9.965,20.9,15.2l-1.42,7.914.547,5.151,2.446-1.172,1.861-5.559L26.32,17.4Z" transform="translate(20.1 13.389)" fill="#e8ded3"/>
          <path id="Path_84104" data-name="Path 84104" d="M28.413,21.193s1.9-8.521.967-9.166C26.156,9.8,17.129,14.106,15.2,14.495l-4.37,10.691,8.1,4.209,4.833-8.561Z" transform="translate(11.17 15.306)" fill="#eaaf71"/>
          <path id="Path_84105" data-name="Path 84105" d="M31.418,10.187v0" transform="translate(32.413 13.684)" fill="#033726"/>
          <path id="Path_84106" data-name="Path 84106" d="M71.421,45.617a7.787,7.787,0,0,1-2.558-4.764,12.735,12.735,0,0,1-.54-2.815v-.094a5.716,5.716,0,0,1,1.323-3.708A4.373,4.373,0,0,1,72.8,32.756c-.3-.654-.679-1.336-1-2.144a1.444,1.444,0,0,0-.368-.577,1.513,1.513,0,0,0-.624-.323c-1.668-.5-3.236-1.169-4.793-1.589a2.138,2.138,0,0,1-1.763-2.292,5.938,5.938,0,0,1,.057-.771,12.509,12.509,0,0,0,.112-1.6,5.081,5.081,0,0,0-.819-3.079,5.279,5.279,0,0,0-2.714-1.807,1.491,1.491,0,0,1-.614-.359,1.4,1.4,0,0,1-.362-.975l.037-.408c.211-1.39.358-2.824.561-4.282l.022-.286-.041-.253c-.006,0-.018-.049-.215-.091l-.1-.012-.087.033a1.131,1.131,0,0,0-.138.462c-.163,1.155-.309,2.322-.461,3.494a7.778,7.778,0,0,1-.246,1.28,1.865,1.865,0,0,1-.7,1.038,1.338,1.338,0,0,1-.756.22,4.213,4.213,0,0,1-1.426-.368c-.268-.105-.534-.223-.792-.354-1.312-.654-2.574-1.352-3.848-1.905a2.534,2.534,0,0,1-.662-.389,1.36,1.36,0,0,1-.473-1.034,1.653,1.653,0,0,1,.236-.82l.376-.525c3.031-3.691,6.028-7.427,9.031-11.16a1.375,1.375,0,0,0,.37-.813L60.392.616,60.052.443c-.142,0-.394.091-.7.471C58.014,2.562,56.661,4.162,55.4,5.821,52.3,9.866,48.843,13.347,46.6,17.858c-.579,1.158-1.207,2.236-1.761,3.318a2.533,2.533,0,0,1-.567.776,1.448,1.448,0,0,1-.973.37l-.5-.068c-1.514-.4-3.043-.734-4.579-1.029A4.618,4.618,0,0,1,35.447,19.6a7.573,7.573,0,0,1-1.412-3.082,3.528,3.528,0,0,1-.114-.79,1.384,1.384,0,0,1,.366-.982,1.075,1.075,0,0,1,.788-.307l.524.066c2.111.434,4.246.8,6.388,1.209l.339.035c.471-.021.731-.159,1.113-.712,1.209-1.873,2.448-3.7,3.663-5.54a1.425,1.425,0,0,0,.282-.7L47.3,8.645l-.26-.127-.154.075-.347.419c-1.058,1.619-2.133,3.2-3.135,4.816a2.46,2.46,0,0,1-.689.762,1.609,1.609,0,0,1-.937.286l-.477-.052c-1.961-.408-3.921-.783-5.888-1.1a2.143,2.143,0,0,1-1.093-.441,1.9,1.9,0,0,1-.591-1.474l.02-.375,0-.07-.02-.115-.12-.087-.165-.04-.266.129-.033.1c-.037.141-.067.408-.148.752a.906.906,0,0,1-.461.607.7.7,0,0,1-.695-.04C29.191,10.98,27.8,8.3,26.286,5.695a1.068,1.068,0,0,1-.014-1.019.762.762,0,0,1,.792-.429c1.41.232,2.578.41,3.755.621a7.182,7.182,0,0,1,1.073.246,1.616,1.616,0,0,1,.9.759,2.559,2.559,0,0,1,.246.773c.059.337.085.691.124,1.141a.9.9,0,0,0,.1.415c.01,0-.01.037.213.052h.02c.238-.009.226-.054.23-.049a.8.8,0,0,0,.071-.4l0-.506c0-.6-.016-1.223-.016-1.863l0-.492V4.905l-.028-.267-.008-.023-.041-.028-.238-.068c-2.239-.347-4.421-.844-6.575-1.048a5.39,5.39,0,0,1-2.438-.738A4.737,4.737,0,0,1,22.647.45C22.456.033,22.318.012,22.2,0l-.266.108-.187.319a1.648,1.648,0,0,0,.248.724c.811,1.465,1.648,2.915,2.493,4.364a3.549,3.549,0,0,1,.565,1.837l-.008.246c-.12,1.519-.232,3.03-.311,4.539a2.243,2.243,0,0,1-.343,1.139,2.041,2.041,0,0,1-.744.668c-1.243.7-2.471,1.371-3.627,2.135a5.135,5.135,0,0,1-2.938.884l-.512-.019c-3.72-.284-7.448-.5-11.178-.731-.2-.014-.356-.021-.475-.021l-.075,0c-.018.15-.037.377-.055.68-.053.853-.124,1.692-.2,2.7a.965.965,0,0,1-.368.708.7.7,0,0,1-.7.091c-.941-.4-1.761-.757-2.58-1.094l-.27-.061c-.161.007-.282.054-.492.3l-.171.5.059.4.221.335a2.839,2.839,0,0,0,.62.366c3.115,1.5,6.221,3.021,9.331,4.518,4.543,2.189,9.006,4.263,13.838,4.413a1.682,1.682,0,0,1,.557.1,1.1,1.1,0,0,1,.587.537l.136.591a1.733,1.733,0,0,1-.13.64l-.165.373c-1.2,2.578-2.393,5.165-3.592,7.753l-.183.427c.079.052.189.115.327.187,2.174,1.146,4.346,2.285,6.528,3.391a2.164,2.164,0,0,1,.616.436,1.488,1.488,0,0,1,.394,1.017,2.124,2.124,0,0,1-.337,1.085c-.5.848-.959,1.746-1.414,2.662l-.091.323.138.284.126.075.2-.087c.047-.016.14-.166.337-.567q3.051-5.8,6.111-11.61l.024-.059.075-.195a1.67,1.67,0,0,1,.433-.644,1.125,1.125,0,0,1,.62-.274h0l.13-.007a2.751,2.751,0,0,1,1.455.6,6.231,6.231,0,0,1,1.241,1.151,2.738,2.738,0,0,1,.557,1.024c.8,3.105,1.564,6.21,2.391,9.283a1.456,1.456,0,0,0,.325.654l.311.138.268-.061c.248-.134.325-.23.351-.675l-.083-.569c-.439-1.633-.88-3.26-1.355-4.865a2.837,2.837,0,0,1-.146-.8,1.43,1.43,0,0,1,.39-1,1.847,1.847,0,0,1,.691-.412,3.733,3.733,0,0,0,1.556-1.038,2.687,2.687,0,0,0,.634-1.643,14.714,14.714,0,0,1,1.6-5.219,2.36,2.36,0,0,1,.492-.783,1.209,1.209,0,0,1,.851-.366,2.009,2.009,0,0,1,.894.267C53.289,34.924,58.634,37.7,64.032,40.3a11.155,11.155,0,0,1,5.205,4.722c.888,1.575,2.009,3.049,3.1,4.612.193.265.3.293.392.3l.276-.1.244-.232.045-.115-.008-.035c-.337-.8-.583-1.612-.87-2.3a3.843,3.843,0,0,0-.991-1.535m-12.334-22.5c.1-.827.284-1.5.282-2.025a2.456,2.456,0,0,1,.288-1.244,1.164,1.164,0,0,1,1-.6,2.147,2.147,0,0,1,1.012.333,3.976,3.976,0,0,1,1.646,1.723,5.452,5.452,0,0,1,.516,2.437v.122a6.935,6.935,0,0,1-.167,1.948,1.45,1.45,0,0,1-.394.619,1.16,1.16,0,0,1-.8.288,5.728,5.728,0,0,1-1.428-.312,8.183,8.183,0,0,1-1.067-.356,1.6,1.6,0,0,1-.855-.867,2.267,2.267,0,0,1-.142-.839,11.194,11.194,0,0,1,.108-1.23M45.739,21.856c1-1.814,1.979-3.583,2.936-5.364l.416-.513a1.011,1.011,0,0,1,.622-.218,1.675,1.675,0,0,1,.784.27c1.589.78,3.194,1.542,4.791,2.351a5,5,0,0,0,2.176.722h.051a1.3,1.3,0,0,1,.965.366,1.545,1.545,0,0,1,.4,1.085l-.051.525c-.138.8-.26,1.612-.4,2.491a.938.938,0,0,1-.41.654.7.7,0,0,1-.7.035,13.19,13.19,0,0,0-2.934-.785,1.607,1.607,0,0,1-.329.888,1.157,1.157,0,0,1-.916.415,2.385,2.385,0,0,1-.514-.066L52.6,24.7l-.382-.1c-.295-.07-.538-.124-.766-.2a1.329,1.329,0,0,1-1-1.331,2.451,2.451,0,0,1,.156-.794c.079-.232.177-.471.295-.759l.11-.436-.148-.213-.207-.08-.1.042-.209.33-.041.087-.091.169c-.23.49-.41.879-.61,1.219a2.274,2.274,0,0,1-.811.884,1.559,1.559,0,0,1-.756.19,6.649,6.649,0,0,1-1.843-.45.856.856,0,0,1-.532-.567,1.059,1.059,0,0,1,.073-.837M33.584,19.177l.268.087.427.232.284.265a5.105,5.105,0,0,0,2.365,1.889,16.464,16.464,0,0,0,3.092.792c.784.155,1.55.337,2.351.513a.818.818,0,0,1,.538.431,1.076,1.076,0,0,1,.083.755,7.429,7.429,0,0,1-.973,1.91l-.431.5-.581.185a1.688,1.688,0,0,1-.721-.216,7.979,7.979,0,0,0-3.151-.619,10.956,10.956,0,0,0-1.688.138,3.888,3.888,0,0,1-.6.077,1.394,1.394,0,0,1-.928-.347,73.311,73.311,0,0,1-5.666-5.053,1.041,1.041,0,0,1-.228-.982A.841.841,0,0,1,28.7,19.1a15.073,15.073,0,0,1,1.928-.122,27.207,27.207,0,0,1,2.958.2M25.668,9.168a.92.92,0,0,1,.555-.813.731.731,0,0,1,.855.284,20.022,20.022,0,0,0,2.852,3.525,5.242,5.242,0,0,0,1.353,1.059,2.527,2.527,0,0,1,1.749,1.584,8.073,8.073,0,0,1,.376,1.919l.022.312a1.357,1.357,0,0,1-.345.949.975.975,0,0,1-.727.293l-.262-.019a12.69,12.69,0,0,0-1.751-.127,9.68,9.68,0,0,0-2.637.349l-.349.049a1.16,1.16,0,0,1-.892-.441,2.358,2.358,0,0,1-.331-.581,8.54,8.54,0,0,1-.774-3.089l-.008-.553c0-1.554.2-3.035.315-4.7M10.209,22.89a14.858,14.858,0,0,0-1.723-.152,4.91,4.91,0,0,1-1.93-.471A2.4,2.4,0,0,1,5.12,19.923l.026-.5c.037-.356.061-.642.1-.912a2.2,2.2,0,0,1,.286-.865l.528-.462a1.653,1.653,0,0,1,.683-.122c.209,0,.429.019.7.035,3.555.244,7.113.469,10.674.7h0l.079,0a1.4,1.4,0,0,0,.731-.23c1.349-.816,2.706-1.566,4.019-2.362a1.66,1.66,0,0,1,.831-.293l.5.148.392.441a1.871,1.871,0,0,1,.181.724l.1.349.033.159a2.062,2.062,0,0,0,.2.478,2.717,2.717,0,0,1,.36,1.219,1.71,1.71,0,0,1-.173.75,1.883,1.883,0,0,1-1.054.884,4.322,4.322,0,0,0-.675.3,12.106,12.106,0,0,1-7.082,2.25H16.42l-.3,0c-1.94,0-3.9.192-5.742.288Zm14.878,5.929a22.886,22.886,0,0,1-6.384-.907,11.535,11.535,0,0,1-4.98-2.709A1.045,1.045,0,0,1,13.5,24.2a.834.834,0,0,1,.711-.628c1.113-.073,2.21-.239,3.352-.239l.494.012.284.007a8.678,8.678,0,0,0,4.9-1.865,4.39,4.39,0,0,1,2.464-.935,3.779,3.779,0,0,1,2.855,1.633,31.849,31.849,0,0,0,3.553,3.19l.213.286.091.19a1.031,1.031,0,0,1-.278,1.256c-1.743,1.228-4.307,1.706-7.056,1.715M36.9,35.655a.735.735,0,0,1-.807.3,6.3,6.3,0,0,0-1.363-.328l-.2.115a9.523,9.523,0,0,0-.729,1.282c-1,1.926-2,3.843-2.964,5.775a2.617,2.617,0,0,1-.439.661,1.2,1.2,0,0,1-.855.38,1.685,1.685,0,0,1-.813-.248q-2.5-1.4-5.063-2.639a2.055,2.055,0,0,1-.672-.483,1.544,1.544,0,0,1-.372-1.019,2.545,2.545,0,0,1,.272-1.057c1.176-2.552,2.464-4.947,3.342-7.5a1.388,1.388,0,0,1,.652-.809,1.624,1.624,0,0,1,.5-.138,24.177,24.177,0,0,0,5.782-1.814,1.5,1.5,0,0,1,.612-.15,1.113,1.113,0,0,1,.87.448,2.368,2.368,0,0,1,.337.668c.646,1.816,1.323,3.628,2.042,5.587a1.057,1.057,0,0,1-.128.975m2.326-1.849a.838.838,0,0,1-.723.67.8.8,0,0,1-.784-.567c-.648-1.774-1.2-3.309-1.77-4.832a2.078,2.078,0,0,1-.146-.727,1.287,1.287,0,0,1,.5-1.045,1.221,1.221,0,0,1,.733-.211l.108,0h.014l.392.03h.014a14.24,14.24,0,0,1,1.414.178,1.566,1.566,0,0,1,1.412,1.652,9.054,9.054,0,0,1-.494,2.236c-.217.743-.4,1.547-.666,2.613m5.758-.8c-.14.354-.323.736-.544,1.212a6.914,6.914,0,0,0-.9,2.929l.012.286,0,.112,0,.112-.006.091a3.5,3.5,0,0,1-.719,1.708,2.019,2.019,0,0,1-1.481.912l-.331-.049a1.392,1.392,0,0,1-.776-.569,1.663,1.663,0,0,1-.246-.9c.014-.45.089-.719.075-.727h.014l-.075-.326a25.29,25.29,0,0,1,1.15-7.174,2.468,2.468,0,0,1,.333-.694,1.09,1.09,0,0,1,.868-.462,1.583,1.583,0,0,1,.691.187c.447.218.807.389,1.115.569a2.261,2.261,0,0,1,.829.75,1.708,1.708,0,0,1,.246.9A3.084,3.084,0,0,1,44.981,33m1.341-3.743a1.354,1.354,0,0,1-.782.258,2.225,2.225,0,0,1-1.174-.436c-.368-.244-.762-.562-1.252-.966a1.032,1.032,0,0,1-.213-1.27c.136-.246.276-.506.429-.771A8.377,8.377,0,0,1,44.3,24.61a1.779,1.779,0,0,1,1.351-.628,5.684,5.684,0,0,1,1.644.373,1.557,1.557,0,0,1,.514.265,1.257,1.257,0,0,1,.437.966,1.71,1.71,0,0,1-.183.738c-.116.239-.226.464-.325.68-.242.525-.443.956-.652,1.324a2.794,2.794,0,0,1-.766.935m10.333,5.519a.7.7,0,0,1-.707.04c-2.635-1.333-5.175-2.625-7.72-3.9l-.49-.342a1.341,1.341,0,0,1-.364-.928,1.621,1.621,0,0,1,.24-.827l0,0,.093-.178c.217-.431.427-1.052.691-1.671a3.53,3.53,0,0,1,1.258-1.7,1.829,1.829,0,0,1,.963-.248,13.847,13.847,0,0,1,2.462.567c1.178.223,2.328.483,3.464.659a1.45,1.45,0,0,1,1.339,1.566l-.039.464c-.28,1.854-.506,3.736-.784,5.826a.947.947,0,0,1-.4.675m5.577,2.13a1,1,0,0,1-.849.523,1.307,1.307,0,0,1-.593-.164q-1.21-.612-2.42-1.233a1.385,1.385,0,0,1-.559-.5,1.605,1.605,0,0,1-.23-.855l.028-.366c.284-1.969.532-3.951.768-5.939a3.094,3.094,0,0,1,.138-.652,1.344,1.344,0,0,1,.526-.705l.559-.159a1.685,1.685,0,0,1,.658.157,9.724,9.724,0,0,0,1.678.464,2.969,2.969,0,0,1,.563.185,1.421,1.421,0,0,1,.622.53,1.241,1.241,0,0,1,.132,1.16l.014,0c-.293,2.423-.569,4.6-.807,6.771a1.921,1.921,0,0,1-.23.778m5.494,1.615-.8.026.8-.026,0,.11a2.394,2.394,0,0,1-.071.626,1.174,1.174,0,0,1-.482.7l-.486.143a1.823,1.823,0,0,1-.729-.211,13.43,13.43,0,0,1-1.674-.827,2.392,2.392,0,0,1-1.05-1.266,3.544,3.544,0,0,1-.165-1.165c0-.562.067-1.186.152-2.013.163-1.58.38-3.124.534-4.65a2.087,2.087,0,0,1,.228-.832,1.061,1.061,0,0,1,.92-.569l.486.094c1.711.6,3.431,1.188,5.372,1.858a.914.914,0,0,1,.571.811.979.979,0,0,1-.433.919,6.194,6.194,0,0,0-2.442,2.51,7.529,7.529,0,0,0-.737,3.478Z" fill="#033726"/>
        </g>
      </g>
    </g>
    <circle id="Ellipse_1640" data-name="Ellipse 1640" cx="30" cy="30" r="30" transform="translate(-14415 -15334)" fill="#c0b0a5" style="mix-blend-mode: color-burn;isolation: isolate"/>
  </g>
</svg>
