<svg xmlns="http://www.w3.org/2000/svg" xmlns:xlink="http://www.w3.org/1999/xlink" width="60" height="60" viewBox="0 0 60 60">
  <defs>
    <clipPath id="clip-path">
      <circle id="Ellipse_1641" data-name="Ellipse 1641" cx="30" cy="30" r="30" transform="translate(-14597 -15167)" fill="#f3e9d8"/>
    </clipPath>
  </defs>
  <g id="POIs_-Icon" data-name="POIs -Icon" transform="translate(14597 15167)" clip-path="url(#clip-path)">
    <g id="Group_184714" data-name="Group 184714" transform="translate(-14603 -15162.981)">
      <rect id="Rectangle_155833" data-name="Rectangle 155833" width="81.12" height="64.738" transform="translate(2.149 -7.806)" fill="#f3e9d8" stroke="#000" stroke-width="1"/>
      <g id="Group_184713" data-name="Group 184713" transform="translate(0 0)">
        <g id="Group_184712" data-name="Group 184712">
          <path id="Path_84122" data-name="Path 84122" d="M28.277,64.7c.786-1.033,1.917-1.227,2.953-1.622,2.151-.82,2.158-.8,1.574-3.4-.4-1.755-.2-2.338,1.254-3.005a41.4,41.4,0,0,1,5.257-2.142c2.526-.762,3.646-2.647,3.84-5.551.134-2.006.429-4,.524-6a3.34,3.34,0,0,1,1.4-2.7c1.286-.97,2.582-1.928,3.915-2.809a2.827,2.827,0,0,0,1.133-3.282c-.4-1.882-.814-3.762-1.214-5.641a11.617,11.617,0,0,1-.3-2.364,6.049,6.049,0,0,0-3.039-4.555,1.855,1.855,0,0,0-1.592.306,9.808,9.808,0,0,0-2.589,2.035c-2.216,2.442-4.726,2.722-7.611,2.073-2.244-.505-3.829-2.015-5.4-3.649-1.632-1.692-3.189-3.487-4.74-5.283-.941-1.088-1.87-1.677-3.2-.817-.737.476-1.472.234-2.116-.528a37.566,37.566,0,0,1-4.473-7.182,1.605,1.605,0,0,1,.1-1.787c.816-1.186,1.613-2.393,2.466-3.542A4.017,4.017,0,0,0,17.33.915C20.821.9,24.316,1.028,27.8.837,31.674.626,35.554.851,39.425.62,43.856.352,48.29.632,52.715.387,56.722.164,60.729.3,64.734.185,65.643.159,66.551.078,67.46.006c.515-.04.79.133.765.82-.137,3.718-.243,7.442-.373,11.163-.072,2.012-.076,4.024-.183,6.039-.181,3.49-.144,6.995-.271,10.491q-.344,9.4-.6,18.8c-.111,4.027-.3,8.051-.387,12.079-.032,1.4-.206,2.806-.148,4.212.042,1-.429,1.085-1.1,1.083-4.7-.014-9.391,0-14.087,0L28.277,64.7" transform="translate(17.95 -7.805)" fill="#1c8150" stroke="#000" stroke-width="1"/>
          <path id="Path_84123" data-name="Path 84123" d="M13.389.041a35.154,35.154,0,0,1,.473,4.387c-.007,1.388-.371,1.821-1.539,1.888-.134.009-.269.006-.4.006-2.237.035-2.227.035-2.7,2.546a3.92,3.92,0,0,1-2,2.777c-2.682,1.452-3.65,3.709-3.263,7.132.294,2.6.422,5.25.64,7.88a9.774,9.774,0,0,1-.651,3.851c-1.34,4.2-1.031,4.956,2.675,6.036,2.723.794,5.484,1.417,8.193,2.26,2.584.805,3.064,1.637,3.3,4.766.072.964.216,1.922.359,2.875.114.774.44,1.287,1.217,1.209s.969.534,1,1.256A7.574,7.574,0,0,1,19.6,52.725c-1.119,2.228-.99,3.3.559,5.167a39.7,39.7,0,0,1,3.572,4.087A5.537,5.537,0,0,1,24.774,64.7c-7.438.006-14.875,0-22.313.038-.841.006-1.036-.294-1.08-1.244-.169-3.81-.079-7.623-.2-11.428-.2-6.33-.269-12.666-.413-19C.626,26.816.537,20.558.352,14.306.227,10.077.361,5.834.016,1.614-.067.592.162.176,1.142.214,5.226.364,9.3-.144,13.389.041" transform="translate(0 -7.806)" fill="#1c8150" stroke="#000" stroke-width="1"/>
          <path id="Path_84124" data-name="Path 84124" d="M15.754,13.054c.028-.009.067-.012.086-.032,1.483-1.722,1.486-1.731,3.692-.962,2.084.728,4.283.95,6.406,1.5,1.715.447,1.917.668,1.945,2.445a9.913,9.913,0,0,1-.246,3.092c-.32,1.048-.853,1.56-1.843,1.4a11.457,11.457,0,0,0-5.646.814c-1.773.612-2.923-.116-4.1-1.154-.515-.454-.649-1.043-.1-1.507.728-.619.577-1.249.269-1.968a2.949,2.949,0,0,1-.431-1.474c.647.809,1.3,1.608,1.933,2.427.246.322.408.561.848.192.373-.315.484-.5.141-.927-1.011-1.263-1.972-2.561-2.955-3.847" transform="translate(20.553 15.245)" fill="#63c3a5" stroke="#000" stroke-width="1"/>
          <path id="Path_84125" data-name="Path 84125" d="M20.528,14.828c-1.917,1.7-4.086,3.064-6.309,4.812.313-1.289.526-2.322.825-3.331.192-.654-.014-.807-.633-.786-.969.037-1.94.009-3.212.009,2.246-1.659,4.29-3.171,6.332-4.682a24.425,24.425,0,0,1,3,3.977" transform="translate(14.757 14.298)" fill="#ffc941" stroke="#000" stroke-width="1"/>
          <path id="Path_84126" data-name="Path 84126" d="M17.016,15.445a24.426,24.426,0,0,0-3-3.977c-.371-.5-.009-.709.35-.969.433-.315.528.086.691.292,1,1.27,1.986,2.549,2.978,3.829S19.983,17.2,21,18.468c.341.426.232.612-.144.925-.438.371-.6.13-.848-.19-.63-.82-1.286-1.62-1.933-2.427a3.69,3.69,0,0,0-1.055-1.33" transform="translate(18.269 13.68)" fill="#33322a" stroke="#000" stroke-width="1"/>
          <path id="Path_84127" data-name="Path 84127" d="M14.162,8.938c-.016.786-1.418,1.989-2.5,2.142-.591.083-1.574-.8-1.8-1.6A.492.492,0,0,1,9.9,9.045a12.094,12.094,0,0,1,1.8-2.3.551.551,0,0,1,.5-.146,3.153,3.153,0,0,1,1.956,2.341" transform="translate(12.96 8.678)" fill="#63c3a5" stroke="#000" stroke-width="1"/>
          <path id="Path_84128" data-name="Path 84128" d="M33.213,2.451a50.268,50.268,0,0,1,6,4.737c-.957,0-1.914.014-2.872-.007-.559-.012-.781.118-.593.744.294.987.5,2,.807,3.3C34.265,9.571,32.17,8.1,30.188,6.47a28.841,28.841,0,0,1,3.025-4.019" transform="translate(-0.487 7.229)" fill="#ffc941" stroke="#000" stroke-width="1"/>
          <path id="Path_84129" data-name="Path 84129" d="M35.578,3.054a28.841,28.841,0,0,0-3.025,4.019A42.566,42.566,0,0,0,29.612,10.8c-.315.4-.508.454-.929.13s-.331-.535-.07-.871q2.969-3.835,5.917-7.683c.209-.273.357-.556.788-.246.369.267.61.491.26.925" transform="translate(-2.853 6.626)" fill="#303325" stroke="#000" stroke-width="1"/>
        </g>
      </g>
    </g>
    <path id="Path_84136" data-name="Path 84136" d="M33.213,2.451a50.268,50.268,0,0,1,6,4.737c-.957,0-1.914.014-2.872-.007-.559-.012-.781.118-.593.744.294.987.5,2,.807,3.3C34.265,9.571,32.17,8.1,30.188,6.47a28.841,28.841,0,0,1,3.025-4.019" transform="translate(-14603.487 -15155.752)" fill="#ffc941"/>
    <path id="Path_84138" data-name="Path 84138" d="M36.186,2.451a50.269,50.269,0,0,0-6,4.738c.957,0,1.914.014,2.872-.007.559-.012.781.118.593.744-.294.987-.5,2-.807,3.3,2.288-1.65,4.383-3.12,6.365-4.752a28.843,28.843,0,0,0-3.025-4.019" transform="translate(-14606.885 -15139.808)" fill="#ffc941"/>
    <path id="Path_84137" data-name="Path 84137" d="M35.578,3.054a28.841,28.841,0,0,0-3.025,4.019A42.566,42.566,0,0,0,29.612,10.8c-.315.4-.508.454-.929.13s-.331-.535-.07-.871q2.969-3.835,5.917-7.683c.209-.273.357-.556.788-.246.369.267.61.491.26.925" transform="translate(-14605.853 -15156.355)" fill="#303325"/>
    <path id="Path_84139" data-name="Path 84139" d="M28.563,3.054a28.843,28.843,0,0,1,3.025,4.019A42.569,42.569,0,0,1,34.529,10.8c.315.4.508.454.929.13s.331-.535.07-.872q-2.969-3.835-5.917-7.684c-.209-.274-.357-.556-.788-.246-.369.267-.61.491-.26.925" transform="translate(-14599.262 -15140.411)" fill="#303325"/>
  </g>
</svg>
