<?xml version="1.0" encoding="UTF-8"?>
<svg id="Layer_1" data-name="Layer 1" xmlns="http://www.w3.org/2000/svg" viewBox="0 0 558.8 314">
  <defs>
    <style>
      .cls-1 {
        fill: #65c3a5;
      }

      .cls-2 {
        fill: #958374;
      }

      .cls-3 {
        fill: #becebc;
      }

      .cls-4 {
        fill: #b7a99a;
      }

      .cls-5 {
        fill: #e9f3e8;
      }

      .cls-6 {
        fill: #033726;
      }

      .cls-7 {
        fill: #083f2f;
      }

      .cls-8 {
        fill: #5a4227;
      }

      .cls-9 {
        fill: #8e5f33;
      }

      .cls-10 {
        fill: #ffc941;
      }
    </style>
  </defs>
  <g>
    <path class="cls-5" d="M46.13,128.49l58.97,16.45,34.02-30.58,22.95-12.19,42.64-3.64s23.1,1.27,25.74,1.5c2.64.23,35.13-49.95,36.65-53.93,1.52-3.98,10.6-30.1,10.6-30.1l12.28,1.63,3.06,58.71s11.23,59,11.23,61.05,12.23,65.86,12.16,70.26c-.07,4.41-33.85,67.49-33.85,67.49,0,0-42.57,13.02-64.59,10.97-22.01-2.06-118.56-4.11-121.35-4.11s-50.25-.69-50.51-4.11c-.25-3.43-8.48-124.71-8.48-124.71l8.48-24.7Z"/>
    <path class="cls-7" d="M379.3,310.95c-1.25-.04-2.5-.07-3.76-.11-1.91-36.2-3.81-72.41-5.73-108.61-.62-11.62-1.41-23.24-1.93-34.86-.13-2.83-1.16-3.64-3.86-3.54-4.95.18-9.91.23-14.85-.02-2.86-.15-3.97,1.03-4.77,3.57-2.53,8.04-5.66,15.87-9.2,23.53-3.36,7.26-7.6,13.71-14.45,18.33-6.67,4.51-13.68,8.37-20.65,12.35-9.83,5.61-20.18,7.61-31.31,5.56-3.16-.58-6.3-1.23-9.45-1.85-6.56-1.28-13-3.14-19.72-3.6-4.48-.31-7.72,1.36-9.89,5.36-1.86,3.44-3.5,6.95-4.34,10.76-.45,2.05-1.41,2.71-3.48,3.01-6.75.96-12.44.38-14.55-7.57-.81-3.05-3.07-3.72-6.17-3.68-23.55.37-47.11.3-70.65.95-6.33.17-10.86-1.09-13.61-6.97-1.1-2.36-2.99-2.96-5.58-2.83-23.25,1.17-46.51,2.24-69.77,3.27-1.79.08-2.96.77-4.04,2.12-6.61,8.25-13.27,16.46-19.94,24.66-1.15,1.41-1.65,2.98-1.92,4.75-2.06,13.49-4.18,26.96-6.26,40.45-.76,4.97-1.45,9.95-2.18,14.93-1.25-.04-2.5-.08-3.76-.12,2.94-19.31,5.87-38.62,8.81-57.92.53-3.44,3.39-5.35,5.33-7.84,1.52-1.96,2.51-3.87,2.72-6.45,2.25-27.47,4.62-54.93,6.99-82.39,1.43-16.53,2.96-33.05,4.34-49.59.24-2.86.79-5.42,3.69-6.53,3.05-1.16,5.1.9,6.94,2.86,1.73,1.85,3.18,3.96,4.79,5.93,2.5,3.05,5.23,5.6,9.42,6.3,3.82.63,4.96,4.18,6.5,7.1,2.99,5.66,3,5.7,6.64.54,4.57-6.47,7.72-13.76,11.85-20.49,1.83-2.98,3.51-6.1,7.12-7.28,1.71-.56,1.62-1.9,1.74-3.22,2.17-24.52,4.32-49.05,6.5-73.57.6-6.76-.44-5.86,6.6-6.12,7.98-.3,13.69,2.6,17.44,9.62,1.56,2.93,2.47,5.98,1.92,9.25-.42,2.54.32,4.14,2.75,4.99,4.52,1.59,7.12,5.03,8.82,9.3,1.63,4.1,3.13,8.26,4.86,12.31,2.56,5.98,6.66,9.57,13.72,8.53,3.76-.56,6.63.71,8.71,4.25,2.4,4.1,4.01,4.13,7.38,1.04,3.46-3.16,7-6.22,11.01-8.69,5.07-3.12,10.48-4.66,16.46-3.79.66.1,1.34.23,2,.17,9.67-.84,15.7,3.11,17.35,12.99.38,2.25,1.64,1.99,3.11.93,2.71-1.96,5.65-3.66,8.12-5.88,4.86-4.36,10.4-6.59,16.87-5.83,4.14.49,5.06-1.42,5.6-5.08,2.45-16.68,5.27-33.3,7.79-49.96.39-2.57,1.38-3.3,3.86-3.25,7.49.14,14.99.02,22.49.06,4.98.03,9.5,4.54,9.76,9.55,1.61,31.67,3.23,63.35,4.85,95.02.03.53.1,1.06.22,2.17,2.94-2.76,4.62-5.91,5.8-9.14,1.18-3.22,3.16-3.99,6.29-4.09,14.98-.49,29.96-1.06,44.93-1.88,3.8-.21,5.01.63,4.98,4.66-.13,18.6.22,37.21.1,55.81-.02,3.97.88,5.44,5.07,5.17,5.56-.36,5.5-.06,5.79,5.47,2.46,47.31,4.95,94.62,7.43,141.92.06,1.07.21,2.13.32,3.19ZM24.23,234.7c.42.19.85.38,1.27.57,3.29-4.14,6.64-8.23,9.85-12.43,1.32-1.72,2.79-2.57,5.03-2.66,22.46-.96,44.93-1.8,67.36-3.18,6.4-.39,11.18.64,14.01,6.83.79,1.74,2.11,2.88,4.39,2.84,15.92-.29,31.85-.48,47.78-.63,2.18-.02,3.05-.83,3.22-3.03.72-8.93,2.11-17.84,2.28-26.78.23-12.32,5.74-21.12,15.87-27.5,1.47-.93,2.96-1.84,4.35-2.88,4.72-3.57,8.02-7.42,7.47-14.29-1.17-14.66-1.34-29.4-2-44.1-.61-13.5-1.44-26.99-1.91-40.49-.12-3.38-1.42-3.97-4.5-4.37-8.97-1.16-16.21,1.96-22.75,7.74-6.8,6.02-12.98,12.83-20.97,17.4-13.85,7.91-23.6,19.61-30.82,33.51-2.15,4.14-4.76,6.01-9.37,5.35-5.46-.79-10.03.48-13.82,5.07-4.84,5.87-11.46,6.9-18.64,5.2-2.21-.52-4.41-1.21-6.66-1.46-8.28-.91-13.78-5.26-16.83-12.96-.75-1.88-1.87-3.53-4.17-3.95-4.49-.81-7.64-3.67-10.37-7.09-1.5-1.88-2.94-3.81-4.49-5.66-.77-.92-1.77-1.91-3.06-1.55-1.51.41-1.15,1.95-1.26,3.08-1.03,11.05-2.04,22.11-3.02,33.16-2.07,23.18-4.12,46.36-6.17,69.54-.73,8.24-1.41,16.48-2.11,24.72ZM357.06,129.4h-.12c0-9.1-.09-18.2.05-27.3.04-2.83-.87-3.69-3.68-3.54-12.03.64-24.06,1.45-36.09,1.46-5.97,0-10.07,1.21-12.28,7.28-1.27,3.48-3.94,6.34-6.69,8.94-1.87,1.77-3.92,3.71-6.43,3.88-5.99.42-8.92,4.26-11.27,8.99-3.48,7.01-9.08,11.37-16.52,13.62-12.59,3.8-25.4,6.55-38.52,7.54-4.14.31-7.57,1.49-10.22,4.67-6.46,7.73-13.66,14.57-22.09,20.23-5.24,3.52-8.71,8.69-9.32,15.29-1.01,10.92-1.94,21.85-3.02,32.77-.21,2.16.41,2.87,2.54,2.82,5.08-.14,10.24.37,15.24-.32,6.86-.95,11.3,1.18,13.26,7.9,1.16,3.98,4.17,3.56,7.35,3.56,3.25,0,2.94-2.48,3.72-4.29.58-1.35,1.04-2.75,1.65-4.09,4.39-9.63,7.99-11.63,18.6-10.44,7.74.87,15.17,3.24,22.81,4.56,8.52,1.48,17.02,2.41,25.24-1.33,10.62-4.84,20.83-10.37,30.11-17.53,2.91-2.25,5.24-4.92,7.05-8.12,4.64-8.19,7.91-16.96,11.12-25.76,3.54-9.71,3.54-9.84,13.81-9.88,3.14-.01,3.8-1.17,3.75-4.01-.15-8.96-.05-17.93-.05-26.9ZM211.04,153.19c3.77-2.51,6.29-5.95,10.64-6.22,6.28-.39,12.51-1.22,18.67-2.42,8.66-1.69,17.28-3.51,25.63-6.53,6.03-2.18,12.25-9.59,11.67-15.63-1.03-10.76-1.2-21.61-1.78-32.42-.33-6.14-.84-12.26-1.12-18.4-.12-2.64-1.28-3.06-3.6-2.52-3.8.89-6.5,2.68-7.57,6.75-1.71,6.46-3.77,12.81-6.76,18.85-1.8,3.64-4.51,5.6-8.48,5.67-5.08.09-10.17.06-15.24-.06-7.34-.17-12.32-3.82-15.04-10.59-1-2.48-2.05-4.94-2.89-7.48-1.51-4.57-2.81-9.21-4.34-13.77-.53-1.58-1.21-4-3.12-3.52-1.64.41-.77,2.82-.7,4.31.73,17.36,1.52,34.71,2.35,52.07.5,10.4,1.1,20.8,1.69,31.92ZM118.89,122.01c.85-1.16,1.21-1.55,1.45-2.01,7.98-15.09,18.6-27.69,33.63-36.26,2.54-1.45,5.05-3.05,7.04-5.28.7-.78,1.69-1.45.51-2.65-3.33-3.4-6.24-6.84-12.08-6.1-4.88.62-8.75-2.2-11.51-6.6-3.11-4.95-4.83-10.43-6.86-15.79-1.52-4.03-3.82-6.91-8.04-8.26-3.4-1.09-4.91-3.72-4.34-7.2,1.04-6.38-1.84-10.78-6.74-14.3-1.58-1.13-3.39-2.19-5.18-1.1-2.01,1.21-.96,3.35-.72,5.13,1.11,8.47,5.93,15.09,11.04,21.48,2.22,2.78,3.07,5.65,3.07,9.19.02,11.77-1.26,23.5-.89,35.28.21,6.69.21,13.39-.06,20.07-.18,4.49-1.08,8.95-.31,14.4ZM281.28,120.26c3.22-2.27,6.24-3.06,9.38-3.65,2.9-.54,4.42-2.03,4.2-5.57-1.14-18.94-1.97-37.9-2.94-56.86-.71-13.75-1.44-27.49-2.22-41.24-.25-4.3-2.99-5.76-8.98-6.16-4.37-.29-5.3,1.5-5.63,5.41-1.24,14.91-2.62,29.82-4.42,44.67-.51,4.23.45,6.35,4.52,6.99,2.53.4,3.29,1.7,3.38,4.31.37,11.09,1.02,22.16,1.6,33.24.32,6.09.71,12.18,1.1,18.86ZM114.59,86.88c.24,0,.48,0,.72,0,0-4.14-.1-8.29.04-12.42.09-2.85-1.23-3.75-3.87-3.71-5.3.09-8.06,2.18-9.29,7.47-1.05,4.55-1.85,9.15-2.99,13.67-.76,3.02-2.63,5.55-5.87,5.89-4.14.44-6.43,2.88-8.28,6.14-3.16,5.57-6.46,11.07-9.43,16.75-1.64,3.14-6.42,6.53-5.05,8.69,1.48,2.33,6.72,2.24,10.3,3.26,7.45,2.12,14.06,1.03,19.16-5.21,2.84-3.48,6.15-5.33,10.74-4.58,3.01.49,3.91-1.03,3.88-3.92-.12-10.67-.05-21.35-.05-32.03ZM267.09,65.65c-9.42-.45-18.68-.96-27.95-.22-5.8.46-9.33,4.88-13.57,7.95-8.45,6.14-8.31,6.26-3.41,15.92,1.89,3.72,4.59,6.14,8.82,6.71,5.98.8,11.99.47,17.98.25,2.21-.08,3.49-1.64,4.42-3.58,2.31-4.83,4.2-9.83,5.56-14.99,1.3-4.93,2.91-9.48,8.15-12.04ZM101.94,17.64c-.45.06-.89.12-1.33.18-2.16,24.52-4.31,49.04-6.47,73.56.38.04.75.09,1.13.13,2.24-5.04,2.23-10.64,3.72-15.88,1.45-5.1,4.32-7.67,9.59-8.2,1.33-.13,2.68-.24,4.01-.11,2.42.23,3.39-.73,3.36-3.17-.06-4.55.04-9.1.13-13.64.03-1.56-.48-2.85-1.43-4.05-6.67-8.47-13.08-17.06-12.69-28.81ZM259.84,61.18c2.53-.66,6.81,2.12,7.3-3.99,1.15-14.5,2.76-28.96,4.15-43.45.67-6.94.64-6.84-6.64-6.82-2.66,0-3.68.84-4.09,3.55-2.2,14.65-4.64,29.27-6.95,43.9-1.06,6.74-1.01,6.75,6.24,6.81Z"/>
    <path class="cls-1" d="M369.81,202.23c-.62-11.62-1.41-23.24-1.93-34.86-.13-2.83-1.16-3.64-3.86-3.54-4.94.18-9.91.23-14.85-.02-2.86-.15-3.97,1.03-4.77,3.57-2.53,8.04-5.66,15.87-9.2,23.53-3.36,7.26-7.6,13.71-14.45,18.33-6.67,4.51-13.68,8.37-20.65,12.35-9.83,5.61-20.19,7.61-31.31,5.56-3.16-.58-6.3-1.23-9.45-1.85-6.56-1.29-13-3.14-19.72-3.6-4.48-.31-7.72,1.36-9.89,5.36-1.86,3.44-3.5,6.95-4.34,10.76-.45,2.05-1.41,2.71-3.48,3.01-6.75.96-12.44.38-14.55-7.57-.81-3.05-3.07-3.73-6.17-3.68-23.55.37-47.11.3-70.65.95-6.33.17-10.86-1.09-13.61-6.97-1.1-2.36-2.99-2.96-5.58-2.83-23.25,1.17-46.51,2.24-69.77,3.27-1.79.08-2.96.77-4.04,2.12-6.61,8.24-13.27,16.46-19.94,24.66-1.15,1.41-1.65,2.98-1.92,4.75-2.06,13.49-4.18,26.96-6.26,40.45-.76,4.97-1.45,12.07-2.18,17.05l.38-2.03c.29.03.58,2.18.87,2.21,1.47-.02,2.94-.06,4.42-.06,119.14,0,238.28,0,357.42,0,1.74,0,3.47-.11,5.21-.17-1.91-36.2-3.81-74.53-5.73-110.74ZM84.41,271.35c-3.59-.12-7.2-.12-10.79,0-2.69.09-2.56-1.62-2.54-3.43.02-1.76-.24-3.6,2.49-3.47,2.13.1,4.26.02,6.39.02,1.47,0,2.94.12,4.39-.03,2.77-.28,4.08.41,4.05,3.63-.03,3.18-1.59,3.37-3.99,3.29ZM130.34,271.35c-3.47-.12-6.96-.16-10.43,0-2.92.14-2.77-1.67-2.8-3.65-.03-1.96.17-3.46,2.74-3.28,2,.14,4.01.03,6.02.02,1.47,0,2.95.06,4.41-.02,2.46-.13,4.29-.11,4.29,3.41,0,3.45-1.68,3.58-4.23,3.5ZM177.78,271.35c-2-.13-4.01-.03-6.02-.02-1.47,0-2.95-.1-4.41.03-2.71.24-4.11-.34-4.1-3.62,0-3.28,1.65-3.35,4.02-3.29,3.47.09,6.96.15,10.43,0,2.9-.13,2.77,1.64,2.8,3.63.03,1.96-.15,3.46-2.72,3.29ZM224.15,271.34c-2.13-.12-4.28-.02-6.42-.02-1.47,0-2.95-.12-4.41.03-2.8.29-4.05-.46-4.04-3.66,0-3.28,1.7-3.31,4.04-3.25,3.61.09,7.22.12,10.83,0,2.73-.09,2.55,1.66,2.54,3.45,0,1.78.19,3.6-2.54,3.46Z"/>
    <path class="cls-9" d="M7.64,311c.29.03.58.05.87.08-.29-.03-.58-.05-.87-.08Z"/>
    <path class="cls-4" d="M211.04,153.19c-.59-11.12-1.19-21.52-1.69-31.92-.83-17.35-1.62-34.71-2.35-52.07-.06-1.49-.94-3.9.7-4.31,1.91-.47,2.59,1.94,3.12,3.52,1.52,4.56,2.83,9.2,4.34,13.77.84,2.53,1.89,5,2.89,7.48,2.72,6.77,7.7,10.42,15.04,10.59,5.08.12,10.16.15,15.24.06,3.97-.07,6.68-2.03,8.48-5.67,2.99-6.04,5.05-12.39,6.76-18.85,1.08-4.08,3.77-5.86,7.57-6.75,2.32-.54,3.48-.12,3.6,2.52.28,6.14.79,12.26,1.12,18.4.58,10.81.75,21.66,1.78,32.42.58,6.03-5.65,13.45-11.67,15.63-8.35,3.01-16.97,4.84-25.63,6.53-6.17,1.2-12.4,2.04-18.67,2.42-4.35.27-6.87,3.71-10.64,6.22Z"/>
    <path class="cls-2" d="M118.89,122.01c-.77-5.45.13-9.91.31-14.4.27-6.68.27-13.39.06-20.07-.36-11.78.91-23.51.89-35.28,0-3.54-.85-6.41-3.07-9.19-5.11-6.39-9.93-13.01-11.04-21.48-.23-1.78-1.29-3.91.72-5.13,1.79-1.08,3.6-.03,5.18,1.1,4.9,3.52,7.78,7.92,6.74,14.3-.57,3.49.94,6.11,4.34,7.2,4.22,1.35,6.51,4.23,8.04,8.26,2.02,5.36,3.75,10.84,6.86,15.79,2.76,4.39,6.63,7.21,11.51,6.6,5.85-.74,8.76,2.7,12.08,6.1,1.18,1.2.19,1.87-.51,2.65-1.99,2.23-4.51,3.83-7.04,5.28-15.03,8.57-25.65,21.17-33.63,36.26-.24.45-.6.84-1.45,2.01Z"/>
    <path class="cls-10" d="M114.59,86.88c0,10.68-.07,21.35.05,32.03.03,2.89-.87,4.42-3.88,3.92-4.59-.75-7.9,1.11-10.74,4.58-5.09,6.24-11.71,7.33-19.16,5.21-3.58-1.02-8.83-.93-10.3-3.26-1.37-2.16,3.41-5.55,5.05-8.69,2.97-5.68,6.27-11.18,9.43-16.75,1.85-3.26,4.13-5.71,8.28-6.14,3.24-.34,5.11-2.87,5.87-5.89,1.14-4.52,1.94-9.13,2.99-13.67,1.23-5.29,3.99-7.39,9.29-7.47,2.65-.04,3.97.86,3.87,3.71-.14,4.14-.04,8.28-.04,12.42-.24,0-.48,0-.72,0Z"/>
    <path class="cls-2" d="M267.09,65.65c-5.24,2.56-6.86,7.11-8.15,12.04-1.36,5.16-3.25,10.16-5.56,14.99-.93,1.94-2.21,3.5-4.42,3.58-5.99.23-11.99.55-17.98-.25-4.22-.57-6.93-2.99-8.82-6.71-4.9-9.66-5.04-9.78,3.41-15.92,4.23-3.08,7.77-7.49,13.57-7.95,9.27-.74,18.54-.23,27.95.22Z"/>
    <path class="cls-10" d="M101.94,17.64c-.39,11.75,6.02,20.34,12.69,28.81.95,1.2,1.46,2.49,1.43,4.05-.09,4.55-.19,9.1-.13,13.64.03,2.44-.94,3.4-3.36,3.17-1.32-.12-2.68-.02-4.01.11-5.27.53-8.14,3.1-9.59,8.2-1.48,5.23-1.48,10.84-3.72,15.88-.38-.04-.75-.09-1.13-.13,2.16-24.52,4.31-49.04,6.47-73.56.45-.06.89-.12,1.33-.18Z"/>
    <path class="cls-4" d="M259.84,61.18c-7.25-.06-7.3-.07-6.24-6.81,2.31-14.64,4.75-29.25,6.95-43.9.41-2.71,1.43-3.54,4.09-3.55,7.29-.02,7.31-.12,6.64,6.82-1.4,14.48-3,28.95-4.15,43.45-.48,6.11-4.77,3.33-7.3,3.99Z"/>
    <path class="cls-4" d="M35.36,222.85c1.32-1.72,2.79-2.57,5.03-2.66,22.46-.96,44.93-1.8,67.36-3.18,6.4-.39,11.18.64,14.01,6.83.79,1.74,2.11,2.88,4.39,2.84,15.92-.29,31.85-.48,47.78-.63,2.18-.02,3.05-.83,3.22-3.03.72-8.93,2.11-17.84,2.28-26.78.23-12.32,5.74-21.12,15.87-27.5,1.47-.93,2.96-1.84,4.35-2.88,4.72-3.57,8.02-7.42,7.47-14.29-1.17-14.66-1.34-29.4-2-44.1-.61-13.5-1.44-26.99-1.91-40.49-.12-3.38-1.42-3.97-4.5-4.37-8.97-1.16-16.21,1.96-22.75,7.74-6.8,6.02-12.98,12.83-20.97,17.4-13.85,7.91-23.6,19.61-30.82,33.51-2.15,4.14-4.76,6.01-9.37,5.35-5.46-.78-10.03.48-13.82,5.07-4.84,5.87-11.46,6.9-18.64,5.2-2.21-.52-4.41-1.21-6.66-1.46-8.28-.91-13.78-5.26-16.83-12.96-.75-1.88-1.87-3.53-4.17-3.95-4.49-.81-7.64-3.67-10.37-7.09-1.5-1.88-2.94-3.82-4.49-5.66-.77-.92-1.77-1.91-3.06-1.55-1.51.41-1.15,1.95-1.26,3.08-1.03,11.05-2.04,22.11-3.02,33.16-2.07,23.18-4.12,46.36-6.17,69.54-.73,8.24-1.41,16.48-2.11,24.72.42.19.85.38,1.27.57,3.29-4.14,6.64-8.23,9.85-12.43ZM151.12,170.62c-3.32.11-3.92-1.23-4.03-4.21-.13-3.55,1.33-4.17,4.47-4.16,3.17.01,4.18.78,4.18,4.06.03,3.91-1.58,4.2-4.61,4.31ZM183.53,120.13c1.6-.1,2.25,2.18,2.56,3.59.46,2.08-1.45,1.42-2.46,1.44-1.06.02-2.93.59-2.83-1.13.09-1.55,1.05-3.8,2.72-3.9ZM178.45,111.96c1.71.04,2.64,2.31,2.78,3.86.15,1.72-1.7,1.14-2.75,1.09-.99-.05-2.85.69-2.53-1.32.23-1.43,1.05-3.67,2.5-3.63ZM173.73,120.08c1.78.02,2.66,2.31,2.79,3.89.15,1.75-1.71,1.21-2.78,1.19-1.02-.02-2.87.59-2.56-1.41.23-1.48,1.04-3.7,2.55-3.68ZM168.36,184.72c3.45-.09,4.19,1.2,4.22,4.39.03,3.33-.99,4.34-4.31,4.31-3.33-.03-4-.92-4.01-4.4,0-3.61.9-4.22,4.1-4.3ZM153.03,119.89c1.64-.06,2.39,2.38,2.67,3.92.35,1.94-1.55,1.32-2.56,1.35-1.05.02-2.9.56-2.72-1.23.16-1.59,1.07-3.99,2.61-4.04ZM147.97,112.05c1.82-.11,2.19,2.55,3.44,4.63h-6.2c.62-2.04,1.22-4.53,2.76-4.63ZM143.32,119.91c1.62-.1,2.36,2.36,2.72,3.86.48,2.02-1.47,1.32-2.45,1.39-1.06.07-2.9.54-2.77-1.17.12-1.58,1.01-3.99,2.5-4.08ZM135.06,184.91c3.88-.15,3.92,1.35,4.05,4.28.15,3.45-1.21,4.13-4.4,4.26-3.84.15-4.2-1.53-4.31-4.73-.13-3.77,1.61-3.69,4.66-3.81ZM117.71,162.25c2.92.13,4,.45,4,4.01,0,3.47-.7,4.4-4.04,4.35-2.99-.04-4.23-.71-4.21-4.01.02-3.23.8-4.5,4.24-4.36ZM101.32,184.74c3.98-.34,4.05,1.72,4.22,4.76.21,3.88-1.79,3.62-4.76,3.76-4.09.18-3.92-1.6-4.12-4.6-.26-3.92,1.91-3.68,4.66-3.92ZM84.07,162.26c3.06-.06,4.24.74,4.17,4.02-.07,3.17-.62,4.15-4.28,4.16-3.86,0-3.98-1.28-4.15-4.27-.19-3.49,1.4-3.85,4.25-3.91ZM67.71,184.91c3.81-.08,3.99,1.21,4.18,4.22.25,3.89-1.56,4.2-4.72,4.29-3.49.1-4.1-1.27-4.2-4.42-.12-3.79,1.39-4.03,4.74-4.09ZM50.41,162.47c3.85-.92,4.27,1.12,4.36,4.18.1,3.31-1.24,3.94-4.23,3.98-3.2.04-4.47-.75-4.41-4.22.05-3.37,1-4.82,4.28-3.94Z"/>
    <path class="cls-3" d="M193.2,175.16c-5.24,3.52-8.71,8.69-9.32,15.29-1.01,10.92-1.94,21.85-3.02,32.77-.21,2.16.41,2.87,2.54,2.81,5.08-.14,10.24.38,15.24-.32,6.86-.95,11.3,1.18,13.26,7.9,1.16,3.98,4.17,3.56,7.35,3.56,3.25,0,2.94-2.48,3.72-4.29.58-1.35,1.04-2.75,1.65-4.09,4.39-9.63,7.99-11.63,18.6-10.44,7.74.87,15.17,3.24,22.81,4.56,8.52,1.48,17.02,2.41,25.24-1.33,10.62-4.84,20.83-10.37,30.11-17.53,2.91-2.25,5.24-4.92,7.05-8.12,4.64-8.19,7.91-16.96,11.12-25.76,3.54-9.71,3.54-9.84,13.81-9.88,3.14-.01,3.8-1.17,3.75-4.01-.15-8.96-.05-17.93-.05-26.9h-.12c0-9.1-.09-18.2.05-27.3.04-2.83-.87-3.69-3.68-3.54-12.03.64-24.06,1.45-36.09,1.46-5.97,0-10.07,1.21-12.28,7.28-1.27,3.48-3.94,6.34-6.69,8.94-1.87,1.77-3.92,3.7-6.43,3.88-5.99.42-8.92,4.26-11.27,8.99-3.48,7.01-9.08,11.37-16.52,13.62-12.59,3.8-25.4,6.55-38.52,7.54-4.14.31-7.57,1.49-10.22,4.67-6.46,7.73-13.66,14.57-22.09,20.23ZM283.1,195.1c-2.31-.03-2.99-.84-2.96-3.06.1-7.75.13-15.5-.01-23.25-.04-2.53,1.17-2.74,3.18-2.79,2.27-.06,3.06.74,2.97,3-.15,3.87-.04,7.75-.04,11.62,0,3.74-.12,7.49.04,11.22.11,2.43-.7,3.28-3.18,3.25ZM283.15,157.69c1.84-.06,3.05,3.01,3.29,4.82.29,2.16-1.99,1.22-3.24,1.28-1.26.06-3.39.84-3.19-1.12.19-1.9,1.39-4.92,3.13-4.97ZM268.92,195.07c-1.79-.04-3.09-.15-3.07-2.5.09-8,.08-16.01,0-24.01-.02-2.35,1.31-2.44,3.09-2.48,2.01-.05,2.93.57,2.88,2.72-.11,4-.03,8-.03,12.01,0,3.87-.09,7.74.03,11.61.07,2.2-.95,2.71-2.91,2.67ZM268.95,157.76c1.77.07,2.99,3.03,3.15,4.94.15,1.8-1.98,1.18-3.25,1.07-1.23-.1-3.49.9-3.25-1.25.2-1.83,1.41-4.84,3.35-4.76ZM254.62,195.07c-2.5.03-3.2-.87-3.17-3.26.11-7.6.11-15.21,0-22.81-.03-2.33.88-2.91,3.06-2.93,2.32-.02,3.02.83,2.94,3.05-.13,3.86-.04,7.74-.04,11.61,0,3.74-.09,7.47.04,11.21.07,2.13-.44,3.11-2.84,3.14ZM254.35,157.81c2.05.01,3.05,2.98,3.28,4.83.24,1.99-1.73,1.16-3.02,1.29-1.47.14-3.69.87-3.4-1.47.21-1.73,1.5-4.66,3.15-4.65Z"/>
    <g>
      <path class="cls-6" d="M382.31,310.64c-.12-1.15-.27-2.16-.31-3.04-2.49-47.31-4.97-94.61-7.43-141.92-.06-1.14-.1-2.09-.2-2.99-.08-.67-.18-1.32-.43-2.03-.18-.53-.47-1.1-.91-1.63-.33-.39-.74-.74-1.18-.99-.66-.39-1.32-.57-1.92-.67-.61-.1-1.18-.13-1.78-.13-.78,0-1.62.05-2.59.11h.01c-.28.02-.52.02-.72.02-.54,0-.83-.06-.97-.09-.03-.08-.06-.21-.08-.39-.06-.35-.09-.88-.09-1.55v-.12s0,0,0,0c.02-2.66.02-5.31.02-7.97,0-12.93-.16-25.84-.16-38.73,0-3.04,0-6.07.03-9.11v-.16c0-1.03-.07-1.97-.29-2.91-.17-.7-.43-1.42-.88-2.08-.33-.5-.76-.96-1.25-1.32-.73-.55-1.55-.86-2.32-1.03-.77-.17-1.52-.22-2.3-.22-.37,0-.75.01-1.14.03-14.93.82-29.89,1.38-44.86,1.88-.89.03-1.77.11-2.66.29-1.32.27-2.71.85-3.85,1.88-1.15,1.02-1.96,2.37-2.51,3.9-.15.42-.33.82-.5,1.22-1.51-29.47-3.02-58.93-4.51-88.4-.18-3.38-1.74-6.41-4-8.64-2.27-2.23-5.34-3.75-8.75-3.77-1.32,0-2.64-.01-3.96-.01-3.27,0-6.53.02-9.78.02-2.91,0-5.82-.01-8.72-.07h0s-.26,0-.26,0c-.74,0-1.48.05-2.26.25-.58.15-1.18.39-1.74.77-.85.56-1.51,1.4-1.9,2.23-.4.84-.6,1.68-.73,2.57-2.52,16.63-5.33,33.26-7.79,49.98-.11.74-.23,1.34-.36,1.76-.09.31-.19.52-.25.62l-.07.1-.14.05c-.11.03-.32.06-.63.06-.23,0-.5-.02-.83-.05h0c-.96-.11-1.91-.17-2.84-.17-3.12,0-6.09.63-8.83,1.81-2.75,1.17-5.26,2.86-7.58,4.94-1.85,1.67-4.22,3.17-6.67,4.85-.41-1.75-.92-3.4-1.65-4.86-1.46-2.96-3.67-5.3-6.42-6.79-2.75-1.49-5.93-2.13-9.39-2.13-.88,0-1.78.04-2.7.12h.02s-.08,0-.08,0c-.16,0-.6-.06-1.24-.16-1.26-.18-2.5-.27-3.72-.27-5.35,0-10.28,1.72-14.76,4.48-4.29,2.64-7.97,5.84-11.47,9.04-.69.64-1.25,1.06-1.59,1.26-.01,0-.01,0-.02.01-.06-.06-.11-.11-.18-.2-.25-.3-.57-.78-.94-1.41-1.07-1.83-2.44-3.35-4.12-4.37-1.68-1.03-3.62-1.51-5.56-1.5-.69,0-1.38.06-2.08.16h0c-.69.1-1.33.15-1.91.15-2.22-.02-3.69-.61-5.04-1.69-1.34-1.09-2.55-2.83-3.55-5.19-1.69-3.95-3.18-8.08-4.84-12.24-.94-2.37-2.18-4.62-3.91-6.56-1.73-1.94-3.98-3.52-6.71-4.48-.31-.11-.51-.22-.62-.29-.17-.12-.15-.13-.16-.15,0-.02-.06-.13-.06-.46,0-.18.02-.44.07-.75h0c.14-.82.2-1.63.2-2.43,0-3.22-1.04-6.14-2.44-8.74-1.99-3.73-4.62-6.63-7.89-8.52-3.26-1.89-7.03-2.72-11.13-2.72-.4,0-.8,0-1.21.02-1.7.06-2.91.05-4,.12-.41.03-.81.06-1.25.15-.38.07-.79.18-1.24.38-.39.17-.79.43-1.15.75-.64.58-1.03,1.33-1.22,1.93-.29.92-.34,1.65-.41,2.5-.07.85-.12,1.81-.23,3.03-2.18,24.52-4.34,49.05-6.51,73.57-.03.36-.05.62-.07.82-2.22.82-3.95,2.2-5.2,3.69-1.34,1.59-2.27,3.25-3.16,4.69-4.27,6.98-7.4,14.21-11.74,20.33-.31.43-.55.77-.8,1.12-.21-.39-.45-.84-.71-1.33-.69-1.29-1.39-3.03-2.62-4.76-.62-.86-1.4-1.73-2.42-2.44-1.01-.71-2.27-1.25-3.64-1.47-1.61-.27-2.86-.86-4.07-1.73-1.2-.87-2.35-2.07-3.52-3.5-1.51-1.83-2.99-4-4.93-6.08-.75-.8-1.63-1.74-2.81-2.58-1.16-.83-2.74-1.57-4.61-1.57-.93,0-1.88.18-2.8.54-1.06.4-2.01.99-2.77,1.72-1.16,1.1-1.84,2.45-2.22,3.72-.39,1.28-.53,2.51-.63,3.67-1.38,16.52-2.91,33.03-4.34,49.58-2.37,27.46-4.74,54.93-6.99,82.4-.08.97-.29,1.73-.62,2.48-.33.75-.81,1.51-1.48,2.37-.74.98-1.91,2.06-3.11,3.47-.6.71-1.2,1.52-1.71,2.47-.51.95-.92,2.06-1.1,3.29-2.95,19.31-5.88,38.62-8.81,57.92l-.51,3.36,3.4.11c1.25.04,2.5.08,3.76.12l2.7.09,1.23-8.51h0c.43-3.02.86-6.06,1.32-9.06,2.07-13.48,4.2-26.95,6.26-40.45.11-.74.26-1.35.47-1.88.21-.53.45-.97.81-1.42,6.67-8.2,13.33-16.42,19.96-24.67.37-.46.62-.65.83-.76.21-.11.44-.2.99-.22,23.26-1.03,46.53-2.1,69.79-3.27h.01c.16,0,.32-.01.48-.01.84,0,1.3.13,1.51.25.21.13.38.23.69.85.76,1.62,1.67,3.03,2.76,4.2,1.63,1.77,3.65,2.96,5.78,3.63,2.14.68,4.39.89,6.74.89.38,0,.76,0,1.14-.02,23.48-.65,47.03-.58,70.62-.95h.02s.23,0,.23,0c.61,0,1.13.04,1.51.11.59.11.83.26.96.37.13.12.3.29.48.95.48,1.79,1.13,3.36,2,4.71,1.29,2.02,3.09,3.5,5.06,4.33,1.97.85,4.05,1.12,6.12,1.12,1.56,0,3.13-.15,4.71-.38.64-.09,1.27-.22,1.92-.44.96-.32,2.01-.96,2.74-1.89.73-.93,1.11-1.97,1.34-3.01.74-3.37,2.24-6.63,4.04-9.96.81-1.49,1.67-2.37,2.61-2.94.94-.56,2.06-.87,3.61-.88.26,0,.53,0,.81.03,6.29.42,12.62,2.22,19.35,3.55,3.13.61,6.29,1.26,9.49,1.85,3.03.56,6.02.84,8.97.84,8.54,0,16.69-2.34,24.38-6.74,6.95-3.96,14.02-7.86,20.85-12.47,3.72-2.51,6.75-5.54,9.26-8.86,2.51-3.32,4.51-6.95,6.25-10.71,3.58-7.76,6.76-15.71,9.33-23.89.15-.48.3-.84.41-1.05.19-.33.22-.3.23-.32.01,0,.18-.11.79-.11h.3c2.44.13,4.88.18,7.31.18,2.61,0,5.22-.06,7.81-.15h.02s.29,0,.29,0c.16,0,.27,0,.37.02.03.16.05.37.06.65.52,11.67,1.31,23.29,1.93,34.89,1.83,34.37,3.63,68.73,5.44,103.1h.12l.62,7.71h10.8s-1.47-2.56-1.47-2.56ZM23.36,238.87s0-.04.01-.07c.03-.38.07-.76.1-1.14.21.1.42.19.63.29-.25.31-.49.61-.74.92ZM353.16,95.54s0,0-.01,0c0,0,0,0,0,0h.02ZM278.38,10.56c.08-.31.17-.5.21-.57l.04-.05s.04-.03.23-.08c.19-.05.52-.1,1-.09.2,0,.42,0,.67.02,1.39.09,2.53.25,3.4.45.65.15,1.15.33,1.49.51.52.28.71.48.88.75.17.27.34.74.39,1.61.78,13.74,1.52,27.48,2.22,41.22.97,18.94,1.8,37.91,2.94,56.89,0,.16.01.32.01.45,0,.53-.07.87-.13,1.07-.11.3-.13.3-.3.43-.16.12-.58.32-1.33.46-1.64.31-3.35.69-5.13,1.32-.32.11-.65.29-.97.42-.29-4.86-.57-9.55-.81-14.14-.58-11.09-1.24-22.15-1.6-33.18-.03-.79-.1-1.56-.3-2.35-.15-.59-.37-1.19-.7-1.77-.49-.87-1.27-1.65-2.15-2.15-.88-.51-1.82-.77-2.78-.93-.66-.1-1.12-.25-1.39-.37-.21-.09-.31-.17-.37-.22-.08-.08-.11-.11-.19-.32-.07-.21-.15-.61-.15-1.22,0-.41.03-.92.11-1.51,1.81-14.91,3.19-29.86,4.43-44.79.07-.82.16-1.46.27-1.87ZM274.05,6.1c-.11.13-.21.27-.3.4-.08-.14-.14-.27-.23-.4.18,0,.36,0,.54,0ZM270.46,66.12s0,0,0,0c0,0,0,0,0,0h0ZM256.59,54.84c2.31-14.62,4.75-29.24,6.96-43.92.07-.47.15-.75.21-.9.14-.03.4-.08.9-.07h0c.45,0,.88,0,1.27,0,1.11,0,1.97.01,2.54.06.03,0,.04,0,.07,0,0,.7-.1,1.87-.26,3.45-1.39,14.45-3,28.93-4.16,43.5-.05.66-.16,1.07-.23,1.27h0c-.06.01-.1.02-.22.02-.27,0-.66-.03-1.14-.08-.48-.04-1.04-.11-1.69-.11-.29,0-.65.08-.97.12h0c-1.32-.02-2.37-.03-3.14-.07-.23-.01-.41-.03-.59-.05.05-.68.21-1.77.44-3.21ZM268.43,62.69l-.45-.02c.1-.1.21-.19.3-.29.05.11.1.21.15.32ZM250.91,61.64c.1.16.21.3.33.44-.21,0-.43-.01-.64-.01.11-.14.21-.28.31-.42ZM221.89,80.44c.1-.22.5-.76,1.42-1.54.91-.78,2.27-1.79,4.04-3.07,2.34-1.71,4.28-3.58,6.19-4.95.95-.69,1.89-1.26,2.83-1.67.95-.41,1.91-.68,3.01-.76,3.29-.26,6.6-.36,9.93-.36,3.38,0,6.81.11,10.25.26-.21.31-.44.61-.62.92-1.46,2.49-2.24,5.13-2.92,7.67-1.3,4.96-3.13,9.78-5.37,14.45-.36.77-.75,1.31-1.03,1.55-.14.13-.25.19-.35.23-.11.04-.22.08-.43.09-3.13.12-6.2.26-9.22.26-2.8,0-5.55-.12-8.25-.48-1.63-.23-2.79-.75-3.81-1.54-1.01-.8-1.91-1.95-2.71-3.53-1.07-2.11-1.9-3.74-2.4-4.94-.52-1.2-.66-1.93-.65-2.2,0-.18.01-.2.08-.36ZM217.18,76.81c-.13.18-.28.34-.39.53-.07-.22-.14-.44-.21-.66.2.03.41.13.6.13ZM212.29,83.14c.89,2.7,1.98,5.22,2.96,7.66,1.52,3.8,3.79,6.94,6.84,9.11,3.05,2.17,6.79,3.29,10.93,3.38,3.11.07,6.22.11,9.34.11,2.01,0,4.02-.02,6.03-.05,2.46-.03,4.79-.7,6.7-2.02,1.92-1.31,3.37-3.17,4.43-5.33,3.11-6.3,5.23-12.85,6.97-19.42.42-1.55,1-2.36,1.78-3.02.77-.64,1.9-1.16,3.48-1.54.29,6.11.79,12.14,1.11,18.11.58,10.73.75,21.62,1.79,32.54.02.17.02.34.02.51,0,.96-.25,2.1-.77,3.31-.77,1.81-2.14,3.72-3.78,5.29-1.63,1.58-3.52,2.8-5.17,3.39-8.09,2.92-16.55,4.73-25.18,6.41-6.05,1.18-12.15,2-18.28,2.37-1.47.09-2.82.46-4,.98-1.47.65-2.65,1.5-3.75,2.36-.49-8.99-.97-17.6-1.38-26.17-.7-14.69-1.36-29.39-1.99-44.09.62,2.02,1.24,4.06,1.92,6.1ZM205.61,62.62c-.08.05-.17.06-.25.12-.07.06-.11.13-.18.2-.09-.16-.16-.32-.27-.47.23.06.48.09.7.15ZM122.11,41.95c1.67.54,2.79,1.29,3.74,2.3.95,1.02,1.73,2.37,2.4,4.15,1.99,5.25,3.76,10.94,7.13,16.33,1.42,2.26,3.15,4.25,5.28,5.72,2.12,1.47,4.69,2.39,7.47,2.38.56,0,1.13-.04,1.7-.11h0c.42-.05.81-.08,1.17-.08.88,0,1.6.14,2.27.37.99.35,1.92.94,2.91,1.79.68.58,1.39,1.3,2.14,2.06-1.58,1.63-3.58,2.99-5.84,4.27-13.05,7.44-22.87,17.86-30.51,30.09.1-1.14.21-2.28.26-3.48.15-3.6.21-7.2.21-10.8,0-3.17-.05-6.33-.15-9.49-.05-1.44-.07-2.88-.07-4.33,0-10.03.96-20.22.96-30.62v-.23s0,0,0,0c0-2.01-.25-3.94-.85-5.81-.6-1.86-1.57-3.62-2.88-5.26-.47-.59-.89-1.18-1.35-1.76,1.11,1.12,2.45,2.02,4.02,2.52ZM108.89,19.21c.34.16.79.45,1.29.81,1.9,1.36,3.33,2.79,4.26,4.29.93,1.51,1.42,3.07,1.43,5.05,0,.63-.05,1.31-.17,2.03h0c-.1.62-.16,1.25-.16,1.87,0,1.6.48,3.15,1.28,4.53-1.52-2.03-2.96-4.07-4.14-6.16-1.85-3.27-3.16-6.66-3.66-10.43-.1-.7-.24-1.26-.33-1.71-.03-.14-.05-.25-.07-.37.09.03.09,0,.26.09ZM116.59,69.35s0,.07,0,.1c-.02-.02-.05-.04-.07-.06.02-.02.05-.03.07-.04ZM105.2,13.88s0,0,0,0c0,0,0,0,0,0h0ZM102.29,33.17c.3.64.57,1.3.89,1.91,2.53,4.83,5.83,9.1,9.08,13.23.31.39.49.72.61,1.03.11.31.18.61.18,1.02v.09s0-.01,0-.01c-.07,3.59-.15,7.2-.15,10.83,0,.96,0,1.93.02,2.89v.09s0,.03,0,.06c-.02,0-.03,0-.05,0h0c-.54-.05-1.05-.07-1.55-.07-1.08,0-2.1.09-3.04.18-1.53.15-2.96.46-4.29.97-1.89.71-3.53,1.9-4.82,3.41,1.05-11.88,2.09-23.76,3.13-35.63ZM93.07,94.29l.73.08c.13.01.25.03.38.04-.02.01-.03.03-.05.04-.31.16-.65.27-1.11.32-.05,0-.08.03-.13.03.07-.18.14-.35.19-.52ZM73.94,127.75c.51-.68,1.28-1.53,2.07-2.46.79-.95,1.62-1.97,2.28-3.21,2.91-5.57,6.19-11.04,9.38-16.66.82-1.46,1.66-2.55,2.56-3.28.91-.72,1.86-1.18,3.41-1.35,1.17-.12,2.27-.45,3.25-.96,1.47-.76,2.63-1.89,3.47-3.14.85-1.26,1.41-2.64,1.76-4.05,1.17-4.67,1.98-9.29,3-13.73.26-1.12.58-1.99.93-2.62.54-.95,1.04-1.42,1.81-1.82.77-.39,1.94-.67,3.65-.69h.05s.01,0,.01,0h.06c.33,0,.5.03.65.06.01.1.03.16.03.36v.18s0,0,0,0c-.06,1.71-.07,3.41-.07,5.1,0,1.49.01,2.94.02,4.41h-.71v3.02c0,5.83-.02,11.67-.02,17.52,0,4.84.02,9.69.07,14.54v.11c0,.38-.03.62-.06.83-.1,0-.17,0-.31-.03h0c-.83-.14-1.65-.2-2.45-.2-2.3,0-4.46.6-6.32,1.65-1.86,1.06-3.42,2.52-4.8,4.2-1.54,1.88-3.13,3.11-4.82,3.92-1.68.8-3.48,1.17-5.49,1.18-1.74,0-3.64-.29-5.68-.87-1.09-.31-2.19-.51-3.24-.69-1.57-.26-3.07-.49-4.1-.79-.24-.07-.44-.14-.62-.21.07-.1.12-.18.2-.29ZM35.99,101.28s0,0-.01,0c0,0,0,0-.01,0h.02ZM111.2,217.72h0,.01s0,0,0,0ZM176.41,196.17c-.15,8.66-1.53,17.51-2.27,26.59-.01.15-.02.15-.04.24-.07,0-.11.01-.2.01-15.92.15-31.85.35-47.77.63h-.09c-.6-.01-.76-.12-.92-.22-.15-.11-.37-.34-.61-.86-.73-1.59-1.61-2.98-2.65-4.14-1.56-1.75-3.49-2.94-5.53-3.62-2.05-.69-4.18-.9-6.36-.9-.79,0-1.59.03-2.4.08-22.39,1.37-44.83,2.22-67.3,3.18-1.46.06-2.9.39-4.17,1.08-1.27.68-2.3,1.67-3.13,2.76-1.64,2.14-3.37,4.27-5.07,6.4.48-5.72.96-11.45,1.47-17.16,2.04-23.18,4.1-46.36,6.17-69.54.95-10.64,1.92-21.28,2.91-31.91,1.17,1.45,2.32,2.94,3.56,4.49,1.46,1.83,3.1,3.6,5.09,5.07,1.99,1.47,4.36,2.61,7.1,3.11.54.11.72.24,1.01.53.28.29.6.82.89,1.56,1.67,4.24,4.12,7.76,7.41,10.3,3.28,2.55,7.32,4.05,11.89,4.55,1.86.2,3.95.83,6.3,1.4,2.2.52,4.4.82,6.58.82,2.79,0,5.55-.5,8.13-1.65,2.58-1.15,4.95-2.95,6.95-5.39,1.31-1.59,2.63-2.59,4-3.24,1.38-.64,2.86-.95,4.61-.95.77,0,1.59.06,2.45.19h0c.73.1,1.45.16,2.15.16.13,0,.25-.05.38-.06l.02.12.1-.14c2.12-.08,4.16-.69,5.77-1.92,1.75-1.31,3-3.09,4.06-5.11,7.04-13.54,16.39-24.7,29.64-32.28,8.52-4.89,14.82-11.9,21.47-17.76,2.63-2.33,5.31-4.13,8.11-5.35,2.8-1.22,5.73-1.87,8.98-1.87,1.05,0,2.14.07,3.27.22.7.09,1.22.19,1.52.28l.2.07s.03.06.06.2c.04.2.08.51.09.94.47,13.56,1.3,27.05,1.91,40.52.66,14.64.83,29.41,2,44.2.03.42.05.83.05,1.21-.01,2.46-.6,4.16-1.63,5.77-1.04,1.6-2.64,3.11-4.7,4.66-1.22.93-2.64,1.79-4.14,2.73-5.38,3.38-9.69,7.52-12.64,12.54-2.96,5.02-4.52,10.86-4.64,17.46ZM354.07,157.24c-.18.02-.41.04-.72.04-2.58.01-4.56.02-6.32.21-1.32.15-2.56.41-3.74.99-.88.43-1.69,1.05-2.34,1.77-.98,1.09-1.64,2.33-2.26,3.75-.62,1.43-1.22,3.08-1.97,5.13-3.21,8.79-6.43,17.39-10.91,25.31-1.62,2.85-3.66,5.2-6.27,7.21-9.02,6.97-19.02,12.4-29.51,17.17-3.8,1.73-7.67,2.35-11.74,2.35-3.77,0-7.7-.55-11.73-1.25-7.37-1.27-14.86-3.66-22.99-4.59-1.85-.21-3.53-.33-5.11-.33-1.96,0-3.76.19-5.45.67-2.54.7-4.77,2.16-6.52,4.18-1.77,2.02-3.17,4.53-4.6,7.67-.69,1.53-1.17,2.96-1.68,4.16-.32.75-.46,1.37-.59,1.84-.08.29-.13.46-.18.6-.06,0-.05.02-.17.02-.6,0-1.15.01-1.63.01-.58,0-1.07-.02-1.43-.07-.27-.04-.47-.09-.6-.13-.2-.08-.24-.11-.34-.22-.1-.11-.28-.37-.46-.97-.48-1.65-1.11-3.13-1.92-4.43-1.21-1.96-2.89-3.52-4.86-4.49-1.97-.98-4.17-1.37-6.47-1.37-1.08,0-2.18.09-3.32.25-1.93.27-3.96.34-6.07.34-2.16,0-4.41-.08-6.71-.08-.51,0-1.02.01-1.53.02,1.06-10.78,1.98-21.54,2.98-32.28.27-2.85,1.13-5.31,2.48-7.48,1.35-2.16,3.21-4.03,5.52-5.58,8.71-5.84,16.12-12.89,22.72-20.8,1.04-1.23,2.12-2,3.42-2.57,1.3-.56,2.85-.89,4.7-1.02,13.39-1.01,26.42-3.81,39.17-7.66,4.04-1.22,7.67-3.05,10.78-5.57,3.11-2.52,5.66-5.74,7.57-9.59,1.1-2.22,2.26-4.02,3.59-5.22.67-.6,1.38-1.07,2.21-1.43.83-.35,1.79-.6,2.98-.68,1.99-.14,3.64-.96,4.96-1.86,1.33-.92,2.4-1.95,3.34-2.83,1.42-1.34,2.88-2.8,4.19-4.46,1.31-1.65,2.48-3.51,3.26-5.64.46-1.27.98-2.16,1.51-2.82.81-.97,1.64-1.5,2.9-1.9,1.25-.4,2.94-.57,5.03-.57,12.17-.01,24.25-.83,36.25-1.46h.02c.14,0,.27-.01.39-.01.03,0,.05,0,.08,0,0,.11.02.2.02.34v.16s0-.01,0-.01c-.07,4.06-.08,8.11-.08,12.15,0,5.08.03,10.14.03,15.19v3.02h.11c0,4-.02,7.99-.02,12s.02,7.92.08,11.89v.25c0,.29-.01.51-.03.68ZM359,160.91s.04-.04.06-.06c.01.02.03.04.05.06-.03,0-.07,0-.1,0Z"/>
      <path class="cls-6" d="M372.97,305.49H11.09c-.28,1.95-.57,3.88-.85,5.84l-.39,2.67,363.13-.8.24-2.25c-.1-1.84-.15-3.62-.25-5.46Z"/>
    </g>
    <path class="cls-10" d="M275.2,63.85c2.53.4,3.3,1.7,3.38,4.31.37,11.09,1.02,22.16,1.6,33.24.32,6.09.7,12.18,1.1,18.86,3.22-2.27,6.24-3.06,9.38-3.65,2.9-.54,4.42-2.03,4.2-5.57-1.14-18.94-1.97-37.9-2.94-56.86-.71-13.75-1.44-27.49-2.22-41.24-.25-4.3-2.99-5.76-8.98-6.16-4.37-.29-5.3,1.5-5.63,5.41-1.24,14.91-2.62,29.82-4.42,44.67-.51,4.23.45,6.35,4.52,6.99ZM281.97,28.53s2.42,2.46,3.45,4.43c-2.15-.3-5.71,0-5.71,0l2.26-4.43ZM282.17,43.46c1.7,1.34,2.43,3.08,3.42,5.29h-5.87c-.02-2.18,1.4-3.5,2.45-5.29Z"/>
    <path class="cls-8" d="M213.32,271.35c1.46-.15,2.94-.03,4.41-.03,2.14,0,4.28-.1,6.42.02-2.13-.12-4.28-.02-6.42-.02-1.47,0-2.95-.12-4.41.04Z"/>
    <path class="cls-8" d="M130.27,264.44c-1.47.08-2.94.01-4.41.02-2.01,0-4.02.12-6.02-.02,2,.14,4.01.03,6.02.03,1.47,0,2.95.05,4.41-.02Z"/>
    <path class="cls-8" d="M84.36,264.43c-1.45.15-2.93.03-4.39.03-2.13,0-4.27.09-6.39-.02,2.13.1,4.26.02,6.39.02,1.47,0,2.94.11,4.39-.04Z"/>
    <path class="cls-8" d="M167.35,271.35c1.46-.13,2.94-.02,4.41-.03,2.01,0,4.02-.11,6.02.02-2-.13-4.01-.03-6.02-.03-1.47,0-2.95-.1-4.41.03Z"/>
  </g>
  <g>
    <g>
      <polygon class="cls-5" points="263.51 250.64 263.51 310.99 323.18 312.76 323.18 249.91 341.75 231.3 337.04 157.78 316.17 141.44 270.19 141.44 246.16 157.78 242.88 188.73 252.88 231.3 263.51 250.64"/>
      <polygon class="cls-10" points="366.69 250.64 366.69 310.99 429.53 310.99 429.53 250.64 444.93 231.3 440.22 157.78 419.35 141.44 373.38 141.44 349.34 157.78 346.06 188.73 352.19 230.58 366.69 250.64"/>
      <polygon class="cls-5" points="474.71 250.64 474.71 310.99 526.3 310.99 526.3 250.64 552.94 231.3 548.24 157.78 527.37 141.44 481.39 141.44 457.36 157.78 454.07 188.73 448.87 230.58 474.71 250.64"/>
      <circle class="cls-5" cx="294.47" cy="106.19" r="30.95"/>
      <circle class="cls-5" cx="500.83" cy="106.19" r="30.95"/>
      <circle class="cls-10" cx="397.65" cy="106.19" r="30.95"/>
      <g>
        <g>
          <path class="cls-6" d="M528.4,303.73v-62.11c0-1.17.65-2.22,1.7-2.75l18.94-9.47v-49.69c-.02-21.05-17.16-38.18-38.2-38.21h-20.64c-21.05.02-38.18,17.16-38.21,38.2v49.7l18.94,9.47c1.05.52,1.69,1.57,1.69,2.75v62.11h-6.13v-60.21l-17.57-8.79-17.57,8.79v60.21h-6.13v-62.11c0-1.17.65-2.22,1.7-2.75l18.94-9.47v-49.69c-.02-21.05-17.16-38.18-38.2-38.21h-20.64c-21.05.02-38.18,17.16-38.21,38.2v49.7l18.94,9.47c1.05.52,1.69,1.57,1.69,2.74v62.12h-6.13v-60.21l-17.57-8.79-17.57,8.79v60.21h-6.13v-62.11c0-1.17.65-2.22,1.7-2.75l18.94-9.47v-49.69c-.02-21.05-17.16-38.18-38.2-38.21h-20.64c-21.05.02-38.18,17.16-38.21,38.2v49.7l18.94,9.47c1.05.52,1.69,1.57,1.69,2.74v62.12h-6.13v-60.21l-18.94-9.47c-1.05-.52-1.69-1.57-1.69-2.75v-51.59c.05-17.09,10.1-32.81,25.62-40.02l8.45-3.93-5.88-7.23c-4.83-5.94-7.52-13.42-7.55-21.08,0-18.73,15.26-33.99,34.02-33.99s34.02,15.26,34.02,34.02c-.03,7.63-2.71,15.11-7.55,21.05l-5.86,7.19,8.39,3.95c6.61,3.11,12.4,7.85,16.76,13.72l5.82,7.84,5.82-7.84c4.36-5.87,10.16-10.61,16.76-13.72l8.39-3.95-5.86-7.19c-4.83-5.94-7.52-13.42-7.55-21.08,0-18.73,15.26-33.99,34.02-33.99s34.02,15.26,34.02,34.02c-.03,7.63-2.71,15.11-7.55,21.05l-5.86,7.19,8.39,3.95c6.61,3.11,12.4,7.85,16.76,13.72l5.82,7.84,5.82-7.84c4.36-5.87,10.16-10.61,16.76-13.72l8.39-3.95-5.86-7.19c-4.84-5.94-7.52-13.43-7.55-21.08,0-18.73,15.26-33.99,34.02-33.99s34.02,15.26,34.02,34.02c-.03,7.63-2.71,15.11-7.55,21.05l-5.88,7.23,8.45,3.93c15.52,7.21,25.57,22.93,25.62,40.04v51.57c0,1.17-.65,2.22-1.7,2.75l-18.94,9.47v60.21h-6.13ZM500.51,79.6c-15.35.02-27.86,12.52-27.88,27.88,0,15.39,12.51,27.9,27.89,27.9s27.89-12.51,27.89-27.89-12.51-27.89-27.89-27.89h0ZM397.33,79.6c-15.35.02-27.86,12.52-27.88,27.88,0,15.39,12.51,27.9,27.89,27.9s27.89-12.51,27.89-27.89-12.51-27.89-27.89-27.89h0ZM294.14,79.6c-15.35.02-27.86,12.52-27.88,27.88,0,15.39,12.51,27.9,27.89,27.9s27.89-12.51,27.89-27.89-12.51-27.89-27.89-27.89h0Z"/>
          <path class="cls-6" d="M538.16,307.36h-13.39v-65.74c0-2.55,1.42-4.85,3.7-5.99l16.94-8.46v-47.45c-.02-19.04-15.53-34.56-34.58-34.58h-20.64c-19.04.02-34.56,15.53-34.58,34.58v47.46l16.94,8.47c2.28,1.14,3.7,3.43,3.7,5.99v65.74h-13.39v-61.6l-13.94-6.98-13.94,6.98v61.6h-13.39v-65.74c0-2.55,1.42-4.85,3.7-5.99l16.94-8.46v-47.45c-.02-19.04-15.53-34.56-34.58-34.58h-20.64c-19.04.02-34.56,15.53-34.58,34.58v47.46l16.94,8.47c2.28,1.14,3.7,3.43,3.7,5.98v65.74h-13.38v-61.6l-13.95-6.97-13.94,6.98v61.6h-13.38v-65.74c0-2.55,1.42-4.85,3.7-5.99l16.93-8.46v-47.45c-.02-19.04-15.53-34.56-34.58-34.58h-20.64c-19.04.02-34.56,15.53-34.58,34.58v47.46l16.94,8.47c2.28,1.14,3.7,3.43,3.7,5.98v65.74h-13.38v-61.6l-16.94-8.47c-2.28-1.14-3.7-3.43-3.7-5.99v-51.59c.05-18.51,10.93-35.51,27.72-43.31l4.23-1.96-2.94-3.61c-5.36-6.58-8.33-14.87-8.36-23.35,0-20.76,16.89-37.63,37.65-37.63s37.65,16.89,37.65,37.65c-.04,8.48-3.01,16.76-8.36,23.34l-2.93,3.6,4.2,1.97c7.15,3.36,13.42,8.5,18.13,14.84l2.91,3.92,2.91-3.92c4.71-6.35,10.98-11.48,18.13-14.84l4.2-1.97-2.93-3.6c-5.36-6.58-8.33-14.87-8.36-23.35,0-20.76,16.89-37.63,37.65-37.63s37.65,16.89,37.65,37.65c-.04,8.48-3.01,16.76-8.36,23.34l-2.93,3.6,4.2,1.97c7.15,3.36,13.42,8.5,18.13,14.84l2.91,3.92,2.91-3.92c4.71-6.35,10.98-11.48,18.13-14.84l4.2-1.97-2.93-3.6c-5.36-6.58-8.33-14.87-8.37-23.35,0-20.76,16.89-37.63,37.65-37.63s37.65,16.89,37.65,37.65c-.04,8.48-3.01,16.76-8.36,23.34l-2.94,3.61,4.23,1.96c16.79,7.8,27.66,24.81,27.72,43.32v51.58c0,2.55-1.42,4.85-3.7,5.99l-16.93,8.46v61.6ZM343.16,163.84c1.19,2.88,2.07,5.92,2.58,9.08.52-3.17,1.4-6.21,2.6-9.1l-2.6,3.5-2.58-3.48ZM446.34,163.84c1.19,2.88,2.06,5.92,2.58,9.07.52-3.16,1.4-6.2,2.59-9.09l-2.59,3.49-2.58-3.48ZM379.59,133.52l2.86,3.51-3.45,1.63c2.59-.51,5.27-.78,8.01-.78h1.99c-3.4-.93-6.57-2.42-9.4-4.36ZM405.67,137.88h1.99c2.74,0,5.41.27,8,.78l-3.45-1.63,2.86-3.51c-2.84,1.94-6.01,3.43-9.4,4.36ZM302.49,137.88h1.99c2.74,0,5.41.27,8,.78l-3.45-1.63,2.86-3.51c-2.84,1.94-6,3.43-9.4,4.36ZM482.78,133.52l2.86,3.51-3.45,1.63c2.59-.51,5.27-.78,8-.78h1.99c-3.4-.93-6.57-2.42-9.4-4.36ZM276.41,133.52l2.91,3.57-3.3,1.53c2.53-.48,5.14-.74,7.81-.74h1.99c-3.4-.93-6.57-2.42-9.41-4.36ZM508.85,137.88h1.99c2.67,0,5.28.26,7.81.74l-3.3-1.53,2.9-3.57c-2.84,1.94-6.01,3.43-9.4,4.36ZM500.52,79.6v3.63c-13.36.01-24.25,10.9-24.26,24.26,0,13.38,10.88,24.27,24.26,24.27s24.26-10.88,24.26-24.26-10.88-24.26-24.26-24.26v-3.63ZM397.33,79.6v3.63c-13.36.01-24.25,10.9-24.26,24.26,0,13.38,10.88,24.27,24.26,24.27s24.26-10.88,24.26-24.26-10.88-24.26-24.26-24.26v-3.63ZM294.15,79.6v3.63c-13.36.01-24.25,10.9-24.26,24.26,0,13.38,10.88,24.27,24.26,24.27s24.26-10.88,24.26-24.26-10.88-24.26-24.26-24.26v-3.63Z"/>
        </g>
        <g>
          <path class="cls-6" d="M528.4,303.73v-62.11c0-1.17.65-2.22,1.7-2.75l18.94-9.47v-49.69c-.02-21.05-17.16-38.18-38.2-38.21h-20.64c-21.05.02-38.18,17.16-38.21,38.2v49.7l18.94,9.47c1.05.52,1.69,1.57,1.69,2.75v62.11h-6.13v-60.21l-17.57-8.79-17.57,8.79v60.21h-6.13v-62.11c0-1.17.65-2.22,1.7-2.75l18.94-9.47v-49.69c-.02-21.05-17.16-38.18-38.2-38.21h-20.64c-21.05.02-38.18,17.16-38.21,38.2v49.7l18.94,9.47c1.05.52,1.69,1.57,1.69,2.74v62.12h-6.13v-60.21l-17.57-8.79-17.57,8.79v60.21h-6.13v-62.11c0-1.17.65-2.22,1.7-2.75l18.94-9.47v-49.69c-.02-21.05-17.16-38.18-38.2-38.21h-20.64c-21.05.02-38.18,17.16-38.21,38.2v49.7l18.94,9.47c1.05.52,1.69,1.57,1.69,2.74v62.12h-6.13v-60.21l-18.94-9.47c-1.05-.52-1.69-1.57-1.69-2.75v-51.59c.05-17.09,10.1-32.81,25.62-40.02l8.45-3.93-5.88-7.23c-4.83-5.94-7.52-13.42-7.55-21.08,0-18.73,15.26-33.99,34.02-33.99s34.02,15.26,34.02,34.02c-.03,7.63-2.71,15.11-7.55,21.05l-5.85,7.19,8.39,3.95c6.61,3.11,12.41,7.86,16.76,13.73l5.82,7.84,5.82-7.84c4.36-5.87,10.15-10.61,16.76-13.73l8.39-3.95-5.85-7.19c-4.83-5.94-7.52-13.42-7.55-21.08,0-18.73,15.26-33.99,34.02-33.99s34.02,15.26,34.02,34.02c-.03,7.63-2.71,15.11-7.55,21.05l-5.85,7.19,8.39,3.95c6.61,3.12,12.41,7.86,16.76,13.73l5.82,7.84,5.82-7.84c4.36-5.87,10.15-10.61,16.76-13.73l8.39-3.95-5.85-7.19c-4.84-5.94-7.52-13.43-7.55-21.08,0-18.73,15.26-33.99,34.02-33.99s34.02,15.26,34.02,34.02c-.03,7.63-2.71,15.11-7.55,21.05l-5.88,7.23,8.45,3.93c15.52,7.21,25.57,22.93,25.62,40.04v51.57c0,1.17-.65,2.22-1.7,2.75l-18.94,9.47v60.21h-6.13ZM500.51,79.6c-15.35.02-27.86,12.52-27.88,27.88,0,15.39,12.51,27.9,27.89,27.9s27.89-12.51,27.89-27.89-12.51-27.89-27.89-27.89h0ZM397.33,79.6c-15.35.02-27.86,12.52-27.88,27.88,0,15.39,12.51,27.9,27.89,27.9s27.89-12.51,27.89-27.89-12.51-27.89-27.89-27.89h0ZM294.14,79.6c-15.35.02-27.86,12.52-27.88,27.88,0,15.39,12.51,27.9,27.89,27.9s27.89-12.51,27.89-27.89-12.51-27.89-27.89-27.89h0Z"/>
          <path class="cls-6" d="M538.16,307.36h-13.39v-65.74c0-2.55,1.42-4.85,3.7-5.99l16.94-8.46v-47.45c-.02-19.04-15.53-34.56-34.58-34.58h-20.64c-19.04.02-34.56,15.53-34.58,34.58v47.46l16.94,8.47c2.28,1.14,3.7,3.43,3.7,5.99v65.74h-13.39v-61.6l-13.94-6.98-13.94,6.98v61.6h-13.39v-65.74c0-2.55,1.42-4.85,3.7-5.99l16.94-8.46v-47.45c-.02-19.04-15.53-34.56-34.58-34.58h-20.64c-19.04.02-34.56,15.53-34.58,34.58v47.46l16.94,8.47c2.28,1.14,3.7,3.43,3.7,5.98v65.74h-13.38v-61.6l-13.95-6.97-13.94,6.98v61.6h-13.38v-65.74c0-2.55,1.42-4.85,3.7-5.99l16.93-8.46v-47.45c-.02-19.04-15.53-34.56-34.58-34.58h-20.64c-19.04.02-34.56,15.53-34.58,34.58v47.46l16.94,8.47c2.28,1.14,3.7,3.43,3.7,5.98v65.74h-13.38v-61.6l-16.94-8.47c-2.28-1.14-3.7-3.43-3.7-5.99v-51.59c.05-18.51,10.93-35.51,27.72-43.31l4.23-1.96-2.94-3.61c-5.36-6.58-8.33-14.87-8.36-23.35,0-20.76,16.89-37.63,37.65-37.63s37.65,16.89,37.65,37.65c-.04,8.48-3.01,16.76-8.36,23.34l-2.93,3.59,4.19,1.97c7.15,3.37,13.42,8.5,18.13,14.85l2.91,3.92,2.91-3.92c4.71-6.34,10.98-11.48,18.13-14.84l4.2-1.97-2.93-3.59c-5.36-6.58-8.33-14.87-8.36-23.35,0-20.76,16.89-37.63,37.65-37.63s37.65,16.89,37.65,37.65c-.04,8.48-3.01,16.76-8.36,23.34l-2.93,3.59,4.19,1.97c7.15,3.37,13.42,8.5,18.13,14.85l2.91,3.92,2.91-3.92c4.71-6.34,10.98-11.48,18.13-14.84l4.2-1.97-2.93-3.59c-5.36-6.58-8.33-14.87-8.37-23.35,0-20.76,16.89-37.63,37.65-37.63s37.65,16.89,37.65,37.65c-.04,8.48-3.01,16.76-8.36,23.34l-2.94,3.61,4.23,1.96c16.79,7.8,27.66,24.81,27.72,43.32v51.58c0,2.55-1.42,4.85-3.7,5.99l-16.93,8.46v61.6ZM343.16,163.85c1.18,2.88,2.06,5.92,2.58,9.07.52-3.16,1.4-6.21,2.59-9.09l-2.59,3.49-2.58-3.47ZM446.34,163.85c1.18,2.88,2.06,5.91,2.58,9.06.52-3.16,1.4-6.2,2.58-9.07l-2.59,3.49-2.58-3.47ZM379.59,133.52l2.86,3.51-3.46,1.63c2.6-.51,5.28-.78,8.02-.78h1.99c-3.4-.93-6.57-2.42-9.41-4.36ZM405.67,137.88h1.99c2.74,0,5.42.27,8.02.78l-3.46-1.63,2.86-3.51c-2.84,1.94-6.01,3.43-9.4,4.36ZM302.49,137.88h1.99c2.74,0,5.42.27,8.02.78l-3.46-1.63,2.86-3.51c-2.83,1.94-6,3.43-9.4,4.36ZM482.78,133.52l2.86,3.51-3.46,1.63c2.6-.51,5.28-.78,8.02-.78h1.99c-3.4-.93-6.56-2.42-9.4-4.36ZM276.41,133.52l2.91,3.57-3.3,1.53c2.53-.48,5.14-.74,7.81-.74h1.99c-3.4-.93-6.57-2.42-9.41-4.36ZM508.85,137.88h1.99c2.67,0,5.28.26,7.81.74l-3.3-1.53,2.91-3.57c-2.84,1.94-6.01,3.43-9.41,4.36ZM500.51,79.6v3.63c-13.36.01-24.24,10.9-24.26,24.26,0,13.38,10.88,24.27,24.26,24.27s24.26-10.88,24.26-24.26-10.88-24.26-24.26-24.26v-3.63ZM397.33,79.6v3.63c-13.36.01-24.25,10.9-24.26,24.26,0,13.38,10.88,24.27,24.26,24.27s24.26-10.88,24.26-24.26-10.88-24.26-24.26-24.26v-3.63ZM294.15,79.6v3.63c-13.36.01-24.25,10.9-24.26,24.26,0,13.38,10.88,24.27,24.26,24.27s24.26-10.88,24.26-24.26-10.88-24.26-24.26-24.26v-3.63Z"/>
        </g>
      </g>
    </g>
    <polygon class="cls-6" points="538.25 303.44 260.9 303.73 260.9 314 538.25 313.71 538.25 303.44"/>
  </g>
</svg>