<svg id="popoulation" xmlns="http://www.w3.org/2000/svg" width="64" height="64" viewBox="0 0 64 64">
  <g id="density" transform="translate(11.707 11.133)">
    <path id="Path_84140" data-name="Path 84140" d="M33.706,26H6.878L2,46.731H38.584Z" transform="translate(0 -8.638)" fill="#146048" stroke="#033726" stroke-width="1"/>
    <path id="Path_84141" data-name="Path 84141" d="M23.45,41.049H4.439L2,51.414H38.584L35.428,38H23.45Z" transform="translate(0 -13.321)" fill="#d5ead3" stroke="#033726" stroke-width="1"/>
    <g id="Group_184717" data-name="Group 184717" transform="translate(16.176 6.974)">
      <path id="Path_84181" data-name="Path 84181" d="M36.268,18.219A1.223,1.223,0,0,0,35.049,17H33.219A1.223,1.223,0,0,0,32,18.219v2.439a5.475,5.475,0,0,0,4.268-2.042Z" transform="translate(-27.732 -12.732)" fill="#5a806d"/>
      <path id="Path_84182" data-name="Path 84182" d="M28.049,17H26.219A1.223,1.223,0,0,0,25,18.219v.4a5.475,5.475,0,0,0,4.268,2.042V18.219A1.223,1.223,0,0,0,28.049,17Z" transform="translate(-25 -12.732)" fill="#95a99b"/>
      <circle id="Ellipse_1648" data-name="Ellipse 1648" cx="1.219" cy="1.219" r="1.219" transform="translate(0.915 1.829)" fill="#95a99b"/>
      <circle id="Ellipse_1649" data-name="Ellipse 1649" cx="1.219" cy="1.219" r="1.219" transform="translate(5.183 1.829)" fill="#5a806d"/>
      <circle id="Ellipse_1650" data-name="Ellipse 1650" cx="0.915" cy="0.915" r="0.915" transform="translate(3.354)" fill="#64a089"/>
    </g>
    <path id="Path_84142" data-name="Path 84142" d="M27,45.927h4.878v5.488H48.341L45.185,38H33.207v3.049H27Z" transform="translate(-9.757 -13.321)" fill="#65c3a5" stroke="#033726" stroke-width="1"/>
    <path id="Subtraction_17" data-name="Subtraction 17" d="M6.708,19.591h0c-.574-.816-1.2-1.631-1.809-2.419l-.026-.034,0,0a36.971,36.971,0,0,1-3.343-4.857A11.582,11.582,0,0,1,0,6.707,6.709,6.709,0,0,1,6.708,0a6.705,6.705,0,0,1,6.707,6.707c0,3.851-2.459,7.133-4.837,10.306l-.006.006c-.665.887-1.294,1.726-1.865,2.571Zm0-17.071a4.269,4.269,0,1,0,4.267,4.27A4.274,4.274,0,0,0,6.708,2.519Z" transform="translate(13.584 3.867)" fill="#ffc941"/>
    <g id="Group_184715" data-name="Group 184715" transform="translate(5.049 18.734)">
      <path id="Path_84145" data-name="Path 84145" d="M56,55.25h.915v.915H56Z" transform="translate(-26.123 -38.787)" fill="#64a089"/>
      <path id="Path_84146" data-name="Path 84146" d="M53,51.25h.915v.915H53Z" transform="translate(-24.952 -37.226)" fill="#64a089"/>
      <path id="Path_84147" data-name="Path 84147" d="M49,55.25h.915v.915H49Z" transform="translate(-23.391 -38.787)" fill="#64a089"/>
      <path id="Path_84148" data-name="Path 84148" d="M48,49.25h.915v.915H48Z" transform="translate(-23.001 -36.446)" fill="#64a089"/>
      <path id="Path_84149" data-name="Path 84149" d="M54,46.25h.915v.915H54Z" transform="translate(-25.343 -35.275)" fill="#64a089"/>
      <path id="Path_84150" data-name="Path 84150" d="M44,45.25h.915v.915H44Z" transform="translate(-21.44 -34.885)" fill="#64a089"/>
      <path id="Path_84151" data-name="Path 84151" d="M43,52.25h.915v.915H43Z" transform="translate(-21.05 -37.616)" fill="#64a089"/>
      <path id="Path_84152" data-name="Path 84152" d="M39,47.25h.915v.915H39Z" transform="translate(-19.489 -35.665)" fill="#64a089"/>
      <path id="Path_84153" data-name="Path 84153" d="M50,43.25h.915v.915H50Z" transform="translate(-23.781 -34.104)" fill="#64a089"/>
      <path id="Path_84154" data-name="Path 84154" d="M42,41.25h.915v.915H42Z" transform="translate(-20.659 -33.323)" fill="#64a089"/>
      <path id="Path_84155" data-name="Path 84155" d="M10,46.25h.915v.915H10Z" transform="translate(-8.171 -35.275)" fill="#64a089"/>
      <path id="Path_84156" data-name="Path 84156" d="M14,50.25h.915v.915H14Z" transform="translate(-9.732 -36.836)" fill="#64a089"/>
      <path id="Path_84157" data-name="Path 84157" d="M7,54.25h.915v.915H7Z" transform="translate(-7 -38.397)" fill="#64a089"/>
      <path id="Path_84158" data-name="Path 84158" d="M21,53.25h.915v.915H21Z" transform="translate(-12.464 -38.007)" fill="#64a089"/>
      <path id="Path_84159" data-name="Path 84159" d="M28,55.25h.915v.915H28Z" transform="translate(-15.196 -38.787)" fill="#64a089"/>
      <path id="Path_84160" data-name="Path 84160" d="M12,28.25h.915v.915H12Z" transform="translate(-8.951 -28.25)" fill="#64a089"/>
      <path id="Path_84161" data-name="Path 84161" d="M17,30.25h.915v.915H17Z" transform="translate(-10.903 -29.031)" fill="#64a089"/>
      <path id="Path_84162" data-name="Path 84162" d="M14,33.25h.915v.915H14Z" transform="translate(-9.732 -30.201)" fill="#64a089"/>
      <path id="Path_84163" data-name="Path 84163" d="M19,34.25h.915v.915H19Z" transform="translate(-11.683 -30.592)" fill="#64a089"/>
      <path id="Path_84164" data-name="Path 84164" d="M12,37.25h.915v.915H12Z" transform="translate(-8.951 -31.762)" fill="#64a089"/>
      <path id="Path_84165" data-name="Path 84165" d="M49,29.25h.915v.915H49Z" transform="translate(-23.391 -28.64)" fill="#64a089"/>
      <path id="Path_84166" data-name="Path 84166" d="M44,31.25h.915v.915H44Z" transform="translate(-21.44 -29.421)" fill="#64a089"/>
    </g>
  </g>
  <rect id="Rectangle_156017" data-name="Rectangle 156017" width="64" height="64" fill="none"/>
</svg>
