<svg id="Recreational_Service" data-name="Recreational Service" xmlns="http://www.w3.org/2000/svg" xmlns:xlink="http://www.w3.org/1999/xlink" width="64" height="64" viewBox="0 0 64 64">
  <defs>
    <clipPath id="clip-path">
      <path id="path9102" d="M0-682.665H36v36H0Z" transform="translate(0 682.665)"/>
    </clipPath>
  </defs>
  <rect id="Rectangle_156012" data-name="Rectangle 156012" width="64" height="64" fill="none"/>
  <g id="g9096" transform="translate(13.641 697.004)">
    <g id="g9098" transform="translate(0 -682.665)">
      <g id="g9100" clip-path="url(#clip-path)">
        <g id="g9106" transform="translate(0.605 1.617)">
          <path id="path9108" d="M-221.077-206.338v4.354a4.61,4.61,0,0,1-.825,2.64,4.649,4.649,0,0,1-2.188,1.7,4.617,4.617,0,0,1-1.62.291h-3.042a4.633,4.633,0,0,1-4.633-4.633v-4.354a5.1,5.1,0,0,1,.254-1.589,5.118,5.118,0,0,1,.736-1.431,5.1,5.1,0,0,0,.99-3.02v-1.273a4.161,4.161,0,0,1,1.223-2.951,4.161,4.161,0,0,1,2.951-1.223,4.174,4.174,0,0,1,4.174,4.174v1.273a5.117,5.117,0,0,0,.254,1.589,5.118,5.118,0,0,0,.736,1.431,5.1,5.1,0,0,1,.991,3.02" transform="translate(233.386 217.826)" fill="#54a88e"/>
        </g>
        <g id="g9110" transform="translate(9.896 16.946)">
          <path id="path9112" d="M-54.208,0V.513a4.61,4.61,0,0,1-.825,2.64h-.617a1.576,1.576,0,0,1-1.576-1.577A1.572,1.572,0,0,1-56.765.462,1.571,1.571,0,0,1-55.651,0Z" transform="translate(57.227 0)" fill="#a2e62e"/>
        </g>
        <g id="g9114" transform="translate(5.96 1.617)">
          <path id="path9116" d="M-107.11-152.088h0a5.1,5.1,0,0,1-.99-3.02v-1.273a4.174,4.174,0,0,0-4.174-4.174,4.193,4.193,0,0,0-.8.077,4.175,4.175,0,0,1,3.375,4.1v1.273a5.1,5.1,0,0,0,.99,3.02,5.1,5.1,0,0,1,.99,3.02v4.354a4.633,4.633,0,0,1-4.634,4.633h1.6a4.633,4.633,0,0,0,4.633-4.633v-4.354a5.1,5.1,0,0,0-.99-3.02" transform="translate(113.073 160.556)" fill="#8edf78"/>
        </g>
        <g id="g9118" transform="translate(0.527 25.919)">
          <path id="path9120" d="M-627.716-152.09h-34.949v-2.447a6.021,6.021,0,0,1,6.021-6.021h22.907a6.021,6.021,0,0,1,6.021,6.021Z" transform="translate(662.665 160.558)" fill="#fff3de"/>
        </g>
        <g id="g9122" transform="translate(27.857 25.919)">
          <path id="path9124" d="M-28.715,0h-1.6a6.021,6.021,0,0,1,6.021,6.021V8.468h1.6V6.021A6.021,6.021,0,0,0-28.715,0" transform="translate(30.313)" fill="#ffe5c2"/>
        </g>
        <g id="g9126" transform="translate(11.321 25.919)">
          <path id="path9128" d="M-361.43-79.243h-19.5a.628.628,0,0,1-.62-.726l.336-2.111a1.869,1.869,0,0,1,1.846-1.575h16.371a1.869,1.869,0,0,1,1.846,1.575l.336,2.111a.627.627,0,0,1-.62.726" transform="translate(381.553 83.654)" fill="#eaa998"/>
        </g>
        <g id="g9130" transform="translate(28.283 25.919)">
          <path id="path9132" d="M-67.91-66.2l-.336-2.111a1.869,1.869,0,0,0-1.846-1.575h-1.6a1.869,1.869,0,0,1,1.846,1.575l.336,2.111a.628.628,0,0,1-.62.726h1.6a.628.628,0,0,0,.62-.726" transform="translate(71.69 69.882)" fill="#e49280"/>
        </g>
        <g id="g9134" transform="translate(11.495 20.099)">
          <path id="path9136" d="M-338.158,0h-17.251a1.576,1.576,0,0,0-1.576,1.576v.009a1.576,1.576,0,0,0,1.576,1.576h17.251a1.576,1.576,0,0,0,1.576-1.576V1.576A1.576,1.576,0,0,0-338.158,0" transform="translate(356.986)" fill="#eaa998"/>
        </g>
        <g id="g9138" transform="translate(28.723 20.099)">
          <path id="path9140" d="M-28.715,0h-1.6a1.576,1.576,0,0,1,1.576,1.576v.009a1.576,1.576,0,0,1-1.576,1.576h1.6a1.576,1.576,0,0,0,1.576-1.576V1.576A1.576,1.576,0,0,0-28.715,0" transform="translate(30.313)" fill="#e49280"/>
        </g>
        <g id="g9142" transform="translate(11.495 16.946)">
          <path id="path9144" d="M-338.158-56.63h-17.251a1.576,1.576,0,0,1-1.576-1.576h0a1.576,1.576,0,0,1,1.576-1.576h17.251a1.576,1.576,0,0,1,1.576,1.576h0a1.576,1.576,0,0,1-1.576,1.576" transform="translate(356.986 59.783)" fill="#eaa998"/>
        </g>
        <g id="g9146" transform="translate(28.723 16.946)">
          <path id="path9148" d="M-28.715,0h-1.6a1.576,1.576,0,0,1,1.576,1.576h0a1.576,1.576,0,0,1-1.576,1.576h1.6a1.576,1.576,0,0,0,1.576-1.576h0A1.576,1.576,0,0,0-28.715,0" transform="translate(30.313 0)" fill="#e49280"/>
        </g>
        <g id="g9150" transform="translate(24.723 3.786)">
          <path id="path9152" d="M-116.28-58.14a3.237,3.237,0,0,1-3.237,3.237,3.237,3.237,0,0,1-3.237-3.237,3.237,3.237,0,0,1,3.237-3.237,3.237,3.237,0,0,1,3.237,3.237" transform="translate(122.754 61.377)" fill="#fec165"/>
        </g>
        <g id="g9154" transform="translate(27.161 3.786)">
          <path id="path9156" d="M-14.357,0a3.241,3.241,0,0,0-.8.1,3.238,3.238,0,0,1,2.438,3.137,3.238,3.238,0,0,1-2.438,3.137,3.244,3.244,0,0,0,.8.1A3.237,3.237,0,0,0-11.12,3.237,3.237,3.237,0,0,0-14.357,0" transform="translate(15.156)" fill="#fdb541"/>
        </g>
        <g id="g9158" transform="translate(27.43 27.595)">
          <path id="path9160" d="M-19.054-9.528a.53.53,0,0,1-.53.53.53.53,0,0,1-.53-.53.53.53,0,0,1,.53-.53.53.53,0,0,1,.53.53" transform="translate(20.115 10.059)"/>
        </g>
        <g id="g9162" transform="translate(14.903 27.595)">
          <path id="path9164" d="M-19.054-9.528a.53.53,0,0,1-.53.53.53.53,0,0,1-.53-.53.53.53,0,0,1,.53-.53.53.53,0,0,1,.53.53" transform="translate(20.115 10.059)"/>
        </g>
        <g id="g9166" transform="translate(11.321 25.919)">
          <path id="path9168" d="M-361.43-79.243h-19.5a.628.628,0,0,1-.62-.726l.336-2.111a1.869,1.869,0,0,1,1.846-1.575h16.371a1.869,1.869,0,0,1,1.846,1.575l.336,2.111A.627.627,0,0,1-361.43-79.243Z" transform="translate(381.553 83.654)" fill="none" stroke="#033726" stroke-linecap="round" stroke-linejoin="round" stroke-miterlimit="10" stroke-width="1"/>
        </g>
        <g id="g9170" transform="translate(13.323 30.331)">
          <path id="path9172" d="M-300.776-72.848l-.876-2.346a2.63,2.63,0,0,0-2.464-1.71h-10.066a2.63,2.63,0,0,0-2.464,1.71l-.876,2.346" transform="translate(317.522 76.904)" fill="none" stroke="#033726" stroke-linecap="round" stroke-linejoin="round" stroke-miterlimit="10" stroke-width="1"/>
        </g>
        <g id="g9174" transform="translate(11.495 20.099)">
          <path id="path9176" d="M-276.6,0H-290.42A1.576,1.576,0,0,0-292,1.576v.009a1.576,1.576,0,0,0,1.576,1.576h17.251a1.576,1.576,0,0,0,1.576-1.576V1.576A1.576,1.576,0,0,0-273.169,0h-.948" transform="translate(291.997)" fill="none" stroke="#033726" stroke-linecap="round" stroke-linejoin="round" stroke-miterlimit="10" stroke-width="1"/>
        </g>
        <g id="g9178" transform="translate(11.495 16.946)">
          <path id="path9180" d="M-28.314-56.63a1.576,1.576,0,0,1-1.576-1.576h0a1.576,1.576,0,0,1,1.576-1.576h17.251a1.576,1.576,0,0,1,1.576,1.576h0a1.576,1.576,0,0,1-1.576,1.576" transform="translate(29.891 59.783)" fill="none" stroke="#033726" stroke-linecap="round" stroke-linejoin="round" stroke-miterlimit="10" stroke-width="1"/>
        </g>
        <g id="g9182" transform="translate(15.433 23.261)">
          <path id="path9184" d="M0,0V2.659" fill="none" stroke="#000" stroke-linecap="round" stroke-linejoin="round" stroke-miterlimit="10" stroke-width="1"/>
        </g>
        <g id="g9186" transform="translate(27.96 23.261)">
          <path id="path9188" d="M0,0V2.659" fill="none" stroke="#033726" stroke-linecap="round" stroke-linejoin="round" stroke-miterlimit="10" stroke-width="1"/>
        </g>
        <g id="g9190" transform="translate(15.433 15.033)">
          <path id="path9192" d="M0,0V1.815" fill="none" stroke="#000" stroke-linecap="round" stroke-linejoin="round" stroke-miterlimit="10" stroke-width="1"/>
        </g>
        <g id="g9194" transform="translate(27.96 15.033)">
          <path id="path9196" d="M0,0V1.815" fill="none" stroke="#000" stroke-linecap="round" stroke-linejoin="round" stroke-miterlimit="10" stroke-width="1"/>
        </g>
        <g id="g9198" transform="translate(0.605 1.617)">
          <path id="path9200" d="M-221.077-230.7v-1.356a5.1,5.1,0,0,0-.991-3.02,5.119,5.119,0,0,1-.736-1.431,5.117,5.117,0,0,1-.254-1.589v-1.273a4.174,4.174,0,0,0-4.174-4.174,4.161,4.161,0,0,0-2.951,1.223,4.162,4.162,0,0,0-1.223,2.951v1.273a5.1,5.1,0,0,1-.99,3.02,5.116,5.116,0,0,0-.736,1.431,5.1,5.1,0,0,0-.254,1.589v4.354a4.633,4.633,0,0,0,4.633,4.633h3.042a4.632,4.632,0,0,0,3.962-2.229" transform="translate(233.386 243.542)" fill="none" stroke="#033726" stroke-linecap="round" stroke-linejoin="round" stroke-miterlimit="10" stroke-width="1"/>
        </g>
        <g id="g9202" transform="translate(6.76 8.862)">
          <path id="path9204" d="M0,0V21.469" fill="none" stroke="#033726" stroke-linecap="round" stroke-linejoin="round" stroke-miterlimit="10" stroke-width="1"/>
        </g>
        <g id="g9206" transform="translate(3.93 15.033)">
          <path id="path9208" d="M0,0,2.83,2.9" fill="none" stroke="#033726" stroke-linecap="round" stroke-linejoin="round" stroke-miterlimit="10" stroke-width="1"/>
        </g>
        <g id="g9210" transform="translate(6.76 11.854)">
          <path id="path9212" d="M-48.232,0l-2.685,2.757" transform="translate(50.917)" fill="none" stroke="#033726" stroke-linecap="round" stroke-linejoin="round" stroke-miterlimit="10" stroke-width="1"/>
        </g>
        <g id="g9214" transform="translate(9.246 25.919)">
          <path id="path9216" d="M0,0H20.21a6.021,6.021,0,0,1,6.021,6.021V8.468" fill="none" stroke="#033726" stroke-linecap="round" stroke-linejoin="round" stroke-miterlimit="10" stroke-width="1"/>
        </g>
        <g id="g9218" transform="translate(0.527 25.919)">
          <path id="path9220" d="M0-152.09v-2.447a6.021,6.021,0,0,1,6.021-6.021h.211" transform="translate(0 160.558)" fill="none" stroke="#033726" stroke-linecap="round" stroke-linejoin="round" stroke-miterlimit="10" stroke-width="1"/>
        </g>
        <g id="g9222" transform="translate(24.723 3.786)">
          <path id="path9224" d="M-116.28-58.14a3.237,3.237,0,0,1-3.237,3.237,3.237,3.237,0,0,1-3.237-3.237,3.237,3.237,0,0,1,3.237-3.237A3.237,3.237,0,0,1-116.28-58.14Z" transform="translate(122.754 61.377)" fill="none" stroke="#000" stroke-linecap="round" stroke-linejoin="round" stroke-miterlimit="10" stroke-width="1"/>
        </g>
      </g>
    </g>
  </g>
</svg>
