<svg width="44" height="44" viewBox="0 0 44 44" fill="none" xmlns="http://www.w3.org/2000/svg">
<g clip-path="url(#clip0_2546_8959)">
<path d="M3.54836 2.12939C5.11752 2.12939 6.38627 3.71976 6.38627 5.67767C6.38627 7.63558 5.11575 9.22594 3.54836 9.22594C2.07993 9.22594 0.873019 7.83526 0.724586 6.05405C0.717517 5.93389 0.710449 5.8049 0.710449 5.67767C0.710449 5.55044 0.717517 5.42144 0.724586 5.30128C0.873019 3.52008 2.07993 2.12939 3.54836 2.12939Z" fill="#FFC83F"/>
<path d="M35.96 7.09645H37.614C38.0045 7.09645 38.3597 6.94095 38.6141 6.67765C38.8774 6.42143 39.0329 6.06801 39.0329 5.67749C39.0329 4.89645 38.395 4.25854 37.614 4.25854H35.9529C35.8116 3.84681 35.6119 3.47749 35.3574 3.15765C36.1102 1.69629 37.4655 0.708496 39.0329 0.708496C41.3814 0.708496 43.2916 2.9297 43.2916 5.67572C43.2916 8.42175 41.3831 10.643 39.0329 10.643C37.4638 10.643 36.1084 9.65693 35.3574 8.1938C35.6136 7.87396 35.8116 7.50464 35.9529 7.09291H35.96V7.09645Z" fill="#FFC83F"/>
<path d="M4.96715 10.6449C2.72474 10.6449 0.886994 8.62161 0.722656 6.05406C0.87109 7.83527 2.078 9.22595 3.54643 9.22595C5.11559 9.22595 6.38434 7.63559 6.38434 5.67768C6.38434 3.71977 5.11382 2.12941 3.54643 2.12941C2.078 2.12941 0.87109 3.52009 0.722656 5.30129C0.886994 2.73198 2.72474 0.710449 4.96715 0.710449C6.89679 0.710449 8.5225 2.20716 9.04732 4.25872C9.16041 4.70579 9.22402 5.1882 9.22402 5.67768C9.22402 6.16716 9.16041 6.64957 9.04732 7.09663C8.5225 9.1482 6.89679 10.6449 4.96715 10.6449Z" fill="#FFC83F"/>
<path d="M37.6122 4.2583C38.3933 4.2583 39.0312 4.89621 39.0312 5.67726C39.0312 6.06778 38.8757 6.42296 38.6124 6.67742C38.3562 6.94071 38.0027 7.09621 37.6122 7.09621H35.9512C36.1067 6.66328 36.1933 6.18087 36.1933 5.67726C36.1933 5.17364 36.1084 4.69123 35.9512 4.2583H37.6122Z" fill="#FFC83F"/>
<path d="M9.46104 4.2583H10.6467C11.4278 4.2583 12.0657 4.89621 12.0657 5.67726C12.0657 6.06778 11.9102 6.42296 11.6469 6.67742C11.3907 6.94071 11.0373 7.09621 10.6467 7.09621H9.04932C9.16241 6.64914 9.22602 6.16673 9.22602 5.67726C9.22602 5.18778 9.16241 4.70537 9.04932 4.2583H9.46104Z" fill="#FFC83F"/>
<path d="M12.0636 2.12939C13.6328 2.12939 14.9016 3.71976 14.9016 5.67767C14.9016 7.63558 13.631 9.22594 12.0636 9.22594C10.8991 9.22594 9.89898 8.35301 9.45898 7.09662H10.6447C11.0352 7.09662 11.3904 6.94112 11.6448 6.67783C11.9081 6.4216 12.0636 6.06819 12.0636 5.67767C12.0636 4.89662 11.4257 4.25871 10.6447 4.25871H9.45898C9.89898 3.00233 10.8991 2.12939 12.0636 2.12939Z" fill="#65C3A5"/>
<path d="M34.0641 36.1929C36.022 36.1929 37.6123 37.7832 37.6123 39.7411C37.6123 41.6991 36.022 43.2894 34.0641 43.2894H12.7744C14.7323 43.2894 16.3227 41.6991 16.3227 39.7411C16.3227 37.7832 14.7323 36.1929 12.7744 36.1929H34.0641Z" fill="#65C3A5"/>
<path d="M35.3557 8.19751C34.8379 8.82835 34.1346 9.22594 33.3536 9.22594H12.064C13.6331 9.22594 14.9019 7.63558 14.9019 5.67767C14.9019 3.71976 13.6314 2.12939 12.064 2.12939H33.3536C34.1346 2.12939 34.8362 2.52698 35.3557 3.15783C35.6119 3.47767 35.8098 3.84698 35.9512 4.25871C36.1067 4.69164 36.1933 5.17405 36.1933 5.67767C36.1933 6.18128 36.1085 6.66369 35.9512 7.09662C35.8098 7.50835 35.6101 7.87767 35.3557 8.19751Z" fill="#65C3A5"/>
<path d="M12.0638 9.226C10.8993 9.226 9.89914 8.35307 9.45914 7.09668H9.22412V24.838L12.062 26.257L9.22412 27.676V39.7397C9.22412 41.6976 10.8145 43.288 12.7724 43.288C14.7303 43.288 16.3207 41.6976 16.3207 39.7397C16.3207 37.7818 14.7303 36.1915 12.7724 36.1915H33.3534V9.226H12.0638Z" fill="#E9F3E8"/>
<path d="M21.2897 14.193L20.5794 17.7413H13.4828L12.7725 14.193L14.9018 14.9033L17.0311 12.0654L19.1604 14.9033L21.2897 14.193Z" fill="#FFC83F"/>
<path d="M39.0328 0C37.5449 0 36.1507 0.773976 35.2159 2.05863C34.6752 1.65574 34.039 1.42072 33.3552 1.42072H12.0655C10.9859 1.42072 9.991 2.00032 9.32835 2.96161C8.4837 1.19807 6.84562 0 4.96723 0C2.3608 0 0.220884 2.30956 0.0194378 5.23229C0.00706827 5.37896 0 5.52739 0 5.67759C0 5.82779 0.00706827 5.97622 0.0194378 6.12289C0.219116 9.04562 2.3608 11.3552 4.96723 11.3552C6.35614 11.3552 7.61253 10.6978 8.5155 9.64289V25.2779L10.4769 26.2586L8.5155 27.2394V39.7431C8.5155 42.0916 10.4257 44.0018 12.7741 44.0018H34.0638C36.4122 44.0018 38.3224 42.0916 38.3224 39.7431C38.3224 37.3947 36.4122 35.4845 34.0638 35.4845V9.84964C34.479 9.74892 34.866 9.5563 35.2141 9.29655C36.1489 10.5812 37.5431 11.3552 39.031 11.3552C41.77 11.3552 43.9982 8.80884 43.9982 5.67759C43.9982 2.54635 41.7717 0 39.0328 0ZM36.8504 4.96723H37.6138C38.0061 4.96723 38.3242 5.2853 38.3242 5.67759C38.3242 6.06988 38.0061 6.38795 37.6138 6.38795H36.8504C36.8822 6.15647 36.9035 5.91968 36.9035 5.67759C36.9035 5.4355 36.8822 5.19871 36.8504 4.96723ZM12.0638 2.83791C13.2371 2.83791 14.1931 4.1102 14.1931 5.67582C14.1931 7.24145 13.2371 8.51373 12.0638 8.51373C11.5407 8.51373 11.0459 8.25044 10.6625 7.80161C11.827 7.791 12.7724 6.84209 12.7724 5.67406C12.7724 4.50602 11.827 3.55711 10.6625 3.54651C11.0442 3.09767 11.5407 2.83438 12.0638 2.83438V2.83791ZM9.89205 6.38795C9.91679 6.1547 9.93446 5.91968 9.93446 5.67759C9.93446 5.4355 9.91679 5.20048 9.89205 4.96723H10.6448C11.0371 4.96723 11.3552 5.2853 11.3552 5.67759C11.3552 6.06988 11.0371 6.38795 10.6448 6.38795H9.89205ZM1.41896 5.67759C1.41896 4.11197 2.37494 2.83968 3.54827 2.83968C4.72161 2.83968 5.67759 4.11197 5.67759 5.67759C5.67759 7.24321 4.72161 8.5155 3.54827 8.5155C2.37494 8.5155 1.41896 7.24321 1.41896 5.67759ZM4.96723 9.93622C4.72514 9.93622 4.48659 9.90618 4.25687 9.84964C5.87373 9.45382 7.09478 7.73446 7.09478 5.67759C7.09478 3.62072 5.87373 1.90137 4.25687 1.50554C4.48659 1.449 4.72337 1.41896 4.96723 1.41896C6.92337 1.41896 8.5155 3.32916 8.5155 5.67759C8.5155 8.02602 6.92337 9.93622 4.96723 9.93622ZM36.9035 39.7414C36.9035 41.307 35.6312 42.5793 34.0655 42.5793H15.946C16.621 41.8247 17.0328 40.8299 17.0328 39.7414C17.0328 38.6528 16.621 37.6562 15.946 36.9035H34.0655C35.6312 36.9035 36.9035 38.1757 36.9035 39.7414ZM12.7741 35.4845V36.9035C14.3398 36.9035 15.612 38.1757 15.612 39.7414C15.612 41.307 14.3398 42.5793 12.7741 42.5793C11.2085 42.5793 9.93622 41.307 9.93622 39.7414V28.1158L13.6524 26.2586L9.93622 24.4014V9.07566C10.5388 9.61639 11.2757 9.93446 12.0655 9.93446H32.6466V35.4827H12.7759L12.7741 35.4845ZM33.3552 8.5155H14.702C15.2657 7.76096 15.6138 6.76787 15.6138 5.67759C15.6138 4.58731 15.2675 3.59245 14.702 2.83968H33.3552C34.5285 2.83968 35.4845 4.11197 35.4845 5.67759C35.4845 7.24321 34.5285 8.5155 33.3552 8.5155ZM39.0328 9.93622C37.9178 9.93622 36.8628 9.28594 36.1949 8.2204C36.2779 8.08787 36.3539 7.95004 36.4228 7.80691H37.6138C38.7871 7.80691 39.7431 6.85092 39.7431 5.67759C39.7431 4.50426 38.7871 3.54827 37.6138 3.54827H36.4228C36.3539 3.40514 36.2761 3.26731 36.1949 3.13478C36.8628 2.06924 37.9178 1.41896 39.0328 1.41896C40.9889 1.41896 42.581 3.32916 42.581 5.67759C42.581 8.02602 40.9889 9.93622 39.0328 9.93622Z" fill="#083F2F"/>
<path d="M21.1624 18.452L22.2262 13.1331L19.4218 14.0679L17.0328 10.8818L14.6437 14.0679L11.8394 13.1331L12.9031 18.452H21.1624ZM15.1632 15.7395L17.031 13.2479L18.8988 15.7395L20.3531 15.2553L19.9979 17.033H14.0641L13.7089 15.2553L15.1632 15.7395Z" fill="#083F2F"/>
<path d="M24.1294 14.1929H25.5484V15.6118H24.1294V14.1929Z" fill="#083F2F"/>
<path d="M26.9673 14.1929H31.2259V15.6118H26.9673V14.1929Z" fill="#083F2F"/>
<path d="M11.355 19.8706H31.2257V21.2896H11.355V19.8706Z" fill="#083F2F"/>
<path d="M11.355 22.7104H31.2257V24.1294H11.355V22.7104Z" fill="#083F2F"/>
<path d="M15.6118 25.5483H31.2239V26.9673H15.6118V25.5483Z" fill="#083F2F"/>
<path d="M14.1929 28.3882H31.2256V29.8071H14.1929V28.3882Z" fill="#083F2F"/>
<path d="M15.6118 31.2261H17.0308V32.645H15.6118V31.2261Z" fill="#083F2F"/>
<path d="M18.4517 31.2261H19.8706V32.645H18.4517V31.2261Z" fill="#083F2F"/>
<path d="M21.2896 31.2261H22.7085V32.645H21.2896V31.2261Z" fill="#083F2F"/>
<path d="M24.1294 31.2261H25.5484V32.645H24.1294V31.2261Z" fill="#083F2F"/>
<path d="M12.7739 31.2261H14.1929V32.645H12.7739V31.2261Z" fill="#083F2F"/>
</g>
<defs>
<clipPath id="clip0_2546_8959">
<rect width="44" height="44" fill="white"/>
</clipPath>
</defs>
</svg>
