<svg id="zoom-in_2_" data-name="zoom-in (2)" xmlns="http://www.w3.org/2000/svg" width="21.316" height="21.286" viewBox="0 0 21.316 21.286">
  <path id="Path_79261" data-name="Path 79261" d="M115.545,27.212a7.954,7.954,0,0,1,6.744-7.861,7.952,7.952,0,1,0,0,15.721A7.954,7.954,0,0,1,115.545,27.212Z" transform="translate(-111.593 -18.473)" fill="#e2d7d0"/>
  <path id="Path_79262" data-name="Path 79262" d="M98.784,17.873a8.794,8.794,0,0,0,8.784-8.784c-.483-11.654-17.088-11.65-17.569,0A8.794,8.794,0,0,0,98.784,17.873Zm0-15.9A7.127,7.127,0,0,1,105.9,9.089c-.391,9.444-13.849,9.442-14.238,0A7.127,7.127,0,0,1,98.784,1.97Z" transform="translate(-90 -0.35)" fill="#574b46"/>
  <path id="Path_79263" data-name="Path 79263" d="M260.419,382.393l3.747,3.726a.833.833,0,0,1-1.174,1.181l-3.747-3.726a.833.833,0,1,1,1.174-1.181Z" transform="translate(-243.096 -366.255)" fill="#574b46"/>
</svg>
