<svg id="Sports_Service" data-name="Sports Service" xmlns="http://www.w3.org/2000/svg" width="64" height="64" viewBox="0 0 64 64">
  <rect id="Rectangle_156002" data-name="Rectangle 156002" width="64" height="64" fill="none"/>
  <g id="Group_184934" data-name="Group 184934" transform="translate(20584.977 16713.232)">
    <path id="Path_84900" data-name="Path 84900" d="M3045.518,54.917l-4-1.418v3.148l4-1.418a.166.166,0,0,0,0-.312" transform="translate(-23607.896 -16746.916)" fill="#ffc941"/>
    <path id="Path_84901" data-name="Path 84901" d="M3195.368,54.917l-4-1.418v3.148l4-1.418a.166.166,0,0,0,0-.312" transform="translate(-23732.846 -16746.916)" fill="#ffc941"/>
    <path id="Path_84902" data-name="Path 84902" d="M3120.427,47.158l-4-1.418v3.148l4-1.418a.166.166,0,0,0,0-.312" transform="translate(-23670.359 -16740.445)" fill="#ffc941"/>
    <path id="Path_84903" data-name="Path 84903" d="M3028.782,159.588c9.647,0,17.468,1.778,17.468,3.97s-7.821,3.97-17.468,3.97-17.468-1.778-17.468-3.97,7.821-3.97,17.468-3.97" transform="translate(-23582.709 -16835.375)" fill="#54a88e"/>
    <path id="Path_84904" data-name="Path 84904" d="M3046.035,108.007h-35.042l2.78,12.058h.008c.219,1.164,7.665,2.308,14.734,2.308s14.8-1.144,15.016-2.308h.007Z" transform="translate(-23582.441 -16792.365)" fill="#e8e7d9"/>
    <path id="Path_84905" data-name="Path 84905" d="M3028.512,81.819c9.677,0,17.521,1.948,17.521,4.352s-7.845,4.352-17.521,4.352-17.521-1.948-17.521-4.352,7.844-4.352,17.521-4.352" transform="translate(-23582.441 -16770.529)" fill="#ffc941"/>
    <path id="Path_84906" data-name="Path 84906" d="M3072.717,117.651c-4.811,0-8.712.969-8.712,2.164,0,0,0,.007,0,.01a66.241,66.241,0,0,0,17.423,0s0-.007,0-.01c0-1.195-3.9-2.164-8.712-2.164" transform="translate(-23626.645 -16800.406)" fill="#54a88e"/>
    <path id="Path_84907" data-name="Path 84907" d="M3102.2,165.985h-5.208a.752.752,0,0,0-.752.752v3.9c.994.048,2,.075,3.01.081h.692c1-.005,2.011-.033,3.01-.08v-3.9a.752.752,0,0,0-.752-.752" transform="translate(-23653.52 -16840.709)" fill="#ffc941"/>
    <path id="Path_84908" data-name="Path 84908" d="M3075.88,148.25c.649.062,1.32.115,1.993.157h.034a.528.528,0,0,0,.032-1.055c-.661-.042-1.321-.094-1.959-.155a.528.528,0,1,0-.1,1.051" transform="translate(-23636.148 -16825.041)" fill="#033726"/>
    <path id="Path_84909" data-name="Path 84909" d="M3139.739,148.409h.033c.673-.042,1.344-.1,1.993-.157a.528.528,0,0,0-.1-1.051c-.638.061-1.3.113-1.959.155a.528.528,0,0,0,.033,1.055" transform="translate(-23689.354 -16825.043)" fill="#033726"/>
    <path id="Path_84910" data-name="Path 84910" d="M3107.809,149.95c.331,0,.667.007,1,.007s.668,0,1-.007a.528.528,0,0,0-.014-1.056c-.652.009-1.316.009-1.968,0a.528.528,0,0,0-.015,1.056" transform="translate(-23662.734 -16826.457)" fill="#033726"/>
    <path id="Path_84911" data-name="Path 84911" d="M3171.477,143.88a.533.533,0,0,0,.086-.007c.689-.112,1.353-.237,1.975-.373a.528.528,0,1,0-.224-1.032c-.6.131-1.25.253-1.921.362a.528.528,0,0,0,.084,1.049" transform="translate(-23715.818 -16821.09)" fill="#033726"/>
    <path id="Path_84912" data-name="Path 84912" d="M3044.25,143.5c.621.135,1.286.261,1.975.373a.528.528,0,0,0,.17-1.042c-.671-.109-1.317-.231-1.92-.362a.528.528,0,0,0-.224,1.032" transform="translate(-23609.826 -16821.09)" fill="#033726"/>
    <path id="Path_84913" data-name="Path 84913" d="M3143.025,171.747a.528.528,0,0,0,.527.495h.034c.673-.042,1.344-.1,1.993-.157a.528.528,0,1,0-.1-1.051c-.639.061-1.3.113-1.959.155a.529.529,0,0,0-.494.56" transform="translate(-23692.531 -16844.914)" fill="#033726"/>
    <path id="Path_84914" data-name="Path 84914" d="M3072.067,172.084c.649.062,1.32.115,1.993.157h.034a.528.528,0,0,0,.032-1.055c-.662-.042-1.321-.094-1.959-.155a.528.528,0,0,0-.1,1.051" transform="translate(-23632.969 -16844.914)" fill="#033726"/>
    <path id="Path_84915" data-name="Path 84915" d="M3175.206,166.665a.528.528,0,0,0,.17,1.042c.689-.112,1.353-.238,1.975-.373a.528.528,0,0,0-.225-1.032c-.6.131-1.25.253-1.92.362" transform="translate(-23718.998 -16840.963)" fill="#033726"/>
    <path id="Path_84916" data-name="Path 84916" d="M3040.438,167.335c.621.135,1.286.261,1.975.373a.528.528,0,0,0,.17-1.042c-.671-.109-1.317-.231-1.921-.362a.528.528,0,1,0-.224,1.032" transform="translate(-23606.648 -16840.963)" fill="#033726"/>
    <path id="Path_84917" data-name="Path 84917" d="M3041.786,63.759l2.013-9.715a1.692,1.692,0,0,0,.115-.606c0-.788-.551-1.511-1.638-2.149a10.793,10.793,0,0,0-1.783-.809l-.018-.006q-.74-.266-1.631-.5h0V47.9l3.645-1.293a.694.694,0,0,0,0-1.307l-4-1.418a.528.528,0,0,0-.7.5v5.328a55.233,55.233,0,0,0-11.4-1.148V46.611l3.645-1.293a.694.694,0,0,0,0-1.307l-4-1.418a.528.528,0,0,0-.7.5V48.56a55.239,55.239,0,0,0-11.4,1.148h0V47.9l3.644-1.293a.693.693,0,0,0,0-1.307l-4-1.418a.528.528,0,0,0-.7.5v5.587a14.156,14.156,0,0,0-3.436,1.322c-1.086.638-1.638,1.361-1.638,2.149a1.7,1.7,0,0,0,.141.669l2.2,9.555c-1.52.664-2.29,1.442-2.29,2.317,0,1.371,1.86,2.489,5.527,3.322a66.683,66.683,0,0,0,24.937,0c3.668-.834,5.527-1.952,5.527-3.322,0-.834-.7-1.579-2.073-2.221m-2.941-18.631,2.328.826-2.328.826Zm-12.454-1.289,2.329.826-2.329.826Zm-12.447,1.289,2.328.826-2.328.826Zm24.182,5.745q.508.126.971.263l-1.8,1.165a.528.528,0,1,0,.573.887l2.508-1.623a9.209,9.209,0,0,1,1.362.635c.72.423,1.116.863,1.116,1.239a.722.722,0,0,1-.1.349,3.2,3.2,0,0,1-1.367,1.082A15.846,15.846,0,0,1,3038.125,56l-.269.065-.091.021-.172.04-.076.017c-.8.181-1.667.342-2.578.481a2.435,2.435,0,0,0-1.053-.863l1.911-1.236a.528.528,0,1,0-.574-.887l-2.563,1.658q-.243-.072-.51-.138a19.264,19.264,0,0,0-1.993-.374l3.36-4.736a38.908,38.908,0,0,1,4.607.82m-11.734-1.257c2.063.015,4.062.119,5.927.3l-3.357,4.731c-.818-.076-1.682-.121-2.57-.134Zm-.528,5.952a26.237,26.237,0,0,1,6.033.618,6.738,6.738,0,0,1,1.714.623l-.021,0-.41.049-.087.01-.343.038-.107.011-.357.036-.071.007q-.685.067-1.391.119h-.009q-.954.07-1.936.113h-.02l-.482.019h-.005c-.323.012-.649.021-.975.028h-.076l-.385.007-.129,0-.347,0h-.131l-.465,0-.463,0h-.133l-.342,0-.135,0-.376-.007-.084,0q-.48-.011-.957-.028l-.053,0-.429-.017-.058,0q-.717-.031-1.42-.077l-.058,0-.4-.028-.075-.005-.432-.034h-.019l-.446-.038-.1-.009-.315-.03-.166-.016-.25-.025-.185-.019-.235-.026-.352-.041-.188-.022-.07-.009a6.747,6.747,0,0,1,1.714-.623,26.236,26.236,0,0,1,6.033-.618m-.528-5.952v4.9c-.89.013-1.755.059-2.574.135L3019.4,49.92c1.867-.185,3.868-.289,5.932-.3m-16.328,4.228c-.009-.015-.02-.03-.028-.045l0-.009c-.014-.025-.026-.049-.038-.074a.663.663,0,0,1-.067-.279c0-.376.4-.816,1.116-1.239a9.263,9.263,0,0,1,1.362-.635l2.509,1.623a.528.528,0,1,0,.573-.887l-1.8-1.165q.464-.136.971-.263a38.868,38.868,0,0,1,4.6-.82l3.36,4.736a19.26,19.26,0,0,0-1.988.373q-.267.066-.509.138l-2.563-1.658a.528.528,0,1,0-.574.887l1.91,1.236a2.433,2.433,0,0,0-1.054.863c-.887-.135-1.729-.291-2.513-.466L3014,56.1h0l-.262-.063h-.006a16.4,16.4,0,0,1-3.357-1.148l-.054-.026-.024-.013c-.109-.056-.212-.113-.31-.17a2.911,2.911,0,0,1-.979-.833m1.142,5.085c.247.115.513.228.8.337a.528.528,0,0,0,.378-.986c-.349-.134-.669-.274-.951-.416a.526.526,0,0,0-.47,0l-.536-2.326.084.051a15.092,15.092,0,0,0,3.9,1.44l.1.023h0l.3.072.007,0a53.612,53.612,0,0,0,10.885,1.182h.1l.3,0h1.658l.294,0h.111a54.02,54.02,0,0,0,10.725-1.147l.187-.043.1-.023.269-.065h0l.287-.073.033-.008q.293-.077.565-.155l.016,0,.26-.076.044-.013.211-.065.082-.026.154-.05.125-.042h0a11.49,11.49,0,0,0,2.12-.927c.049-.029.1-.058.143-.087l-.5,2.421a.526.526,0,0,0-.563-.057c-.282.142-.6.282-.951.416a.528.528,0,0,0,.379.986c.34-.131.655-.268.941-.408l-1.058,5.105-.278,1.342a.43.43,0,0,0-.014.043c-.2.233-1.456.778-4.874,1.269-1.762.253-3.746.441-5.751.549V63.824a1.281,1.281,0,0,0-1.28-1.28h-5.208a1.281,1.281,0,0,0-1.28,1.28v3.341c-1.972-.109-3.911-.3-5.622-.548-3.316-.489-4.526-1.032-4.72-1.264a.487.487,0,0,0-.02-.059l-.157-.68Zm18.541,4.9v3.392l-.163.006-.351.013-.282.009-.336.009-.288.006-.328.006-.287,0-.265,0V63.6h2.076a.224.224,0,0,1,.224.224m-3.355-.224v3.672l-.26,0-.3,0-.306-.006-.317-.007-.289-.008-.338-.01-.271-.01-.223-.009V63.824a.224.224,0,0,1,.224-.224Zm16.373,3.46a15.123,15.123,0,0,1-3.611,1.212,65.664,65.664,0,0,1-24.468,0,15.11,15.11,0,0,1-3.61-1.212c-.7-.374-1.1-.768-1.1-1.08,0-.486.839-.97,1.476-1.267l.208.9a.507.507,0,0,0,.017.055l0,.013c.005.013.01.026.016.038v0c.159.445.7.8,1.722,1.126a23.672,23.672,0,0,0,3.479.758,67.426,67.426,0,0,0,8.9.714h.033c.244,0,.489.007.731.008h.817l.482-.005.213,0,.648-.014h.047a69.426,69.426,0,0,0,8.3-.7,25.5,25.5,0,0,0,3.573-.757c1.069-.335,1.612-.678,1.771-1.129l0-.008c.005-.012.01-.024.015-.036l.006-.018a.546.546,0,0,0,.016-.057l.161-.778c1.139.574,1.238,1.019,1.238,1.155,0,.313-.4.707-1.094,1.08" transform="translate(-23579.791 -16737.795)" fill="#033726"/>
  </g>
</svg>
