<svg id="Streets" xmlns="http://www.w3.org/2000/svg" width="64" height="64" viewBox="0 0 64 64">
  <rect id="Rectangle_156014" data-name="Rectangle 156014" width="64" height="64" fill="none"/>
  <g id="Group_185097" data-name="Group 185097" transform="translate(11 15.001)">
    <g id="Group_185099" data-name="Group 185099" transform="translate(0 0)">
      <path id="Path_85215" data-name="Path 85215" d="M120.407,58.523c-.092.059-.172.016-.254-.014a149.855,149.855,0,0,1-16.506-6.775,25.862,25.862,0,0,1-4.23-2.531,5.148,5.148,0,0,1-1.222-1.22,1.069,1.069,0,0,1,.11-1.5,5.3,5.3,0,0,1,1.414-1.056A38.682,38.682,0,0,1,105.353,43c3.463-1.277,6.985-2.39,10.416-3.755.945-.376,1.88-.777,2.792-1.229.063-.032.13-.056.239-.1-.052.2-.191.249-.292.322a43.972,43.972,0,0,1-6.157,3.561c-1.592.8-3.207,1.564-4.725,2.506a8.911,8.911,0,0,0-1.756,1.357,2.319,2.319,0,0,0-.335,3.205,9.078,9.078,0,0,0,2.019,2.173,42.856,42.856,0,0,0,6.876,4.4c1.864,1.016,3.766,1.959,5.677,2.882.106.051.246.063.3.2" transform="translate(-79.157 -26.311)" fill="#63c3a5"/>
      <path id="Path_85216" data-name="Path 85216" d="M3.921,79.776c-.185.147-.372.291-.555.441a7.151,7.151,0,0,0-1.4,1.469,3.611,3.611,0,0,0-.246,3.981,7.918,7.918,0,0,0,1.685,2.11c1.091,1.016,7.461,5.037,7.461,5.037s-3.654.1-3.7.068a31.877,31.877,0,0,1-4.757-3.933A10.27,10.27,0,0,1,.489,86.311a3.865,3.865,0,0,1,.784-4.764,10.278,10.278,0,0,1,2.584-1.841l.064.07" transform="translate(-1 -59.782)" fill="#ffc941"/>
      <path id="Path_85217" data-name="Path 85217" d="M90.426,2.56c0-.272-.075-.381-.361-.429-1.846-.313-3.693-.613-5.546-.879A133.343,133.343,0,0,0,66.173.008C65.592,0,65.06-.011,64.5.021c.667.071,1.079.07,1.665.109.7.034,1.4.061,2.1.1,2.686.155,5.37.32,8.05.572A85.4,85.4,0,0,1,89.754,3.095c.693.179.68.179.672-.535" transform="translate(-52.133 0)" fill="#ffc941"/>
      <path id="Path_85218" data-name="Path 85218" d="M48.7,35.526c-4.4-1.7-8.783-3.451-13.085-5.5a45.292,45.292,0,0,1-7.387-4.188,10.048,10.048,0,0,1-2.3-2.173,2.774,2.774,0,0,1,.2-3.944,7.315,7.315,0,0,1,.913-.822,14.677,14.677,0,0,1,1.835-1.187,69.38,69.38,0,0,1,6.879-3.17C39.541,12.95,43.329,11.39,47,9.433A5.364,5.364,0,0,0,48.215,8.6a1.361,1.361,0,0,0,.011-2.233,6.208,6.208,0,0,0-1.84-1.156A38.445,38.445,0,0,0,37.764,2.8,103.3,103.3,0,0,0,26.9,1.374c-1.957-.159-3.916-.288-5.876-.339S17.1.968,15.254,1.066a10.007,10.007,0,0,0,1.5.145c2.649.179,5.294.411,7.935.72l.218.018A93.246,93.246,0,0,1,35.583,3.73,18.918,18.918,0,0,1,40,5.243a3.062,3.062,0,0,1,1.076.841A.952.952,0,0,1,41.1,7.292a2.349,2.349,0,0,1-.525.527,7.951,7.951,0,0,1-1.717.946C36.1,9.95,33.271,10.8,30.46,11.746A104.1,104.1,0,0,0,18.7,16.225a23.575,23.575,0,0,0-5.859,3.683,7.871,7.871,0,0,0-1.856,2.356,4.686,4.686,0,0,0-.165,3.91A7.705,7.705,0,0,0,12.006,28.2a16.333,16.333,0,0,0,2.91,2.8,46.8,46.8,0,0,0,7.706,4.657,1.008,1.008,0,0,0,.48.083H33.927c.089,0,.179-.014.358-.03-.217-.121-.342-.187-.464-.259a14.23,14.23,0,0,1-1.737-1.029,3.052,3.052,0,0,1,2.109.248c.534.343,1.1.6,1.65.914a1.209,1.209,0,0,0,.618.16q6.13-.007,12.259,0c.106,0,.213-.011.319-.017a.874.874,0,0,0-.335-.192M39.019,3.616l-.924-.2L37.2,3.251a24.239,24.239,0,0,1-2.784-.529,17.873,17.873,0,0,1,2.8.385l.892.168a4.881,4.881,0,0,1,1.089.251A14.785,14.785,0,0,1,43.26,4.834a3.287,3.287,0,0,1,1.271.879,1.145,1.145,0,0,1,.087,1.59,2.692,2.692,0,0,1-2.074,1.333c.478-.335.878-.579,1.246-.88,1.109-.908,1.066-1.764-.114-2.529-.167-.108-.339-.2-.509-.3a21.214,21.214,0,0,0-4.149-1.308M41.8,9.32a1.5,1.5,0,0,1-1.307.322A1.582,1.582,0,0,1,41.8,9.32m-2.23,1.055a2.4,2.4,0,0,1-1.7.371,2.382,2.382,0,0,1,1.7-.371m-2.686,1.08a2.086,2.086,0,0,1-1.72.326,2.6,2.6,0,0,1,1.72-.326m-2.73,1.06a3.392,3.392,0,0,1-2.278.49,3.552,3.552,0,0,1,2.278-.49m-3.078,1.24a4.015,4.015,0,0,1-2.67.54,4.04,4.04,0,0,1,2.67-.54M17.663,22.61a2.941,2.941,0,0,1,.389-2.279,6.244,6.244,0,0,1,1.7-1.755,26.249,26.249,0,0,1,4.865-2.722c.365-.167.732-.326,1.1-.482a4.006,4.006,0,0,1,.9-.347,4.151,4.151,0,0,1,1.219.046c-.322.138-.644.275-.965.413A43.028,43.028,0,0,0,21.1,18.361a10.368,10.368,0,0,0-1.74,1.3c-1.226,1.174-1.386,2.085-.649,3.8-.787.089-.846.038-1.051-.846m.9,1.78a1.155,1.155,0,0,1,1.364.5,6.213,6.213,0,0,0,.669.68c-.986.385-1.466-.455-2.033-1.183m2.276,2.326a1.718,1.718,0,0,1,1.721.487,8.73,8.73,0,0,0,.962.751c-.818.3-1.648-.085-2.683-1.238m3.3,2.62c1.108-.433,1.926.429,2.829,1.013a2.809,2.809,0,0,1-2.829-1.013m3.426,2.393c1.508-.483,2.57.693,3.776,1.31-1.48.524-2.561-.6-3.776-1.31m4.466,2.648.029-.015.008.041-.036-.026" transform="translate(-8.459 -0.804)" fill="#023726"/>
      <path id="Path_85219" data-name="Path 85219" d="M207.029,37.784l-.015.028-.038-.027c.009-.008.017-.024.026-.024s.018.015.027.022" transform="translate(-167.285 -28.829)" fill="#687521"/>
    </g>
  </g>
</svg>
