<svg width="57" height="31" viewBox="0 0 57 31" fill="none" xmlns="http://www.w3.org/2000/svg">
<g clip-path="url(#clip0_32_7346)">
<path d="M16.6678 4.48835C21.3517 4.23569 26.029 4.51476 30.6708 5.67164L30.6708 5.67166C36.5332 7.13342 42.1291 9.64048 47.0522 14.4366L47.0522 14.4367C49.6854 17.0026 51.8908 20.1177 53.274 24.1705L16.6678 4.48835ZM16.6678 4.48835C16.605 4.49091 16.5419 4.49346 16.4787 4.49602C15.0457 4.55393 13.5118 4.61592 12.0148 4.9639L12.0988 5.56405M16.6678 4.48835L53.2741 24.171C53.4815 24.7766 53.6569 25.4122 53.8293 26.0434C56.5192 22.0681 56.7436 16.5569 54.3092 11.8988C52.5084 8.45528 49.9977 6.23011 47.1808 4.54361L47.1807 4.54354C42.1789 1.54719 36.8597 0.588528 31.4014 0.505707L31.4012 0.505705C24.0897 0.392645 16.919 1.9692 9.81426 4.42599C8.27797 4.95723 6.75254 5.50733 5.24599 6.1257C7.52819 5.81934 9.81237 5.63333 12.0988 5.56405M16.6678 4.48835C16.6667 4.48841 16.6656 4.48847 16.6645 4.48853L16.6792 4.75894L16.6678 4.48835ZM12.0988 5.56405L12.153 5.95029C12.7848 5.91866 13.3805 5.9054 13.9605 5.89248C14.888 5.87183 15.7752 5.85207 16.7058 5.75959L12.1539 5.5624C12.1471 5.5626 12.1403 5.5628 12.1336 5.563C12.122 5.56335 12.1104 5.5637 12.0988 5.56405ZM20.5621 5.83414C20.5609 5.83399 20.5598 5.83384 20.5586 5.8337C20.5598 5.83368 20.5609 5.83366 20.5621 5.83365C20.5621 5.83381 20.5621 5.83397 20.5621 5.83414Z" fill="#63C3A5" stroke="#033726"/>
<path d="M16.8798 30.9839L16.936 30.4871C16.8456 30.4769 16.7609 30.4675 16.6813 30.4587C16.2999 30.4164 16.0364 30.3872 15.8368 30.3426C15.7222 30.317 15.6606 30.2925 15.6281 30.2746C15.6135 30.2666 15.6075 30.2614 15.6062 30.2601C15.6052 30.2592 15.6052 30.2592 15.6047 30.2584L15.6047 30.2583C15.5959 30.244 15.5551 30.1526 15.583 29.8032C15.6091 29.4759 15.683 29.0292 15.7899 28.3826L15.7939 28.3582L15.794 28.3579C16.0372 26.8816 16.1742 25.3879 16.2137 23.881L16.2137 23.8809C16.3662 18.036 14.4324 13.7696 10.3224 11.4214C10.1717 11.3353 10.0206 11.2523 9.86917 11.1725C10.4303 11.4074 10.9861 11.6795 11.5364 11.9939L11.5365 11.9939C16.8914 15.0509 19.5231 21.7356 18.1455 29.045L18.1455 29.0453C18.0207 29.7095 17.8852 30.0824 17.7146 30.2835C17.5898 30.4306 17.4008 30.5391 16.9353 30.487L16.8798 30.9839ZM16.8798 30.9839C18.0294 31.1125 18.3873 30.4657 18.6369 29.1376L10.0744 11.8555C13.9772 14.0854 15.8632 18.1453 15.7138 23.8679C15.675 25.3531 15.54 26.8241 15.3006 28.2767C15.0709 29.6657 14.9658 30.2786 15.2241 30.5828C15.4488 30.8474 15.9483 30.8786 16.8798 30.9839Z" fill="#FFC941" stroke="#033726"/>
<path d="M43.7979 15.0735C43.7931 15.0176 43.7901 14.9615 43.7884 14.9044C47.4118 18.3466 50.1638 22.4244 51.306 28.2622L51.3061 28.2624C51.3614 28.5444 51.2938 28.9146 51.1348 29.2295C51.0738 29.3504 51.0057 29.4497 50.9395 29.5239C50.9378 29.5139 50.9359 29.5037 50.9339 29.4934C49.8639 23.8235 47.5124 19.2907 44.0755 15.7544L44.0751 15.7539C43.8973 15.5714 43.8234 15.3733 43.7979 15.0735Z" fill="#54A88E" stroke="#033726"/>
<path d="M41.6005 13.0649L41.6008 13.0652C41.7065 13.1441 41.7573 13.2387 41.763 13.4813C41.7639 13.5171 41.7636 13.5543 41.7625 13.5933C40.6626 12.7148 39.6021 11.9348 38.4775 11.3095C38.3119 11.2173 38.2613 11.1242 38.2382 10.9938C38.2304 10.9503 38.226 10.9026 38.2248 10.8496C39.3867 11.4513 40.4867 12.2326 41.6005 13.0649Z" fill="#54A88E" stroke="#033726"/>
<mask id="path-5-inside-1_32_7346" fill="white">
<path d="M32.7147 8.4395C32.6799 7.72341 33.0093 7.8601 33.2854 7.97638C34.39 8.44358 35.4864 8.95361 36.595 9.40041C37.0717 9.59218 37.1392 10.0533 37.0328 10.5408C36.861 11.3181 36.501 10.702 36.2657 10.6061C35.2614 10.2001 34.2713 9.72275 33.2731 9.28208C32.952 9.13927 32.6288 9.02094 32.7127 8.4395H32.7147Z"/>
</mask>
<path d="M32.7147 8.4395C32.6799 7.72341 33.0093 7.8601 33.2854 7.97638C34.39 8.44358 35.4864 8.95361 36.595 9.40041C37.0717 9.59218 37.1392 10.0533 37.0328 10.5408C36.861 11.3181 36.501 10.702 36.2657 10.6061C35.2614 10.2001 34.2713 9.72275 33.2731 9.28208C32.952 9.13927 32.6288 9.02094 32.7127 8.4395H32.7147Z" fill="#54A88E"/>
<path d="M32.7147 8.4395V9.4395H33.7645L33.7135 8.39099L32.7147 8.4395ZM33.2854 7.97638L33.675 7.05538L33.6735 7.05477L33.2854 7.97638ZM36.595 9.40041L36.2213 10.3279L36.2218 10.3281L36.595 9.40041ZM37.0328 10.5408L38.0092 10.7567L38.0098 10.754L37.0328 10.5408ZM36.2657 10.6061L36.6432 9.6801L36.6405 9.67901L36.2657 10.6061ZM33.2731 9.28208L32.8668 10.1958L32.8693 10.1969L33.2731 9.28208ZM32.7127 8.4395V7.4395H31.8466L31.7229 8.29674L32.7127 8.4395ZM33.7135 8.39099C33.7075 8.26644 33.7256 8.28982 33.6936 8.38074C33.6747 8.43458 33.6338 8.52418 33.55 8.6171C33.4618 8.71493 33.3492 8.79063 33.2244 8.83588C32.9982 8.91793 32.8263 8.86761 32.8233 8.86682C32.81 8.86337 32.8146 8.86315 32.8973 8.898L33.6735 7.05477C33.6182 7.03147 33.478 6.97056 33.3264 6.93115C33.1851 6.8944 32.8812 6.83286 32.5425 6.95572C32.1424 7.10083 31.9127 7.41673 31.8071 7.71662C31.7145 7.97968 31.7045 8.25451 31.7159 8.488L33.7135 8.39099ZM32.8959 8.89739C33.9437 9.3406 35.1152 9.8822 36.2213 10.3279L36.9688 8.47289C35.8575 8.02503 34.8362 7.54655 33.675 7.05538L32.8959 8.89739ZM36.2218 10.3281C36.2166 10.3261 36.1824 10.3102 36.144 10.2685C36.1059 10.2271 36.0867 10.1853 36.0789 10.1606C36.0723 10.1397 36.0767 10.1407 36.0763 10.1736C36.076 10.2063 36.0711 10.2574 36.0558 10.3277L38.0098 10.754C38.0821 10.4227 38.1225 9.99098 37.9862 9.55883C37.8342 9.07688 37.4875 8.68157 36.9683 8.47269L36.2218 10.3281ZM36.0564 10.325C36.0446 10.3781 36.0398 10.3782 36.0539 10.3481C36.0664 10.3213 36.118 10.2178 36.2429 10.1164C36.3866 9.99959 36.5742 9.92937 36.7716 9.92838C36.9444 9.92752 37.0657 9.97981 37.1121 10.0025C37.1605 10.0261 37.1837 10.0456 37.1725 10.0371C37.1621 10.0292 37.1475 10.0171 37.1084 9.98382C37.0787 9.9586 37.0207 9.90886 36.959 9.86258C36.902 9.81989 36.7903 9.74009 36.6432 9.68011L35.8883 11.5322C35.7643 11.4816 35.6937 11.4062 35.8129 11.5076C35.8522 11.541 36.0269 11.6982 36.2339 11.7994C36.3508 11.8565 36.5415 11.9296 36.7816 11.9284C37.0463 11.927 37.2989 11.8354 37.5042 11.6685C37.8471 11.3899 37.9589 10.9841 38.0092 10.7567L36.0564 10.325ZM36.6405 9.67901C35.6525 9.27962 34.7197 8.82758 33.677 8.36726L32.8693 10.1969C33.823 10.6179 34.8703 11.1207 35.891 11.5332L36.6405 9.67901ZM33.6795 8.36835C33.6289 8.34587 33.6027 8.33459 33.5696 8.31945C33.5407 8.30623 33.5247 8.29816 33.5155 8.29313C33.4949 8.28198 33.5305 8.29767 33.5771 8.34837C33.6017 8.37513 33.6265 8.40848 33.6478 8.44779C33.6691 8.48713 33.6826 8.52456 33.6904 8.55622C33.7056 8.61757 33.6946 8.63621 33.7024 8.58226L31.7229 8.29674C31.6509 8.79565 31.737 9.30206 32.1049 9.70218C32.3883 10.0103 32.7841 10.159 32.8668 10.1958L33.6795 8.36835ZM32.7127 9.4395H32.7147V7.4395H32.7127V9.4395Z" fill="#033726" mask="url(#path-5-inside-1_32_7346)"/>
<path d="M29.1752 7.28373C29.174 7.25966 29.1736 7.23367 29.174 7.20564C29.2121 7.21291 29.2536 7.21956 29.2967 7.22423C29.487 7.28069 29.6849 7.3396 29.8884 7.40018C30.4556 7.569 31.066 7.75071 31.6755 7.92797C31.6947 7.93361 31.7059 7.93908 31.7116 7.94231C31.7171 7.94544 31.7191 7.9474 31.7195 7.94777C31.7199 7.94817 31.7211 7.94938 31.7232 7.95278C31.7254 7.95643 31.7292 7.96383 31.7335 7.97669C31.7465 8.01586 31.7553 8.07934 31.7519 8.17234C31.4698 8.0882 31.184 8.00049 30.896 7.91214C30.3384 7.74106 29.7729 7.56754 29.2115 7.41275L29.0786 7.89475L29.212 7.41288C29.2047 7.41085 29.1993 7.40898 29.1955 7.40747C29.1949 7.40613 29.1944 7.40458 29.1937 7.40281C29.1869 7.38325 29.1785 7.34617 29.1752 7.28373ZM31.7486 8.22748L31.6232 8.65574L31.7486 8.22748Z" fill="#54A88E" stroke="#033726"/>
<path d="M25.5109 6.43887C26.2728 6.58659 27.0351 6.74288 27.7969 6.90403V6.98682C27.7969 6.99351 27.7969 7.00007 27.7969 7.00651C27.7969 7.01659 27.7969 7.02636 27.7969 7.03586C27.1381 6.90284 26.4805 6.75204 25.8148 6.59938C25.7154 6.57659 25.6158 6.55375 25.516 6.53093C25.5154 6.5242 25.5148 6.51694 25.5142 6.50913C25.5126 6.48721 25.5116 6.46401 25.5109 6.43887Z" fill="#54A88E" stroke="#033726"/>
<path d="M23.1715 6.0841V6.10305L22.62 6.04597C22.546 6.03831 22.4568 6.0258 22.382 6.01531C22.3441 6.00999 22.3099 6.00519 22.2832 6.0018C22.22 5.99377 22.1666 5.98864 22.1192 5.9868C22.2433 6.00607 22.3662 6.02557 22.488 6.04491C22.9973 6.12576 23.4887 6.20377 23.9843 6.25042L23.1715 6.0841ZM23.1715 6.0841C23.4194 6.10633 23.6595 6.1295 23.9046 6.16409L23.9048 6.16412C23.9297 6.16763 23.9631 6.17188 23.9908 6.17542C24.0061 6.17738 24.0198 6.17912 24.0293 6.18039C24.0611 6.18465 24.0855 6.18839 24.1058 6.1923C24.1077 6.21136 24.1089 6.23707 24.1082 6.27066C24.0722 6.26252 24.03 6.25471 23.9845 6.25043L23.1715 6.0841ZM24.0825 6.47264C24.0825 6.47263 24.0825 6.47251 24.0826 6.47228L24.0825 6.47264Z" fill="#54A88E" stroke="#033726"/>
<mask id="path-10-inside-2_32_7346" fill="white">
<path d="M16.0398 7.60006C18.3798 7.98361 20.6647 8.66094 22.8493 9.90339C20.3578 9.26482 17.9339 8.18967 15.3954 7.8918C13.9902 7.78572 12.6463 7.55314 11.1837 7.54498C9.3223 7.53682 7.77589 7.42665 5.67106 7.4797C3.93646 7.68779 2.19778 7.83264 0.5 8.46101C1.90936 8.55485 3.31872 8.47733 4.72194 8.56913C8.57364 8.82211 12.3517 9.58512 15.8188 12.07C18.9873 14.3407 21.1249 17.7294 21.8654 22.5645C22.2418 25.0168 22.1927 27.4854 21.8449 29.9315C21.7324 30.7292 21.8306 30.9781 22.4463 30.974C26.2796 30.9475 30.1149 30.9475 33.9482 30.974C34.5353 30.9781 34.7276 30.7312 34.6376 29.9396C34.4678 28.4238 34.2673 26.9223 33.9748 25.4391C33.8909 25.0168 33.4389 24.3925 34.1057 24.1477C34.6376 23.9539 35.0855 24.1171 35.286 24.9964C35.6296 26.5102 36.0081 28.024 36.0633 29.6051C36.1042 30.8108 36.5133 30.9985 37.2926 30.9822C39.8843 30.925 42.478 30.9087 45.0697 30.9883C46.0127 31.0168 46.0658 30.6843 45.7611 29.5949C43.9712 23.2092 40.4857 19.0065 36.4601 15.1058C30.4627 9.29134 16.0357 7.21448 16.0357 7.21448C14.8922 7.12471 13.757 7.07371 12.6156 6.99414M23.9007 10.7276C25.353 10.6664 26.4044 11.8986 27.5417 12.8596C26.1119 12.8473 25.1423 11.3478 23.9007 10.7276ZM27.9283 13.8103C29.6772 13.9857 30.567 15.8586 31.6593 17.3479C29.8081 17.3866 29.3438 14.6855 27.9283 13.8103ZM32.8682 21.7872C32.4305 20.7223 31.9559 19.6838 31.3627 18.3271C33.4962 18.5862 33.5964 21.0569 34.5517 22.5298C33.3387 22.9828 33.353 22.9705 32.8682 21.7872Z"/>
</mask>
<path d="M16.0398 7.60006C18.3798 7.98361 20.6647 8.66094 22.8493 9.90339C20.3578 9.26482 17.9339 8.18967 15.3954 7.8918C13.9902 7.78572 12.6463 7.55314 11.1837 7.54498C9.3223 7.53682 7.77589 7.42665 5.67106 7.4797C3.93646 7.68779 2.19778 7.83264 0.5 8.46101C1.90936 8.55485 3.31872 8.47733 4.72194 8.56913C8.57364 8.82211 12.3517 9.58512 15.8188 12.07C18.9873 14.3407 21.1249 17.7294 21.8654 22.5645C22.2418 25.0168 22.1927 27.4854 21.8449 29.9315C21.7324 30.7292 21.8306 30.9781 22.4463 30.974C26.2796 30.9475 30.1149 30.9475 33.9482 30.974C34.5353 30.9781 34.7276 30.7312 34.6376 29.9396C34.4678 28.4238 34.2673 26.9223 33.9748 25.4391C33.8909 25.0168 33.4389 24.3925 34.1057 24.1477C34.6376 23.9539 35.0855 24.1171 35.286 24.9964C35.6296 26.5102 36.0081 28.024 36.0633 29.6051C36.1042 30.8108 36.5133 30.9985 37.2926 30.9822C39.8843 30.925 42.478 30.9087 45.0697 30.9883C46.0127 31.0168 46.0658 30.6843 45.7611 29.5949C43.9712 23.2092 40.4857 19.0065 36.4601 15.1058C30.4627 9.29134 16.0357 7.21448 16.0357 7.21448C14.8922 7.12471 13.757 7.07371 12.6156 6.99414M23.9007 10.7276C25.353 10.6664 26.4044 11.8986 27.5417 12.8596C26.1119 12.8473 25.1423 11.3478 23.9007 10.7276ZM27.9283 13.8103C29.6772 13.9857 30.567 15.8586 31.6593 17.3479C29.8081 17.3866 29.3438 14.6855 27.9283 13.8103ZM32.8682 21.7872C32.4305 20.7223 31.9559 19.6838 31.3627 18.3271C33.4962 18.5862 33.5964 21.0569 34.5517 22.5298C33.3387 22.9828 33.353 22.9705 32.8682 21.7872Z" fill="#958374"/>
<path d="M22.8493 9.90339L22.601 10.8721L23.3436 9.03414L22.8493 9.90339ZM15.3954 7.8918L15.512 6.89862L15.4914 6.8962L15.4707 6.89464L15.3954 7.8918ZM11.1837 7.54498L11.1893 6.54499L11.1881 6.54499L11.1837 7.54498ZM5.67106 7.4797L5.64586 6.48001L5.59874 6.4812L5.55194 6.48681L5.67106 7.4797ZM0.5 8.46101L0.1529 7.52318L0.433559 9.4588L0.5 8.46101ZM4.72194 8.56913L4.78748 7.57128L4.78722 7.57127L4.72194 8.56913ZM15.8188 12.07L15.2363 12.8828L15.2363 12.8828L15.8188 12.07ZM21.8654 22.5645L20.8769 22.7159L20.877 22.7162L21.8654 22.5645ZM21.8449 29.9315L20.8549 29.7907L20.8547 29.7918L21.8449 29.9315ZM22.4463 30.974L22.4529 31.974L22.4532 31.974L22.4463 30.974ZM33.9482 30.974L33.9552 29.974H33.9551L33.9482 30.974ZM34.6376 29.9396L33.6438 30.051L33.644 30.0526L34.6376 29.9396ZM33.9748 25.4391L34.9559 25.2456L34.9557 25.2443L33.9748 25.4391ZM34.1057 24.1477L33.7633 23.2081L33.7611 23.2089L34.1057 24.1477ZM35.286 24.9964L36.2612 24.775L36.261 24.7741L35.286 24.9964ZM36.0633 29.6051L37.0627 29.5712L37.0627 29.5702L36.0633 29.6051ZM37.2926 30.9822L37.3136 31.9819L37.3147 31.9819L37.2926 30.9822ZM45.0697 30.9883L45.039 31.9878L45.0394 31.9878L45.0697 30.9883ZM45.7611 29.5949L46.7241 29.3254L46.724 29.325L45.7611 29.5949ZM36.4601 15.1058L35.764 15.8237L35.7642 15.8239L36.4601 15.1058ZM16.0357 7.21448L16.1782 6.22468L16.1462 6.22007L16.1139 6.21754L16.0357 7.21448ZM23.9007 10.7276L23.8586 9.72849L19.9891 9.89156L23.4538 11.6222L23.9007 10.7276ZM27.5417 12.8596L27.5331 13.8595L30.3027 13.8832L28.1871 12.0957L27.5417 12.8596ZM27.9283 13.8103L28.0281 12.8153L27.4024 14.6608L27.9283 13.8103ZM31.6593 17.3479L31.6802 18.3477L33.6032 18.3074L32.4657 16.7565L31.6593 17.3479ZM32.8682 21.7872L33.7935 21.4081L33.7931 21.4071L32.8682 21.7872ZM31.3627 18.3271L31.4833 17.3344L29.7449 17.1233L30.4465 18.7278L31.3627 18.3271ZM34.5517 22.5298L34.9014 23.4667L36.0685 23.0309L35.3907 21.9857L34.5517 22.5298ZM15.878 8.5869C18.1339 8.95665 20.2987 9.60324 22.3549 10.7726L23.3436 9.03414C21.0306 7.71864 18.6257 7.01057 16.2015 6.61323L15.878 8.5869ZM23.0976 8.9347C21.8851 8.62394 20.7152 8.21439 19.4383 7.81535C18.1895 7.42512 16.8767 7.05875 15.512 6.89862L15.2789 8.88499C16.4526 9.02272 17.621 9.34286 18.8417 9.72431C20.0342 10.097 21.322 10.5443 22.601 10.8721L23.0976 8.9347ZM15.4707 6.89464C14.2033 6.79896 12.6828 6.55333 11.1893 6.545L11.1781 8.54496C12.6097 8.55295 13.777 8.77247 15.3201 8.88897L15.4707 6.89464ZM11.1881 6.54499C9.41985 6.53724 7.75153 6.42695 5.64586 6.48001L5.69625 8.47938C7.80024 8.42636 9.22475 8.5364 11.1793 8.54497L11.1881 6.54499ZM5.55194 6.48681C3.87189 6.68837 1.98879 6.84369 0.1529 7.52318L0.8471 9.39883C2.40676 8.82159 4.00103 8.68721 5.79017 8.47258L5.55194 6.48681ZM0.433559 9.4588C1.17365 9.50808 1.90861 9.51202 2.60784 9.51582C3.31712 9.51967 3.99004 9.52339 4.65665 9.567L4.78722 7.57127C4.05061 7.52307 3.31724 7.51964 2.6187 7.51585C1.9101 7.512 1.23571 7.50778 0.566441 7.46321L0.433559 9.4588ZM4.6564 9.56698C8.42122 9.81425 11.9853 10.5529 15.2363 12.8828L16.4014 11.2572C12.7181 8.61739 8.72605 7.82997 4.78748 7.57128L4.6564 9.56698ZM15.2363 12.8828C18.1655 14.982 20.1732 18.1209 20.8769 22.7159L22.8539 22.4131C22.0766 17.3379 19.8092 13.6994 16.4014 11.2572L15.2363 12.8828ZM20.877 22.7162C21.236 25.0555 21.1913 27.4241 20.8549 29.7907L22.835 30.0722C23.194 27.5466 23.2475 24.978 22.8538 22.4128L20.877 22.7162ZM20.8547 29.7918C20.8241 30.0091 20.8003 30.2371 20.8051 30.4537C20.8098 30.6641 20.8421 30.9507 20.9933 31.2297C21.367 31.9196 22.0869 31.9764 22.4529 31.974L22.4397 29.974C22.3364 29.9747 22.3555 29.9616 22.4276 29.9886C22.4711 30.0049 22.5335 30.0356 22.5987 30.0904C22.6655 30.1464 22.7166 30.212 22.7518 30.2771C22.8155 30.3947 22.8059 30.4698 22.8046 30.4093C22.8034 30.3549 22.8095 30.2528 22.8351 30.0711L20.8547 29.7918ZM22.4532 31.974C26.2819 31.9475 30.1126 31.9475 33.9413 31.974L33.9551 29.974C30.1172 29.9475 26.2773 29.9475 22.4394 29.974L22.4532 31.974ZM33.9413 31.974C34.3244 31.9766 34.9677 31.9076 35.3706 31.3221C35.7075 30.8324 35.6774 30.2336 35.6312 29.8267L33.644 30.0526C33.6622 30.2128 33.6597 30.2957 33.6562 30.3282C33.6528 30.3597 33.6542 30.2883 33.723 30.1883C33.7584 30.1369 33.8037 30.0898 33.8559 30.0514C33.9069 30.0139 33.9531 29.9931 33.984 29.9822C34.0365 29.9637 34.0427 29.9746 33.9552 29.974L33.9413 31.974ZM35.6313 29.8283C35.4602 28.3003 35.2561 26.7678 34.9559 25.2456L32.9937 25.6326C33.2785 27.0768 33.4754 28.5474 33.6438 30.051L35.6313 29.8283ZM34.9557 25.2443C34.9339 25.1347 34.9038 25.0354 34.8789 24.9597C34.8544 24.8853 34.8261 24.808 34.8072 24.7553C34.7856 24.6954 34.7709 24.6531 34.7596 24.6163C34.7543 24.5989 34.7507 24.5857 34.7482 24.576C34.7471 24.5712 34.7462 24.5676 34.7457 24.5651C34.7452 24.5626 34.745 24.5615 34.745 24.5615C34.745 24.5615 34.7453 24.563 34.7456 24.5659C34.7459 24.5687 34.7464 24.5732 34.7467 24.5791C34.7474 24.5908 34.7478 24.6097 34.7458 24.6344C34.7416 24.6856 34.7269 24.7605 34.6855 24.8428C34.643 24.9272 34.5864 24.9915 34.5326 25.0349C34.4824 25.0753 34.4473 25.0876 34.4504 25.0864L33.7611 23.2089C33.4277 23.3314 33.0933 23.5575 32.8988 23.9439C32.7149 24.3096 32.7347 24.6666 32.7725 24.8922C32.8096 25.1132 32.8846 25.3192 32.9251 25.4318C32.9499 25.5009 32.9655 25.5436 32.9792 25.5851C32.9924 25.6253 32.9948 25.6379 32.994 25.6339L34.9557 25.2443ZM34.4481 25.0872C34.5006 25.0681 34.5048 25.0753 34.4714 25.0748C34.453 25.0745 34.4251 25.0718 34.3912 25.0624C34.3567 25.0528 34.3229 25.038 34.2923 25.0189C34.2287 24.9794 34.213 24.9435 34.2258 24.9657C34.2409 24.9918 34.2763 25.0664 34.311 25.2187L36.261 24.7741C36.1356 24.2242 35.8821 23.6522 35.348 23.3203C34.7825 22.9689 34.1836 23.055 33.7633 23.2081L34.4481 25.0872ZM34.3108 25.2178C34.6628 26.7682 35.0127 28.1751 35.0639 29.64L37.0627 29.5702C37.0034 27.8728 36.5965 26.2521 36.2612 24.775L34.3108 25.2178ZM35.0639 29.639C35.0859 30.2893 35.204 30.9915 35.7104 31.4751C36.2306 31.9719 36.9043 31.9905 37.3136 31.9819L37.2717 29.9824C37.1081 29.9858 37.0318 29.9758 37.0015 29.9688C36.9853 29.9651 37.0355 29.975 37.0917 30.0287C37.1446 30.0792 37.1406 30.1095 37.1206 30.0428C37.0983 29.9688 37.0713 29.8249 37.0627 29.5712L35.0639 29.639ZM37.3147 31.9819C39.8966 31.925 42.4713 31.909 45.039 31.9878L45.1004 29.9888C42.4848 29.9085 39.872 29.9251 37.2706 29.9824L37.3147 31.9819ZM45.0394 31.9878C45.311 31.996 45.6323 31.9851 45.934 31.8847C46.2828 31.7687 46.6211 31.525 46.8015 31.1069C46.9539 30.7536 46.9372 30.3964 46.9064 30.1514C46.8736 29.8906 46.8028 29.6067 46.7241 29.3254L44.798 29.8643C44.8718 30.1278 44.9086 30.294 44.922 30.401C44.9284 30.4512 44.9264 30.4658 44.9271 30.4555C44.9278 30.4444 44.9326 30.39 44.9651 30.3147C45.0004 30.2329 45.0579 30.1513 45.1355 30.0853C45.2088 30.023 45.2743 29.9964 45.3028 29.9869C45.3287 29.9783 45.3296 29.9819 45.2899 29.9856C45.2514 29.9892 45.1906 29.9915 45.1 29.9887L45.0394 31.9878ZM46.724 29.325C44.8657 22.6952 41.2393 18.3443 37.156 14.3876L35.7642 15.8239C39.7321 19.6688 43.0768 23.7232 44.7982 29.8648L46.724 29.325ZM37.1562 14.3878C33.9651 11.2941 28.6443 9.26831 24.2738 8.01827C22.0622 7.38571 20.0433 6.93823 18.5773 6.64878C17.8438 6.50394 17.2473 6.3984 16.8327 6.32886C16.6254 6.29408 16.4635 6.26828 16.3526 6.25106C16.2971 6.24244 16.2543 6.23598 16.2251 6.2316C16.2104 6.22941 16.1991 6.22774 16.1913 6.22659C16.1873 6.22601 16.1843 6.22557 16.1821 6.22525C16.181 6.22509 16.1801 6.22496 16.1795 6.22487C16.1791 6.22482 16.1788 6.22477 16.1786 6.22475C16.1784 6.22471 16.1782 6.22468 16.0357 7.21448C15.8932 8.20427 15.8931 8.20426 15.893 8.20425C15.8931 8.20426 15.8931 8.20426 15.8932 8.20427C15.8934 8.20431 15.8938 8.20437 15.8945 8.20447C15.8958 8.20466 15.898 8.20497 15.901 8.20542C15.9071 8.20631 15.9166 8.20771 15.9294 8.20963C15.9551 8.21346 15.9941 8.21936 16.0458 8.22738C16.1491 8.24342 16.303 8.26793 16.5018 8.30129C16.8997 8.36803 17.4772 8.47017 18.1899 8.6109C19.6164 8.89256 21.579 9.3277 23.7239 9.94116C28.0662 11.1832 32.9577 13.103 35.764 15.8237L37.1562 14.3878ZM16.1139 6.21754C14.9802 6.12854 13.7783 6.07277 12.6851 5.99656L12.546 7.99172C13.7356 8.07465 14.8043 8.12088 15.9574 8.21141L16.1139 6.21754ZM23.9428 11.7267C24.3532 11.7094 24.7585 11.8659 25.2566 12.223C25.8083 12.6185 26.2293 13.0598 26.8963 13.6234L28.1871 12.0957C27.7168 11.6984 27.0434 11.0431 26.422 10.5976C25.747 10.1137 24.9004 9.68459 23.8586 9.72849L23.9428 11.7267ZM27.5502 11.8596C27.1925 11.8565 26.8219 11.6712 26.2694 11.236C26.1369 11.1317 26.0039 11.0214 25.8601 10.9021C25.7196 10.7854 25.5678 10.6592 25.4132 10.5368C25.1061 10.2935 24.7495 10.0338 24.3475 9.833L23.4538 11.6222C23.6726 11.7315 23.9029 11.8919 24.1714 12.1045C24.3046 12.2101 24.438 12.3208 24.5826 12.4409C24.7239 12.5583 24.8761 12.6845 25.0318 12.8072C25.6319 13.2798 26.4611 13.8503 27.5331 13.8595L27.5502 11.8596ZM27.8285 14.8053C28.3312 14.8557 28.775 15.1449 29.2796 15.7358C29.5311 16.0303 29.7741 16.3718 30.0352 16.7548C30.2864 17.1233 30.5663 17.5484 30.8529 17.9393L32.4657 16.7565C32.2062 16.4027 31.9652 16.0352 31.6877 15.6282C31.4201 15.2357 31.1265 14.8187 30.8004 14.4369C30.1499 13.6752 29.2743 12.9403 28.0281 12.8153L27.8285 14.8053ZM31.6384 16.3481C31.2966 16.3553 30.9908 16.1527 30.4602 15.3638C30.25 15.0512 29.9337 14.5326 29.6586 14.152C29.3599 13.7387 28.9738 13.281 28.4542 12.9597L27.4024 14.6608C27.5905 14.7772 27.7932 14.9853 28.0376 15.3234C28.3055 15.6942 28.4863 16.0126 28.8006 16.4798C29.3189 17.2506 30.1708 18.3793 31.6802 18.3477L31.6384 16.3481ZM33.7931 21.4071C33.3499 20.3287 32.8635 19.2633 32.2789 17.9265L30.4465 18.7278C31.0483 20.1043 31.511 21.1158 31.9433 22.1674L33.7931 21.4071ZM31.2421 19.3199C31.8199 19.39 32.1554 19.7122 32.502 20.4154C32.685 20.7866 32.8314 21.183 33.0219 21.6595C33.2004 22.1059 33.4161 22.6166 33.7126 23.074L35.3907 21.9857C35.2096 21.7066 35.0545 21.3561 34.8789 20.9169C34.7153 20.5078 34.5241 19.9941 34.296 19.5312C33.8203 18.5661 33.0389 17.5234 31.4833 17.3344L31.2421 19.3199ZM34.2019 21.593C34.0479 21.6505 33.926 21.6959 33.8215 21.7323C33.716 21.7691 33.6483 21.7897 33.6033 21.8009C33.5565 21.8126 33.5642 21.8063 33.6048 21.8059C33.6543 21.8055 33.7449 21.8139 33.8489 21.861C33.9524 21.9077 34.017 21.9692 34.0471 22.0036C34.0716 22.0317 34.0708 22.0392 34.0471 21.9947C34.0242 21.9519 33.9933 21.8865 33.9489 21.783C33.9047 21.68 33.8559 21.5603 33.7935 21.4081L31.9428 22.1663C32.0537 22.4368 32.1671 22.7202 32.2833 22.9376C32.3966 23.1496 32.6101 23.4957 33.0248 23.6833C33.4434 23.8726 33.8466 23.8015 34.0868 23.7416C34.3316 23.6806 34.62 23.5717 34.9014 23.4667L34.2019 21.593Z" fill="#033726" mask="url(#path-10-inside-2_32_7346)"/>
</g>
<defs>
<clipPath id="clip0_32_7346">
<rect width="56" height="31" fill="white" transform="translate(0.5)"/>
</clipPath>
</defs>
</svg>
