<svg width="40" height="39" viewBox="0 0 40 39" fill="none" xmlns="http://www.w3.org/2000/svg">
<g clip-path="url(#clip0_2549_9231)">
<path d="M27.8054 38.0013L12.1914 38.1154L17.459 13.4136H22.5363L27.804 38.0013H27.8054Z" fill="#E9F3E8"/>
<path d="M3.01514 14.4418V2.26807H10.898V14.1314L3.01514 14.4402V14.4418Z" fill="#428E6D"/>
<path d="M10.8979 2.26813L13.6172 0.675293V6.57045L11.0823 6.55676L10.8979 2.26813Z" fill="#428E6D"/>
<path d="M29.1006 6.57039V2.26807H36.9834V14.4418H34.5139L29.1006 6.57039Z" fill="#FFC83F"/>
<path d="M5.47707 14.4421V8.82227H13.6156V31.4004H10.5737L5.47559 14.4421H5.47707Z" fill="#65C3A5"/>
<path d="M13.623 8.81629L15.6733 6.5708L15.6926 21.702L14.1687 26.2797L13.623 8.81629Z" fill="#65C3A5"/>
<path d="M5.47705 8.81629L8.2692 6.5708H15.6718L13.6156 8.82237L5.47705 8.81629Z" fill="#65C3A5"/>
<path d="M0.663086 17.6338H8.51917V38.1155H0.663086V17.6338Z" fill="#FFC83F"/>
<path d="M0.663086 17.6337L3.01515 14.4404H10.5754L8.51322 17.6337H0.663086Z" fill="#FFC83F"/>
<path d="M8.51318 38.1153L10.5753 31.4002V14.4419L8.51318 17.4191V38.1153Z" fill="#FFC83F"/>
<path d="M3.01514 2.26813L6.95656 0.675293H13.6173L10.5754 2.26813H3.01514Z" fill="#428E6D"/>
<path d="M29.4214 31.4004H26.3735V8.82227H34.5121V14.4421L29.4214 31.4004Z" fill="#428E6D"/>
<path d="M26.3738 8.81629L24.3235 6.5708L24.3042 21.702L26.2162 27.0464L26.3738 8.81629Z" fill="#428E6D"/>
<path d="M34.5125 8.81629L31.7278 6.5708H24.3252L26.3754 8.92278L34.514 8.81477L34.5125 8.81629Z" fill="#428E6D"/>
<path d="M39.3385 38.1111H31.4824V17.6294H39.3385V38.1111Z" fill="#65C3A5"/>
<path d="M39.3342 17.6337L36.9821 14.4404H29.4219L31.4781 17.6337H39.3342Z" fill="#65C3A5"/>
<path d="M31.4781 38.1153L29.4219 31.4002V14.4419L31.4781 17.6352V38.1169V38.1153Z" fill="#65C3A5"/>
<path d="M29.1003 2.26813L26.3735 0.675293V6.57045L29.014 6.38181L29.0988 2.26813H29.1003Z" fill="#FFC83F"/>
<path d="M36.9831 2.26813L33.0417 0.675293H26.3735L29.2504 2.22097L36.9816 2.26813H36.9831Z" fill="#FFC83F"/>
<path d="M12.1917 38.7878C12.1456 38.7878 12.0996 38.7817 12.0535 38.7741C11.6981 38.6934 11.4751 38.3375 11.5539 37.9739L16.8156 13.272C16.8944 12.9084 17.2423 12.6802 17.5976 12.7608C17.953 12.8415 18.176 13.1974 18.0972 13.561L12.8355 38.2629C12.7701 38.5717 12.4936 38.7878 12.1917 38.7878Z" fill="#083F2F"/>
<path d="M27.8055 38.7876C27.5037 38.7876 27.2346 38.5731 27.1618 38.2567L21.9001 13.5548C21.8213 13.1912 22.0443 12.8352 22.3997 12.7546C22.755 12.674 23.1029 12.9098 23.1817 13.2658L28.4434 37.9676C28.5222 38.3312 28.2992 38.6872 27.9438 38.7679C27.8977 38.7816 27.8516 38.7876 27.8055 38.7876Z" fill="#083F2F"/>
<path d="M13.6175 32.0726H10.5756C10.2143 32.0726 9.91844 31.7699 9.91844 31.4002C9.91844 31.0305 10.2143 30.7278 10.5756 30.7278H12.9604V9.48695H6.13462V14.4343C6.13462 14.804 5.83875 15.1067 5.47746 15.1067C5.11618 15.1067 4.82031 14.804 4.82031 14.4343V8.81452C4.82031 8.44483 5.11618 8.14209 5.47746 8.14209H13.616C13.9773 8.14209 14.2732 8.44483 14.2732 8.81452V31.4002C14.2732 31.7699 13.9847 32.0726 13.616 32.0726H13.6175Z" fill="#083F2F"/>
<path d="M15.6926 22.3727C15.3313 22.3727 15.0355 22.0699 15.0355 21.7002L15.0221 8.27752L14.1092 9.27856C13.8594 9.54783 13.4461 9.56153 13.1829 9.31203C12.9198 9.05644 12.9064 8.63351 13.1502 8.36424L15.2005 6.11875C15.3848 5.91641 15.6673 5.84948 15.9231 5.9514C16.1728 6.05181 16.3364 6.30131 16.3364 6.57667L16.3557 21.7078C16.3498 22.0714 16.0539 22.3727 15.6926 22.3727Z" fill="#083F2F"/>
<path d="M5.47733 9.48709C5.27959 9.48709 5.08929 9.40037 4.95845 9.23151C4.73544 8.94245 4.78153 8.51952 5.06996 8.2898L7.86211 6.04432C7.98105 5.94999 8.11783 5.90283 8.26948 5.90283H15.6721C16.0334 5.90283 16.3293 6.20558 16.3293 6.57526C16.3293 6.94494 16.0334 7.24769 15.6721 7.24769H8.49844L5.89065 9.35169C5.76577 9.43841 5.62155 9.48557 5.47733 9.48557V9.48709Z" fill="#083F2F"/>
<path d="M3.01506 15.1143C2.65378 15.1143 2.35791 14.8115 2.35791 14.4418V2.26813C2.35791 1.89845 2.65378 1.5957 3.01506 1.5957H10.8979C11.2592 1.5957 11.5551 1.89845 11.5551 2.26813V6.57654C11.5551 6.94623 11.2592 7.24897 10.8979 7.24897C10.5366 7.24897 10.2408 6.94623 10.2408 6.57654V2.94056H3.67073V14.4418C3.67073 14.8115 3.37486 15.1143 3.01357 15.1143H3.01506Z" fill="#083F2F"/>
<path d="M8.51314 38.788H0.663011C0.301726 38.788 0.00585938 38.4852 0.00585938 38.1155V17.6339C0.00585938 17.2642 0.301726 16.9614 0.663011 16.9614H8.51909C8.88038 16.9614 9.17624 17.2642 9.17624 17.6339V38.1155C9.1703 38.4852 8.88037 38.788 8.51314 38.788ZM1.32016 37.4431H7.86343V18.3063H1.32016V37.4431Z" fill="#083F2F"/>
<path d="M8.51324 18.3064C8.38835 18.3064 8.26346 18.273 8.15196 18.1923C7.85014 17.99 7.76391 17.5747 7.9676 17.2582L9.35326 15.1147H3.34226L1.1805 18.0387C0.963434 18.3338 0.550113 18.3947 0.260193 18.1665C-0.0282396 17.9443 -0.0877103 17.5214 0.129358 17.2248L2.48737 14.0315C2.61226 13.8641 2.80257 13.7622 3.0122 13.7622H10.5724C10.8148 13.7622 11.0393 13.8961 11.1508 14.1182C11.2623 14.3327 11.2563 14.602 11.1181 14.8104L9.05591 18.0037C8.93102 18.1984 8.72734 18.3064 8.51027 18.3064H8.51324Z" fill="#083F2F"/>
<path d="M8.51325 38.7878C8.44783 38.7878 8.38241 38.7741 8.31551 38.7544C7.96761 38.6403 7.7773 38.263 7.88881 37.9146L9.91824 31.2998V14.442C9.91824 14.0723 10.2141 13.7695 10.5754 13.7695C10.9367 13.7695 11.2325 14.0723 11.2325 14.442V31.4002C11.2325 31.4672 11.2192 31.5341 11.1998 31.6026L9.13769 38.3101C9.05295 38.5992 8.79573 38.7878 8.51325 38.7878Z" fill="#083F2F"/>
<path d="M13.6173 7.24306C13.256 7.24306 12.9602 6.94032 12.9602 6.57063V1.83168L11.2192 2.84641C10.904 3.02745 10.5025 2.92096 10.3256 2.59843C10.1487 2.27591 10.2528 1.86515 10.568 1.68411L13.2947 0.0912799C13.4984 -0.0304266 13.7482 -0.0304266 13.9518 0.0912799C14.1555 0.212986 14.2804 0.43358 14.2804 0.669386V6.56455C14.2745 6.94032 13.9845 7.24306 13.6173 7.24306Z" fill="#083F2F"/>
<path d="M3.01502 2.94062C2.75186 2.94062 2.50952 2.77936 2.40396 2.51769C2.27312 2.17539 2.43667 1.78441 2.77119 1.64445L6.71261 0.050091C6.79141 0.0166217 6.87021 0.00292969 6.95495 0.00292969H13.6157C13.977 0.00292969 14.2728 0.305675 14.2728 0.675358C14.2728 1.04504 13.977 1.34779 13.6157 1.34779H7.07984L3.25736 2.89346C3.17856 2.92693 3.09382 2.94062 3.01502 2.94062Z" fill="#083F2F"/>
<path d="M3.21882 20.7799H2.81145C2.45016 20.7799 2.1543 20.4772 2.1543 20.1075C2.1543 19.7378 2.45016 19.4351 2.81145 19.4351H3.21288C3.57416 19.4351 3.87003 19.7378 3.87003 20.1075C3.87597 20.4833 3.58159 20.7799 3.22031 20.7799H3.21882Z" fill="#083F2F"/>
<path d="M6.02293 20.7799H5.62151C5.26022 20.7799 4.96436 20.4772 4.96436 20.1075C4.96436 19.7378 5.26022 19.4351 5.62151 19.4351H6.02293C6.38422 19.4351 6.68009 19.7378 6.68009 20.1075C6.68009 20.4772 6.38422 20.7799 6.02293 20.7799Z" fill="#083F2F"/>
<path d="M8.17723 12.2907H7.7758C7.41452 12.2907 7.11865 11.9879 7.11865 11.6182C7.11865 11.2485 7.41452 10.9458 7.7758 10.9458H8.17723C8.53852 10.9458 8.83438 11.2485 8.83438 11.6182C8.83438 11.9879 8.53852 12.2907 8.17723 12.2907Z" fill="#083F2F"/>
<path d="M10.977 12.2907H10.5756C10.2143 12.2907 9.91846 11.9879 9.91846 11.6182C9.91846 11.2485 10.2143 10.9458 10.5756 10.9458H10.977C11.3383 10.9458 11.6342 11.2485 11.6342 11.6182C11.6342 11.9879 11.3458 12.2907 10.977 12.2907Z" fill="#083F2F"/>
<path d="M5.59618 5.09779H5.19475C4.83346 5.09779 4.5376 4.79504 4.5376 4.42536C4.5376 4.05567 4.83346 3.75293 5.19475 3.75293H5.59618C5.95746 3.75293 6.25333 4.05567 6.25333 4.42536C6.25333 4.79504 5.95746 5.09779 5.59618 5.09779Z" fill="#083F2F"/>
<path d="M8.40184 5.09779H8.00041C7.63913 5.09779 7.34326 4.79504 7.34326 4.42536C7.34326 4.05567 7.63913 3.75293 8.00041 3.75293H8.40184C8.76312 3.75293 9.05899 4.05567 9.05899 4.42536C9.05899 4.79504 8.76312 5.09779 8.40184 5.09779Z" fill="#083F2F"/>
<path d="M3.21882 23.0924H2.81145C2.45016 23.0924 2.1543 22.7897 2.1543 22.42C2.1543 22.0503 2.45016 21.7476 2.81145 21.7476H3.21288C3.57416 21.7476 3.87003 22.0503 3.87003 22.42C3.87597 22.7958 3.58159 23.0924 3.22031 23.0924H3.21882Z" fill="#083F2F"/>
<path d="M6.02293 23.0924H5.62151C5.26022 23.0924 4.96436 22.7897 4.96436 22.42C4.96436 22.0503 5.26022 21.7476 5.62151 21.7476H6.02293C6.38422 21.7476 6.68009 22.0503 6.68009 22.42C6.68009 22.7897 6.38422 23.0924 6.02293 23.0924Z" fill="#083F2F"/>
<path d="M3.21882 25.4049H2.81145C2.45016 25.4049 2.1543 25.1022 2.1543 24.7325C2.1543 24.3628 2.45016 24.0601 2.81145 24.0601H3.21288C3.57416 24.0601 3.87003 24.3628 3.87003 24.7325C3.87597 25.1083 3.58159 25.4049 3.22031 25.4049H3.21882Z" fill="#083F2F"/>
<path d="M6.02293 25.4049H5.62151C5.26022 25.4049 4.96436 25.1022 4.96436 24.7325C4.96436 24.3628 5.26022 24.0601 5.62151 24.0601H6.02293C6.38422 24.0601 6.68009 24.3628 6.68009 24.7325C6.68009 25.1022 6.38422 25.4049 6.02293 25.4049Z" fill="#083F2F"/>
<path d="M3.21882 27.7169H2.81145C2.45016 27.7169 2.1543 27.4142 2.1543 27.0445C2.1543 26.6748 2.45016 26.3721 2.81145 26.3721H3.21288C3.57416 26.3721 3.87003 26.6748 3.87003 27.0445C3.87597 27.4203 3.58159 27.7169 3.22031 27.7169H3.21882Z" fill="#083F2F"/>
<path d="M6.02293 27.7169H5.62151C5.26022 27.7169 4.96436 27.4142 4.96436 27.0445C4.96436 26.6748 5.26022 26.3721 5.62151 26.3721H6.02293C6.38422 26.3721 6.68009 26.6748 6.68009 27.0445C6.68009 27.4142 6.38422 27.7169 6.02293 27.7169Z" fill="#083F2F"/>
<path d="M5.59618 7.24329H5.19475C4.83346 7.24329 4.5376 6.94055 4.5376 6.57087C4.5376 6.20118 4.83346 5.89844 5.19475 5.89844H5.59618C5.95746 5.89844 6.25333 6.20118 6.25333 6.57087C6.25333 6.94055 5.95746 7.24329 5.59618 7.24329Z" fill="#083F2F"/>
<path d="M29.4217 32.0726H26.3798C26.0185 32.0726 25.7227 31.7698 25.7227 31.4002V8.81598C25.7227 8.4463 26.0185 8.14355 26.3798 8.14355H34.5184C34.8797 8.14355 35.1755 8.4463 35.1755 8.81598V14.4358C35.1755 14.8055 34.8797 15.1082 34.5184 15.1082C34.1571 15.1082 33.8612 14.8055 33.8612 14.4358V9.48841H27.0295V30.7292H29.4143C29.7756 30.7292 30.0715 31.032 30.0715 31.4017C30.0774 31.7714 29.783 32.0741 29.4217 32.0741V32.0726Z" fill="#083F2F"/>
<path d="M24.3041 22.3729C23.9428 22.3729 23.647 22.0702 23.647 21.7005L23.6663 6.56935C23.6663 6.29399 23.8298 6.04449 24.0796 5.94408C24.3294 5.84367 24.6178 5.91061 24.8022 6.11143L26.8524 8.35691C27.1022 8.62619 27.0888 9.05672 26.8197 9.3047C26.5566 9.56029 26.1358 9.54659 25.8935 9.27123L24.9806 8.2702L24.9672 21.6929C24.9613 22.0687 24.6654 22.3714 24.3041 22.3714V22.3729Z" fill="#083F2F"/>
<path d="M34.5125 9.48683C34.3683 9.48683 34.23 9.43967 34.1051 9.34534L31.4973 7.24134H24.3237C23.9624 7.24134 23.6665 6.9386 23.6665 6.56891C23.6665 6.19923 23.9624 5.89648 24.3237 5.89648H31.7263C31.8705 5.89648 32.0147 5.94973 32.1336 6.03797L34.9258 8.28345C35.2083 8.51165 35.2603 8.93611 35.0373 9.22516C34.899 9.40011 34.7087 9.48683 34.5125 9.48683Z" fill="#083F2F"/>
<path d="M36.9834 15.1143C36.6221 15.1143 36.3262 14.8115 36.3262 14.4418V2.94056H29.7577V6.57654C29.7577 6.94623 29.4618 7.24897 29.1005 7.24897C28.7392 7.24897 28.4434 6.94623 28.4434 6.57654V2.26813C28.4434 1.89845 28.7392 1.5957 29.1005 1.5957H36.9834C37.3446 1.5957 37.6405 1.89845 37.6405 2.26813V14.4418C37.6405 14.8115 37.3446 15.1143 36.9834 15.1143Z" fill="#083F2F"/>
<path d="M39.334 38.788H31.478C31.1167 38.788 30.8208 38.4852 30.8208 38.1155V17.6339C30.8208 17.2642 31.1167 16.9614 31.478 16.9614H39.334C39.6953 16.9614 39.9912 17.2642 39.9912 17.6339V38.1155C39.9912 38.4852 39.7028 38.788 39.334 38.788ZM32.1351 37.4431H38.6784V18.3063H32.1351V37.4431Z" fill="#083F2F"/>
<path d="M31.4854 18.3064C31.2757 18.3064 31.0646 18.1984 30.9397 18.0037L28.8776 14.8104C28.7467 14.602 28.7334 14.3403 28.8449 14.1182C28.9564 13.9037 29.1794 13.7622 29.4232 13.7622H36.9834C37.1871 13.7622 37.3849 13.8626 37.5083 14.0315L39.8663 17.2248C40.0834 17.5199 40.0298 17.9443 39.7355 18.1665C39.447 18.3886 39.0322 18.3338 38.8151 18.0387L36.6534 15.1147H30.6424L32.028 17.2582C32.2258 17.5671 32.147 17.9839 31.8437 18.1923C31.7322 18.2669 31.6013 18.3064 31.4824 18.3064H31.4854Z" fill="#083F2F"/>
<path d="M31.4781 38.7878C31.1956 38.7878 30.9399 38.6068 30.8536 38.3177L28.7915 31.6102C28.7722 31.5433 28.7588 31.4763 28.7588 31.4079V14.442C28.7588 14.0723 29.0547 13.7695 29.4159 13.7695C29.7772 13.7695 30.0731 14.0723 30.0731 14.442V31.2998L32.1025 37.9146C32.214 38.2706 32.0178 38.6479 31.6758 38.7544C31.6104 38.7741 31.545 38.7878 31.4781 38.7878Z" fill="#083F2F"/>
<path d="M26.3739 7.24283C26.0127 7.24283 25.7168 6.94009 25.7168 6.57041V0.675245C25.7168 0.433354 25.8417 0.211239 26.0454 0.0971393C26.2491 -0.0245673 26.4988 -0.0245673 26.7025 0.0971393L29.4293 1.68997C29.7445 1.87101 29.856 2.28177 29.6716 2.60429C29.4947 2.92682 29.0873 3.04092 28.7781 2.85227L27.037 1.83754V6.57649C27.0311 6.94009 26.7412 7.24131 26.3739 7.24131V7.24283Z" fill="#083F2F"/>
<path d="M36.9834 2.94062C36.9046 2.94062 36.8198 2.92693 36.741 2.89346L32.9186 1.34779H26.3827C26.0215 1.34779 25.7256 1.04504 25.7256 0.675358C25.7256 0.305675 26.02 0.00292969 26.3813 0.00292969H33.042C33.1267 0.00292969 33.2055 0.0166217 33.2843 0.050091L37.2257 1.64293C37.5603 1.7768 37.7312 2.16778 37.593 2.51617C37.4874 2.77784 37.2376 2.9391 36.9819 2.9391L36.9834 2.94062Z" fill="#083F2F"/>
<path d="M37.1797 20.7799H36.7782C36.417 20.7799 36.1211 20.4772 36.1211 20.1075C36.1211 19.7378 36.417 19.4351 36.7782 19.4351H37.1797C37.541 19.4351 37.8368 19.7378 37.8368 20.1075C37.8368 20.4772 37.541 20.7799 37.1797 20.7799Z" fill="#083F2F"/>
<path d="M34.3755 20.7799H33.974C33.6128 20.7799 33.3169 20.4772 33.3169 20.1075C33.3169 19.7378 33.6128 19.4351 33.974 19.4351H34.3755C34.7368 19.4351 35.0326 19.7378 35.0326 20.1075C35.0326 20.4772 34.7442 20.7799 34.3755 20.7799Z" fill="#083F2F"/>
<path d="M32.2197 12.2907H31.8183C31.457 12.2907 31.1611 11.9879 31.1611 11.6182C31.1611 11.2485 31.457 10.9458 31.8183 10.9458H32.2197C32.581 10.9458 32.8769 11.2485 32.8769 11.6182C32.8769 11.9879 32.5884 12.2907 32.2197 12.2907Z" fill="#083F2F"/>
<path d="M29.4215 12.2907H29.0141C28.6528 12.2907 28.3569 11.9879 28.3569 11.6182C28.3569 11.2485 28.6528 10.9458 29.0141 10.9458H29.4155C29.7768 10.9458 30.0727 11.2485 30.0727 11.6182C30.0786 11.9879 29.7842 12.2907 29.4229 12.2907H29.4215Z" fill="#083F2F"/>
<path d="M34.8022 5.09779H34.4008C34.0395 5.09779 33.7437 4.79504 33.7437 4.42536C33.7437 4.05567 34.0395 3.75293 34.4008 3.75293H34.8022C35.1635 3.75293 35.4594 4.05567 35.4594 4.42536C35.4594 4.79504 35.1635 5.09779 34.8022 5.09779Z" fill="#083F2F"/>
<path d="M31.9966 5.09779H31.5951C31.2339 5.09779 30.938 4.79504 30.938 4.42536C30.938 4.05567 31.2339 3.75293 31.5951 3.75293H31.9966C32.3579 3.75293 32.6537 4.05567 32.6537 4.42536C32.6537 4.79504 32.3579 5.09779 31.9966 5.09779Z" fill="#083F2F"/>
<path d="M37.1797 23.0924H36.7782C36.417 23.0924 36.1211 22.7897 36.1211 22.42C36.1211 22.0503 36.417 21.7476 36.7782 21.7476H37.1797C37.541 21.7476 37.8368 22.0503 37.8368 22.42C37.8368 22.7897 37.541 23.0924 37.1797 23.0924Z" fill="#083F2F"/>
<path d="M34.3755 23.0924H33.974C33.6128 23.0924 33.3169 22.7897 33.3169 22.42C33.3169 22.0503 33.6128 21.7476 33.974 21.7476H34.3755C34.7368 21.7476 35.0326 22.0503 35.0326 22.42C35.0326 22.7897 34.7442 23.0924 34.3755 23.0924Z" fill="#083F2F"/>
<path d="M37.1797 25.4049H36.7782C36.417 25.4049 36.1211 25.1022 36.1211 24.7325C36.1211 24.3628 36.417 24.0601 36.7782 24.0601H37.1797C37.541 24.0601 37.8368 24.3628 37.8368 24.7325C37.8368 25.1022 37.541 25.4049 37.1797 25.4049Z" fill="#083F2F"/>
<path d="M34.3755 25.4049H33.974C33.6128 25.4049 33.3169 25.1022 33.3169 24.7325C33.3169 24.3628 33.6128 24.0601 33.974 24.0601H34.3755C34.7368 24.0601 35.0326 24.3628 35.0326 24.7325C35.0326 25.1022 34.7442 25.4049 34.3755 25.4049Z" fill="#083F2F"/>
<path d="M37.1797 27.7169H36.7782C36.417 27.7169 36.1211 27.4142 36.1211 27.0445C36.1211 26.6748 36.417 26.3721 36.7782 26.3721H37.1797C37.541 26.3721 37.8368 26.6748 37.8368 27.0445C37.8368 27.4142 37.541 27.7169 37.1797 27.7169Z" fill="#083F2F"/>
<path d="M34.3755 27.7169H33.974C33.6128 27.7169 33.3169 27.4142 33.3169 27.0445C33.3169 26.6748 33.6128 26.3721 33.974 26.3721H34.3755C34.7368 26.3721 35.0326 26.6748 35.0326 27.0445C35.0326 27.4142 34.7442 27.7169 34.3755 27.7169Z" fill="#083F2F"/>
<path d="M34.8022 7.24329H34.4008C34.0395 7.24329 33.7437 6.94055 33.7437 6.57087C33.7437 6.20118 34.0395 5.89844 34.4008 5.89844H34.8022C35.1635 5.89844 35.4594 6.20118 35.4594 6.57087C35.4594 6.94055 35.1635 7.24329 34.8022 7.24329Z" fill="#083F2F"/>
</g>
<defs>
<clipPath id="clip0_2549_9231">
<rect width="40" height="38.7879" fill="white"/>
</clipPath>
</defs>
</svg>
