<svg id="Transect_Code" data-name="Transect Code" xmlns="http://www.w3.org/2000/svg" xmlns:xlink="http://www.w3.org/1999/xlink" width="64" height="64" viewBox="0 0 64 64">
  <defs>
    <clipPath id="clip-path">
      <rect id="Rectangle_156019" data-name="Rectangle 156019" width="36.107" height="30.858" fill="none"/>
    </clipPath>
  </defs>
  <rect id="Rectangle_156018" data-name="Rectangle 156018" width="64" height="64" fill="none"/>
  <g id="Group_184955" data-name="Group 184955" transform="translate(14 17)">
    <path id="Path_85103" data-name="Path 85103" d="M0,8.743V34.829l11.771-3.976V4.766Z" transform="translate(0 -3.971)" fill="#033726"/>
    <path id="Path_85104" data-name="Path 85104" d="M157.647,0,145.876,3.976V30.063l11.771-3.977Z" transform="translate(-121.539)" fill="#033726"/>
    <path id="Path_85105" data-name="Path 85105" d="M83.121,34.034,70.556,30.853V4.766L83.121,7.948Z" transform="translate(-58.785 -3.971)" fill="#033726"/>
    <path id="Path_85106" data-name="Path 85106" d="M32.281,16.755,19.715,13.494V13.48l-10.18,3.5V39.71l10.18-3.483h0l12.566,3.194,10.18-3.408V13.284Z" transform="translate(-7.944 -11.068)" fill="#fff"/>
    <g id="Group_184954" data-name="Group 184954" transform="translate(0 0)">
      <g id="Group_184953" data-name="Group 184953" clip-path="url(#clip-path)">
        <path id="Path_85107" data-name="Path 85107" d="M76.124,15.985c.249,1.513.537,3.214.709,4.06,1.97-.289,4.5-.672,5.028-.81l-.432-1.874Zm5.993,1.555.837,3.973,5.468.155,3.55-2.7.392-1.532L87.761,19Z" transform="translate(-63.424 -13.318)" fill="#63c3a5"/>
        <path id="Path_85108" data-name="Path 85108" d="M31.559,19.744c.226,1.328.417,2.432.446,2.562h0l.017.092-2.479.384-.079-.636,1.767-.323-1.095-6.666L24.478,17.1l4.108,9.657,6.919-1.034,3.952-5.05-.468-2.026Zm-.81-4.8c.107.636.417,2.481.7,4.167.22-.031.862-.123,1.682-.242l-.711-4.332-.259-.067v-.014Z" transform="translate(-20.394 -12.046)" fill="#63c3a5"/>
        <path id="Path_85109" data-name="Path 85109" d="M9.534,37.544h2.621L10.38,33.7l-.845.291Z" transform="translate(-7.944 -28.079)" fill="#958374"/>
        <path id="Path_85110" data-name="Path 85110" d="M14.437,66.425,12.192,64.8l-1.854,3.3-.347-.2,1.877-3.334L9.534,62.877v6.77l3.42.6Zm-4.9-4.039,5.052,3.655.436-1.123-2.683-5.806h-2.8Z" transform="translate(-7.943 -49.251)" fill="#958374"/>
        <path id="Path_85111" data-name="Path 85111" d="M14.734,136.753l.129-1.333-1.988-2.863s-2.256-.49-3.34-.662v6.638Z" transform="translate(-7.943 -109.89)" fill="#ffc941"/>
        <path id="Path_85112" data-name="Path 85112" d="M52.439,141.19l.163.925,2.859-.978h0l6.594,1.676L62.142,140l-4.215-.8Z" transform="translate(-43.691 -115.979)" fill="#ffc941"/>
        <path id="Path_85113" data-name="Path 85113" d="M120.652,156.364h-6.588l-.018.917,5.31,1.35,2.5-.837Z" transform="translate(-95.019 -130.277)" fill="#86b850"/>
        <path id="Path_85114" data-name="Path 85114" d="M117.686,134.345l-3.449,1.526-.035,1.749h6.245Z" transform="translate(-95.149 -111.932)" fill="#86b850"/>
        <path id="Path_85115" data-name="Path 85115" d="M164.818,112.088,166,114.226l2.249-1.29-1.21-2.12Z" transform="translate(-137.321 -92.328)" fill="#86b850"/>
        <path id="Path_85116" data-name="Path 85116" d="M194.15,16.138l2.126,2.15V14.31Z" transform="translate(-161.76 -11.922)" fill="#958374"/>
        <path id="Path_85117" data-name="Path 85117" d="M174.581,70.361l2.058,3.649,3.333-2.067V67.017Z" transform="translate(-145.456 -55.836)" fill="#958374"/>
        <path id="Path_85118" data-name="Path 85118" d="M180.781,30.092l-2.56-2.589L175.552,29.8l2.951,5.039,2.278-1.413Z" transform="translate(-146.265 -22.915)" fill="#958374"/>
        <path id="Path_85119" data-name="Path 85119" d="M191.65,100.562l-3.053,1.893,3.053,5.413Z" transform="translate(-157.133 -83.785)" fill="#958374"/>
        <path id="Path_85120" data-name="Path 85120" d="M160.072,43.521,157.5,45.732l2.569,4.555,2.909-1.8Z" transform="translate(-131.224 -36.261)" fill="#958374"/>
        <path id="Path_85121" data-name="Path 85121" d="M149.582,125.36l-2.386-4.182-2.764,1.578-.261-.465.013-.008L143,120.145l-3.773,2.165,4.155,5.125Z" transform="translate(-116.003 -100.101)" fill="#86b850"/>
        <path id="Path_85122" data-name="Path 85122" d="M12.156,56.729H9.535v.4h2.8" transform="translate(-7.944 -47.265)" fill="#fff"/>
        <path id="Path_85123" data-name="Path 85123" d="M9.534,79.223l2.334,1.689L9.992,84.247l.347.2,1.854-3.3,2.245,1.625.148-.383L9.534,78.732Z" transform="translate(-7.944 -65.597)" fill="#fff"/>
        <path id="Path_85124" data-name="Path 85124" d="M129.629,27.173,126.3,29.24l-2.058-3.648,5.391-3.344v-.671l-2.278,1.413L124.4,17.95l2.669-2.294,2.56,2.589v-.811l-2.126-2.15,2.126-1.828v-.171l-2.641.9-.326.248-.1-.1-.328.112-.184.182.155.157-2.543,1.935-3.55,2.7-.105.08V20.58l1.352,2.894.9,1.574,2.3,4.036-6.3,3.615-.261.15-.346.631,2.761,3.276h-6.245l-.008.4h6.588l1.2,1.429.545-.182-4.155-5.125,3.773-2.165,1.179,2.138-.013.008.261.466,2.764-1.578,2.386,4.182.938-.314v-.862l-3.053-5.413,3.053-1.893v-.671Zm-8.241-6.634h0l2.572-2.211,2.906,4.962-2.909,1.8Zm2.4,12.427h0l-1.179-2.138,2.218-1.273,1.21,2.121Z" transform="translate(-95.112 -11.068)" fill="#fff"/>
        <path id="Path_85125" data-name="Path 85125" d="M63.286,16.492l.432,1.874c-.526.138-3.058.521-5.028.81-.172-.847-.46-2.547-.709-4.061l-.67-.174.711,4.332c-.82.119-1.462.211-1.683.242-.286-1.685-.6-3.531-.7-4.167l-.616.212,1.095,6.666-1.767.323.079.636,2.479-.384-.018-.092h0c-.03-.129-.22-1.234-.446-2.562l7.43-1.095.468,2.026.168.729.4.079.093-.133.041,0-.235-1.113-.837-3.973Z" transform="translate(-45.281 -12.448)" fill="#fff"/>
        <path id="Path_85126" data-name="Path 85126" d="M102.246,55.91l-3.088,4.4,9.544-1.75-1.193-2.386-5.128-.395-.041,0Z" transform="translate(-82.616 -46.472)" fill="#63c3a5"/>
        <path id="Path_85127" data-name="Path 85127" d="M94.867,93.913l-.191,1.829h5.282l-.319-2.306Z" transform="translate(-78.881 -77.848)" fill="#bbb"/>
        <path id="Path_85128" data-name="Path 85128" d="M92.482,115.527l3.261.875,2.784-1.511-.264-1.909H92.749Z" transform="translate(-77.053 -94.133)" fill="#bbb"/>
        <path id="Path_85129" data-name="Path 85129" d="M137.562,83.8l-2.231.642h0l-.549.158.529,2.227.555-.132-.555.132-.529-2.227-2.253.648,1.034,6.2,6.3-3.616Z" transform="translate(-110.419 -69.822)" fill="#bbb"/>
        <path id="Path_85130" data-name="Path 85130" d="M45.433,95.759h0l-.587.09-.295,2.268.566.074-.566-.074.295-2.268-2.417.369-1.909,4.851,1.273,1.431,5.726-1.511.636-5.647Z" transform="translate(-33.76 -79.437)" fill="#bbb"/>
      </g>
    </g>
  </g>
</svg>
