<svg width="40" height="40" viewBox="0 0 40 40" fill="none" xmlns="http://www.w3.org/2000/svg">
<g clip-path="url(#clip0_11_7482)">
<mask id="mask0_11_7482" style="mask-type:luminance" maskUnits="userSpaceOnUse" x="0" y="-1" width="40" height="40">
<circle cx="20" cy="19" r="20" fill="white"/>
</mask>
<g mask="url(#mask0_11_7482)">
<circle cx="20" cy="20" r="20" fill="#E7F1F4"/>
<g clip-path="url(#clip1_11_7482)">
<path d="M0 2.49093C0.221687 2.29815 0.483534 2.316 0.742169 2.32493C1.07309 2.33564 1.40562 2.29994 1.73655 2.35706C2.15422 2.42845 2.46265 2.66407 2.64739 3.08353C2.71004 3.22633 2.78394 3.28702 2.93012 3.28167C3.27068 3.2656 3.60482 3.32629 3.92771 3.44945C4.03534 3.49051 4.09157 3.49051 4.10281 3.33343C4.15582 2.58732 4.53173 2.10538 5.19357 2.03755C5.80723 1.97507 6.42892 2.00006 7.04578 2.03219C7.50683 2.0554 7.82169 2.38919 8.10924 2.7319C8.34859 3.01749 8.61687 3.12102 8.95904 3.10495C9.40723 3.08353 9.85703 3.09781 10.3068 3.0996C10.89 3.10138 11.3076 3.46016 11.4201 4.09382C11.5679 4.92918 11.661 5.77525 11.7189 6.62489C11.7831 7.57628 11.592 8.47768 11.3125 9.36481C11.1775 9.7932 11.0892 10.2269 11.1422 10.6821C11.2209 11.355 11.3462 12.0208 11.4602 12.6866C11.5727 13.3381 11.6867 13.9914 11.7831 14.6465C11.841 15.0392 11.8217 15.4283 11.5904 15.7657C11.5036 15.8924 11.547 15.9513 11.6627 16.0031C11.8137 16.0709 11.9598 16.1477 12.1028 16.2369C12.7598 16.6492 12.808 17.0223 12.7952 17.8327C12.792 18.0772 12.7534 18.3217 12.7454 18.5663C12.739 18.7233 12.7952 18.8697 12.8867 18.9857C13.1855 19.3641 13.2048 19.8068 13.1486 20.2727C13.1229 20.4905 13.1068 20.71 13.0811 20.9706C13.2884 20.8278 13.359 20.6315 13.4361 20.4476C13.6851 19.855 13.8201 19.2214 13.9904 18.5984C14.0707 18.3003 14.1478 18.0004 14.2554 17.7148C14.5446 16.9509 15.1084 16.5332 15.7912 16.2887C16.1574 16.1566 16.5333 16.0887 16.9237 16.1601C17.3446 16.2369 17.6289 16.4725 17.7414 16.9402C17.7783 17.0937 17.804 17.2508 17.8442 17.4025C17.8988 17.606 18.0321 17.6631 18.1863 17.5381C18.2908 17.4542 18.3775 17.3436 18.4659 17.2383C18.71 16.9455 19.0072 16.7992 19.3687 16.8099C19.6032 16.817 19.8378 16.8242 20.0707 16.8099C20.559 16.7742 20.9028 17.0276 21.2161 17.4185C21.796 18.1432 22.408 18.8287 23.1855 19.3088C23.804 19.6926 24.3968 19.4016 24.6875 18.834C24.9639 18.295 25.4008 18.029 25.9614 18.0272C26.6056 18.0272 27.2498 18.0361 27.894 18.0236C28.3823 18.0129 28.7807 18.2021 29.102 18.6091C29.2353 18.7787 29.3799 18.934 29.5727 19.0232C29.9036 19.1749 30.2072 19.1196 30.4964 18.8983C30.8867 18.5984 31.1823 18.1932 31.4924 17.8041C31.8667 17.3346 32.2683 16.9312 32.8707 16.8741C33.0892 16.8527 33.3012 16.8848 33.5117 16.9134C33.9116 16.9705 34.1815 16.776 34.4129 16.444C34.596 16.1816 34.7904 15.9281 34.9944 15.6853C35.3976 15.2105 35.8795 14.9678 36.4868 14.9821C37.5936 15.0088 38.6667 15.2516 39.7414 15.514C39.8394 15.5372 39.9004 15.6425 40.0048 15.6443V16.078C39.8892 16.0887 39.8185 16.2298 39.6916 16.2101C38.7791 16.0138 37.8715 15.8032 36.9446 15.7014C36.3406 15.6336 35.7863 15.6925 35.3719 16.2637C35.2241 16.4654 35.0683 16.6599 34.9253 16.8652C34.5253 17.44 34.0386 17.7488 33.3526 17.6113C32.9783 17.5363 32.5944 17.5631 32.2956 17.9023C32.1912 18.0219 32.0884 18.1415 31.9855 18.2628C31.6707 18.6377 31.3799 19.0375 31.0153 19.3588C30.4723 19.8372 29.8892 19.9621 29.2466 19.639C28.9847 19.5069 28.7888 19.2856 28.6024 19.0518C28.4321 18.8376 28.2185 18.7305 27.9663 18.7287C27.3028 18.7251 26.6378 18.7198 25.9743 18.7305C25.6578 18.7358 25.3976 18.8769 25.2321 19.2017C25.1261 19.4088 24.9976 19.6015 24.8273 19.7533C24.1992 20.312 23.5197 20.3459 22.7775 19.8675C21.9711 19.3481 21.3317 18.618 20.7181 17.8594C20.5285 17.6256 20.3325 17.4882 20.045 17.5078C19.8249 17.5239 19.6032 17.5114 19.3815 17.5114C19.2032 17.5114 19.0522 17.5792 18.9285 17.7256C18.8305 17.8416 18.7341 17.9594 18.6265 18.0647C18.1301 18.5538 17.4378 18.3414 17.2402 17.6417C17.1936 17.4774 17.1631 17.3061 17.1277 17.1365C17.094 16.9741 16.996 16.8866 16.8562 16.867C16.1285 16.7652 15.0329 17.1901 14.7727 18.1968C14.5992 18.8697 14.4129 19.5409 14.212 20.2049C14.061 20.7064 13.8827 21.2027 13.4908 21.5454C13.3928 21.631 13.3815 21.6953 13.4329 21.8131C13.5631 22.1076 13.6048 22.42 13.5197 22.7395C13.4522 22.9948 13.4795 23.2357 13.547 23.4838C13.9952 25.1385 14.4418 26.7931 14.8819 28.4496C14.9253 28.6138 14.9992 28.6656 15.1454 28.662C15.4635 28.6531 15.7831 28.6584 16.1028 28.6584C16.5355 28.6584 16.8337 28.4347 16.9976 27.9873C17.5486 26.4933 17.7526 24.9118 17.9309 23.3268C17.9952 22.7609 18.0369 22.1933 18.0948 21.6257C18.1189 21.3901 18.2554 21.2669 18.4482 21.2848C18.6153 21.3008 18.7534 21.4811 18.7341 21.6828C18.6442 22.6592 18.5606 23.6373 18.4225 24.6066C18.2329 25.9292 18.0048 27.2412 17.5004 28.471C17.449 28.596 17.4699 28.6602 17.6048 28.6602C18.1847 28.6584 18.7631 28.6584 19.343 28.6602C19.4618 28.6602 19.5149 28.6209 19.4699 28.4781C19.2594 27.8338 19.1598 27.1662 19.1165 26.4861C19.0956 26.147 19.0843 25.8061 19.1245 25.4687C19.1518 25.2331 19.2916 25.1064 19.4602 25.1224C19.6386 25.1403 19.7622 25.3009 19.7639 25.5312C19.7671 25.7704 19.7639 26.0078 19.7639 26.247C19.7606 26.9859 19.9004 27.6946 20.1173 28.3889C20.1799 28.5906 20.2715 28.6781 20.4707 28.6638C20.9221 28.6299 21.3639 28.6763 21.788 28.8851C22.0546 29.0154 22.3357 28.9976 22.6072 28.8851C22.7598 28.8226 22.9141 28.7637 23.0586 28.6816C23.6691 28.3407 24.3036 28.1694 24.996 28.2193C25.5341 28.2586 26.0755 28.2283 26.6169 28.2265C26.8594 28.2265 26.8803 28.1836 26.7631 27.9409C26.6458 27.6999 26.5044 27.4732 26.4161 27.2126C26.2635 26.7592 26.3663 26.413 26.7357 26.1506C26.9365 26.0078 27.1582 25.9257 27.3847 25.8578C27.4763 25.8293 27.5261 25.7882 27.547 25.6775C27.6305 25.2242 27.7237 24.7744 27.8137 24.3228C27.9084 23.8426 28 23.3625 28.0948 22.8823C28.1398 22.6592 28.302 22.5217 28.4707 22.5557C28.6554 22.5931 28.7598 22.7823 28.7229 23.0162C28.7116 23.0876 28.6972 23.1572 28.6843 23.2286C28.5382 23.9765 28.3936 24.7262 28.2442 25.4723C28.2153 25.6204 28.2233 25.6865 28.3888 25.649C28.559 25.6097 28.7374 25.5919 28.9108 25.5901C29.0474 25.5901 29.1229 25.5258 29.1888 25.4027C29.4056 24.9903 29.4811 24.5387 29.4924 24.0711C29.502 23.6873 29.5052 23.3036 29.5598 22.9269C29.7125 21.8756 30.2233 21.042 30.8755 20.2995C31.0249 20.1299 31.2096 20.1335 31.343 20.2852C31.4699 20.4298 31.4651 20.619 31.3285 20.7903C31.2305 20.9153 31.1261 21.0349 31.0313 21.1634C30.4932 21.8917 30.1365 22.6895 30.1462 23.6695C30.151 24.2371 30.1269 24.8154 29.9197 25.3527C29.8602 25.508 29.8876 25.5455 30.0386 25.549C30.9365 25.5651 31.8297 25.6401 32.7084 25.8632C32.7839 25.8828 32.8482 25.881 32.9141 25.8364C33.4153 25.4991 33.9438 25.5258 34.4771 25.7097C34.5928 25.7489 34.6538 25.7329 34.702 25.6044C34.8337 25.2581 34.951 24.9064 35.0426 24.5423C35.2241 23.8194 35.2868 23.0822 35.2739 22.3325C35.2707 22.1023 35.3912 21.9523 35.5631 21.9434C35.7269 21.9363 35.8908 22.0809 35.8956 22.2701C35.9052 22.6449 35.9165 23.0215 35.8827 23.3964C35.804 24.2674 35.6064 25.101 35.2787 25.8971C35.2273 26.0203 35.2498 26.0881 35.359 26.1559C35.6851 26.354 35.9839 26.6004 36.257 26.8788C36.3406 26.9645 36.4048 26.9788 36.49 26.8949C36.6249 26.7646 36.7855 26.6807 36.9494 26.6129C37.8329 26.247 38.755 26.0738 39.69 25.9721C39.8201 25.9399 39.8876 26.0899 40.0016 26.1042V26.5379C39.8859 26.5468 39.812 26.6825 39.69 26.67C38.9735 26.7753 38.2667 26.9252 37.5647 27.118C36.8514 27.3144 36.4498 27.8124 36.2618 28.5692C36.196 28.8369 36.0514 28.9583 35.8667 28.9065C35.6659 28.8512 35.5823 28.6602 35.6466 28.3871C35.7028 28.1479 35.7783 27.9159 35.8908 27.7035C35.9663 27.5607 35.9149 27.4804 35.8217 27.3911C35.7108 27.2858 35.661 27.3911 35.5984 27.4572C35.1293 27.9444 34.5831 28.2586 33.9502 28.3818C33.7783 28.4157 33.6225 28.305 33.5759 28.1212C33.5325 27.9552 33.6193 27.7784 33.7815 27.7088C33.8361 27.6856 33.894 27.6731 33.9518 27.6589C34.3727 27.5518 34.7422 27.3358 35.0763 27.0323C35.1952 26.9252 35.2 26.8628 35.057 26.7735C34.7839 26.6022 34.5028 26.454 34.2024 26.3523C33.7799 26.2095 33.3992 26.2737 33.0474 26.5879C32.7004 26.8985 32.4016 27.259 32.1092 27.6285C31.5711 28.3068 31.0683 29.019 30.4916 29.6562C30.2699 29.9008 30.0353 30.1292 29.7831 30.3363C29.7494 30.3649 29.6932 30.3881 29.7141 30.4505C29.7301 30.4987 29.7799 30.488 29.8169 30.4934C29.9325 30.5077 30.0498 30.5273 30.1655 30.5291C30.9799 30.5344 31.7285 30.2613 32.4386 29.8419C32.559 29.7705 32.6908 29.7116 32.7952 29.5937C32.6972 29.4956 32.5976 29.467 32.4948 29.4438C32.3357 29.4081 32.1735 29.3885 32.0161 29.3439C31.8554 29.2974 31.751 29.1761 31.7655 28.9815C31.7783 28.8066 31.8651 28.6638 32.0337 28.6674C32.4819 28.6763 32.9317 28.7334 33.2739 29.0886C33.4892 29.3099 33.7092 29.4081 33.992 29.3706C34.0755 29.3599 34.1606 29.3706 34.2458 29.3688C34.5863 29.3599 34.9221 29.3831 35.2353 29.5563C35.3237 29.6045 35.4137 29.5813 35.502 29.5563C36.1221 29.3903 36.7406 29.4117 37.3558 29.5813C37.8458 29.7169 38.3068 29.9293 38.739 30.2203C38.8771 30.3131 38.9366 30.4523 38.8916 30.6272C38.8466 30.8022 38.7309 30.8825 38.5671 30.8807C38.4819 30.8807 38.3984 30.8771 38.3133 30.8807C37.7606 30.9039 37.2257 31.0003 36.7598 31.3662C36.6104 31.484 36.4691 31.4572 36.3293 31.3377C35.9518 31.0164 35.5695 30.704 35.1952 30.3791C34.9767 30.1899 34.7454 30.0721 34.4594 30.0918C34.2329 30.106 34.0032 30.1096 33.7767 30.0918C33.4554 30.065 33.1839 30.1774 32.9108 30.3541C31.9984 30.9396 31.0249 31.2948 29.955 31.227C29.5149 31.1984 29.0924 31.0967 28.7052 30.8468C28.5831 30.7683 28.5092 30.6612 28.5157 30.4969C28.5237 30.3292 28.6153 30.231 28.7438 30.1756C29.0522 30.0453 29.3253 29.849 29.5743 29.6134C29.857 29.3456 30.1526 29.0868 30.3695 28.7352C30.3084 28.6977 30.2683 28.7334 30.2265 28.7477C29.8699 28.8708 29.5068 28.9351 29.1309 28.928C28.604 28.9172 28.0755 28.928 27.5486 28.9244C27.4538 28.9244 27.3735 28.9405 27.306 29.0297C27.0763 29.3349 26.7807 29.5438 26.4643 29.7223C26.3197 29.8044 26.1703 29.8793 26.0321 29.9739C25.9245 30.0471 25.8715 30.1685 25.902 30.3095C25.9357 30.4684 26.061 30.4023 26.1462 30.4041C26.4787 30.4113 26.8096 30.4041 27.1422 30.4095C27.3542 30.413 27.4956 30.5612 27.4988 30.7558C27.502 30.9539 27.3687 31.1056 27.1598 31.127C27.057 31.1377 26.951 31.1377 26.8482 31.1306C26.0675 31.0806 25.3028 31.1788 24.5574 31.4448C24.3133 31.5322 24.0659 31.609 23.8201 31.6911C24.2249 31.891 24.6426 31.9499 25.0618 31.9606C25.9133 31.9838 26.7454 31.8267 27.5695 31.6C27.8088 31.534 28.045 31.4519 28.2843 31.3805C28.498 31.3162 28.6618 31.4055 28.7245 31.6143C28.7775 31.791 28.6731 31.9767 28.4723 32.057C28.3984 32.0873 28.3245 32.1105 28.249 32.1355C27.51 32.3711 26.7614 32.5479 25.9936 32.6264C24.9815 32.7299 23.9904 32.6657 23.0538 32.1766C22.9285 32.1123 22.8321 32.1391 22.7261 32.2159C22.3309 32.5014 22.1365 32.9673 21.8586 33.3618C21.9245 33.4171 21.9775 33.4011 22.0273 33.4011C26.5976 33.4011 31.1679 33.4011 35.7382 33.4029C35.8378 33.4029 35.9293 33.3832 36.0225 33.3386C36.5767 33.0744 36.9976 32.6264 37.3863 32.1337C37.6803 31.7625 38.0209 31.4751 38.4402 31.302C38.845 31.1342 39.2643 31.0414 39.6884 30.9646C39.8153 30.9735 39.8908 31.0949 40 31.1395V31.5304C39.8956 31.5875 39.7912 31.6465 39.6884 31.7036C39.102 31.775 38.5301 31.9088 38.0755 32.3622C37.8249 32.6121 37.6048 32.8995 37.3719 33.169C37.3125 33.2386 37.2514 33.3065 37.1711 33.3975H39.69C39.8153 33.41 39.8924 33.5278 40.0016 33.5724V33.9633C39.8811 34.0097 39.7863 34.1026 39.6867 34.1847C39.4972 34.2132 39.3365 34.3292 39.1631 34.4042C37.7703 35.0057 36.3036 35.2414 34.8386 35.4823C33.804 35.6537 32.7663 35.8001 31.751 36.0874C30.6345 36.4016 29.6321 36.9888 28.6651 37.66C27.6562 38.3597 26.6506 39.0665 25.5197 39.5092C25.4795 39.5253 25.4474 39.5395 25.4458 39.5931C25.3269 39.6217 25.2048 39.6234 25.0859 39.6645C24.8145 39.7591 24.5398 39.8376 24.2635 39.9144C24.0048 39.9858 23.8731 39.884 23.8297 39.5913C23.8169 39.361 23.9502 39.27 24.1221 39.2254C24.4514 39.1415 24.7775 39.0398 25.0988 38.9237C26.1044 38.5614 27.0233 38.0027 27.894 37.353C29.5984 36.0839 31.4458 35.2628 33.4908 34.9825C34.6843 34.8183 35.8763 34.6291 37.0538 34.3489C37.2803 34.2953 37.5117 34.2561 37.7671 34.1418H23.5357C23.9759 34.8344 23.9823 35.2985 23.5711 35.9179C23.5052 36.016 23.4345 36.1106 23.359 36.1999C22.89 36.755 22.3213 37.162 21.7285 37.5279C20.392 38.3525 18.9671 38.9434 17.5213 39.4771C17.4361 39.5092 17.3414 39.5199 17.2771 39.6002C17.1888 39.6199 17.0988 39.6341 17.012 39.6627C16.6876 39.7662 16.3663 39.8823 16.0386 39.9769C15.7317 40.0643 15.5888 39.9429 15.5534 39.5877C15.6241 39.4182 15.7446 39.3343 15.9084 39.2843C17.2129 38.8827 18.4916 38.399 19.7382 37.8135C20.7084 37.3565 21.6659 36.8657 22.5028 36.1338C22.7647 35.9036 23.004 35.6483 23.1663 35.3199C23.2932 35.0629 23.2819 34.8683 23.0876 34.6737C22.7695 34.3525 22.4048 34.1204 21.9566 34.1204C14.8177 34.1204 7.67711 34.1204 0.538153 34.1204C0.46747 34.1204 0.396787 34.1311 0.324498 34.1383C0.22008 34.0794 0.114056 34.0222 0.00963855 33.9633C0.00963855 23.4749 0.00963855 12.9847 0.00963855 2.49628L0 2.49093ZM7.4988 3.10138C7.34137 2.85327 7.16627 2.74261 6.93494 2.74439C6.42731 2.74439 5.91968 2.74439 5.41205 2.74439C4.93173 2.74439 4.72771 2.97465 4.72771 3.51371C4.72771 5.98052 4.72771 8.44555 4.72771 10.9124C4.72771 11.2033 4.75663 11.4871 4.82892 11.7691C4.95582 12.2654 5.03775 12.7669 4.99277 13.2881C4.93815 13.9057 4.89478 14.5251 4.84659 15.1445C4.78554 15.9138 4.71968 16.6831 4.66667 17.4542C4.62008 18.1147 4.52369 18.7751 4.66185 19.4391C4.7759 19.9853 4.79518 20.5404 4.76466 21.0991C4.75341 21.3008 4.74056 21.5025 4.72771 21.7042C4.69237 22.2808 4.66024 22.8573 4.62169 23.4339C4.57992 24.0568 4.56546 24.6708 4.7759 25.2706C4.99438 25.8917 5.05703 26.5415 5.04096 27.2073C5.02329 27.923 5.03614 28.6388 5.03775 29.3546C5.03775 29.4206 5.01847 29.492 5.06988 29.5741C5.30281 28.0462 5.50522 26.5325 5.62731 25.0082C5.72369 23.8051 5.72209 22.5967 5.73494 21.3901C5.751 19.8282 5.75422 18.2664 5.72048 16.7046C5.68514 15.1356 5.68353 13.5666 5.66908 11.9976C5.66908 11.8513 5.64659 11.712 5.60321 11.5746C5.42651 11.0141 5.25301 10.4536 5.08434 9.89137C5.00723 9.63255 5.11968 9.40943 5.34137 9.39694C5.63374 9.38087 5.92771 9.38623 6.22008 9.39694C6.37912 9.40229 6.51566 9.579 6.51406 9.74322C6.51406 9.90922 6.3759 10.0717 6.21687 10.0877C6.13333 10.0966 6.04819 10.0949 5.96305 10.0913C5.849 10.0841 5.83133 10.1341 5.86667 10.2466C5.98394 10.6143 6.09157 10.9855 6.21205 11.3533C6.27309 11.5389 6.3004 11.7263 6.3004 11.9262C6.29719 12.376 6.30201 12.376 6.71325 12.385C6.73253 12.385 6.75181 12.385 6.77108 12.385C6.951 12.3975 7.08755 12.5402 7.09237 12.7223C7.0988 12.9115 6.96225 13.0686 6.76948 13.0829C6.67149 13.09 6.57349 13.09 6.47711 13.0829C6.36948 13.0775 6.3245 13.1257 6.32771 13.2471C6.33414 13.4202 6.34217 13.5952 6.32771 13.7683C6.31325 13.9646 6.38394 14.0164 6.551 14.0111C6.90281 13.9986 7.25462 14.0075 7.60482 14.0093C7.6755 14.0093 7.7494 14.0111 7.81847 14.0271C8.00643 14.0664 8.11727 14.2128 8.10602 14.4002C8.09639 14.5787 7.95984 14.7268 7.7751 14.7304C7.35904 14.7375 6.94137 14.7411 6.5253 14.7304C6.35984 14.725 6.32129 14.8 6.33735 14.9607C6.3502 15.0963 6.35823 15.2338 6.35823 15.3712C6.37269 17.8951 6.37912 20.4191 6.35663 22.9448C6.35502 23.1411 6.40161 23.2054 6.58474 23.2036C7.34619 23.1929 8.10763 23.1982 8.86908 23.2C8.92048 23.2 8.97349 23.1965 9.0249 23.2018C9.21125 23.2197 9.33333 23.3589 9.33494 23.5499C9.33494 23.7409 9.21125 23.8801 9.02651 23.8979C8.96867 23.9033 8.90924 23.8997 8.85141 23.8997C8.07711 23.8997 7.30281 23.9033 6.52691 23.8962C6.3759 23.8962 6.32771 23.9444 6.31968 24.1157C6.27952 25.0475 6.19759 25.9739 6.08514 26.8985C5.82811 28.9815 5.50683 31.0521 5.15181 33.1173C5.11861 33.3077 5.18983 33.4034 5.36546 33.4046C9.2257 33.4046 13.0859 33.4046 16.9462 33.4046C16.9912 33.4046 17.0378 33.4046 17.0827 33.4046C17.1614 33.4046 17.1727 33.3582 17.1357 33.294C16.943 32.9638 16.7888 32.6085 16.4177 32.4443C15.8779 32.2051 15.6273 31.6839 15.6819 31.0396C15.7157 30.6415 15.6402 30.2827 15.359 29.9954C15.1807 29.8133 14.9928 29.6491 14.7984 29.492C14.6779 29.3956 14.5494 29.3581 14.3984 29.3599C13.4474 29.3653 12.498 29.3635 11.547 29.3635C11.4554 29.3635 11.3639 29.3671 11.2787 29.3224C11.1438 29.2528 11.0827 29.1314 11.0988 28.9726C11.1165 28.8066 11.2 28.6923 11.359 28.6691C11.4233 28.6602 11.4892 28.6638 11.5534 28.6638C12.3936 28.6638 13.2337 28.662 14.0723 28.6656C14.2185 28.6656 14.2715 28.637 14.2201 28.4567C14.0659 27.9195 13.9165 27.3804 13.788 26.836C13.7317 26.6004 13.6305 26.5415 13.4217 26.545C12.5751 26.5575 11.7285 26.5504 10.8835 26.5504C10.7647 26.5504 10.6474 26.545 10.5655 26.429C10.4867 26.3183 10.4627 26.1952 10.5189 26.0631C10.5896 25.8989 10.7149 25.8471 10.8723 25.8471C11.6867 25.8489 12.4996 25.8436 13.3141 25.8525C13.4811 25.8525 13.5116 25.8061 13.4635 25.6329C13.2691 24.935 13.0876 24.2335 12.8948 23.5356C12.8193 23.2589 12.7823 22.9823 12.8707 22.7056C12.9542 22.445 12.9092 22.2147 12.7984 21.9791C12.7341 21.8417 12.657 21.797 12.5237 21.7988C12.0096 21.806 11.4956 21.8024 10.9815 21.7988C10.898 21.7988 10.8112 21.7899 10.7309 21.7685C10.5671 21.7256 10.4932 21.5918 10.4964 21.4169C10.4996 21.2455 10.5944 21.1366 10.7406 21.0938C10.8016 21.0759 10.8691 21.0777 10.9349 21.0777C11.3847 21.0777 11.8329 21.0777 12.2827 21.0759C12.355 21.0759 12.4578 21.1063 12.4562 20.9688C12.453 20.5993 12.5301 20.237 12.5398 19.8675C12.5494 19.5177 12.3293 19.282 12.0161 19.282C11.4169 19.282 10.8177 19.282 10.2201 19.2803C10.1092 19.2803 9.99839 19.2731 9.89076 19.2481C9.74619 19.216 9.67068 19.0982 9.65783 18.9393C9.64498 18.7876 9.70763 18.6752 9.82972 18.6055C9.90843 18.5609 9.99197 18.5591 10.0771 18.5591C10.6297 18.5591 11.1839 18.5591 11.7365 18.5591C12.1333 18.5591 12.1285 18.5591 12.1526 18.1129C12.1606 17.9522 12.1173 17.8951 11.9695 17.8987C11.6112 17.9076 11.253 17.9023 10.8948 17.8987C10.6474 17.8951 10.4867 17.7452 10.4884 17.5328C10.49 17.3168 10.6506 17.1758 10.8996 17.1758C11.245 17.1758 11.5904 17.1794 11.9341 17.1758C11.9823 17.1758 12.0498 17.2043 12.0739 17.1401C12.0996 17.074 12.0369 17.0366 11.9952 17.008C11.5727 16.7171 11.1374 16.4618 10.6201 16.4636C10.1574 16.4672 9.69639 16.4654 9.23374 16.4636C8.96867 16.4636 8.81446 16.3226 8.81446 16.0923C8.81446 15.8781 8.97189 15.7425 9.2257 15.7425C9.69478 15.7425 10.1639 15.7371 10.6313 15.7443C10.7631 15.746 10.8434 15.6853 10.9317 15.5872C11.2225 15.2677 11.1871 14.8928 11.1229 14.4948C10.9301 13.2935 10.6747 12.1029 10.5317 10.8927C10.5044 10.6607 10.4241 10.6125 10.2378 10.6178C9.7751 10.6286 9.31406 10.6214 8.85141 10.6214C8.76626 10.6214 8.68273 10.6268 8.60884 10.5661C8.48996 10.4679 8.44819 10.3376 8.48675 10.1841C8.53333 9.99668 8.66024 9.9235 8.82731 9.9235C9.33494 9.9235 9.84257 9.91993 10.3502 9.9235C10.4723 9.9235 10.5333 9.89137 10.5606 9.74143C10.6265 9.36124 10.6345 9.36302 10.2747 9.36124C10.2426 9.36124 10.2088 9.36124 10.1767 9.36124C9.94217 9.35588 9.81044 9.23093 9.80723 9.01495C9.80562 8.79897 9.93896 8.66689 10.1687 8.66332C10.3502 8.65975 10.5333 8.65618 10.7149 8.66332C10.9285 8.67046 10.9044 8.47054 10.9269 8.34202C10.9558 8.1671 10.8096 8.22779 10.7357 8.226C10.3197 8.22065 9.90201 8.22422 9.48594 8.22243C9.42811 8.22243 9.36868 8.226 9.31084 8.21886C9.10683 8.19566 8.98795 8.06 8.98635 7.86009C8.98635 7.65839 9.10683 7.52273 9.30763 7.49952C9.36546 7.49238 9.4249 7.49595 9.48273 7.49595C9.94538 7.49595 10.408 7.48881 10.8691 7.49952C11.0378 7.50309 11.0956 7.44776 11.0956 7.25498C11.0972 6.68915 11.0281 6.13046 10.9831 5.56998C10.9671 5.37364 10.906 5.31116 10.7309 5.31652C10.3149 5.32901 9.89719 5.32366 9.48112 5.3183C9.23374 5.31473 9.08916 5.12196 9.14859 4.88277C9.19518 4.69535 9.31888 4.62038 9.48755 4.62038C9.88434 4.62038 10.2811 4.62217 10.6795 4.6186C10.7357 4.6186 10.8177 4.65787 10.8418 4.55256C10.9076 4.25804 10.6908 3.8832 10.4161 3.82786C10.3277 3.81001 10.2345 3.80644 10.1446 3.80644C8.8498 3.80644 7.55341 3.80644 6.25863 3.80644C6.18795 3.80644 6.11406 3.81001 6.04498 3.79573C5.80884 3.74575 5.71727 3.4441 5.8747 3.23883C5.95823 3.12994 6.06747 3.10317 6.19116 3.10495C6.61366 3.10674 7.03615 3.10495 7.50201 3.10495L7.4988 3.10138ZM0.628112 19.4623C0.628112 24.0122 0.628112 28.562 0.628112 33.1119C0.628112 33.2654 0.600803 33.4064 0.824096 33.4046C1.94378 33.3939 3.06345 33.3975 4.18313 33.4046C4.33896 33.4046 4.38394 33.3475 4.38233 33.1797C4.37912 31.0467 4.37751 28.9119 4.38233 26.7789C4.38233 26.6022 4.33735 26.5397 4.17189 26.5415C3.58554 26.5504 3.0008 26.545 2.41446 26.545C2.26506 26.545 2.11406 26.5522 1.96627 26.5397C1.79438 26.5254 1.69478 26.4094 1.68032 26.2166C1.66747 26.0328 1.77992 25.881 1.9502 25.8525C2.00803 25.8418 2.06747 25.8471 2.1253 25.8453C2.7759 25.8453 3.42651 25.8418 4.07871 25.8471C4.2249 25.8471 4.26345 25.8043 4.21205 25.649C4.15422 25.4723 4.1012 25.292 4.06747 25.1099C4.03534 24.9368 3.96627 24.8779 3.80402 24.8815C3.0747 24.8922 2.34538 24.8868 1.61606 24.885C1.3751 24.885 1.21125 24.7297 1.21446 24.5173C1.21928 24.3121 1.37189 24.1746 1.61125 24.1639C1.66265 24.1621 1.71566 24.1639 1.76707 24.1639C2.4241 24.1639 3.08273 24.1639 3.73976 24.1621C3.82329 24.1621 3.93574 24.1978 3.94378 24.0372C3.97269 23.5106 4 22.984 4.02892 22.4575C4.03534 22.3361 3.98876 22.2879 3.88112 22.2897C3.65301 22.2933 3.4249 22.2933 3.19839 22.2897C2.96707 22.2843 2.84177 22.1523 2.84819 21.9273C2.85301 21.7149 2.97671 21.5953 3.20161 21.5936C3.449 21.59 3.69639 21.5936 3.94378 21.5936C4.00803 21.5936 4.07068 21.5989 4.09639 21.5007C4.20402 21.0991 4.0996 20.9349 3.72851 20.9349C3.16948 20.9349 2.60884 20.9349 2.0498 20.9349C1.97912 20.9349 1.90522 20.9331 1.83614 20.9188C1.63374 20.876 1.51647 20.7261 1.53253 20.5369C1.54699 20.3566 1.69639 20.2138 1.89237 20.212C2.50442 20.2084 3.11647 20.212 3.72851 20.212C3.98233 20.212 4.09424 20.0763 4.06426 19.805C4.05783 19.7479 4.0498 19.6908 4.04177 19.6337C3.96787 19.1767 3.91968 18.7198 3.95823 18.2539C4.02249 17.4846 4.08032 16.7153 4.14137 15.946C4.20241 15.1695 4.26185 14.3913 4.3245 13.6148C4.36627 13.1025 4.38715 12.5938 4.24257 12.0922C4.15422 11.7834 4.07872 11.4639 4.10121 11.1337C4.11566 10.9266 4.03534 10.8749 3.86185 10.8785C3.37992 10.8874 2.89799 10.8802 2.41606 10.882C2.30201 10.882 2.19116 10.8695 2.11888 10.7553C2.05301 10.6518 2.01125 10.5393 2.06747 10.4108C2.13815 10.2501 2.25542 10.1805 2.41446 10.1805C2.91566 10.1805 3.41687 10.177 3.91807 10.1841C4.05301 10.1841 4.10763 10.1359 4.09799 9.98419C4.08996 9.85389 4.08835 9.72358 4.09799 9.59328C4.11245 9.41836 4.05944 9.34696 3.89237 9.35588C3.63855 9.37016 3.38474 9.35945 3.13092 9.35945C2.56386 9.35945 1.99839 9.36124 1.43133 9.35945C1.18715 9.35945 1.04096 9.17025 1.09558 8.92749C1.14217 8.7133 1.29157 8.66153 1.46988 8.66332C2.26988 8.6651 3.07149 8.65796 3.87149 8.66867C4.05623 8.67046 4.10602 8.60441 4.0996 8.40985C4.08675 8.05643 4.09639 7.70122 4.09639 7.34602C4.09639 7.15324 4.01232 7.05685 3.84418 7.05685C3.27068 7.05685 2.6988 7.05864 2.1253 7.05507C1.89237 7.05328 1.75743 6.91763 1.75904 6.70343C1.75904 6.48924 1.89398 6.36072 2.12691 6.35893C2.65382 6.35715 3.18072 6.35893 3.70924 6.35893C4.13012 6.35893 4.13333 6.3518 4.0996 5.88771C4.09157 5.76811 4.04819 5.71992 3.94217 5.7217C3.76707 5.72349 3.59036 5.7217 3.41526 5.7217C2.79518 5.71456 2.32129 5.28617 2.18474 4.61503C2.12369 4.32051 2.16064 4.02421 2.15261 3.72791C2.13976 3.32807 1.92129 3.07461 1.56627 3.06568C1.31245 3.05855 1.05863 3.07104 0.804819 3.06212C0.663454 3.05676 0.628112 3.12459 0.629719 3.26917C0.634538 3.73147 0.636145 4.19556 0.629719 4.65787C0.628112 4.81316 0.684337 4.85957 0.814458 4.85421C1.00884 4.84529 1.20482 4.84707 1.4008 4.85421C1.62088 4.86135 1.75261 4.99166 1.76064 5.19514C1.76867 5.40577 1.63695 5.5557 1.41205 5.57177C1.2498 5.58426 1.08594 5.57712 0.923695 5.57712C0.729853 5.57712 0.632932 5.68184 0.632932 5.89128C0.632932 10.4197 0.632932 14.9464 0.632932 19.4748L0.628112 19.4623ZM15.7253 29.3903C15.8201 29.5063 15.9052 29.6045 15.9839 29.708C16.3068 30.131 16.3438 30.6362 16.3245 31.1592C16.3116 31.5162 16.4016 31.6804 16.702 31.8071C16.9735 31.9231 17.1839 32.1141 17.3542 32.3694C17.5293 32.6318 17.6916 32.9031 17.8169 33.1958C17.8811 33.3457 17.9631 33.4029 18.1173 33.4011C18.7149 33.3904 19.3157 33.3725 19.9133 33.4029C20.7052 33.4439 21.3173 33.1672 21.7189 32.3658C21.9502 31.9053 22.3245 31.5965 22.7614 31.3894C23.0121 31.2716 23.2659 31.1556 23.5229 31.0556C24.0434 30.8504 24.5783 30.6951 25.1165 30.5523C25.1823 30.5344 25.2771 30.5469 25.2643 30.4041C25.2129 29.8204 25.4602 29.442 25.9341 29.2207C26.0867 29.1493 26.2378 29.0708 26.4145 28.919C26.1173 28.919 25.8715 28.9369 25.6289 28.9155C24.6875 28.8298 23.7992 28.9994 22.951 29.4849C22.4659 29.7633 21.9422 29.7312 21.4361 29.4974C21.2161 29.3956 20.9912 29.351 20.7534 29.351C19.147 29.3546 17.539 29.351 15.9325 29.3546C15.8699 29.3546 15.804 29.3349 15.7253 29.3885V29.3903ZM32.1896 26.4629C32.0675 26.4379 31.9775 26.4183 31.8892 26.4022C30.7952 26.2148 29.698 26.2237 28.6008 26.3326C28.1349 26.379 27.6691 26.4469 27.2273 26.6379C26.9687 26.7503 26.943 26.8253 27.0667 27.0912C27.2241 27.4304 27.4281 27.7463 27.502 28.1283C27.5181 28.2122 27.5791 28.2175 27.6386 28.2175C28.2249 28.2175 28.8112 28.2336 29.3944 28.2051C29.992 28.1765 30.5221 27.8784 31.0522 27.6017C31.1936 27.5286 31.3542 27.4714 31.4602 27.3554C31.7092 27.0841 31.9325 26.7824 32.1896 26.4629ZM3.62731 5.00951C4.10763 5.00951 4.10281 5.00951 4.10121 4.50793C4.10121 4.36514 4.05783 4.28303 3.94217 4.22055C3.61767 4.04563 3.2755 3.98315 2.91888 4.00636C2.84819 4.01171 2.79518 4.02421 2.78072 4.1206C2.72289 4.48473 2.92209 4.86314 3.23855 4.98273C3.37189 5.03271 3.51004 4.9988 3.6257 5.01129L3.62731 5.00951ZM37.261 30.3042C36.9157 30.1828 36.5655 30.1257 36.2072 30.1453C36.1623 30.1471 36.1044 30.1417 36.0884 30.1971C36.0707 30.2542 36.1253 30.2845 36.159 30.3131C36.2618 30.4023 36.3663 30.4862 36.4707 30.5719C36.5269 30.6201 36.5896 30.6379 36.6522 30.6005C36.8482 30.488 37.0554 30.4095 37.261 30.3042Z" fill="#033726"/>
<path d="M39.6867 16.2084C38.7743 16.012 37.8666 15.8014 36.9397 15.6997C36.3357 15.6318 35.7815 15.6907 35.367 16.2619C35.2193 16.4636 35.0634 16.6582 34.9205 16.8635C34.5205 17.4382 34.0337 17.747 33.3478 17.6096C32.9735 17.5346 32.5879 17.5614 32.2907 17.9005C32.1863 18.0201 32.0835 18.1397 31.9807 18.2611C31.6658 18.6359 31.3751 19.0358 31.0104 19.357C30.4674 19.8354 29.8843 19.9604 29.2417 19.6373C28.9799 19.5052 28.7839 19.2839 28.5976 19.05C28.4273 18.8358 28.2136 18.7287 27.9614 18.727C27.298 18.7234 26.6329 18.718 25.9695 18.7287C25.653 18.7341 25.3927 18.8751 25.2273 19.2C25.1213 19.407 24.9928 19.5998 24.8225 19.7515C24.1944 20.3102 23.5148 20.3441 22.7727 19.8658C21.9662 19.3463 21.3269 18.6163 20.7132 17.8577C20.5237 17.6238 20.3277 17.4864 20.0401 17.506C19.8201 17.5221 19.5984 17.5096 19.3767 17.5096C19.1984 17.5096 19.0474 17.5774 18.9237 17.7238C18.8257 17.8398 18.7293 17.9576 18.6217 18.0629C18.1253 18.552 17.4329 18.3396 17.2353 17.6399C17.1887 17.4757 17.1582 17.3043 17.1229 17.1348C17.0891 16.9723 16.9911 16.8849 16.8514 16.8652C16.1237 16.7635 15.0281 17.1883 14.7678 18.195C14.5927 18.868 14.408 19.5391 14.2072 20.2031C14.0562 20.7047 13.8779 21.2009 13.4859 21.5436C13.3879 21.6293 13.3767 21.6936 13.4281 21.8114C13.5582 22.1059 13.6 22.4182 13.5148 22.7378C13.4474 22.993 13.4747 23.234 13.5421 23.4821C13.9903 25.1367 14.4369 26.7914 14.8771 28.4478C14.9205 28.6121 14.9944 28.6638 15.1405 28.6603C15.4586 28.6513 15.7783 28.6567 16.098 28.6567C16.5306 28.6567 16.8289 28.433 16.9927 27.9855C17.5438 26.4915 17.7462 24.9101 17.9261 23.325C17.9903 22.7592 18.0321 22.1916 18.0899 21.6239C18.114 21.3883 18.2506 21.2652 18.4434 21.283C18.6104 21.2991 18.7486 21.4794 18.7293 21.6811C18.6393 22.6574 18.5558 23.6356 18.4176 24.6048C18.2281 25.9275 18 27.2394 17.4956 28.4693C17.4442 28.5942 17.465 28.6585 17.6 28.6585C18.1799 28.6567 18.7582 28.6567 19.3381 28.6585C19.457 28.6585 19.51 28.6192 19.465 28.4764C19.2546 27.832 19.155 27.1645 19.1116 26.4844C19.0907 26.1452 19.0795 25.8043 19.1197 25.467C19.147 25.2313 19.2867 25.1046 19.4554 25.1207C19.6337 25.1385 19.7574 25.2992 19.759 25.5294C19.7622 25.7686 19.759 26.006 19.759 26.2452C19.7558 26.9842 19.8956 27.6928 20.1124 28.3872C20.1751 28.5889 20.2666 28.6763 20.4658 28.662C20.9172 28.6281 21.359 28.6745 21.7831 28.8834C22.0482 29.0137 22.3309 28.9958 22.6024 28.8834C22.755 28.8191 22.9092 28.762 23.0538 28.6799C23.6642 28.339 24.2988 28.1676 24.9911 28.2176C25.5293 28.2569 26.0707 28.2265 26.612 28.2247C26.8546 28.2247 26.8755 28.1819 26.7582 27.9391C26.6409 27.6982 26.4996 27.4715 26.4112 27.2109C26.2586 26.7575 26.3614 26.4112 26.7309 26.1488C26.9317 26.006 27.1534 25.9239 27.3799 25.8561C27.4715 25.8275 27.5213 25.7865 27.5421 25.6758C27.6257 25.2224 27.7189 24.7726 27.8088 24.321C27.9036 23.8409 27.9952 23.3607 28.0899 22.8806C28.1349 22.6574 28.2972 22.52 28.4658 22.5539C28.6506 22.5914 28.755 22.7806 28.7181 23.0144C28.7068 23.0858 28.6923 23.1554 28.6795 23.2268C28.5333 23.9747 28.3887 24.7244 28.2393 25.4705C28.2104 25.6187 28.2185 25.6847 28.3839 25.6472C28.5542 25.608 28.7325 25.5901 28.906 25.5883C29.0425 25.5883 29.118 25.5241 29.1839 25.4009C29.4008 24.9886 29.4763 24.537 29.4875 24.0693C29.4972 23.6856 29.5004 23.3018 29.555 22.9252C29.7076 21.8738 30.2185 21.0403 30.8707 20.2977C31.0201 20.1281 31.2048 20.1317 31.3381 20.2834C31.465 20.428 31.4602 20.6172 31.3237 20.7886C31.2257 20.9135 31.1213 21.0331 31.0265 21.1616C30.4883 21.8899 30.1317 22.6878 30.1413 23.6677C30.1462 24.2353 30.1221 24.8137 29.9148 25.3509C29.8554 25.5062 29.8827 25.5437 30.0337 25.5473C30.9317 25.5633 31.8249 25.6383 32.7036 25.8614C32.7791 25.8811 32.8434 25.8793 32.9092 25.8347C33.4104 25.4973 33.9389 25.5241 34.4723 25.7079C34.5879 25.7472 34.649 25.7311 34.6972 25.6026C34.8289 25.2545 34.9462 24.9047 35.0377 24.5406C35.2193 23.8177 35.2819 23.0805 35.2691 22.3308C35.2658 22.1005 35.3863 21.9506 35.5582 21.9417C35.7221 21.9345 35.8859 22.0791 35.8907 22.2683C35.9004 22.6432 35.9116 23.0198 35.8779 23.3946C35.7992 24.2657 35.6016 25.0993 35.2739 25.8953C35.2225 26.0185 35.245 26.0863 35.3542 26.1542C35.6803 26.3523 35.9791 26.5986 36.2522 26.8771C36.3357 26.9628 36.4 26.977 36.4851 26.8931C36.6201 26.7628 36.7807 26.6789 36.9446 26.6111C37.8281 26.2452 38.7502 26.0721 39.6851 25.9703C39.8152 25.9382 39.8827 26.0881 39.9968 26.1024V16.0763C39.8811 16.087 39.8104 16.228 39.6835 16.2084H39.6867Z" fill="#6D5A4B"/>
<path d="M7.49857 3.10128C7.03271 3.10128 6.61022 3.10128 6.18773 3.10128C6.06404 3.10128 5.9548 3.12627 5.87126 3.23516C5.71384 3.43864 5.8054 3.7403 6.04155 3.79206C6.11062 3.80634 6.18452 3.80277 6.2552 3.80277C7.54998 3.80277 8.84636 3.80277 10.1411 3.80277C10.2311 3.80277 10.3243 3.80634 10.4126 3.82419C10.6857 3.87953 10.9042 4.25437 10.8383 4.54889C10.8142 4.6542 10.7339 4.61493 10.6761 4.61493C10.2793 4.6185 9.88251 4.6185 9.48412 4.61672C9.31544 4.61672 9.19175 4.69168 9.14516 4.8791C9.08572 5.11829 9.2303 5.31106 9.47769 5.31463C9.89375 5.31999 10.3114 5.32534 10.7275 5.31285C10.9026 5.30749 10.9636 5.36997 10.9797 5.56631C11.0263 6.12679 11.0938 6.68548 11.0921 7.25132C11.0921 7.44231 11.0343 7.49942 10.8656 7.49585C10.403 7.48515 9.94195 7.49228 9.4793 7.49228C9.42147 7.49228 9.36203 7.48872 9.3042 7.49585C9.10179 7.51906 8.98291 7.65472 8.98291 7.85642C8.98291 8.05633 9.10339 8.19199 9.30741 8.21519C9.36524 8.22233 9.42468 8.21876 9.48251 8.21876C9.89857 8.21876 10.3162 8.21519 10.7323 8.22233C10.8078 8.22233 10.9524 8.16343 10.9235 8.33836C10.9026 8.46687 10.9267 8.66679 10.7114 8.65965C10.5299 8.65251 10.3468 8.65608 10.1652 8.65965C9.93552 8.66322 9.80058 8.79709 9.80379 9.01128C9.8054 9.22726 9.93874 9.35043 10.1733 9.35757C10.2054 9.35757 10.2391 9.35757 10.2713 9.35757C10.6327 9.35757 10.6231 9.35757 10.5572 9.73776C10.5315 9.88948 10.4689 9.92161 10.3468 9.91983C9.83914 9.91447 9.33151 9.91804 8.82388 9.91983C8.65681 9.91983 8.5299 9.9948 8.48331 10.1804C8.44476 10.3339 8.48653 10.4642 8.6054 10.5624C8.6793 10.6231 8.76444 10.6177 8.84797 10.6177C9.31062 10.6177 9.77327 10.6249 10.2343 10.6142C10.4207 10.6088 10.501 10.657 10.5283 10.8891C10.6713 12.101 10.9267 13.2898 11.1195 14.4911C11.1837 14.8892 11.2191 15.264 10.9283 15.5835C10.8399 15.6817 10.758 15.7424 10.6279 15.7406C10.1588 15.7334 9.68974 15.737 9.22227 15.7388C8.96845 15.7388 8.81102 15.8745 8.81102 16.0886C8.81102 16.3207 8.96524 16.4581 9.2303 16.4599C9.69295 16.4617 10.154 16.4635 10.6166 16.4599C11.1355 16.4564 11.5693 16.7134 11.9917 17.0043C12.0335 17.0329 12.0946 17.0704 12.0705 17.1364C12.0464 17.2007 11.9789 17.1721 11.9307 17.1721C11.5853 17.1721 11.2399 17.1703 10.8962 17.1721C10.6472 17.1721 10.4881 17.3131 10.4849 17.5291C10.4833 17.7433 10.644 17.8932 10.8913 17.895C11.2496 17.9004 11.6078 17.904 11.966 17.895C12.1138 17.8915 12.1588 17.9486 12.1492 18.1092C12.1251 18.5555 12.1299 18.5555 11.7331 18.5555C11.1805 18.5555 10.6263 18.5555 10.0737 18.5555C9.98853 18.5555 9.905 18.5572 9.82628 18.6019C9.70259 18.6733 9.63994 18.7839 9.6544 18.9357C9.66886 19.0945 9.74275 19.2123 9.88733 19.2445C9.99496 19.2694 10.1074 19.2766 10.2166 19.2766C10.8158 19.2802 11.415 19.2784 12.0126 19.2784C12.3259 19.2784 12.546 19.514 12.5363 19.8638C12.5267 20.2315 12.4496 20.5939 12.4528 20.9652C12.4528 21.1026 12.35 21.0723 12.2793 21.0723C11.8295 21.074 11.3813 21.0723 10.9315 21.074C10.8672 21.074 10.7998 21.0723 10.7371 21.0901C10.5909 21.1329 10.4962 21.2436 10.493 21.4132C10.4897 21.5881 10.5636 21.722 10.7275 21.7648C10.8094 21.7862 10.8946 21.7934 10.9781 21.7952C11.4921 21.7969 12.0062 21.8005 12.5203 21.7952C12.6536 21.7952 12.7307 21.838 12.795 21.9754C12.9058 22.2128 12.9508 22.4413 12.8672 22.7019C12.7789 22.9786 12.8158 23.2553 12.8913 23.5319C13.0825 24.2298 13.2656 24.9313 13.46 25.6293C13.5082 25.8024 13.4777 25.8506 13.3106 25.8488C12.4978 25.8399 11.6833 25.847 10.8689 25.8435C10.713 25.8435 10.5861 25.8952 10.5154 26.0594C10.4592 26.1915 10.4833 26.3129 10.562 26.4254C10.644 26.5432 10.7612 26.5467 10.8801 26.5467C11.7267 26.5467 12.5733 26.5539 13.4183 26.5414C13.6271 26.5378 13.7283 26.5967 13.7845 26.8323C13.913 27.3767 14.064 27.9158 14.2166 28.4531C14.2681 28.6316 14.2166 28.6619 14.0689 28.6619C13.2287 28.6565 12.3901 28.6601 11.55 28.6601C11.4857 28.6601 11.4199 28.6565 11.3556 28.6655C11.1982 28.6887 11.1146 28.8029 11.0954 28.9689C11.0777 29.1278 11.1387 29.2492 11.2753 29.3188C11.362 29.3634 11.452 29.3598 11.5436 29.3598C12.4946 29.3598 13.444 29.3616 14.395 29.3563C14.546 29.3563 14.6745 29.392 14.795 29.4883C14.9909 29.6436 15.1789 29.8096 15.3556 29.9917C15.6351 30.2791 15.7122 30.6379 15.6785 31.0359C15.6239 31.6803 15.8729 32.2015 16.4142 32.4407C16.7853 32.6049 16.9395 32.9583 17.1323 33.2903C17.1693 33.3546 17.158 33.401 17.0793 33.401C17.0343 33.401 16.9877 33.401 16.9428 33.401C13.0825 33.401 9.22227 33.401 5.36203 33.401C5.18639 33.401 5.11517 33.3052 5.14837 33.1136C5.50339 31.0484 5.82629 28.9778 6.08171 26.8948C6.19576 25.972 6.27608 25.0438 6.31624 24.112C6.32428 23.9407 6.37247 23.8907 6.52347 23.8925C7.29777 23.8996 8.07207 23.8961 8.84797 23.8961C8.9058 23.8961 8.96524 23.8978 9.02307 23.8943C9.20942 23.8782 9.33151 23.7372 9.33151 23.5462C9.33151 23.3552 9.20781 23.216 9.02147 23.1981C8.97006 23.1928 8.91705 23.1964 8.86564 23.1964C8.1042 23.1964 7.34275 23.191 6.58131 23.1999C6.39817 23.2017 6.35159 23.1375 6.35319 22.9411C6.37729 20.4172 6.36926 17.8932 6.3548 15.3675C6.3548 15.2301 6.34677 15.0926 6.33392 14.957C6.31785 14.7963 6.35641 14.7214 6.52187 14.7267C6.93793 14.7392 7.3556 14.7339 7.77167 14.7267C7.95641 14.7232 8.09295 14.5768 8.10259 14.3965C8.11223 14.2091 8.00299 14.0627 7.81504 14.0235C7.74596 14.0092 7.67207 14.0074 7.60139 14.0056C7.24958 14.0056 6.89777 13.9967 6.54757 14.0074C6.3789 14.0127 6.30982 13.961 6.32428 13.7646C6.33713 13.5915 6.3291 13.4184 6.32428 13.2434C6.31946 13.122 6.36444 13.0739 6.47367 13.0792C6.57167 13.0846 6.66966 13.0846 6.76604 13.0792C6.95721 13.0649 7.09376 12.9096 7.08894 12.7186C7.08251 12.5384 6.94757 12.3956 6.76765 12.3813C6.74837 12.3813 6.7291 12.3813 6.70982 12.3813C6.30018 12.3724 6.29536 12.3724 6.29697 11.9226C6.29697 11.7244 6.26966 11.537 6.20861 11.3496C6.08974 10.9819 5.98211 10.6106 5.86323 10.2429C5.82629 10.1305 5.84396 10.0805 5.95962 10.0876C6.04315 10.093 6.1299 10.093 6.21343 10.084C6.37247 10.068 6.51062 9.90555 6.51062 9.73955C6.51062 9.57533 6.37408 9.39862 6.21665 9.39327C5.92428 9.38256 5.6303 9.37899 5.33793 9.39327C5.11624 9.40576 5.0038 9.62888 5.0809 9.8877C5.24958 10.45 5.42307 11.0104 5.59978 11.5709C5.64315 11.7101 5.66404 11.8476 5.66564 11.994C5.6801 13.5629 5.68171 15.1319 5.71705 16.7009C5.75239 18.2627 5.74918 19.8246 5.73151 21.3864C5.71865 22.593 5.72026 23.8015 5.62388 25.0045C5.50179 26.5289 5.29938 28.0407 5.06645 29.5704C5.01504 29.4866 5.03432 29.4152 5.03432 29.3509C5.03271 28.6351 5.01986 27.9176 5.03753 27.2036C5.05359 26.5378 4.99094 25.8881 4.77247 25.2669C4.56203 24.6672 4.57488 24.0531 4.61825 23.4302C4.65681 22.8536 4.68894 22.2771 4.72428 21.7006C4.73713 21.4989 4.74998 21.2972 4.76122 21.0955C4.79014 20.5368 4.77086 19.9816 4.65841 19.4354C4.52026 18.7714 4.61665 18.111 4.66323 17.4506C4.71785 16.6795 4.78371 15.9102 4.84315 15.1408C4.89135 14.5215 4.93472 13.9021 4.98934 13.2845C5.03592 12.7633 4.95239 12.2617 4.82548 11.7655C4.75319 11.4852 4.72428 11.2014 4.72428 10.9087C4.72749 8.44188 4.72428 5.97685 4.72428 3.51004C4.72428 2.97098 4.92829 2.74072 5.40861 2.74072C5.91624 2.74072 6.42388 2.74072 6.93151 2.74072C7.16283 2.74072 7.33793 2.84961 7.49536 3.09771L7.49857 3.10128ZM13.293 30.404C12.8897 30.404 12.4865 30.4005 12.0833 30.404C11.8391 30.4076 11.709 30.545 11.7154 30.7735C11.7203 30.9859 11.8616 31.1216 12.109 31.1234C12.9026 31.1287 13.6962 31.1287 14.4881 31.1234C14.7355 31.1234 14.8865 30.9663 14.8801 30.7467C14.8737 30.5361 14.7259 30.404 14.4817 30.4022C14.0849 30.4005 13.6881 30.4022 13.2913 30.4022L13.293 30.404Z" fill="#FFC941"/>
<path d="M15.5453 39.5841C10.8545 39.5841 6.16373 39.5841 1.47136 39.5823C1.14526 39.5823 0.82076 39.5752 0.496262 39.5859C0.350078 39.5912 0.311523 39.5448 0.311523 39.3806C0.317949 37.6314 0.314736 35.8821 0.314736 34.1328C0.385419 34.1275 0.456102 34.115 0.528391 34.115C7.66735 34.115 14.8079 34.115 21.9469 34.115C22.3967 34.115 22.7597 34.347 23.0778 34.6683C23.2722 34.8629 23.2834 35.0574 23.1565 35.3145C22.9926 35.6429 22.7549 35.8999 22.4931 36.1284C21.6577 36.8603 20.7003 37.3511 19.7284 37.8081C18.4818 38.3953 17.2031 38.879 15.8987 39.2789C15.7364 39.3289 15.6143 39.4128 15.5437 39.5823L15.5453 39.5841Z" fill="#958374"/>
<path d="M0.627944 19.4623C0.627944 14.9339 0.627944 10.4072 0.627944 5.87877C0.627944 5.66934 0.724865 5.56462 0.918707 5.56462C1.08096 5.56462 1.24481 5.57176 1.40706 5.55926C1.63357 5.54141 1.76529 5.39326 1.75566 5.18264C1.74762 4.97915 1.6175 4.85063 1.39582 4.84171C1.20144 4.83457 1.00545 4.83278 0.80947 4.84171C0.677744 4.84706 0.621519 4.80244 0.624732 4.64536C0.631157 4.18306 0.631157 3.71897 0.624732 3.25667C0.623125 3.11208 0.658466 3.04426 0.799832 3.04961C1.05365 3.05853 1.30746 3.04783 1.56128 3.05318C1.9179 3.0621 2.13638 3.31557 2.14762 3.7154C2.15726 4.0117 2.12031 4.30801 2.17975 4.60252C2.3179 5.27188 2.7918 5.70027 3.41027 5.7092C3.58537 5.71098 3.76208 5.71277 3.93718 5.7092C4.0416 5.7092 4.08497 5.75561 4.09461 5.8752C4.12835 6.33929 4.12513 6.34643 3.70425 6.34643C3.17734 6.34643 2.65043 6.34643 2.12192 6.34643C1.88899 6.34643 1.75566 6.47673 1.75405 6.69093C1.75405 6.90334 1.88738 7.04078 2.12031 7.04256C2.69381 7.04792 3.2657 7.04256 3.83919 7.04435C4.00733 7.04435 4.0914 7.14074 4.0914 7.33351C4.0914 7.68872 4.08337 8.04214 4.09461 8.39735C4.10104 8.59191 4.05124 8.65974 3.8665 8.65617C3.0665 8.64546 2.26489 8.6526 1.46489 8.65081C1.28497 8.65081 1.13718 8.70258 1.09059 8.91499C1.03758 9.15953 1.18216 9.34516 1.42634 9.34695C1.99341 9.35052 2.55887 9.34695 3.12594 9.34695C3.37975 9.34695 3.63357 9.35766 3.88738 9.34338C4.05445 9.33445 4.10746 9.40585 4.093 9.58078C4.08337 9.70929 4.08497 9.84138 4.093 9.97168C4.10264 10.1234 4.04802 10.1734 3.91308 10.1716C3.41188 10.1645 2.91068 10.1716 2.40947 10.168C2.25043 10.168 2.13317 10.2376 2.06248 10.3983C2.00626 10.5268 2.04802 10.6393 2.11389 10.7428C2.18618 10.8552 2.29541 10.8695 2.41108 10.8695C2.893 10.8695 3.37493 10.8749 3.85686 10.8659C4.02875 10.8624 4.10907 10.9124 4.09622 11.1212C4.07373 11.4514 4.14923 11.7691 4.23758 12.0797C4.38216 12.5831 4.36128 13.09 4.31951 13.6023C4.25525 14.3787 4.19742 15.1552 4.13638 15.9334C4.07533 16.7028 4.0175 17.4721 3.95325 18.2414C3.91469 18.7073 3.96288 19.1642 4.03678 19.6212C4.04642 19.6783 4.05445 19.7354 4.05927 19.7925C4.08926 20.0638 3.97734 20.1995 3.72353 20.1995C3.11148 20.1995 2.49943 20.1977 1.88738 20.1995C1.6914 20.1995 1.54361 20.3441 1.52754 20.5244C1.51148 20.7136 1.62875 20.8635 1.83116 20.9063C1.90023 20.9206 1.97413 20.9224 2.04481 20.9224C2.60385 20.9224 3.16449 20.9224 3.72353 20.9224C4.09461 20.9224 4.19903 21.0866 4.0914 21.4882C4.0657 21.5864 4.00304 21.5811 3.93879 21.5811C3.6914 21.5811 3.44401 21.5811 3.19662 21.5811C2.97011 21.5828 2.84802 21.7024 2.84321 21.9148C2.83839 22.1397 2.96208 22.2718 3.19341 22.2772C3.42152 22.2825 3.64963 22.2825 3.87614 22.2772C3.98377 22.2772 4.03035 22.3236 4.02393 22.445C3.99501 22.9715 3.9677 23.4981 3.93879 24.0247C3.93076 24.1853 3.81831 24.1478 3.73477 24.1496C3.07774 24.1514 2.41911 24.1496 1.76208 24.1514C1.71068 24.1514 1.65766 24.1514 1.60626 24.1514C1.3669 24.1621 1.21429 24.2996 1.20947 24.5048C1.20465 24.7172 1.36851 24.8725 1.61108 24.8725C2.34039 24.8743 3.06971 24.8797 3.79903 24.869C3.96128 24.8672 4.03196 24.9261 4.06248 25.0974C4.09622 25.2813 4.14923 25.4616 4.20706 25.6365C4.25686 25.7918 4.21991 25.8364 4.07373 25.8346C3.42313 25.8275 2.77252 25.831 2.12031 25.8328C2.06248 25.8328 2.00304 25.8293 1.94521 25.84C1.77493 25.8685 1.66248 26.0203 1.67533 26.2041C1.68979 26.3969 1.78939 26.5111 1.96128 26.5272C2.11068 26.5397 2.26007 26.5325 2.40947 26.5325C2.99582 26.5325 3.58055 26.5379 4.1669 26.529C4.33076 26.5272 4.37734 26.5897 4.37734 26.7664C4.37252 28.8994 4.37252 31.0342 4.37734 33.1672C4.37734 33.335 4.33397 33.3939 4.17815 33.3921C3.05847 33.3868 1.93879 33.3832 0.819109 33.3921C0.595816 33.3939 0.623125 33.2529 0.623125 33.0994C0.623125 28.5495 0.623125 23.9997 0.623125 19.4498L0.627944 19.4623Z" fill="#FFC941"/>
<path d="M39.6883 26.6682C38.9718 26.7735 38.265 26.9235 37.563 27.1163C36.8497 27.3126 36.4481 27.8106 36.2601 28.5674C36.1943 28.8352 36.0497 28.9566 35.865 28.9048C35.6642 28.8495 35.5806 28.6585 35.6449 28.3854C35.7011 28.1462 35.7766 27.9141 35.8891 27.7017C35.9646 27.5589 35.9132 27.4786 35.82 27.3894C35.7091 27.284 35.6593 27.3894 35.5967 27.4554C35.1276 27.9427 34.5814 28.2568 33.9485 28.38C33.7766 28.4139 33.6208 28.3033 33.5742 28.1194C33.5308 27.9534 33.6176 27.7767 33.7798 27.7071C33.8344 27.6839 33.8923 27.6714 33.9501 27.6571C34.371 27.55 34.7405 27.334 35.0746 27.0306C35.1935 26.9235 35.1983 26.861 35.0553 26.7718C34.7822 26.6004 34.5011 26.4523 34.2007 26.3505C33.7782 26.2077 33.3975 26.272 33.0457 26.5861C32.6987 26.8967 32.3999 27.2573 32.1075 27.6268C31.5694 28.305 31.0666 29.0172 30.4899 29.6545C30.2682 29.899 30.0336 30.1275 29.7814 30.3345C29.7477 30.3631 29.6915 30.3863 29.7124 30.4488C29.7284 30.497 29.7782 30.4863 29.8152 30.4916C29.9308 30.5059 30.0481 30.5255 30.1638 30.5273C30.9782 30.5327 31.7268 30.2596 32.4369 29.8401C32.5573 29.7687 32.6891 29.7098 32.7935 29.592C32.6955 29.4938 32.5959 29.4653 32.4931 29.4421C32.334 29.4064 32.1718 29.3867 32.0144 29.3421C31.8537 29.2957 31.7493 29.1743 31.7638 28.9798C31.7766 28.8048 31.8634 28.662 32.032 28.6656C32.4802 28.6745 32.93 28.7316 33.2722 29.0869C33.4875 29.3082 33.7075 29.4064 33.9903 29.3689C34.0738 29.3582 34.1589 29.3689 34.2441 29.3671C34.5846 29.3582 34.9204 29.3814 35.2336 29.5545C35.322 29.6027 35.412 29.5795 35.5003 29.5545C36.1204 29.3885 36.7389 29.4099 37.3541 29.5795C37.8441 29.7152 38.3051 29.9276 38.7373 30.2185C38.8754 30.3113 38.9348 30.4506 38.8899 30.6255C38.8449 30.8004 38.7292 30.8807 38.567 30.879C38.4818 30.879 38.3983 30.8754 38.3132 30.879C37.7605 30.9022 37.2256 30.9985 36.7581 31.3645C36.6087 31.4823 36.4674 31.4555 36.3276 31.3359C35.9501 31.0146 35.5678 30.7022 35.1935 30.3774C34.975 30.1882 34.7437 30.0704 34.4577 30.09C34.2312 30.1043 34.0015 30.1079 33.775 30.09C33.4537 30.0632 33.1822 30.1757 32.9091 30.3524C31.9967 30.9379 31.0232 31.2931 29.9533 31.2252C29.5132 31.1967 29.0907 31.0949 28.7035 30.845C28.5814 30.7665 28.5075 30.6594 28.514 30.4952C28.522 30.3274 28.6136 30.2292 28.7421 30.1739C29.0505 30.0436 29.3236 29.8472 29.5726 29.6116C29.8553 29.3439 30.1525 29.0851 30.3678 28.7334C30.3067 28.6959 30.2666 28.7316 30.2248 28.7459C29.8682 28.8691 29.5051 28.9333 29.1292 28.9262C28.6023 28.9155 28.0754 28.9262 27.5469 28.9226C27.4521 28.9226 27.3718 28.9387 27.3043 29.028C27.0746 29.3332 26.779 29.542 26.4626 29.7205C26.318 29.8026 26.1686 29.8776 26.0304 29.9722C25.9228 30.0454 25.8698 30.1668 25.9003 30.3078C25.934 30.4666 26.0593 30.4006 26.1445 30.4024C26.477 30.4095 26.8079 30.4024 27.1405 30.4077C27.3525 30.4113 27.4939 30.5594 27.4971 30.754C27.5003 30.9521 27.367 31.1039 27.1581 31.1253C27.0553 31.136 26.9493 31.136 26.8465 31.1288C26.0658 31.0789 25.3011 31.177 24.5557 31.443C24.3116 31.5305 24.0642 31.6072 23.8184 31.6893C24.2232 31.8892 24.6409 31.9481 25.0601 31.9589C25.9116 31.9821 26.7437 31.825 27.5678 31.5983C27.8071 31.5323 28.0433 31.4501 28.2826 31.3787C28.4963 31.3145 28.6601 31.4037 28.7228 31.6126C28.7758 31.7893 28.6714 31.9749 28.4706 32.0552C28.3967 32.0856 28.3228 32.1088 28.2473 32.1338C27.5083 32.3694 26.7597 32.5461 25.9919 32.6246C24.9798 32.7282 23.9887 32.6639 23.0521 32.1748C22.9268 32.1106 22.8304 32.1374 22.7244 32.2141C22.3292 32.4997 22.1348 32.9656 21.8569 33.36C21.9228 33.4154 21.9758 33.3993 22.0256 33.3993C26.5959 33.3993 31.1662 33.3993 35.7365 33.4011C35.8361 33.4011 35.9276 33.3815 36.0208 33.3368C36.575 33.0727 36.9959 32.6246 37.3846 32.132C37.6786 31.7607 38.0192 31.4733 38.4385 31.3002C38.8433 31.1324 39.2626 31.0396 39.6867 30.9628C39.8136 30.9718 39.8891 31.0932 39.9983 31.1378V26.5379C39.8826 26.5469 39.8087 26.6825 39.6867 26.67L39.6883 26.6682ZM35.3975 32.1409C35.3027 32.2944 35.1694 32.3515 35.0055 32.2694C34.816 32.173 34.6312 32.066 34.4385 31.9821C34.0208 31.8018 33.5903 31.7946 33.224 32.0909C32.6136 32.5854 31.9405 32.721 31.2111 32.6603C31.0682 32.6478 30.9252 32.6603 30.7822 32.6603C30.379 32.6603 29.9758 32.6603 29.571 32.6603C29.3316 32.6603 29.1822 32.5175 29.1887 32.3051C29.1935 32.1106 29.3557 31.9642 29.571 31.9642C30.281 31.9642 30.9895 31.9606 31.6995 31.9642C32.0272 31.9642 32.3276 31.8767 32.6039 31.6768C32.9429 31.4305 33.2931 31.1967 33.7091 31.1645C34.3083 31.1199 34.8513 31.3234 35.3397 31.7C35.4826 31.8107 35.4971 31.9821 35.3991 32.1427L35.3975 32.1409ZM39.3107 28.3657C38.7132 28.505 38.1124 28.6246 37.5292 28.7495C37.3429 28.737 37.2272 28.6513 37.1919 28.4603C37.1565 28.2693 37.2449 28.0998 37.4296 28.0516C37.7268 27.9748 38.0288 27.9213 38.3276 27.8588C38.6023 27.8017 38.8754 27.741 39.1517 27.6874C39.33 27.6517 39.4907 27.766 39.526 27.9427C39.5662 28.139 39.4907 28.3229 39.3091 28.3657H39.3107Z" fill="#FFC941"/>
<path d="M39.685 34.1792C39.685 35.8928 39.6801 37.6063 39.6914 39.3199C39.6914 39.5501 39.6287 39.5858 39.4424 39.5858C34.848 39.5805 30.2536 39.5805 25.6576 39.5823C25.5854 39.5823 25.5147 39.5858 25.4424 39.5876C25.4424 39.5341 25.4761 39.5198 25.5163 39.5037C26.6472 39.0611 27.6528 38.3542 28.6617 37.6545C29.6287 36.9834 30.6327 36.3979 31.7476 36.082C32.7645 35.7946 33.8022 35.6464 34.8352 35.4769C36.3002 35.2359 37.7669 34.9985 39.1597 34.3987C39.3331 34.3238 39.4938 34.2078 39.6833 34.1792H39.685Z" fill="#958374"/>
<path d="M23.8249 39.586C23.7397 39.5895 23.6562 39.5949 23.5711 39.5949C21.4698 39.5949 19.3702 39.5949 17.269 39.5949C17.3349 39.5146 17.4297 39.5038 17.5132 39.4717C18.959 38.938 20.3839 38.349 21.7204 37.5225C22.3132 37.1566 22.8819 36.7497 23.351 36.1945C23.4265 36.1053 23.4988 36.0107 23.563 35.9125C23.9743 35.2931 23.9678 34.8273 23.5277 34.1365H37.759C37.5052 34.2507 37.2723 34.29 37.0457 34.3435C35.8682 34.622 34.6763 34.813 33.4827 34.9772C31.4377 35.2592 29.5903 36.0803 27.8859 37.3476C27.0136 37.9956 26.0964 38.556 25.0907 38.9184C24.7694 39.0344 24.4433 39.1361 24.114 39.22C23.9437 39.2629 23.8104 39.3557 23.8217 39.586H23.8249Z" fill="#E9F3E8"/>
<path d="M15.7251 29.3902C15.8038 29.3366 15.8697 29.3563 15.9323 29.3563C17.5388 29.3563 19.1468 29.3563 20.7532 29.3527C20.9926 29.3527 21.2159 29.3973 21.4359 29.4991C21.942 29.7329 22.4657 29.765 22.9508 29.4866C23.799 28.9993 24.6873 28.8315 25.6287 28.9172C25.8713 28.9386 26.1171 28.9207 26.4143 28.9207C26.2375 29.0725 26.0865 29.151 25.9339 29.2224C25.46 29.4437 25.2126 29.8239 25.2641 30.4058C25.2769 30.5486 25.1821 30.5361 25.1163 30.554C24.5781 30.695 24.0432 30.8503 23.5227 31.0573C23.2657 31.1591 23.0118 31.2733 22.7612 31.3911C22.3243 31.5982 21.95 31.907 21.7187 32.3675C21.3171 33.1689 20.705 33.4456 19.913 33.4046C19.3155 33.3742 18.7163 33.3921 18.1171 33.4028C17.9628 33.4063 17.8809 33.3474 17.8167 33.1975C17.6898 32.903 17.5291 32.6317 17.354 32.3711C17.1837 32.1158 16.9733 31.9248 16.7018 31.8088C16.4014 31.6803 16.3098 31.5178 16.3243 31.1609C16.3436 30.6379 16.3066 30.1327 15.9837 29.7097C15.9034 29.6062 15.8183 29.5062 15.7251 29.392V29.3902Z" fill="#E9F3E8"/>
<path d="M32.1898 26.4629C31.9328 26.7824 31.7111 27.0841 31.4605 27.3554C31.3545 27.4714 31.1922 27.5285 31.0524 27.6017C30.5223 27.8784 29.9922 28.1765 29.3946 28.205C28.8099 28.2336 28.2235 28.2157 27.6388 28.2175C27.5794 28.2175 27.5183 28.2122 27.5022 28.1283C27.4267 27.7463 27.2243 27.4304 27.0669 27.0912C26.9432 26.8253 26.9705 26.7503 27.2276 26.6378C27.6693 26.4469 28.1352 26.3772 28.601 26.3326C29.6982 26.2255 30.797 26.2148 31.8894 26.4022C31.9794 26.4183 32.0677 26.4379 32.1898 26.4629Z" fill="#E9F3E8"/>
<path d="M39.6882 31.7016C39.1018 31.773 38.5299 31.9069 38.0753 32.3603C37.8247 32.6102 37.6046 32.8976 37.3717 33.1671C37.3123 33.2367 37.2512 33.3045 37.1709 33.3956H39.6898C39.8151 33.4081 39.8922 33.5259 40.0014 33.5705V31.5303C39.897 31.5874 39.7926 31.6463 39.6898 31.7034L39.6882 31.7016Z" fill="#6D5A4B"/>
<path d="M3.62741 5.00934C3.51175 4.99863 3.37359 5.03254 3.24026 4.98078C2.92379 4.86119 2.7246 4.48277 2.78243 4.11864C2.79689 4.02225 2.8499 4.00976 2.92058 4.0044C3.27721 3.9812 3.61938 4.04367 3.94387 4.2186C4.05954 4.28107 4.1013 4.36318 4.10291 4.50598C4.10452 5.00755 4.10934 5.00755 3.62902 5.00755L3.62741 5.00934Z" fill="#6D5A4B"/>
<path d="M37.2611 30.3042C37.0555 30.4113 36.8482 30.488 36.6523 30.6005C36.5896 30.6362 36.5269 30.6183 36.4707 30.5719C36.3679 30.4845 36.2619 30.4006 36.1591 30.3131C36.1253 30.2828 36.0707 30.2524 36.0884 30.1971C36.1045 30.1435 36.1623 30.1489 36.2073 30.1453C36.5655 30.1257 36.9157 30.1846 37.2611 30.3042Z" fill="#6D5A4B"/>
<path d="M13.2933 30.4041C13.6901 30.4041 14.0869 30.4023 14.4837 30.4041C14.7279 30.4041 14.8756 30.5362 14.8821 30.7486C14.8885 30.9682 14.7375 31.1235 14.4901 31.1252C13.6965 31.1306 12.903 31.1306 12.111 31.1252C11.8636 31.1252 11.7222 30.9878 11.7174 30.7754C11.7126 30.5451 11.8411 30.4095 12.0853 30.4059C12.4885 30.4005 12.8917 30.4059 13.2949 30.4059L13.2933 30.4041Z" fill="#033726"/>
<path d="M30.7808 32.6603C30.3776 32.6603 29.9744 32.6603 29.5695 32.6603C29.3302 32.6603 29.1808 32.5175 29.1872 32.3051C29.192 32.1106 29.3543 31.9642 29.5695 31.9642C30.2796 31.9642 30.988 31.9606 31.6981 31.9642C32.0258 31.9642 32.3262 31.8767 32.6025 31.6768C32.9414 31.4305 33.2916 31.1967 33.7077 31.1645C34.3069 31.1199 34.8499 31.3234 35.3382 31.7C35.4812 31.8107 35.4956 31.982 35.3977 32.1427C35.3029 32.2962 35.1695 32.3533 35.0057 32.2712C34.8161 32.1748 34.6314 32.0677 34.4386 31.9838C34.0209 31.8035 33.5904 31.7964 33.2242 32.0927C32.6137 32.5871 31.9406 32.7228 31.2113 32.6621C31.0683 32.6496 30.9254 32.6621 30.7824 32.6603H30.7808Z" fill="#033726"/>
<path d="M37.5291 28.7495C37.3427 28.737 37.2271 28.6513 37.1917 28.4603C37.1564 28.2693 37.2447 28.0998 37.4295 28.0516C37.7267 27.9748 38.0287 27.9213 38.3275 27.8588C38.6022 27.8017 38.8753 27.741 39.1516 27.6874C39.3299 27.6517 39.4905 27.766 39.5259 27.9427C39.566 28.139 39.4905 28.3229 39.309 28.3639C38.7114 28.5032 38.1106 28.6228 37.5275 28.7477L37.5291 28.7495Z" fill="#033726"/>
</g>
</g>
</g>
<defs>
<clipPath id="clip0_11_7482">
<rect width="40" height="40" fill="white"/>
</clipPath>
<clipPath id="clip1_11_7482">
<rect width="40" height="38" fill="white" transform="translate(0 2)"/>
</clipPath>
</defs>
</svg>
