<svg width="44" height="44" viewBox="0 0 44 44" fill="none" xmlns="http://www.w3.org/2000/svg">
<path d="M28.8488 24.7588L36.2735 28.6363L29.3647 32.3051L23.9272 29.4174L26.0445 26.2485L28.8488 24.7588Z" fill="#54A88E"/>
<path d="M28.8481 24.7556L26.043 26.2476L27.5006 24.0547L28.8481 24.7556Z" fill="#60E8B3"/>
<path d="M17.9678 26.2506L15.1543 24.7556L16.5018 24.0547L17.9678 26.2506Z" fill="#60E8B3"/>
<path d="M34.3755 13.0583C34.3901 15.3548 33.7517 17.6082 32.5345 19.5557C31.3174 21.5032 29.5717 23.0646 27.5011 24.0578L26.0435 26.2507L23.9263 29.4204L21.9979 32.3073L20.0763 29.4204L17.966 26.2507L16.5015 24.0578C14.4329 23.062 12.689 21.5 11.4722 19.5531C10.2555 17.6061 9.61568 15.3541 9.6271 13.0583C9.6271 9.77644 10.9308 6.62901 13.2514 4.3084C15.572 1.98779 18.7195 0.684082 22.0013 0.684082C25.2831 0.684082 28.4306 1.98779 30.7512 4.3084C33.0718 6.62901 34.3755 9.77644 34.3755 13.0583Z" fill="#FFC941"/>
<path d="M17.966 26.2514L20.0763 29.4203L14.6388 32.308L7.72998 28.6392L15.1547 24.7617L17.966 26.2514Z" fill="#54A88E"/>
<path d="M29.3639 32.3086L22.001 36.2204L14.6382 32.3086L20.0757 29.4209L22.0003 32.3086L23.9248 29.4209L29.3639 32.3086Z" fill="#60E8B3"/>
<path d="M14.6381 32.3081L22.0009 36.22L15.2297 39.8123L7.76367 35.9555L14.6381 32.3081Z" fill="#54A88E"/>
<path d="M14.6383 32.308L7.76386 35.9584L0.689941 32.308L7.72947 28.6392L14.6383 32.308Z" fill="#60E8B3"/>
<path d="M43.6303 31.6959L29.8669 24.4729C29.7047 24.3885 29.5157 24.3719 29.3413 24.4269C29.1669 24.4819 29.0215 24.6039 28.9371 24.766C28.8527 24.9282 28.8361 25.1173 28.8911 25.2917C28.9461 25.466 29.0681 25.6114 29.2302 25.6959L34.7984 28.6447L29.3625 31.5316L26.4488 29.9815C26.3688 29.9339 26.2799 29.903 26.1875 29.8908C26.0952 29.8786 26.0013 29.8852 25.9116 29.9103C25.822 29.9355 25.7383 29.9786 25.6658 30.037C25.5932 30.0954 25.5333 30.1679 25.4896 30.2502C25.4459 30.3325 25.4194 30.4227 25.4117 30.5156C25.4039 30.6084 25.4151 30.7018 25.4446 30.7902C25.474 30.8785 25.5211 30.96 25.583 31.0297C25.6448 31.0993 25.7202 31.1556 25.8045 31.1953L27.901 32.3074L22.0042 35.4411L16.1035 32.3074L18.1978 31.196C18.2821 31.1564 18.3575 31.1 18.4193 31.0304C18.4812 30.9608 18.5283 30.8793 18.5577 30.7909C18.5872 30.7026 18.5984 30.6092 18.5906 30.5163C18.5829 30.4235 18.5564 30.3332 18.5127 30.251C18.469 30.1687 18.4091 30.0961 18.3365 30.0377C18.264 29.9793 18.1803 29.9362 18.0907 29.9111C18.001 29.886 17.9071 29.8793 17.8148 29.8916C17.7224 29.9038 17.6335 29.9346 17.5535 29.9822L14.6391 31.53L9.20159 28.6386L14.0689 26.0987C14.231 26.0142 14.353 25.8688 14.408 25.6945C14.463 25.5201 14.4464 25.331 14.362 25.1689C14.2776 25.0067 14.1322 24.8847 13.9578 24.8297C13.7834 24.7748 13.5944 24.7913 13.4322 24.8757L0.372758 31.6959C0.260472 31.7538 0.166289 31.8414 0.100536 31.9493C0.0347834 32.0572 0 32.181 0 32.3074C0 32.4337 0.0347834 32.5576 0.100536 32.6654C0.166289 32.7733 0.260472 32.861 0.372758 32.9188L21.6839 43.9184C21.7813 43.9685 21.8893 43.9947 21.9989 43.9947C22.1084 43.9947 22.2164 43.9685 22.3138 43.9184L43.6272 32.9188C43.7395 32.861 43.8337 32.7733 43.8995 32.6654C43.9652 32.5576 44 32.4337 44 32.3074C44 32.181 43.9652 32.0572 43.8995 31.9493C43.8337 31.8414 43.7395 31.7538 43.6272 31.6959H43.6303ZM29.3632 33.0832L34.7579 35.9471L28.7754 39.035L23.4679 36.2169L29.3647 33.0832H29.3632ZM20.5367 36.2169L15.2284 39.0366L9.24516 35.9487L14.6398 33.0847L20.5367 36.2185V36.2169ZM7.7249 29.4144L13.1746 32.3074L7.75929 35.1828L2.18347 32.3074L7.7249 29.4144ZM22.0011 42.5342L16.7142 39.8047L22.0011 36.9958L27.2881 39.8047L22.0011 42.5342ZM36.243 35.1828L30.8285 32.3074L36.2774 29.4128L41.8196 32.3074L36.243 35.1828Z" fill="#033726"/>
<path d="M16.0291 24.5917L21.4269 32.6883C21.4896 32.7829 21.5748 32.8605 21.6748 32.9142C21.7748 32.9678 21.8866 32.9959 22.0001 32.9959C22.1136 32.9959 22.2254 32.9678 22.3254 32.9142C22.4254 32.8605 22.5106 32.7829 22.5734 32.6883L27.9719 24.5917C30.1099 23.52 31.9064 21.8726 33.1589 19.8352C34.4113 17.7977 35.0701 15.451 35.0611 13.0594C35.0608 10.5938 34.3626 8.17873 33.0473 6.09333C31.732 4.00792 29.8533 2.3374 27.6284 1.27493C25.4035 0.212456 22.9234 -0.198565 20.4747 0.0893916C18.026 0.377348 15.7088 1.35252 13.7911 2.90215C13.6591 3.01953 13.5773 3.18321 13.5627 3.35927C13.548 3.53533 13.6017 3.71028 13.7125 3.84785C13.8234 3.98542 13.9829 4.07507 14.158 4.09822C14.3332 4.12138 14.5105 4.07626 14.6533 3.97221C16.3692 2.58601 18.4424 1.71372 20.6332 1.45617C22.824 1.19862 25.043 1.56633 27.0336 2.51679C29.0243 3.46725 30.7053 4.96166 31.8823 6.82727C33.0594 8.69287 33.6844 10.8535 33.6853 13.0594C33.6932 15.2258 33.0882 17.3503 31.9399 19.1875C30.7916 21.0246 29.147 22.4993 27.1961 23.4414C27.0864 23.4949 26.9931 23.5767 26.9255 23.6783L21.9986 31.0694L17.074 23.6768C17.0064 23.5759 16.9133 23.4946 16.8042 23.4414C15.2582 22.6824 13.9006 21.5887 12.83 20.2396C11.7594 18.8905 11.0027 17.32 10.6148 15.642C10.2269 13.964 10.2176 12.2206 10.5874 10.5386C10.9573 8.85651 11.6971 7.27793 12.7532 5.91745C12.8127 5.84646 12.8572 5.76419 12.8842 5.67556C12.9111 5.58694 12.9199 5.49379 12.9099 5.40169C12.9 5.3096 12.8715 5.22047 12.8263 5.13963C12.7811 5.0588 12.72 4.98793 12.6467 4.93128C12.5734 4.87463 12.4895 4.83336 12.3998 4.80996C12.3102 4.78655 12.2168 4.78148 12.1252 4.79506C12.0335 4.80864 11.9456 4.84058 11.8666 4.88897C11.7876 4.93737 11.7192 5.00121 11.6655 5.07668C10.4942 6.58581 9.67062 8.33502 9.25367 10.1993C8.83671 12.0636 8.83667 13.997 9.25353 15.8614C9.6704 17.7257 10.4939 19.4749 11.6652 20.9841C12.8364 22.4933 14.3266 23.7252 16.0291 24.5917Z" fill="#033726"/>
<path d="M19.7827 16.1481C19.7888 15.9866 19.7586 15.8257 19.6943 15.6775C19.63 15.5292 19.5333 15.3972 19.4112 15.2912C19.0204 15.0046 18.5775 14.7969 18.1073 14.6798C17.2362 14.4525 16.4139 14.0684 15.6805 13.5463C15.4107 13.3364 15.1948 13.0652 15.0509 12.7552C14.9069 12.4452 14.839 12.1054 14.8527 11.7638C14.8469 11.4022 14.9287 11.0446 15.0911 10.7214C15.2535 10.3983 15.4916 10.1192 15.7852 9.90803C16.4753 9.40595 17.315 9.15218 18.1677 9.18803C19.0571 9.14476 19.933 9.4192 20.6388 9.9623C20.94 10.2042 21.179 10.5148 21.3358 10.8679C21.4926 11.2211 21.5626 11.6066 21.5399 11.9924L21.5269 12.0306H19.7315C19.7442 11.8336 19.7134 11.6362 19.6413 11.4525C19.5691 11.2688 19.4575 11.1031 19.3142 10.9674C18.9825 10.7021 18.564 10.5696 18.1401 10.5959C17.7584 10.5716 17.3811 10.6892 17.0808 10.9261C16.96 11.0298 16.8637 11.159 16.7989 11.3044C16.7342 11.4498 16.7025 11.6078 16.7062 11.7669C16.705 11.9189 16.7415 12.0689 16.8123 12.2035C16.8831 12.3381 16.9861 12.453 17.1121 12.5381C17.5467 12.8161 18.0187 13.0307 18.5139 13.1756C19.3603 13.3799 20.1525 13.765 20.8359 14.3045C21.0977 14.5303 21.3054 14.812 21.4437 15.1289C21.582 15.4457 21.6472 15.7896 21.6347 16.1351C21.6473 16.4993 21.5693 16.861 21.4078 17.1876C21.2462 17.5143 21.0062 17.7958 20.7091 18.0069C19.9895 18.4945 19.1314 18.7359 18.2632 18.6948C17.3517 18.7188 16.4554 18.4575 15.6996 17.9473C15.3473 17.7015 15.0659 17.3672 14.8839 16.9781C14.7018 16.589 14.6254 16.1587 14.6624 15.7307L14.6754 15.6925H16.4708C16.4514 15.9178 16.4848 16.1444 16.5684 16.3545C16.652 16.5645 16.7835 16.7522 16.9524 16.9025C17.3304 17.1782 17.7922 17.3148 18.2594 17.2892C18.6606 17.3162 19.0593 17.2069 19.3906 16.9789C19.5171 16.8814 19.6186 16.7552 19.6868 16.6107C19.755 16.4663 19.7878 16.3077 19.7827 16.1481ZM24.2021 14.8663V18.5588H22.3493V9.32102H25.5473C26.4294 9.26879 27.3024 9.52316 28.0184 10.041C28.3137 10.2826 28.5483 10.5901 28.703 10.9389C28.8578 11.2876 28.9286 11.6679 28.9096 12.0489C28.9204 12.4885 28.7879 12.9196 28.532 13.2772C28.2461 13.6486 27.8661 13.9367 27.4314 14.1119C27.9099 14.2255 28.3293 14.5125 28.6085 14.9175C28.8594 15.3387 28.9839 15.8232 28.9669 16.3132V16.9919C28.9689 17.2647 29.004 17.5363 29.0717 17.8006C29.1184 18.043 29.2446 18.2629 29.4301 18.4258V18.5588H27.5193C27.3298 18.3836 27.2132 18.1434 27.1929 17.8862C27.1441 17.5862 27.1186 17.2828 27.1165 16.9789V16.3254C27.1284 16.13 27.1011 15.9342 27.0363 15.7495C26.9715 15.5649 26.8703 15.395 26.7389 15.25C26.5961 15.1166 26.4274 15.0139 26.2434 14.9482C26.0594 14.8825 25.8638 14.8551 25.6688 14.8678L24.2021 14.8663ZM24.2021 13.4385H25.5152C25.9292 13.4707 26.3411 13.3536 26.6762 13.1083C26.8084 12.984 26.9113 12.8319 26.9774 12.6629C27.0435 12.494 27.0711 12.3125 27.0584 12.1315C27.0678 11.946 27.0387 11.7607 26.973 11.587C26.9072 11.4134 26.8062 11.2552 26.6762 11.1226C26.5224 10.9893 26.3437 10.8876 26.1506 10.8233C25.9574 10.759 25.7534 10.7335 25.5504 10.748H24.2051L24.2021 13.4385Z" fill="#033726"/>
</svg>
