<svg width="40" height="40" viewBox="0 0 40 40" fill="none" xmlns="http://www.w3.org/2000/svg">
<g clip-path="url(#clip0_11_7445)">
<mask id="mask0_11_7445" style="mask-type:luminance" maskUnits="userSpaceOnUse" x="0" y="-1" width="40" height="40">
<circle cx="20" cy="19" r="20" fill="white"/>
</mask>
<g mask="url(#mask0_11_7445)">
<circle cx="20" cy="19" r="20" fill="#E7F1F4"/>
<path fill-rule="evenodd" clip-rule="evenodd" d="M39.4967 34.4946V28.7593C34.4004 23.6274 26.544 21.6358 24.5783 23.2488C22.611 24.8618 20.4867 26.593 14.355 27.19C16.8239 28.8984 19.7004 30.5034 22.6175 31.7281C25.4843 30.4597 27.7995 28.9777 30.3703 27.4925C31.8717 26.6253 35.0201 28.9486 37.3757 31.6148L39.4983 34.4946H39.4967Z" fill="#FFC941"/>
<path fill-rule="evenodd" clip-rule="evenodd" d="M30.3686 27.4909C27.7978 28.9745 25.4826 30.4581 22.6157 31.7265C17.953 33.7893 11.831 35.281 0.78418 35.281V39.2156H39.495V34.4947C37.4969 31.0357 32.4103 26.3131 30.3686 27.4925" fill="#FFE6B4"/>
<path fill-rule="evenodd" clip-rule="evenodd" d="M22.6161 31.7264C19.6991 30.5017 16.8225 28.8984 14.3536 27.1883C12.6338 25.9975 11.1114 24.7566 9.91255 23.5562C8.4597 22.1033 2.76317 26.3454 0.786133 29.772V35.2793C11.833 35.2793 17.9534 33.786 22.6177 31.7248" fill="#FFC941"/>
<path fill-rule="evenodd" clip-rule="evenodd" d="M24.5769 23.2488C26.2255 21.8979 32.0094 23.0773 36.8388 26.5153C36.478 23.3718 36.745 19.9597 34.3279 19.3659C33.252 19.1022 33.76 15.9749 33.3733 13.0125C33.2617 12.1599 33.0772 11.3219 32.7585 10.5696C31.5953 7.81756 31.2151 5.21117 29.4888 5.51047C26.9584 5.94892 25.9489 6.05408 25.5396 7.42765C24.7517 6.41001 24.1611 2.38798 20.9707 2.0822C17.2706 1.72789 17.777 -0.176348 15.7531 0.763635C13.7825 1.67935 14.9215 4.2 13.0771 5.48459C11.8944 5.27426 10.351 3.77773 8.85931 3.70816C7.10716 3.62727 5.45531 5.02187 4.98289 5.49429C3.0738 7.40015 3.77596 11.804 0.786133 12.291V29.7753C1.299 28.8871 2.06263 27.9439 2.93628 27.0589C5.43266 24.5318 8.83666 22.4836 9.91255 23.5595C11.113 24.7599 12.6338 26.0008 14.3536 27.1916C14.8535 27.143 15.3259 27.0864 15.7741 27.0233C20.8299 26.3131 22.7698 24.7324 24.5769 23.2504" fill="#B7A99A"/>
<path fill-rule="evenodd" clip-rule="evenodd" d="M33.373 13.011C33.7597 15.9733 33.2517 19.1007 34.3276 19.3644C36.7431 19.9581 36.4761 23.3702 36.8385 26.5137C37.772 27.1787 38.67 27.9278 39.4951 28.7594V15.2081C36.1315 12.6114 37.2462 15.4685 33.373 13.011Z" fill="#958374"/>
<path fill-rule="evenodd" clip-rule="evenodd" d="M2.93448 27.0557C5.43086 24.5286 8.83486 22.4804 9.91075 23.5563C11.1112 24.7567 12.632 25.9976 14.3518 27.1884C14.8517 27.1399 15.3241 27.0832 15.7723 27.0201C19.2362 26.5332 21.2375 25.6385 22.734 24.6467C22.4638 10.2816 25.1915 18.028 25.2482 11.241C25.2644 9.37563 25.3048 8.19782 25.5362 7.42448C24.7483 6.40683 24.1577 2.3848 20.9673 2.07903C17.2672 1.72471 17.7736 -0.179522 15.7496 0.760461C13.7791 1.67618 14.9181 4.19682 13.0737 5.48141C11.891 5.27109 10.3476 3.77456 8.8559 3.70499C7.10374 3.62409 5.45189 5.0187 4.97948 5.49112C3.07039 7.39697 3.77254 11.8008 0.782715 12.2878V29.7721C1.29558 28.8839 2.05922 27.9407 2.93287 27.0557" fill="#958374"/>
<path fill-rule="evenodd" clip-rule="evenodd" d="M15.7739 27.0218C15.4454 17.4375 13.4765 23.3136 13.4263 17.1722C13.3875 12.4512 13.5784 12.2603 9.97054 11.6342C6.36107 11.0081 7.68287 17.7222 5.4405 18.2739C3.23696 18.8159 3.45861 23.9915 2.93604 27.0557C5.43241 24.5286 8.83641 22.4804 9.9123 23.5563C11.1128 24.7567 12.6336 25.9977 14.3534 27.1884C14.8533 27.1399 15.3257 27.0832 15.7739 27.0201" fill="#B7A99A"/>
<path d="M3.43434 27.114C3.56863 26.3196 3.65114 25.4136 3.7385 24.4914C3.80322 23.8006 3.87117 23.1001 3.95853 22.4351C4.02487 21.9368 4.10252 21.4595 4.1996 21.0243C4.2724 20.6975 4.35653 20.395 4.45199 20.1248C4.59436 19.7203 4.76585 19.3935 4.95191 19.1686C5.04574 19.0554 5.1412 18.968 5.23989 18.9017C5.3402 18.8354 5.44212 18.7901 5.55861 18.7609C5.74952 18.714 5.92748 18.6331 6.08442 18.528C6.23164 18.4293 6.35784 18.3112 6.46947 18.1801C6.67818 17.9342 6.83026 17.6511 6.95807 17.3453C7.0697 17.0767 7.1603 16.792 7.2412 16.4959C7.38357 15.9782 7.4952 15.4265 7.61816 14.8942C7.71038 14.4946 7.80745 14.1063 7.9207 13.7552C8.00645 13.4915 8.10029 13.2488 8.20707 13.0385C8.28634 12.8816 8.37209 12.7425 8.46269 12.6243C8.60021 12.448 8.74582 12.3202 8.90922 12.2344C8.99173 12.1908 9.08072 12.1568 9.17941 12.1341C9.27972 12.1099 9.38973 12.0969 9.51592 12.0969C9.62594 12.0969 9.74728 12.1066 9.88318 12.1309C10.3313 12.2086 10.718 12.2797 11.0448 12.3509C11.3312 12.414 11.5722 12.4771 11.7712 12.5435C11.9444 12.6017 12.0851 12.6632 12.1967 12.7279C12.2938 12.7845 12.3699 12.8411 12.4346 12.9026C12.4896 12.956 12.5365 13.0143 12.5786 13.0822C12.653 13.2003 12.7145 13.354 12.7646 13.5692C12.8407 13.8895 12.8795 14.3393 12.8989 14.9347C12.9183 15.53 12.9167 16.2694 12.9248 17.1803C12.9313 17.9617 12.9685 18.5603 13.0316 19.036C13.0866 19.4518 13.1626 19.7753 13.2629 20.0439C13.3503 20.2785 13.4587 20.4694 13.58 20.6247C13.6852 20.7606 13.7952 20.8658 13.8939 20.9515C13.9796 21.026 14.0557 21.0874 14.1236 21.1473C14.1819 21.1991 14.2353 21.2508 14.287 21.3091C14.376 21.4126 14.4682 21.5437 14.5653 21.7605C14.7125 22.0857 14.8662 22.6066 14.9924 23.4495C15.1202 24.2924 15.2205 25.4541 15.2755 27.059C15.2853 27.3357 15.5166 27.5525 15.7933 27.5427C16.0699 27.533 16.2867 27.3017 16.277 27.025C16.2366 25.8149 16.1686 24.8425 16.0813 24.0562C16.0052 23.367 15.913 22.8186 15.8094 22.3704C15.7172 21.9789 15.6169 21.665 15.5037 21.4029C15.405 21.1748 15.2982 20.9871 15.1849 20.8302C15.0863 20.6927 14.9843 20.581 14.8873 20.4872C14.8031 20.4063 14.7239 20.34 14.6559 20.2817C14.596 20.2316 14.5443 20.1879 14.5006 20.1475C14.4229 20.0746 14.3679 20.0116 14.3097 19.9177C14.266 19.8465 14.2223 19.7543 14.1786 19.6233C14.1139 19.4291 14.0524 19.1492 14.0071 18.7512C13.9618 18.3532 13.9327 17.8371 13.9279 17.1706C13.9182 15.9928 13.923 15.0948 13.8777 14.3749C13.8599 14.1047 13.8356 13.8588 13.7984 13.6307C13.7661 13.4317 13.724 13.2456 13.6674 13.0709C13.6172 12.9172 13.5558 12.7732 13.4797 12.6373C13.347 12.3995 13.1658 12.1924 12.949 12.0274C12.7873 11.9044 12.6061 11.8025 12.4087 11.7167C12.1126 11.5889 11.7809 11.4918 11.3943 11.4029C11.0076 11.3139 10.5659 11.233 10.0531 11.144C9.867 11.1116 9.68742 11.0955 9.51431 11.0955C9.28133 11.0955 9.05969 11.1246 8.85422 11.1844C8.66007 11.2394 8.48049 11.3187 8.31546 11.4207C8.00807 11.6099 7.76215 11.8672 7.56477 12.1535C7.39166 12.4059 7.25414 12.6826 7.13603 12.9722C6.93056 13.4802 6.78657 14.0335 6.65876 14.582C6.56331 14.9929 6.47756 15.4022 6.38534 15.7841C6.31739 16.0704 6.24621 16.3422 6.16693 16.5849C6.10869 16.7677 6.04559 16.9344 5.97764 17.0816C5.87733 17.3016 5.76731 17.4715 5.6573 17.5847C5.60229 17.6414 5.5489 17.6851 5.49228 17.7174C5.43727 17.7498 5.38064 17.774 5.31593 17.7902C5.13311 17.8355 4.96 17.9051 4.80306 17.9957C4.50537 18.1656 4.26108 18.405 4.06046 18.6817C3.88573 18.9243 3.74174 19.1978 3.61878 19.4922C3.4036 20.0083 3.25314 20.594 3.13342 21.2201C2.95545 22.1585 2.85191 23.1874 2.75645 24.1873C2.66262 25.1855 2.57525 26.1546 2.44097 26.9506C2.39567 27.224 2.57849 27.4829 2.85191 27.5282C3.12533 27.5735 3.38419 27.3907 3.42949 27.1172L3.43434 27.114Z" fill="#083F2F"/>
<path d="M37.3303 26.3939C37.2445 25.6287 37.1944 24.8375 37.1297 24.0658C37.0811 23.4866 37.0261 22.9203 36.9371 22.38C36.8708 21.9755 36.7883 21.5872 36.6734 21.22C36.5877 20.9449 36.4858 20.6812 36.3596 20.4353C36.1703 20.0648 35.9244 19.7299 35.6056 19.4597C35.2869 19.1895 34.897 18.9889 34.4472 18.8789C34.4359 18.8757 34.4343 18.8757 34.4214 18.8643C34.41 18.8546 34.389 18.832 34.3631 18.7883C34.3388 18.7479 34.313 18.6896 34.2871 18.6152C34.2385 18.4761 34.1965 18.2803 34.1657 18.0457C34.1107 17.6331 34.0865 17.1025 34.0719 16.5055C34.0476 15.6092 34.0379 14.564 33.936 13.5027C33.8324 12.4398 33.6383 11.3558 33.2225 10.3738C32.9539 9.73793 32.7258 9.10372 32.509 8.50511C32.3472 8.05534 32.1919 7.6266 32.0301 7.23022C31.9088 6.93254 31.7842 6.65264 31.6467 6.3954C31.5432 6.20288 31.4331 6.02167 31.3102 5.85665C31.218 5.73208 31.1193 5.61721 31.0093 5.51205C30.8459 5.35511 30.6582 5.22083 30.4446 5.12699C30.2311 5.03315 29.9949 4.98462 29.7506 4.98462C29.6357 4.98462 29.5192 4.99433 29.4011 5.01536C28.9076 5.10111 28.4708 5.17391 28.0777 5.24833C27.7347 5.31305 27.4257 5.37776 27.1425 5.45218C26.895 5.51852 26.6685 5.59132 26.4582 5.68354C26.2738 5.76282 26.1023 5.85665 25.9437 5.9699C25.8062 6.06859 25.6784 6.18346 25.5667 6.31127C25.3694 6.53778 25.2221 6.80634 25.1137 7.10888C25.0328 7.337 24.973 7.58454 24.9261 7.85796C24.8565 8.2689 24.816 8.73808 24.7902 9.29463C24.7643 9.84956 24.7546 10.4919 24.7481 11.2409C24.7416 12.0337 24.6979 12.6129 24.63 13.0351C24.5717 13.404 24.4957 13.6516 24.4181 13.8182C24.3501 13.9654 24.2854 14.0544 24.211 14.1353C24.1462 14.2065 24.0686 14.2712 23.9699 14.3489C23.8842 14.4168 23.7822 14.4961 23.6738 14.5948C23.5784 14.6821 23.4764 14.7841 23.3778 14.9086C23.292 15.017 23.2063 15.1416 23.127 15.284C22.9879 15.5331 22.8617 15.8389 22.7516 16.224C22.5866 16.8016 22.454 17.5636 22.3601 18.6184C22.2663 19.6717 22.2129 21.0193 22.2129 22.7634C22.2129 23.3151 22.2177 23.9089 22.2291 24.5431C22.2339 24.8197 22.462 25.0414 22.7403 25.0349C23.017 25.0301 23.2386 24.8019 23.2322 24.5237C23.2208 23.8943 23.216 23.307 23.216 22.7618C23.216 21.2976 23.2548 20.1263 23.3211 19.1863C23.3794 18.3628 23.4603 17.7189 23.5525 17.2125C23.6334 16.7692 23.7256 16.4343 23.8194 16.1787C23.902 15.9554 23.9828 15.7936 24.0621 15.6707C24.1317 15.5623 24.198 15.4814 24.2692 15.4102C24.3307 15.3471 24.3954 15.2921 24.4682 15.2322C24.5313 15.1804 24.6025 15.1271 24.6769 15.064C24.8096 14.9556 24.96 14.818 25.0976 14.6288C25.2011 14.488 25.2949 14.3214 25.3726 14.1272C25.4907 13.8344 25.5797 13.4768 25.6428 13.0125C25.7059 12.5482 25.7415 11.9754 25.7479 11.2474C25.7528 10.6019 25.7625 10.0421 25.7803 9.55834C25.811 8.71058 25.8758 8.09255 25.989 7.66543C26.0311 7.50526 26.0796 7.3726 26.133 7.26096C26.1799 7.16389 26.2301 7.083 26.2851 7.01181C26.3821 6.88885 26.4954 6.79178 26.6556 6.70118C26.7753 6.63323 26.9225 6.56852 27.1005 6.51027C27.3674 6.42129 27.7056 6.3404 28.1149 6.26112C28.5258 6.18184 29.008 6.10095 29.5694 6.00388C29.6341 5.99255 29.6923 5.9877 29.7457 5.9877C29.8654 5.9877 29.9593 6.01035 30.0515 6.05241C30.1324 6.08963 30.2149 6.14625 30.3006 6.22714C30.4511 6.36952 30.6096 6.59278 30.765 6.88562C30.9979 7.32568 31.2228 7.91458 31.4639 8.58115C31.7066 9.24933 31.967 9.99517 32.2922 10.7637C32.6207 11.5402 32.8051 12.4446 32.907 13.3717C32.9847 14.0674 33.0154 14.7744 33.0348 15.4506C33.0494 15.957 33.0575 16.4472 33.0737 16.9035C33.085 17.2449 33.1028 17.5684 33.1303 17.8694C33.1513 18.0942 33.1788 18.3062 33.2177 18.5052C33.2468 18.654 33.2824 18.7964 33.3277 18.9307C33.3972 19.1329 33.4878 19.3222 33.6286 19.4905C33.6998 19.5746 33.7839 19.6506 33.881 19.7137C33.9781 19.7768 34.0881 19.8237 34.2029 19.8529C34.4489 19.9127 34.6479 20.0049 34.8193 20.123C34.9698 20.2266 35.1009 20.3528 35.219 20.5065C35.4261 20.7718 35.5911 21.1213 35.7189 21.5435C35.9114 22.1745 36.0182 22.9608 36.0958 23.815C36.1735 24.6693 36.2253 25.5898 36.3272 26.5072C36.3579 26.7822 36.6055 26.9812 36.8821 26.9505C37.1572 26.9197 37.3562 26.6722 37.3254 26.3955L37.3303 26.3939Z" fill="#083F2F"/>
<path d="M28.094 22.3761C28.0519 21.7176 28.0325 21.1658 28.0325 20.7063C28.0325 20.1578 28.06 19.7387 28.1037 19.4232C28.1409 19.1481 28.1927 18.954 28.2428 18.8245C28.2865 18.7097 28.3286 18.6466 28.3625 18.6045C28.3933 18.5689 28.4192 18.5462 28.4548 18.5236C28.4855 18.5042 28.5243 18.4831 28.5777 18.4589C28.623 18.4378 28.6797 18.4152 28.746 18.3861C28.8043 18.3602 28.869 18.3294 28.9369 18.2874C29.0583 18.2162 29.191 18.1126 29.3042 17.9718C29.39 17.8667 29.4628 17.7437 29.5227 17.6029C29.6133 17.3926 29.6748 17.1483 29.7168 16.8441C29.7589 16.5415 29.7815 16.1791 29.7815 15.7309C29.7815 15.4866 29.7751 15.218 29.7605 14.9203C29.7476 14.6436 29.513 14.43 29.2363 14.4429C28.9596 14.4559 28.746 14.6905 28.759 14.9672C28.7719 15.252 28.7784 15.506 28.7784 15.7309C28.7784 16.1985 28.7509 16.5464 28.7104 16.7955C28.6748 17.014 28.6263 17.1547 28.5858 17.2389C28.5486 17.3133 28.5211 17.3473 28.4936 17.3716C28.4693 17.3942 28.4434 17.412 28.3981 17.4347C28.3593 17.4541 28.3075 17.4767 28.2412 17.5059C28.1829 17.5301 28.115 17.5609 28.0389 17.5997C27.9726 17.6353 27.8998 17.6774 27.8286 17.7324C27.7008 17.8278 27.5746 17.9589 27.4726 18.1223C27.395 18.2453 27.3302 18.3844 27.2752 18.543C27.1927 18.7825 27.1329 19.064 27.0924 19.4151C27.0519 19.7662 27.0293 20.1869 27.0293 20.6998C27.0293 21.1869 27.0487 21.758 27.0924 22.4343C27.1102 22.711 27.348 22.9214 27.6247 22.9036C27.9014 22.8858 28.1118 22.6479 28.094 22.3712V22.3761Z" fill="#083F2F"/>
<path d="M11.2522 24.0405C11.3816 23.2267 11.4318 22.6361 11.4318 22.1766C11.4318 21.84 11.4043 21.5714 11.3589 21.3465C11.325 21.1783 11.2829 21.0343 11.2408 20.9113C11.2101 20.8191 11.1793 20.7398 11.1535 20.667C11.1146 20.5586 11.0855 20.4663 11.0645 20.3595C11.0434 20.2511 11.0289 20.1249 11.0273 19.9469C11.0273 19.8693 11.0305 19.7803 11.037 19.6816C11.0564 19.4049 10.8477 19.1654 10.571 19.146C10.2943 19.1266 10.0548 19.3353 10.0354 19.612C10.0273 19.7318 10.0225 19.8434 10.0225 19.9486C10.0225 20.2269 10.0516 20.4582 10.0985 20.6524C10.1341 20.7996 10.1762 20.9226 10.215 21.0326C10.2441 21.1152 10.2716 21.188 10.2959 21.2608C10.3315 21.3692 10.3622 21.4776 10.3849 21.6216C10.4075 21.764 10.4237 21.942 10.4253 22.1814C10.4253 22.5665 10.3817 23.1102 10.2571 23.8884C10.2134 24.1619 10.3995 24.4192 10.6745 24.4628C10.948 24.5065 11.2052 24.3205 11.2489 24.0454L11.2522 24.0405Z" fill="#083F2F"/>
<path d="M12.7211 35.0124C14.9376 34.6791 16.8563 34.2471 18.5664 33.7423C21.1324 32.9852 23.2259 32.063 25.1366 31.0631C27.0473 30.0633 28.7752 28.9906 30.618 27.9261C30.6843 27.8889 30.7555 27.8598 30.838 27.8403C30.9205 27.8209 31.0143 27.8096 31.1195 27.8096C31.3395 27.8096 31.6097 27.8598 31.9155 27.9649C32.1824 28.0571 32.4753 28.1898 32.7827 28.3581C33.3214 28.6525 33.9055 29.057 34.4944 29.5326C35.3794 30.2477 36.2757 31.123 37.0733 32.0355C37.8709 32.948 38.5698 33.896 39.06 34.7454C39.1992 34.9849 39.5049 35.0674 39.746 34.9282C39.9854 34.7891 40.068 34.4833 39.9288 34.2423C39.4629 33.4366 38.8481 32.5823 38.1475 31.7443C37.0959 30.4888 35.8518 29.277 34.6287 28.3629C34.0155 27.9067 33.4088 27.5249 32.8215 27.2498C32.5287 27.1123 32.2391 27.0023 31.9559 26.9262C31.6728 26.8486 31.3929 26.8049 31.1195 26.8049C30.9448 26.8049 30.7717 26.8227 30.6018 26.8648C30.4335 26.9052 30.2701 26.9699 30.1164 27.0573C28.8755 27.774 27.6993 28.4859 26.5005 29.1702C24.7014 30.1976 22.8489 31.1618 20.6325 31.9934C18.416 32.825 15.8322 33.5272 12.5706 34.019C12.2972 34.0611 12.1079 34.3151 12.15 34.5901C12.192 34.8635 12.446 35.0528 12.7211 35.0107V35.0124ZM1.13872 35.7825C2.73233 35.7776 4.22239 35.742 5.62185 35.6773C5.8985 35.6644 6.11206 35.4298 6.09912 35.1531C6.08617 34.8765 5.85158 34.6629 5.57493 34.6758C4.19165 34.7389 2.71615 34.7762 1.13549 34.781C0.85883 34.781 0.633946 35.0075 0.635564 35.2842C0.635564 35.5608 0.862066 35.7857 1.13872 35.7841V35.7825ZM14.4198 27.6866C15.9698 27.5346 17.2738 27.3113 18.3917 27.033C20.0678 26.6156 21.3265 26.0736 22.349 25.4782C23.3731 24.8829 24.1578 24.2406 24.8939 23.6355C24.9684 23.5756 25.0622 23.5158 25.1771 23.4624C25.3502 23.3831 25.5702 23.3151 25.8307 23.2715C26.0912 23.2262 26.3921 23.2019 26.7254 23.2019C27.4777 23.2019 28.3934 23.3232 29.3981 23.5724C30.9043 23.9429 32.6079 24.5949 34.2922 25.5138C35.9764 26.4312 37.6412 27.6171 39.0778 29.0505C39.2736 29.2463 39.5923 29.2463 39.7864 29.0505C39.9822 28.8547 39.9822 28.536 39.7864 28.3419C37.7657 26.3276 35.347 24.8004 33.0157 23.7698C31.8492 23.2553 30.7053 22.8638 29.6392 22.6017C28.573 22.3396 27.5861 22.2037 26.727 22.2021C26.219 22.2021 25.7546 22.249 25.3405 22.3525C25.1334 22.4043 24.9392 22.4706 24.758 22.5548C24.5768 22.6389 24.4102 22.7392 24.2597 22.8621C23.7679 23.265 23.2793 23.6662 22.7276 24.0497C21.9009 24.6256 20.935 25.1692 19.6067 25.6303C18.2785 26.0914 16.5862 26.4684 14.3228 26.69C14.0477 26.7175 13.8455 26.9618 13.873 27.2385C13.9005 27.5135 14.1448 27.7158 14.4215 27.6883L14.4198 27.6866ZM1.25036 29.9695C1.65644 29.277 2.23726 28.5296 2.90867 27.808C3.91499 26.724 5.13001 25.695 6.26899 24.9492C6.83848 24.5755 7.38856 24.2729 7.87716 24.0691C8.12146 23.9672 8.34958 23.8895 8.55343 23.8393C8.75728 23.7892 8.93848 23.7649 9.08571 23.7649C9.2119 23.7649 9.31383 23.7827 9.38825 23.8086C9.46429 23.8345 9.51445 23.8668 9.55813 23.9121C11.053 25.4071 13.0155 26.9457 15.232 28.3791C17.4485 29.8125 19.9174 31.1359 22.4218 32.1876C22.6775 32.2943 22.9719 32.1746 23.0787 31.919C23.1855 31.6634 23.0657 31.3689 22.8101 31.2621C20.3655 30.2364 17.9436 28.9373 15.7772 27.5362C13.6093 26.1351 11.6953 24.6305 10.2684 23.2019C10.1114 23.045 9.92053 22.9301 9.7183 22.8605C9.51606 22.791 9.3025 22.7618 9.08733 22.7618C8.75243 22.7618 8.40782 22.8298 8.04542 22.9414C7.41283 23.1388 6.73009 23.4786 6.0247 23.917C4.96661 24.5739 3.85998 25.454 2.86499 26.4215C1.87 27.389 0.98826 28.4422 0.38803 29.4614C0.247275 29.7009 0.328168 30.0083 0.565995 30.1474C0.805441 30.2882 1.11284 30.2073 1.25197 29.9695H1.25036ZM25.9342 7.11702C25.8744 7.03936 25.7886 6.89052 25.6996 6.69799C25.6204 6.52973 25.5362 6.3275 25.444 6.10423C25.2822 5.71271 25.0994 5.25808 24.8745 4.7889C24.7063 4.43782 24.5137 4.07704 24.2872 3.72919C23.9475 3.20824 23.5285 2.70994 22.9897 2.32003C22.7211 2.12588 22.4218 1.95762 22.0934 1.83143C21.765 1.70524 21.4058 1.61787 21.0175 1.58066C20.3073 1.51271 19.775 1.38652 19.3576 1.23929C19.0437 1.12927 18.7946 1.00793 18.5794 0.884976C18.4176 0.792757 18.2752 0.698921 18.1377 0.605084C17.9322 0.465947 17.7397 0.325192 17.51 0.207088C17.3951 0.148844 17.2689 0.0954544 17.133 0.0582434C16.9955 0.0210323 16.8483 0 16.6946 0C16.5182 0 16.3354 0.025886 16.1461 0.0776578C15.9552 0.12943 15.7562 0.203852 15.5394 0.30416C15.253 0.436825 15.0087 0.605084 14.8081 0.799229C14.6334 0.969105 14.4926 1.15678 14.3794 1.35254C14.182 1.69391 14.0688 2.05308 13.9814 2.40416C13.9167 2.66625 13.8649 2.92673 13.8115 3.17426C13.7306 3.54799 13.6416 3.89584 13.5041 4.19838C13.4345 4.35046 13.3553 4.48959 13.2566 4.62064C13.1579 4.75169 13.043 4.87303 12.899 4.9879C12.6822 5.15939 12.645 5.47488 12.8181 5.69329C12.9896 5.91009 13.3051 5.9473 13.5235 5.77418C13.7694 5.57842 13.9701 5.36001 14.1302 5.12865C14.271 4.92642 14.3794 4.7161 14.4684 4.50416C14.6221 4.13528 14.7127 3.76479 14.7887 3.41533C14.8453 3.15323 14.8955 2.90246 14.9521 2.67111C14.9942 2.49799 15.0411 2.33621 15.0961 2.18898C15.1786 1.96733 15.2789 1.78128 15.4132 1.62434C15.5475 1.46741 15.7157 1.33151 15.9649 1.21502C16.1412 1.13251 16.2885 1.07912 16.4082 1.04676C16.5279 1.01441 16.6201 1.00308 16.6962 1.00308C16.7755 1.00308 16.8369 1.01441 16.9049 1.03544C16.9631 1.05485 17.0278 1.08236 17.1023 1.1228C17.2317 1.19399 17.3902 1.30562 17.5892 1.44152C17.8869 1.64376 18.2768 1.89291 18.8124 2.10485C19.3479 2.31679 20.029 2.49314 20.9237 2.57889C21.2715 2.61286 21.5757 2.69537 21.8491 2.8151C22.0902 2.92026 22.307 3.05454 22.5092 3.21309C22.8619 3.49137 23.1644 3.8473 23.4265 4.2453C23.8213 4.84229 24.1206 5.52827 24.3778 6.14953C24.5073 6.46016 24.6254 6.75623 24.7451 7.02156C24.805 7.15423 24.8648 7.27881 24.9295 7.39691C24.9942 7.51501 25.0606 7.62341 25.1399 7.72696C25.3081 7.94699 25.6236 7.98743 25.8436 7.81917C26.0637 7.65092 26.1041 7.33543 25.9358 7.1154L25.9342 7.11702ZM19.2379 19.2656C19.1926 17.8128 19.1133 16.6269 19.0097 15.6545C18.9191 14.8035 18.8091 14.1143 18.6813 13.5513C18.5697 13.0578 18.4467 12.6582 18.3076 12.3298C18.1862 12.0418 18.0552 11.8056 17.9096 11.6115C17.7818 11.4416 17.6443 11.3025 17.5035 11.1941C17.3805 11.0986 17.2543 11.0258 17.1362 10.9692C17.0327 10.9206 16.9356 10.8834 16.8466 10.8511C16.6913 10.7977 16.5684 10.7605 16.4794 10.72C16.4114 10.6909 16.3629 10.6618 16.3192 10.6262C16.2869 10.5987 16.2545 10.5663 16.2205 10.5194C16.1688 10.4482 16.1105 10.3398 16.0539 10.1699C15.9973 10.0001 15.9439 9.77033 15.9002 9.46779C15.7805 8.62973 15.6996 7.9842 15.609 7.46162C15.541 7.0701 15.4698 6.74653 15.3647 6.45854C15.2854 6.24337 15.1851 6.04599 15.0492 5.87449C14.9473 5.74506 14.8275 5.63181 14.6949 5.53798C14.4943 5.3956 14.271 5.29691 14.0251 5.2144C13.7775 5.13189 13.5041 5.06556 13.1854 4.99437L13.1644 4.99113C13.0576 4.97172 12.9346 4.93613 12.7971 4.88274C12.5593 4.79052 12.2842 4.64976 11.9898 4.48474C11.5481 4.23721 11.0627 3.93952 10.5466 3.69037C10.2878 3.56579 10.0208 3.45254 9.74418 3.36679C9.46753 3.28104 9.17955 3.22118 8.88186 3.20662C8.82523 3.20339 8.76699 3.20339 8.71036 3.20339C8.22015 3.20339 7.75097 3.29884 7.31738 3.44445C6.66537 3.66286 6.09103 3.99453 5.62993 4.31486C5.39858 4.47503 5.19634 4.63358 5.02809 4.77596C4.85983 4.91833 4.72554 5.04291 4.62685 5.13998C4.34858 5.41825 4.1237 5.73374 3.93764 6.07026C3.61083 6.65754 3.39404 7.30307 3.20151 7.94213C3.05752 8.42102 2.92971 8.89668 2.78895 9.33997C2.68379 9.67326 2.57216 9.98712 2.44434 10.2686C2.34889 10.4806 2.24535 10.6747 2.1321 10.8462C1.96222 11.1051 1.76969 11.3105 1.54319 11.4691C1.31507 11.626 1.04974 11.7393 0.701897 11.7959C0.459216 11.8347 0.28125 12.0451 0.28125 12.291V39.2172C0.28125 39.3499 0.33464 39.4777 0.428476 39.5715C0.522313 39.6654 0.651743 39.7188 0.78279 39.7188H39.4936C39.6263 39.7188 39.7541 39.6654 39.8479 39.5715C39.9418 39.4777 39.9952 39.3483 39.9952 39.2172V15.208C39.9952 15.0527 39.924 14.9055 39.7994 14.8116C39.1377 14.3004 38.6297 13.9833 38.1945 13.7859C37.9777 13.6872 37.7771 13.6192 37.5894 13.5772C37.4017 13.5351 37.227 13.5189 37.0684 13.5189C36.8613 13.5189 36.6866 13.5448 36.5329 13.5642C36.3776 13.5853 36.2449 13.6014 36.0993 13.6014C35.9909 13.6014 35.8744 13.5934 35.7369 13.5675C35.5298 13.5286 35.271 13.4526 34.9312 13.3021C34.5931 13.1517 34.1757 12.9284 33.6579 12.6016C33.4234 12.4528 33.1143 12.5239 32.9655 12.7569C32.8167 12.9915 32.8878 13.3005 33.1208 13.4494C33.8505 13.9105 34.4216 14.1984 34.9005 14.3732C35.1399 14.4605 35.3567 14.5188 35.5541 14.556C35.7531 14.5932 35.9343 14.6061 36.0977 14.6061C36.3193 14.6061 36.5054 14.5819 36.6623 14.5608C36.8193 14.5398 36.9455 14.5236 37.0668 14.5236C37.1606 14.5236 37.2545 14.5317 37.3677 14.5576C37.5376 14.5964 37.7544 14.6741 38.0489 14.8375C38.3433 15.0009 38.7154 15.2468 39.183 15.6076L39.4888 15.2112H38.9872C38.9872 23.2132 38.9872 31.2152 38.9872 39.2188H39.4888V38.7173H1.28595V12.2894H0.784408L0.865302 12.7844C1.29889 12.7149 1.68394 12.5676 2.01237 12.3605C2.30035 12.1793 2.54304 11.9528 2.7485 11.7021C3.10767 11.2604 3.35197 10.7459 3.55259 10.2088C3.70305 9.80592 3.82601 9.38851 3.94573 8.97433C4.12531 8.35307 4.29519 7.73828 4.5136 7.19629C4.622 6.92611 4.74172 6.67372 4.87762 6.44722C5.01353 6.22072 5.16399 6.02172 5.33548 5.85022C5.43579 5.74992 5.60728 5.59137 5.83055 5.41502C6.16545 5.14969 6.61684 4.84067 7.11838 4.60446C7.36915 4.48636 7.63286 4.38605 7.90143 4.31648C8.16999 4.24691 8.44018 4.20647 8.71036 4.20647C8.75243 4.20647 8.79287 4.20647 8.83494 4.2097C9.12777 4.22265 9.44973 4.31001 9.78948 4.45077C10.0435 4.55593 10.3056 4.68859 10.5693 4.83258C10.9657 5.04938 11.3669 5.29368 11.7649 5.50724C11.9639 5.61402 12.1645 5.71109 12.3668 5.7936C12.569 5.87611 12.7745 5.94244 12.988 5.97965L13.0754 5.4862L12.967 5.97642C13.2064 6.02981 13.4103 6.07834 13.5769 6.1285C13.7225 6.17218 13.8423 6.21586 13.9361 6.25955C14.0186 6.29837 14.0817 6.33559 14.1319 6.37442C14.1772 6.40839 14.2127 6.44398 14.2467 6.48605C14.2775 6.52326 14.305 6.56371 14.3341 6.61548C14.3842 6.70608 14.4328 6.82742 14.4781 6.98921C14.5476 7.23189 14.6091 7.56517 14.6755 7.99714C14.7418 8.42911 14.8114 8.96301 14.9036 9.61178C14.978 10.1343 15.0848 10.5226 15.2385 10.8349C15.3064 10.9708 15.3841 11.0921 15.4698 11.1957C15.5507 11.2944 15.6413 11.3769 15.7335 11.4464C15.8193 11.5112 15.9083 11.5629 15.9924 11.6034C16.151 11.681 16.2966 11.7263 16.4179 11.7668C16.5263 11.8024 16.6169 11.8347 16.6978 11.8736C16.769 11.9075 16.8321 11.9447 16.8968 11.9965C16.9534 12.0418 17.0117 12.0984 17.0731 12.1761C17.1815 12.312 17.3029 12.5159 17.4226 12.8297C17.6038 13.2989 17.7802 14.0075 17.9209 15.0543C18.0633 16.0994 18.1717 17.4811 18.2283 19.2996C18.2364 19.5763 18.4694 19.793 18.746 19.785C19.0227 19.7769 19.2395 19.5439 19.2314 19.2672L19.2379 19.2656Z" fill="#083F2F"/>
</g>
</g>
<defs>
<clipPath id="clip0_11_7445">
<rect width="40" height="40" fill="white"/>
</clipPath>
</defs>
</svg>
