<svg width="41" height="40" viewBox="0 0 41 40" fill="none" xmlns="http://www.w3.org/2000/svg">
<path d="M39.8262 0.723633H1.27344V39.2764H39.8262V0.723633Z" fill="#FFC83F"/>
<path d="M39.7764 0H28.2207C28.0288 0 27.8448 0.076238 27.7091 0.211943C27.5734 0.347647 27.4971 0.531702 27.4971 0.723617C27.4971 0.915532 27.5734 1.09959 27.7091 1.23529C27.8448 1.371 28.0288 1.44723 28.2207 1.44723H31.4034V7.71055H17.3989V1.44723H25.8081C26 1.44723 26.184 1.371 26.3197 1.23529C26.4554 1.09959 26.5317 0.915532 26.5317 0.723617C26.5317 0.531702 26.4554 0.347647 26.3197 0.211943C26.184 0.076238 26 0 25.8081 0L1.22362 0C1.0317 0 0.847647 0.076238 0.711943 0.211943C0.576238 0.347647 0.5 0.531702 0.5 0.723617L0.5 39.2764C0.5 39.4683 0.576238 39.6524 0.711943 39.7881C0.847647 39.9238 1.0317 40 1.22362 40H39.7764C39.9683 40 40.1524 39.9238 40.2881 39.7881C40.4238 39.6524 40.5 39.4683 40.5 39.2764V0.723617C40.5 0.531702 40.4238 0.347647 40.2881 0.211943C40.1524 0.076238 39.9683 0 39.7764 0ZM31.4034 32.2894V38.5528H17.3989V32.2894H31.4034ZM25.0529 30.8422V24.5789H39.0528V30.8422H25.0529ZM1.94723 23.1317V16.8683H15.9517V23.1307L1.94723 23.1317ZM1.94723 30.8422V24.5789H8.15033V30.8422H1.94723ZM23.6011 9.16149V15.4248H9.59756V9.15779L23.6011 9.16149ZM8.15033 15.4211H1.94723V9.15779H8.15033V15.4211ZM17.3989 16.8683H27.2553C27.4472 16.8683 27.6313 16.7921 27.767 16.6564C27.9027 16.5207 27.9789 16.3366 27.9789 16.1447C27.9789 15.9528 27.9027 15.7688 27.767 15.633C27.6313 15.4973 27.4472 15.4211 27.2553 15.4211H25.0529V9.15779H39.0528V15.4211H29.6698C29.4779 15.4211 29.2939 15.4973 29.1582 15.633C29.0225 15.7688 28.9462 15.9528 28.9462 16.1447C28.9462 16.3366 29.0225 16.5207 29.1582 16.6564C29.2939 16.7921 29.4779 16.8683 29.6698 16.8683H31.4043V23.1307H17.3989V16.8683ZM39.0528 16.8683V23.1307H32.8506V16.8683H39.0528ZM32.8506 1.44723H39.0528V7.71055H32.8506V1.44723ZM15.9517 7.71055H1.94723V1.44723H15.9517V7.71055ZM1.94723 32.2894H12.3947C12.5867 32.2894 12.7707 32.2132 12.9064 32.0775C13.0421 31.9418 13.1184 31.7577 13.1184 31.5658C13.1184 31.3739 13.0421 31.1899 12.9064 31.0542C12.7707 30.9185 12.5867 30.8422 12.3947 30.8422H9.59756V24.5789H23.6011V30.8422H14.8065C14.6146 30.8422 14.4305 30.9185 14.2948 31.0542C14.1591 31.1899 14.0829 31.3739 14.0829 31.5658C14.0829 31.7577 14.1591 31.9418 14.2948 32.0775C14.4305 32.2132 14.6146 32.2894 14.8065 32.2894H15.9508V38.5528H1.94723V32.2894ZM32.8506 38.5528V32.2894H39.0528V38.5528H32.8506Z" fill="#083F2F"/>
</svg>
