<svg width="40" height="40" viewBox="0 0 40 40" fill="none" xmlns="http://www.w3.org/2000/svg">
<g clip-path="url(#clip0_2649_5492)">
<path d="M20.0009 39.5389C30.7913 39.5389 39.5387 30.7916 39.5387 20.0011C39.5387 9.21074 30.7913 0.463379 20.0009 0.463379C9.21049 0.463379 0.463135 9.21074 0.463135 20.0011C0.463135 30.7916 9.21049 39.5389 20.0009 39.5389Z" fill="#65C3A5"/>
<path d="M39.5368 20.0009H39.0737C39.0737 25.2698 36.9395 30.0347 33.4862 33.488C30.0329 36.9413 25.2679 39.0737 19.9991 39.0755C14.7302 39.0755 9.96526 36.9413 6.51197 33.488C3.05868 30.0347 0.926312 25.2698 0.924459 20.0009C0.924459 14.7321 3.05868 9.96712 6.51197 6.51382C9.96526 3.06053 14.7321 0.926312 20.0009 0.926312C25.2698 0.926312 30.0347 3.06053 33.488 6.51382C36.9413 9.96712 39.0737 14.7321 39.0755 20.0009H40.0019C40 8.95373 31.0463 0 20.0009 0C8.95373 0 0 8.95373 0 20.0009C0 31.0463 8.95373 40 20.0009 40.0019C31.0463 40.0019 40 31.0481 40.0019 20.0009H39.5387H39.5368Z" fill="#083F2F"/>
<path d="M11.2936 22.1627C11.2936 22.0349 11.2899 21.9089 11.288 21.7811C11.9383 21.4587 12.5237 20.9734 13.3129 21.0048C13.6761 21.0197 13.941 20.8585 13.9113 20.4565C13.7872 18.8558 13.8854 17.1755 12.5552 15.949C12.055 15.4877 11.992 14.6578 11.0954 14.504C10.0579 14.3261 9.89115 13.8556 10.3173 12.8626C10.4729 12.4995 10.6674 12.116 10.1116 11.9603C9.3261 11.7417 9.23532 11.1804 9.27423 10.5023C9.2909 10.23 9.3613 9.90763 9.13528 9.69458C8.62766 9.21475 9.14084 9.15917 9.40391 9.02393C10.0542 8.69046 10.6804 9.04987 11.3177 9.11656C11.7919 9.45745 11.6604 8.95724 11.7697 8.7905C11.8142 8.78124 11.8531 8.7905 11.8864 8.82385C11.9105 8.87757 11.9346 8.93315 11.9605 8.98688C11.9754 8.935 11.9883 8.88128 12.0031 8.82941H12.0624C12.1958 9.1073 12.3292 9.38519 12.4626 9.66309C12.4996 9.67976 12.5404 9.68902 12.5812 9.69088C13.0869 10.3819 14.2059 10.0614 14.6116 10.9192C14.6561 11.3601 14.7858 11.6065 15.2397 11.223C15.3786 11.1063 15.6009 10.908 15.6954 10.9488C16.4995 11.3027 17.4813 11.1174 18.1816 11.7121C18.5763 12.0474 18.9227 11.9844 19.371 11.9196C19.9287 11.8399 20.4103 11.2323 21.0402 11.6547C21.3292 12.3272 20.7512 13.2757 21.7053 13.7352C21.7053 14.3817 21.3126 15.0264 21.6998 15.673C21.7794 16.264 21.8276 16.8605 21.9443 17.4423C22.0925 18.1833 22.6631 18.4408 23.2634 18.0129C23.6154 17.7628 23.9007 17.5553 24.3601 17.7035C24.6436 17.7961 24.9826 17.6497 25.1142 17.4274C25.581 16.6364 26.3332 16.7864 27.0409 16.7605C27.3225 16.7735 27.6041 16.7938 27.8838 16.7957C29.1473 16.805 29.2992 16.955 29.1992 18.1796C29.151 18.778 29.3344 19.1633 29.9365 19.4227C30.7721 19.7803 31.0018 20.7844 31.0666 21.4217C31.1204 21.9478 30.987 22.6629 30.9777 23.2965C30.9722 23.7078 30.8888 24.0117 30.4034 24.1098C30.0588 24.1802 29.7402 24.3729 29.8717 24.8342C30.1348 25.7605 29.6605 26.1033 28.825 26.1755C28.3563 26.2163 27.9376 26.3997 27.8394 26.898C27.7319 27.4427 28.2896 27.439 28.6397 27.6409C28.0209 28.2153 27.1131 28.4709 27.0131 29.4361L27.0224 29.425C26.9686 29.4046 26.8964 29.3509 26.8649 29.3676C25.9979 29.8419 25.581 31.1813 24.2286 30.7348C24.1953 30.7237 24.1286 30.8015 24.0804 30.8423C23.432 31.3647 23.0003 31.4296 23.0503 30.3773C23.0559 30.2494 22.9373 30.0494 22.8225 29.9956C22.3908 29.7918 22.4075 29.4954 22.4853 29.0878C22.6465 28.2227 22.3334 27.8892 21.5312 28.269C20.6808 28.6729 20.0157 27.8577 19.2413 28.1541C19.1709 28.1801 18.9783 27.9929 18.8986 27.8688C18.4021 27.0889 17.6499 26.8721 16.7903 26.8758L16.7866 26.8721C16.7181 26.8147 16.6514 26.7554 16.5828 26.698C16.1178 26.0884 15.6528 25.4789 15.1859 24.8713C14.9581 24.5749 14.7043 24.3099 14.3078 24.2525C14.1837 24.1006 14.0447 23.9783 13.8335 23.9802C13.8002 23.9468 13.7594 23.9264 13.7131 23.9153C13.626 23.8746 13.539 23.8338 13.4537 23.7949C13.413 23.7671 13.3667 23.7523 13.3167 23.7467C13.2333 23.7097 13.1499 23.6726 13.0665 23.6356C12.998 23.5726 12.9295 23.5096 12.8609 23.4448C12.5737 22.776 11.7419 23.4058 11.4103 22.8389C11.4047 22.7926 11.3899 22.7519 11.364 22.713C11.3399 22.5296 11.314 22.3443 11.2899 22.1609L11.2936 22.1627Z" fill="#FFC941"/>
<path d="M11.2936 22.1628L11.6641 22.1573C11.6641 22.0294 11.6604 21.9035 11.6585 21.7756L11.288 21.7812L11.4529 22.1128C11.7938 21.9424 12.0939 21.7497 12.3829 21.607C12.6738 21.4644 12.9424 21.3736 13.2425 21.3736C13.2629 21.3736 13.2796 21.3736 13.2963 21.3736H13.2981C13.3185 21.3736 13.337 21.3736 13.3555 21.3736C13.5704 21.3736 13.7946 21.3273 13.9854 21.1772C14.0799 21.1031 14.1596 21.0012 14.2096 20.8864C14.2596 20.7715 14.2837 20.6455 14.2818 20.5177C14.2818 20.4918 14.2818 20.4621 14.2781 20.4288C14.217 19.6433 14.2114 18.8096 14.0466 17.987C13.9632 17.5757 13.8372 17.1682 13.639 16.7772C13.4408 16.3863 13.1684 16.0121 12.8035 15.6749C12.7164 15.5953 12.6367 15.486 12.5533 15.3526C12.4274 15.1544 12.3032 14.9024 12.0958 14.6616C11.992 14.5411 11.8642 14.4263 11.7067 14.3336C11.5492 14.241 11.3658 14.1725 11.1565 14.1373C11.0009 14.1113 10.873 14.078 10.7767 14.0409C10.6285 13.9853 10.5581 13.9279 10.5229 13.8835C10.5043 13.8612 10.4932 13.839 10.484 13.8093C10.4747 13.7797 10.4673 13.7408 10.4673 13.6889C10.4673 13.55 10.5229 13.3147 10.6563 13.009C10.6933 12.9219 10.7378 12.8237 10.7767 12.7163C10.8137 12.607 10.8508 12.4847 10.8508 12.3384C10.8508 12.2643 10.8397 12.1827 10.8119 12.1012C10.7711 11.9771 10.6841 11.8604 10.5785 11.7807C10.471 11.6974 10.3487 11.6436 10.2116 11.6066C10.0727 11.5677 9.9745 11.5195 9.90224 11.4695C9.79665 11.3935 9.74292 11.3176 9.70031 11.2027C9.6577 11.0897 9.63732 10.9341 9.63732 10.747C9.63732 10.6766 9.63917 10.6043 9.64473 10.5283C9.65029 10.4302 9.66881 10.3005 9.66881 10.1467C9.66881 10.0411 9.65955 9.92069 9.61879 9.79471C9.57989 9.66873 9.50393 9.53534 9.38907 9.42789C9.32608 9.36861 9.29273 9.326 9.28347 9.30932L9.27976 9.30376L9.21122 9.33711L9.28532 9.31859L9.27976 9.30376L9.21122 9.33711L9.28532 9.31859L9.11673 9.3612H9.29088C9.29088 9.34267 9.28903 9.32785 9.28532 9.31859L9.11673 9.3612H9.29088H9.07597L9.27235 9.44827C9.28347 9.42233 9.29088 9.38898 9.29088 9.3612H9.07597L9.27235 9.44827L9.10191 9.37231L9.24086 9.49644C9.24086 9.49644 9.26124 9.4705 9.2705 9.44827L9.10006 9.37231L9.23901 9.49644L9.17046 9.4353L9.22604 9.50755L9.23901 9.49458L9.17046 9.43345L9.22604 9.5057L9.23345 9.502C9.25012 9.49088 9.29829 9.46865 9.35757 9.44642C9.41871 9.42233 9.48911 9.3964 9.57063 9.35564C9.71513 9.28339 9.84481 9.25745 9.99673 9.25745C10.1653 9.25745 10.358 9.2945 10.571 9.34637C10.7841 9.3964 11.0194 9.45938 11.2769 9.48717L11.3158 9.1185L11.099 9.41863C11.1713 9.4705 11.238 9.51126 11.3102 9.54461C11.3825 9.5761 11.464 9.60389 11.5659 9.60389C11.6437 9.60389 11.7345 9.58351 11.8086 9.53905C11.8734 9.50014 11.9235 9.45012 11.9568 9.40195C12.0161 9.31859 12.0346 9.24819 12.0513 9.19075C12.0717 9.10553 12.0791 9.03884 12.0865 8.99808C12.0902 8.9777 12.0939 8.96288 12.0939 8.96103L11.9457 8.90916L12.0754 8.99438C12.0883 8.97585 12.092 8.96473 12.092 8.96103L11.9438 8.90916L12.0735 8.99438L11.7641 8.79059L11.8456 9.15185L11.7956 8.92583V9.15741C11.816 9.15741 11.8327 9.15555 11.8456 9.15185L11.7956 8.92583V9.15741V8.90174L11.6937 9.13518C11.7252 9.15 11.7641 9.15741 11.7956 9.15555V8.89989L11.6937 9.13332L11.7864 8.91657L11.6215 9.08515C11.6363 9.09998 11.6622 9.1185 11.6937 9.13332L11.7864 8.91657L11.6215 9.08515L11.8808 8.82023L11.5418 8.97214C11.5659 9.02587 11.59 9.08145 11.6159 9.13518C11.6808 9.27783 11.8271 9.3649 11.9846 9.35379C12.1421 9.34267 12.2718 9.23151 12.3125 9.0796C12.3273 9.02772 12.3403 8.974 12.3551 8.92027L11.9976 8.82579L12.0068 9.19631H12.0661L12.0568 8.82393L11.7234 8.98326C11.8568 9.26115 11.9902 9.5409 12.1235 9.81879C12.1606 9.8966 12.2254 9.95959 12.3051 9.99665C12.3848 10.0337 12.4737 10.0541 12.5589 10.0578L12.5756 9.68726L12.2773 9.90587C12.4515 10.1449 12.6812 10.2931 12.8998 10.3894C13.2314 10.5321 13.5501 10.5876 13.789 10.6803C13.9095 10.7247 14.0058 10.7747 14.0818 10.8359C14.1577 10.897 14.2189 10.9656 14.2707 11.0749L14.6061 10.9155L14.2374 10.9526C14.2559 11.1175 14.2781 11.2694 14.3504 11.4287C14.3874 11.5084 14.443 11.5936 14.5338 11.664C14.6227 11.7363 14.7524 11.7807 14.871 11.7789C14.9951 11.7789 15.1007 11.7418 15.197 11.6936C15.2915 11.6436 15.3805 11.5806 15.4749 11.5028C15.5398 11.4472 15.6157 11.3824 15.675 11.3398C15.7047 11.3194 15.7287 11.3027 15.738 11.299H15.7399L15.7269 11.2694L15.738 11.299H15.7399L15.7269 11.2694L15.738 11.299L15.6639 11.1064V11.312C15.7139 11.312 15.7325 11.3027 15.738 11.3009L15.6639 11.1082V11.3139V11.0156L15.5435 11.2879C15.5898 11.3083 15.6361 11.3139 15.6639 11.3139V11.0156L15.5435 11.2879C16.0196 11.4954 16.4994 11.5343 16.9144 11.6066C17.1219 11.6418 17.3146 11.6825 17.485 11.7418C17.6555 11.803 17.8037 11.8808 17.9389 11.9956C18.0871 12.1216 18.2428 12.2124 18.4039 12.268C18.5633 12.3235 18.7226 12.3421 18.8708 12.3421C19.0672 12.3421 19.245 12.3124 19.421 12.2883C19.7174 12.2439 19.9435 12.116 20.1343 12.0271C20.2306 11.9808 20.3158 11.9419 20.3918 11.916C20.4678 11.89 20.5289 11.8789 20.5845 11.8789C20.6586 11.8789 20.7234 11.8937 20.8327 11.9641L21.0384 11.6566L20.6975 11.803C20.7419 11.903 20.7605 12.0456 20.7586 12.2254C20.7586 12.3624 20.7494 12.5199 20.7494 12.6904C20.7494 12.9164 20.766 13.1702 20.8809 13.4296C20.9383 13.5574 21.0235 13.6834 21.1347 13.7927C21.2459 13.902 21.383 13.9965 21.5423 14.0724L21.7035 13.7389H21.3329C21.3329 13.9057 21.2977 14.0984 21.2533 14.3133C21.2107 14.53 21.1588 14.769 21.1588 15.0358C21.1588 15.297 21.2162 15.5916 21.383 15.8676L21.7016 15.6768L21.3348 15.7268C21.4126 16.3048 21.4608 16.9088 21.583 17.5202C21.6442 17.8221 21.7664 18.0852 21.961 18.2816C22.0573 18.3798 22.1722 18.4594 22.2982 18.5132C22.4241 18.5669 22.5612 18.5947 22.7002 18.5947C22.9707 18.5947 23.2374 18.4928 23.482 18.3186C23.6172 18.2223 23.7302 18.1426 23.8247 18.0963C23.9192 18.0481 23.9877 18.0296 24.0693 18.0296C24.1193 18.0296 24.1749 18.037 24.2508 18.0611C24.3509 18.0926 24.4509 18.1074 24.5472 18.1074C24.7325 18.1074 24.9048 18.0593 25.0567 17.9777C25.2086 17.8962 25.342 17.7814 25.4383 17.622C25.5143 17.4942 25.5903 17.409 25.6681 17.3479C25.7848 17.2552 25.9126 17.2052 26.0756 17.1737C26.2387 17.1441 26.4314 17.1385 26.6463 17.1385H26.7667C26.8612 17.1385 26.9594 17.1385 27.0594 17.1348L27.0464 16.7643L27.0297 17.1348C27.3039 17.1459 27.5892 17.1682 27.8875 17.17C28.1487 17.17 28.3525 17.1811 28.5007 17.1996C28.6119 17.2145 28.6878 17.2348 28.7323 17.2534C28.7657 17.2682 28.7805 17.2793 28.7897 17.2886C28.8027 17.3015 28.8157 17.3145 28.8324 17.3775C28.849 17.4368 28.862 17.5405 28.862 17.685C28.862 17.811 28.8527 17.9685 28.8379 18.1556C28.8324 18.2241 28.8286 18.2927 28.8286 18.3612C28.8286 18.5113 28.8435 18.6577 28.8805 18.8003C28.9361 19.0134 29.0454 19.2153 29.2029 19.3783C29.3622 19.5432 29.5623 19.6692 29.7976 19.7692C29.9532 19.8359 30.0792 19.9304 30.1885 20.0508C30.3515 20.2305 30.4719 20.4695 30.5553 20.7233C30.6387 20.9771 30.6831 21.2439 30.7035 21.4644C30.7109 21.5348 30.7146 21.6144 30.7146 21.7015C30.7146 21.9201 30.6924 22.1795 30.6683 22.4518C30.6442 22.7242 30.6183 23.0113 30.6127 23.2966C30.6127 23.3874 30.6053 23.4634 30.5942 23.5208C30.5868 23.5634 30.5757 23.5949 30.5664 23.6171C30.5497 23.6505 30.5405 23.6634 30.5127 23.6838C30.4849 23.7042 30.433 23.7301 30.3348 23.7505C30.1533 23.7876 29.9606 23.8506 29.7865 23.9895C29.6994 24.0599 29.6197 24.1507 29.5623 24.2637C29.5049 24.3767 29.4752 24.5064 29.4752 24.6398C29.4752 24.738 29.49 24.838 29.5197 24.9399C29.5623 25.0881 29.579 25.2085 29.579 25.2993C29.579 25.3994 29.5604 25.4642 29.5382 25.5105C29.5197 25.5457 29.4993 25.5754 29.466 25.605C29.4178 25.6495 29.34 25.6939 29.227 25.731C29.114 25.768 28.9694 25.7958 28.7972 25.8106C28.5248 25.8347 28.2469 25.8977 27.9968 26.0589C27.8727 26.1386 27.7578 26.2442 27.6689 26.3757C27.5781 26.5072 27.5151 26.6628 27.4818 26.8314C27.4688 26.8981 27.4614 26.9648 27.4614 27.0297C27.4614 27.1186 27.4744 27.2075 27.504 27.289C27.554 27.4354 27.6504 27.5521 27.7486 27.6281C27.8968 27.7448 28.045 27.7967 28.1691 27.843C28.2932 27.8893 28.4007 27.9282 28.4618 27.9634L28.6471 27.6429L28.3951 27.3706C28.2636 27.4928 28.1061 27.6077 27.9357 27.7244C27.6819 27.9004 27.3966 28.082 27.1483 28.3413C27.0242 28.471 26.9112 28.6211 26.8241 28.7989C26.737 28.9749 26.6759 29.1769 26.6537 29.3992C26.637 29.5566 26.7241 29.7086 26.8686 29.7734C27.0131 29.8401 27.1835 29.8067 27.2928 29.69L27.3021 29.6789C27.3873 29.5881 27.4207 29.464 27.3947 29.3417C27.3669 29.2213 27.2817 29.1231 27.1668 29.0787L27.1335 29.1639L27.1724 29.0805H27.1668L27.1335 29.1639L27.1724 29.0805C27.1724 29.0805 27.1483 29.0676 27.1113 29.049C27.0927 29.0398 27.0705 29.0287 27.0372 29.0175C27.0038 29.0064 26.9612 28.9935 26.8908 28.9916C26.8426 28.9916 26.7685 28.9972 26.6815 29.0509L26.876 29.3658L26.6981 29.0398C26.4647 29.1676 26.2757 29.3325 26.1053 29.4992C25.8515 29.7512 25.6347 30.005 25.418 30.181C25.3105 30.2681 25.2049 30.3366 25.0993 30.3811C24.9919 30.4255 24.8844 30.4515 24.7547 30.4515C24.6436 30.4515 24.512 30.4311 24.3564 30.3792H24.3601C24.3138 30.3644 24.2712 30.3588 24.2341 30.3588C24.1674 30.3588 24.1211 30.3737 24.0859 30.3866C24.0248 30.4107 23.9933 30.4348 23.9674 30.4533C23.9303 30.483 23.9062 30.5052 23.8877 30.5219L23.8655 30.5422L23.8599 30.5478C23.7302 30.6515 23.6135 30.7312 23.5264 30.7775C23.482 30.8016 23.4468 30.8164 23.4227 30.8238L23.3968 30.8313H23.3912V30.9406L23.4486 30.8498C23.4264 30.835 23.3968 30.8294 23.3912 30.8313V30.9406L23.4486 30.8498L23.4005 30.9257L23.4764 30.8739C23.4764 30.8739 23.4653 30.859 23.4486 30.8498L23.4005 30.9257L23.4764 30.8739V30.8702C23.4616 30.8516 23.4283 30.7312 23.4301 30.5256C23.4301 30.483 23.4301 30.4366 23.4338 30.3866V30.3774V30.357C23.4338 30.2681 23.4153 30.1977 23.3931 30.131C23.3579 30.0328 23.3115 29.9476 23.2504 29.866C23.1874 29.7864 23.117 29.7104 22.9929 29.6493C22.941 29.6252 22.9058 29.603 22.8854 29.5844C22.8521 29.5566 22.8465 29.5455 22.8391 29.5289C22.8317 29.5122 22.8243 29.4844 22.8243 29.4307C22.8243 29.3658 22.8373 29.2658 22.8613 29.1435C22.8928 28.9786 22.9095 28.8267 22.9095 28.6822C22.9095 28.5636 22.8984 28.4506 22.8706 28.3413C22.8502 28.2598 22.8187 28.1783 22.7743 28.1023C22.7076 27.9875 22.6057 27.8856 22.4834 27.8226C22.3611 27.7577 22.2259 27.7318 22.0962 27.7318C21.8646 27.7318 21.6368 27.8041 21.3867 27.9226C21.2607 27.9819 21.1551 28.0004 21.0402 28.0004C20.8661 28.0004 20.666 27.9449 20.4326 27.8708C20.201 27.7985 19.9361 27.7077 19.6211 27.7059C19.4618 27.7059 19.2913 27.7318 19.1228 27.7967L19.2395 28.1023V27.7744C19.2117 27.7744 19.1709 27.7781 19.1228 27.7967L19.2395 28.1023V27.7744V28.0523L19.3414 27.7929C19.3247 27.7874 19.2969 27.7763 19.2395 27.7744V28.0523L19.3414 27.7929L19.2913 27.9171L19.3617 27.8022L19.3414 27.7929L19.2913 27.9171L19.3617 27.8022C19.3617 27.8022 19.3191 27.7689 19.2913 27.7374C19.2617 27.7077 19.2339 27.6707 19.2265 27.6577C18.9449 27.2112 18.567 26.9055 18.1483 26.7277C17.7296 26.5498 17.2794 26.4924 16.8218 26.4924H16.7959L16.8051 26.8629L17.0145 26.5572L17.0108 26.5535L16.8014 26.8592L17.0423 26.5776C16.9756 26.5202 16.907 26.4609 16.8385 26.4035L16.5976 26.6851L16.8922 26.4609C16.4272 25.8514 15.9622 25.2419 15.4953 24.6324C15.373 24.473 15.2359 24.3082 15.0544 24.1674C14.8747 24.0266 14.645 23.9117 14.3782 23.8728L14.3245 24.2396L14.6116 24.0062C14.5394 23.9173 14.4504 23.8191 14.3245 23.7376C14.2003 23.6542 14.0336 23.5949 13.8557 23.5968C13.8557 23.5968 13.8446 23.5968 13.8168 23.5968L13.8502 23.9654L14.1096 23.7005C14.0299 23.6208 13.9206 23.5616 13.8094 23.5393L13.7316 23.9024L13.8872 23.5671C13.8002 23.5264 13.7131 23.4856 13.6279 23.4467L13.4723 23.782L13.6779 23.4745C13.5871 23.4133 13.4741 23.3726 13.3648 23.3652L13.3352 23.7339L13.4852 23.3948C13.4019 23.3578 13.3185 23.3207 13.2351 23.2837L13.0851 23.6227L13.337 23.3504C13.2685 23.2874 13.1999 23.2244 13.1314 23.1595L12.8794 23.4319L13.2203 23.2855C13.1721 23.1707 13.1036 23.0688 13.0202 22.9854C12.8961 22.8594 12.7405 22.789 12.6015 22.7557C12.4626 22.7223 12.3384 22.7205 12.2291 22.7186C12.1606 22.7186 12.0976 22.7186 12.042 22.7186C11.9346 22.7186 11.8549 22.7093 11.8179 22.6964C11.7993 22.689 11.7901 22.6853 11.7827 22.6779C11.7752 22.6704 11.7641 22.6612 11.7493 22.6371L11.4288 22.8242L11.7975 22.7816C11.7864 22.6797 11.7475 22.5741 11.6882 22.4889L11.3825 22.6982L11.7493 22.6482C11.7252 22.4648 11.6993 22.2795 11.6752 22.0961L11.3084 22.1462L10.9416 22.1962C10.9657 22.3796 10.9916 22.5648 11.0157 22.7483C11.0231 22.8057 11.0453 22.8613 11.0768 22.9094L11.1546 22.8557L11.062 22.8668L11.0787 22.9094L11.1565 22.8557L11.0638 22.8668C11.0694 22.9187 11.0861 22.9669 11.112 23.0113C11.1676 23.1077 11.2398 23.191 11.3214 23.2577C11.4436 23.3578 11.5844 23.4078 11.7067 23.4337C11.8308 23.4597 11.9438 23.4615 12.0439 23.4615C12.1124 23.4615 12.1754 23.4615 12.231 23.4615C12.3496 23.4615 12.4329 23.4726 12.4644 23.4875C12.4811 23.4949 12.4885 23.5004 12.4996 23.5097C12.5089 23.5189 12.5237 23.5375 12.5422 23.5782C12.5626 23.6264 12.5923 23.669 12.6312 23.7042C12.6997 23.7672 12.7683 23.8302 12.8368 23.895C12.8664 23.9228 12.8998 23.945 12.9387 23.9617C13.0221 23.9988 13.1054 24.0358 13.1888 24.0729C13.2259 24.0896 13.2685 24.1007 13.3092 24.1044L13.3166 24.0192L13.2685 24.0896L13.3092 24.1044L13.3166 24.0192L13.2685 24.0896C13.287 24.1025 13.2981 24.1081 13.3185 24.1173C13.4056 24.1581 13.4926 24.1989 13.5779 24.2378C13.6019 24.2489 13.6316 24.2581 13.6575 24.2637L13.6834 24.1396L13.5945 24.2304C13.6075 24.2433 13.6371 24.26 13.6557 24.2637L13.6816 24.1396L13.5927 24.2304C13.6705 24.3063 13.7761 24.3434 13.8835 24.3341L13.8539 23.9951V24.3341H13.8835L13.8539 23.9951V24.3341H13.8557C13.8854 24.3341 13.8909 24.3378 13.9187 24.3545C13.9447 24.3712 13.9873 24.4101 14.0354 24.4712C14.0947 24.5434 14.1762 24.5898 14.2689 24.6027C14.3986 24.6231 14.4949 24.6694 14.5968 24.7491C14.6987 24.8288 14.8006 24.9436 14.9062 25.0826C15.373 25.6902 15.8362 26.2997 16.3031 26.9092C16.3197 26.9296 16.3364 26.9482 16.3568 26.9648C16.4253 27.0223 16.492 27.0815 16.5606 27.139L16.5921 27.1631L16.5958 27.1668C16.6588 27.2112 16.7366 27.2335 16.8144 27.2316H16.8218C17.2164 27.2316 17.5665 27.2835 17.8556 27.4076C18.1464 27.5336 18.3873 27.7244 18.5985 28.0523C18.6614 28.1487 18.7356 28.2339 18.8226 28.3135C18.8671 28.3524 18.9116 28.3913 18.9671 28.4265C18.9949 28.4451 19.0264 28.4617 19.069 28.4784C19.1098 28.4932 19.1617 28.5118 19.2395 28.5118C19.2784 28.5118 19.3302 28.5062 19.3858 28.4858C19.4655 28.4562 19.5377 28.4432 19.6193 28.4432C19.7767 28.4432 19.9731 28.4988 20.2084 28.5729C20.4418 28.6452 20.716 28.7359 21.0384 28.7378C21.2477 28.7378 21.4774 28.6952 21.7016 28.5877C21.8906 28.4969 22.0314 28.4673 22.0944 28.4692C22.1259 28.4692 22.1351 28.4747 22.137 28.4747L22.1444 28.458L22.1314 28.471L22.137 28.4747L22.1444 28.458L22.1314 28.471C22.1314 28.471 22.1425 28.4895 22.1518 28.5247C22.1611 28.5599 22.1685 28.6118 22.1666 28.6822C22.1666 28.7674 22.1555 28.8786 22.1314 29.0083C22.1055 29.1454 22.0832 29.2825 22.0814 29.4325C22.0814 29.5122 22.0888 29.5974 22.1092 29.6845C22.1407 29.8142 22.2074 29.9494 22.3074 30.0587C22.4075 30.168 22.5316 30.2532 22.6761 30.3199L22.7335 30.1977L22.652 30.307L22.6761 30.3218L22.7335 30.1995L22.652 30.3088L22.6779 30.2755L22.6501 30.307H22.652L22.6779 30.2755L22.6501 30.307L22.6631 30.3218L22.6909 30.3699L22.6946 30.3811L22.7854 30.3607H22.6928V30.3811L22.7835 30.3607H22.6909V30.3625H22.8447L22.6909 30.3588V30.3625H22.8447L22.6909 30.3588L23.0614 30.3699L22.6909 30.3514C22.6872 30.4126 22.6853 30.4718 22.6853 30.5293C22.6853 30.6645 22.6946 30.7868 22.7131 30.8998C22.7428 31.0684 22.7947 31.224 22.9132 31.3611C22.9725 31.4278 23.0485 31.4871 23.1337 31.5223C23.2189 31.5593 23.3078 31.5742 23.3893 31.5742C23.5765 31.5723 23.7284 31.5093 23.8766 31.4315C24.0248 31.3518 24.1693 31.2481 24.3231 31.1258C24.3712 31.0851 24.3972 31.0573 24.4101 31.0462H24.4138V31.0443L24.2934 30.8924L24.3842 31.0628C24.4064 31.0499 24.412 31.0443 24.4138 31.0443L24.2934 30.8924L24.3842 31.0628L24.2323 30.7794V31.0999C24.3212 31.098 24.362 31.0739 24.3842 31.0628L24.2323 30.7794V31.0999V30.7516L24.1211 31.0814C24.1619 31.0962 24.2008 31.0999 24.2323 31.0999V30.7516L24.1211 31.0814H24.1248C24.3453 31.1555 24.5565 31.1907 24.7566 31.1907C25.066 31.1907 25.342 31.1036 25.5699 30.972C25.9145 30.7757 26.1664 30.5015 26.3999 30.2588C26.6314 30.0142 26.8445 29.8012 27.0538 29.6882L27.0705 29.6789L26.8908 29.3881V29.7289C26.9279 29.7289 26.9908 29.7252 27.0705 29.6771L26.8908 29.3862V29.7271V29.4473L26.7926 29.7104C26.8037 29.7141 26.8278 29.7252 26.8908 29.7271V29.4473L26.7926 29.7104L26.8389 29.5863L26.7852 29.7067L26.7926 29.7104L26.8389 29.5863L26.7852 29.7067C26.7852 29.7067 26.7982 29.7141 26.8167 29.7234C26.8352 29.7326 26.8612 29.7475 26.9001 29.7623L27.0335 29.4158L26.7648 29.162L26.7556 29.1732L27.0242 29.427L27.3929 29.4659C27.4132 29.2806 27.4651 29.1472 27.5448 29.0231C27.6633 28.8378 27.8579 28.6748 28.1043 28.5025C28.3488 28.3302 28.636 28.1524 28.9028 27.906C28.9898 27.8263 29.0324 27.7096 29.0195 27.5929C29.0065 27.4762 28.938 27.3724 28.8361 27.3131C28.7212 27.2464 28.6119 27.2057 28.5156 27.1705C28.3729 27.1186 28.258 27.0741 28.221 27.0445L28.2043 27.0315L28.1895 27.0408L28.2062 27.0352L28.2025 27.0297L28.1876 27.0408L28.2043 27.0352V27.0186C28.2043 27.0074 28.2043 26.9889 28.2117 26.963C28.2284 26.8833 28.2525 26.8277 28.2821 26.7833C28.3284 26.7184 28.3914 26.6666 28.4896 26.6239C28.5878 26.5813 28.7175 26.5517 28.8657 26.5387C29.0528 26.522 29.2307 26.4924 29.3974 26.4442C29.6457 26.372 29.8809 26.2534 30.0569 26.0515C30.144 25.9514 30.2126 25.8329 30.257 25.7032C30.3015 25.5735 30.3219 25.4346 30.3219 25.2901C30.3219 25.1122 30.2922 24.9269 30.2348 24.7269C30.2218 24.6824 30.2181 24.6509 30.2181 24.6287C30.2181 24.6009 30.2218 24.5935 30.2255 24.5861C30.2292 24.5768 30.2422 24.5583 30.2867 24.5323C30.3293 24.5064 30.4015 24.4823 30.483 24.4656C30.6387 24.4341 30.7795 24.3823 30.9017 24.3045C30.9944 24.2452 31.074 24.1711 31.137 24.0877C31.2315 23.9617 31.2852 23.8209 31.313 23.6894C31.3427 23.556 31.3501 23.4245 31.3519 23.2966C31.3556 23.0521 31.3797 22.7816 31.4038 22.5074C31.4279 22.2332 31.4538 21.9572 31.4538 21.6904C31.4538 21.5848 31.4501 21.4811 31.439 21.3792C31.4038 21.0346 31.326 20.5899 31.1315 20.1583C31.0333 19.9434 30.9054 19.7303 30.7331 19.5414C30.5627 19.3524 30.3459 19.1875 30.0847 19.0764C29.9717 19.0282 29.8828 18.9763 29.8161 18.9263C29.7161 18.8503 29.6623 18.7799 29.6234 18.6947C29.5845 18.6095 29.5623 18.5002 29.5623 18.3501C29.5623 18.3057 29.5641 18.2575 29.5678 18.2056C29.5845 18.0074 29.5938 17.8351 29.5938 17.6758C29.5938 17.4627 29.5771 17.2738 29.5123 17.0885C29.4641 16.9514 29.3807 16.8199 29.2659 16.7198C29.1806 16.6457 29.0825 16.5901 28.9824 16.5512C28.8305 16.4919 28.6712 16.4642 28.4915 16.4456C28.3136 16.4271 28.1135 16.4215 27.8838 16.4197C27.6189 16.4178 27.3428 16.3975 27.0538 16.3845H27.0242C26.939 16.3882 26.85 16.3882 26.7593 16.3882C26.7185 16.3882 26.6796 16.3882 26.6388 16.3882C26.3461 16.3882 26.0201 16.3882 25.6866 16.4975C25.5199 16.5512 25.3531 16.6364 25.1994 16.7587C25.0456 16.881 24.9085 17.0403 24.7936 17.2348C24.7844 17.2515 24.7492 17.2886 24.6992 17.3145C24.6491 17.3423 24.588 17.3571 24.5398 17.3571C24.5139 17.3571 24.4917 17.3534 24.4731 17.3479C24.3342 17.3015 24.1952 17.2793 24.0618 17.2793C23.8414 17.2793 23.645 17.3442 23.482 17.4275C23.3171 17.5109 23.18 17.6128 23.0466 17.7073C22.8965 17.8129 22.778 17.8444 22.6946 17.8444C22.652 17.8444 22.6168 17.8369 22.5835 17.8221C22.5334 17.7999 22.4834 17.7628 22.4334 17.6906C22.3834 17.6183 22.3352 17.5109 22.3056 17.3645C22.1944 16.8106 22.1444 16.2233 22.0647 15.6194C22.0573 15.5675 22.0425 15.523 22.0147 15.4786C21.9258 15.3266 21.898 15.1933 21.8961 15.0284C21.8961 14.8635 21.9313 14.6708 21.9758 14.4541C22.0184 14.2373 22.0703 13.9983 22.0703 13.7315C22.0703 13.5889 21.9888 13.4592 21.8609 13.3981C21.7627 13.3517 21.6979 13.3036 21.6516 13.2573C21.583 13.1887 21.5478 13.1239 21.5219 13.0312C21.496 12.9405 21.4867 12.8219 21.4867 12.6829C21.4867 12.5459 21.496 12.3884 21.496 12.2179C21.496 11.9993 21.4811 11.7529 21.3737 11.5028C21.3459 11.4361 21.2996 11.3824 21.2384 11.3417C21.0273 11.199 20.7938 11.1305 20.5789 11.1323C20.4214 11.1323 20.2769 11.1657 20.151 11.2083C19.9601 11.2731 19.8008 11.3583 19.6619 11.425C19.5229 11.4917 19.4044 11.538 19.3136 11.5491C19.1302 11.5751 18.982 11.5973 18.8671 11.5955C18.78 11.5955 18.7115 11.5862 18.6448 11.5621C18.5781 11.538 18.5058 11.501 18.4169 11.425C18.202 11.2416 17.9649 11.1193 17.7296 11.0378C17.3757 10.9137 17.0256 10.8692 16.7014 10.8174C16.3772 10.7673 16.0844 10.7136 15.8381 10.6043C15.7732 10.5765 15.7065 10.5673 15.6583 10.5673C15.5305 10.571 15.4601 10.6062 15.3971 10.6358C15.3045 10.684 15.2322 10.7377 15.1655 10.7914C15.0989 10.8451 15.0377 10.897 14.9933 10.9341C14.9303 10.9878 14.8821 11.0193 14.8562 11.0323L14.8432 11.0378H14.8395L14.8691 11.1323V11.036C14.8488 11.036 14.8395 11.0397 14.8395 11.0397L14.8691 11.1342V11.0378V11.2323L14.9896 11.0786C14.9599 11.0526 14.9025 11.0341 14.8691 11.036V11.2305L14.9896 11.0767L14.9136 11.1731L15.021 11.1101C15.021 11.1101 15.0118 11.0934 14.9896 11.0767L14.9136 11.1731L15.021 11.1101C15.0099 11.0897 14.9858 10.9971 14.9747 10.8748C14.971 10.834 14.9581 10.7896 14.9414 10.7525C14.8098 10.4691 14.5986 10.2653 14.3782 10.1374C14.2133 10.0393 14.0447 9.97627 13.8872 9.92625C13.6482 9.85214 13.4278 9.80027 13.2555 9.73172C13.1684 9.69837 13.0943 9.65947 13.0332 9.61686C12.9702 9.57425 12.9202 9.52608 12.8757 9.46494C12.809 9.37416 12.7071 9.31859 12.5941 9.31303V9.3612L12.6108 9.31859L12.5941 9.31488V9.36305L12.6108 9.32044L12.457 9.65762L12.7905 9.49829C12.6571 9.2204 12.5237 8.94065 12.3903 8.66276C12.3273 8.53122 12.1939 8.44785 12.0476 8.45156H11.9883C11.8234 8.45711 11.6808 8.57013 11.64 8.72945C11.627 8.78132 11.6122 8.8332 11.5974 8.88692L11.955 8.98326L12.2921 8.83134C12.268 8.77762 12.244 8.72204 12.218 8.66646C12.1995 8.62385 12.1736 8.5868 12.1402 8.55345C12.0995 8.51269 12.0476 8.47564 11.9864 8.4497C11.9253 8.42377 11.8568 8.40895 11.7938 8.4108C11.7549 8.4108 11.716 8.41636 11.6826 8.42377C11.5881 8.44415 11.5066 8.50158 11.4547 8.58124C11.3862 8.68869 11.3732 8.77206 11.3584 8.8369C11.3491 8.88507 11.3436 8.92583 11.338 8.95732C11.3343 8.97955 11.3306 8.99623 11.3288 9.00364V9.00734L11.5085 9.06663L11.3769 8.93324C11.3325 8.9777 11.3288 9.00549 11.3269 9.00734L11.5085 9.06663L11.3769 8.93324L11.5678 9.12591L11.4659 8.87396C11.4307 8.88878 11.3992 8.91101 11.3769 8.93139L11.5678 9.12406L11.4659 8.8721L11.5622 9.11109V8.85358C11.5363 8.85358 11.5011 8.85913 11.4659 8.8721L11.5622 9.11109V8.85358V9.03699L11.6085 8.85913C11.6085 8.85913 11.5863 8.85358 11.5622 8.85358V9.03699L11.6085 8.85913L11.5881 8.94065L11.6141 8.86099H11.6085L11.5881 8.94065L11.6141 8.86099C11.6141 8.86099 11.577 8.84431 11.527 8.80726C11.4751 8.77021 11.414 8.74612 11.3491 8.74057C11.1676 8.72204 10.9638 8.67017 10.7378 8.61644C10.5118 8.56271 10.2654 8.50899 9.99302 8.50714C9.75033 8.50714 9.4854 8.5553 9.22974 8.68684C9.20751 8.69796 9.16305 8.71648 9.10932 8.73686C9.02781 8.77021 8.92776 8.80541 8.8129 8.87951C8.75547 8.91842 8.69248 8.96844 8.6369 9.0481C8.58132 9.12591 8.54057 9.23892 8.54242 9.35008C8.54242 9.48347 8.58873 9.59648 8.64802 9.68911C8.7073 9.78359 8.78141 9.86696 8.87589 9.95589C8.89256 9.97256 8.89812 9.98182 8.90739 10.0078C8.9148 10.0337 8.92221 10.0763 8.92221 10.1356C8.92221 10.2227 8.90739 10.3375 8.89998 10.4709C8.89442 10.5598 8.89071 10.6469 8.89071 10.7358C8.89071 11.0508 8.93147 11.3769 9.10747 11.6751C9.19454 11.8233 9.31682 11.9567 9.47058 12.0642C9.6225 12.1716 9.8022 12.2531 10.0078 12.3106C10.056 12.3235 10.0875 12.3384 10.1042 12.3476L10.1227 12.3587L10.1598 12.3198L10.1116 12.3402L10.1246 12.3606L10.1616 12.3217L10.1134 12.3421L10.1635 12.3217L10.1116 12.331L10.1153 12.3421L10.1653 12.3217L10.1134 12.331V12.3347C10.1134 12.3476 10.106 12.3976 10.0819 12.4662C10.0579 12.5347 10.0208 12.62 9.98005 12.7126C9.82814 13.0664 9.73366 13.3777 9.7318 13.6852C9.7318 13.839 9.75774 13.9928 9.82258 14.1354C9.91707 14.3522 10.0949 14.5208 10.3024 14.6319C10.5118 14.7449 10.7526 14.8153 11.0379 14.8635C11.2083 14.8931 11.3158 14.9469 11.4103 15.0191C11.5511 15.1247 11.6659 15.2951 11.7956 15.5138C11.9253 15.7287 12.0643 15.988 12.3088 16.2159C12.6089 16.4919 12.8238 16.7884 12.985 17.107C13.2277 17.585 13.3481 18.1167 13.4148 18.6892C13.4834 19.2598 13.4982 19.8674 13.5464 20.4806V20.514C13.5464 20.5566 13.5389 20.577 13.5352 20.5844C13.5297 20.5955 13.5352 20.5918 13.513 20.6048C13.4908 20.6159 13.4389 20.6307 13.3592 20.6307H13.3315H13.3333C13.3018 20.6307 13.2722 20.6307 13.2462 20.6307C12.7905 20.6307 12.3996 20.7734 12.0587 20.9401C11.7178 21.1087 11.4177 21.3032 11.1268 21.4477C10.999 21.5107 10.9193 21.6422 10.9212 21.7849C10.9212 21.9127 10.9249 22.0387 10.9267 22.1665L10.9305 22.211L11.2973 22.161L11.2936 22.1628Z" fill="#083F2F"/>
</g>
<defs>
<clipPath id="clip0_2649_5492">
<rect width="40" height="40" fill="white"/>
</clipPath>
</defs>
</svg>
